<?xml version="1.0" encoding="UTF-8" standalone="no"?>
<!DOCTYPE svg PUBLIC "-//W3C//DTD SVG 1.1//EN"
 "http://www.w3.org/Graphics/SVG/1.1/DTD/svg11.dtd">
<!-- Generated by graphviz version 2.38.0 (20140413.2041)
 -->
<!-- Title: /home/jc/THESIS/hull_abstraction/benchmark/src/benchmark/benchmark.cpp Pages: 1 -->
<svg width="687pt" height="229pt"
 viewBox="0.00 0.00 686.50 229.00" xmlns="http://www.w3.org/2000/svg" xmlns:xlink="http://www.w3.org/1999/xlink">
<g id="graph0" class="graph" transform="scale(1 1) rotate(0) translate(4 225)">
<title>/home/jc/THESIS/hull_abstraction/benchmark/src/benchmark/benchmark.cpp</title>
<polygon fill="white" stroke="none" points="-4,4 -4,-225 682.5,-225 682.5,4 -4,4"/>
<!-- Node1 -->
<g id="node1" class="node"><title>Node1</title>
<polygon fill="#bfbfbf" stroke="black" points="210.5,-179.5 210.5,-220.5 364.5,-220.5 364.5,-179.5 210.5,-179.5"/>
<text text-anchor="start" x="218.5" y="-208.5" font-family="Helvetica,sans-Serif" font-size="10.00">/home/jc/THESIS/hull</text>
<text text-anchor="start" x="218.5" y="-197.5" font-family="Helvetica,sans-Serif" font-size="10.00">_abstraction/benchmark</text>
<text text-anchor="middle" x="287.5" y="-186.5" font-family="Helvetica,sans-Serif" font-size="10.00">/src/benchmark/benchmark.cpp</text>
</g>
<!-- Node2 -->
<g id="node2" class="node"><title>Node2</title>
<g id="a_node2"><a xlink:href="benchmark_8h.html" target="_top" xlink:title="This file contains the declaration of the Benchmark class. ">
<polygon fill="white" stroke="black" points="225.5,-123.5 225.5,-142.5 349.5,-142.5 349.5,-123.5 225.5,-123.5"/>
<text text-anchor="middle" x="287.5" y="-130.5" font-family="Helvetica,sans-Serif" font-size="10.00">benchmark/benchmark.h</text>
</a>
</g>
</g>
<!-- Node1&#45;&gt;Node2 -->
<g id="edge1" class="edge"><title>Node1&#45;&gt;Node2</title>
<path fill="none" stroke="midnightblue" d="M287.5,-179.498C287.5,-171.065 287.5,-161.235 287.5,-152.874"/>
<polygon fill="midnightblue" stroke="midnightblue" points="291,-152.652 287.5,-142.652 284,-152.653 291,-152.652"/>
</g>
<!-- Node3 -->
<g id="node3" class="node"><title>Node3</title>
<polygon fill="white" stroke="#bfbfbf" points="0,-6 0,-25 47,-25 47,-6 0,-6"/>
<text text-anchor="middle" x="23.5" y="-13" font-family="Helvetica,sans-Serif" font-size="10.00">math.h</text>
</g>
<!-- Node2&#45;&gt;Node3 -->
<g id="edge2" class="edge"><title>Node2&#45;&gt;Node3</title>
<path fill="none" stroke="midnightblue" d="M234.708,-123.464C200.175,-116.586 154.73,-105.036 117.5,-87 87.6819,-72.5544 57.8619,-48.0601 40.0453,-32.083"/>
<polygon fill="midnightblue" stroke="midnightblue" points="42.0547,-29.1772 32.3158,-25.0052 37.3273,-34.3399 42.0547,-29.1772"/>
</g>
<!-- Node4 -->
<g id="node4" class="node"><title>Node4</title>
<polygon fill="white" stroke="#bfbfbf" points="65.5,-6 65.5,-25 109.5,-25 109.5,-6 65.5,-6"/>
<text text-anchor="middle" x="87.5" y="-13" font-family="Helvetica,sans-Serif" font-size="10.00">time.h</text>
</g>
<!-- Node2&#45;&gt;Node4 -->
<g id="edge3" class="edge"><title>Node2&#45;&gt;Node4</title>
<path fill="none" stroke="midnightblue" d="M234.093,-123.5C205.095,-116.986 169.715,-105.803 142.5,-87 122.616,-73.2619 106.575,-50.159 97.0573,-34.1629"/>
<polygon fill="midnightblue" stroke="midnightblue" points="99.9846,-32.2302 91.9979,-25.2687 93.9001,-35.6914 99.9846,-32.2302"/>
</g>
<!-- Node5 -->
<g id="node5" class="node"><title>Node5</title>
<polygon fill="white" stroke="#bfbfbf" points="127.5,-6 127.5,-25 175.5,-25 175.5,-6 127.5,-6"/>
<text text-anchor="middle" x="151.5" y="-13" font-family="Helvetica,sans-Serif" font-size="10.00">stdlib.h</text>
</g>
<!-- Node2&#45;&gt;Node5 -->
<g id="edge4" class="edge"><title>Node2&#45;&gt;Node5</title>
<path fill="none" stroke="midnightblue" d="M225.27,-126.648C198.796,-120.962 170.226,-109.579 153.5,-87 142.591,-72.2739 143.754,-50.6688 146.603,-35.262"/>
<polygon fill="midnightblue" stroke="midnightblue" points="150.058,-35.8489 148.826,-25.3259 143.227,-34.3203 150.058,-35.8489"/>
</g>
<!-- Node6 -->
<g id="node6" class="node"><title>Node6</title>
<polygon fill="white" stroke="#bfbfbf" points="194,-6 194,-25 285,-25 285,-6 194,-6"/>
<text text-anchor="middle" x="239.5" y="-13" font-family="Helvetica,sans-Serif" font-size="10.00">pcl/point_types.h</text>
</g>
<!-- Node2&#45;&gt;Node6 -->
<g id="edge5" class="edge"><title>Node2&#45;&gt;Node6</title>
<path fill="none" stroke="midnightblue" d="M297.177,-123.458C310.17,-110.907 330.431,-86.827 319.5,-67 309.954,-49.6859 291.698,-37.4888 275.032,-29.4248"/>
<polygon fill="midnightblue" stroke="midnightblue" points="276.039,-26.0407 265.482,-25.147 273.178,-32.4291 276.039,-26.0407"/>
</g>
<!-- Node7 -->
<g id="node7" class="node"><title>Node7</title>
<polygon fill="white" stroke="#bfbfbf" points="303,-6 303,-25 416,-25 416,-6 303,-6"/>
<text text-anchor="middle" x="359.5" y="-13" font-family="Helvetica,sans-Serif" font-size="10.00">pcl/PCLPointCloud2.h</text>
</g>
<!-- Node2&#45;&gt;Node7 -->
<g id="edge6" class="edge"><title>Node2&#45;&gt;Node7</title>
<path fill="none" stroke="midnightblue" d="M299.747,-123.301C310.531,-115.064 325.965,-101.783 335.5,-87 345.776,-71.0691 352.154,-50.2598 355.728,-35.3865"/>
<polygon fill="midnightblue" stroke="midnightblue" points="359.206,-35.867 357.933,-25.349 352.369,-34.3653 359.206,-35.867"/>
</g>
<!-- Node8 -->
<g id="node8" class="node"><title>Node8</title>
<polygon fill="white" stroke="#bfbfbf" points="434.5,-6 434.5,-25 558.5,-25 558.5,-6 434.5,-6"/>
<text text-anchor="middle" x="496.5" y="-13" font-family="Helvetica,sans-Serif" font-size="10.00">pcl/features/normal_3d.h</text>
</g>
<!-- Node2&#45;&gt;Node8 -->
<g id="edge7" class="edge"><title>Node2&#45;&gt;Node8</title>
<path fill="none" stroke="midnightblue" d="M303.209,-123.319C339.382,-103.328 428.771,-53.9294 472.132,-29.9667"/>
<polygon fill="midnightblue" stroke="midnightblue" points="473.834,-33.0247 480.894,-25.1245 470.448,-26.898 473.834,-33.0247"/>
</g>
<!-- Node9 -->
<g id="node9" class="node"><title>Node9</title>
<polygon fill="white" stroke="#bfbfbf" points="576.5,-0.5 576.5,-30.5 678.5,-30.5 678.5,-0.5 576.5,-0.5"/>
<text text-anchor="start" x="584.5" y="-18.5" font-family="Helvetica,sans-Serif" font-size="10.00">pcl/visualization/pcl</text>
<text text-anchor="middle" x="627.5" y="-7.5" font-family="Helvetica,sans-Serif" font-size="10.00">_visualizer.h</text>
</g>
<!-- Node2&#45;&gt;Node9 -->
<g id="edge8" class="edge"><title>Node2&#45;&gt;Node9</title>
<path fill="none" stroke="midnightblue" d="M312.777,-123.413C368.451,-104.5 502.569,-58.9399 576.486,-33.8297"/>
<polygon fill="midnightblue" stroke="midnightblue" points="577.723,-37.1061 586.066,-30.5755 575.471,-30.4781 577.723,-37.1061"/>
</g>
<!-- Node10 -->
<g id="node10" class="node"><title>Node10</title>
<g id="a_node10"><a xlink:href="math__computing_8h.html" target="_top" xlink:title="This file contains declarations of some mathematical computing methods. ">
<polygon fill="white" stroke="black" points="162.5,-67.5 162.5,-86.5 310.5,-86.5 310.5,-67.5 162.5,-67.5"/>
<text text-anchor="middle" x="236.5" y="-74.5" font-family="Helvetica,sans-Serif" font-size="10.00">benchmark/math_computing.h</text>
</a>
</g>
</g>
<!-- Node2&#45;&gt;Node10 -->
<g id="edge9" class="edge"><title>Node2&#45;&gt;Node10</title>
<path fill="none" stroke="midnightblue" d="M279.078,-123.083C271.652,-115.22 260.648,-103.569 251.688,-94.0813"/>
<polygon fill="midnightblue" stroke="midnightblue" points="254.176,-91.618 244.765,-86.7511 249.087,-96.4244 254.176,-91.618"/>
</g>
<!-- Node10&#45;&gt;Node3 -->
<g id="edge10" class="edge"><title>Node10&#45;&gt;Node3</title>
<path fill="none" stroke="midnightblue" d="M193.724,-67.4418C156.878,-59.5662 102.523,-46.7379 56.5,-31 54.6348,-30.3622 52.729,-29.6618 50.8208,-28.9239"/>
<polygon fill="midnightblue" stroke="midnightblue" points="52.0152,-25.6303 41.4369,-25.0377 49.3368,-32.0977 52.0152,-25.6303"/>
</g>
<!-- Node10&#45;&gt;Node4 -->
<g id="edge11" class="edge"><title>Node10&#45;&gt;Node4</title>
<path fill="none" stroke="midnightblue" d="M212.339,-67.3739C188.343,-58.6692 150.597,-44.6051 118.5,-31 117.132,-30.4203 115.736,-29.8155 114.33,-29.1961"/>
<polygon fill="midnightblue" stroke="midnightblue" points="115.657,-25.9547 105.105,-25.0066 112.762,-32.3283 115.657,-25.9547"/>
</g>
<!-- Node10&#45;&gt;Node5 -->
<g id="edge12" class="edge"><title>Node10&#45;&gt;Node5</title>
<path fill="none" stroke="midnightblue" d="M224.322,-67.4751C210.688,-57.9315 188.368,-42.3073 172.026,-30.8683"/>
<polygon fill="midnightblue" stroke="midnightblue" points="173.855,-27.8764 163.656,-25.0091 169.841,-33.6111 173.855,-27.8764"/>
</g>
<!-- Node10&#45;&gt;Node6 -->
<g id="edge13" class="edge"><title>Node10&#45;&gt;Node6</title>
<path fill="none" stroke="midnightblue" d="M236.93,-67.4751C237.353,-59.0803 238.014,-45.9806 238.559,-35.1631"/>
<polygon fill="midnightblue" stroke="midnightblue" points="242.063,-35.1727 239.071,-25.0091 235.072,-34.8201 242.063,-35.1727"/>
</g>
<!-- Node10&#45;&gt;Node7 -->
<g id="edge14" class="edge"><title>Node10&#45;&gt;Node7</title>
<path fill="none" stroke="midnightblue" d="M254.123,-67.4751C274.674,-57.5338 308.864,-40.9947 332.707,-29.461"/>
<polygon fill="midnightblue" stroke="midnightblue" points="334.432,-32.5145 341.91,-25.0091 331.384,-26.2131 334.432,-32.5145"/>
</g>
<!-- Node10&#45;&gt;Node8 -->
<g id="edge15" class="edge"><title>Node10&#45;&gt;Node8</title>
<path fill="none" stroke="midnightblue" d="M273.752,-67.4751C319.992,-56.8932 398.899,-38.8356 449.322,-27.2966"/>
<polygon fill="midnightblue" stroke="midnightblue" points="450.35,-30.6518 459.317,-25.0091 448.789,-23.8282 450.35,-30.6518"/>
</g>
<!-- Node10&#45;&gt;Node9 -->
<g id="edge16" class="edge"><title>Node10&#45;&gt;Node9</title>
<path fill="none" stroke="midnightblue" d="M310.796,-68.0948C375.809,-60.6749 472.958,-48.3766 566.294,-31.116"/>
<polygon fill="midnightblue" stroke="midnightblue" points="567.002,-34.5444 576.187,-29.2648 565.714,-27.6638 567.002,-34.5444"/>
</g>
</g>
</svg>
