<?xml version="1.0" encoding="UTF-8" standalone="no"?>
<!DOCTYPE svg PUBLIC "-//W3C//DTD SVG 1.1//EN"
 "http://www.w3.org/Graphics/SVG/1.1/DTD/svg11.dtd">
<!-- Generated by graphviz version 2.38.0 (20140413.2041)
 -->
<!-- Title: /home/jc/THESIS/hull_abstraction/ros/src/hull_abstraction/src/bspline_surface_fitting_node.cpp Pages: 1 -->
<svg width="697pt" height="217pt"
 viewBox="0.00 0.00 697.00 217.00" xmlns="http://www.w3.org/2000/svg" xmlns:xlink="http://www.w3.org/1999/xlink">
<g id="graph0" class="graph" transform="scale(1 1) rotate(0) translate(4 213)">
<title>/home/jc/THESIS/hull_abstraction/ros/src/hull_abstraction/src/bspline_surface_fitting_node.cpp</title>
<polygon fill="white" stroke="none" points="-4,4 -4,-213 693,-213 693,4 -4,4"/>
<!-- Node1 -->
<g id="node1" class="node"><title>Node1</title>
<polygon fill="#bfbfbf" stroke="black" points="227.5,-145.5 227.5,-208.5 344.5,-208.5 344.5,-145.5 227.5,-145.5"/>
<text text-anchor="start" x="235.5" y="-196.5" font-family="Helvetica,sans-Serif" font-size="10.00">/home/jc/THESIS/hull</text>
<text text-anchor="start" x="235.5" y="-185.5" font-family="Helvetica,sans-Serif" font-size="10.00">_abstraction/ros/src</text>
<text text-anchor="start" x="235.5" y="-174.5" font-family="Helvetica,sans-Serif" font-size="10.00">/hull_abstraction/src</text>
<text text-anchor="start" x="235.5" y="-163.5" font-family="Helvetica,sans-Serif" font-size="10.00">/bspline_surface_fitting</text>
<text text-anchor="middle" x="286" y="-152.5" font-family="Helvetica,sans-Serif" font-size="10.00">_node.cpp</text>
</g>
<!-- Node2 -->
<g id="node2" class="node"><title>Node2</title>
<g id="a_node2"><a xlink:href="bspline__surface__fitting_8h.html" target="_top" xlink:title="Framework of b&#45;spline surface fitting node. ">
<polygon fill="white" stroke="black" points="229,-67.5 229,-108.5 343,-108.5 343,-67.5 229,-67.5"/>
<text text-anchor="start" x="237" y="-96.5" font-family="Helvetica,sans-Serif" font-size="10.00">bspline_surface_fitting</text>
<text text-anchor="start" x="237" y="-85.5" font-family="Helvetica,sans-Serif" font-size="10.00">_node/bspline_surface</text>
<text text-anchor="middle" x="286" y="-74.5" font-family="Helvetica,sans-Serif" font-size="10.00">_fitting.h</text>
</a>
</g>
</g>
<!-- Node1&#45;&gt;Node2 -->
<g id="edge1" class="edge"><title>Node1&#45;&gt;Node2</title>
<path fill="none" stroke="midnightblue" d="M286,-145.082C286,-136.566 286,-127.345 286,-118.888"/>
<polygon fill="midnightblue" stroke="midnightblue" points="289.5,-118.694 286,-108.694 282.5,-118.694 289.5,-118.694"/>
</g>
<!-- Node3 -->
<g id="node3" class="node"><title>Node3</title>
<polygon fill="white" stroke="#bfbfbf" points="0,-6 0,-25 54,-25 54,-6 0,-6"/>
<text text-anchor="middle" x="27" y="-13" font-family="Helvetica,sans-Serif" font-size="10.00">iostream</text>
</g>
<!-- Node2&#45;&gt;Node3 -->
<g id="edge2" class="edge"><title>Node2&#45;&gt;Node3</title>
<path fill="none" stroke="midnightblue" d="M228.562,-74.852C183.16,-64.7057 118.421,-49.0263 63,-31 60.8655,-30.3057 58.6769,-29.5466 56.4845,-28.7513"/>
<polygon fill="midnightblue" stroke="midnightblue" points="57.5939,-25.4284 47.0035,-25.1215 55.0911,-31.9656 57.5939,-25.4284"/>
</g>
<!-- Node4 -->
<g id="node4" class="node"><title>Node4</title>
<polygon fill="white" stroke="#bfbfbf" points="72.5,-6 72.5,-25 127.5,-25 127.5,-6 72.5,-6"/>
<text text-anchor="middle" x="100" y="-13" font-family="Helvetica,sans-Serif" font-size="10.00">ros/ros.h</text>
</g>
<!-- Node2&#45;&gt;Node4 -->
<g id="edge3" class="edge"><title>Node2&#45;&gt;Node4</title>
<path fill="none" stroke="midnightblue" d="M233.525,-67.4823C204.949,-56.8021 168.991,-43.2797 137,-31 135.164,-30.2954 133.279,-29.5679 131.377,-28.8315"/>
<polygon fill="midnightblue" stroke="midnightblue" points="132.481,-25.5055 121.893,-25.1381 129.941,-32.0284 132.481,-25.5055"/>
</g>
<!-- Node5 -->
<g id="node5" class="node"><title>Node5</title>
<polygon fill="white" stroke="#bfbfbf" points="146,-6 146,-25 286,-25 286,-6 146,-6"/>
<text text-anchor="middle" x="216" y="-13" font-family="Helvetica,sans-Serif" font-size="10.00">sensor_msgs/PointCloud2.h</text>
</g>
<!-- Node2&#45;&gt;Node5 -->
<g id="edge4" class="edge"><title>Node2&#45;&gt;Node5</title>
<path fill="none" stroke="midnightblue" d="M266.501,-67.3618C255.541,-56.323 242.039,-42.7245 231.754,-32.3665"/>
<polygon fill="midnightblue" stroke="midnightblue" points="234.141,-29.8035 224.612,-25.1734 229.174,-34.7357 234.141,-29.8035"/>
</g>
<!-- Node6 -->
<g id="node6" class="node"><title>Node6</title>
<polygon fill="white" stroke="#bfbfbf" points="304.5,-0.5 304.5,-30.5 407.5,-30.5 407.5,-0.5 304.5,-0.5"/>
<text text-anchor="start" x="312.5" y="-18.5" font-family="Helvetica,sans-Serif" font-size="10.00">pcl_conversions/pcl</text>
<text text-anchor="middle" x="356" y="-7.5" font-family="Helvetica,sans-Serif" font-size="10.00">_conversions.h</text>
</g>
<!-- Node2&#45;&gt;Node6 -->
<g id="edge5" class="edge"><title>Node2&#45;&gt;Node6</title>
<path fill="none" stroke="midnightblue" d="M305.499,-67.3618C314.564,-58.2316 325.369,-47.3502 334.653,-37.9997"/>
<polygon fill="midnightblue" stroke="midnightblue" points="337.148,-40.4539 341.71,-30.8916 332.181,-35.5217 337.148,-40.4539"/>
</g>
<!-- Node7 -->
<g id="node7" class="node"><title>Node7</title>
<polygon fill="white" stroke="#bfbfbf" points="425.5,-6 425.5,-25 578.5,-25 578.5,-6 425.5,-6"/>
<text text-anchor="middle" x="502" y="-13" font-family="Helvetica,sans-Serif" font-size="10.00">hull_abstraction/reconstructor.h</text>
</g>
<!-- Node2&#45;&gt;Node7 -->
<g id="edge6" class="edge"><title>Node2&#45;&gt;Node7</title>
<path fill="none" stroke="midnightblue" d="M343.034,-68.3847C381.999,-55.6669 432.449,-39.2006 465.952,-28.2657"/>
<polygon fill="midnightblue" stroke="midnightblue" points="467.353,-31.49 475.774,-25.0599 465.181,-24.8355 467.353,-31.49"/>
</g>
<!-- Node8 -->
<g id="node8" class="node"><title>Node8</title>
<polygon fill="white" stroke="#bfbfbf" points="597,-0.5 597,-30.5 689,-30.5 689,-0.5 597,-0.5"/>
<text text-anchor="start" x="605" y="-18.5" font-family="Helvetica,sans-Serif" font-size="10.00">pcl_utilization/pcl</text>
<text text-anchor="middle" x="643" y="-7.5" font-family="Helvetica,sans-Serif" font-size="10.00">_utilization.h</text>
</g>
<!-- Node2&#45;&gt;Node8 -->
<g id="edge7" class="edge"><title>Node2&#45;&gt;Node8</title>
<path fill="none" stroke="midnightblue" d="M343.031,-77.7268C401.802,-67.878 496.256,-51.2374 586.951,-31.144"/>
<polygon fill="midnightblue" stroke="midnightblue" points="587.851,-34.5292 596.848,-28.9339 586.325,-27.6975 587.851,-34.5292"/>
</g>
</g>
</svg>
