<?xml version="1.0" encoding="UTF-8" standalone="no"?>
<!DOCTYPE svg PUBLIC "-//W3C//DTD SVG 1.1//EN"
 "http://www.w3.org/Graphics/SVG/1.1/DTD/svg11.dtd">
<!-- Generated by graphviz version 2.38.0 (20140413.2041)
 -->
<!-- Title: /home/jc/THESIS/hull_abstraction/ros/src/hull_abstraction/src/bspline_surface_fitting_node/bspline_surface_fitting.h Pages: 1 -->
<svg width="697pt" height="139pt"
 viewBox="0.00 0.00 697.00 139.00" xmlns="http://www.w3.org/2000/svg" xmlns:xlink="http://www.w3.org/1999/xlink">
<g id="graph0" class="graph" transform="scale(1 1) rotate(0) translate(4 135)">
<title>/home/jc/THESIS/hull_abstraction/ros/src/hull_abstraction/src/bspline_surface_fitting_node/bspline_surface_fitting.h</title>
<polygon fill="white" stroke="none" points="-4,4 -4,-135 693,-135 693,4 -4,4"/>
<!-- Node1 -->
<g id="node1" class="node"><title>Node1</title>
<polygon fill="#bfbfbf" stroke="black" points="210,-67.5 210,-130.5 362,-130.5 362,-67.5 210,-67.5"/>
<text text-anchor="start" x="218" y="-118.5" font-family="Helvetica,sans-Serif" font-size="10.00">/home/jc/THESIS/hull</text>
<text text-anchor="start" x="218" y="-107.5" font-family="Helvetica,sans-Serif" font-size="10.00">_abstraction/ros/src</text>
<text text-anchor="start" x="218" y="-96.5" font-family="Helvetica,sans-Serif" font-size="10.00">/hull_abstraction/src</text>
<text text-anchor="start" x="218" y="-85.5" font-family="Helvetica,sans-Serif" font-size="10.00">/bspline_surface_fitting</text>
<text text-anchor="middle" x="286" y="-74.5" font-family="Helvetica,sans-Serif" font-size="10.00">_node/bspline_surface_fitting.h</text>
</g>
<!-- Node2 -->
<g id="node2" class="node"><title>Node2</title>
<polygon fill="white" stroke="#bfbfbf" points="0,-6 0,-25 54,-25 54,-6 0,-6"/>
<text text-anchor="middle" x="27" y="-13" font-family="Helvetica,sans-Serif" font-size="10.00">iostream</text>
</g>
<!-- Node1&#45;&gt;Node2 -->
<g id="edge1" class="edge"><title>Node1&#45;&gt;Node2</title>
<path fill="none" stroke="midnightblue" d="M209.841,-76.9797C166.489,-64.551 111.35,-47.961 63,-31 61.0926,-30.3309 59.1378,-29.6195 57.173,-28.8848"/>
<polygon fill="midnightblue" stroke="midnightblue" points="58.0268,-25.4619 47.438,-25.1069 55.4943,-31.9877 58.0268,-25.4619"/>
</g>
<!-- Node3 -->
<g id="node3" class="node"><title>Node3</title>
<polygon fill="white" stroke="#bfbfbf" points="72.5,-6 72.5,-25 127.5,-25 127.5,-6 72.5,-6"/>
<text text-anchor="middle" x="100" y="-13" font-family="Helvetica,sans-Serif" font-size="10.00">ros/ros.h</text>
</g>
<!-- Node1&#45;&gt;Node3 -->
<g id="edge2" class="edge"><title>Node1&#45;&gt;Node3</title>
<path fill="none" stroke="midnightblue" d="M216.211,-67.4205C185.905,-54.1412 152.086,-39.3224 128.78,-29.1108"/>
<polygon fill="midnightblue" stroke="midnightblue" points="130.041,-25.842 119.477,-25.0343 127.232,-32.2535 130.041,-25.842"/>
</g>
<!-- Node4 -->
<g id="node4" class="node"><title>Node4</title>
<polygon fill="white" stroke="#bfbfbf" points="146,-6 146,-25 286,-25 286,-6 146,-6"/>
<text text-anchor="middle" x="216" y="-13" font-family="Helvetica,sans-Serif" font-size="10.00">sensor_msgs/PointCloud2.h</text>
</g>
<!-- Node1&#45;&gt;Node4 -->
<g id="edge3" class="edge"><title>Node1&#45;&gt;Node4</title>
<path fill="none" stroke="midnightblue" d="M259.536,-67.1883C249.594,-55.6134 238.674,-42.8992 230.258,-33.0999"/>
<polygon fill="midnightblue" stroke="midnightblue" points="232.764,-30.6462 223.593,-25.3406 227.454,-35.2071 232.764,-30.6462"/>
</g>
<!-- Node5 -->
<g id="node5" class="node"><title>Node5</title>
<polygon fill="white" stroke="#bfbfbf" points="304.5,-0.5 304.5,-30.5 407.5,-30.5 407.5,-0.5 304.5,-0.5"/>
<text text-anchor="start" x="312.5" y="-18.5" font-family="Helvetica,sans-Serif" font-size="10.00">pcl_conversions/pcl</text>
<text text-anchor="middle" x="356" y="-7.5" font-family="Helvetica,sans-Serif" font-size="10.00">_conversions.h</text>
</g>
<!-- Node1&#45;&gt;Node5 -->
<g id="edge4" class="edge"><title>Node1&#45;&gt;Node5</title>
<path fill="none" stroke="midnightblue" d="M312.464,-67.1883C320.764,-57.525 329.746,-47.0675 337.383,-38.1751"/>
<polygon fill="midnightblue" stroke="midnightblue" points="340.101,-40.3826 343.962,-30.5161 334.791,-35.8217 340.101,-40.3826"/>
</g>
<!-- Node6 -->
<g id="node6" class="node"><title>Node6</title>
<polygon fill="white" stroke="#bfbfbf" points="425.5,-6 425.5,-25 578.5,-25 578.5,-6 425.5,-6"/>
<text text-anchor="middle" x="502" y="-13" font-family="Helvetica,sans-Serif" font-size="10.00">hull_abstraction/reconstructor.h</text>
</g>
<!-- Node1&#45;&gt;Node6 -->
<g id="edge5" class="edge"><title>Node1&#45;&gt;Node6</title>
<path fill="none" stroke="midnightblue" d="M362.154,-69.2661C399.095,-55.3278 441.495,-39.3295 469.833,-28.637"/>
<polygon fill="midnightblue" stroke="midnightblue" points="471.118,-31.8932 479.238,-25.0883 468.647,-25.3439 471.118,-31.8932"/>
</g>
<!-- Node7 -->
<g id="node7" class="node"><title>Node7</title>
<polygon fill="white" stroke="#bfbfbf" points="597,-0.5 597,-30.5 689,-30.5 689,-0.5 597,-0.5"/>
<text text-anchor="start" x="605" y="-18.5" font-family="Helvetica,sans-Serif" font-size="10.00">pcl_utilization/pcl</text>
<text text-anchor="middle" x="643" y="-7.5" font-family="Helvetica,sans-Serif" font-size="10.00">_utilization.h</text>
</g>
<!-- Node1&#45;&gt;Node7 -->
<g id="edge6" class="edge"><title>Node1&#45;&gt;Node7</title>
<path fill="none" stroke="midnightblue" d="M362.212,-81.962C421.06,-69.3769 504.744,-51.0449 587.052,-31.1823"/>
<polygon fill="midnightblue" stroke="midnightblue" points="587.925,-34.572 596.82,-28.816 586.277,-27.7687 587.925,-34.572"/>
</g>
</g>
</svg>
