<?xml version="1.0" encoding="UTF-8" standalone="no"?>
<!DOCTYPE svg PUBLIC "-//W3C//DTD SVG 1.1//EN"
 "http://www.w3.org/Graphics/SVG/1.1/DTD/svg11.dtd">
<!-- Generated by graphviz version 2.38.0 (20140413.2041)
 -->
<!-- Title: /home/jc/hull_abstraction/ros/src/hull_abstraction/src/poisson_reconstruction_node Pages: 1 -->
<svg width="184pt" height="151pt"
 viewBox="0.00 0.00 184.00 151.00" xmlns="http://www.w3.org/2000/svg" xmlns:xlink="http://www.w3.org/1999/xlink">
<g id="graph0" class="graph" transform="scale(1 1) rotate(0) translate(4 147)">
<title>/home/jc/hull_abstraction/ros/src/hull_abstraction/src/poisson_reconstruction_node</title>
<polygon fill="white" stroke="none" points="-4,4 -4,-147 180,-147 180,4 -4,4"/>
<g id="clust1" class="cluster"><title>clusterdir_ad7940958c09a400c925d032b2c617d4</title>
<g id="a_clust1"><a xlink:href="dir_ad7940958c09a400c925d032b2c617d4.html" target="_top" xlink:title="src">
<polygon fill="#ddddee" stroke="black" points="8,-64 8,-135 168,-135 168,-64 8,-64"/>
<text text-anchor="middle" x="88" y="-123" font-family="Helvetica,sans-Serif" font-size="10.00">src</text>
</a>
</g>
</g>
<!-- dir_16a449ea048d444c490deba2b5e06d8e -->
<g id="node1" class="node"><title>dir_16a449ea048d444c490deba2b5e06d8e</title>
<g id="a_node1"><a xlink:href="dir_16a449ea048d444c490deba2b5e06d8e.html" target="_top" xlink:title="poisson_reconstruction_node">
<polygon fill="#eeeeff" stroke="black" points="159.5,-108 16.5,-108 16.5,-72 159.5,-72 159.5,-108"/>
<text text-anchor="middle" x="88" y="-87.5" font-family="Helvetica,sans-Serif" font-size="10.00">poisson_reconstruction_node</text>
</a>
</g>
</g>
<!-- dir_2132a1baf316c08cc1080432d0b1741e -->
<g id="node2" class="node"><title>dir_2132a1baf316c08cc1080432d0b1741e</title>
<g id="a_node2"><a xlink:href="dir_2132a1baf316c08cc1080432d0b1741e.html" target="_top" xlink:title="include">
<polygon fill="white" stroke="red" points="115,-36 61,-36 61,-0 115,-0 115,-36"/>
<text text-anchor="middle" x="88" y="-15.5" font-family="Helvetica,sans-Serif" font-size="10.00">include</text>
</a>
</g>
</g>
<!-- dir_16a449ea048d444c490deba2b5e06d8e&#45;&gt;dir_2132a1baf316c08cc1080432d0b1741e -->
<g id="edge1" class="edge"><title>dir_16a449ea048d444c490deba2b5e06d8e&#45;&gt;dir_2132a1baf316c08cc1080432d0b1741e</title>
<path fill="none" stroke="black" d="M88,-71.6966C88,-63.9827 88,-54.7125 88,-46.1124"/>
<polygon fill="black" stroke="black" points="91.5001,-46.1043 88,-36.1043 84.5001,-46.1044 91.5001,-46.1043"/>
<g id="a_edge1&#45;headlabel"><a xlink:href="dir_000024_000014.html" target="_top" xlink:title="2">
<text text-anchor="middle" x="94.3393" y="-47.199" font-family="Helvetica,sans-Serif" font-size="10.00">2</text>
</a>
</g>
</g>
</g>
</svg>
