<?xml version="1.0" encoding="UTF-8" standalone="no"?>
<!DOCTYPE svg PUBLIC "-//W3C//DTD SVG 1.1//EN"
 "http://www.w3.org/Graphics/SVG/1.1/DTD/svg11.dtd">
<!-- Generated by graphviz version 2.38.0 (20140413.2041)
 -->
<!-- Title: /home/jc/hull_abstraction/prototype/src Pages: 1 -->
<svg width="214pt" height="159pt"
 viewBox="0.00 0.00 214.00 159.00" xmlns="http://www.w3.org/2000/svg" xmlns:xlink="http://www.w3.org/1999/xlink">
<g id="graph0" class="graph" transform="scale(1 1) rotate(0) translate(4 155)">
<title>/home/jc/hull_abstraction/prototype/src</title>
<polygon fill="white" stroke="none" points="-4,4 -4,-155 210,-155 210,4 -4,4"/>
<g id="clust1" class="cluster"><title>clusterdir_b3a2258401d5c83a0d9518ae73f64ab9</title>
<g id="a_clust1"><a xlink:href="dir_b3a2258401d5c83a0d9518ae73f64ab9.html" target="_top" xlink:title="prototype">
<polygon fill="#ddddee" stroke="black" points="8,-56 8,-143 198,-143 198,-56 8,-56"/>
<text text-anchor="middle" x="103" y="-131" font-family="Helvetica,sans-Serif" font-size="10.00">prototype</text>
</a>
</g>
</g>
<g id="clust2" class="cluster"><title>clusterdir_e1591faedfdf413b978327448021e69f</title>
<g id="a_clust2"><a xlink:href="dir_e1591faedfdf413b978327448021e69f.html" target="_top">
<polygon fill="#eeeeff" stroke="black" points="16,-64 16,-116 190,-116 190,-64 16,-64"/>
</a>
</g>
</g>
<!-- dir_e1591faedfdf413b978327448021e69f -->
<g id="node1" class="node"><title>dir_e1591faedfdf413b978327448021e69f</title>
<text text-anchor="middle" x="155" y="-87.5" font-family="Helvetica,sans-Serif" font-size="10.00">src</text>
</g>
<!-- dir_656f9e2bc6da7b040e78d62b7442729a -->
<g id="node2" class="node"><title>dir_656f9e2bc6da7b040e78d62b7442729a</title>
<g id="a_node2"><a xlink:href="dir_656f9e2bc6da7b040e78d62b7442729a.html" target="_top" xlink:title="hull_abstraction">
<polygon fill="white" stroke="black" points="109.5,-108 24.5,-108 24.5,-72 109.5,-72 109.5,-108"/>
<text text-anchor="middle" x="67" y="-87.5" font-family="Helvetica,sans-Serif" font-size="10.00">hull_abstraction</text>
</a>
</g>
</g>
<!-- dir_38206c829915c2a68e08aed7ef185c46 -->
<g id="node3" class="node"><title>dir_38206c829915c2a68e08aed7ef185c46</title>
<g id="a_node3"><a xlink:href="dir_38206c829915c2a68e08aed7ef185c46.html" target="_top" xlink:title="include">
<polygon fill="white" stroke="red" points="94,-36 40,-36 40,-0 94,-0 94,-36"/>
<text text-anchor="middle" x="67" y="-15.5" font-family="Helvetica,sans-Serif" font-size="10.00">include</text>
</a>
</g>
</g>
<!-- dir_656f9e2bc6da7b040e78d62b7442729a&#45;&gt;dir_38206c829915c2a68e08aed7ef185c46 -->
<g id="edge1" class="edge"><title>dir_656f9e2bc6da7b040e78d62b7442729a&#45;&gt;dir_38206c829915c2a68e08aed7ef185c46</title>
<path fill="none" stroke="black" d="M67,-71.6966C67,-63.9827 67,-54.7125 67,-46.1124"/>
<polygon fill="black" stroke="black" points="70.5001,-46.1043 67,-36.1043 63.5001,-46.1044 70.5001,-46.1043"/>
<g id="a_edge1&#45;headlabel"><a xlink:href="dir_000019_000012.html" target="_top" xlink:title="1">
<text text-anchor="middle" x="73.3393" y="-47.199" font-family="Helvetica,sans-Serif" font-size="10.00">1</text>
</a>
</g>
</g>
</g>
</svg>
