<?xml version="1.0" encoding="UTF-8" standalone="no"?>
<!DOCTYPE svg PUBLIC "-//W3C//DTD SVG 1.1//EN"
 "http://www.w3.org/Graphics/SVG/1.1/DTD/svg11.dtd">
<!-- Generated by graphviz version 2.38.0 (20140413.2041)
 -->
<!-- Title: /home/jc/hull_abstraction/prototype/src/hull_abstraction Pages: 1 -->
<svg width="126pt" height="151pt"
 viewBox="0.00 0.00 126.00 151.00" xmlns="http://www.w3.org/2000/svg" xmlns:xlink="http://www.w3.org/1999/xlink">
<g id="graph0" class="graph" transform="scale(1 1) rotate(0) translate(4 147)">
<title>/home/jc/hull_abstraction/prototype/src/hull_abstraction</title>
<polygon fill="white" stroke="none" points="-4,4 -4,-147 122,-147 122,4 -4,4"/>
<g id="clust1" class="cluster"><title>clusterdir_e1591faedfdf413b978327448021e69f</title>
<g id="a_clust1"><a xlink:href="dir_e1591faedfdf413b978327448021e69f.html" target="_top" xlink:title="src">
<polygon fill="#ddddee" stroke="black" points="8,-64 8,-135 110,-135 110,-64 8,-64"/>
<text text-anchor="middle" x="59" y="-123" font-family="Helvetica,sans-Serif" font-size="10.00">src</text>
</a>
</g>
</g>
<!-- dir_656f9e2bc6da7b040e78d62b7442729a -->
<g id="node1" class="node"><title>dir_656f9e2bc6da7b040e78d62b7442729a</title>
<g id="a_node1"><a xlink:href="dir_656f9e2bc6da7b040e78d62b7442729a.html" target="_top" xlink:title="hull_abstraction">
<polygon fill="#eeeeff" stroke="black" points="101.5,-108 16.5,-108 16.5,-72 101.5,-72 101.5,-108"/>
<text text-anchor="middle" x="59" y="-87.5" font-family="Helvetica,sans-Serif" font-size="10.00">hull_abstraction</text>
</a>
</g>
</g>
<!-- dir_38206c829915c2a68e08aed7ef185c46 -->
<g id="node2" class="node"><title>dir_38206c829915c2a68e08aed7ef185c46</title>
<g id="a_node2"><a xlink:href="dir_38206c829915c2a68e08aed7ef185c46.html" target="_top" xlink:title="include">
<polygon fill="white" stroke="red" points="86,-36 32,-36 32,-0 86,-0 86,-36"/>
<text text-anchor="middle" x="59" y="-15.5" font-family="Helvetica,sans-Serif" font-size="10.00">include</text>
</a>
</g>
</g>
<!-- dir_656f9e2bc6da7b040e78d62b7442729a&#45;&gt;dir_38206c829915c2a68e08aed7ef185c46 -->
<g id="edge1" class="edge"><title>dir_656f9e2bc6da7b040e78d62b7442729a&#45;&gt;dir_38206c829915c2a68e08aed7ef185c46</title>
<path fill="none" stroke="black" d="M59,-71.6966C59,-63.9827 59,-54.7125 59,-46.1124"/>
<polygon fill="black" stroke="black" points="62.5001,-46.1043 59,-36.1043 55.5001,-46.1044 62.5001,-46.1043"/>
<g id="a_edge1&#45;headlabel"><a xlink:href="dir_000019_000012.html" target="_top" xlink:title="1">
<text text-anchor="middle" x="65.3393" y="-47.199" font-family="Helvetica,sans-Serif" font-size="10.00">1</text>
</a>
</g>
</g>
</g>
</svg>
