<?xml version="1.0" encoding="UTF-8" standalone="no"?>
<!DOCTYPE svg PUBLIC "-//W3C//DTD SVG 1.1//EN"
 "http://www.w3.org/Graphics/SVG/1.1/DTD/svg11.dtd">
<!-- Generated by graphviz version 2.38.0 (20140413.2041)
 -->
<!-- Title: /home/jc/THESIS/hull_abstraction/ros Pages: 1 -->
<svg width="310pt" height="76pt"
 viewBox="0.00 0.00 310.00 76.00" xmlns="http://www.w3.org/2000/svg" xmlns:xlink="http://www.w3.org/1999/xlink">
<g id="graph0" class="graph" transform="scale(1 1) rotate(0) translate(4 72)">
<title>/home/jc/THESIS/hull_abstraction/ros</title>
<polygon fill="white" stroke="none" points="-4,4 -4,-72 306,-72 306,4 -4,4"/>
<g id="clust1" class="cluster"><title>clusterdir_b6bc2876df5f51b64790622082ac4e8d</title>
<g id="a_clust1"><a xlink:href="dir_b6bc2876df5f51b64790622082ac4e8d.html" target="_top">
<polygon fill="#eeeeff" stroke="black" points="8,-8 8,-60 294,-60 294,-8 8,-8"/>
</a>
</g>
</g>
<!-- dir_b6bc2876df5f51b64790622082ac4e8d -->
<g id="node1" class="node"><title>dir_b6bc2876df5f51b64790622082ac4e8d</title>
<text text-anchor="middle" x="259" y="-31.5" font-family="Helvetica,sans-Serif" font-size="10.00">ros</text>
</g>
<!-- dir_f01f40af73c9dbad2ac8c522089d41ab -->
<g id="node2" class="node"><title>dir_f01f40af73c9dbad2ac8c522089d41ab</title>
<g id="a_node2"><a xlink:href="dir_f01f40af73c9dbad2ac8c522089d41ab.html" target="_top" xlink:title="build">
<polygon fill="white" stroke="red" points="214,-52 160,-52 160,-16 214,-16 214,-52"/>
<text text-anchor="middle" x="187" y="-31.5" font-family="Helvetica,sans-Serif" font-size="10.00">build</text>
</a>
</g>
</g>
<!-- dir_615f3d0f6e226ad5950c45fe9e6397a9 -->
<g id="node3" class="node"><title>dir_615f3d0f6e226ad5950c45fe9e6397a9</title>
<g id="a_node3"><a xlink:href="dir_615f3d0f6e226ad5950c45fe9e6397a9.html" target="_top" xlink:title="devel">
<polygon fill="white" stroke="black" points="142,-52 88,-52 88,-16 142,-16 142,-52"/>
<text text-anchor="middle" x="115" y="-31.5" font-family="Helvetica,sans-Serif" font-size="10.00">devel</text>
</a>
</g>
</g>
<!-- dir_49b54ca7f98dc469780b4bca0e671444 -->
<g id="node4" class="node"><title>dir_49b54ca7f98dc469780b4bca0e671444</title>
<g id="a_node4"><a xlink:href="dir_49b54ca7f98dc469780b4bca0e671444.html" target="_top" xlink:title="src">
<polygon fill="white" stroke="red" points="70,-52 16,-52 16,-16 70,-16 70,-52"/>
<text text-anchor="middle" x="43" y="-31.5" font-family="Helvetica,sans-Serif" font-size="10.00">src</text>
</a>
</g>
</g>
</g>
</svg>
