<?xml version="1.0" encoding="UTF-8" standalone="no"?>
<!DOCTYPE svg PUBLIC "-//W3C//DTD SVG 1.1//EN"
 "http://www.w3.org/Graphics/SVG/1.1/DTD/svg11.dtd">
<!-- Generated by graphviz version 2.38.0 (20140413.2041)
 -->
<!-- Title: /home/jc/hull_abstraction/ros/src/hull_abstraction/src/moving_least_squares_node Pages: 1 -->
<svg width="180pt" height="151pt"
 viewBox="0.00 0.00 180.00 151.00" xmlns="http://www.w3.org/2000/svg" xmlns:xlink="http://www.w3.org/1999/xlink">
<g id="graph0" class="graph" transform="scale(1 1) rotate(0) translate(4 147)">
<title>/home/jc/hull_abstraction/ros/src/hull_abstraction/src/moving_least_squares_node</title>
<polygon fill="white" stroke="none" points="-4,4 -4,-147 176,-147 176,4 -4,4"/>
<g id="clust1" class="cluster"><title>clusterdir_ad7940958c09a400c925d032b2c617d4</title>
<g id="a_clust1"><a xlink:href="dir_ad7940958c09a400c925d032b2c617d4.html" target="_top" xlink:title="src">
<polygon fill="#ddddee" stroke="black" points="8,-64 8,-135 164,-135 164,-64 8,-64"/>
<text text-anchor="middle" x="86" y="-123" font-family="Helvetica,sans-Serif" font-size="10.00">src</text>
</a>
</g>
</g>
<!-- dir_c89ad819976b74e5e6551154007fa249 -->
<g id="node1" class="node"><title>dir_c89ad819976b74e5e6551154007fa249</title>
<g id="a_node1"><a xlink:href="dir_c89ad819976b74e5e6551154007fa249.html" target="_top" xlink:title="moving_least_squares_node">
<polygon fill="#eeeeff" stroke="black" points="156,-108 16,-108 16,-72 156,-72 156,-108"/>
<text text-anchor="middle" x="86" y="-87.5" font-family="Helvetica,sans-Serif" font-size="10.00">moving_least_squares_node</text>
</a>
</g>
</g>
<!-- dir_2132a1baf316c08cc1080432d0b1741e -->
<g id="node2" class="node"><title>dir_2132a1baf316c08cc1080432d0b1741e</title>
<g id="a_node2"><a xlink:href="dir_2132a1baf316c08cc1080432d0b1741e.html" target="_top" xlink:title="include">
<polygon fill="white" stroke="red" points="113,-36 59,-36 59,-0 113,-0 113,-36"/>
<text text-anchor="middle" x="86" y="-15.5" font-family="Helvetica,sans-Serif" font-size="10.00">include</text>
</a>
</g>
</g>
<!-- dir_c89ad819976b74e5e6551154007fa249&#45;&gt;dir_2132a1baf316c08cc1080432d0b1741e -->
<g id="edge1" class="edge"><title>dir_c89ad819976b74e5e6551154007fa249&#45;&gt;dir_2132a1baf316c08cc1080432d0b1741e</title>
<path fill="none" stroke="black" d="M86,-71.6966C86,-63.9827 86,-54.7125 86,-46.1124"/>
<polygon fill="black" stroke="black" points="89.5001,-46.1043 86,-36.1043 82.5001,-46.1044 89.5001,-46.1043"/>
<g id="a_edge1&#45;headlabel"><a xlink:href="dir_000022_000014.html" target="_top" xlink:title="1">
<text text-anchor="middle" x="92.3393" y="-47.199" font-family="Helvetica,sans-Serif" font-size="10.00">1</text>
</a>
</g>
</g>
</g>
</svg>
