<?xml version="1.0" encoding="UTF-8" standalone="no"?>
<!DOCTYPE svg PUBLIC "-//W3C//DTD SVG 1.1//EN"
 "http://www.w3.org/Graphics/SVG/1.1/DTD/svg11.dtd">
<!-- Generated by graphviz version 2.38.0 (20140413.2041)
 -->
<!-- Title: /home/jc/THESIS/hull_abstraction/ros/src/hull_abstraction/src/display_mesh_node/display_mesh.h Pages: 1 -->
<svg width="709pt" height="128pt"
 viewBox="0.00 0.00 708.50 128.00" xmlns="http://www.w3.org/2000/svg" xmlns:xlink="http://www.w3.org/1999/xlink">
<g id="graph0" class="graph" transform="scale(1 1) rotate(0) translate(4 124)">
<title>/home/jc/THESIS/hull_abstraction/ros/src/hull_abstraction/src/display_mesh_node/display_mesh.h</title>
<polygon fill="white" stroke="none" points="-4,4 -4,-124 704.5,-124 704.5,4 -4,4"/>
<!-- Node1 -->
<g id="node1" class="node"><title>Node1</title>
<polygon fill="#bfbfbf" stroke="black" points="212,-67.5 212,-119.5 389,-119.5 389,-67.5 212,-67.5"/>
<text text-anchor="start" x="220" y="-107.5" font-family="Helvetica,sans-Serif" font-size="10.00">/home/jc/THESIS/hull</text>
<text text-anchor="start" x="220" y="-96.5" font-family="Helvetica,sans-Serif" font-size="10.00">_abstraction/ros/src</text>
<text text-anchor="start" x="220" y="-85.5" font-family="Helvetica,sans-Serif" font-size="10.00">/hull_abstraction/src</text>
<text text-anchor="middle" x="300.5" y="-74.5" font-family="Helvetica,sans-Serif" font-size="10.00">/display_mesh_node/display_mesh.h</text>
</g>
<!-- Node2 -->
<g id="node2" class="node"><title>Node2</title>
<polygon fill="white" stroke="#bfbfbf" points="0,-6 0,-25 55,-25 55,-6 0,-6"/>
<text text-anchor="middle" x="27.5" y="-13" font-family="Helvetica,sans-Serif" font-size="10.00">ros/ros.h</text>
</g>
<!-- Node1&#45;&gt;Node2 -->
<g id="edge1" class="edge"><title>Node1&#45;&gt;Node2</title>
<path fill="none" stroke="midnightblue" d="M211.806,-72.0292C167.239,-61.077 112.62,-46.6378 64.5,-31 62.2301,-30.2623 59.8981,-29.4593 57.5621,-28.6219"/>
<polygon fill="midnightblue" stroke="midnightblue" points="58.6787,-25.3027 48.0865,-25.0667 56.2196,-31.8566 58.6787,-25.3027"/>
</g>
<!-- Node3 -->
<g id="node3" class="node"><title>Node3</title>
<polygon fill="white" stroke="#bfbfbf" points="73.5,-6 73.5,-25 163.5,-25 163.5,-6 73.5,-6"/>
<text text-anchor="middle" x="118.5" y="-13" font-family="Helvetica,sans-Serif" font-size="10.00">pcl/point_cloud.h</text>
</g>
<!-- Node1&#45;&gt;Node3 -->
<g id="edge2" class="edge"><title>Node1&#45;&gt;Node3</title>
<path fill="none" stroke="midnightblue" d="M240.402,-67.4041C209.507,-54.5027 173.219,-39.3495 148.317,-28.9511"/>
<polygon fill="midnightblue" stroke="midnightblue" points="149.618,-25.7016 139.042,-25.0779 146.921,-32.161 149.618,-25.7016"/>
</g>
<!-- Node4 -->
<g id="node4" class="node"><title>Node4</title>
<polygon fill="white" stroke="#bfbfbf" points="182,-0.5 182,-30.5 285,-30.5 285,-0.5 182,-0.5"/>
<text text-anchor="start" x="190" y="-18.5" font-family="Helvetica,sans-Serif" font-size="10.00">pcl_conversions/pcl</text>
<text text-anchor="middle" x="233.5" y="-7.5" font-family="Helvetica,sans-Serif" font-size="10.00">_conversions.h</text>
</g>
<!-- Node1&#45;&gt;Node4 -->
<g id="edge3" class="edge"><title>Node1&#45;&gt;Node4</title>
<path fill="none" stroke="midnightblue" d="M278.19,-67.1931C270.029,-57.9363 260.868,-47.5441 252.974,-38.5901"/>
<polygon fill="midnightblue" stroke="midnightblue" points="255.385,-36.032 246.146,-30.8453 250.134,-40.6611 255.385,-36.032"/>
</g>
<!-- Node5 -->
<g id="node5" class="node"><title>Node5</title>
<polygon fill="white" stroke="#bfbfbf" points="303,-6 303,-25 432,-25 432,-6 303,-6"/>
<text text-anchor="middle" x="367.5" y="-13" font-family="Helvetica,sans-Serif" font-size="10.00">pcl_msgs/PolygonMesh.h</text>
</g>
<!-- Node1&#45;&gt;Node5 -->
<g id="edge4" class="edge"><title>Node1&#45;&gt;Node5</title>
<path fill="none" stroke="midnightblue" d="M322.81,-67.1931C332.803,-55.8582 344.296,-42.821 353.125,-32.8065"/>
<polygon fill="midnightblue" stroke="midnightblue" points="355.835,-35.0247 359.822,-25.2089 350.584,-30.3956 355.835,-35.0247"/>
</g>
<!-- Node6 -->
<g id="node6" class="node"><title>Node6</title>
<polygon fill="white" stroke="#bfbfbf" points="450.5,-6 450.5,-25 590.5,-25 590.5,-6 450.5,-6"/>
<text text-anchor="middle" x="520.5" y="-13" font-family="Helvetica,sans-Serif" font-size="10.00">sensor_msgs/PointCloud2.h</text>
</g>
<!-- Node1&#45;&gt;Node6 -->
<g id="edge5" class="edge"><title>Node1&#45;&gt;Node6</title>
<path fill="none" stroke="midnightblue" d="M373.146,-67.4041C411.153,-54.2744 455.911,-38.8124 486.042,-28.4035"/>
<polygon fill="midnightblue" stroke="midnightblue" points="487.36,-31.6513 495.669,-25.0779 485.074,-25.035 487.36,-31.6513"/>
</g>
<!-- Node7 -->
<g id="node7" class="node"><title>Node7</title>
<polygon fill="white" stroke="#bfbfbf" points="608.5,-0.5 608.5,-30.5 700.5,-30.5 700.5,-0.5 608.5,-0.5"/>
<text text-anchor="start" x="616.5" y="-18.5" font-family="Helvetica,sans-Serif" font-size="10.00">pcl_utilization/pcl</text>
<text text-anchor="middle" x="654.5" y="-7.5" font-family="Helvetica,sans-Serif" font-size="10.00">_utilization.h</text>
</g>
<!-- Node1&#45;&gt;Node7 -->
<g id="edge6" class="edge"><title>Node1&#45;&gt;Node7</title>
<path fill="none" stroke="midnightblue" d="M389.09,-75.6037C446.293,-64.3821 522.515,-48.8505 598.576,-31.1509"/>
<polygon fill="midnightblue" stroke="midnightblue" points="599.393,-34.5543 608.332,-28.8681 597.798,-27.7383 599.393,-34.5543"/>
</g>
</g>
</svg>
