<?xml version="1.0" encoding="UTF-8" standalone="no"?>
<!DOCTYPE svg PUBLIC "-//W3C//DTD SVG 1.1//EN"
 "http://www.w3.org/Graphics/SVG/1.1/DTD/svg11.dtd">
<!-- Generated by graphviz version 2.38.0 (20140413.2041)
 -->
<!-- Title: /home/jc/hull_abstraction/prototype/include/hull_abstraction/functions.h Pages: 1 -->
<svg width="312pt" height="128pt"
 viewBox="0.00 0.00 311.50 128.00" xmlns="http://www.w3.org/2000/svg" xmlns:xlink="http://www.w3.org/1999/xlink">
<g id="graph0" class="graph" transform="scale(1 1) rotate(0) translate(4 124)">
<title>/home/jc/hull_abstraction/prototype/include/hull_abstraction/functions.h</title>
<polygon fill="white" stroke="none" points="-4,4 -4,-124 307.5,-124 307.5,4 -4,4"/>
<!-- Node1 -->
<g id="node1" class="node"><title>Node1</title>
<polygon fill="#bfbfbf" stroke="black" points="86,-78.5 86,-119.5 211,-119.5 211,-78.5 86,-78.5"/>
<text text-anchor="start" x="94" y="-107.5" font-family="Helvetica,sans-Serif" font-size="10.00">/home/jc/hull_abstraction</text>
<text text-anchor="start" x="94" y="-96.5" font-family="Helvetica,sans-Serif" font-size="10.00">/prototype/include/hull</text>
<text text-anchor="middle" x="148.5" y="-85.5" font-family="Helvetica,sans-Serif" font-size="10.00">_abstraction/functions.h</text>
</g>
<!-- Node2 -->
<g id="node2" class="node"><title>Node2</title>
<g id="a_node2"><a xlink:href="prototype_2include_2hull__abstraction_2preprocessor_8h.html" target="_top" xlink:title="/home/jc/hull_abstraction\l/prototype/include/hull\l_abstraction/preprocessor.h">
<polygon fill="white" stroke="black" points="0,-0.5 0,-41.5 137,-41.5 137,-0.5 0,-0.5"/>
<text text-anchor="start" x="8" y="-29.5" font-family="Helvetica,sans-Serif" font-size="10.00">/home/jc/hull_abstraction</text>
<text text-anchor="start" x="8" y="-18.5" font-family="Helvetica,sans-Serif" font-size="10.00">/prototype/include/hull</text>
<text text-anchor="middle" x="68.5" y="-7.5" font-family="Helvetica,sans-Serif" font-size="10.00">_abstraction/preprocessor.h</text>
</a>
</g>
</g>
<!-- Node1&#45;&gt;Node2 -->
<g id="edge1" class="edge"><title>Node1&#45;&gt;Node2</title>
<path fill="none" stroke="midnightblue" d="M120.596,-71.4916C110.215,-61.6294 98.634,-50.6273 89.0322,-41.5056"/>
<polygon fill="midnightblue" stroke="midnightblue" points="118.237,-74.0781 127.898,-78.4281 123.059,-69.0031 118.237,-74.0781"/>
</g>
<!-- Node3 -->
<g id="node3" class="node"><title>Node3</title>
<g id="a_node3"><a xlink:href="functions_8cpp.html" target="_top" xlink:title="/home/jc/hull_abstraction\l/prototype/src/hull_abstraction\l/functions.cpp">
<polygon fill="white" stroke="black" points="155.5,-0.5 155.5,-41.5 303.5,-41.5 303.5,-0.5 155.5,-0.5"/>
<text text-anchor="start" x="163.5" y="-29.5" font-family="Helvetica,sans-Serif" font-size="10.00">/home/jc/hull_abstraction</text>
<text text-anchor="start" x="163.5" y="-18.5" font-family="Helvetica,sans-Serif" font-size="10.00">/prototype/src/hull_abstraction</text>
<text text-anchor="middle" x="229.5" y="-7.5" font-family="Helvetica,sans-Serif" font-size="10.00">/functions.cpp</text>
</a>
</g>
</g>
<!-- Node1&#45;&gt;Node3 -->
<g id="edge2" class="edge"><title>Node1&#45;&gt;Node3</title>
<path fill="none" stroke="midnightblue" d="M176.752,-71.4916C187.263,-61.6294 198.989,-50.6273 208.711,-41.5056"/>
<polygon fill="midnightblue" stroke="midnightblue" points="174.257,-69.0333 169.36,-78.4281 179.047,-74.1381 174.257,-69.0333"/>
</g>
</g>
</svg>
