<?xml version="1.0" encoding="UTF-8" standalone="no"?>
<!DOCTYPE svg PUBLIC "-//W3C//DTD SVG 1.1//EN"
 "http://www.w3.org/Graphics/SVG/1.1/DTD/svg11.dtd">
<!-- Generated by graphviz version 2.38.0 (20140413.2041)
 -->
<!-- Title: /home/jc/THESIS/hull_abstraction/ros/src/hull_abstraction/src/load_pcd_node.cpp Pages: 1 -->
<svg width="550pt" height="195pt"
 viewBox="0.00 0.00 549.50 195.00" xmlns="http://www.w3.org/2000/svg" xmlns:xlink="http://www.w3.org/1999/xlink">
<g id="graph0" class="graph" transform="scale(1 1) rotate(0) translate(4 191)">
<title>/home/jc/THESIS/hull_abstraction/ros/src/hull_abstraction/src/load_pcd_node.cpp</title>
<polygon fill="white" stroke="none" points="-4,4 -4,-191 545.5,-191 545.5,4 -4,4"/>
<!-- Node1 -->
<g id="node1" class="node"><title>Node1</title>
<polygon fill="#bfbfbf" stroke="black" points="177.5,-134.5 177.5,-186.5 289.5,-186.5 289.5,-134.5 177.5,-134.5"/>
<text text-anchor="start" x="185.5" y="-174.5" font-family="Helvetica,sans-Serif" font-size="10.00">/home/jc/THESIS/hull</text>
<text text-anchor="start" x="185.5" y="-163.5" font-family="Helvetica,sans-Serif" font-size="10.00">_abstraction/ros/src</text>
<text text-anchor="start" x="185.5" y="-152.5" font-family="Helvetica,sans-Serif" font-size="10.00">/hull_abstraction/src</text>
<text text-anchor="middle" x="233.5" y="-141.5" font-family="Helvetica,sans-Serif" font-size="10.00">/load_pcd_node.cpp</text>
</g>
<!-- Node2 -->
<g id="node2" class="node"><title>Node2</title>
<g id="a_node2"><a xlink:href="load__pcd_8h.html" target="_top" xlink:title="Framework of node for loading pcd files. ">
<polygon fill="white" stroke="black" points="182,-67.5 182,-97.5 285,-97.5 285,-67.5 182,-67.5"/>
<text text-anchor="start" x="190" y="-85.5" font-family="Helvetica,sans-Serif" font-size="10.00">load_pcd_node/load</text>
<text text-anchor="middle" x="233.5" y="-74.5" font-family="Helvetica,sans-Serif" font-size="10.00">_pcd.h</text>
</a>
</g>
</g>
<!-- Node1&#45;&gt;Node2 -->
<g id="edge1" class="edge"><title>Node1&#45;&gt;Node2</title>
<path fill="none" stroke="midnightblue" d="M233.5,-134.193C233.5,-125.786 233.5,-116.443 233.5,-108.091"/>
<polygon fill="midnightblue" stroke="midnightblue" points="237,-107.845 233.5,-97.8453 230,-107.845 237,-107.845"/>
</g>
<!-- Node3 -->
<g id="node3" class="node"><title>Node3</title>
<polygon fill="white" stroke="#bfbfbf" points="0,-6 0,-25 55,-25 55,-6 0,-6"/>
<text text-anchor="middle" x="27.5" y="-13" font-family="Helvetica,sans-Serif" font-size="10.00">ros/ros.h</text>
</g>
<!-- Node2&#45;&gt;Node3 -->
<g id="edge2" class="edge"><title>Node2&#45;&gt;Node3</title>
<path fill="none" stroke="midnightblue" d="M182.493,-67.4542C148.776,-57.877 103.728,-44.5214 64.5,-31 62.3801,-30.2693 60.2022,-29.4904 58.0151,-28.6874"/>
<polygon fill="midnightblue" stroke="midnightblue" points="59.1106,-25.3597 48.5193,-25.0866 56.6286,-31.9049 59.1106,-25.3597"/>
</g>
<!-- Node4 -->
<g id="node4" class="node"><title>Node4</title>
<polygon fill="white" stroke="#bfbfbf" points="73.5,-6 73.5,-25 163.5,-25 163.5,-6 73.5,-6"/>
<text text-anchor="middle" x="118.5" y="-13" font-family="Helvetica,sans-Serif" font-size="10.00">pcl/point_cloud.h</text>
</g>
<!-- Node2&#45;&gt;Node4 -->
<g id="edge3" class="edge"><title>Node2&#45;&gt;Node4</title>
<path fill="none" stroke="midnightblue" d="M208.547,-67.396C188.904,-56.2938 161.707,-40.9211 142.354,-29.9825"/>
<polygon fill="midnightblue" stroke="midnightblue" points="143.979,-26.8807 133.551,-25.007 140.534,-32.9746 143.979,-26.8807"/>
</g>
<!-- Node5 -->
<g id="node5" class="node"><title>Node5</title>
<polygon fill="white" stroke="#bfbfbf" points="182,-0.5 182,-30.5 285,-30.5 285,-0.5 182,-0.5"/>
<text text-anchor="start" x="190" y="-18.5" font-family="Helvetica,sans-Serif" font-size="10.00">pcl_conversions/pcl</text>
<text text-anchor="middle" x="233.5" y="-7.5" font-family="Helvetica,sans-Serif" font-size="10.00">_conversions.h</text>
</g>
<!-- Node2&#45;&gt;Node5 -->
<g id="edge4" class="edge"><title>Node2&#45;&gt;Node5</title>
<path fill="none" stroke="midnightblue" d="M233.5,-67.396C233.5,-59.6448 233.5,-49.8122 233.5,-40.8601"/>
<polygon fill="midnightblue" stroke="midnightblue" points="237,-40.5765 233.5,-30.5765 230,-40.5765 237,-40.5765"/>
</g>
<!-- Node6 -->
<g id="node6" class="node"><title>Node6</title>
<polygon fill="white" stroke="#bfbfbf" points="303.5,-6 303.5,-25 443.5,-25 443.5,-6 303.5,-6"/>
<text text-anchor="middle" x="373.5" y="-13" font-family="Helvetica,sans-Serif" font-size="10.00">sensor_msgs/PointCloud2.h</text>
</g>
<!-- Node2&#45;&gt;Node6 -->
<g id="edge5" class="edge"><title>Node2&#45;&gt;Node6</title>
<path fill="none" stroke="midnightblue" d="M263.878,-67.396C288.334,-56.0414 322.411,-40.2201 346.052,-29.2437"/>
<polygon fill="midnightblue" stroke="midnightblue" points="347.581,-32.3927 355.177,-25.007 344.633,-26.0436 347.581,-32.3927"/>
</g>
<!-- Node7 -->
<g id="node7" class="node"><title>Node7</title>
<polygon fill="white" stroke="#bfbfbf" points="461.5,-6 461.5,-25 541.5,-25 541.5,-6 461.5,-6"/>
<text text-anchor="middle" x="501.5" y="-13" font-family="Helvetica,sans-Serif" font-size="10.00">pcl/io/pcd_io.h</text>
</g>
<!-- Node2&#45;&gt;Node7 -->
<g id="edge6" class="edge"><title>Node2&#45;&gt;Node7</title>
<path fill="none" stroke="midnightblue" d="M285.047,-70.5454C329.565,-60.8625 395.52,-45.9855 452.5,-31 456.301,-30.0005 460.253,-28.9127 464.191,-27.7972"/>
<polygon fill="midnightblue" stroke="midnightblue" points="465.222,-31.1426 473.855,-25.0014 463.276,-24.4183 465.222,-31.1426"/>
</g>
</g>
</svg>
