<?xml version="1.0" encoding="UTF-8" standalone="no"?>
<!DOCTYPE svg PUBLIC "-//W3C//DTD SVG 1.1//EN"
 "http://www.w3.org/Graphics/SVG/1.1/DTD/svg11.dtd">
<!-- Generated by graphviz version 2.38.0 (20140413.2041)
 -->
<!-- Title: /home/jc/THESIS/hull_abstraction/ros/src/hull_abstraction/src/load_pcd_node/load_pcd.h Pages: 1 -->
<svg width="284pt" height="150pt"
 viewBox="0.00 0.00 284.00 150.00" xmlns="http://www.w3.org/2000/svg" xmlns:xlink="http://www.w3.org/1999/xlink">
<g id="graph0" class="graph" transform="scale(1 1) rotate(0) translate(4 146)">
<title>/home/jc/THESIS/hull_abstraction/ros/src/hull_abstraction/src/load_pcd_node/load_pcd.h</title>
<polygon fill="white" stroke="none" points="-4,4 -4,-146 280,-146 280,4 -4,4"/>
<!-- Node1 -->
<g id="node1" class="node"><title>Node1</title>
<polygon fill="#bfbfbf" stroke="black" points="78.5,-89.5 78.5,-141.5 213.5,-141.5 213.5,-89.5 78.5,-89.5"/>
<text text-anchor="start" x="86.5" y="-129.5" font-family="Helvetica,sans-Serif" font-size="10.00">/home/jc/THESIS/hull</text>
<text text-anchor="start" x="86.5" y="-118.5" font-family="Helvetica,sans-Serif" font-size="10.00">_abstraction/ros/src</text>
<text text-anchor="start" x="86.5" y="-107.5" font-family="Helvetica,sans-Serif" font-size="10.00">/hull_abstraction/src</text>
<text text-anchor="middle" x="146" y="-96.5" font-family="Helvetica,sans-Serif" font-size="10.00">/load_pcd_node/load_pcd.h</text>
</g>
<!-- Node2 -->
<g id="node2" class="node"><title>Node2</title>
<g id="a_node2"><a xlink:href="load__pcd_8cpp.html" target="_top" xlink:title="/home/jc/THESIS/hull\l_abstraction/ros/src\l/hull_abstraction/src\l/load_pcd_node/load_pcd.cpp">
<polygon fill="white" stroke="black" points="0,-0.5 0,-52.5 146,-52.5 146,-0.5 0,-0.5"/>
<text text-anchor="start" x="8" y="-40.5" font-family="Helvetica,sans-Serif" font-size="10.00">/home/jc/THESIS/hull</text>
<text text-anchor="start" x="8" y="-29.5" font-family="Helvetica,sans-Serif" font-size="10.00">_abstraction/ros/src</text>
<text text-anchor="start" x="8" y="-18.5" font-family="Helvetica,sans-Serif" font-size="10.00">/hull_abstraction/src</text>
<text text-anchor="middle" x="73" y="-7.5" font-family="Helvetica,sans-Serif" font-size="10.00">/load_pcd_node/load_pcd.cpp</text>
</a>
</g>
</g>
<!-- Node1&#45;&gt;Node2 -->
<g id="edge1" class="edge"><title>Node1&#45;&gt;Node2</title>
<path fill="none" stroke="midnightblue" d="M118.313,-81.5029C110.274,-71.9226 101.629,-61.6196 94.0672,-52.6075"/>
<polygon fill="midnightblue" stroke="midnightblue" points="115.776,-83.9252 124.885,-89.336 121.139,-79.4257 115.776,-83.9252"/>
</g>
<!-- Node3 -->
<g id="node3" class="node"><title>Node3</title>
<g id="a_node3"><a xlink:href="load__pcd__node_8cpp.html" target="_top" xlink:title="/home/jc/THESIS/hull\l_abstraction/ros/src\l/hull_abstraction/src\l/load_pcd_node.cpp">
<polygon fill="white" stroke="black" points="164,-0.5 164,-52.5 276,-52.5 276,-0.5 164,-0.5"/>
<text text-anchor="start" x="172" y="-40.5" font-family="Helvetica,sans-Serif" font-size="10.00">/home/jc/THESIS/hull</text>
<text text-anchor="start" x="172" y="-29.5" font-family="Helvetica,sans-Serif" font-size="10.00">_abstraction/ros/src</text>
<text text-anchor="start" x="172" y="-18.5" font-family="Helvetica,sans-Serif" font-size="10.00">/hull_abstraction/src</text>
<text text-anchor="middle" x="220" y="-7.5" font-family="Helvetica,sans-Serif" font-size="10.00">/load_pcd_node.cpp</text>
</a>
</g>
</g>
<!-- Node1&#45;&gt;Node3 -->
<g id="edge2" class="edge"><title>Node1&#45;&gt;Node3</title>
<path fill="none" stroke="midnightblue" d="M174.067,-81.5029C182.215,-71.9226 190.979,-61.6196 198.644,-52.6075"/>
<polygon fill="midnightblue" stroke="midnightblue" points="171.217,-79.4511 167.404,-89.336 176.549,-83.9864 171.217,-79.4511"/>
</g>
</g>
</svg>
