<?xml version="1.0" encoding="UTF-8" standalone="no"?>
<!DOCTYPE svg PUBLIC "-//W3C//DTD SVG 1.1//EN"
 "http://www.w3.org/Graphics/SVG/1.1/DTD/svg11.dtd">
<!-- Generated by graphviz version 2.38.0 (20140413.2041)
 -->
<!-- Title: /home/jc/THESIS/hull_abstraction/ros/src/hull_abstraction/src/moving_least_squares_node/moving_least_squares.cpp Pages: 1 -->
<svg width="586pt" height="195pt"
 viewBox="0.00 0.00 586.00 195.00" xmlns="http://www.w3.org/2000/svg" xmlns:xlink="http://www.w3.org/1999/xlink">
<g id="graph0" class="graph" transform="scale(1 1) rotate(0) translate(4 191)">
<title>/home/jc/THESIS/hull_abstraction/ros/src/hull_abstraction/src/moving_least_squares_node/moving_least_squares.cpp</title>
<polygon fill="white" stroke="none" points="-4,4 -4,-191 582,-191 582,4 -4,4"/>
<!-- Node1 -->
<g id="node1" class="node"><title>Node1</title>
<polygon fill="#bfbfbf" stroke="black" points="144.5,-123.5 144.5,-186.5 287.5,-186.5 287.5,-123.5 144.5,-123.5"/>
<text text-anchor="start" x="152.5" y="-174.5" font-family="Helvetica,sans-Serif" font-size="10.00">/home/jc/THESIS/hull</text>
<text text-anchor="start" x="152.5" y="-163.5" font-family="Helvetica,sans-Serif" font-size="10.00">_abstraction/ros/src</text>
<text text-anchor="start" x="152.5" y="-152.5" font-family="Helvetica,sans-Serif" font-size="10.00">/hull_abstraction/src</text>
<text text-anchor="start" x="152.5" y="-141.5" font-family="Helvetica,sans-Serif" font-size="10.00">/moving_least_squares_node</text>
<text text-anchor="middle" x="216" y="-130.5" font-family="Helvetica,sans-Serif" font-size="10.00">/moving_least_squares.cpp</text>
</g>
<!-- Node2 -->
<g id="node2" class="node"><title>Node2</title>
<g id="a_node2"><a xlink:href="moving__least__squares_8h.html" target="_top" xlink:title="Framework of moving least squares node. ">
<polygon fill="white" stroke="black" points="155,-67.5 155,-86.5 277,-86.5 277,-67.5 155,-67.5"/>
<text text-anchor="middle" x="216" y="-74.5" font-family="Helvetica,sans-Serif" font-size="10.00">moving_least_squares.h</text>
</a>
</g>
</g>
<!-- Node1&#45;&gt;Node2 -->
<g id="edge1" class="edge"><title>Node1&#45;&gt;Node2</title>
<path fill="none" stroke="midnightblue" d="M216,-123.088C216,-114.15 216,-104.669 216,-96.7195"/>
<polygon fill="midnightblue" stroke="midnightblue" points="219.5,-96.7181 216,-86.7182 212.5,-96.7182 219.5,-96.7181"/>
</g>
<!-- Node3 -->
<g id="node3" class="node"><title>Node3</title>
<polygon fill="white" stroke="#bfbfbf" points="0,-6 0,-25 54,-25 54,-6 0,-6"/>
<text text-anchor="middle" x="27" y="-13" font-family="Helvetica,sans-Serif" font-size="10.00">iostream</text>
</g>
<!-- Node2&#45;&gt;Node3 -->
<g id="edge2" class="edge"><title>Node2&#45;&gt;Node3</title>
<path fill="none" stroke="midnightblue" d="M183.772,-67.4985C152.611,-59.0492 104.191,-45.3153 63,-31 61.0906,-30.3364 59.1344,-29.6293 57.1685,-28.8978"/>
<polygon fill="midnightblue" stroke="midnightblue" points="58.0198,-25.4743 47.4306,-25.1279 55.4925,-32.0022 58.0198,-25.4743"/>
</g>
<!-- Node4 -->
<g id="node4" class="node"><title>Node4</title>
<polygon fill="white" stroke="#bfbfbf" points="72.5,-6 72.5,-25 127.5,-25 127.5,-6 72.5,-6"/>
<text text-anchor="middle" x="100" y="-13" font-family="Helvetica,sans-Serif" font-size="10.00">ros/ros.h</text>
</g>
<!-- Node2&#45;&gt;Node4 -->
<g id="edge3" class="edge"><title>Node2&#45;&gt;Node4</title>
<path fill="none" stroke="midnightblue" d="M199.38,-67.4751C180.085,-57.578 148.041,-41.1416 125.569,-29.6151"/>
<polygon fill="midnightblue" stroke="midnightblue" points="127.084,-26.4589 116.589,-25.0091 123.89,-32.6873 127.084,-26.4589"/>
</g>
<!-- Node5 -->
<g id="node5" class="node"><title>Node5</title>
<polygon fill="white" stroke="#bfbfbf" points="146,-6 146,-25 286,-25 286,-6 146,-6"/>
<text text-anchor="middle" x="216" y="-13" font-family="Helvetica,sans-Serif" font-size="10.00">sensor_msgs/PointCloud2.h</text>
</g>
<!-- Node2&#45;&gt;Node5 -->
<g id="edge4" class="edge"><title>Node2&#45;&gt;Node5</title>
<path fill="none" stroke="midnightblue" d="M216,-67.4751C216,-59.0803 216,-45.9806 216,-35.1631"/>
<polygon fill="midnightblue" stroke="midnightblue" points="219.5,-35.0091 216,-25.0091 212.5,-35.0091 219.5,-35.0091"/>
</g>
<!-- Node6 -->
<g id="node6" class="node"><title>Node6</title>
<polygon fill="white" stroke="#bfbfbf" points="304.5,-0.5 304.5,-30.5 407.5,-30.5 407.5,-0.5 304.5,-0.5"/>
<text text-anchor="start" x="312.5" y="-18.5" font-family="Helvetica,sans-Serif" font-size="10.00">pcl_conversions/pcl</text>
<text text-anchor="middle" x="356" y="-7.5" font-family="Helvetica,sans-Serif" font-size="10.00">_conversions.h</text>
</g>
<!-- Node2&#45;&gt;Node6 -->
<g id="edge5" class="edge"><title>Node2&#45;&gt;Node6</title>
<path fill="none" stroke="midnightblue" d="M236.059,-67.4751C256.171,-58.9271 287.762,-45.5011 313.474,-34.5734"/>
<polygon fill="midnightblue" stroke="midnightblue" points="315.17,-37.6556 323.005,-30.523 312.432,-31.2133 315.17,-37.6556"/>
</g>
<!-- Node7 -->
<g id="node7" class="node"><title>Node7</title>
<polygon fill="white" stroke="#bfbfbf" points="426,-6 426,-25 578,-25 578,-6 426,-6"/>
<text text-anchor="middle" x="502" y="-13" font-family="Helvetica,sans-Serif" font-size="10.00">hull_abstraction/preprocessor.h</text>
</g>
<!-- Node2&#45;&gt;Node7 -->
<g id="edge6" class="edge"><title>Node2&#45;&gt;Node7</title>
<path fill="none" stroke="midnightblue" d="M256.977,-67.4751C308.16,-56.8269 395.727,-38.6092 451.142,-27.0806"/>
<polygon fill="midnightblue" stroke="midnightblue" points="452.022,-30.4726 461.099,-25.0091 450.596,-23.6193 452.022,-30.4726"/>
</g>
</g>
</svg>
