<?xml version="1.0" encoding="UTF-8" standalone="no"?>
<!DOCTYPE svg PUBLIC "-//W3C//DTD SVG 1.1//EN"
 "http://www.w3.org/Graphics/SVG/1.1/DTD/svg11.dtd">
<!-- Generated by graphviz version 2.38.0 (20140413.2041)
 -->
<!-- Title: /home/jc/hull_abstraction/ros/src/hull_abstraction/include/pcl_utilization/pcl_utilization.h Pages: 1 -->
<!--zoomable 128 -->
<svg id="main" version="1.1" xmlns="http://www.w3.org/2000/svg" xmlns:xlink="http://www.w3.org/1999/xlink" xml:space="preserve" onload="init(evt)">
<style type="text/css"><![CDATA[
.edge:hover path { stroke: red; }
.edge:hover polygon { stroke: red; fill: red; }
]]></style>
<script type="text/javascript"><![CDATA[
var edges = document.getElementsByTagName('g');
if (edges && edges.length) {
  for (var i=0;i<edges.length;i++) {
    if (edges[i].id.substr(0,4)=='edge') {
      edges[i].setAttribute('class','edge');
    }
  }
}
]]></script>
        <defs>
                <circle id="rim" cx="0" cy="0" r="7"/>
                <circle id="rim2" cx="0" cy="0" r="3.5"/>
                <g id="zoomPlus">
                        <use xlink:href="#rim" fill="#404040">
                                <set attributeName="fill" to="#808080" begin="zoomplus.mouseover" end="zoomplus.mouseout"/>
                        </use>
                        <path d="M-4,0h8M0,-4v8" fill="none" stroke="white" stroke-width="1.5" pointer-events="none"/>
                </g>
                <g id="zoomMin">
                        <use xlink:href="#rim" fill="#404040">
                                <set attributeName="fill" to="#808080" begin="zoomminus.mouseover" end="zoomminus.mouseout"/>
                        </use>
                        <path d="M-4,0h8" fill="none" stroke="white" stroke-width="1.5" pointer-events="none"/>
                </g>
                <g id="dirArrow">
                        <path fill="none" stroke="white" stroke-width="1.5" d="M0,-3.0v7 M-2.5,-0.5L0,-3.0L2.5,-0.5"/>
                </g>
               <g id="resetDef">
                       <use xlink:href="#rim2" fill="#404040">
                               <set attributeName="fill" to="#808080" begin="reset.mouseover" end="reset.mouseout"/>
                       </use>
               </g>
        </defs>

<script type="text/javascript">
var viewWidth = 1037;
var viewHeight = 128;
var sectionId = 'dynsection-0';
</script>
<script xlink:href="svgpan.js"/>
<svg id="graph" class="graph">
<g id="viewport">
<title>/home/jc/hull_abstraction/ros/src/hull_abstraction/include/pcl_utilization/pcl_utilization.h</title>
<polygon fill="white" stroke="none" points="-4,4 -4,-124 1032.5,-124 1032.5,4 -4,4"/>
<!-- Node1 -->
<g id="node1" class="node"><title>Node1</title>
<polygon fill="#bfbfbf" stroke="black" points="422,-67.5 422,-119.5 547,-119.5 547,-67.5 422,-67.5"/>
<text text-anchor="start" x="430" y="-107.5" font-family="Helvetica,sans-Serif" font-size="10.00">/home/jc/hull_abstraction</text>
<text text-anchor="start" x="430" y="-96.5" font-family="Helvetica,sans-Serif" font-size="10.00">/ros/src/hull_abstraction</text>
<text text-anchor="start" x="430" y="-85.5" font-family="Helvetica,sans-Serif" font-size="10.00">/include/pcl_utilization</text>
<text text-anchor="middle" x="484.5" y="-74.5" font-family="Helvetica,sans-Serif" font-size="10.00">/pcl_utilization.h</text>
</g>
<!-- Node2 -->
<g id="node2" class="node"><title>Node2</title>
<polygon fill="white" stroke="#bfbfbf" points="0,-6 0,-25 55,-25 55,-6 0,-6"/>
<text text-anchor="middle" x="27.5" y="-13" font-family="Helvetica,sans-Serif" font-size="10.00">ros/ros.h</text>
</g>
<!-- Node1&#45;&gt;Node2 -->
<g id="edge1" class="edge"><title>Node1&#45;&gt;Node2</title>
<path fill="none" stroke="midnightblue" d="M421.692,-87.8003C338.786,-80.5809 188.793,-63.9908 64.5,-31 61.841,-30.2942 59.1126,-29.4565 56.4011,-28.5451"/>
<polygon fill="midnightblue" stroke="midnightblue" points="57.4016,-25.1841 46.808,-25.0254 54.9905,-31.7558 57.4016,-25.1841"/>
</g>
<!-- Node3 -->
<g id="node3" class="node"><title>Node3</title>
<polygon fill="white" stroke="#bfbfbf" points="73.5,-6 73.5,-25 213.5,-25 213.5,-6 73.5,-6"/>
<text text-anchor="middle" x="143.5" y="-13" font-family="Helvetica,sans-Serif" font-size="10.00">sensor_msgs/PointCloud2.h</text>
</g>
<!-- Node1&#45;&gt;Node3 -->
<g id="edge2" class="edge"><title>Node1&#45;&gt;Node3</title>
<path fill="none" stroke="midnightblue" d="M421.955,-78.5604C355.614,-63.7746 252.228,-40.7327 191.856,-27.2772"/>
<polygon fill="midnightblue" stroke="midnightblue" points="192.347,-23.801 181.825,-25.0417 190.824,-30.6333 192.347,-23.801"/>
</g>
<!-- Node4 -->
<g id="node4" class="node"><title>Node4</title>
<polygon fill="white" stroke="#bfbfbf" points="231.5,-0.5 231.5,-30.5 331.5,-30.5 331.5,-0.5 231.5,-0.5"/>
<text text-anchor="start" x="239.5" y="-18.5" font-family="Helvetica,sans-Serif" font-size="10.00">visualization_msgs</text>
<text text-anchor="middle" x="281.5" y="-7.5" font-family="Helvetica,sans-Serif" font-size="10.00">/Marker.h</text>
</g>
<!-- Node1&#45;&gt;Node4 -->
<g id="edge3" class="edge"><title>Node1&#45;&gt;Node4</title>
<path fill="none" stroke="midnightblue" d="M421.937,-69.0774C391.82,-57.8022 356.313,-44.5088 328.537,-34.1098"/>
<polygon fill="midnightblue" stroke="midnightblue" points="329.648,-30.7888 319.056,-30.5604 327.194,-37.3444 329.648,-30.7888"/>
</g>
<!-- Node5 -->
<g id="node5" class="node"><title>Node5</title>
<polygon fill="white" stroke="#bfbfbf" points="350,-6 350,-25 415,-25 415,-6 350,-6"/>
<text text-anchor="middle" x="382.5" y="-13" font-family="Helvetica,sans-Serif" font-size="10.00">Eigen/Core</text>
</g>
<!-- Node1&#45;&gt;Node5 -->
<g id="edge4" class="edge"><title>Node1&#45;&gt;Node5</title>
<path fill="none" stroke="midnightblue" d="M450.819,-67.4041C434.825,-55.4871 416.252,-41.6486 402.512,-31.4111"/>
<polygon fill="midnightblue" stroke="midnightblue" points="404.367,-28.4282 394.257,-25.2599 400.184,-34.0413 404.367,-28.4282"/>
</g>
<!-- Node6 -->
<g id="node6" class="node"><title>Node6</title>
<polygon fill="white" stroke="#bfbfbf" points="433,-0.5 433,-30.5 536,-30.5 536,-0.5 433,-0.5"/>
<text text-anchor="start" x="441" y="-18.5" font-family="Helvetica,sans-Serif" font-size="10.00">pcl_conversions/pcl</text>
<text text-anchor="middle" x="484.5" y="-7.5" font-family="Helvetica,sans-Serif" font-size="10.00">_conversions.h</text>
</g>
<!-- Node1&#45;&gt;Node6 -->
<g id="edge5" class="edge"><title>Node1&#45;&gt;Node6</title>
<path fill="none" stroke="midnightblue" d="M484.5,-67.1931C484.5,-58.7864 484.5,-49.4433 484.5,-41.0914"/>
<polygon fill="midnightblue" stroke="midnightblue" points="488,-40.8452 484.5,-30.8453 481,-40.8453 488,-40.8452"/>
</g>
<!-- Node7 -->
<g id="node7" class="node"><title>Node7</title>
<polygon fill="white" stroke="#bfbfbf" points="554,-6 554,-25 645,-25 645,-6 554,-6"/>
<text text-anchor="middle" x="599.5" y="-13" font-family="Helvetica,sans-Serif" font-size="10.00">pcl/point_types.h</text>
</g>
<!-- Node1&#45;&gt;Node7 -->
<g id="edge6" class="edge"><title>Node1&#45;&gt;Node7</title>
<path fill="none" stroke="midnightblue" d="M522.474,-67.4041C540.959,-55.1878 562.5,-40.9524 578.094,-30.6467"/>
<polygon fill="midnightblue" stroke="midnightblue" points="580.107,-33.5114 586.52,-25.0779 576.248,-27.6715 580.107,-33.5114"/>
</g>
<!-- Node8 -->
<g id="node8" class="node"><title>Node8</title>
<polygon fill="white" stroke="#bfbfbf" points="663,-6 663,-25 776,-25 776,-6 663,-6"/>
<text text-anchor="middle" x="719.5" y="-13" font-family="Helvetica,sans-Serif" font-size="10.00">pcl/PCLPointCloud2.h</text>
</g>
<!-- Node1&#45;&gt;Node8 -->
<g id="edge7" class="edge"><title>Node1&#45;&gt;Node8</title>
<path fill="none" stroke="midnightblue" d="M547.167,-72.2332C590.666,-58.1655 647.089,-39.918 683.302,-28.2066"/>
<polygon fill="midnightblue" stroke="midnightblue" points="684.514,-31.4931 692.952,-25.0857 682.36,-24.8327 684.514,-31.4931"/>
</g>
<!-- Node9 -->
<g id="node9" class="node"><title>Node9</title>
<polygon fill="white" stroke="#bfbfbf" points="794.5,-6 794.5,-25 910.5,-25 910.5,-6 794.5,-6"/>
<text text-anchor="middle" x="852.5" y="-13" font-family="Helvetica,sans-Serif" font-size="10.00">pcl/common/centroid.h</text>
</g>
<!-- Node1&#45;&gt;Node9 -->
<g id="edge8" class="edge"><title>Node1&#45;&gt;Node9</title>
<path fill="none" stroke="midnightblue" d="M547.093,-79.931C608.006,-67.6473 703.164,-48.3204 785.5,-31 791.32,-29.7758 797.42,-28.4771 803.47,-27.1795"/>
<polygon fill="midnightblue" stroke="midnightblue" points="804.506,-30.5368 813.545,-25.0104 803.032,-23.6936 804.506,-30.5368"/>
</g>
<!-- Node10 -->
<g id="node10" class="node"><title>Node10</title>
<polygon fill="white" stroke="#bfbfbf" points="928.5,-6 928.5,-25 1028.5,-25 1028.5,-6 928.5,-6"/>
<text text-anchor="middle" x="978.5" y="-13" font-family="Helvetica,sans-Serif" font-size="10.00">pcl/search/kdtree.h</text>
</g>
<!-- Node1&#45;&gt;Node10 -->
<g id="edge9" class="edge"><title>Node1&#45;&gt;Node10</title>
<path fill="none" stroke="midnightblue" d="M547.138,-85.6497C631.96,-75.9171 787.883,-56.4106 919.5,-31 924.937,-29.9503 930.626,-28.7213 936.234,-27.4307"/>
<polygon fill="midnightblue" stroke="midnightblue" points="937.251,-30.7863 946.17,-25.0665 935.631,-23.9764 937.251,-30.7863"/>
</g>
</g>
</svg>
        <g id="navigator" transform="translate(0 0)" fill="#404254">
                <rect fill="#f2f5e9" fill-opacity="0.5" stroke="#606060" stroke-width=".5" x="0" y="0" width="60" height="60"/>
                <use id="zoomplus" xlink:href="#zoomPlus" x="17" y="9" onmousedown="handleZoom(evt,'in')"/>
                <use id="zoomminus" xlink:href="#zoomMin" x="42" y="9" onmousedown="handleZoom(evt,'out')"/>
                <use id="reset" xlink:href="#resetDef" x="30" y="36" onmousedown="handleReset()"/>
                <g id="arrowUp" xlink:href="#dirArrow" transform="translate(30 24)" onmousedown="handlePan(0,-1)">
                  <use xlink:href="#rim" fill="#404040">
                        <set attributeName="fill" to="#808080" begin="arrowUp.mouseover" end="arrowUp.mouseout"/>
                  </use>
                  <path fill="none" stroke="white" stroke-width="1.5" d="M0,-3.0v7 M-2.5,-0.5L0,-3.0L2.5,-0.5"/>
                </g>
                <g id="arrowRight" xlink:href="#dirArrow" transform="rotate(90) translate(36 -43)" onmousedown="handlePan(1,0)">
                  <use xlink:href="#rim" fill="#404040">
                        <set attributeName="fill" to="#808080" begin="arrowRight.mouseover" end="arrowRight.mouseout"/>
                  </use>
                  <path fill="none" stroke="white" stroke-width="1.5" d="M0,-3.0v7 M-2.5,-0.5L0,-3.0L2.5,-0.5"/>
                </g>
                <g id="arrowDown" xlink:href="#dirArrow" transform="rotate(180) translate(-30 -48)" onmousedown="handlePan(0,1)">
                  <use xlink:href="#rim" fill="#404040">
                        <set attributeName="fill" to="#808080" begin="arrowDown.mouseover" end="arrowDown.mouseout"/>
                  </use>
                  <path fill="none" stroke="white" stroke-width="1.5" d="M0,-3.0v7 M-2.5,-0.5L0,-3.0L2.5,-0.5"/>
                </g>
                <g id="arrowLeft" xlink:href="#dirArrow" transform="rotate(270) translate(-36 17)" onmousedown="handlePan(-1,0)">
                  <use xlink:href="#rim" fill="#404040">
                        <set attributeName="fill" to="#808080" begin="arrowLeft.mouseover" end="arrowLeft.mouseout"/>
                  </use>
                  <path fill="none" stroke="white" stroke-width="1.5" d="M0,-3.0v7 M-2.5,-0.5L0,-3.0L2.5,-0.5"/>
                </g>
        </g>
        <svg viewBox="0 0 15 15" width="100%" height="30px" preserveAspectRatio="xMaxYMin meet">
         <g id="arrow_out" transform="scale(0.3 0.3)">
          <a xlink:href="pcl__utilization_8h__incl_org.svg" target="_base">
           <rect id="button" ry="5" rx="5" y="6" x="6" height="38" width="38"
                fill="#f2f5e9" fill-opacity="0.5" stroke="#606060" stroke-width="1.0"/>
           <path id="arrow"
             d="M 11.500037,31.436501 C 11.940474,20.09759 22.043105,11.32322 32.158766,21.979434 L 37.068811,17.246167 C 37.068811,17.246167 37.088388,32 37.088388,32 L 22.160133,31.978069 C 22.160133,31.978069 26.997745,27.140456 26.997745,27.140456 C 18.528582,18.264221 13.291696,25.230495 11.500037,31.436501 z"
             style="fill:#404040;"/>
          </a>
         </g>
        </svg>
</svg>
