<?xml version="1.0" encoding="UTF-8" standalone="no"?>
<!DOCTYPE svg PUBLIC "-//W3C//DTD SVG 1.1//EN"
 "http://www.w3.org/Graphics/SVG/1.1/DTD/svg11.dtd">
<!-- Generated by graphviz version 2.38.0 (20140413.2041)
 -->
<!-- Title: /home/jc/THESIS/hull_abstraction/benchmark/include/point_generation/point_generator.h Pages: 1 -->
<svg width="139pt" height="150pt"
 viewBox="0.00 0.00 139.00 150.00" xmlns="http://www.w3.org/2000/svg" xmlns:xlink="http://www.w3.org/1999/xlink">
<g id="graph0" class="graph" transform="scale(1 1) rotate(0) translate(4 146)">
<title>/home/jc/THESIS/hull_abstraction/benchmark/include/point_generation/point_generator.h</title>
<polygon fill="white" stroke="none" points="-4,4 -4,-146 135,-146 135,4 -4,4"/>
<!-- Node1 -->
<g id="node1" class="node"><title>Node1</title>
<polygon fill="#bfbfbf" stroke="black" points="3,-89.5 3,-141.5 128,-141.5 128,-89.5 3,-89.5"/>
<text text-anchor="start" x="11" y="-129.5" font-family="Helvetica,sans-Serif" font-size="10.00">/home/jc/THESIS/hull</text>
<text text-anchor="start" x="11" y="-118.5" font-family="Helvetica,sans-Serif" font-size="10.00">_abstraction/benchmark</text>
<text text-anchor="start" x="11" y="-107.5" font-family="Helvetica,sans-Serif" font-size="10.00">/include/point_generation</text>
<text text-anchor="middle" x="65.5" y="-96.5" font-family="Helvetica,sans-Serif" font-size="10.00">/point_generator.h</text>
</g>
<!-- Node2 -->
<g id="node2" class="node"><title>Node2</title>
<g id="a_node2"><a xlink:href="point__generator_8cpp.html" target="_top" xlink:title="/home/jc/THESIS/hull\l_abstraction/benchmark\l/src/point_generation/point\l_generator.cpp">
<polygon fill="white" stroke="black" points="0,-0.5 0,-52.5 131,-52.5 131,-0.5 0,-0.5"/>
<text text-anchor="start" x="8" y="-40.5" font-family="Helvetica,sans-Serif" font-size="10.00">/home/jc/THESIS/hull</text>
<text text-anchor="start" x="8" y="-29.5" font-family="Helvetica,sans-Serif" font-size="10.00">_abstraction/benchmark</text>
<text text-anchor="start" x="8" y="-18.5" font-family="Helvetica,sans-Serif" font-size="10.00">/src/point_generation/point</text>
<text text-anchor="middle" x="65.5" y="-7.5" font-family="Helvetica,sans-Serif" font-size="10.00">_generator.cpp</text>
</a>
</g>
</g>
<!-- Node1&#45;&gt;Node2 -->
<g id="edge1" class="edge"><title>Node1&#45;&gt;Node2</title>
<path fill="none" stroke="midnightblue" d="M65.5,-79.1908C65.5,-70.2824 65.5,-60.8986 65.5,-52.6075"/>
<polygon fill="midnightblue" stroke="midnightblue" points="62.0001,-79.336 65.5,-89.336 69.0001,-79.336 62.0001,-79.336"/>
</g>
</g>
</svg>
