<?xml version="1.0" encoding="UTF-8" standalone="no"?>
<!DOCTYPE svg PUBLIC "-//W3C//DTD SVG 1.1//EN"
 "http://www.w3.org/Graphics/SVG/1.1/DTD/svg11.dtd">
<!-- Generated by graphviz version 2.38.0 (20140413.2041)
 -->
<!-- Title: /home/jc/hull_abstraction/ros/src/hull_abstraction/src/hull_abstraction/preprocessor.cpp Pages: 1 -->
<svg width="1732pt" height="240pt"
 viewBox="0.00 0.00 1731.50 240.00" xmlns="http://www.w3.org/2000/svg" xmlns:xlink="http://www.w3.org/1999/xlink">
<g id="graph0" class="graph" transform="scale(1 1) rotate(0) translate(4 236)">
<title>/home/jc/hull_abstraction/ros/src/hull_abstraction/src/hull_abstraction/preprocessor.cpp</title>
<polygon fill="white" stroke="none" points="-4,4 -4,-236 1727.5,-236 1727.5,4 -4,4"/>
<!-- Node1 -->
<g id="node1" class="node"><title>Node1</title>
<polygon fill="#bfbfbf" stroke="black" points="1094.5,-190.5 1094.5,-231.5 1276.5,-231.5 1276.5,-190.5 1094.5,-190.5"/>
<text text-anchor="start" x="1102.5" y="-219.5" font-family="Helvetica,sans-Serif" font-size="10.00">/home/jc/hull_abstraction</text>
<text text-anchor="start" x="1102.5" y="-208.5" font-family="Helvetica,sans-Serif" font-size="10.00">/ros/src/hull_abstraction</text>
<text text-anchor="middle" x="1185.5" y="-197.5" font-family="Helvetica,sans-Serif" font-size="10.00">/src/hull_abstraction/preprocessor.cpp</text>
</g>
<!-- Node2 -->
<g id="node2" class="node"><title>Node2</title>
<g id="a_node2"><a xlink:href="preprocessor_8h.html" target="_top" xlink:title="This file contains the declaration for the Preprocessor class. ">
<polygon fill="white" stroke="black" points="1109.5,-134.5 1109.5,-153.5 1261.5,-153.5 1261.5,-134.5 1109.5,-134.5"/>
<text text-anchor="middle" x="1185.5" y="-141.5" font-family="Helvetica,sans-Serif" font-size="10.00">hull_abstraction/preprocessor.h</text>
</a>
</g>
</g>
<!-- Node1&#45;&gt;Node2 -->
<g id="edge1" class="edge"><title>Node1&#45;&gt;Node2</title>
<path fill="none" stroke="midnightblue" d="M1185.5,-190.498C1185.5,-182.065 1185.5,-172.235 1185.5,-163.874"/>
<polygon fill="midnightblue" stroke="midnightblue" points="1189,-163.652 1185.5,-153.652 1182,-163.653 1189,-163.652"/>
</g>
<!-- Node3 -->
<g id="node3" class="node"><title>Node3</title>
<g id="a_node3"><a xlink:href="pcl__utilization_8h.html" target="_top" xlink:title="This file contains the declaration of PCL utilization methods. ">
<polygon fill="white" stroke="black" points="501.5,-67.5 501.5,-97.5 593.5,-97.5 593.5,-67.5 501.5,-67.5"/>
<text text-anchor="start" x="509.5" y="-85.5" font-family="Helvetica,sans-Serif" font-size="10.00">pcl_utilization/pcl</text>
<text text-anchor="middle" x="547.5" y="-74.5" font-family="Helvetica,sans-Serif" font-size="10.00">_utilization.h</text>
</a>
</g>
</g>
<!-- Node2&#45;&gt;Node3 -->
<g id="edge2" class="edge"><title>Node2&#45;&gt;Node3</title>
<path fill="none" stroke="midnightblue" d="M1109.49,-135.911C979.754,-123.812 718.485,-99.4461 603.727,-88.7438"/>
<polygon fill="midnightblue" stroke="midnightblue" points="604.027,-85.2566 593.745,-87.8128 603.376,-92.2263 604.027,-85.2566"/>
</g>
<!-- Node9 -->
<g id="node9" class="node"><title>Node9</title>
<polygon fill="white" stroke="#bfbfbf" points="938,-6 938,-25 1029,-25 1029,-6 938,-6"/>
<text text-anchor="middle" x="983.5" y="-13" font-family="Helvetica,sans-Serif" font-size="10.00">pcl/point_types.h</text>
</g>
<!-- Node2&#45;&gt;Node9 -->
<g id="edge12" class="edge"><title>Node2&#45;&gt;Node9</title>
<path fill="none" stroke="midnightblue" d="M1109.44,-143.822C1021.67,-142.953 885.179,-135.392 852.5,-98 843.433,-87.6258 844.704,-78.3602 852.5,-67 858.141,-58.7793 910.083,-40.4382 946.837,-28.2713"/>
<polygon fill="midnightblue" stroke="midnightblue" points="948.341,-31.4615 956.75,-25.0168 946.157,-24.8108 948.341,-31.4615"/>
</g>
<!-- Node13 -->
<g id="node13" class="node"><title>Node13</title>
<polygon fill="white" stroke="#bfbfbf" points="861.5,-73 861.5,-92 985.5,-92 985.5,-73 861.5,-73"/>
<text text-anchor="middle" x="923.5" y="-80" font-family="Helvetica,sans-Serif" font-size="10.00">pcl/features/normal_3d.h</text>
</g>
<!-- Node2&#45;&gt;Node13 -->
<g id="edge13" class="edge"><title>Node2&#45;&gt;Node13</title>
<path fill="none" stroke="midnightblue" d="M1147.96,-134.475C1101.27,-123.871 1021.52,-105.76 970.723,-94.2244"/>
<polygon fill="midnightblue" stroke="midnightblue" points="971.495,-90.8107 960.969,-92.0091 969.945,-97.6369 971.495,-90.8107"/>
</g>
<!-- Node14 -->
<g id="node14" class="node"><title>Node14</title>
<polygon fill="white" stroke="#bfbfbf" points="1004,-67.5 1004,-97.5 1117,-97.5 1117,-67.5 1004,-67.5"/>
<text text-anchor="start" x="1012" y="-85.5" font-family="Helvetica,sans-Serif" font-size="10.00">pcl/filters/approximate</text>
<text text-anchor="middle" x="1060.5" y="-74.5" font-family="Helvetica,sans-Serif" font-size="10.00">_voxel_grid.h</text>
</g>
<!-- Node2&#45;&gt;Node14 -->
<g id="edge14" class="edge"><title>Node2&#45;&gt;Node14</title>
<path fill="none" stroke="midnightblue" d="M1167.59,-134.475C1149.79,-126.002 1121.92,-112.737 1099.08,-101.863"/>
<polygon fill="midnightblue" stroke="midnightblue" points="1100.49,-98.6607 1089.96,-97.523 1097.49,-104.981 1100.49,-98.6607"/>
</g>
<!-- Node15 -->
<g id="node15" class="node"><title>Node15</title>
<polygon fill="white" stroke="#bfbfbf" points="1135,-67.5 1135,-97.5 1236,-97.5 1236,-67.5 1135,-67.5"/>
<text text-anchor="start" x="1143" y="-85.5" font-family="Helvetica,sans-Serif" font-size="10.00">pcl/filters/statistical</text>
<text text-anchor="middle" x="1185.5" y="-74.5" font-family="Helvetica,sans-Serif" font-size="10.00">_outlier_removal.h</text>
</g>
<!-- Node2&#45;&gt;Node15 -->
<g id="edge15" class="edge"><title>Node2&#45;&gt;Node15</title>
<path fill="none" stroke="midnightblue" d="M1185.5,-134.475C1185.5,-127.471 1185.5,-117.192 1185.5,-107.696"/>
<polygon fill="midnightblue" stroke="midnightblue" points="1189,-107.523 1185.5,-97.523 1182,-107.523 1189,-107.523"/>
</g>
<!-- Node16 -->
<g id="node16" class="node"><title>Node16</title>
<polygon fill="white" stroke="#bfbfbf" points="1254,-73 1254,-92 1375,-92 1375,-73 1254,-73"/>
<text text-anchor="middle" x="1314.5" y="-80" font-family="Helvetica,sans-Serif" font-size="10.00">pcl/filters/passthrough.h</text>
</g>
<!-- Node2&#45;&gt;Node16 -->
<g id="edge16" class="edge"><title>Node2&#45;&gt;Node16</title>
<path fill="none" stroke="midnightblue" d="M1203.98,-134.475C1225.63,-124.49 1261.71,-107.848 1286.73,-96.3075"/>
<polygon fill="midnightblue" stroke="midnightblue" points="1288.44,-99.3757 1296.05,-92.0091 1285.51,-93.0193 1288.44,-99.3757"/>
</g>
<!-- Node17 -->
<g id="node17" class="node"><title>Node17</title>
<polygon fill="white" stroke="#bfbfbf" points="1393.5,-67.5 1393.5,-97.5 1499.5,-97.5 1499.5,-67.5 1393.5,-67.5"/>
<text text-anchor="start" x="1401.5" y="-85.5" font-family="Helvetica,sans-Serif" font-size="10.00">pcl/filters/conditional</text>
<text text-anchor="middle" x="1446.5" y="-74.5" font-family="Helvetica,sans-Serif" font-size="10.00">_removal.h</text>
</g>
<!-- Node2&#45;&gt;Node17 -->
<g id="edge17" class="edge"><title>Node2&#45;&gt;Node17</title>
<path fill="none" stroke="midnightblue" d="M1223.67,-134.456C1261.71,-125.922 1322.06,-112.331 1383.53,-98.2137"/>
<polygon fill="midnightblue" stroke="midnightblue" points="1384.44,-101.596 1393.41,-95.9442 1382.88,-94.7735 1384.44,-101.596"/>
</g>
<!-- Node18 -->
<g id="node18" class="node"><title>Node18</title>
<polygon fill="white" stroke="#bfbfbf" points="1517.5,-67.5 1517.5,-97.5 1613.5,-97.5 1613.5,-67.5 1517.5,-67.5"/>
<text text-anchor="start" x="1525.5" y="-85.5" font-family="Helvetica,sans-Serif" font-size="10.00">pcl/filters/radius</text>
<text text-anchor="middle" x="1565.5" y="-74.5" font-family="Helvetica,sans-Serif" font-size="10.00">_outlier_removal.h</text>
</g>
<!-- Node2&#45;&gt;Node18 -->
<g id="edge18" class="edge"><title>Node2&#45;&gt;Node18</title>
<path fill="none" stroke="midnightblue" d="M1261.6,-134.807C1324.93,-127.437 1417.62,-115.373 1507.31,-98.1032"/>
<polygon fill="midnightblue" stroke="midnightblue" points="1508.24,-101.488 1517.38,-96.139 1506.9,-94.6177 1508.24,-101.488"/>
</g>
<!-- Node19 -->
<g id="node19" class="node"><title>Node19</title>
<polygon fill="white" stroke="#bfbfbf" points="1631.5,-73 1631.5,-92 1723.5,-92 1723.5,-73 1631.5,-73"/>
<text text-anchor="middle" x="1677.5" y="-80" font-family="Helvetica,sans-Serif" font-size="10.00">pcl/surface/mls.h</text>
</g>
<!-- Node2&#45;&gt;Node19 -->
<g id="edge19" class="edge"><title>Node2&#45;&gt;Node19</title>
<path fill="none" stroke="midnightblue" d="M1261.79,-138.742C1349.41,-133.022 1497.19,-120.827 1622.5,-98 1627.71,-97.051 1633.15,-95.8633 1638.5,-94.5786"/>
<polygon fill="midnightblue" stroke="midnightblue" points="1639.74,-97.8741 1648.57,-92.0257 1638.02,-91.0884 1639.74,-97.8741"/>
</g>
<!-- Node4 -->
<g id="node4" class="node"><title>Node4</title>
<polygon fill="white" stroke="#bfbfbf" points="0,-6 0,-25 55,-25 55,-6 0,-6"/>
<text text-anchor="middle" x="27.5" y="-13" font-family="Helvetica,sans-Serif" font-size="10.00">ros/ros.h</text>
</g>
<!-- Node3&#45;&gt;Node4 -->
<g id="edge3" class="edge"><title>Node3&#45;&gt;Node4</title>
<path fill="none" stroke="midnightblue" d="M501.183,-80.7811C414.326,-78.53 221.578,-69.2459 64.5,-31 61.672,-30.3114 58.7712,-29.456 55.8985,-28.5075"/>
<polygon fill="midnightblue" stroke="midnightblue" points="56.9799,-25.1763 46.386,-25.0307 54.5769,-31.7509 56.9799,-25.1763"/>
</g>
<!-- Node5 -->
<g id="node5" class="node"><title>Node5</title>
<polygon fill="white" stroke="#bfbfbf" points="73.5,-6 73.5,-25 213.5,-25 213.5,-6 73.5,-6"/>
<text text-anchor="middle" x="143.5" y="-13" font-family="Helvetica,sans-Serif" font-size="10.00">sensor_msgs/PointCloud2.h</text>
</g>
<!-- Node3&#45;&gt;Node5 -->
<g id="edge4" class="edge"><title>Node3&#45;&gt;Node5</title>
<path fill="none" stroke="midnightblue" d="M501.419,-74.7455C438.372,-65.4117 321.726,-47.812 222.5,-31 214.863,-29.7061 206.821,-28.291 198.909,-26.8683"/>
<polygon fill="midnightblue" stroke="midnightblue" points="199.461,-23.4114 188.997,-25.0706 198.212,-30.299 199.461,-23.4114"/>
</g>
<!-- Node6 -->
<g id="node6" class="node"><title>Node6</title>
<polygon fill="white" stroke="#bfbfbf" points="231.5,-0.5 231.5,-30.5 331.5,-30.5 331.5,-0.5 231.5,-0.5"/>
<text text-anchor="start" x="239.5" y="-18.5" font-family="Helvetica,sans-Serif" font-size="10.00">visualization_msgs</text>
<text text-anchor="middle" x="281.5" y="-7.5" font-family="Helvetica,sans-Serif" font-size="10.00">/Marker.h</text>
</g>
<!-- Node3&#45;&gt;Node6 -->
<g id="edge5" class="edge"><title>Node3&#45;&gt;Node6</title>
<path fill="none" stroke="midnightblue" d="M501.454,-70.2902C461.632,-60.5904 402.243,-46.1116 341.473,-31.2362"/>
<polygon fill="midnightblue" stroke="midnightblue" points="342.256,-27.8246 331.711,-28.846 340.591,-34.6238 342.256,-27.8246"/>
</g>
<!-- Node7 -->
<g id="node7" class="node"><title>Node7</title>
<polygon fill="white" stroke="#bfbfbf" points="350,-6 350,-25 415,-25 415,-6 350,-6"/>
<text text-anchor="middle" x="382.5" y="-13" font-family="Helvetica,sans-Serif" font-size="10.00">Eigen/Core</text>
</g>
<!-- Node3&#45;&gt;Node7 -->
<g id="edge6" class="edge"><title>Node3&#45;&gt;Node7</title>
<path fill="none" stroke="midnightblue" d="M511.697,-67.396C482.49,-55.8901 441.64,-39.7974 413.741,-28.8072"/>
<polygon fill="midnightblue" stroke="midnightblue" points="414.682,-25.4159 404.095,-25.007 412.116,-31.9287 414.682,-25.4159"/>
</g>
<!-- Node8 -->
<g id="node8" class="node"><title>Node8</title>
<polygon fill="white" stroke="#bfbfbf" points="433,-0.5 433,-30.5 536,-30.5 536,-0.5 433,-0.5"/>
<text text-anchor="start" x="441" y="-18.5" font-family="Helvetica,sans-Serif" font-size="10.00">pcl_conversions/pcl</text>
<text text-anchor="middle" x="484.5" y="-7.5" font-family="Helvetica,sans-Serif" font-size="10.00">_conversions.h</text>
</g>
<!-- Node3&#45;&gt;Node8 -->
<g id="edge7" class="edge"><title>Node3&#45;&gt;Node8</title>
<path fill="none" stroke="midnightblue" d="M533.83,-67.396C525.492,-58.7931 514.668,-47.626 505.285,-37.9448"/>
<polygon fill="midnightblue" stroke="midnightblue" points="507.616,-35.3213 498.143,-30.5765 502.59,-40.1931 507.616,-35.3213"/>
</g>
<!-- Node3&#45;&gt;Node9 -->
<g id="edge8" class="edge"><title>Node3&#45;&gt;Node9</title>
<path fill="none" stroke="midnightblue" d="M593.55,-77.2879C665.487,-70.2837 808.703,-54.633 928.5,-31 933.577,-29.9984 938.881,-28.7992 944.105,-27.5253"/>
<polygon fill="midnightblue" stroke="midnightblue" points="945.144,-30.8725 953.973,-25.0158 943.419,-24.0884 945.144,-30.8725"/>
</g>
<!-- Node10 -->
<g id="node10" class="node"><title>Node10</title>
<polygon fill="white" stroke="#bfbfbf" points="554,-6 554,-25 667,-25 667,-6 554,-6"/>
<text text-anchor="middle" x="610.5" y="-13" font-family="Helvetica,sans-Serif" font-size="10.00">pcl/PCLPointCloud2.h</text>
</g>
<!-- Node3&#45;&gt;Node10 -->
<g id="edge9" class="edge"><title>Node3&#45;&gt;Node10</title>
<path fill="none" stroke="midnightblue" d="M561.17,-67.396C571.09,-57.1607 584.529,-43.2959 594.874,-32.622"/>
<polygon fill="midnightblue" stroke="midnightblue" points="597.626,-34.8112 602.073,-25.1945 592.6,-29.9393 597.626,-34.8112"/>
</g>
<!-- Node11 -->
<g id="node11" class="node"><title>Node11</title>
<polygon fill="white" stroke="#bfbfbf" points="685.5,-6 685.5,-25 801.5,-25 801.5,-6 685.5,-6"/>
<text text-anchor="middle" x="743.5" y="-13" font-family="Helvetica,sans-Serif" font-size="10.00">pcl/common/centroid.h</text>
</g>
<!-- Node3&#45;&gt;Node11 -->
<g id="edge10" class="edge"><title>Node3&#45;&gt;Node11</title>
<path fill="none" stroke="midnightblue" d="M590.029,-67.396C625.333,-55.6882 674.956,-39.2314 708.119,-28.2336"/>
<polygon fill="midnightblue" stroke="midnightblue" points="709.458,-31.4769 717.848,-25.007 707.255,-24.8327 709.458,-31.4769"/>
</g>
<!-- Node12 -->
<g id="node12" class="node"><title>Node12</title>
<polygon fill="white" stroke="#bfbfbf" points="819.5,-6 819.5,-25 919.5,-25 919.5,-6 819.5,-6"/>
<text text-anchor="middle" x="869.5" y="-13" font-family="Helvetica,sans-Serif" font-size="10.00">pcl/search/kdtree.h</text>
</g>
<!-- Node3&#45;&gt;Node12 -->
<g id="edge11" class="edge"><title>Node3&#45;&gt;Node12</title>
<path fill="none" stroke="midnightblue" d="M593.73,-73.3641C646.371,-63.9283 734.876,-47.5419 810.5,-31 815.586,-29.8875 820.904,-28.6649 826.176,-27.4161"/>
<polygon fill="midnightblue" stroke="midnightblue" points="827.281,-30.75 836.183,-25.0043 825.641,-23.9448 827.281,-30.75"/>
</g>
</g>
</svg>
