<?xml version="1.0" encoding="UTF-8" standalone="no"?>
<!DOCTYPE svg PUBLIC "-//W3C//DTD SVG 1.1//EN"
 "http://www.w3.org/Graphics/SVG/1.1/DTD/svg11.dtd">
<!-- Generated by graphviz version 2.38.0 (20140413.2041)
 -->
<!-- Title: /home/jc/hull_abstraction/ros/src/hull_abstraction/include/hull_abstraction/preprocessor.h Pages: 1 -->
<!--zoomable 328 -->
<svg id="main" version="1.1" xmlns="http://www.w3.org/2000/svg" xmlns:xlink="http://www.w3.org/1999/xlink" xml:space="preserve" onload="init(evt)">
<style type="text/css"><![CDATA[
.edge:hover path { stroke: red; }
.edge:hover polygon { stroke: red; fill: red; }
]]></style>
<script type="text/javascript"><![CDATA[
var edges = document.getElementsByTagName('g');
if (edges && edges.length) {
  for (var i=0;i<edges.length;i++) {
    if (edges[i].id.substr(0,4)=='edge') {
      edges[i].setAttribute('class','edge');
    }
  }
}
]]></script>
        <defs>
                <circle id="rim" cx="0" cy="0" r="7"/>
                <circle id="rim2" cx="0" cy="0" r="3.5"/>
                <g id="zoomPlus">
                        <use xlink:href="#rim" fill="#404040">
                                <set attributeName="fill" to="#808080" begin="zoomplus.mouseover" end="zoomplus.mouseout"/>
                        </use>
                        <path d="M-4,0h8M0,-4v8" fill="none" stroke="white" stroke-width="1.5" pointer-events="none"/>
                </g>
                <g id="zoomMin">
                        <use xlink:href="#rim" fill="#404040">
                                <set attributeName="fill" to="#808080" begin="zoomminus.mouseover" end="zoomminus.mouseout"/>
                        </use>
                        <path d="M-4,0h8" fill="none" stroke="white" stroke-width="1.5" pointer-events="none"/>
                </g>
                <g id="dirArrow">
                        <path fill="none" stroke="white" stroke-width="1.5" d="M0,-3.0v7 M-2.5,-0.5L0,-3.0L2.5,-0.5"/>
                </g>
               <g id="resetDef">
                       <use xlink:href="#rim2" fill="#404040">
                               <set attributeName="fill" to="#808080" begin="reset.mouseover" end="reset.mouseout"/>
                       </use>
               </g>
        </defs>

<script type="text/javascript">
var viewWidth = 1203;
var viewHeight = 328;
var sectionId = 'dynsection-1';
</script>
<script xlink:href="svgpan.js"/>
<svg id="graph" class="graph">
<g id="viewport">
<title>/home/jc/hull_abstraction/ros/src/hull_abstraction/include/hull_abstraction/preprocessor.h</title>
<polygon fill="white" stroke="none" points="-4,4 -4,-324 1199,-324 1199,4 -4,4"/>
<!-- Node1 -->
<g id="node1" class="node"><title>Node1</title>
<polygon fill="#bfbfbf" stroke="black" points="603.5,-267.5 603.5,-319.5 728.5,-319.5 728.5,-267.5 603.5,-267.5"/>
<text text-anchor="start" x="611.5" y="-307.5" font-family="Helvetica,sans-Serif" font-size="10.00">/home/jc/hull_abstraction</text>
<text text-anchor="start" x="611.5" y="-296.5" font-family="Helvetica,sans-Serif" font-size="10.00">/ros/src/hull_abstraction</text>
<text text-anchor="start" x="611.5" y="-285.5" font-family="Helvetica,sans-Serif" font-size="10.00">/include/hull_abstraction</text>
<text text-anchor="middle" x="666" y="-274.5" font-family="Helvetica,sans-Serif" font-size="10.00">/preprocessor.h</text>
</g>
<!-- Node2 -->
<g id="node2" class="node"><title>Node2</title>
<g id="a_node2"><a xlink:href="reconstructor_8h.html" target="_top" xlink:title="This file contains the declaration for the Reconstructor class. ">
<polygon fill="white" stroke="black" points="512.5,-178.5 512.5,-230.5 637.5,-230.5 637.5,-178.5 512.5,-178.5"/>
<text text-anchor="start" x="520.5" y="-218.5" font-family="Helvetica,sans-Serif" font-size="10.00">/home/jc/hull_abstraction</text>
<text text-anchor="start" x="520.5" y="-207.5" font-family="Helvetica,sans-Serif" font-size="10.00">/ros/src/hull_abstraction</text>
<text text-anchor="start" x="520.5" y="-196.5" font-family="Helvetica,sans-Serif" font-size="10.00">/include/hull_abstraction</text>
<text text-anchor="middle" x="575" y="-185.5" font-family="Helvetica,sans-Serif" font-size="10.00">/reconstructor.h</text>
</a>
</g>
</g>
<!-- Node1&#45;&gt;Node2 -->
<g id="edge1" class="edge"><title>Node1&#45;&gt;Node2</title>
<path fill="none" stroke="midnightblue" d="M632.386,-260.363C622.113,-250.542 610.971,-239.89 601.262,-230.607"/>
<polygon fill="midnightblue" stroke="midnightblue" points="630.032,-262.955 639.679,-267.336 634.87,-257.896 630.032,-262.955"/>
</g>
<!-- Node6 -->
<g id="node6" class="node"><title>Node6</title>
<g id="a_node6"><a xlink:href="greedy__triangulation_8h.html" target="_top" xlink:title="Framework of greedy triangulation node. ">
<polygon fill="white" stroke="black" points="161.5,-89.5 161.5,-141.5 302.5,-141.5 302.5,-89.5 161.5,-89.5"/>
<text text-anchor="start" x="169.5" y="-129.5" font-family="Helvetica,sans-Serif" font-size="10.00">/home/jc/hull_abstraction</text>
<text text-anchor="start" x="169.5" y="-118.5" font-family="Helvetica,sans-Serif" font-size="10.00">/ros/src/hull_abstraction</text>
<text text-anchor="start" x="169.5" y="-107.5" font-family="Helvetica,sans-Serif" font-size="10.00">/src/greedy_triangulation</text>
<text text-anchor="middle" x="232" y="-96.5" font-family="Helvetica,sans-Serif" font-size="10.00">_node/greedy_triangulation.h</text>
</a>
</g>
</g>
<!-- Node1&#45;&gt;Node6 -->
<g id="edge12" class="edge"><title>Node1&#45;&gt;Node6</title>
<path fill="none" stroke="midnightblue" d="M594.007,-266.026C565.563,-255.386 532.649,-242.851 503,-231 428.895,-201.378 344.295,-165.261 289.617,-141.613"/>
<polygon fill="midnightblue" stroke="midnightblue" points="592.879,-269.341 603.471,-269.558 595.326,-262.782 592.879,-269.341"/>
</g>
<!-- Node10 -->
<g id="node10" class="node"><title>Node10</title>
<g id="a_node10"><a xlink:href="poisson__reconstruction_8h.html" target="_top" xlink:title="Framework of Poisson reconstruction node. ">
<polygon fill="white" stroke="black" points="692.5,-89.5 692.5,-141.5 847.5,-141.5 847.5,-89.5 692.5,-89.5"/>
<text text-anchor="start" x="700.5" y="-129.5" font-family="Helvetica,sans-Serif" font-size="10.00">/home/jc/hull_abstraction</text>
<text text-anchor="start" x="700.5" y="-118.5" font-family="Helvetica,sans-Serif" font-size="10.00">/ros/src/hull_abstraction</text>
<text text-anchor="start" x="700.5" y="-107.5" font-family="Helvetica,sans-Serif" font-size="10.00">/src/poisson_reconstruction</text>
<text text-anchor="middle" x="770" y="-96.5" font-family="Helvetica,sans-Serif" font-size="10.00">_node/poisson_reconstruction.h</text>
</a>
</g>
</g>
<!-- Node1&#45;&gt;Node10 -->
<g id="edge17" class="edge"><title>Node1&#45;&gt;Node10</title>
<path fill="none" stroke="midnightblue" d="M665.048,-257.276C665.951,-233.297 670.307,-201.728 685,-178 694.014,-163.443 707.869,-151.285 721.794,-141.726"/>
<polygon fill="midnightblue" stroke="midnightblue" points="661.547,-257.307 664.851,-267.373 668.545,-257.443 661.547,-257.307"/>
</g>
<!-- Node13 -->
<g id="node13" class="node"><title>Node13</title>
<g id="a_node13"><a xlink:href="preprocessor_8cpp.html" target="_top" xlink:title="/home/jc/hull_abstraction\l/ros/src/hull_abstraction\l/src/hull_abstraction/preprocessor.cpp">
<polygon fill="white" stroke="black" points="694,-184 694,-225 876,-225 876,-184 694,-184"/>
<text text-anchor="start" x="702" y="-213" font-family="Helvetica,sans-Serif" font-size="10.00">/home/jc/hull_abstraction</text>
<text text-anchor="start" x="702" y="-202" font-family="Helvetica,sans-Serif" font-size="10.00">/ros/src/hull_abstraction</text>
<text text-anchor="middle" x="785" y="-191" font-family="Helvetica,sans-Serif" font-size="10.00">/src/hull_abstraction/preprocessor.cpp</text>
</a>
</g>
</g>
<!-- Node1&#45;&gt;Node13 -->
<g id="edge13" class="edge"><title>Node1&#45;&gt;Node13</title>
<path fill="none" stroke="midnightblue" d="M708.841,-261.179C725.325,-249.128 743.664,-235.72 758.215,-225.082"/>
<polygon fill="midnightblue" stroke="midnightblue" points="706.427,-258.609 700.42,-267.336 710.558,-264.26 706.427,-258.609"/>
</g>
<!-- Node14 -->
<g id="node14" class="node"><title>Node14</title>
<g id="a_node14"><a xlink:href="moving__least__squares_8h.html" target="_top" xlink:title="Framework of moving least squares node. ">
<polygon fill="white" stroke="black" points="894,-178.5 894,-230.5 1046,-230.5 1046,-178.5 894,-178.5"/>
<text text-anchor="start" x="902" y="-218.5" font-family="Helvetica,sans-Serif" font-size="10.00">/home/jc/hull_abstraction</text>
<text text-anchor="start" x="902" y="-207.5" font-family="Helvetica,sans-Serif" font-size="10.00">/ros/src/hull_abstraction</text>
<text text-anchor="start" x="902" y="-196.5" font-family="Helvetica,sans-Serif" font-size="10.00">/src/moving_least_squares</text>
<text text-anchor="middle" x="970" y="-185.5" font-family="Helvetica,sans-Serif" font-size="10.00">_node/moving_least_squares.h</text>
</a>
</g>
</g>
<!-- Node1&#45;&gt;Node14 -->
<g id="edge14" class="edge"><title>Node1&#45;&gt;Node14</title>
<path fill="none" stroke="midnightblue" d="M738.602,-272.459C781.286,-260.59 836.27,-245.151 885,-231 887.811,-230.184 890.673,-229.348 893.563,-228.501"/>
<polygon fill="midnightblue" stroke="midnightblue" points="737.558,-269.116 728.86,-275.165 739.432,-275.861 737.558,-269.116"/>
</g>
<!-- Node3 -->
<g id="node3" class="node"><title>Node3</title>
<g id="a_node3"><a xlink:href="bspline__surface__fitting_8h.html" target="_top" xlink:title="Framework of b&#45;spline surface fitting node. ">
<polygon fill="white" stroke="black" points="321,-89.5 321,-141.5 473,-141.5 473,-89.5 321,-89.5"/>
<text text-anchor="start" x="329" y="-129.5" font-family="Helvetica,sans-Serif" font-size="10.00">/home/jc/hull_abstraction</text>
<text text-anchor="start" x="329" y="-118.5" font-family="Helvetica,sans-Serif" font-size="10.00">/ros/src/hull_abstraction</text>
<text text-anchor="start" x="329" y="-107.5" font-family="Helvetica,sans-Serif" font-size="10.00">/src/bspline_surface_fitting</text>
<text text-anchor="middle" x="397" y="-96.5" font-family="Helvetica,sans-Serif" font-size="10.00">_node/bspline_surface_fitting.h</text>
</a>
</g>
</g>
<!-- Node2&#45;&gt;Node3 -->
<g id="edge2" class="edge"><title>Node2&#45;&gt;Node3</title>
<path fill="none" stroke="midnightblue" d="M514.474,-173.917C492.985,-163.414 469.02,-151.701 448.369,-141.607"/>
<polygon fill="midnightblue" stroke="midnightblue" points="512.994,-177.089 523.515,-178.336 516.068,-170.8 512.994,-177.089"/>
</g>
<!-- Node2&#45;&gt;Node6 -->
<g id="edge5" class="edge"><title>Node2&#45;&gt;Node6</title>
<path fill="none" stroke="midnightblue" d="M502.487,-188.157C449.45,-176.545 375.912,-159.629 312,-142 308.908,-141.147 305.757,-140.253 302.58,-139.33"/>
<polygon fill="midnightblue" stroke="midnightblue" points="501.962,-191.625 512.478,-190.335 503.453,-184.786 501.962,-191.625"/>
</g>
<!-- Node9 -->
<g id="node9" class="node"><title>Node9</title>
<g id="a_node9"><a xlink:href="reconstructor_8cpp.html" target="_top" xlink:title="/home/jc/hull_abstraction\l/ros/src/hull_abstraction\l/src/hull_abstraction/reconstructor.cpp">
<polygon fill="white" stroke="black" points="491.5,-95 491.5,-136 674.5,-136 674.5,-95 491.5,-95"/>
<text text-anchor="start" x="499.5" y="-124" font-family="Helvetica,sans-Serif" font-size="10.00">/home/jc/hull_abstraction</text>
<text text-anchor="start" x="499.5" y="-113" font-family="Helvetica,sans-Serif" font-size="10.00">/ros/src/hull_abstraction</text>
<text text-anchor="middle" x="583" y="-102" font-family="Helvetica,sans-Serif" font-size="10.00">/src/hull_abstraction/reconstructor.cpp</text>
</a>
</g>
</g>
<!-- Node2&#45;&gt;Node9 -->
<g id="edge8" class="edge"><title>Node2&#45;&gt;Node9</title>
<path fill="none" stroke="midnightblue" d="M578.25,-168.155C579.257,-157.21 580.329,-145.549 581.199,-136.082"/>
<polygon fill="midnightblue" stroke="midnightblue" points="574.744,-168.057 577.314,-178.336 581.715,-168.699 574.744,-168.057"/>
</g>
<!-- Node2&#45;&gt;Node10 -->
<g id="edge9" class="edge"><title>Node2&#45;&gt;Node10</title>
<path fill="none" stroke="midnightblue" d="M640.461,-174.295C664.285,-163.665 690.98,-151.755 713.918,-141.521"/>
<polygon fill="midnightblue" stroke="midnightblue" points="638.847,-171.182 631.14,-178.453 641.699,-177.575 638.847,-171.182"/>
</g>
<!-- Node4 -->
<g id="node4" class="node"><title>Node4</title>
<g id="a_node4"><a xlink:href="bspline__surface__fitting_8cpp.html" target="_top" xlink:title="/home/jc/hull_abstraction\l/ros/src/hull_abstraction\l/src/bspline_surface_fitting\l_node/bspline_surface_fitting.cpp">
<polygon fill="white" stroke="black" points="315,-0.5 315,-52.5 477,-52.5 477,-0.5 315,-0.5"/>
<text text-anchor="start" x="323" y="-40.5" font-family="Helvetica,sans-Serif" font-size="10.00">/home/jc/hull_abstraction</text>
<text text-anchor="start" x="323" y="-29.5" font-family="Helvetica,sans-Serif" font-size="10.00">/ros/src/hull_abstraction</text>
<text text-anchor="start" x="323" y="-18.5" font-family="Helvetica,sans-Serif" font-size="10.00">/src/bspline_surface_fitting</text>
<text text-anchor="middle" x="396" y="-7.5" font-family="Helvetica,sans-Serif" font-size="10.00">_node/bspline_surface_fitting.cpp</text>
</a>
</g>
</g>
<!-- Node3&#45;&gt;Node4 -->
<g id="edge3" class="edge"><title>Node3&#45;&gt;Node4</title>
<path fill="none" stroke="midnightblue" d="M396.594,-79.1908C396.492,-70.2824 396.384,-60.8986 396.289,-52.6075"/>
<polygon fill="midnightblue" stroke="midnightblue" points="393.096,-79.3769 396.711,-89.336 400.095,-79.2964 393.096,-79.3769"/>
</g>
<!-- Node5 -->
<g id="node5" class="node"><title>Node5</title>
<g id="a_node5"><a xlink:href="bspline__surface__fitting__node_8cpp.html" target="_top" xlink:title="/home/jc/hull_abstraction\l/ros/src/hull_abstraction\l/src/bspline_surface_fitting\l_node.cpp">
<polygon fill="white" stroke="black" points="495,-0.5 495,-52.5 629,-52.5 629,-0.5 495,-0.5"/>
<text text-anchor="start" x="503" y="-40.5" font-family="Helvetica,sans-Serif" font-size="10.00">/home/jc/hull_abstraction</text>
<text text-anchor="start" x="503" y="-29.5" font-family="Helvetica,sans-Serif" font-size="10.00">/ros/src/hull_abstraction</text>
<text text-anchor="start" x="503" y="-18.5" font-family="Helvetica,sans-Serif" font-size="10.00">/src/bspline_surface_fitting</text>
<text text-anchor="middle" x="562" y="-7.5" font-family="Helvetica,sans-Serif" font-size="10.00">_node.cpp</text>
</a>
</g>
</g>
<!-- Node3&#45;&gt;Node5 -->
<g id="edge4" class="edge"><title>Node3&#45;&gt;Node5</title>
<path fill="none" stroke="midnightblue" d="M453.64,-84.6354C473.422,-74.2049 495.41,-62.6109 514.382,-52.6075"/>
<polygon fill="midnightblue" stroke="midnightblue" points="451.938,-81.5759 444.725,-89.336 455.203,-87.7678 451.938,-81.5759"/>
</g>
<!-- Node7 -->
<g id="node7" class="node"><title>Node7</title>
<g id="a_node7"><a xlink:href="greedy__triangulation_8cpp.html" target="_top" xlink:title="/home/jc/hull_abstraction\l/ros/src/hull_abstraction\l/src/greedy_triangulation\l_node/greedy_triangulation.cpp">
<polygon fill="white" stroke="black" points="0,-0.5 0,-52.5 152,-52.5 152,-0.5 0,-0.5"/>
<text text-anchor="start" x="8" y="-40.5" font-family="Helvetica,sans-Serif" font-size="10.00">/home/jc/hull_abstraction</text>
<text text-anchor="start" x="8" y="-29.5" font-family="Helvetica,sans-Serif" font-size="10.00">/ros/src/hull_abstraction</text>
<text text-anchor="start" x="8" y="-18.5" font-family="Helvetica,sans-Serif" font-size="10.00">/src/greedy_triangulation</text>
<text text-anchor="middle" x="76" y="-7.5" font-family="Helvetica,sans-Serif" font-size="10.00">_node/greedy_triangulation.cpp</text>
</a>
</g>
</g>
<!-- Node6&#45;&gt;Node7 -->
<g id="edge6" class="edge"><title>Node6&#45;&gt;Node7</title>
<path fill="none" stroke="midnightblue" d="M177.944,-84.3532C159.372,-73.9962 138.796,-62.5208 121.02,-52.6075"/>
<polygon fill="midnightblue" stroke="midnightblue" points="176.44,-87.522 186.878,-89.336 179.849,-81.4085 176.44,-87.522"/>
</g>
<!-- Node8 -->
<g id="node8" class="node"><title>Node8</title>
<g id="a_node8"><a xlink:href="greedy__triangulation__node_8cpp.html" target="_top" xlink:title="/home/jc/hull_abstraction\l/ros/src/hull_abstraction\l/src/greedy_triangulation\l_node.cpp">
<polygon fill="white" stroke="black" points="170.5,-0.5 170.5,-52.5 295.5,-52.5 295.5,-0.5 170.5,-0.5"/>
<text text-anchor="start" x="178.5" y="-40.5" font-family="Helvetica,sans-Serif" font-size="10.00">/home/jc/hull_abstraction</text>
<text text-anchor="start" x="178.5" y="-29.5" font-family="Helvetica,sans-Serif" font-size="10.00">/ros/src/hull_abstraction</text>
<text text-anchor="start" x="178.5" y="-18.5" font-family="Helvetica,sans-Serif" font-size="10.00">/src/greedy_triangulation</text>
<text text-anchor="middle" x="233" y="-7.5" font-family="Helvetica,sans-Serif" font-size="10.00">_node.cpp</text>
</a>
</g>
</g>
<!-- Node6&#45;&gt;Node8 -->
<g id="edge7" class="edge"><title>Node6&#45;&gt;Node8</title>
<path fill="none" stroke="midnightblue" d="M232.406,-79.1908C232.508,-70.2824 232.616,-60.8986 232.711,-52.6075"/>
<polygon fill="midnightblue" stroke="midnightblue" points="228.905,-79.2964 232.289,-89.336 235.904,-79.3769 228.905,-79.2964"/>
</g>
<!-- Node11 -->
<g id="node11" class="node"><title>Node11</title>
<g id="a_node11"><a xlink:href="poisson__reconstruction_8cpp.html" target="_top" xlink:title="/home/jc/hull_abstraction\l/ros/src/hull_abstraction\l/src/poisson_reconstruction\l_node/poisson_reconstruction.cpp">
<polygon fill="white" stroke="black" points="667.5,-0.5 667.5,-52.5 832.5,-52.5 832.5,-0.5 667.5,-0.5"/>
<text text-anchor="start" x="675.5" y="-40.5" font-family="Helvetica,sans-Serif" font-size="10.00">/home/jc/hull_abstraction</text>
<text text-anchor="start" x="675.5" y="-29.5" font-family="Helvetica,sans-Serif" font-size="10.00">/ros/src/hull_abstraction</text>
<text text-anchor="start" x="675.5" y="-18.5" font-family="Helvetica,sans-Serif" font-size="10.00">/src/poisson_reconstruction</text>
<text text-anchor="middle" x="750" y="-7.5" font-family="Helvetica,sans-Serif" font-size="10.00">_node/poisson_reconstruction.cpp</text>
</a>
</g>
</g>
<!-- Node10&#45;&gt;Node11 -->
<g id="edge10" class="edge"><title>Node10&#45;&gt;Node11</title>
<path fill="none" stroke="midnightblue" d="M761.95,-79.4811C759.882,-70.4865 757.699,-60.9887 755.772,-52.6075"/>
<polygon fill="midnightblue" stroke="midnightblue" points="758.564,-80.3744 764.215,-89.336 765.386,-78.806 758.564,-80.3744"/>
</g>
<!-- Node12 -->
<g id="node12" class="node"><title>Node12</title>
<g id="a_node12"><a xlink:href="poisson__reconstruction__node_8cpp.html" target="_top" xlink:title="/home/jc/hull_abstraction\l/ros/src/hull_abstraction\l/src/poisson_reconstruction\l_node.cpp">
<polygon fill="white" stroke="black" points="850.5,-0.5 850.5,-52.5 987.5,-52.5 987.5,-0.5 850.5,-0.5"/>
<text text-anchor="start" x="858.5" y="-40.5" font-family="Helvetica,sans-Serif" font-size="10.00">/home/jc/hull_abstraction</text>
<text text-anchor="start" x="858.5" y="-29.5" font-family="Helvetica,sans-Serif" font-size="10.00">/ros/src/hull_abstraction</text>
<text text-anchor="start" x="858.5" y="-18.5" font-family="Helvetica,sans-Serif" font-size="10.00">/src/poisson_reconstruction</text>
<text text-anchor="middle" x="919" y="-7.5" font-family="Helvetica,sans-Serif" font-size="10.00">_node.cpp</text>
</a>
</g>
</g>
<!-- Node10&#45;&gt;Node12 -->
<g id="edge11" class="edge"><title>Node10&#45;&gt;Node12</title>
<path fill="none" stroke="midnightblue" d="M822.115,-84.0705C839.726,-73.7877 859.176,-62.4307 876,-52.6075"/>
<polygon fill="midnightblue" stroke="midnightblue" points="819.968,-81.2711 813.097,-89.336 823.497,-87.3161 819.968,-81.2711"/>
</g>
<!-- Node15 -->
<g id="node15" class="node"><title>Node15</title>
<g id="a_node15"><a xlink:href="moving__least__squares_8cpp.html" target="_top" xlink:title="/home/jc/hull_abstraction\l/ros/src/hull_abstraction\l/src/moving_least_squares\l_node/moving_least_squares.cpp">
<polygon fill="white" stroke="black" points="881,-89.5 881,-141.5 1043,-141.5 1043,-89.5 881,-89.5"/>
<text text-anchor="start" x="889" y="-129.5" font-family="Helvetica,sans-Serif" font-size="10.00">/home/jc/hull_abstraction</text>
<text text-anchor="start" x="889" y="-118.5" font-family="Helvetica,sans-Serif" font-size="10.00">/ros/src/hull_abstraction</text>
<text text-anchor="start" x="889" y="-107.5" font-family="Helvetica,sans-Serif" font-size="10.00">/src/moving_least_squares</text>
<text text-anchor="middle" x="962" y="-96.5" font-family="Helvetica,sans-Serif" font-size="10.00">_node/moving_least_squares.cpp</text>
</a>
</g>
</g>
<!-- Node14&#45;&gt;Node15 -->
<g id="edge15" class="edge"><title>Node14&#45;&gt;Node15</title>
<path fill="none" stroke="midnightblue" d="M966.753,-168.191C965.934,-159.282 965.071,-149.899 964.309,-141.607"/>
<polygon fill="midnightblue" stroke="midnightblue" points="963.285,-168.699 967.686,-178.336 970.256,-168.057 963.285,-168.699"/>
</g>
<!-- Node16 -->
<g id="node16" class="node"><title>Node16</title>
<g id="a_node16"><a xlink:href="moving__least__squares__node_8cpp.html" target="_top" xlink:title="/home/jc/hull_abstraction\l/ros/src/hull_abstraction\l/src/moving_least_squares\l_node.cpp">
<polygon fill="white" stroke="black" points="1061,-89.5 1061,-141.5 1195,-141.5 1195,-89.5 1061,-89.5"/>
<text text-anchor="start" x="1069" y="-129.5" font-family="Helvetica,sans-Serif" font-size="10.00">/home/jc/hull_abstraction</text>
<text text-anchor="start" x="1069" y="-118.5" font-family="Helvetica,sans-Serif" font-size="10.00">/ros/src/hull_abstraction</text>
<text text-anchor="start" x="1069" y="-107.5" font-family="Helvetica,sans-Serif" font-size="10.00">/src/moving_least_squares</text>
<text text-anchor="middle" x="1128" y="-96.5" font-family="Helvetica,sans-Serif" font-size="10.00">_node.cpp</text>
</a>
</g>
</g>
<!-- Node14&#45;&gt;Node16 -->
<g id="edge16" class="edge"><title>Node14&#45;&gt;Node16</title>
<path fill="none" stroke="midnightblue" d="M1024.49,-173.494C1043.37,-163.101 1064.32,-151.566 1082.4,-141.607"/>
<polygon fill="midnightblue" stroke="midnightblue" points="1022.77,-170.447 1015.7,-178.336 1026.15,-176.578 1022.77,-170.447"/>
</g>
</g>
</svg>
        <g id="navigator" transform="translate(0 0)" fill="#404254">
                <rect fill="#f2f5e9" fill-opacity="0.5" stroke="#606060" stroke-width=".5" x="0" y="0" width="60" height="60"/>
                <use id="zoomplus" xlink:href="#zoomPlus" x="17" y="9" onmousedown="handleZoom(evt,'in')"/>
                <use id="zoomminus" xlink:href="#zoomMin" x="42" y="9" onmousedown="handleZoom(evt,'out')"/>
                <use id="reset" xlink:href="#resetDef" x="30" y="36" onmousedown="handleReset()"/>
                <g id="arrowUp" xlink:href="#dirArrow" transform="translate(30 24)" onmousedown="handlePan(0,-1)">
                  <use xlink:href="#rim" fill="#404040">
                        <set attributeName="fill" to="#808080" begin="arrowUp.mouseover" end="arrowUp.mouseout"/>
                  </use>
                  <path fill="none" stroke="white" stroke-width="1.5" d="M0,-3.0v7 M-2.5,-0.5L0,-3.0L2.5,-0.5"/>
                </g>
                <g id="arrowRight" xlink:href="#dirArrow" transform="rotate(90) translate(36 -43)" onmousedown="handlePan(1,0)">
                  <use xlink:href="#rim" fill="#404040">
                        <set attributeName="fill" to="#808080" begin="arrowRight.mouseover" end="arrowRight.mouseout"/>
                  </use>
                  <path fill="none" stroke="white" stroke-width="1.5" d="M0,-3.0v7 M-2.5,-0.5L0,-3.0L2.5,-0.5"/>
                </g>
                <g id="arrowDown" xlink:href="#dirArrow" transform="rotate(180) translate(-30 -48)" onmousedown="handlePan(0,1)">
                  <use xlink:href="#rim" fill="#404040">
                        <set attributeName="fill" to="#808080" begin="arrowDown.mouseover" end="arrowDown.mouseout"/>
                  </use>
                  <path fill="none" stroke="white" stroke-width="1.5" d="M0,-3.0v7 M-2.5,-0.5L0,-3.0L2.5,-0.5"/>
                </g>
                <g id="arrowLeft" xlink:href="#dirArrow" transform="rotate(270) translate(-36 17)" onmousedown="handlePan(-1,0)">
                  <use xlink:href="#rim" fill="#404040">
                        <set attributeName="fill" to="#808080" begin="arrowLeft.mouseover" end="arrowLeft.mouseout"/>
                  </use>
                  <path fill="none" stroke="white" stroke-width="1.5" d="M0,-3.0v7 M-2.5,-0.5L0,-3.0L2.5,-0.5"/>
                </g>
        </g>
        <svg viewBox="0 0 15 15" width="100%" height="30px" preserveAspectRatio="xMaxYMin meet">
         <g id="arrow_out" transform="scale(0.3 0.3)">
          <a xlink:href="preprocessor_8h__dep__incl_org.svg" target="_base">
           <rect id="button" ry="5" rx="5" y="6" x="6" height="38" width="38"
                fill="#f2f5e9" fill-opacity="0.5" stroke="#606060" stroke-width="1.0"/>
           <path id="arrow"
             d="M 11.500037,31.436501 C 11.940474,20.09759 22.043105,11.32322 32.158766,21.979434 L 37.068811,17.246167 C 37.068811,17.246167 37.088388,32 37.088388,32 L 22.160133,31.978069 C 22.160133,31.978069 26.997745,27.140456 26.997745,27.140456 C 18.528582,18.264221 13.291696,25.230495 11.500037,31.436501 z"
             style="fill:#404040;"/>
          </a>
         </g>
        </svg>
</svg>
