<?xml version="1.0" encoding="UTF-8" standalone="no"?>
<!DOCTYPE svg PUBLIC "-//W3C//DTD SVG 1.1//EN"
 "http://www.w3.org/Graphics/SVG/1.1/DTD/svg11.dtd">
<!-- Generated by graphviz version 2.38.0 (20140413.2041)
 -->
<!-- Title: /home/jc/hull_abstraction/prototype/src/hull_abstraction/preprocessor.cpp Pages: 1 -->
<svg width="160pt" height="106pt"
 viewBox="0.00 0.00 160.00 106.00" xmlns="http://www.w3.org/2000/svg" xmlns:xlink="http://www.w3.org/1999/xlink">
<g id="graph0" class="graph" transform="scale(1 1) rotate(0) translate(4 102)">
<title>/home/jc/hull_abstraction/prototype/src/hull_abstraction/preprocessor.cpp</title>
<polygon fill="white" stroke="none" points="-4,4 -4,-102 156,-102 156,4 -4,4"/>
<!-- Node1 -->
<g id="node1" class="node"><title>Node1</title>
<polygon fill="#bfbfbf" stroke="black" points="2,-56.5 2,-97.5 150,-97.5 150,-56.5 2,-56.5"/>
<text text-anchor="start" x="10" y="-85.5" font-family="Helvetica,sans-Serif" font-size="10.00">/home/jc/hull_abstraction</text>
<text text-anchor="start" x="10" y="-74.5" font-family="Helvetica,sans-Serif" font-size="10.00">/prototype/src/hull_abstraction</text>
<text text-anchor="middle" x="76" y="-63.5" font-family="Helvetica,sans-Serif" font-size="10.00">/preprocessor.cpp</text>
</g>
<!-- Node2 -->
<g id="node2" class="node"><title>Node2</title>
<polygon fill="white" stroke="#bfbfbf" points="0,-0.5 0,-19.5 152,-19.5 152,-0.5 0,-0.5"/>
<text text-anchor="middle" x="76" y="-7.5" font-family="Helvetica,sans-Serif" font-size="10.00">hull_abstraction/preprocessor.h</text>
</g>
<!-- Node1&#45;&gt;Node2 -->
<g id="edge1" class="edge"><title>Node1&#45;&gt;Node2</title>
<path fill="none" stroke="midnightblue" d="M76,-56.4979C76,-48.0653 76,-38.2351 76,-29.874"/>
<polygon fill="midnightblue" stroke="midnightblue" points="79.5001,-29.6525 76,-19.6525 72.5001,-29.6525 79.5001,-29.6525"/>
</g>
</g>
</svg>
