<?xml version="1.0" encoding="UTF-8" standalone="no"?>
<!DOCTYPE svg PUBLIC "-//W3C//DTD SVG 1.1//EN"
 "http://www.w3.org/Graphics/SVG/1.1/DTD/svg11.dtd">
<!-- Generated by graphviz version 2.38.0 (20140413.2041)
 -->
<!-- Title: /home/jc/hull_abstraction/prototype/include/hull_abstraction/preprocessor.h Pages: 1 -->
<svg width="1088pt" height="184pt"
 viewBox="0.00 0.00 1087.50 184.00" xmlns="http://www.w3.org/2000/svg" xmlns:xlink="http://www.w3.org/1999/xlink">
<g id="graph0" class="graph" transform="scale(1 1) rotate(0) translate(4 180)">
<title>/home/jc/hull_abstraction/prototype/include/hull_abstraction/preprocessor.h</title>
<polygon fill="white" stroke="none" points="-4,4 -4,-180 1083.5,-180 1083.5,4 -4,4"/>
<!-- Node1 -->
<g id="node1" class="node"><title>Node1</title>
<polygon fill="#bfbfbf" stroke="black" points="473,-134.5 473,-175.5 610,-175.5 610,-134.5 473,-134.5"/>
<text text-anchor="start" x="481" y="-163.5" font-family="Helvetica,sans-Serif" font-size="10.00">/home/jc/hull_abstraction</text>
<text text-anchor="start" x="481" y="-152.5" font-family="Helvetica,sans-Serif" font-size="10.00">/prototype/include/hull</text>
<text text-anchor="middle" x="541.5" y="-141.5" font-family="Helvetica,sans-Serif" font-size="10.00">_abstraction/preprocessor.h</text>
</g>
<!-- Node2 -->
<g id="node2" class="node"><title>Node2</title>
<polygon fill="white" stroke="#bfbfbf" points="0,-6 0,-25 91,-25 91,-6 0,-6"/>
<text text-anchor="middle" x="45.5" y="-13" font-family="Helvetica,sans-Serif" font-size="10.00">pcl/point_types.h</text>
</g>
<!-- Node1&#45;&gt;Node2 -->
<g id="edge1" class="edge"><title>Node1&#45;&gt;Node2</title>
<path fill="none" stroke="midnightblue" d="M472.771,-151.888C397.412,-147.679 273.974,-135.152 174.5,-98 131.4,-81.903 87.4086,-50.1375 63.5711,-31.3711"/>
<polygon fill="midnightblue" stroke="midnightblue" points="65.7327,-28.6182 55.7397,-25.0984 61.3566,-34.0817 65.7327,-28.6182"/>
</g>
<!-- Node3 -->
<g id="node3" class="node"><title>Node3</title>
<polygon fill="white" stroke="#bfbfbf" points="360,-67.5 360,-97.5 473,-97.5 473,-67.5 360,-67.5"/>
<text text-anchor="start" x="368" y="-85.5" font-family="Helvetica,sans-Serif" font-size="10.00">pcl/filters/approximate</text>
<text text-anchor="middle" x="416.5" y="-74.5" font-family="Helvetica,sans-Serif" font-size="10.00">_voxel_grid.h</text>
</g>
<!-- Node1&#45;&gt;Node3 -->
<g id="edge2" class="edge"><title>Node1&#45;&gt;Node3</title>
<path fill="none" stroke="midnightblue" d="M506.681,-134.362C489.087,-124.439 467.826,-112.448 450.368,-102.601"/>
<polygon fill="midnightblue" stroke="midnightblue" points="452.054,-99.534 441.624,-97.67 448.615,-105.631 452.054,-99.534"/>
</g>
<!-- Node4 -->
<g id="node4" class="node"><title>Node4</title>
<polygon fill="white" stroke="#bfbfbf" points="109.5,-6 109.5,-25 233.5,-25 233.5,-6 109.5,-6"/>
<text text-anchor="middle" x="171.5" y="-13" font-family="Helvetica,sans-Serif" font-size="10.00">pcl/features/normal_3d.h</text>
</g>
<!-- Node1&#45;&gt;Node4 -->
<g id="edge3" class="edge"><title>Node1&#45;&gt;Node4</title>
<path fill="none" stroke="midnightblue" d="M472.897,-151.271C384.302,-146.363 236.692,-133.041 196.5,-98 178.493,-82.301 173.255,-53.998 171.842,-35.2266"/>
<polygon fill="midnightblue" stroke="midnightblue" points="175.337,-35.0338 171.381,-25.2055 168.344,-35.3559 175.337,-35.0338"/>
</g>
<!-- Node5 -->
<g id="node5" class="node"><title>Node5</title>
<polygon fill="white" stroke="#bfbfbf" points="491,-67.5 491,-97.5 592,-97.5 592,-67.5 491,-67.5"/>
<text text-anchor="start" x="499" y="-85.5" font-family="Helvetica,sans-Serif" font-size="10.00">pcl/filters/statistical</text>
<text text-anchor="middle" x="541.5" y="-74.5" font-family="Helvetica,sans-Serif" font-size="10.00">_outlier_removal.h</text>
</g>
<!-- Node1&#45;&gt;Node5 -->
<g id="edge4" class="edge"><title>Node1&#45;&gt;Node5</title>
<path fill="none" stroke="midnightblue" d="M541.5,-134.362C541.5,-126.226 541.5,-116.7 541.5,-108.105"/>
<polygon fill="midnightblue" stroke="midnightblue" points="545,-107.892 541.5,-97.8916 538,-107.892 545,-107.892"/>
</g>
<!-- Node6 -->
<g id="node6" class="node"><title>Node6</title>
<polygon fill="white" stroke="#bfbfbf" points="610,-73 610,-92 731,-92 731,-73 610,-73"/>
<text text-anchor="middle" x="670.5" y="-80" font-family="Helvetica,sans-Serif" font-size="10.00">pcl/filters/passthrough.h</text>
</g>
<!-- Node1&#45;&gt;Node6 -->
<g id="edge5" class="edge"><title>Node1&#45;&gt;Node6</title>
<path fill="none" stroke="midnightblue" d="M577.434,-134.362C599.217,-122.457 626.447,-107.576 645.813,-96.9919"/>
<polygon fill="midnightblue" stroke="midnightblue" points="647.533,-100.04 654.63,-92.1734 644.176,-93.8978 647.533,-100.04"/>
</g>
<!-- Node7 -->
<g id="node7" class="node"><title>Node7</title>
<polygon fill="white" stroke="#bfbfbf" points="749.5,-67.5 749.5,-97.5 855.5,-97.5 855.5,-67.5 749.5,-67.5"/>
<text text-anchor="start" x="757.5" y="-85.5" font-family="Helvetica,sans-Serif" font-size="10.00">pcl/filters/conditional</text>
<text text-anchor="middle" x="802.5" y="-74.5" font-family="Helvetica,sans-Serif" font-size="10.00">_removal.h</text>
</g>
<!-- Node1&#45;&gt;Node7 -->
<g id="edge6" class="edge"><title>Node1&#45;&gt;Node7</title>
<path fill="none" stroke="midnightblue" d="M610.075,-135.477C650.592,-124.533 701.477,-110.788 740.743,-100.182"/>
<polygon fill="midnightblue" stroke="midnightblue" points="741.72,-103.543 750.462,-97.5564 739.895,-96.7852 741.72,-103.543"/>
</g>
<!-- Node8 -->
<g id="node8" class="node"><title>Node8</title>
<polygon fill="white" stroke="#bfbfbf" points="873.5,-67.5 873.5,-97.5 969.5,-97.5 969.5,-67.5 873.5,-67.5"/>
<text text-anchor="start" x="881.5" y="-85.5" font-family="Helvetica,sans-Serif" font-size="10.00">pcl/filters/radius</text>
<text text-anchor="middle" x="921.5" y="-74.5" font-family="Helvetica,sans-Serif" font-size="10.00">_outlier_removal.h</text>
</g>
<!-- Node1&#45;&gt;Node8 -->
<g id="edge7" class="edge"><title>Node1&#45;&gt;Node8</title>
<path fill="none" stroke="midnightblue" d="M610.163,-143.676C673.512,-133.791 770.359,-117.772 863.488,-98.1247"/>
<polygon fill="midnightblue" stroke="midnightblue" points="864.306,-101.529 873.36,-96.0252 862.85,-94.6821 864.306,-101.529"/>
</g>
<!-- Node9 -->
<g id="node9" class="node"><title>Node9</title>
<polygon fill="white" stroke="#bfbfbf" points="987.5,-73 987.5,-92 1079.5,-92 1079.5,-73 987.5,-73"/>
<text text-anchor="middle" x="1033.5" y="-80" font-family="Helvetica,sans-Serif" font-size="10.00">pcl/surface/mls.h</text>
</g>
<!-- Node1&#45;&gt;Node9 -->
<g id="edge8" class="edge"><title>Node1&#45;&gt;Node9</title>
<path fill="none" stroke="midnightblue" d="M610.066,-148.003C696.491,-139.806 849.373,-123.184 978.5,-98 983.579,-97.0094 988.884,-95.8167 994.109,-94.5462"/>
<polygon fill="midnightblue" stroke="midnightblue" points="995.147,-97.8937 1003.98,-92.0397 993.424,-91.1091 995.147,-97.8937"/>
</g>
<!-- Node10 -->
<g id="node10" class="node"><title>Node10</title>
<g id="a_node10"><a xlink:href="functions_8h.html" target="_top" xlink:title="hull_abstraction/functions.h">
<polygon fill="white" stroke="black" points="205.5,-73 205.5,-92 341.5,-92 341.5,-73 205.5,-73"/>
<text text-anchor="middle" x="273.5" y="-80" font-family="Helvetica,sans-Serif" font-size="10.00">hull_abstraction/functions.h</text>
</a>
</g>
</g>
<!-- Node1&#45;&gt;Node10 -->
<g id="edge9" class="edge"><title>Node1&#45;&gt;Node10</title>
<path fill="none" stroke="midnightblue" d="M472.831,-135.936C423.259,-122.895 357.892,-105.7 315.773,-94.6204"/>
<polygon fill="midnightblue" stroke="midnightblue" points="316.412,-91.1695 305.851,-92.0102 314.632,-97.9392 316.412,-91.1695"/>
</g>
<!-- Node10&#45;&gt;Node2 -->
<g id="edge13" class="edge"><title>Node10&#45;&gt;Node2</title>
<path fill="none" stroke="midnightblue" d="M243.223,-72.8685C202.569,-61.2784 130.254,-40.6624 85.2545,-27.8335"/>
<polygon fill="midnightblue" stroke="midnightblue" points="86.1152,-24.4395 75.5387,-25.0637 84.196,-31.1713 86.1152,-24.4395"/>
</g>
<!-- Node10&#45;&gt;Node4 -->
<g id="edge15" class="edge"><title>Node10&#45;&gt;Node4</title>
<path fill="none" stroke="midnightblue" d="M259.744,-72.7338C242.768,-61.9156 213.686,-43.3832 193.573,-30.5659"/>
<polygon fill="midnightblue" stroke="midnightblue" points="195.352,-27.5498 185.038,-25.1273 191.59,-33.4531 195.352,-27.5498"/>
</g>
<!-- Node11 -->
<g id="node11" class="node"><title>Node11</title>
<polygon fill="white" stroke="#bfbfbf" points="632,-6 632,-25 679,-25 679,-6 632,-6"/>
<text text-anchor="middle" x="655.5" y="-13" font-family="Helvetica,sans-Serif" font-size="10.00">math.h</text>
</g>
<!-- Node10&#45;&gt;Node11 -->
<g id="edge10" class="edge"><title>Node10&#45;&gt;Node11</title>
<path fill="none" stroke="midnightblue" d="M317.16,-72.9719C328.335,-70.9024 340.346,-68.7764 351.5,-67 471.49,-47.8903 505.498,-63.7636 622.5,-31 624.654,-30.3967 626.85,-29.6792 629.035,-28.891"/>
<polygon fill="midnightblue" stroke="midnightblue" points="630.408,-32.111 638.369,-25.1193 627.786,-25.6209 630.408,-32.111"/>
</g>
<!-- Node12 -->
<g id="node12" class="node"><title>Node12</title>
<polygon fill="white" stroke="#bfbfbf" points="251.5,-6 251.5,-25 295.5,-25 295.5,-6 251.5,-6"/>
<text text-anchor="middle" x="273.5" y="-13" font-family="Helvetica,sans-Serif" font-size="10.00">time.h</text>
</g>
<!-- Node10&#45;&gt;Node12 -->
<g id="edge11" class="edge"><title>Node10&#45;&gt;Node12</title>
<path fill="none" stroke="midnightblue" d="M273.5,-72.7338C273.5,-63.1826 273.5,-47.6183 273.5,-35.2829"/>
<polygon fill="midnightblue" stroke="midnightblue" points="277,-35.1273 273.5,-25.1273 270,-35.1273 277,-35.1273"/>
</g>
<!-- Node13 -->
<g id="node13" class="node"><title>Node13</title>
<polygon fill="white" stroke="#bfbfbf" points="313.5,-6 313.5,-25 361.5,-25 361.5,-6 313.5,-6"/>
<text text-anchor="middle" x="337.5" y="-13" font-family="Helvetica,sans-Serif" font-size="10.00">stdlib.h</text>
</g>
<!-- Node10&#45;&gt;Node13 -->
<g id="edge12" class="edge"><title>Node10&#45;&gt;Node13</title>
<path fill="none" stroke="midnightblue" d="M282.131,-72.7338C292.303,-62.403 309.402,-45.0371 321.912,-32.3315"/>
<polygon fill="midnightblue" stroke="midnightblue" points="324.483,-34.7086 329.005,-25.1273 319.495,-29.7974 324.483,-34.7086"/>
</g>
<!-- Node14 -->
<g id="node14" class="node"><title>Node14</title>
<polygon fill="white" stroke="#bfbfbf" points="380,-6 380,-25 493,-25 493,-6 380,-6"/>
<text text-anchor="middle" x="436.5" y="-13" font-family="Helvetica,sans-Serif" font-size="10.00">pcl/PCLPointCloud2.h</text>
</g>
<!-- Node10&#45;&gt;Node14 -->
<g id="edge14" class="edge"><title>Node10&#45;&gt;Node14</title>
<path fill="none" stroke="midnightblue" d="M295.145,-72.8685C323.477,-61.5706 373.316,-41.6961 405.609,-28.8183"/>
<polygon fill="midnightblue" stroke="midnightblue" points="407.033,-32.0189 415.025,-25.0637 404.44,-25.5168 407.033,-32.0189"/>
</g>
<!-- Node15 -->
<g id="node15" class="node"><title>Node15</title>
<polygon fill="white" stroke="#bfbfbf" points="511.5,-0.5 511.5,-30.5 613.5,-30.5 613.5,-0.5 511.5,-0.5"/>
<text text-anchor="start" x="519.5" y="-18.5" font-family="Helvetica,sans-Serif" font-size="10.00">pcl/visualization/pcl</text>
<text text-anchor="middle" x="562.5" y="-7.5" font-family="Helvetica,sans-Serif" font-size="10.00">_visualizer.h</text>
</g>
<!-- Node10&#45;&gt;Node15 -->
<g id="edge16" class="edge"><title>Node10&#45;&gt;Node15</title>
<path fill="none" stroke="midnightblue" d="M313.27,-72.9832C356.935,-63.576 429.378,-47.8047 501.31,-31.2505"/>
<polygon fill="midnightblue" stroke="midnightblue" points="502.496,-34.5688 511.453,-28.91 500.922,-27.748 502.496,-34.5688"/>
</g>
</g>
</svg>
