<?xml version="1.0" encoding="UTF-8" standalone="no"?>
<!DOCTYPE svg PUBLIC "-//W3C//DTD SVG 1.1//EN"
 "http://www.w3.org/Graphics/SVG/1.1/DTD/svg11.dtd">
<!-- Generated by graphviz version 2.38.0 (20140413.2041)
 -->
<!-- Title: /home/jc/hull_abstraction/ros/src/hull_abstraction/src/hull_abstraction/reconstructor.cpp Pages: 1 -->
<!--zoomable 307 -->
<svg id="main" version="1.1" xmlns="http://www.w3.org/2000/svg" xmlns:xlink="http://www.w3.org/1999/xlink" xml:space="preserve" onload="init(evt)">
<style type="text/css"><![CDATA[
.edge:hover path { stroke: red; }
.edge:hover polygon { stroke: red; fill: red; }
]]></style>
<script type="text/javascript"><![CDATA[
var edges = document.getElementsByTagName('g');
if (edges && edges.length) {
  for (var i=0;i<edges.length;i++) {
    if (edges[i].id.substr(0,4)=='edge') {
      edges[i].setAttribute('class','edge');
    }
  }
}
]]></script>
        <defs>
                <circle id="rim" cx="0" cy="0" r="7"/>
                <circle id="rim2" cx="0" cy="0" r="3.5"/>
                <g id="zoomPlus">
                        <use xlink:href="#rim" fill="#404040">
                                <set attributeName="fill" to="#808080" begin="zoomplus.mouseover" end="zoomplus.mouseout"/>
                        </use>
                        <path d="M-4,0h8M0,-4v8" fill="none" stroke="white" stroke-width="1.5" pointer-events="none"/>
                </g>
                <g id="zoomMin">
                        <use xlink:href="#rim" fill="#404040">
                                <set attributeName="fill" to="#808080" begin="zoomminus.mouseover" end="zoomminus.mouseout"/>
                        </use>
                        <path d="M-4,0h8" fill="none" stroke="white" stroke-width="1.5" pointer-events="none"/>
                </g>
                <g id="dirArrow">
                        <path fill="none" stroke="white" stroke-width="1.5" d="M0,-3.0v7 M-2.5,-0.5L0,-3.0L2.5,-0.5"/>
                </g>
               <g id="resetDef">
                       <use xlink:href="#rim2" fill="#404040">
                               <set attributeName="fill" to="#808080" begin="reset.mouseover" end="reset.mouseout"/>
                       </use>
               </g>
        </defs>

<script type="text/javascript">
var viewWidth = 2213;
var viewHeight = 307;
var sectionId = 'dynsection-0';
</script>
<script xlink:href="svgpan.js"/>
<svg id="graph" class="graph">
<g id="viewport">
<title>/home/jc/hull_abstraction/ros/src/hull_abstraction/src/hull_abstraction/reconstructor.cpp</title>
<polygon fill="white" stroke="none" points="-4,4 -4,-303 2209,-303 2209,4 -4,4"/>
<!-- Node1 -->
<g id="node1" class="node"><title>Node1</title>
<polygon fill="#bfbfbf" stroke="black" points="1534,-257.5 1534,-298.5 1717,-298.5 1717,-257.5 1534,-257.5"/>
<text text-anchor="start" x="1542" y="-286.5" font-family="Helvetica,sans-Serif" font-size="10.00">/home/jc/hull_abstraction</text>
<text text-anchor="start" x="1542" y="-275.5" font-family="Helvetica,sans-Serif" font-size="10.00">/ros/src/hull_abstraction</text>
<text text-anchor="middle" x="1625.5" y="-264.5" font-family="Helvetica,sans-Serif" font-size="10.00">/src/hull_abstraction/reconstructor.cpp</text>
</g>
<!-- Node2 -->
<g id="node2" class="node"><title>Node2</title>
<g id="a_node2"><a xlink:href="reconstructor_8h.html" target="_top" xlink:title="This file contains the declaration for the Reconstructor class. ">
<polygon fill="white" stroke="black" points="1549,-201.5 1549,-220.5 1702,-220.5 1702,-201.5 1549,-201.5"/>
<text text-anchor="middle" x="1625.5" y="-208.5" font-family="Helvetica,sans-Serif" font-size="10.00">hull_abstraction/reconstructor.h</text>
</a>
</g>
</g>
<!-- Node1&#45;&gt;Node2 -->
<g id="edge1" class="edge"><title>Node1&#45;&gt;Node2</title>
<path fill="none" stroke="midnightblue" d="M1625.5,-257.498C1625.5,-249.065 1625.5,-239.235 1625.5,-230.874"/>
<polygon fill="midnightblue" stroke="midnightblue" points="1629,-230.652 1625.5,-220.652 1622,-230.653 1629,-230.652"/>
</g>
<!-- Node3 -->
<g id="node3" class="node"><title>Node3</title>
<g id="a_node3"><a xlink:href="preprocessor_8h.html" target="_top" xlink:title="This file contains the declaration for the Preprocessor class. ">
<polygon fill="white" stroke="black" points="947.5,-140 947.5,-159 1099.5,-159 1099.5,-140 947.5,-140"/>
<text text-anchor="middle" x="1023.5" y="-147" font-family="Helvetica,sans-Serif" font-size="10.00">hull_abstraction/preprocessor.h</text>
</a>
</g>
</g>
<!-- Node2&#45;&gt;Node3 -->
<g id="edge2" class="edge"><title>Node2&#45;&gt;Node3</title>
<path fill="none" stroke="midnightblue" d="M1548.95,-202.434C1436.48,-191.318 1227.22,-170.635 1109.56,-159.006"/>
<polygon fill="midnightblue" stroke="midnightblue" points="1109.81,-155.513 1099.51,-158.013 1109.12,-162.479 1109.81,-155.513"/>
</g>
<!-- Node10 -->
<g id="node10" class="node"><title>Node10</title>
<polygon fill="white" stroke="#bfbfbf" points="1349,-6 1349,-25 1440,-25 1440,-6 1349,-6"/>
<text text-anchor="middle" x="1394.5" y="-13" font-family="Helvetica,sans-Serif" font-size="10.00">pcl/point_types.h</text>
</g>
<!-- Node2&#45;&gt;Node10 -->
<g id="edge21" class="edge"><title>Node2&#45;&gt;Node10</title>
<path fill="none" stroke="midnightblue" d="M1548.78,-205.686C1515.44,-200.2 1478.04,-188.686 1451.5,-165 1412.78,-130.444 1400.19,-66.6003 1396.24,-35.0884"/>
<polygon fill="midnightblue" stroke="midnightblue" points="1399.7,-34.6146 1395.13,-25.0557 1392.75,-35.3777 1399.7,-34.6146"/>
</g>
<!-- Node11 -->
<g id="node11" class="node"><title>Node11</title>
<polygon fill="white" stroke="#bfbfbf" points="0,-6 0,-25 113,-25 113,-6 0,-6"/>
<text text-anchor="middle" x="56.5" y="-13" font-family="Helvetica,sans-Serif" font-size="10.00">pcl/PCLPointCloud2.h</text>
</g>
<!-- Node2&#45;&gt;Node11 -->
<g id="edge22" class="edge"><title>Node2&#45;&gt;Node11</title>
<path fill="none" stroke="midnightblue" d="M1548.64,-207.947C1353,-201.666 820.79,-177.975 385.5,-98 279.416,-78.5095 156.581,-45.148 95.3663,-27.7706"/>
<polygon fill="midnightblue" stroke="midnightblue" points="96.3058,-24.3991 85.7293,-25.0222 94.3859,-31.1307 96.3058,-24.3991"/>
</g>
<!-- Node21 -->
<g id="node21" class="node"><title>Node21</title>
<polygon fill="white" stroke="#bfbfbf" points="1460.5,-140 1460.5,-159 1552.5,-159 1552.5,-140 1460.5,-140"/>
<text text-anchor="middle" x="1506.5" y="-147" font-family="Helvetica,sans-Serif" font-size="10.00">pcl/surface/gp3.h</text>
</g>
<!-- Node2&#45;&gt;Node21 -->
<g id="edge23" class="edge"><title>Node2&#45;&gt;Node21</title>
<path fill="none" stroke="midnightblue" d="M1608.45,-201.475C1588.66,-191.578 1555.78,-175.142 1532.73,-163.615"/>
<polygon fill="midnightblue" stroke="midnightblue" points="1534.03,-160.351 1523.52,-159.009 1530.9,-166.612 1534.03,-160.351"/>
</g>
<!-- Node22 -->
<g id="node22" class="node"><title>Node22</title>
<polygon fill="white" stroke="#bfbfbf" points="1570.5,-140 1570.5,-159 1680.5,-159 1680.5,-140 1570.5,-140"/>
<text text-anchor="middle" x="1625.5" y="-147" font-family="Helvetica,sans-Serif" font-size="10.00">pcl/surface/poisson.h</text>
</g>
<!-- Node2&#45;&gt;Node22 -->
<g id="edge24" class="edge"><title>Node2&#45;&gt;Node22</title>
<path fill="none" stroke="midnightblue" d="M1625.5,-201.475C1625.5,-193.08 1625.5,-179.981 1625.5,-169.163"/>
<polygon fill="midnightblue" stroke="midnightblue" points="1629,-169.009 1625.5,-159.009 1622,-169.009 1629,-169.009"/>
</g>
<!-- Node23 -->
<g id="node23" class="node"><title>Node23</title>
<polygon fill="white" stroke="#bfbfbf" points="1699,-134.5 1699,-164.5 1806,-164.5 1806,-134.5 1699,-134.5"/>
<text text-anchor="start" x="1707" y="-152.5" font-family="Helvetica,sans-Serif" font-size="10.00">pcl/surface/marching</text>
<text text-anchor="middle" x="1752.5" y="-141.5" font-family="Helvetica,sans-Serif" font-size="10.00">_cubes_hoppe.h</text>
</g>
<!-- Node2&#45;&gt;Node23 -->
<g id="edge25" class="edge"><title>Node2&#45;&gt;Node23</title>
<path fill="none" stroke="midnightblue" d="M1643.7,-201.475C1661.78,-193.002 1690.09,-179.737 1713.31,-168.863"/>
<polygon fill="midnightblue" stroke="midnightblue" points="1715,-171.935 1722.57,-164.523 1712.03,-165.596 1715,-171.935"/>
</g>
<!-- Node24 -->
<g id="node24" class="node"><title>Node24</title>
<polygon fill="white" stroke="#bfbfbf" points="1824,-134.5 1824,-164.5 1935,-164.5 1935,-134.5 1824,-134.5"/>
<text text-anchor="start" x="1832" y="-152.5" font-family="Helvetica,sans-Serif" font-size="10.00">pcl/surface/on_nurbs</text>
<text text-anchor="middle" x="1879.5" y="-141.5" font-family="Helvetica,sans-Serif" font-size="10.00">/fitting_surface_tdm.h</text>
</g>
<!-- Node2&#45;&gt;Node24 -->
<g id="edge26" class="edge"><title>Node2&#45;&gt;Node24</title>
<path fill="none" stroke="midnightblue" d="M1661.89,-201.475C1701.55,-192.186 1765.79,-177.136 1814.22,-165.792"/>
<polygon fill="midnightblue" stroke="midnightblue" points="1815.05,-169.192 1823.99,-163.503 1813.46,-162.376 1815.05,-169.192"/>
</g>
<!-- Node25 -->
<g id="node25" class="node"><title>Node25</title>
<polygon fill="white" stroke="#bfbfbf" points="1953.5,-134.5 1953.5,-164.5 2079.5,-164.5 2079.5,-134.5 1953.5,-134.5"/>
<text text-anchor="start" x="1961.5" y="-152.5" font-family="Helvetica,sans-Serif" font-size="10.00">pcl/surface/on_nurbs</text>
<text text-anchor="middle" x="2016.5" y="-141.5" font-family="Helvetica,sans-Serif" font-size="10.00">/fitting_curve_2d_asdm.h</text>
</g>
<!-- Node2&#45;&gt;Node25 -->
<g id="edge27" class="edge"><title>Node2&#45;&gt;Node25</title>
<path fill="none" stroke="midnightblue" d="M1694.44,-201.46C1756.9,-193.453 1851.69,-180.63 1943.32,-165.144"/>
<polygon fill="midnightblue" stroke="midnightblue" points="1944.05,-168.57 1953.32,-163.441 1942.88,-161.669 1944.05,-168.57"/>
</g>
<!-- Node26 -->
<g id="node26" class="node"><title>Node26</title>
<polygon fill="white" stroke="#bfbfbf" points="2098,-134.5 2098,-164.5 2205,-164.5 2205,-134.5 2098,-134.5"/>
<text text-anchor="start" x="2106" y="-152.5" font-family="Helvetica,sans-Serif" font-size="10.00">pcl/surface/on_nurbs</text>
<text text-anchor="middle" x="2151.5" y="-141.5" font-family="Helvetica,sans-Serif" font-size="10.00">/triangulation.h</text>
</g>
<!-- Node2&#45;&gt;Node26 -->
<g id="edge28" class="edge"><title>Node2&#45;&gt;Node26</title>
<path fill="none" stroke="midnightblue" d="M1702.08,-205.601C1792.06,-199.748 1945.97,-187.605 2087.79,-164.963"/>
<polygon fill="midnightblue" stroke="midnightblue" points="2088.66,-168.367 2097.98,-163.315 2087.55,-161.457 2088.66,-168.367"/>
</g>
<!-- Node4 -->
<g id="node4" class="node"><title>Node4</title>
<g id="a_node4"><a xlink:href="pcl__utilization_8h.html" target="_top" xlink:title="This file contains the declaration of PCL utilization methods. ">
<polygon fill="white" stroke="black" points="394.5,-67.5 394.5,-97.5 486.5,-97.5 486.5,-67.5 394.5,-67.5"/>
<text text-anchor="start" x="402.5" y="-85.5" font-family="Helvetica,sans-Serif" font-size="10.00">pcl_utilization/pcl</text>
<text text-anchor="middle" x="440.5" y="-74.5" font-family="Helvetica,sans-Serif" font-size="10.00">_utilization.h</text>
</a>
</g>
</g>
<!-- Node3&#45;&gt;Node4 -->
<g id="edge3" class="edge"><title>Node3&#45;&gt;Node4</title>
<path fill="none" stroke="midnightblue" d="M947.343,-145.104C846.256,-139.731 662.19,-126.939 496.473,-97.9825"/>
<polygon fill="midnightblue" stroke="midnightblue" points="497.049,-94.5302 486.592,-96.2327 495.829,-101.423 497.049,-94.5302"/>
</g>
<!-- Node3&#45;&gt;Node10 -->
<g id="edge13" class="edge"><title>Node3&#45;&gt;Node10</title>
<path fill="none" stroke="midnightblue" d="M1099.68,-147.347C1190.92,-144.345 1336.37,-133.884 1375.5,-98 1392.7,-82.2246 1395.8,-54.1517 1395.72,-35.4292"/>
<polygon fill="midnightblue" stroke="midnightblue" points="1399.2,-35.0433 1395.35,-25.1736 1392.21,-35.2913 1399.2,-35.0433"/>
</g>
<!-- Node14 -->
<g id="node14" class="node"><title>Node14</title>
<polygon fill="white" stroke="#bfbfbf" points="504.5,-73 504.5,-92 628.5,-92 628.5,-73 504.5,-73"/>
<text text-anchor="middle" x="566.5" y="-80" font-family="Helvetica,sans-Serif" font-size="10.00">pcl/features/normal_3d.h</text>
</g>
<!-- Node3&#45;&gt;Node14 -->
<g id="edge14" class="edge"><title>Node3&#45;&gt;Node14</title>
<path fill="none" stroke="midnightblue" d="M947.457,-140.175C869.435,-131.253 744.653,-115.928 637.5,-98 630.419,-96.8154 622.968,-95.4384 615.662,-94.0138"/>
<polygon fill="midnightblue" stroke="midnightblue" points="616.331,-90.5782 605.839,-92.055 614.962,-97.4431 616.331,-90.5782"/>
</g>
<!-- Node15 -->
<g id="node15" class="node"><title>Node15</title>
<polygon fill="white" stroke="#bfbfbf" points="647,-67.5 647,-97.5 760,-97.5 760,-67.5 647,-67.5"/>
<text text-anchor="start" x="655" y="-85.5" font-family="Helvetica,sans-Serif" font-size="10.00">pcl/filters/approximate</text>
<text text-anchor="middle" x="703.5" y="-74.5" font-family="Helvetica,sans-Serif" font-size="10.00">_voxel_grid.h</text>
</g>
<!-- Node3&#45;&gt;Node15 -->
<g id="edge15" class="edge"><title>Node3&#45;&gt;Node15</title>
<path fill="none" stroke="midnightblue" d="M978.752,-139.975C929.872,-130.587 849.006,-114.839 770.289,-98.3521"/>
<polygon fill="midnightblue" stroke="midnightblue" points="770.709,-94.8641 760.203,-96.2331 769.27,-101.714 770.709,-94.8641"/>
</g>
<!-- Node16 -->
<g id="node16" class="node"><title>Node16</title>
<polygon fill="white" stroke="#bfbfbf" points="778,-67.5 778,-97.5 879,-97.5 879,-67.5 778,-67.5"/>
<text text-anchor="start" x="786" y="-85.5" font-family="Helvetica,sans-Serif" font-size="10.00">pcl/filters/statistical</text>
<text text-anchor="middle" x="828.5" y="-74.5" font-family="Helvetica,sans-Serif" font-size="10.00">_outlier_removal.h</text>
</g>
<!-- Node3&#45;&gt;Node16 -->
<g id="edge16" class="edge"><title>Node3&#45;&gt;Node16</title>
<path fill="none" stroke="midnightblue" d="M997.606,-139.869C967.838,-129.946 918.225,-113.408 880.415,-100.805"/>
<polygon fill="midnightblue" stroke="midnightblue" points="881.178,-97.37 870.584,-97.5281 878.964,-104.011 881.178,-97.37"/>
</g>
<!-- Node17 -->
<g id="node17" class="node"><title>Node17</title>
<polygon fill="white" stroke="#bfbfbf" points="897,-73 897,-92 1018,-92 1018,-73 897,-73"/>
<text text-anchor="middle" x="957.5" y="-80" font-family="Helvetica,sans-Serif" font-size="10.00">pcl/filters/passthrough.h</text>
</g>
<!-- Node3&#45;&gt;Node17 -->
<g id="edge17" class="edge"><title>Node3&#45;&gt;Node17</title>
<path fill="none" stroke="midnightblue" d="M1014.6,-139.734C1004.11,-129.403 986.476,-112.037 973.575,-99.3315"/>
<polygon fill="midnightblue" stroke="midnightblue" points="975.841,-96.6505 966.26,-92.1273 970.929,-101.638 975.841,-96.6505"/>
</g>
<!-- Node18 -->
<g id="node18" class="node"><title>Node18</title>
<polygon fill="white" stroke="#bfbfbf" points="1036.5,-67.5 1036.5,-97.5 1142.5,-97.5 1142.5,-67.5 1036.5,-67.5"/>
<text text-anchor="start" x="1044.5" y="-85.5" font-family="Helvetica,sans-Serif" font-size="10.00">pcl/filters/conditional</text>
<text text-anchor="middle" x="1089.5" y="-74.5" font-family="Helvetica,sans-Serif" font-size="10.00">_removal.h</text>
</g>
<!-- Node3&#45;&gt;Node18 -->
<g id="edge18" class="edge"><title>Node3&#45;&gt;Node18</title>
<path fill="none" stroke="midnightblue" d="M1032.4,-139.734C1041.49,-130.78 1055.95,-116.543 1068.04,-104.635"/>
<polygon fill="midnightblue" stroke="midnightblue" points="1070.53,-107.1 1075.19,-97.589 1065.61,-102.112 1070.53,-107.1"/>
</g>
<!-- Node19 -->
<g id="node19" class="node"><title>Node19</title>
<polygon fill="white" stroke="#bfbfbf" points="1160.5,-67.5 1160.5,-97.5 1256.5,-97.5 1256.5,-67.5 1160.5,-67.5"/>
<text text-anchor="start" x="1168.5" y="-85.5" font-family="Helvetica,sans-Serif" font-size="10.00">pcl/filters/radius</text>
<text text-anchor="middle" x="1208.5" y="-74.5" font-family="Helvetica,sans-Serif" font-size="10.00">_outlier_removal.h</text>
</g>
<!-- Node3&#45;&gt;Node19 -->
<g id="edge19" class="edge"><title>Node3&#45;&gt;Node19</title>
<path fill="none" stroke="midnightblue" d="M1048.07,-139.869C1076.19,-129.988 1122.98,-113.549 1158.79,-100.966"/>
<polygon fill="midnightblue" stroke="midnightblue" points="1160.3,-104.145 1168.57,-97.5281 1157.98,-97.5409 1160.3,-104.145"/>
</g>
<!-- Node20 -->
<g id="node20" class="node"><title>Node20</title>
<polygon fill="white" stroke="#bfbfbf" points="1274.5,-73 1274.5,-92 1366.5,-92 1366.5,-73 1274.5,-73"/>
<text text-anchor="middle" x="1320.5" y="-80" font-family="Helvetica,sans-Serif" font-size="10.00">pcl/surface/mls.h</text>
</g>
<!-- Node3&#45;&gt;Node20 -->
<g id="edge20" class="edge"><title>Node3&#45;&gt;Node20</title>
<path fill="none" stroke="midnightblue" d="M1067.81,-139.972C1116.46,-130.444 1196.79,-114.216 1265.5,-98 1269.95,-96.951 1274.58,-95.8078 1279.19,-94.6386"/>
<polygon fill="midnightblue" stroke="midnightblue" points="1280.35,-97.9533 1289.16,-92.0641 1278.6,-91.1756 1280.35,-97.9533"/>
</g>
<!-- Node5 -->
<g id="node5" class="node"><title>Node5</title>
<polygon fill="white" stroke="#bfbfbf" points="865,-6 865,-25 920,-25 920,-6 865,-6"/>
<text text-anchor="middle" x="892.5" y="-13" font-family="Helvetica,sans-Serif" font-size="10.00">ros/ros.h</text>
</g>
<!-- Node4&#45;&gt;Node5 -->
<g id="edge4" class="edge"><title>Node4&#45;&gt;Node5</title>
<path fill="none" stroke="midnightblue" d="M486.595,-68.782C489.597,-68.129 492.585,-67.5266 495.5,-67 653.737,-38.4149 699.181,-68.6882 855.5,-31 858.33,-30.3178 861.231,-29.4667 864.105,-28.5208"/>
<polygon fill="midnightblue" stroke="midnightblue" points="865.425,-31.7649 873.618,-25.0479 863.024,-25.1894 865.425,-31.7649"/>
</g>
<!-- Node6 -->
<g id="node6" class="node"><title>Node6</title>
<polygon fill="white" stroke="#bfbfbf" points="131.5,-6 131.5,-25 271.5,-25 271.5,-6 131.5,-6"/>
<text text-anchor="middle" x="201.5" y="-13" font-family="Helvetica,sans-Serif" font-size="10.00">sensor_msgs/PointCloud2.h</text>
</g>
<!-- Node4&#45;&gt;Node6 -->
<g id="edge5" class="edge"><title>Node4&#45;&gt;Node6</title>
<path fill="none" stroke="midnightblue" d="M394.418,-68.9673C350.466,-57.0138 284.879,-39.1764 242.644,-27.6899"/>
<polygon fill="midnightblue" stroke="midnightblue" points="243.528,-24.3032 232.96,-25.0561 241.691,-31.0578 243.528,-24.3032"/>
</g>
<!-- Node7 -->
<g id="node7" class="node"><title>Node7</title>
<polygon fill="white" stroke="#bfbfbf" points="289.5,-0.5 289.5,-30.5 389.5,-30.5 389.5,-0.5 289.5,-0.5"/>
<text text-anchor="start" x="297.5" y="-18.5" font-family="Helvetica,sans-Serif" font-size="10.00">visualization_msgs</text>
<text text-anchor="middle" x="339.5" y="-7.5" font-family="Helvetica,sans-Serif" font-size="10.00">/Marker.h</text>
</g>
<!-- Node4&#45;&gt;Node7 -->
<g id="edge6" class="edge"><title>Node4&#45;&gt;Node7</title>
<path fill="none" stroke="midnightblue" d="M418.585,-67.396C404.423,-58.282 385.789,-46.2902 370.167,-36.236"/>
<polygon fill="midnightblue" stroke="midnightblue" points="371.676,-33.0452 361.373,-30.5765 367.888,-38.9315 371.676,-33.0452"/>
</g>
<!-- Node8 -->
<g id="node8" class="node"><title>Node8</title>
<polygon fill="white" stroke="#bfbfbf" points="408,-6 408,-25 473,-25 473,-6 408,-6"/>
<text text-anchor="middle" x="440.5" y="-13" font-family="Helvetica,sans-Serif" font-size="10.00">Eigen/Core</text>
</g>
<!-- Node4&#45;&gt;Node8 -->
<g id="edge7" class="edge"><title>Node4&#45;&gt;Node8</title>
<path fill="none" stroke="midnightblue" d="M440.5,-67.396C440.5,-58.0638 440.5,-45.7143 440.5,-35.5173"/>
<polygon fill="midnightblue" stroke="midnightblue" points="444,-35.1945 440.5,-25.1945 437,-35.1946 444,-35.1945"/>
</g>
<!-- Node9 -->
<g id="node9" class="node"><title>Node9</title>
<polygon fill="white" stroke="#bfbfbf" points="491,-0.5 491,-30.5 594,-30.5 594,-0.5 491,-0.5"/>
<text text-anchor="start" x="499" y="-18.5" font-family="Helvetica,sans-Serif" font-size="10.00">pcl_conversions/pcl</text>
<text text-anchor="middle" x="542.5" y="-7.5" font-family="Helvetica,sans-Serif" font-size="10.00">_conversions.h</text>
</g>
<!-- Node4&#45;&gt;Node9 -->
<g id="edge8" class="edge"><title>Node4&#45;&gt;Node9</title>
<path fill="none" stroke="midnightblue" d="M462.632,-67.396C477.068,-58.1968 496.104,-46.0658 511.971,-35.9546"/>
<polygon fill="midnightblue" stroke="midnightblue" points="513.858,-38.9023 520.411,-30.5765 510.097,-32.999 513.858,-38.9023"/>
</g>
<!-- Node4&#45;&gt;Node10 -->
<g id="edge9" class="edge"><title>Node4&#45;&gt;Node10</title>
<path fill="none" stroke="midnightblue" d="M486.57,-68.6333C489.578,-68.0167 492.574,-67.463 495.5,-67 659.212,-41.0936 1168.57,-23.4548 1338.61,-18.1629"/>
<polygon fill="midnightblue" stroke="midnightblue" points="1338.95,-21.6541 1348.83,-17.8468 1338.73,-14.6575 1338.95,-21.6541"/>
</g>
<!-- Node4&#45;&gt;Node11 -->
<g id="edge10" class="edge"><title>Node4&#45;&gt;Node11</title>
<path fill="none" stroke="midnightblue" d="M394.273,-75.0289C332.253,-66.1484 218.759,-49.2009 122.5,-31 116.297,-29.8271 109.785,-28.5066 103.369,-27.1524"/>
<polygon fill="midnightblue" stroke="midnightblue" points="103.935,-23.6942 93.4229,-25.0129 102.463,-30.5377 103.935,-23.6942"/>
</g>
<!-- Node12 -->
<g id="node12" class="node"><title>Node12</title>
<polygon fill="white" stroke="#bfbfbf" points="612.5,-6 612.5,-25 728.5,-25 728.5,-6 612.5,-6"/>
<text text-anchor="middle" x="670.5" y="-13" font-family="Helvetica,sans-Serif" font-size="10.00">pcl/common/centroid.h</text>
</g>
<!-- Node4&#45;&gt;Node12 -->
<g id="edge11" class="edge"><title>Node4&#45;&gt;Node12</title>
<path fill="none" stroke="midnightblue" d="M486.767,-68.4245C528.972,-56.497 590.686,-39.0562 630.724,-27.7409"/>
<polygon fill="midnightblue" stroke="midnightblue" points="631.74,-31.0909 640.412,-25.0032 629.837,-24.3548 631.74,-31.0909"/>
</g>
<!-- Node13 -->
<g id="node13" class="node"><title>Node13</title>
<polygon fill="white" stroke="#bfbfbf" points="746.5,-6 746.5,-25 846.5,-25 846.5,-6 746.5,-6"/>
<text text-anchor="middle" x="796.5" y="-13" font-family="Helvetica,sans-Serif" font-size="10.00">pcl/search/kdtree.h</text>
</g>
<!-- Node4&#45;&gt;Node13 -->
<g id="edge12" class="edge"><title>Node4&#45;&gt;Node13</title>
<path fill="none" stroke="midnightblue" d="M486.626,-68.9453C489.621,-68.2522 492.598,-67.5965 495.5,-67 602.012,-45.1066 630.808,-51.9987 737.5,-31 742.933,-29.9306 748.62,-28.69 754.226,-27.3934"/>
<polygon fill="midnightblue" stroke="midnightblue" points="755.246,-30.7485 764.161,-25.0239 753.622,-23.9395 755.246,-30.7485"/>
</g>
</g>
</svg>
        <g id="navigator" transform="translate(0 0)" fill="#404254">
                <rect fill="#f2f5e9" fill-opacity="0.5" stroke="#606060" stroke-width=".5" x="0" y="0" width="60" height="60"/>
                <use id="zoomplus" xlink:href="#zoomPlus" x="17" y="9" onmousedown="handleZoom(evt,'in')"/>
                <use id="zoomminus" xlink:href="#zoomMin" x="42" y="9" onmousedown="handleZoom(evt,'out')"/>
                <use id="reset" xlink:href="#resetDef" x="30" y="36" onmousedown="handleReset()"/>
                <g id="arrowUp" xlink:href="#dirArrow" transform="translate(30 24)" onmousedown="handlePan(0,-1)">
                  <use xlink:href="#rim" fill="#404040">
                        <set attributeName="fill" to="#808080" begin="arrowUp.mouseover" end="arrowUp.mouseout"/>
                  </use>
                  <path fill="none" stroke="white" stroke-width="1.5" d="M0,-3.0v7 M-2.5,-0.5L0,-3.0L2.5,-0.5"/>
                </g>
                <g id="arrowRight" xlink:href="#dirArrow" transform="rotate(90) translate(36 -43)" onmousedown="handlePan(1,0)">
                  <use xlink:href="#rim" fill="#404040">
                        <set attributeName="fill" to="#808080" begin="arrowRight.mouseover" end="arrowRight.mouseout"/>
                  </use>
                  <path fill="none" stroke="white" stroke-width="1.5" d="M0,-3.0v7 M-2.5,-0.5L0,-3.0L2.5,-0.5"/>
                </g>
                <g id="arrowDown" xlink:href="#dirArrow" transform="rotate(180) translate(-30 -48)" onmousedown="handlePan(0,1)">
                  <use xlink:href="#rim" fill="#404040">
                        <set attributeName="fill" to="#808080" begin="arrowDown.mouseover" end="arrowDown.mouseout"/>
                  </use>
                  <path fill="none" stroke="white" stroke-width="1.5" d="M0,-3.0v7 M-2.5,-0.5L0,-3.0L2.5,-0.5"/>
                </g>
                <g id="arrowLeft" xlink:href="#dirArrow" transform="rotate(270) translate(-36 17)" onmousedown="handlePan(-1,0)">
                  <use xlink:href="#rim" fill="#404040">
                        <set attributeName="fill" to="#808080" begin="arrowLeft.mouseover" end="arrowLeft.mouseout"/>
                  </use>
                  <path fill="none" stroke="white" stroke-width="1.5" d="M0,-3.0v7 M-2.5,-0.5L0,-3.0L2.5,-0.5"/>
                </g>
        </g>
        <svg viewBox="0 0 15 15" width="100%" height="30px" preserveAspectRatio="xMaxYMin meet">
         <g id="arrow_out" transform="scale(0.3 0.3)">
          <a xlink:href="reconstructor_8cpp__incl_org.svg" target="_base">
           <rect id="button" ry="5" rx="5" y="6" x="6" height="38" width="38"
                fill="#f2f5e9" fill-opacity="0.5" stroke="#606060" stroke-width="1.0"/>
           <path id="arrow"
             d="M 11.500037,31.436501 C 11.940474,20.09759 22.043105,11.32322 32.158766,21.979434 L 37.068811,17.246167 C 37.068811,17.246167 37.088388,32 37.088388,32 L 22.160133,31.978069 C 22.160133,31.978069 26.997745,27.140456 26.997745,27.140456 C 18.528582,18.264221 13.291696,25.230495 11.500037,31.436501 z"
             style="fill:#404040;"/>
          </a>
         </g>
        </svg>
</svg>
