<?xml version="1.0" encoding="UTF-8" standalone="no"?>
<!DOCTYPE svg PUBLIC "-//W3C//DTD SVG 1.1//EN"
 "http://www.w3.org/Graphics/SVG/1.1/DTD/svg11.dtd">
<!-- Generated by graphviz version 2.38.0 (20140413.2041)
 -->
<!-- Title: /home/jc/THESIS/hull_abstraction/ros/src/hull_abstraction/include/hull_abstraction/reconstructor.h Pages: 1 -->
<svg width="1459pt" height="261pt"
 viewBox="0.00 0.00 1458.50 261.00" xmlns="http://www.w3.org/2000/svg" xmlns:xlink="http://www.w3.org/1999/xlink">
<g id="graph0" class="graph" transform="scale(1 1) rotate(0) translate(4 257)">
<title>/home/jc/THESIS/hull_abstraction/ros/src/hull_abstraction/include/hull_abstraction/reconstructor.h</title>
<polygon fill="white" stroke="none" points="-4,4 -4,-257 1454.5,-257 1454.5,4 -4,4"/>
<!-- Node1 -->
<g id="node1" class="node"><title>Node1</title>
<polygon fill="#bfbfbf" stroke="black" points="499.5,-200.5 499.5,-252.5 655.5,-252.5 655.5,-200.5 499.5,-200.5"/>
<text text-anchor="start" x="507.5" y="-240.5" font-family="Helvetica,sans-Serif" font-size="10.00">/home/jc/THESIS/hull</text>
<text text-anchor="start" x="507.5" y="-229.5" font-family="Helvetica,sans-Serif" font-size="10.00">_abstraction/ros/src</text>
<text text-anchor="start" x="507.5" y="-218.5" font-family="Helvetica,sans-Serif" font-size="10.00">/hull_abstraction/include</text>
<text text-anchor="middle" x="577.5" y="-207.5" font-family="Helvetica,sans-Serif" font-size="10.00">/hull_abstraction/reconstructor.h</text>
</g>
<!-- Node2 -->
<g id="node2" class="node"><title>Node2</title>
<g id="a_node2"><a xlink:href="benchmark_2src_2hull__abstraction_2reconstructor_8cpp.html" target="_top" xlink:title="/home/jc/THESIS/hull\l_abstraction/benchmark\l/src/hull_abstraction/reconstructor.cpp">
<polygon fill="white" stroke="black" points="0,-111.5 0,-152.5 183,-152.5 183,-111.5 0,-111.5"/>
<text text-anchor="start" x="8" y="-140.5" font-family="Helvetica,sans-Serif" font-size="10.00">/home/jc/THESIS/hull</text>
<text text-anchor="start" x="8" y="-129.5" font-family="Helvetica,sans-Serif" font-size="10.00">_abstraction/benchmark</text>
<text text-anchor="middle" x="91.5" y="-118.5" font-family="Helvetica,sans-Serif" font-size="10.00">/src/hull_abstraction/reconstructor.cpp</text>
</a>
</g>
</g>
<!-- Node1&#45;&gt;Node2 -->
<g id="edge1" class="edge"><title>Node1&#45;&gt;Node2</title>
<path fill="none" stroke="midnightblue" d="M489.126,-214.946C410.652,-204.732 293.147,-187.364 192.5,-164 178.653,-160.786 163.934,-156.676 150.139,-152.509"/>
<polygon fill="midnightblue" stroke="midnightblue" points="489.089,-218.471 499.455,-216.279 489.985,-211.528 489.089,-218.471"/>
</g>
<!-- Node3 -->
<g id="node3" class="node"><title>Node3</title>
<g id="a_node3"><a xlink:href="main_8cpp.html" target="_top" xlink:title="/home/jc/THESIS/hull\l_abstraction/benchmark\l/src/main.cpp">
<polygon fill="white" stroke="black" points="201,-111.5 201,-152.5 322,-152.5 322,-111.5 201,-111.5"/>
<text text-anchor="start" x="209" y="-140.5" font-family="Helvetica,sans-Serif" font-size="10.00">/home/jc/THESIS/hull</text>
<text text-anchor="start" x="209" y="-129.5" font-family="Helvetica,sans-Serif" font-size="10.00">_abstraction/benchmark</text>
<text text-anchor="middle" x="261.5" y="-118.5" font-family="Helvetica,sans-Serif" font-size="10.00">/src/main.cpp</text>
</a>
</g>
</g>
<!-- Node1&#45;&gt;Node3 -->
<g id="edge2" class="edge"><title>Node1&#45;&gt;Node3</title>
<path fill="none" stroke="midnightblue" d="M489.57,-207.379C442.17,-196.649 383.002,-181.695 331.5,-164 321.947,-160.718 311.896,-156.652 302.486,-152.558"/>
<polygon fill="midnightblue" stroke="midnightblue" points="488.976,-210.832 499.499,-209.604 490.507,-204.002 488.976,-210.832"/>
</g>
<!-- Node4 -->
<g id="node4" class="node"><title>Node4</title>
<g id="a_node4"><a xlink:href="bspline__surface__fitting_8h.html" target="_top" xlink:title="Framework of b&#45;spline surface fitting node. ">
<polygon fill="white" stroke="black" points="340.5,-100.5 340.5,-163.5 492.5,-163.5 492.5,-100.5 340.5,-100.5"/>
<text text-anchor="start" x="348.5" y="-151.5" font-family="Helvetica,sans-Serif" font-size="10.00">/home/jc/THESIS/hull</text>
<text text-anchor="start" x="348.5" y="-140.5" font-family="Helvetica,sans-Serif" font-size="10.00">_abstraction/ros/src</text>
<text text-anchor="start" x="348.5" y="-129.5" font-family="Helvetica,sans-Serif" font-size="10.00">/hull_abstraction/src</text>
<text text-anchor="start" x="348.5" y="-118.5" font-family="Helvetica,sans-Serif" font-size="10.00">/bspline_surface_fitting</text>
<text text-anchor="middle" x="416.5" y="-107.5" font-family="Helvetica,sans-Serif" font-size="10.00">_node/bspline_surface_fitting.h</text>
</a>
</g>
</g>
<!-- Node1&#45;&gt;Node4 -->
<g id="edge3" class="edge"><title>Node1&#45;&gt;Node4</title>
<path fill="none" stroke="midnightblue" d="M524.911,-195.286C507.264,-185.147 487.575,-173.835 469.87,-163.663"/>
<polygon fill="midnightblue" stroke="midnightblue" points="523.517,-198.521 533.931,-200.468 527.004,-192.452 523.517,-198.521"/>
</g>
<!-- Node7 -->
<g id="node7" class="node"><title>Node7</title>
<g id="a_node7"><a xlink:href="greedy__triangulation_8h.html" target="_top" xlink:title="Framework of greedy triangulation node. ">
<polygon fill="white" stroke="black" points="511,-100.5 511,-163.5 644,-163.5 644,-100.5 511,-100.5"/>
<text text-anchor="start" x="519" y="-151.5" font-family="Helvetica,sans-Serif" font-size="10.00">/home/jc/THESIS/hull</text>
<text text-anchor="start" x="519" y="-140.5" font-family="Helvetica,sans-Serif" font-size="10.00">_abstraction/ros/src</text>
<text text-anchor="start" x="519" y="-129.5" font-family="Helvetica,sans-Serif" font-size="10.00">/hull_abstraction/src</text>
<text text-anchor="start" x="519" y="-118.5" font-family="Helvetica,sans-Serif" font-size="10.00">/greedy_triangulation_node</text>
<text text-anchor="middle" x="577.5" y="-107.5" font-family="Helvetica,sans-Serif" font-size="10.00">/greedy_triangulation.h</text>
</a>
</g>
</g>
<!-- Node1&#45;&gt;Node7 -->
<g id="edge6" class="edge"><title>Node1&#45;&gt;Node7</title>
<path fill="none" stroke="midnightblue" d="M577.5,-189.945C577.5,-181.226 577.5,-171.97 577.5,-163.512"/>
<polygon fill="midnightblue" stroke="midnightblue" points="574,-190.224 577.5,-200.224 581,-190.224 574,-190.224"/>
</g>
<!-- Node10 -->
<g id="node10" class="node"><title>Node10</title>
<g id="a_node10"><a xlink:href="ros_2src_2hull__abstraction_2src_2hull__abstraction_2reconstructor_8cpp.html" target="_top" xlink:title="/home/jc/THESIS/hull\l_abstraction/ros/src\l/hull_abstraction/src\l/hull_abstraction/reconstructor.cpp">
<polygon fill="white" stroke="black" points="662,-106 662,-158 829,-158 829,-106 662,-106"/>
<text text-anchor="start" x="670" y="-146" font-family="Helvetica,sans-Serif" font-size="10.00">/home/jc/THESIS/hull</text>
<text text-anchor="start" x="670" y="-135" font-family="Helvetica,sans-Serif" font-size="10.00">_abstraction/ros/src</text>
<text text-anchor="start" x="670" y="-124" font-family="Helvetica,sans-Serif" font-size="10.00">/hull_abstraction/src</text>
<text text-anchor="middle" x="745.5" y="-113" font-family="Helvetica,sans-Serif" font-size="10.00">/hull_abstraction/reconstructor.cpp</text>
</a>
</g>
</g>
<!-- Node1&#45;&gt;Node10 -->
<g id="edge9" class="edge"><title>Node1&#45;&gt;Node10</title>
<path fill="none" stroke="midnightblue" d="M631.863,-195.568C653.868,-183.452 678.985,-169.623 700,-158.052"/>
<polygon fill="midnightblue" stroke="midnightblue" points="630.035,-192.579 622.963,-200.468 633.411,-198.711 630.035,-192.579"/>
</g>
<!-- Node11 -->
<g id="node11" class="node"><title>Node11</title>
<g id="a_node11"><a xlink:href="marching__cubes_8h.html" target="_top" xlink:title="Framework of marching cubes node. ">
<polygon fill="white" stroke="black" points="847.5,-100.5 847.5,-163.5 1007.5,-163.5 1007.5,-100.5 847.5,-100.5"/>
<text text-anchor="start" x="855.5" y="-151.5" font-family="Helvetica,sans-Serif" font-size="10.00">/home/jc/THESIS/hull</text>
<text text-anchor="start" x="855.5" y="-140.5" font-family="Helvetica,sans-Serif" font-size="10.00">_abstraction/ros/src</text>
<text text-anchor="start" x="855.5" y="-129.5" font-family="Helvetica,sans-Serif" font-size="10.00">/hull_abstraction/src</text>
<text text-anchor="start" x="855.5" y="-118.5" font-family="Helvetica,sans-Serif" font-size="10.00">/marching_cubes_node/marching</text>
<text text-anchor="middle" x="927.5" y="-107.5" font-family="Helvetica,sans-Serif" font-size="10.00">_cubes.h</text>
</a>
</g>
</g>
<!-- Node1&#45;&gt;Node11 -->
<g id="edge10" class="edge"><title>Node1&#45;&gt;Node11</title>
<path fill="none" stroke="midnightblue" d="M665.688,-207.11C716.546,-195.911 781.51,-180.591 838.5,-164 841.328,-163.177 844.198,-162.316 847.09,-161.427"/>
<polygon fill="midnightblue" stroke="midnightblue" points="664.731,-203.737 655.711,-209.295 666.228,-210.575 664.731,-203.737"/>
</g>
<!-- Node14 -->
<g id="node14" class="node"><title>Node14</title>
<g id="a_node14"><a xlink:href="poisson__reconstruction_8h.html" target="_top" xlink:title="Framework of Poisson reconstruction node. ">
<polygon fill="white" stroke="black" points="1152,-100.5 1152,-163.5 1307,-163.5 1307,-100.5 1152,-100.5"/>
<text text-anchor="start" x="1160" y="-151.5" font-family="Helvetica,sans-Serif" font-size="10.00">/home/jc/THESIS/hull</text>
<text text-anchor="start" x="1160" y="-140.5" font-family="Helvetica,sans-Serif" font-size="10.00">_abstraction/ros/src</text>
<text text-anchor="start" x="1160" y="-129.5" font-family="Helvetica,sans-Serif" font-size="10.00">/hull_abstraction/src</text>
<text text-anchor="start" x="1160" y="-118.5" font-family="Helvetica,sans-Serif" font-size="10.00">/poisson_reconstruction</text>
<text text-anchor="middle" x="1229.5" y="-107.5" font-family="Helvetica,sans-Serif" font-size="10.00">_node/poisson_reconstruction.h</text>
</a>
</g>
</g>
<!-- Node1&#45;&gt;Node14 -->
<g id="edge13" class="edge"><title>Node1&#45;&gt;Node14</title>
<path fill="none" stroke="midnightblue" d="M665.644,-213.293C754.298,-200.982 894.907,-181.365 1016.5,-164 1061.26,-157.607 1111.29,-150.332 1151.62,-144.437"/>
<polygon fill="midnightblue" stroke="midnightblue" points="665.053,-209.841 655.629,-214.683 666.015,-216.775 665.053,-209.841"/>
</g>
<!-- Node5 -->
<g id="node5" class="node"><title>Node5</title>
<g id="a_node5"><a xlink:href="bspline__surface__fitting_8cpp.html" target="_top" xlink:title="/home/jc/THESIS/hull\l_abstraction/ros/src\l/hull_abstraction/src\l/bspline_surface_fitting\l_node/bspline_surface_fitting.cpp">
<polygon fill="white" stroke="black" points="177.5,-0.5 177.5,-63.5 339.5,-63.5 339.5,-0.5 177.5,-0.5"/>
<text text-anchor="start" x="185.5" y="-51.5" font-family="Helvetica,sans-Serif" font-size="10.00">/home/jc/THESIS/hull</text>
<text text-anchor="start" x="185.5" y="-40.5" font-family="Helvetica,sans-Serif" font-size="10.00">_abstraction/ros/src</text>
<text text-anchor="start" x="185.5" y="-29.5" font-family="Helvetica,sans-Serif" font-size="10.00">/hull_abstraction/src</text>
<text text-anchor="start" x="185.5" y="-18.5" font-family="Helvetica,sans-Serif" font-size="10.00">/bspline_surface_fitting</text>
<text text-anchor="middle" x="258.5" y="-7.5" font-family="Helvetica,sans-Serif" font-size="10.00">_node/bspline_surface_fitting.cpp</text>
</a>
</g>
</g>
<!-- Node4&#45;&gt;Node5 -->
<g id="edge4" class="edge"><title>Node4&#45;&gt;Node5</title>
<path fill="none" stroke="midnightblue" d="M358.404,-94.9656C341.814,-84.6757 323.899,-73.5639 307.883,-63.6299"/>
<polygon fill="midnightblue" stroke="midnightblue" points="356.598,-97.9644 366.941,-100.261 360.288,-92.0157 356.598,-97.9644"/>
</g>
<!-- Node6 -->
<g id="node6" class="node"><title>Node6</title>
<g id="a_node6"><a xlink:href="bspline__surface__fitting__node_8cpp.html" target="_top" xlink:title="/home/jc/THESIS/hull\l_abstraction/ros/src\l/hull_abstraction/src\l/bspline_surface_fitting\l_node.cpp">
<polygon fill="white" stroke="black" points="358,-0.5 358,-63.5 475,-63.5 475,-0.5 358,-0.5"/>
<text text-anchor="start" x="366" y="-51.5" font-family="Helvetica,sans-Serif" font-size="10.00">/home/jc/THESIS/hull</text>
<text text-anchor="start" x="366" y="-40.5" font-family="Helvetica,sans-Serif" font-size="10.00">_abstraction/ros/src</text>
<text text-anchor="start" x="366" y="-29.5" font-family="Helvetica,sans-Serif" font-size="10.00">/hull_abstraction/src</text>
<text text-anchor="start" x="366" y="-18.5" font-family="Helvetica,sans-Serif" font-size="10.00">/bspline_surface_fitting</text>
<text text-anchor="middle" x="416.5" y="-7.5" font-family="Helvetica,sans-Serif" font-size="10.00">_node.cpp</text>
</a>
</g>
</g>
<!-- Node4&#45;&gt;Node6 -->
<g id="edge5" class="edge"><title>Node4&#45;&gt;Node6</title>
<path fill="none" stroke="midnightblue" d="M416.5,-90.0987C416.5,-81.2383 416.5,-72.0145 416.5,-63.6299"/>
<polygon fill="midnightblue" stroke="midnightblue" points="413,-90.261 416.5,-100.261 420,-90.2611 413,-90.261"/>
</g>
<!-- Node8 -->
<g id="node8" class="node"><title>Node8</title>
<g id="a_node8"><a xlink:href="greedy__triangulation_8cpp.html" target="_top" xlink:title="/home/jc/THESIS/hull\l_abstraction/ros/src\l/hull_abstraction/src\l/greedy_triangulation_node\l/greedy_triangulation.cpp">
<polygon fill="white" stroke="black" points="493,-0.5 493,-63.5 626,-63.5 626,-0.5 493,-0.5"/>
<text text-anchor="start" x="501" y="-51.5" font-family="Helvetica,sans-Serif" font-size="10.00">/home/jc/THESIS/hull</text>
<text text-anchor="start" x="501" y="-40.5" font-family="Helvetica,sans-Serif" font-size="10.00">_abstraction/ros/src</text>
<text text-anchor="start" x="501" y="-29.5" font-family="Helvetica,sans-Serif" font-size="10.00">/hull_abstraction/src</text>
<text text-anchor="start" x="501" y="-18.5" font-family="Helvetica,sans-Serif" font-size="10.00">/greedy_triangulation_node</text>
<text text-anchor="middle" x="559.5" y="-7.5" font-family="Helvetica,sans-Serif" font-size="10.00">/greedy_triangulation.cpp</text>
</a>
</g>
</g>
<!-- Node7&#45;&gt;Node8 -->
<g id="edge7" class="edge"><title>Node7&#45;&gt;Node8</title>
<path fill="none" stroke="midnightblue" d="M570.041,-90.3875C568.397,-81.4389 566.683,-72.1057 565.126,-63.6299"/>
<polygon fill="midnightblue" stroke="midnightblue" points="566.605,-91.0579 571.854,-100.261 573.49,-89.7933 566.605,-91.0579"/>
</g>
<!-- Node9 -->
<g id="node9" class="node"><title>Node9</title>
<g id="a_node9"><a xlink:href="greedy__triangulation__node_8cpp.html" target="_top" xlink:title="/home/jc/THESIS/hull\l_abstraction/ros/src\l/hull_abstraction/src\l/greedy_triangulation_node.cpp">
<polygon fill="white" stroke="black" points="644.5,-6 644.5,-58 796.5,-58 796.5,-6 644.5,-6"/>
<text text-anchor="start" x="652.5" y="-46" font-family="Helvetica,sans-Serif" font-size="10.00">/home/jc/THESIS/hull</text>
<text text-anchor="start" x="652.5" y="-35" font-family="Helvetica,sans-Serif" font-size="10.00">_abstraction/ros/src</text>
<text text-anchor="start" x="652.5" y="-24" font-family="Helvetica,sans-Serif" font-size="10.00">/hull_abstraction/src</text>
<text text-anchor="middle" x="720.5" y="-13" font-family="Helvetica,sans-Serif" font-size="10.00">/greedy_triangulation_node.cpp</text>
</a>
</g>
</g>
<!-- Node7&#45;&gt;Node9 -->
<g id="edge8" class="edge"><title>Node7&#45;&gt;Node9</title>
<path fill="none" stroke="midnightblue" d="M630.885,-94.4148C648.563,-82.2994 667.824,-69.1 683.942,-58.0536"/>
<polygon fill="midnightblue" stroke="midnightblue" points="628.624,-91.7209 622.354,-100.261 632.581,-97.4951 628.624,-91.7209"/>
</g>
<!-- Node12 -->
<g id="node12" class="node"><title>Node12</title>
<g id="a_node12"><a xlink:href="marching__cubes_8cpp.html" target="_top" xlink:title="/home/jc/THESIS/hull\l_abstraction/ros/src\l/hull_abstraction/src\l/marching_cubes_node/marching\l_cubes.cpp">
<polygon fill="white" stroke="black" points="814.5,-0.5 814.5,-63.5 974.5,-63.5 974.5,-0.5 814.5,-0.5"/>
<text text-anchor="start" x="822.5" y="-51.5" font-family="Helvetica,sans-Serif" font-size="10.00">/home/jc/THESIS/hull</text>
<text text-anchor="start" x="822.5" y="-40.5" font-family="Helvetica,sans-Serif" font-size="10.00">_abstraction/ros/src</text>
<text text-anchor="start" x="822.5" y="-29.5" font-family="Helvetica,sans-Serif" font-size="10.00">/hull_abstraction/src</text>
<text text-anchor="start" x="822.5" y="-18.5" font-family="Helvetica,sans-Serif" font-size="10.00">/marching_cubes_node/marching</text>
<text text-anchor="middle" x="894.5" y="-7.5" font-family="Helvetica,sans-Serif" font-size="10.00">_cubes.cpp</text>
</a>
</g>
</g>
<!-- Node11&#45;&gt;Node12 -->
<g id="edge11" class="edge"><title>Node11&#45;&gt;Node12</title>
<path fill="none" stroke="midnightblue" d="M913.922,-90.676C910.879,-81.6397 907.699,-72.1968 904.814,-63.6299"/>
<polygon fill="midnightblue" stroke="midnightblue" points="910.641,-91.9009 917.149,-100.261 917.275,-89.667 910.641,-91.9009"/>
</g>
<!-- Node13 -->
<g id="node13" class="node"><title>Node13</title>
<g id="a_node13"><a xlink:href="marching__cubes__node_8cpp.html" target="_top" xlink:title="/home/jc/THESIS/hull\l_abstraction/ros/src\l/hull_abstraction/src\l/marching_cubes_node.cpp">
<polygon fill="white" stroke="black" points="992.5,-6 992.5,-58 1128.5,-58 1128.5,-6 992.5,-6"/>
<text text-anchor="start" x="1000.5" y="-46" font-family="Helvetica,sans-Serif" font-size="10.00">/home/jc/THESIS/hull</text>
<text text-anchor="start" x="1000.5" y="-35" font-family="Helvetica,sans-Serif" font-size="10.00">_abstraction/ros/src</text>
<text text-anchor="start" x="1000.5" y="-24" font-family="Helvetica,sans-Serif" font-size="10.00">/hull_abstraction/src</text>
<text text-anchor="middle" x="1060.5" y="-13" font-family="Helvetica,sans-Serif" font-size="10.00">/marching_cubes_node.cpp</text>
</a>
</g>
</g>
<!-- Node11&#45;&gt;Node13 -->
<g id="edge12" class="edge"><title>Node11&#45;&gt;Node13</title>
<path fill="none" stroke="midnightblue" d="M977.6,-94.0841C993.919,-82.0596 1011.64,-68.9996 1026.5,-58.0536"/>
<polygon fill="midnightblue" stroke="midnightblue" points="975.191,-91.5113 969.217,-100.261 979.344,-97.1467 975.191,-91.5113"/>
</g>
<!-- Node15 -->
<g id="node15" class="node"><title>Node15</title>
<g id="a_node15"><a xlink:href="poisson__reconstruction_8cpp.html" target="_top" xlink:title="/home/jc/THESIS/hull\l_abstraction/ros/src\l/hull_abstraction/src\l/poisson_reconstruction\l_node/poisson_reconstruction.cpp">
<polygon fill="white" stroke="black" points="1147,-0.5 1147,-63.5 1312,-63.5 1312,-0.5 1147,-0.5"/>
<text text-anchor="start" x="1155" y="-51.5" font-family="Helvetica,sans-Serif" font-size="10.00">/home/jc/THESIS/hull</text>
<text text-anchor="start" x="1155" y="-40.5" font-family="Helvetica,sans-Serif" font-size="10.00">_abstraction/ros/src</text>
<text text-anchor="start" x="1155" y="-29.5" font-family="Helvetica,sans-Serif" font-size="10.00">/hull_abstraction/src</text>
<text text-anchor="start" x="1155" y="-18.5" font-family="Helvetica,sans-Serif" font-size="10.00">/poisson_reconstruction</text>
<text text-anchor="middle" x="1229.5" y="-7.5" font-family="Helvetica,sans-Serif" font-size="10.00">_node/poisson_reconstruction.cpp</text>
</a>
</g>
</g>
<!-- Node14&#45;&gt;Node15 -->
<g id="edge14" class="edge"><title>Node14&#45;&gt;Node15</title>
<path fill="none" stroke="midnightblue" d="M1229.5,-90.0987C1229.5,-81.2383 1229.5,-72.0145 1229.5,-63.6299"/>
<polygon fill="midnightblue" stroke="midnightblue" points="1226,-90.261 1229.5,-100.261 1233,-90.2611 1226,-90.261"/>
</g>
<!-- Node16 -->
<g id="node16" class="node"><title>Node16</title>
<g id="a_node16"><a xlink:href="poisson__reconstruction__node_8cpp.html" target="_top" xlink:title="/home/jc/THESIS/hull\l_abstraction/ros/src\l/hull_abstraction/src\l/poisson_reconstruction\l_node.cpp">
<polygon fill="white" stroke="black" points="1330.5,-0.5 1330.5,-63.5 1450.5,-63.5 1450.5,-0.5 1330.5,-0.5"/>
<text text-anchor="start" x="1338.5" y="-51.5" font-family="Helvetica,sans-Serif" font-size="10.00">/home/jc/THESIS/hull</text>
<text text-anchor="start" x="1338.5" y="-40.5" font-family="Helvetica,sans-Serif" font-size="10.00">_abstraction/ros/src</text>
<text text-anchor="start" x="1338.5" y="-29.5" font-family="Helvetica,sans-Serif" font-size="10.00">/hull_abstraction/src</text>
<text text-anchor="start" x="1338.5" y="-18.5" font-family="Helvetica,sans-Serif" font-size="10.00">/poisson_reconstruction</text>
<text text-anchor="middle" x="1390.5" y="-7.5" font-family="Helvetica,sans-Serif" font-size="10.00">_node.cpp</text>
</a>
</g>
</g>
<!-- Node14&#45;&gt;Node16 -->
<g id="edge15" class="edge"><title>Node14&#45;&gt;Node16</title>
<path fill="none" stroke="midnightblue" d="M1288.7,-94.9656C1305.6,-84.6757 1323.86,-73.5639 1340.18,-63.6299"/>
<polygon fill="midnightblue" stroke="midnightblue" points="1286.72,-92.0719 1280,-100.261 1290.36,-98.0513 1286.72,-92.0719"/>
</g>
</g>
</svg>
