<?xml version="1.0" encoding="UTF-8" standalone="no"?>
<!DOCTYPE svg PUBLIC "-//W3C//DTD SVG 1.1//EN"
 "http://www.w3.org/Graphics/SVG/1.1/DTD/svg11.dtd">
<!-- Generated by graphviz version 2.38.0 (20140413.2041)
 -->
<!-- Title: /home/jc/THESIS/hull_abstraction/ros/src/hull_abstraction/src/pcl_utilization/pcl_utilization.cpp Pages: 1 -->
<svg width="168pt" height="128pt"
 viewBox="0.00 0.00 168.00 128.00" xmlns="http://www.w3.org/2000/svg" xmlns:xlink="http://www.w3.org/1999/xlink">
<g id="graph0" class="graph" transform="scale(1 1) rotate(0) translate(4 124)">
<title>/home/jc/THESIS/hull_abstraction/ros/src/hull_abstraction/src/pcl_utilization/pcl_utilization.cpp</title>
<polygon fill="white" stroke="none" points="-4,4 -4,-124 164,-124 164,4 -4,4"/>
<!-- Node1 -->
<g id="node1" class="node"><title>Node1</title>
<polygon fill="#bfbfbf" stroke="black" points="0,-67.5 0,-119.5 160,-119.5 160,-67.5 0,-67.5"/>
<text text-anchor="start" x="8" y="-107.5" font-family="Helvetica,sans-Serif" font-size="10.00">/home/jc/THESIS/hull</text>
<text text-anchor="start" x="8" y="-96.5" font-family="Helvetica,sans-Serif" font-size="10.00">_abstraction/ros/src</text>
<text text-anchor="start" x="8" y="-85.5" font-family="Helvetica,sans-Serif" font-size="10.00">/hull_abstraction/src</text>
<text text-anchor="middle" x="80" y="-74.5" font-family="Helvetica,sans-Serif" font-size="10.00">/pcl_utilization/pcl_utilization.cpp</text>
</g>
<!-- Node2 -->
<g id="node2" class="node"><title>Node2</title>
<polygon fill="white" stroke="#bfbfbf" points="34,-0.5 34,-30.5 126,-30.5 126,-0.5 34,-0.5"/>
<text text-anchor="start" x="42" y="-18.5" font-family="Helvetica,sans-Serif" font-size="10.00">pcl_utilization/pcl</text>
<text text-anchor="middle" x="80" y="-7.5" font-family="Helvetica,sans-Serif" font-size="10.00">_utilization.h</text>
</g>
<!-- Node1&#45;&gt;Node2 -->
<g id="edge1" class="edge"><title>Node1&#45;&gt;Node2</title>
<path fill="none" stroke="midnightblue" d="M80,-67.1931C80,-58.7864 80,-49.4433 80,-41.0914"/>
<polygon fill="midnightblue" stroke="midnightblue" points="83.5001,-40.8452 80,-30.8453 76.5001,-40.8453 83.5001,-40.8452"/>
</g>
</g>
</svg>
