<?xml version="1.0" encoding="UTF-8" standalone="no"?>
<!DOCTYPE svg PUBLIC "-//W3C//DTD SVG 1.1//EN"
 "http://www.w3.org/Graphics/SVG/1.1/DTD/svg11.dtd">
<!-- Generated by graphviz version 2.38.0 (20140413.2041)
 -->
<!-- Title: /home/jc/hull_abstraction/benchmark/include/benchmark/benchmark.h Pages: 1 -->
<svg width="288pt" height="128pt"
 viewBox="0.00 0.00 288.00 128.00" xmlns="http://www.w3.org/2000/svg" xmlns:xlink="http://www.w3.org/1999/xlink">
<g id="graph0" class="graph" transform="scale(1 1) rotate(0) translate(4 124)">
<title>/home/jc/hull_abstraction/benchmark/include/benchmark/benchmark.h</title>
<polygon fill="white" stroke="none" points="-4,4 -4,-124 284,-124 284,4 -4,4"/>
<!-- Node1 -->
<g id="node1" class="node"><title>Node1</title>
<polygon fill="#bfbfbf" stroke="black" points="65.5,-78.5 65.5,-119.5 217.5,-119.5 217.5,-78.5 65.5,-78.5"/>
<text text-anchor="start" x="73.5" y="-107.5" font-family="Helvetica,sans-Serif" font-size="10.00">/home/jc/hull_abstraction</text>
<text text-anchor="start" x="73.5" y="-96.5" font-family="Helvetica,sans-Serif" font-size="10.00">/benchmark/include/benchmark</text>
<text text-anchor="middle" x="141.5" y="-85.5" font-family="Helvetica,sans-Serif" font-size="10.00">/benchmark.h</text>
</g>
<!-- Node2 -->
<g id="node2" class="node"><title>Node2</title>
<g id="a_node2"><a xlink:href="benchmark_8cpp.html" target="_top" xlink:title="/home/jc/hull_abstraction\l/benchmark/src/benchmark\l/benchmark.cpp">
<polygon fill="white" stroke="black" points="0,-0.5 0,-41.5 135,-41.5 135,-0.5 0,-0.5"/>
<text text-anchor="start" x="8" y="-29.5" font-family="Helvetica,sans-Serif" font-size="10.00">/home/jc/hull_abstraction</text>
<text text-anchor="start" x="8" y="-18.5" font-family="Helvetica,sans-Serif" font-size="10.00">/benchmark/src/benchmark</text>
<text text-anchor="middle" x="67.5" y="-7.5" font-family="Helvetica,sans-Serif" font-size="10.00">/benchmark.cpp</text>
</a>
</g>
</g>
<!-- Node1&#45;&gt;Node2 -->
<g id="edge1" class="edge"><title>Node1&#45;&gt;Node2</title>
<path fill="none" stroke="midnightblue" d="M115.409,-71.204C105.879,-61.416 95.2878,-50.5388 86.4923,-41.5056"/>
<polygon fill="midnightblue" stroke="midnightblue" points="112.959,-73.705 122.443,-78.4281 117.975,-68.8217 112.959,-73.705"/>
</g>
<!-- Node3 -->
<g id="node3" class="node"><title>Node3</title>
<g id="a_node3"><a xlink:href="main_8cpp.html" target="_top" xlink:title="/home/jc/hull_abstraction\l/benchmark/src/main.cpp">
<polygon fill="white" stroke="black" points="153,-6 153,-36 280,-36 280,-6 153,-6"/>
<text text-anchor="start" x="161" y="-24" font-family="Helvetica,sans-Serif" font-size="10.00">/home/jc/hull_abstraction</text>
<text text-anchor="middle" x="216.5" y="-13" font-family="Helvetica,sans-Serif" font-size="10.00">/benchmark/src/main.cpp</text>
</a>
</g>
</g>
<!-- Node1&#45;&gt;Node3 -->
<g id="edge2" class="edge"><title>Node1&#45;&gt;Node3</title>
<path fill="none" stroke="midnightblue" d="M168.155,-70.9896C179.736,-59.2546 192.826,-45.9897 202.462,-36.2254"/>
<polygon fill="midnightblue" stroke="midnightblue" points="165.347,-68.8519 160.814,-78.4281 170.33,-73.7688 165.347,-68.8519"/>
</g>
</g>
</svg>
