<?xml version="1.0" encoding="UTF-8" standalone="no"?>
<!DOCTYPE svg PUBLIC "-//W3C//DTD SVG 1.1//EN"
 "http://www.w3.org/Graphics/SVG/1.1/DTD/svg11.dtd">
<!-- Generated by graphviz version 2.38.0 (20140413.2041)
 -->
<!-- Title: /home/jc/THESIS/hull_abstraction/benchmark/include/benchmark/benchmark.h Pages: 1 -->
<svg width="302pt" height="128pt"
 viewBox="0.00 0.00 301.50 128.00" xmlns="http://www.w3.org/2000/svg" xmlns:xlink="http://www.w3.org/1999/xlink">
<g id="graph0" class="graph" transform="scale(1 1) rotate(0) translate(4 124)">
<title>/home/jc/THESIS/hull_abstraction/benchmark/include/benchmark/benchmark.h</title>
<polygon fill="white" stroke="none" points="-4,4 -4,-124 297.5,-124 297.5,4 -4,4"/>
<!-- Node1 -->
<g id="node1" class="node"><title>Node1</title>
<polygon fill="#bfbfbf" stroke="black" points="74.5,-78.5 74.5,-119.5 235.5,-119.5 235.5,-78.5 74.5,-78.5"/>
<text text-anchor="start" x="82.5" y="-107.5" font-family="Helvetica,sans-Serif" font-size="10.00">/home/jc/THESIS/hull</text>
<text text-anchor="start" x="82.5" y="-96.5" font-family="Helvetica,sans-Serif" font-size="10.00">_abstraction/benchmark</text>
<text text-anchor="middle" x="155" y="-85.5" font-family="Helvetica,sans-Serif" font-size="10.00">/include/benchmark/benchmark.h</text>
</g>
<!-- Node2 -->
<g id="node2" class="node"><title>Node2</title>
<g id="a_node2"><a xlink:href="benchmark_8cpp.html" target="_top" xlink:title="/home/jc/THESIS/hull\l_abstraction/benchmark\l/src/benchmark/benchmark.cpp">
<polygon fill="white" stroke="black" points="0,-0.5 0,-41.5 154,-41.5 154,-0.5 0,-0.5"/>
<text text-anchor="start" x="8" y="-29.5" font-family="Helvetica,sans-Serif" font-size="10.00">/home/jc/THESIS/hull</text>
<text text-anchor="start" x="8" y="-18.5" font-family="Helvetica,sans-Serif" font-size="10.00">_abstraction/benchmark</text>
<text text-anchor="middle" x="77" y="-7.5" font-family="Helvetica,sans-Serif" font-size="10.00">/src/benchmark/benchmark.cpp</text>
</a>
</g>
</g>
<!-- Node1&#45;&gt;Node2 -->
<g id="edge1" class="edge"><title>Node1&#45;&gt;Node2</title>
<path fill="none" stroke="midnightblue" d="M127.499,-71.204C117.453,-61.416 106.29,-50.5388 97.0189,-41.5056"/>
<polygon fill="midnightblue" stroke="midnightblue" points="125.308,-73.9562 134.913,-78.4281 130.193,-68.9426 125.308,-73.9562"/>
</g>
<!-- Node3 -->
<g id="node3" class="node"><title>Node3</title>
<g id="a_node3"><a xlink:href="main_8cpp.html" target="_top" xlink:title="/home/jc/THESIS/hull\l_abstraction/benchmark\l/src/main.cpp">
<polygon fill="white" stroke="black" points="172.5,-0.5 172.5,-41.5 293.5,-41.5 293.5,-0.5 172.5,-0.5"/>
<text text-anchor="start" x="180.5" y="-29.5" font-family="Helvetica,sans-Serif" font-size="10.00">/home/jc/THESIS/hull</text>
<text text-anchor="start" x="180.5" y="-18.5" font-family="Helvetica,sans-Serif" font-size="10.00">_abstraction/benchmark</text>
<text text-anchor="middle" x="233" y="-7.5" font-family="Helvetica,sans-Serif" font-size="10.00">/src/main.cpp</text>
</a>
</g>
</g>
<!-- Node1&#45;&gt;Node3 -->
<g id="edge2" class="edge"><title>Node1&#45;&gt;Node3</title>
<path fill="none" stroke="midnightblue" d="M182.501,-71.204C192.547,-61.416 203.71,-50.5388 212.981,-41.5056"/>
<polygon fill="midnightblue" stroke="midnightblue" points="179.807,-68.9426 175.087,-78.4281 184.692,-73.9562 179.807,-68.9426"/>
</g>
</g>
</svg>
