<?xml version="1.0" encoding="UTF-8" standalone="no"?>
<!DOCTYPE svg PUBLIC "-//W3C//DTD SVG 1.1//EN"
 "http://www.w3.org/Graphics/SVG/1.1/DTD/svg11.dtd">
<!-- Generated by graphviz version 2.38.0 (20140413.2041)
 -->
<!-- Title: /home/jc/THESIS/hull_abstraction/benchmark/include/benchmark/benchmark.h Pages: 1 -->
<!--zoomable 173 -->
<svg id="main" version="1.1" xmlns="http://www.w3.org/2000/svg" xmlns:xlink="http://www.w3.org/1999/xlink" xml:space="preserve" onload="init(evt)">
<style type="text/css"><![CDATA[
.edge:hover path { stroke: red; }
.edge:hover polygon { stroke: red; fill: red; }
]]></style>
<script type="text/javascript"><![CDATA[
var edges = document.getElementsByTagName('g');
if (edges && edges.length) {
  for (var i=0;i<edges.length;i++) {
    if (edges[i].id.substr(0,4)=='edge') {
      edges[i].setAttribute('class','edge');
    }
  }
}
]]></script>
        <defs>
                <circle id="rim" cx="0" cy="0" r="7"/>
                <circle id="rim2" cx="0" cy="0" r="3.5"/>
                <g id="zoomPlus">
                        <use xlink:href="#rim" fill="#404040">
                                <set attributeName="fill" to="#808080" begin="zoomplus.mouseover" end="zoomplus.mouseout"/>
                        </use>
                        <path d="M-4,0h8M0,-4v8" fill="none" stroke="white" stroke-width="1.5" pointer-events="none"/>
                </g>
                <g id="zoomMin">
                        <use xlink:href="#rim" fill="#404040">
                                <set attributeName="fill" to="#808080" begin="zoomminus.mouseover" end="zoomminus.mouseout"/>
                        </use>
                        <path d="M-4,0h8" fill="none" stroke="white" stroke-width="1.5" pointer-events="none"/>
                </g>
                <g id="dirArrow">
                        <path fill="none" stroke="white" stroke-width="1.5" d="M0,-3.0v7 M-2.5,-0.5L0,-3.0L2.5,-0.5"/>
                </g>
               <g id="resetDef">
                       <use xlink:href="#rim2" fill="#404040">
                               <set attributeName="fill" to="#808080" begin="reset.mouseover" end="reset.mouseout"/>
                       </use>
               </g>
        </defs>

<script type="text/javascript">
var viewWidth = 687;
var viewHeight = 173;
var sectionId = 'dynsection-0';
</script>
<script xlink:href="svgpan.js"/>
<svg id="graph" class="graph">
<g id="viewport">
<title>/home/jc/THESIS/hull_abstraction/benchmark/include/benchmark/benchmark.h</title>
<polygon fill="white" stroke="none" points="-4,4 -4,-169 682.5,-169 682.5,4 -4,4"/>
<!-- Node1 -->
<g id="node1" class="node"><title>Node1</title>
<polygon fill="#bfbfbf" stroke="black" points="207,-123.5 207,-164.5 368,-164.5 368,-123.5 207,-123.5"/>
<text text-anchor="start" x="215" y="-152.5" font-family="Helvetica,sans-Serif" font-size="10.00">/home/jc/THESIS/hull</text>
<text text-anchor="start" x="215" y="-141.5" font-family="Helvetica,sans-Serif" font-size="10.00">_abstraction/benchmark</text>
<text text-anchor="middle" x="287.5" y="-130.5" font-family="Helvetica,sans-Serif" font-size="10.00">/include/benchmark/benchmark.h</text>
</g>
<!-- Node2 -->
<g id="node2" class="node"><title>Node2</title>
<polygon fill="white" stroke="#bfbfbf" points="0,-6 0,-25 47,-25 47,-6 0,-6"/>
<text text-anchor="middle" x="23.5" y="-13" font-family="Helvetica,sans-Serif" font-size="10.00">math.h</text>
</g>
<!-- Node1&#45;&gt;Node2 -->
<g id="edge1" class="edge"><title>Node1&#45;&gt;Node2</title>
<path fill="none" stroke="midnightblue" d="M212.286,-123.409C182.539,-114.27 148.579,-102.05 119.5,-87 89.8537,-71.6566 59.4223,-47.6295 40.985,-31.972"/>
<polygon fill="midnightblue" stroke="midnightblue" points="43.0345,-29.1175 33.1785,-25.2304 38.4593,-34.4154 43.0345,-29.1175"/>
</g>
<!-- Node3 -->
<g id="node3" class="node"><title>Node3</title>
<polygon fill="white" stroke="#bfbfbf" points="65.5,-6 65.5,-25 109.5,-25 109.5,-6 65.5,-6"/>
<text text-anchor="middle" x="87.5" y="-13" font-family="Helvetica,sans-Serif" font-size="10.00">time.h</text>
</g>
<!-- Node1&#45;&gt;Node3 -->
<g id="edge2" class="edge"><title>Node1&#45;&gt;Node3</title>
<path fill="none" stroke="midnightblue" d="M214.619,-123.479C190.231,-114.782 163.846,-102.84 142.5,-87 123.092,-72.5974 106.948,-49.6383 97.2765,-33.8568"/>
<polygon fill="midnightblue" stroke="midnightblue" points="100.21,-31.94 92.1195,-25.0988 94.1776,-35.4919 100.21,-31.94"/>
</g>
<!-- Node4 -->
<g id="node4" class="node"><title>Node4</title>
<polygon fill="white" stroke="#bfbfbf" points="127.5,-6 127.5,-25 175.5,-25 175.5,-6 127.5,-6"/>
<text text-anchor="middle" x="151.5" y="-13" font-family="Helvetica,sans-Serif" font-size="10.00">stdlib.h</text>
</g>
<!-- Node1&#45;&gt;Node4 -->
<g id="edge3" class="edge"><title>Node1&#45;&gt;Node4</title>
<path fill="none" stroke="midnightblue" d="M206.692,-126.076C186.042,-117.765 166.13,-105.396 153.5,-87 143.127,-71.8915 144.2,-50.3511 146.88,-35.0641"/>
<polygon fill="midnightblue" stroke="midnightblue" points="150.317,-35.7289 148.975,-25.2194 143.47,-34.2717 150.317,-35.7289"/>
</g>
<!-- Node5 -->
<g id="node5" class="node"><title>Node5</title>
<polygon fill="white" stroke="#bfbfbf" points="194,-6 194,-25 285,-25 285,-6 194,-6"/>
<text text-anchor="middle" x="239.5" y="-13" font-family="Helvetica,sans-Serif" font-size="10.00">pcl/point_types.h</text>
</g>
<!-- Node1&#45;&gt;Node5 -->
<g id="edge4" class="edge"><title>Node1&#45;&gt;Node5</title>
<path fill="none" stroke="midnightblue" d="M305.49,-123.422C317.601,-107.753 329.661,-85.4297 319.5,-67 309.954,-49.6859 291.698,-37.4888 275.032,-29.4248"/>
<polygon fill="midnightblue" stroke="midnightblue" points="276.039,-26.0407 265.482,-25.147 273.178,-32.4291 276.039,-26.0407"/>
</g>
<!-- Node6 -->
<g id="node6" class="node"><title>Node6</title>
<polygon fill="white" stroke="#bfbfbf" points="303,-6 303,-25 416,-25 416,-6 303,-6"/>
<text text-anchor="middle" x="359.5" y="-13" font-family="Helvetica,sans-Serif" font-size="10.00">pcl/PCLPointCloud2.h</text>
</g>
<!-- Node1&#45;&gt;Node6 -->
<g id="edge5" class="edge"><title>Node1&#45;&gt;Node6</title>
<path fill="none" stroke="midnightblue" d="M307.54,-123.424C317.047,-113.267 327.95,-100.236 335.5,-87 344.893,-70.5329 351.399,-49.8016 355.244,-35.0929"/>
<polygon fill="midnightblue" stroke="midnightblue" points="358.691,-35.7348 357.67,-25.1893 351.891,-34.0697 358.691,-35.7348"/>
</g>
<!-- Node7 -->
<g id="node7" class="node"><title>Node7</title>
<polygon fill="white" stroke="#bfbfbf" points="434.5,-6 434.5,-25 558.5,-25 558.5,-6 434.5,-6"/>
<text text-anchor="middle" x="496.5" y="-13" font-family="Helvetica,sans-Serif" font-size="10.00">pcl/features/normal_3d.h</text>
</g>
<!-- Node1&#45;&gt;Node7 -->
<g id="edge6" class="edge"><title>Node1&#45;&gt;Node7</title>
<path fill="none" stroke="midnightblue" d="M320.156,-123.234C362.703,-97.4824 436.046,-53.0906 473.313,-30.5344"/>
<polygon fill="midnightblue" stroke="midnightblue" points="475.227,-33.4671 481.969,-25.2948 471.602,-27.4786 475.227,-33.4671"/>
</g>
<!-- Node8 -->
<g id="node8" class="node"><title>Node8</title>
<polygon fill="white" stroke="#bfbfbf" points="576.5,-0.5 576.5,-30.5 678.5,-30.5 678.5,-0.5 576.5,-0.5"/>
<text text-anchor="start" x="584.5" y="-18.5" font-family="Helvetica,sans-Serif" font-size="10.00">pcl/visualization/pcl</text>
<text text-anchor="middle" x="627.5" y="-7.5" font-family="Helvetica,sans-Serif" font-size="10.00">_visualizer.h</text>
</g>
<!-- Node1&#45;&gt;Node8 -->
<g id="edge7" class="edge"><title>Node1&#45;&gt;Node8</title>
<path fill="none" stroke="midnightblue" d="M340.252,-123.373C405.761,-99 516.558,-57.7768 579.688,-34.2889"/>
<polygon fill="midnightblue" stroke="midnightblue" points="581.244,-37.4443 589.396,-30.6768 578.803,-30.8836 581.244,-37.4443"/>
</g>
<!-- Node9 -->
<g id="node9" class="node"><title>Node9</title>
<g id="a_node9"><a xlink:href="math__computing_8h.html" target="_top" xlink:title="This file contains declarations of some mathematical computing methods. ">
<polygon fill="white" stroke="black" points="162.5,-67.5 162.5,-86.5 310.5,-86.5 310.5,-67.5 162.5,-67.5"/>
<text text-anchor="middle" x="236.5" y="-74.5" font-family="Helvetica,sans-Serif" font-size="10.00">benchmark/math_computing.h</text>
</a>
</g>
</g>
<!-- Node1&#45;&gt;Node9 -->
<g id="edge8" class="edge"><title>Node1&#45;&gt;Node9</title>
<path fill="none" stroke="midnightblue" d="M272.198,-123.498C264.981,-114.299 256.458,-103.436 249.55,-94.6323"/>
<polygon fill="midnightblue" stroke="midnightblue" points="252.215,-92.3594 243.289,-86.6525 246.708,-96.6804 252.215,-92.3594"/>
</g>
<!-- Node9&#45;&gt;Node2 -->
<g id="edge9" class="edge"><title>Node9&#45;&gt;Node2</title>
<path fill="none" stroke="midnightblue" d="M193.724,-67.4418C156.878,-59.5662 102.523,-46.7379 56.5,-31 54.6348,-30.3622 52.729,-29.6618 50.8208,-28.9239"/>
<polygon fill="midnightblue" stroke="midnightblue" points="52.0152,-25.6303 41.4369,-25.0377 49.3368,-32.0977 52.0152,-25.6303"/>
</g>
<!-- Node9&#45;&gt;Node3 -->
<g id="edge10" class="edge"><title>Node9&#45;&gt;Node3</title>
<path fill="none" stroke="midnightblue" d="M212.339,-67.3739C188.343,-58.6692 150.597,-44.6051 118.5,-31 117.132,-30.4203 115.736,-29.8155 114.33,-29.1961"/>
<polygon fill="midnightblue" stroke="midnightblue" points="115.657,-25.9547 105.105,-25.0066 112.762,-32.3283 115.657,-25.9547"/>
</g>
<!-- Node9&#45;&gt;Node4 -->
<g id="edge11" class="edge"><title>Node9&#45;&gt;Node4</title>
<path fill="none" stroke="midnightblue" d="M224.322,-67.4751C210.688,-57.9315 188.368,-42.3073 172.026,-30.8683"/>
<polygon fill="midnightblue" stroke="midnightblue" points="173.855,-27.8764 163.656,-25.0091 169.841,-33.6111 173.855,-27.8764"/>
</g>
<!-- Node9&#45;&gt;Node5 -->
<g id="edge12" class="edge"><title>Node9&#45;&gt;Node5</title>
<path fill="none" stroke="midnightblue" d="M236.93,-67.4751C237.353,-59.0803 238.014,-45.9806 238.559,-35.1631"/>
<polygon fill="midnightblue" stroke="midnightblue" points="242.063,-35.1727 239.071,-25.0091 235.072,-34.8201 242.063,-35.1727"/>
</g>
<!-- Node9&#45;&gt;Node6 -->
<g id="edge13" class="edge"><title>Node9&#45;&gt;Node6</title>
<path fill="none" stroke="midnightblue" d="M254.123,-67.4751C274.674,-57.5338 308.864,-40.9947 332.707,-29.461"/>
<polygon fill="midnightblue" stroke="midnightblue" points="334.432,-32.5145 341.91,-25.0091 331.384,-26.2131 334.432,-32.5145"/>
</g>
<!-- Node9&#45;&gt;Node7 -->
<g id="edge14" class="edge"><title>Node9&#45;&gt;Node7</title>
<path fill="none" stroke="midnightblue" d="M273.752,-67.4751C319.992,-56.8932 398.899,-38.8356 449.322,-27.2966"/>
<polygon fill="midnightblue" stroke="midnightblue" points="450.35,-30.6518 459.317,-25.0091 448.789,-23.8282 450.35,-30.6518"/>
</g>
<!-- Node9&#45;&gt;Node8 -->
<g id="edge15" class="edge"><title>Node9&#45;&gt;Node8</title>
<path fill="none" stroke="midnightblue" d="M310.796,-68.0948C375.809,-60.6749 472.958,-48.3766 566.294,-31.116"/>
<polygon fill="midnightblue" stroke="midnightblue" points="567.002,-34.5444 576.187,-29.2648 565.714,-27.6638 567.002,-34.5444"/>
</g>
</g>
</svg>
        <g id="navigator" transform="translate(0 0)" fill="#404254">
                <rect fill="#f2f5e9" fill-opacity="0.5" stroke="#606060" stroke-width=".5" x="0" y="0" width="60" height="60"/>
                <use id="zoomplus" xlink:href="#zoomPlus" x="17" y="9" onmousedown="handleZoom(evt,'in')"/>
                <use id="zoomminus" xlink:href="#zoomMin" x="42" y="9" onmousedown="handleZoom(evt,'out')"/>
                <use id="reset" xlink:href="#resetDef" x="30" y="36" onmousedown="handleReset()"/>
                <g id="arrowUp" xlink:href="#dirArrow" transform="translate(30 24)" onmousedown="handlePan(0,-1)">
                  <use xlink:href="#rim" fill="#404040">
                        <set attributeName="fill" to="#808080" begin="arrowUp.mouseover" end="arrowUp.mouseout"/>
                  </use>
                  <path fill="none" stroke="white" stroke-width="1.5" d="M0,-3.0v7 M-2.5,-0.5L0,-3.0L2.5,-0.5"/>
                </g>
                <g id="arrowRight" xlink:href="#dirArrow" transform="rotate(90) translate(36 -43)" onmousedown="handlePan(1,0)">
                  <use xlink:href="#rim" fill="#404040">
                        <set attributeName="fill" to="#808080" begin="arrowRight.mouseover" end="arrowRight.mouseout"/>
                  </use>
                  <path fill="none" stroke="white" stroke-width="1.5" d="M0,-3.0v7 M-2.5,-0.5L0,-3.0L2.5,-0.5"/>
                </g>
                <g id="arrowDown" xlink:href="#dirArrow" transform="rotate(180) translate(-30 -48)" onmousedown="handlePan(0,1)">
                  <use xlink:href="#rim" fill="#404040">
                        <set attributeName="fill" to="#808080" begin="arrowDown.mouseover" end="arrowDown.mouseout"/>
                  </use>
                  <path fill="none" stroke="white" stroke-width="1.5" d="M0,-3.0v7 M-2.5,-0.5L0,-3.0L2.5,-0.5"/>
                </g>
                <g id="arrowLeft" xlink:href="#dirArrow" transform="rotate(270) translate(-36 17)" onmousedown="handlePan(-1,0)">
                  <use xlink:href="#rim" fill="#404040">
                        <set attributeName="fill" to="#808080" begin="arrowLeft.mouseover" end="arrowLeft.mouseout"/>
                  </use>
                  <path fill="none" stroke="white" stroke-width="1.5" d="M0,-3.0v7 M-2.5,-0.5L0,-3.0L2.5,-0.5"/>
                </g>
        </g>
        <svg viewBox="0 0 15 15" width="100%" height="30px" preserveAspectRatio="xMaxYMin meet">
         <g id="arrow_out" transform="scale(0.3 0.3)">
          <a xlink:href="benchmark_8h__incl_org.svg" target="_base">
           <rect id="button" ry="5" rx="5" y="6" x="6" height="38" width="38"
                fill="#f2f5e9" fill-opacity="0.5" stroke="#606060" stroke-width="1.0"/>
           <path id="arrow"
             d="M 11.500037,31.436501 C 11.940474,20.09759 22.043105,11.32322 32.158766,21.979434 L 37.068811,17.246167 C 37.068811,17.246167 37.088388,32 37.088388,32 L 22.160133,31.978069 C 22.160133,31.978069 26.997745,27.140456 26.997745,27.140456 C 18.528582,18.264221 13.291696,25.230495 11.500037,31.436501 z"
             style="fill:#404040;"/>
          </a>
         </g>
        </svg>
</svg>
