<?xml version="1.0" encoding="UTF-8" standalone="no"?>
<!DOCTYPE svg PUBLIC "-//W3C//DTD SVG 1.1//EN"
 "http://www.w3.org/Graphics/SVG/1.1/DTD/svg11.dtd">
<!-- Generated by graphviz version 2.38.0 (20140413.2041)
 -->
<!-- Title: /home/jc/hull_abstraction/benchmark/src/pcl_utilization/pcl_utilization.cpp Pages: 1 -->
<svg width="154pt" height="117pt"
 viewBox="0.00 0.00 154.00 117.00" xmlns="http://www.w3.org/2000/svg" xmlns:xlink="http://www.w3.org/1999/xlink">
<g id="graph0" class="graph" transform="scale(1 1) rotate(0) translate(4 113)">
<title>/home/jc/hull_abstraction/benchmark/src/pcl_utilization/pcl_utilization.cpp</title>
<polygon fill="white" stroke="none" points="-4,4 -4,-113 150,-113 150,4 -4,4"/>
<!-- Node1 -->
<g id="node1" class="node"><title>Node1</title>
<polygon fill="#bfbfbf" stroke="black" points="0,-67.5 0,-108.5 146,-108.5 146,-67.5 0,-67.5"/>
<text text-anchor="start" x="8" y="-96.5" font-family="Helvetica,sans-Serif" font-size="10.00">/home/jc/hull_abstraction</text>
<text text-anchor="start" x="8" y="-85.5" font-family="Helvetica,sans-Serif" font-size="10.00">/benchmark/src/pcl_utilization</text>
<text text-anchor="middle" x="73" y="-74.5" font-family="Helvetica,sans-Serif" font-size="10.00">/pcl_utilization.cpp</text>
</g>
<!-- Node2 -->
<g id="node2" class="node"><title>Node2</title>
<polygon fill="white" stroke="#bfbfbf" points="27,-0.5 27,-30.5 119,-30.5 119,-0.5 27,-0.5"/>
<text text-anchor="start" x="35" y="-18.5" font-family="Helvetica,sans-Serif" font-size="10.00">pcl_utilization/pcl</text>
<text text-anchor="middle" x="73" y="-7.5" font-family="Helvetica,sans-Serif" font-size="10.00">_utilization.h</text>
</g>
<!-- Node1&#45;&gt;Node2 -->
<g id="edge1" class="edge"><title>Node1&#45;&gt;Node2</title>
<path fill="none" stroke="midnightblue" d="M73,-67.3618C73,-59.226 73,-49.6997 73,-41.105"/>
<polygon fill="midnightblue" stroke="midnightblue" points="76.5001,-40.8916 73,-30.8916 69.5001,-40.8916 76.5001,-40.8916"/>
</g>
</g>
</svg>
