<?xml version="1.0" encoding="UTF-8" standalone="no"?>
<!DOCTYPE svg PUBLIC "-//W3C//DTD SVG 1.1//EN"
 "http://www.w3.org/Graphics/SVG/1.1/DTD/svg11.dtd">
<!-- Generated by graphviz version 2.38.0 (20140413.2041)
 -->
<!-- Title: /home/jc/hull_abstraction/benchmark/include/hull_abstraction/reconstructor.h Pages: 1 -->
<svg width="1164pt" height="117pt"
 viewBox="0.00 0.00 1163.50 117.00" xmlns="http://www.w3.org/2000/svg" xmlns:xlink="http://www.w3.org/1999/xlink">
<g id="graph0" class="graph" transform="scale(1 1) rotate(0) translate(4 113)">
<title>/home/jc/hull_abstraction/benchmark/include/hull_abstraction/reconstructor.h</title>
<polygon fill="white" stroke="none" points="-4,4 -4,-113 1159.5,-113 1159.5,4 -4,4"/>
<!-- Node1 -->
<g id="node1" class="node"><title>Node1</title>
<polygon fill="#bfbfbf" stroke="black" points="507,-67.5 507,-108.5 645,-108.5 645,-67.5 507,-67.5"/>
<text text-anchor="start" x="515" y="-96.5" font-family="Helvetica,sans-Serif" font-size="10.00">/home/jc/hull_abstraction</text>
<text text-anchor="start" x="515" y="-85.5" font-family="Helvetica,sans-Serif" font-size="10.00">/benchmark/include/hull</text>
<text text-anchor="middle" x="576" y="-74.5" font-family="Helvetica,sans-Serif" font-size="10.00">_abstraction/reconstructor.h</text>
</g>
<!-- Node2 -->
<g id="node2" class="node"><title>Node2</title>
<polygon fill="white" stroke="#bfbfbf" points="0,-6 0,-25 152,-25 152,-6 0,-6"/>
<text text-anchor="middle" x="76" y="-13" font-family="Helvetica,sans-Serif" font-size="10.00">hull_abstraction/preprocessor.h</text>
</g>
<!-- Node1&#45;&gt;Node2 -->
<g id="edge1" class="edge"><title>Node1&#45;&gt;Node2</title>
<path fill="none" stroke="midnightblue" d="M506.87,-78.4198C424.413,-68.0124 282.458,-49.5486 161,-31 152.398,-29.6864 143.321,-28.2218 134.427,-26.7425"/>
<polygon fill="midnightblue" stroke="midnightblue" points="134.94,-23.2798 124.499,-25.0733 133.78,-30.1829 134.94,-23.2798"/>
</g>
<!-- Node3 -->
<g id="node3" class="node"><title>Node3</title>
<polygon fill="white" stroke="#bfbfbf" points="170.5,-6 170.5,-25 261.5,-25 261.5,-6 170.5,-6"/>
<text text-anchor="middle" x="216" y="-13" font-family="Helvetica,sans-Serif" font-size="10.00">pcl/point_types.h</text>
</g>
<!-- Node1&#45;&gt;Node3 -->
<g id="edge2" class="edge"><title>Node1&#45;&gt;Node3</title>
<path fill="none" stroke="midnightblue" d="M506.706,-75.9719C444.472,-65.6753 350.741,-49.1967 270,-31 265.511,-29.9883 260.833,-28.854 256.189,-27.6773"/>
<polygon fill="midnightblue" stroke="midnightblue" points="256.726,-24.2003 246.166,-25.0646 254.96,-30.974 256.726,-24.2003"/>
</g>
<!-- Node4 -->
<g id="node4" class="node"><title>Node4</title>
<polygon fill="white" stroke="#bfbfbf" points="279.5,-6 279.5,-25 392.5,-25 392.5,-6 279.5,-6"/>
<text text-anchor="middle" x="336" y="-13" font-family="Helvetica,sans-Serif" font-size="10.00">pcl/PCLPointCloud2.h</text>
</g>
<!-- Node1&#45;&gt;Node4 -->
<g id="edge3" class="edge"><title>Node1&#45;&gt;Node4</title>
<path fill="none" stroke="midnightblue" d="M509.465,-67.4554C466.099,-54.7165 411.022,-38.5378 374.702,-27.8687"/>
<polygon fill="midnightblue" stroke="midnightblue" points="375.561,-24.4734 364.98,-25.013 373.589,-31.1896 375.561,-24.4734"/>
</g>
<!-- Node5 -->
<g id="node5" class="node"><title>Node5</title>
<polygon fill="white" stroke="#bfbfbf" points="411,-6 411,-25 503,-25 503,-6 411,-6"/>
<text text-anchor="middle" x="457" y="-13" font-family="Helvetica,sans-Serif" font-size="10.00">pcl/surface/gp3.h</text>
</g>
<!-- Node1&#45;&gt;Node5 -->
<g id="edge4" class="edge"><title>Node1&#45;&gt;Node5</title>
<path fill="none" stroke="midnightblue" d="M542.852,-67.3618C522.94,-55.5655 498.095,-40.846 480.263,-30.2816"/>
<polygon fill="midnightblue" stroke="midnightblue" points="482.028,-27.2592 471.64,-25.1734 478.46,-33.2817 482.028,-27.2592"/>
</g>
<!-- Node6 -->
<g id="node6" class="node"><title>Node6</title>
<polygon fill="white" stroke="#bfbfbf" points="521,-6 521,-25 631,-25 631,-6 521,-6"/>
<text text-anchor="middle" x="576" y="-13" font-family="Helvetica,sans-Serif" font-size="10.00">pcl/surface/poisson.h</text>
</g>
<!-- Node1&#45;&gt;Node6 -->
<g id="edge5" class="edge"><title>Node1&#45;&gt;Node6</title>
<path fill="none" stroke="midnightblue" d="M576,-67.3618C576,-57.297 576,-45.1043 576,-35.18"/>
<polygon fill="midnightblue" stroke="midnightblue" points="579.5,-35.1733 576,-25.1734 572.5,-35.1734 579.5,-35.1733"/>
</g>
<!-- Node7 -->
<g id="node7" class="node"><title>Node7</title>
<polygon fill="white" stroke="#bfbfbf" points="649.5,-0.5 649.5,-30.5 756.5,-30.5 756.5,-0.5 649.5,-0.5"/>
<text text-anchor="start" x="657.5" y="-18.5" font-family="Helvetica,sans-Serif" font-size="10.00">pcl/surface/marching</text>
<text text-anchor="middle" x="703" y="-7.5" font-family="Helvetica,sans-Serif" font-size="10.00">_cubes_hoppe.h</text>
</g>
<!-- Node1&#45;&gt;Node7 -->
<g id="edge6" class="edge"><title>Node1&#45;&gt;Node7</title>
<path fill="none" stroke="midnightblue" d="M611.377,-67.3618C629.252,-57.439 650.853,-45.4479 668.591,-35.6013"/>
<polygon fill="midnightblue" stroke="midnightblue" points="670.429,-38.5837 677.474,-30.67 667.032,-32.4634 670.429,-38.5837"/>
</g>
<!-- Node8 -->
<g id="node8" class="node"><title>Node8</title>
<polygon fill="white" stroke="#bfbfbf" points="774.5,-0.5 774.5,-30.5 885.5,-30.5 885.5,-0.5 774.5,-0.5"/>
<text text-anchor="start" x="782.5" y="-18.5" font-family="Helvetica,sans-Serif" font-size="10.00">pcl/surface/on_nurbs</text>
<text text-anchor="middle" x="830" y="-7.5" font-family="Helvetica,sans-Serif" font-size="10.00">/fitting_surface_tdm.h</text>
</g>
<!-- Node1&#45;&gt;Node8 -->
<g id="edge7" class="edge"><title>Node1&#45;&gt;Node8</title>
<path fill="none" stroke="midnightblue" d="M645.071,-67.8287C684.043,-57.0116 732.278,-43.6235 769.714,-33.233"/>
<polygon fill="midnightblue" stroke="midnightblue" points="770.777,-36.5703 779.477,-30.5232 768.905,-29.8253 770.777,-36.5703"/>
</g>
<!-- Node9 -->
<g id="node9" class="node"><title>Node9</title>
<polygon fill="white" stroke="#bfbfbf" points="904,-0.5 904,-30.5 1030,-30.5 1030,-0.5 904,-0.5"/>
<text text-anchor="start" x="912" y="-18.5" font-family="Helvetica,sans-Serif" font-size="10.00">pcl/surface/on_nurbs</text>
<text text-anchor="middle" x="967" y="-7.5" font-family="Helvetica,sans-Serif" font-size="10.00">/fitting_curve_2d_asdm.h</text>
</g>
<!-- Node1&#45;&gt;Node9 -->
<g id="edge8" class="edge"><title>Node1&#45;&gt;Node9</title>
<path fill="none" stroke="midnightblue" d="M645.162,-75.3707C707.564,-64.7611 802.141,-48.3919 893.796,-31.2023"/>
<polygon fill="midnightblue" stroke="midnightblue" points="894.621,-34.6086 903.801,-29.3203 893.327,-27.7293 894.621,-34.6086"/>
</g>
<!-- Node10 -->
<g id="node10" class="node"><title>Node10</title>
<polygon fill="white" stroke="#bfbfbf" points="1048.5,-0.5 1048.5,-30.5 1155.5,-30.5 1155.5,-0.5 1048.5,-0.5"/>
<text text-anchor="start" x="1056.5" y="-18.5" font-family="Helvetica,sans-Serif" font-size="10.00">pcl/surface/on_nurbs</text>
<text text-anchor="middle" x="1102" y="-7.5" font-family="Helvetica,sans-Serif" font-size="10.00">/triangulation.h</text>
</g>
<!-- Node1&#45;&gt;Node10 -->
<g id="edge9" class="edge"><title>Node1&#45;&gt;Node10</title>
<path fill="none" stroke="midnightblue" d="M645.365,-80.9211C734.163,-72.6234 892.895,-56.0577 1038.45,-30.9709"/>
<polygon fill="midnightblue" stroke="midnightblue" points="1039.21,-34.3913 1048.46,-29.2281 1038.01,-27.495 1039.21,-34.3913"/>
</g>
</g>
</svg>
