<?xml version="1.0" encoding="UTF-8" standalone="no"?>
<!DOCTYPE svg PUBLIC "-//W3C//DTD SVG 1.1//EN"
 "http://www.w3.org/Graphics/SVG/1.1/DTD/svg11.dtd">
<!-- Generated by graphviz version 2.38.0 (20140413.2041)
 -->
<!-- Title: /home/jc/hull_abstraction/benchmark/include/hull_abstraction/preprocessor.h Pages: 1 -->
<!--zoomable 117 -->
<svg id="main" version="1.1" xmlns="http://www.w3.org/2000/svg" xmlns:xlink="http://www.w3.org/1999/xlink" xml:space="preserve" onload="init(evt)">
<style type="text/css"><![CDATA[
.edge:hover path { stroke: red; }
.edge:hover polygon { stroke: red; fill: red; }
]]></style>
<script type="text/javascript"><![CDATA[
var edges = document.getElementsByTagName('g');
if (edges && edges.length) {
  for (var i=0;i<edges.length;i++) {
    if (edges[i].id.substr(0,4)=='edge') {
      edges[i].setAttribute('class','edge');
    }
  }
}
]]></script>
        <defs>
                <circle id="rim" cx="0" cy="0" r="7"/>
                <circle id="rim2" cx="0" cy="0" r="3.5"/>
                <g id="zoomPlus">
                        <use xlink:href="#rim" fill="#404040">
                                <set attributeName="fill" to="#808080" begin="zoomplus.mouseover" end="zoomplus.mouseout"/>
                        </use>
                        <path d="M-4,0h8M0,-4v8" fill="none" stroke="white" stroke-width="1.5" pointer-events="none"/>
                </g>
                <g id="zoomMin">
                        <use xlink:href="#rim" fill="#404040">
                                <set attributeName="fill" to="#808080" begin="zoomminus.mouseover" end="zoomminus.mouseout"/>
                        </use>
                        <path d="M-4,0h8" fill="none" stroke="white" stroke-width="1.5" pointer-events="none"/>
                </g>
                <g id="dirArrow">
                        <path fill="none" stroke="white" stroke-width="1.5" d="M0,-3.0v7 M-2.5,-0.5L0,-3.0L2.5,-0.5"/>
                </g>
               <g id="resetDef">
                       <use xlink:href="#rim2" fill="#404040">
                               <set attributeName="fill" to="#808080" begin="reset.mouseover" end="reset.mouseout"/>
                       </use>
               </g>
        </defs>

<script type="text/javascript">
var viewWidth = 1090;
var viewHeight = 117;
var sectionId = 'dynsection-0';
</script>
<script xlink:href="svgpan.js"/>
<svg id="graph" class="graph">
<g id="viewport">
<title>/home/jc/hull_abstraction/benchmark/include/hull_abstraction/preprocessor.h</title>
<polygon fill="white" stroke="none" points="-4,4 -4,-113 1086,-113 1086,4 -4,4"/>
<!-- Node1 -->
<g id="node1" class="node"><title>Node1</title>
<polygon fill="#bfbfbf" stroke="black" points="475.5,-67.5 475.5,-108.5 612.5,-108.5 612.5,-67.5 475.5,-67.5"/>
<text text-anchor="start" x="483.5" y="-96.5" font-family="Helvetica,sans-Serif" font-size="10.00">/home/jc/hull_abstraction</text>
<text text-anchor="start" x="483.5" y="-85.5" font-family="Helvetica,sans-Serif" font-size="10.00">/benchmark/include/hull</text>
<text text-anchor="middle" x="544" y="-74.5" font-family="Helvetica,sans-Serif" font-size="10.00">_abstraction/preprocessor.h</text>
</g>
<!-- Node2 -->
<g id="node2" class="node"><title>Node2</title>
<polygon fill="white" stroke="#bfbfbf" points="0,-0.5 0,-30.5 92,-30.5 92,-0.5 0,-0.5"/>
<text text-anchor="start" x="8" y="-18.5" font-family="Helvetica,sans-Serif" font-size="10.00">pcl_utilization/pcl</text>
<text text-anchor="middle" x="46" y="-7.5" font-family="Helvetica,sans-Serif" font-size="10.00">_utilization.h</text>
</g>
<!-- Node1&#45;&gt;Node2 -->
<g id="edge1" class="edge"><title>Node1&#45;&gt;Node2</title>
<path fill="none" stroke="midnightblue" d="M475.253,-81.1475C389.828,-73.2418 239.526,-57.2578 101.991,-31.035"/>
<polygon fill="midnightblue" stroke="midnightblue" points="102.594,-27.5868 92.1116,-29.1292 101.268,-34.4601 102.594,-27.5868"/>
</g>
<!-- Node3 -->
<g id="node3" class="node"><title>Node3</title>
<polygon fill="white" stroke="#bfbfbf" points="110.5,-6 110.5,-25 201.5,-25 201.5,-6 110.5,-6"/>
<text text-anchor="middle" x="156" y="-13" font-family="Helvetica,sans-Serif" font-size="10.00">pcl/point_types.h</text>
</g>
<!-- Node1&#45;&gt;Node3 -->
<g id="edge2" class="edge"><title>Node1&#45;&gt;Node3</title>
<path fill="none" stroke="midnightblue" d="M475.413,-77.3341C407.842,-67.3728 301.835,-50.569 211,-31 206.243,-29.9751 201.279,-28.8075 196.364,-27.59"/>
<polygon fill="midnightblue" stroke="midnightblue" points="196.983,-24.1357 186.427,-25.0509 195.249,-30.9177 196.983,-24.1357"/>
</g>
<!-- Node4 -->
<g id="node4" class="node"><title>Node4</title>
<polygon fill="white" stroke="#bfbfbf" points="220,-6 220,-25 344,-25 344,-6 220,-6"/>
<text text-anchor="middle" x="282" y="-13" font-family="Helvetica,sans-Serif" font-size="10.00">pcl/features/normal_3d.h</text>
</g>
<!-- Node1&#45;&gt;Node4 -->
<g id="edge3" class="edge"><title>Node1&#45;&gt;Node4</title>
<path fill="none" stroke="midnightblue" d="M475.163,-68.477C427.082,-55.5393 364.458,-38.6881 323.752,-27.7347"/>
<polygon fill="midnightblue" stroke="midnightblue" points="324.463,-24.3017 313.897,-25.083 322.644,-31.0613 324.463,-24.3017"/>
</g>
<!-- Node5 -->
<g id="node5" class="node"><title>Node5</title>
<polygon fill="white" stroke="#bfbfbf" points="362.5,-0.5 362.5,-30.5 475.5,-30.5 475.5,-0.5 362.5,-0.5"/>
<text text-anchor="start" x="370.5" y="-18.5" font-family="Helvetica,sans-Serif" font-size="10.00">pcl/filters/approximate</text>
<text text-anchor="middle" x="419" y="-7.5" font-family="Helvetica,sans-Serif" font-size="10.00">_voxel_grid.h</text>
</g>
<!-- Node1&#45;&gt;Node5 -->
<g id="edge4" class="edge"><title>Node1&#45;&gt;Node5</title>
<path fill="none" stroke="midnightblue" d="M509.181,-67.3618C491.587,-57.439 470.326,-45.4479 452.868,-35.6013"/>
<polygon fill="midnightblue" stroke="midnightblue" points="454.554,-32.534 444.124,-30.67 451.115,-38.6312 454.554,-32.534"/>
</g>
<!-- Node6 -->
<g id="node6" class="node"><title>Node6</title>
<polygon fill="white" stroke="#bfbfbf" points="493.5,-0.5 493.5,-30.5 594.5,-30.5 594.5,-0.5 493.5,-0.5"/>
<text text-anchor="start" x="501.5" y="-18.5" font-family="Helvetica,sans-Serif" font-size="10.00">pcl/filters/statistical</text>
<text text-anchor="middle" x="544" y="-7.5" font-family="Helvetica,sans-Serif" font-size="10.00">_outlier_removal.h</text>
</g>
<!-- Node1&#45;&gt;Node6 -->
<g id="edge5" class="edge"><title>Node1&#45;&gt;Node6</title>
<path fill="none" stroke="midnightblue" d="M544,-67.3618C544,-59.226 544,-49.6997 544,-41.105"/>
<polygon fill="midnightblue" stroke="midnightblue" points="547.5,-40.8916 544,-30.8916 540.5,-40.8916 547.5,-40.8916"/>
</g>
<!-- Node7 -->
<g id="node7" class="node"><title>Node7</title>
<polygon fill="white" stroke="#bfbfbf" points="612.5,-6 612.5,-25 733.5,-25 733.5,-6 612.5,-6"/>
<text text-anchor="middle" x="673" y="-13" font-family="Helvetica,sans-Serif" font-size="10.00">pcl/filters/passthrough.h</text>
</g>
<!-- Node1&#45;&gt;Node7 -->
<g id="edge6" class="edge"><title>Node1&#45;&gt;Node7</title>
<path fill="none" stroke="midnightblue" d="M579.934,-67.3618C601.717,-55.4572 628.947,-40.5757 648.313,-29.9919"/>
<polygon fill="midnightblue" stroke="midnightblue" points="650.033,-33.0404 657.13,-25.1734 646.676,-26.8978 650.033,-33.0404"/>
</g>
<!-- Node8 -->
<g id="node8" class="node"><title>Node8</title>
<polygon fill="white" stroke="#bfbfbf" points="752,-0.5 752,-30.5 858,-30.5 858,-0.5 752,-0.5"/>
<text text-anchor="start" x="760" y="-18.5" font-family="Helvetica,sans-Serif" font-size="10.00">pcl/filters/conditional</text>
<text text-anchor="middle" x="805" y="-7.5" font-family="Helvetica,sans-Serif" font-size="10.00">_removal.h</text>
</g>
<!-- Node1&#45;&gt;Node8 -->
<g id="edge7" class="edge"><title>Node1&#45;&gt;Node8</title>
<path fill="none" stroke="midnightblue" d="M612.575,-68.477C653.092,-57.5326 703.977,-43.7877 743.243,-33.1816"/>
<polygon fill="midnightblue" stroke="midnightblue" points="744.22,-36.543 752.962,-30.5564 742.395,-29.7852 744.22,-36.543"/>
</g>
<!-- Node9 -->
<g id="node9" class="node"><title>Node9</title>
<polygon fill="white" stroke="#bfbfbf" points="876,-0.5 876,-30.5 972,-30.5 972,-0.5 876,-0.5"/>
<text text-anchor="start" x="884" y="-18.5" font-family="Helvetica,sans-Serif" font-size="10.00">pcl/filters/radius</text>
<text text-anchor="middle" x="924" y="-7.5" font-family="Helvetica,sans-Serif" font-size="10.00">_outlier_removal.h</text>
</g>
<!-- Node1&#45;&gt;Node9 -->
<g id="edge8" class="edge"><title>Node1&#45;&gt;Node9</title>
<path fill="none" stroke="midnightblue" d="M612.663,-76.6759C676.012,-66.7911 772.859,-50.772 865.988,-31.1247"/>
<polygon fill="midnightblue" stroke="midnightblue" points="866.806,-34.529 875.86,-29.0252 865.35,-27.6821 866.806,-34.529"/>
</g>
<!-- Node10 -->
<g id="node10" class="node"><title>Node10</title>
<polygon fill="white" stroke="#bfbfbf" points="990,-6 990,-25 1082,-25 1082,-6 990,-6"/>
<text text-anchor="middle" x="1036" y="-13" font-family="Helvetica,sans-Serif" font-size="10.00">pcl/surface/mls.h</text>
</g>
<!-- Node1&#45;&gt;Node10 -->
<g id="edge9" class="edge"><title>Node1&#45;&gt;Node10</title>
<path fill="none" stroke="midnightblue" d="M612.566,-81.0031C698.991,-72.806 851.873,-56.1836 981,-31 986.079,-30.0094 991.384,-28.8167 996.609,-27.5462"/>
<polygon fill="midnightblue" stroke="midnightblue" points="997.647,-30.8937 1006.48,-25.0397 995.924,-24.1091 997.647,-30.8937"/>
</g>
</g>
</svg>
        <g id="navigator" transform="translate(0 0)" fill="#404254">
                <rect fill="#f2f5e9" fill-opacity="0.5" stroke="#606060" stroke-width=".5" x="0" y="0" width="60" height="60"/>
                <use id="zoomplus" xlink:href="#zoomPlus" x="17" y="9" onmousedown="handleZoom(evt,'in')"/>
                <use id="zoomminus" xlink:href="#zoomMin" x="42" y="9" onmousedown="handleZoom(evt,'out')"/>
                <use id="reset" xlink:href="#resetDef" x="30" y="36" onmousedown="handleReset()"/>
                <g id="arrowUp" xlink:href="#dirArrow" transform="translate(30 24)" onmousedown="handlePan(0,-1)">
                  <use xlink:href="#rim" fill="#404040">
                        <set attributeName="fill" to="#808080" begin="arrowUp.mouseover" end="arrowUp.mouseout"/>
                  </use>
                  <path fill="none" stroke="white" stroke-width="1.5" d="M0,-3.0v7 M-2.5,-0.5L0,-3.0L2.5,-0.5"/>
                </g>
                <g id="arrowRight" xlink:href="#dirArrow" transform="rotate(90) translate(36 -43)" onmousedown="handlePan(1,0)">
                  <use xlink:href="#rim" fill="#404040">
                        <set attributeName="fill" to="#808080" begin="arrowRight.mouseover" end="arrowRight.mouseout"/>
                  </use>
                  <path fill="none" stroke="white" stroke-width="1.5" d="M0,-3.0v7 M-2.5,-0.5L0,-3.0L2.5,-0.5"/>
                </g>
                <g id="arrowDown" xlink:href="#dirArrow" transform="rotate(180) translate(-30 -48)" onmousedown="handlePan(0,1)">
                  <use xlink:href="#rim" fill="#404040">
                        <set attributeName="fill" to="#808080" begin="arrowDown.mouseover" end="arrowDown.mouseout"/>
                  </use>
                  <path fill="none" stroke="white" stroke-width="1.5" d="M0,-3.0v7 M-2.5,-0.5L0,-3.0L2.5,-0.5"/>
                </g>
                <g id="arrowLeft" xlink:href="#dirArrow" transform="rotate(270) translate(-36 17)" onmousedown="handlePan(-1,0)">
                  <use xlink:href="#rim" fill="#404040">
                        <set attributeName="fill" to="#808080" begin="arrowLeft.mouseover" end="arrowLeft.mouseout"/>
                  </use>
                  <path fill="none" stroke="white" stroke-width="1.5" d="M0,-3.0v7 M-2.5,-0.5L0,-3.0L2.5,-0.5"/>
                </g>
        </g>
        <svg viewBox="0 0 15 15" width="100%" height="30px" preserveAspectRatio="xMaxYMin meet">
         <g id="arrow_out" transform="scale(0.3 0.3)">
          <a xlink:href="benchmark_2include_2hull__abstraction_2preprocessor_8h__incl_org.svg" target="_base">
           <rect id="button" ry="5" rx="5" y="6" x="6" height="38" width="38"
                fill="#f2f5e9" fill-opacity="0.5" stroke="#606060" stroke-width="1.0"/>
           <path id="arrow"
             d="M 11.500037,31.436501 C 11.940474,20.09759 22.043105,11.32322 32.158766,21.979434 L 37.068811,17.246167 C 37.068811,17.246167 37.088388,32 37.088388,32 L 22.160133,31.978069 C 22.160133,31.978069 26.997745,27.140456 26.997745,27.140456 C 18.528582,18.264221 13.291696,25.230495 11.500037,31.436501 z"
             style="fill:#404040;"/>
          </a>
         </g>
        </svg>
</svg>
