<?xml version="1.0" encoding="UTF-8" standalone="no"?>
<!DOCTYPE svg PUBLIC "-//W3C//DTD SVG 1.1//EN"
 "http://www.w3.org/Graphics/SVG/1.1/DTD/svg11.dtd">
<!-- Generated by graphviz version 2.38.0 (20140413.2041)
 -->
<!-- Title: /home/jc/hull_abstraction/ros/src/hull_abstraction/src/bspline_surface_fitting_node/bspline_surface_fitting.cpp Pages: 1 -->
<svg width="1037pt" height="251pt"
 viewBox="0.00 0.00 1037.00 251.00" xmlns="http://www.w3.org/2000/svg" xmlns:xlink="http://www.w3.org/1999/xlink">
<g id="graph0" class="graph" transform="scale(1 1) rotate(0) translate(4 247)">
<title>/home/jc/hull_abstraction/ros/src/hull_abstraction/src/bspline_surface_fitting_node/bspline_surface_fitting.cpp</title>
<polygon fill="white" stroke="none" points="-4,4 -4,-247 1033,-247 1033,4 -4,4"/>
<!-- Node1 -->
<g id="node1" class="node"><title>Node1</title>
<polygon fill="#bfbfbf" stroke="black" points="183.5,-190.5 183.5,-242.5 345.5,-242.5 345.5,-190.5 183.5,-190.5"/>
<text text-anchor="start" x="191.5" y="-230.5" font-family="Helvetica,sans-Serif" font-size="10.00">/home/jc/hull_abstraction</text>
<text text-anchor="start" x="191.5" y="-219.5" font-family="Helvetica,sans-Serif" font-size="10.00">/ros/src/hull_abstraction</text>
<text text-anchor="start" x="191.5" y="-208.5" font-family="Helvetica,sans-Serif" font-size="10.00">/src/bspline_surface_fitting</text>
<text text-anchor="middle" x="264.5" y="-197.5" font-family="Helvetica,sans-Serif" font-size="10.00">_node/bspline_surface_fitting.cpp</text>
</g>
<!-- Node2 -->
<g id="node2" class="node"><title>Node2</title>
<g id="a_node2"><a xlink:href="bspline__surface__fitting_8h.html" target="_top" xlink:title="Framework of b&#45;spline surface fitting node. ">
<polygon fill="white" stroke="black" points="203.5,-134.5 203.5,-153.5 325.5,-153.5 325.5,-134.5 203.5,-134.5"/>
<text text-anchor="middle" x="264.5" y="-141.5" font-family="Helvetica,sans-Serif" font-size="10.00">bspline_surface_fitting.h</text>
</a>
</g>
</g>
<!-- Node1&#45;&gt;Node2 -->
<g id="edge1" class="edge"><title>Node1&#45;&gt;Node2</title>
<path fill="none" stroke="midnightblue" d="M264.5,-190.446C264.5,-181.73 264.5,-172.104 264.5,-163.964"/>
<polygon fill="midnightblue" stroke="midnightblue" points="268,-163.695 264.5,-153.695 261,-163.696 268,-163.695"/>
</g>
<!-- Node3 -->
<g id="node3" class="node"><title>Node3</title>
<polygon fill="white" stroke="#bfbfbf" points="125.5,-73 125.5,-92 179.5,-92 179.5,-73 125.5,-73"/>
<text text-anchor="middle" x="152.5" y="-80" font-family="Helvetica,sans-Serif" font-size="10.00">iostream</text>
</g>
<!-- Node2&#45;&gt;Node3 -->
<g id="edge2" class="edge"><title>Node2&#45;&gt;Node3</title>
<path fill="none" stroke="midnightblue" d="M248.453,-134.475C229.907,-124.622 199.16,-108.288 177.478,-96.7697"/>
<polygon fill="midnightblue" stroke="midnightblue" points="178.99,-93.6098 168.517,-92.0091 175.706,-99.7916 178.99,-93.6098"/>
</g>
<!-- Node4 -->
<g id="node4" class="node"><title>Node4</title>
<polygon fill="white" stroke="#bfbfbf" points="0,-6 0,-25 55,-25 55,-6 0,-6"/>
<text text-anchor="middle" x="27.5" y="-13" font-family="Helvetica,sans-Serif" font-size="10.00">ros/ros.h</text>
</g>
<!-- Node2&#45;&gt;Node4 -->
<g id="edge3" class="edge"><title>Node2&#45;&gt;Node4</title>
<path fill="none" stroke="midnightblue" d="M256.334,-134.363C238.4,-115.464 196.531,-71.7485 188.5,-67 139.102,-37.7924 118.827,-49.4886 64.5,-31 62.3773,-30.2776 60.1972,-29.5049 58.0086,-28.7064"/>
<polygon fill="midnightblue" stroke="midnightblue" points="59.101,-25.3777 48.5094,-25.1155 56.6258,-31.9254 59.101,-25.3777"/>
</g>
<!-- Node5 -->
<g id="node5" class="node"><title>Node5</title>
<polygon fill="white" stroke="#bfbfbf" points="73.5,-6 73.5,-25 213.5,-25 213.5,-6 73.5,-6"/>
<text text-anchor="middle" x="143.5" y="-13" font-family="Helvetica,sans-Serif" font-size="10.00">sensor_msgs/PointCloud2.h</text>
</g>
<!-- Node2&#45;&gt;Node5 -->
<g id="edge4" class="edge"><title>Node2&#45;&gt;Node5</title>
<path fill="none" stroke="midnightblue" d="M261.147,-134.153C255.072,-119.008 241.043,-87.7454 221.5,-67 206.982,-51.589 186.85,-38.7067 170.675,-29.8107"/>
<polygon fill="midnightblue" stroke="midnightblue" points="172.156,-26.6346 161.681,-25.0446 168.878,-32.8197 172.156,-26.6346"/>
</g>
<!-- Node6 -->
<g id="node6" class="node"><title>Node6</title>
<polygon fill="white" stroke="#bfbfbf" points="232,-0.5 232,-30.5 335,-30.5 335,-0.5 232,-0.5"/>
<text text-anchor="start" x="240" y="-18.5" font-family="Helvetica,sans-Serif" font-size="10.00">pcl_conversions/pcl</text>
<text text-anchor="middle" x="283.5" y="-7.5" font-family="Helvetica,sans-Serif" font-size="10.00">_conversions.h</text>
</g>
<!-- Node2&#45;&gt;Node6 -->
<g id="edge5" class="edge"><title>Node2&#45;&gt;Node6</title>
<path fill="none" stroke="midnightblue" d="M265.806,-134.305C268.661,-115.298 275.544,-69.4696 279.835,-40.9004"/>
<polygon fill="midnightblue" stroke="midnightblue" points="283.315,-41.297 281.339,-30.888 276.392,-40.2572 283.315,-41.297"/>
</g>
<!-- Node7 -->
<g id="node7" class="node"><title>Node7</title>
<polygon fill="white" stroke="#bfbfbf" points="474,-73 474,-92 627,-92 627,-73 474,-73"/>
<text text-anchor="middle" x="550.5" y="-80" font-family="Helvetica,sans-Serif" font-size="10.00">hull_abstraction/reconstructor.h</text>
</g>
<!-- Node2&#45;&gt;Node7 -->
<g id="edge6" class="edge"><title>Node2&#45;&gt;Node7</title>
<path fill="none" stroke="midnightblue" d="M305.477,-134.475C356.66,-123.827 444.227,-105.609 499.642,-94.0806"/>
<polygon fill="midnightblue" stroke="midnightblue" points="500.522,-97.4726 509.599,-92.0091 499.096,-90.6193 500.522,-97.4726"/>
</g>
<!-- Node8 -->
<g id="node8" class="node"><title>Node8</title>
<g id="a_node8"><a xlink:href="pcl__utilization_8h.html" target="_top" xlink:title="This file contains the declaration of PCL utilization methods. ">
<polygon fill="white" stroke="black" points="363.5,-67.5 363.5,-97.5 455.5,-97.5 455.5,-67.5 363.5,-67.5"/>
<text text-anchor="start" x="371.5" y="-85.5" font-family="Helvetica,sans-Serif" font-size="10.00">pcl_utilization/pcl</text>
<text text-anchor="middle" x="409.5" y="-74.5" font-family="Helvetica,sans-Serif" font-size="10.00">_utilization.h</text>
</a>
</g>
</g>
<!-- Node2&#45;&gt;Node8 -->
<g id="edge7" class="edge"><title>Node2&#45;&gt;Node8</title>
<path fill="none" stroke="midnightblue" d="M285.275,-134.475C306.198,-125.889 339.114,-112.383 365.807,-101.429"/>
<polygon fill="midnightblue" stroke="midnightblue" points="367.404,-104.557 375.326,-97.523 364.746,-98.0813 367.404,-104.557"/>
</g>
<!-- Node8&#45;&gt;Node4 -->
<g id="edge8" class="edge"><title>Node8&#45;&gt;Node4</title>
<path fill="none" stroke="midnightblue" d="M363.345,-78.1099C296.529,-72.4486 169.377,-58.8344 64.5,-31 61.841,-30.2943 59.1126,-29.4566 56.401,-28.5452"/>
<polygon fill="midnightblue" stroke="midnightblue" points="57.4016,-25.1843 46.8079,-25.0256 54.9904,-31.7559 57.4016,-25.1843"/>
</g>
<!-- Node8&#45;&gt;Node5 -->
<g id="edge9" class="edge"><title>Node8&#45;&gt;Node5</title>
<path fill="none" stroke="midnightblue" d="M363.47,-70.2521C314.327,-58.2434 236.974,-39.3414 188.306,-27.4488"/>
<polygon fill="midnightblue" stroke="midnightblue" points="188.921,-23.9963 178.376,-25.0224 187.26,-30.7962 188.921,-23.9963"/>
</g>
<!-- Node8&#45;&gt;Node6 -->
<g id="edge12" class="edge"><title>Node8&#45;&gt;Node6</title>
<path fill="none" stroke="midnightblue" d="M382.16,-67.396C363.915,-57.9839 339.72,-45.5026 319.857,-35.2557"/>
<polygon fill="midnightblue" stroke="midnightblue" points="321.279,-32.0507 310.787,-30.5765 318.069,-38.2717 321.279,-32.0507"/>
</g>
<!-- Node9 -->
<g id="node9" class="node"><title>Node9</title>
<polygon fill="white" stroke="#bfbfbf" points="736.5,-0.5 736.5,-30.5 836.5,-30.5 836.5,-0.5 736.5,-0.5"/>
<text text-anchor="start" x="744.5" y="-18.5" font-family="Helvetica,sans-Serif" font-size="10.00">visualization_msgs</text>
<text text-anchor="middle" x="786.5" y="-7.5" font-family="Helvetica,sans-Serif" font-size="10.00">/Marker.h</text>
</g>
<!-- Node8&#45;&gt;Node9 -->
<g id="edge10" class="edge"><title>Node8&#45;&gt;Node9</title>
<path fill="none" stroke="midnightblue" d="M455.547,-69.1222C458.905,-68.3595 462.249,-67.642 465.5,-67 577.659,-44.8526 610.278,-52.5969 726.374,-31.0838"/>
<polygon fill="midnightblue" stroke="midnightblue" points="727.188,-34.4919 736.366,-29.1988 725.891,-27.6132 727.188,-34.4919"/>
</g>
<!-- Node10 -->
<g id="node10" class="node"><title>Node10</title>
<polygon fill="white" stroke="#bfbfbf" points="855,-6 855,-25 920,-25 920,-6 855,-6"/>
<text text-anchor="middle" x="887.5" y="-13" font-family="Helvetica,sans-Serif" font-size="10.00">Eigen/Core</text>
</g>
<!-- Node8&#45;&gt;Node10 -->
<g id="edge11" class="edge"><title>Node8&#45;&gt;Node10</title>
<path fill="none" stroke="midnightblue" d="M455.518,-68.9661C458.883,-68.24 462.236,-67.5735 465.5,-67 632.586,-37.6456 679.705,-66.9348 845.5,-31 848.999,-30.2417 852.609,-29.2819 856.175,-28.2185"/>
<polygon fill="midnightblue" stroke="midnightblue" points="857.555,-31.4503 865.982,-25.0286 855.39,-24.7936 857.555,-31.4503"/>
</g>
<!-- Node11 -->
<g id="node11" class="node"><title>Node11</title>
<polygon fill="white" stroke="#bfbfbf" points="938,-6 938,-25 1029,-25 1029,-6 938,-6"/>
<text text-anchor="middle" x="983.5" y="-13" font-family="Helvetica,sans-Serif" font-size="10.00">pcl/point_types.h</text>
</g>
<!-- Node8&#45;&gt;Node11 -->
<g id="edge13" class="edge"><title>Node8&#45;&gt;Node11</title>
<path fill="none" stroke="midnightblue" d="M455.507,-68.9028C458.874,-68.1916 462.231,-67.5457 465.5,-67 669.519,-32.9446 725.636,-65.9697 929.5,-31 934.882,-30.0769 940.505,-28.8593 946.005,-27.5214"/>
<polygon fill="midnightblue" stroke="midnightblue" points="946.884,-30.9094 955.691,-25.0205 945.134,-24.1316 946.884,-30.9094"/>
</g>
<!-- Node12 -->
<g id="node12" class="node"><title>Node12</title>
<polygon fill="white" stroke="#bfbfbf" points="353,-6 353,-25 466,-25 466,-6 353,-6"/>
<text text-anchor="middle" x="409.5" y="-13" font-family="Helvetica,sans-Serif" font-size="10.00">pcl/PCLPointCloud2.h</text>
</g>
<!-- Node8&#45;&gt;Node12 -->
<g id="edge14" class="edge"><title>Node8&#45;&gt;Node12</title>
<path fill="none" stroke="midnightblue" d="M409.5,-67.396C409.5,-58.0638 409.5,-45.7143 409.5,-35.5173"/>
<polygon fill="midnightblue" stroke="midnightblue" points="413,-35.1945 409.5,-25.1945 406,-35.1946 413,-35.1945"/>
</g>
<!-- Node13 -->
<g id="node13" class="node"><title>Node13</title>
<polygon fill="white" stroke="#bfbfbf" points="484.5,-6 484.5,-25 600.5,-25 600.5,-6 484.5,-6"/>
<text text-anchor="middle" x="542.5" y="-13" font-family="Helvetica,sans-Serif" font-size="10.00">pcl/common/centroid.h</text>
</g>
<!-- Node8&#45;&gt;Node13 -->
<g id="edge15" class="edge"><title>Node8&#45;&gt;Node13</title>
<path fill="none" stroke="midnightblue" d="M438.359,-67.396C461.386,-56.1424 493.39,-40.501 515.823,-29.5375"/>
<polygon fill="midnightblue" stroke="midnightblue" points="517.646,-32.5425 525.093,-25.007 514.572,-26.2534 517.646,-32.5425"/>
</g>
<!-- Node14 -->
<g id="node14" class="node"><title>Node14</title>
<polygon fill="white" stroke="#bfbfbf" points="618.5,-6 618.5,-25 718.5,-25 718.5,-6 618.5,-6"/>
<text text-anchor="middle" x="668.5" y="-13" font-family="Helvetica,sans-Serif" font-size="10.00">pcl/search/kdtree.h</text>
</g>
<!-- Node8&#45;&gt;Node14 -->
<g id="edge16" class="edge"><title>Node8&#45;&gt;Node14</title>
<path fill="none" stroke="midnightblue" d="M455.636,-69.5169C458.973,-68.6615 462.288,-67.8154 465.5,-67 519.97,-53.1732 582.76,-37.6107 623.911,-27.4627"/>
<polygon fill="midnightblue" stroke="midnightblue" points="624.76,-30.8583 633.632,-25.0669 623.084,-24.0617 624.76,-30.8583"/>
</g>
</g>
</svg>
