<?xml version="1.0" encoding="UTF-8" standalone="no"?>
<!DOCTYPE svg PUBLIC "-//W3C//DTD SVG 1.1//EN"
 "http://www.w3.org/Graphics/SVG/1.1/DTD/svg11.dtd">
<!-- Generated by graphviz version 2.38.0 (20140413.2041)
 -->
<!-- Title: /home/jc/THESIS/hull_abstraction/benchmark/include Pages: 1 -->
<svg width="414pt" height="183pt"
 viewBox="0.00 0.00 414.00 183.00" xmlns="http://www.w3.org/2000/svg" xmlns:xlink="http://www.w3.org/1999/xlink">
<g id="graph0" class="graph" transform="scale(1 1) rotate(0) translate(4 179)">
<title>/home/jc/THESIS/hull_abstraction/benchmark/include</title>
<polygon fill="white" stroke="none" points="-4,4 -4,-179 410,-179 410,4 -4,4"/>
<g id="clust1" class="cluster"><title>clusterdir_44cec6e3ea30e076b9313c4641539d9f</title>
<g id="a_clust1"><a xlink:href="dir_44cec6e3ea30e076b9313c4641539d9f.html" target="_top" xlink:title="benchmark">
<polygon fill="#ddddee" stroke="black" points="8,-8 8,-167 398,-167 398,-8 8,-8"/>
<text text-anchor="middle" x="203" y="-155" font-family="Helvetica,sans-Serif" font-size="10.00">benchmark</text>
</a>
</g>
</g>
<g id="clust2" class="cluster"><title>clusterdir_c9be9173870f327345d33414c30b89d4</title>
<g id="a_clust2"><a xlink:href="dir_c9be9173870f327345d33414c30b89d4.html" target="_top">
<polygon fill="#eeeeff" stroke="black" points="16,-16 16,-140 390,-140 390,-16 16,-16"/>
</a>
</g>
</g>
<!-- dir_c9be9173870f327345d33414c30b89d4 -->
<g id="node1" class="node"><title>dir_c9be9173870f327345d33414c30b89d4</title>
<text text-anchor="middle" x="355" y="-111.5" font-family="Helvetica,sans-Serif" font-size="10.00">include</text>
</g>
<!-- dir_5e8402887e278caa18077aaea61a57ea -->
<g id="node2" class="node"><title>dir_5e8402887e278caa18077aaea61a57ea</title>
<g id="a_node2"><a xlink:href="dir_5e8402887e278caa18077aaea61a57ea.html" target="_top" xlink:title="benchmark">
<polygon fill="white" stroke="black" points="100.5,-60 35.5,-60 35.5,-24 100.5,-24 100.5,-60"/>
<text text-anchor="middle" x="68" y="-39.5" font-family="Helvetica,sans-Serif" font-size="10.00">benchmark</text>
</a>
</g>
</g>
<!-- dir_0faec02b5e59c29a03f0ac5ab6446124 -->
<g id="node3" class="node"><title>dir_0faec02b5e59c29a03f0ac5ab6446124</title>
<g id="a_node3"><a xlink:href="dir_0faec02b5e59c29a03f0ac5ab6446124.html" target="_top" xlink:title="hull_abstraction">
<polygon fill="white" stroke="black" points="309.5,-132 224.5,-132 224.5,-96 309.5,-96 309.5,-132"/>
<text text-anchor="middle" x="267" y="-111.5" font-family="Helvetica,sans-Serif" font-size="10.00">hull_abstraction</text>
</a>
</g>
</g>
<!-- dir_b7f6629d6569aa20b7e6ae16ecc37c7e -->
<g id="node4" class="node"><title>dir_b7f6629d6569aa20b7e6ae16ecc37c7e</title>
<g id="a_node4"><a xlink:href="dir_b7f6629d6569aa20b7e6ae16ecc37c7e.html" target="_top" xlink:title="pcl_utilization">
<polygon fill="white" stroke="black" points="206,-132 130,-132 130,-96 206,-96 206,-132"/>
<text text-anchor="middle" x="168" y="-111.5" font-family="Helvetica,sans-Serif" font-size="10.00">pcl_utilization</text>
</a>
</g>
</g>
<!-- dir_f2e1bca2aec09c719163ca6119d4bbb0 -->
<g id="node5" class="node"><title>dir_f2e1bca2aec09c719163ca6119d4bbb0</title>
<g id="a_node5"><a xlink:href="dir_f2e1bca2aec09c719163ca6119d4bbb0.html" target="_top" xlink:title="point_generation">
<polygon fill="white" stroke="black" points="112,-132 24,-132 24,-96 112,-96 112,-132"/>
<text text-anchor="middle" x="68" y="-111.5" font-family="Helvetica,sans-Serif" font-size="10.00">point_generation</text>
</a>
</g>
</g>
<!-- dir_f2e1bca2aec09c719163ca6119d4bbb0&#45;&gt;dir_5e8402887e278caa18077aaea61a57ea -->
<g id="edge1" class="edge"><title>dir_f2e1bca2aec09c719163ca6119d4bbb0&#45;&gt;dir_5e8402887e278caa18077aaea61a57ea</title>
<path fill="none" stroke="black" d="M68,-95.6966C68,-87.9827 68,-78.7125 68,-70.1124"/>
<polygon fill="black" stroke="black" points="71.5001,-70.1043 68,-60.1043 64.5001,-70.1044 71.5001,-70.1043"/>
<g id="a_edge1&#45;headlabel"><a xlink:href="dir_000021_000013.html" target="_top" xlink:title="1">
<text text-anchor="middle" x="74.3393" y="-71.199" font-family="Helvetica,sans-Serif" font-size="10.00">1</text>
</a>
</g>
</g>
</g>
</svg>
