<?xml version="1.0" encoding="UTF-8" standalone="no"?>
<!DOCTYPE svg PUBLIC "-//W3C//DTD SVG 1.1//EN"
 "http://www.w3.org/Graphics/SVG/1.1/DTD/svg11.dtd">
<!-- Generated by graphviz version 2.38.0 (20140413.2041)
 -->
<!-- Title: /home/jc/hull_abstraction/benchmark Pages: 1 -->
<svg width="250pt" height="148pt"
 viewBox="0.00 0.00 250.00 148.00" xmlns="http://www.w3.org/2000/svg" xmlns:xlink="http://www.w3.org/1999/xlink">
<g id="graph0" class="graph" transform="scale(1 1) rotate(0) translate(4 144)">
<title>/home/jc/hull_abstraction/benchmark</title>
<polygon fill="white" stroke="none" points="-4,4 -4,-144 246,-144 246,4 -4,4"/>
<g id="clust1" class="cluster"><title>clusterdir_44cec6e3ea30e076b9313c4641539d9f</title>
<g id="a_clust1"><a xlink:href="dir_44cec6e3ea30e076b9313c4641539d9f.html" target="_top">
<polygon fill="#eeeeff" stroke="black" points="8,-8 8,-132 234,-132 234,-8 8,-8"/>
</a>
</g>
</g>
<!-- dir_44cec6e3ea30e076b9313c4641539d9f -->
<g id="node1" class="node"><title>dir_44cec6e3ea30e076b9313c4641539d9f</title>
<text text-anchor="middle" x="193" y="-103.5" font-family="Helvetica,sans-Serif" font-size="10.00">benchmark</text>
</g>
<!-- dir_47a7e803c2e77b6806e8104446774a1d -->
<g id="node2" class="node"><title>dir_47a7e803c2e77b6806e8104446774a1d</title>
<g id="a_node2"><a xlink:href="dir_47a7e803c2e77b6806e8104446774a1d.html" target="_top" xlink:title="build">
<polygon fill="white" stroke="red" points="142,-124 88,-124 88,-88 142,-88 142,-124"/>
<text text-anchor="middle" x="115" y="-103.5" font-family="Helvetica,sans-Serif" font-size="10.00">build</text>
</a>
</g>
</g>
<!-- dir_c9be9173870f327345d33414c30b89d4 -->
<g id="node3" class="node"><title>dir_c9be9173870f327345d33414c30b89d4</title>
<g id="a_node3"><a xlink:href="dir_c9be9173870f327345d33414c30b89d4.html" target="_top" xlink:title="include">
<polygon fill="white" stroke="red" points="70,-52 16,-52 16,-16 70,-16 70,-52"/>
<text text-anchor="middle" x="43" y="-31.5" font-family="Helvetica,sans-Serif" font-size="10.00">include</text>
</a>
</g>
</g>
<!-- dir_5b32b0c8d196e0bee0bc7bd37f53bc55 -->
<g id="node4" class="node"><title>dir_5b32b0c8d196e0bee0bc7bd37f53bc55</title>
<g id="a_node4"><a xlink:href="dir_5b32b0c8d196e0bee0bc7bd37f53bc55.html" target="_top" xlink:title="src">
<polygon fill="white" stroke="red" points="70,-124 16,-124 16,-88 70,-88 70,-124"/>
<text text-anchor="middle" x="43" y="-103.5" font-family="Helvetica,sans-Serif" font-size="10.00">src</text>
</a>
</g>
</g>
<!-- dir_5b32b0c8d196e0bee0bc7bd37f53bc55&#45;&gt;dir_c9be9173870f327345d33414c30b89d4 -->
<g id="edge1" class="edge"><title>dir_5b32b0c8d196e0bee0bc7bd37f53bc55&#45;&gt;dir_c9be9173870f327345d33414c30b89d4</title>
<path fill="none" stroke="black" d="M43,-87.6966C43,-79.9827 43,-70.7125 43,-62.1124"/>
<polygon fill="black" stroke="black" points="46.5001,-62.1043 43,-52.1043 39.5001,-62.1044 46.5001,-62.1043"/>
<g id="a_edge1&#45;headlabel"><a xlink:href="dir_000021_000012.html" target="_top" xlink:title="2">
<text text-anchor="middle" x="49.3393" y="-63.199" font-family="Helvetica,sans-Serif" font-size="10.00">2</text>
</a>
</g>
</g>
</g>
</svg>
