<?xml version="1.0" encoding="UTF-8" standalone="no"?>
<!DOCTYPE svg PUBLIC "-//W3C//DTD SVG 1.1//EN"
 "http://www.w3.org/Graphics/SVG/1.1/DTD/svg11.dtd">
<!-- Generated by graphviz version 2.38.0 (20140413.2041)
 -->
<!-- Title: /home/jc/hull_abstraction/benchmark/src Pages: 1 -->
<svg width="391pt" height="159pt"
 viewBox="0.00 0.00 391.00 159.00" xmlns="http://www.w3.org/2000/svg" xmlns:xlink="http://www.w3.org/1999/xlink">
<g id="graph0" class="graph" transform="scale(1 1) rotate(0) translate(4 155)">
<title>/home/jc/hull_abstraction/benchmark/src</title>
<polygon fill="white" stroke="none" points="-4,4 -4,-155 387,-155 387,4 -4,4"/>
<g id="clust1" class="cluster"><title>clusterdir_44cec6e3ea30e076b9313c4641539d9f</title>
<g id="a_clust1"><a xlink:href="dir_44cec6e3ea30e076b9313c4641539d9f.html" target="_top" xlink:title="benchmark">
<polygon fill="#ddddee" stroke="black" points="8,-56 8,-143 375,-143 375,-56 8,-56"/>
<text text-anchor="middle" x="191.5" y="-131" font-family="Helvetica,sans-Serif" font-size="10.00">benchmark</text>
</a>
</g>
</g>
<g id="clust2" class="cluster"><title>clusterdir_5b32b0c8d196e0bee0bc7bd37f53bc55</title>
<g id="a_clust2"><a xlink:href="dir_5b32b0c8d196e0bee0bc7bd37f53bc55.html" target="_top">
<polygon fill="#eeeeff" stroke="black" points="16,-64 16,-116 367,-116 367,-64 16,-64"/>
</a>
</g>
</g>
<!-- dir_5b32b0c8d196e0bee0bc7bd37f53bc55 -->
<g id="node1" class="node"><title>dir_5b32b0c8d196e0bee0bc7bd37f53bc55</title>
<text text-anchor="middle" x="332" y="-87.5" font-family="Helvetica,sans-Serif" font-size="10.00">src</text>
</g>
<!-- dir_93a1f5b8296fe1733dc0daad715b698b -->
<g id="node2" class="node"><title>dir_93a1f5b8296fe1733dc0daad715b698b</title>
<g id="a_node2"><a xlink:href="dir_93a1f5b8296fe1733dc0daad715b698b.html" target="_top" xlink:title="benchmark">
<polygon fill="white" stroke="black" points="286.5,-108 221.5,-108 221.5,-72 286.5,-72 286.5,-108"/>
<text text-anchor="middle" x="254" y="-87.5" font-family="Helvetica,sans-Serif" font-size="10.00">benchmark</text>
</a>
</g>
</g>
<!-- dir_c9be9173870f327345d33414c30b89d4 -->
<g id="node5" class="node"><title>dir_c9be9173870f327345d33414c30b89d4</title>
<g id="a_node5"><a xlink:href="dir_c9be9173870f327345d33414c30b89d4.html" target="_top" xlink:title="include">
<polygon fill="white" stroke="red" points="281,-36 227,-36 227,-0 281,-0 281,-36"/>
<text text-anchor="middle" x="254" y="-15.5" font-family="Helvetica,sans-Serif" font-size="10.00">include</text>
</a>
</g>
</g>
<!-- dir_93a1f5b8296fe1733dc0daad715b698b&#45;&gt;dir_c9be9173870f327345d33414c30b89d4 -->
<g id="edge1" class="edge"><title>dir_93a1f5b8296fe1733dc0daad715b698b&#45;&gt;dir_c9be9173870f327345d33414c30b89d4</title>
<path fill="none" stroke="black" d="M254,-71.6966C254,-63.9827 254,-54.7125 254,-46.1124"/>
<polygon fill="black" stroke="black" points="257.5,-46.1043 254,-36.1043 250.5,-46.1044 257.5,-46.1043"/>
<g id="a_edge1&#45;headlabel"><a xlink:href="dir_000022_000012.html" target="_top" xlink:title="1">
<text text-anchor="middle" x="260.339" y="-47.199" font-family="Helvetica,sans-Serif" font-size="10.00">1</text>
</a>
</g>
</g>
<!-- dir_301ec2606c049aebb27b3286b797e27d -->
<g id="node3" class="node"><title>dir_301ec2606c049aebb27b3286b797e27d</title>
<g id="a_node3"><a xlink:href="dir_301ec2606c049aebb27b3286b797e27d.html" target="_top" xlink:title="hull_abstraction">
<polygon fill="white" stroke="black" points="203.5,-108 118.5,-108 118.5,-72 203.5,-72 203.5,-108"/>
<text text-anchor="middle" x="161" y="-87.5" font-family="Helvetica,sans-Serif" font-size="10.00">hull_abstraction</text>
</a>
</g>
</g>
<!-- dir_bc9ab48fc7186a001a2d9c49768e6ecb -->
<g id="node4" class="node"><title>dir_bc9ab48fc7186a001a2d9c49768e6ecb</title>
<g id="a_node4"><a xlink:href="dir_bc9ab48fc7186a001a2d9c49768e6ecb.html" target="_top" xlink:title="pcl_utilization">
<polygon fill="white" stroke="black" points="100,-108 24,-108 24,-72 100,-72 100,-108"/>
<text text-anchor="middle" x="62" y="-87.5" font-family="Helvetica,sans-Serif" font-size="10.00">pcl_utilization</text>
</a>
</g>
</g>
</g>
</svg>
