<?xml version="1.0" encoding="UTF-8" standalone="no"?>
<!DOCTYPE svg PUBLIC "-//W3C//DTD SVG 1.1//EN"
 "http://www.w3.org/Graphics/SVG/1.1/DTD/svg11.dtd">
<!-- Generated by graphviz version 2.38.0 (20140413.2041)
 -->
<!-- Title: /home/jc/THESIS/hull_abstraction/ros/src/hull_abstraction Pages: 1 -->
<svg width="286pt" height="111pt"
 viewBox="0.00 0.00 286.00 111.00" xmlns="http://www.w3.org/2000/svg" xmlns:xlink="http://www.w3.org/1999/xlink">
<g id="graph0" class="graph" transform="scale(1 1) rotate(0) translate(4 107)">
<title>/home/jc/THESIS/hull_abstraction/ros/src/hull_abstraction</title>
<polygon fill="white" stroke="none" points="-4,4 -4,-107 282,-107 282,4 -4,4"/>
<g id="clust1" class="cluster"><title>clusterdir_49b54ca7f98dc469780b4bca0e671444</title>
<g id="a_clust1"><a xlink:href="dir_49b54ca7f98dc469780b4bca0e671444.html" target="_top" xlink:title="src">
<polygon fill="#ddddee" stroke="black" points="8,-8 8,-95 270,-95 270,-8 8,-8"/>
<text text-anchor="middle" x="139" y="-83" font-family="Helvetica,sans-Serif" font-size="10.00">src</text>
</a>
</g>
</g>
<g id="clust2" class="cluster"><title>clusterdir_256a2b3af02290e0fc918e131c3b8cf4</title>
<g id="a_clust2"><a xlink:href="dir_256a2b3af02290e0fc918e131c3b8cf4.html" target="_top">
<polygon fill="#eeeeff" stroke="black" points="16,-16 16,-68 262,-68 262,-16 16,-16"/>
</a>
</g>
</g>
<!-- dir_256a2b3af02290e0fc918e131c3b8cf4 -->
<g id="node1" class="node"><title>dir_256a2b3af02290e0fc918e131c3b8cf4</title>
<text text-anchor="middle" x="211" y="-39.5" font-family="Helvetica,sans-Serif" font-size="10.00">hull_abstraction</text>
</g>
<!-- dir_2132a1baf316c08cc1080432d0b1741e -->
<g id="node2" class="node"><title>dir_2132a1baf316c08cc1080432d0b1741e</title>
<g id="a_node2"><a xlink:href="dir_2132a1baf316c08cc1080432d0b1741e.html" target="_top" xlink:title="include">
<polygon fill="white" stroke="red" points="150,-60 96,-60 96,-24 150,-24 150,-60"/>
<text text-anchor="middle" x="123" y="-39.5" font-family="Helvetica,sans-Serif" font-size="10.00">include</text>
</a>
</g>
</g>
<!-- dir_ad7940958c09a400c925d032b2c617d4 -->
<g id="node3" class="node"><title>dir_ad7940958c09a400c925d032b2c617d4</title>
<g id="a_node3"><a xlink:href="dir_ad7940958c09a400c925d032b2c617d4.html" target="_top" xlink:title="src">
<polygon fill="white" stroke="red" points="78,-60 24,-60 24,-24 78,-24 78,-60"/>
<text text-anchor="middle" x="51" y="-39.5" font-family="Helvetica,sans-Serif" font-size="10.00">src</text>
</a>
</g>
</g>
</g>
</svg>
