<?xml version="1.0" encoding="UTF-8" standalone="no"?>
<!DOCTYPE svg PUBLIC "-//W3C//DTD SVG 1.1//EN"
 "http://www.w3.org/Graphics/SVG/1.1/DTD/svg11.dtd">
<!-- Generated by graphviz version 2.38.0 (20140413.2041)
 -->
<!-- Title: /home/jc/THESIS/hull_abstraction/ros/src/hull_abstraction/src Pages: 1 -->
<svg width="1018pt" height="183pt"
 viewBox="0.00 0.00 1018.00 183.00" xmlns="http://www.w3.org/2000/svg" xmlns:xlink="http://www.w3.org/1999/xlink">
<g id="graph0" class="graph" transform="scale(1 1) rotate(0) translate(4 179)">
<title>/home/jc/THESIS/hull_abstraction/ros/src/hull_abstraction/src</title>
<polygon fill="white" stroke="none" points="-4,4 -4,-179 1014,-179 1014,4 -4,4"/>
<g id="clust1" class="cluster"><title>clusterdir_256a2b3af02290e0fc918e131c3b8cf4</title>
<g id="a_clust1"><a xlink:href="dir_256a2b3af02290e0fc918e131c3b8cf4.html" target="_top" xlink:title="hull_abstraction">
<polygon fill="#ddddee" stroke="black" points="8,-8 8,-167 1002,-167 1002,-8 8,-8"/>
<text text-anchor="middle" x="505" y="-155" font-family="Helvetica,sans-Serif" font-size="10.00">hull_abstraction</text>
</a>
</g>
</g>
<g id="clust2" class="cluster"><title>clusterdir_ad7940958c09a400c925d032b2c617d4</title>
<g id="a_clust2"><a xlink:href="dir_ad7940958c09a400c925d032b2c617d4.html" target="_top">
<polygon fill="#eeeeff" stroke="black" points="16,-16 16,-140 994,-140 994,-16 16,-16"/>
</a>
</g>
</g>
<!-- dir_ad7940958c09a400c925d032b2c617d4 -->
<g id="node1" class="node"><title>dir_ad7940958c09a400c925d032b2c617d4</title>
<text text-anchor="middle" x="493" y="-111.5" font-family="Helvetica,sans-Serif" font-size="10.00">src</text>
</g>
<!-- dir_cce7d7744b78b55887bdc5e16b100d08 -->
<g id="node2" class="node"><title>dir_cce7d7744b78b55887bdc5e16b100d08</title>
<g id="a_node2"><a xlink:href="dir_cce7d7744b78b55887bdc5e16b100d08.html" target="_top" xlink:title="bspline_surface_fitting_node">
<polygon fill="white" stroke="black" points="164,-60 24,-60 24,-24 164,-24 164,-60"/>
<text text-anchor="middle" x="94" y="-39.5" font-family="Helvetica,sans-Serif" font-size="10.00">bspline_surface_fitting_node</text>
</a>
</g>
</g>
<!-- dir_ad7940958c09a400c925d032b2c617d4&#45;&gt;dir_cce7d7744b78b55887bdc5e16b100d08 -->
<g id="edge2" class="edge"><title>dir_ad7940958c09a400c925d032b2c617d4&#45;&gt;dir_cce7d7744b78b55887bdc5e16b100d08</title>
<path fill="none" stroke="black" d="M465.839,-108.139C446.401,-104.685 419.604,-99.9734 396,-96 300.092,-79.8551 273.318,-78.6299 174.014,-60.1423"/>
<polygon fill="black" stroke="black" points="174.647,-56.7 164.173,-58.2982 173.357,-63.5802 174.647,-56.7"/>
<g id="a_edge2&#45;headlabel"><a xlink:href="dir_000025_000036.html" target="_top" xlink:title="1">
<text text-anchor="middle" x="178.703" y="-52.0712" font-family="Helvetica,sans-Serif" font-size="10.00">1</text>
</a>
</g>
</g>
<!-- dir_95791181d3b1f24d8d6859756123c285 -->
<g id="node3" class="node"><title>dir_95791181d3b1f24d8d6859756123c285</title>
<g id="a_node3"><a xlink:href="dir_95791181d3b1f24d8d6859756123c285.html" target="_top" xlink:title="display_mesh_node">
<polygon fill="white" stroke="black" points="285.5,-60 182.5,-60 182.5,-24 285.5,-24 285.5,-60"/>
<text text-anchor="middle" x="234" y="-39.5" font-family="Helvetica,sans-Serif" font-size="10.00">display_mesh_node</text>
</a>
</g>
</g>
<!-- dir_ad7940958c09a400c925d032b2c617d4&#45;&gt;dir_95791181d3b1f24d8d6859756123c285 -->
<g id="edge5" class="edge"><title>dir_ad7940958c09a400c925d032b2c617d4&#45;&gt;dir_95791181d3b1f24d8d6859756123c285</title>
<path fill="none" stroke="black" d="M465.753,-105.801C429.346,-96.1617 362.573,-78.4105 295.473,-60.1155"/>
<polygon fill="black" stroke="black" points="296.143,-56.6704 285.574,-57.4132 294.3,-63.4233 296.143,-56.6704"/>
<g id="a_edge5&#45;headlabel"><a xlink:href="dir_000025_000037.html" target="_top" xlink:title="1">
<text text-anchor="middle" x="300.359" y="-52.378" font-family="Helvetica,sans-Serif" font-size="10.00">1</text>
</a>
</g>
</g>
<!-- dir_4aa48766fd414238054ba1187c78bbfe -->
<g id="node4" class="node"><title>dir_4aa48766fd414238054ba1187c78bbfe</title>
<g id="a_node4"><a xlink:href="dir_4aa48766fd414238054ba1187c78bbfe.html" target="_top" xlink:title="greedy_triangulation_node">
<polygon fill="white" stroke="black" points="434,-60 304,-60 304,-24 434,-24 434,-60"/>
<text text-anchor="middle" x="369" y="-39.5" font-family="Helvetica,sans-Serif" font-size="10.00">greedy_triangulation_node</text>
</a>
</g>
</g>
<!-- dir_ad7940958c09a400c925d032b2c617d4&#45;&gt;dir_4aa48766fd414238054ba1187c78bbfe -->
<g id="edge7" class="edge"><title>dir_ad7940958c09a400c925d032b2c617d4&#45;&gt;dir_4aa48766fd414238054ba1187c78bbfe</title>
<path fill="none" stroke="black" d="M465.788,-97.6382C448.878,-88.0925 426.864,-75.6653 408.104,-65.0749"/>
<polygon fill="black" stroke="black" points="409.621,-61.9123 399.193,-60.0442 406.18,-68.0081 409.621,-61.9123"/>
<g id="a_edge7&#45;headlabel"><a xlink:href="dir_000025_000038.html" target="_top" xlink:title="1">
<text text-anchor="middle" x="414.147" y="-58.7068" font-family="Helvetica,sans-Serif" font-size="10.00">1</text>
</a>
</g>
</g>
<!-- dir_ec211a250b7fae15aac370b8d3f319b7 -->
<g id="node6" class="node"><title>dir_ec211a250b7fae15aac370b8d3f319b7</title>
<g id="a_node6"><a xlink:href="dir_ec211a250b7fae15aac370b8d3f319b7.html" target="_top" xlink:title="load_pcd_node">
<polygon fill="white" stroke="black" points="534,-60 452,-60 452,-24 534,-24 534,-60"/>
<text text-anchor="middle" x="493" y="-39.5" font-family="Helvetica,sans-Serif" font-size="10.00">load_pcd_node</text>
</a>
</g>
</g>
<!-- dir_ad7940958c09a400c925d032b2c617d4&#45;&gt;dir_ec211a250b7fae15aac370b8d3f319b7 -->
<g id="edge3" class="edge"><title>dir_ad7940958c09a400c925d032b2c617d4&#45;&gt;dir_ec211a250b7fae15aac370b8d3f319b7</title>
<path fill="none" stroke="black" d="M493,-95.6966C493,-87.9827 493,-78.7125 493,-70.1124"/>
<polygon fill="black" stroke="black" points="496.5,-70.1043 493,-60.1043 489.5,-70.1044 496.5,-70.1043"/>
<g id="a_edge3&#45;headlabel"><a xlink:href="dir_000025_000039.html" target="_top" xlink:title="1">
<text text-anchor="middle" x="499.339" y="-71.199" font-family="Helvetica,sans-Serif" font-size="10.00">1</text>
</a>
</g>
</g>
<!-- dir_cbb830aa35877ff3e76e61c86bbccbd5 -->
<g id="node7" class="node"><title>dir_cbb830aa35877ff3e76e61c86bbccbd5</title>
<g id="a_node7"><a xlink:href="dir_cbb830aa35877ff3e76e61c86bbccbd5.html" target="_top" xlink:title="marching_cubes_node">
<polygon fill="white" stroke="black" points="666,-60 552,-60 552,-24 666,-24 666,-60"/>
<text text-anchor="middle" x="609" y="-39.5" font-family="Helvetica,sans-Serif" font-size="10.00">marching_cubes_node</text>
</a>
</g>
</g>
<!-- dir_ad7940958c09a400c925d032b2c617d4&#45;&gt;dir_cbb830aa35877ff3e76e61c86bbccbd5 -->
<g id="edge1" class="edge"><title>dir_ad7940958c09a400c925d032b2c617d4&#45;&gt;dir_cbb830aa35877ff3e76e61c86bbccbd5</title>
<path fill="none" stroke="black" d="M520.197,-96.5881C535.565,-87.314 554.999,-75.587 571.765,-65.4695"/>
<polygon fill="black" stroke="black" points="574.009,-68.2034 580.762,-60.04 570.392,-62.21 574.009,-68.2034"/>
<g id="a_edge1&#45;headlabel"><a xlink:href="dir_000025_000040.html" target="_top" xlink:title="1">
<text text-anchor="middle" x="572.398" y="-69.9915" font-family="Helvetica,sans-Serif" font-size="10.00">1</text>
</a>
</g>
</g>
<!-- dir_c89ad819976b74e5e6551154007fa249 -->
<g id="node8" class="node"><title>dir_c89ad819976b74e5e6551154007fa249</title>
<g id="a_node8"><a xlink:href="dir_c89ad819976b74e5e6551154007fa249.html" target="_top" xlink:title="moving_least_squares_node">
<polygon fill="white" stroke="black" points="824,-60 684,-60 684,-24 824,-24 824,-60"/>
<text text-anchor="middle" x="754" y="-39.5" font-family="Helvetica,sans-Serif" font-size="10.00">moving_least_squares_node</text>
</a>
</g>
</g>
<!-- dir_ad7940958c09a400c925d032b2c617d4&#45;&gt;dir_c89ad819976b74e5e6551154007fa249 -->
<g id="edge4" class="edge"><title>dir_ad7940958c09a400c925d032b2c617d4&#45;&gt;dir_c89ad819976b74e5e6551154007fa249</title>
<path fill="none" stroke="black" d="M520.438,-105.641C558.141,-95.5292 627.354,-76.9663 680.685,-62.6631"/>
<polygon fill="black" stroke="black" points="681.695,-66.0159 690.447,-60.0449 679.882,-59.2549 681.695,-66.0159"/>
<g id="a_edge4&#45;headlabel"><a xlink:href="dir_000025_000041.html" target="_top" xlink:title="1">
<text text-anchor="middle" x="678.958" y="-67.1894" font-family="Helvetica,sans-Serif" font-size="10.00">1</text>
</a>
</g>
</g>
<!-- dir_16a449ea048d444c490deba2b5e06d8e -->
<g id="node10" class="node"><title>dir_16a449ea048d444c490deba2b5e06d8e</title>
<g id="a_node10"><a xlink:href="dir_16a449ea048d444c490deba2b5e06d8e.html" target="_top" xlink:title="poisson_reconstruction_node">
<polygon fill="white" stroke="black" points="985.5,-60 842.5,-60 842.5,-24 985.5,-24 985.5,-60"/>
<text text-anchor="middle" x="914" y="-39.5" font-family="Helvetica,sans-Serif" font-size="10.00">poisson_reconstruction_node</text>
</a>
</g>
</g>
<!-- dir_ad7940958c09a400c925d032b2c617d4&#45;&gt;dir_16a449ea048d444c490deba2b5e06d8e -->
<g id="edge6" class="edge"><title>dir_ad7940958c09a400c925d032b2c617d4&#45;&gt;dir_16a449ea048d444c490deba2b5e06d8e</title>
<path fill="none" stroke="black" d="M520.406,-109.224C576.769,-101.351 709.958,-82.2027 832.551,-60.0285"/>
<polygon fill="black" stroke="black" points="833.275,-63.4545 842.486,-58.2205 832.021,-56.5676 833.275,-63.4545"/>
<g id="a_edge6&#45;headlabel"><a xlink:href="dir_000025_000042.html" target="_top" xlink:title="1">
<text text-anchor="middle" x="830.246" y="-64.3914" font-family="Helvetica,sans-Serif" font-size="10.00">1</text>
</a>
</g>
</g>
<!-- dir_8f8c1d5ffce4c0d2ae8fba023f37f231 -->
<g id="node5" class="node"><title>dir_8f8c1d5ffce4c0d2ae8fba023f37f231</title>
<g id="a_node5"><a xlink:href="dir_8f8c1d5ffce4c0d2ae8fba023f37f231.html" target="_top" xlink:title="hull_abstraction">
<polygon fill="white" stroke="black" points="386.5,-132 301.5,-132 301.5,-96 386.5,-96 386.5,-132"/>
<text text-anchor="middle" x="344" y="-111.5" font-family="Helvetica,sans-Serif" font-size="10.00">hull_abstraction</text>
</a>
</g>
</g>
<!-- dir_c99e516405578a203dd31766d637c361 -->
<g id="node9" class="node"><title>dir_c99e516405578a203dd31766d637c361</title>
<g id="a_node9"><a xlink:href="dir_c99e516405578a203dd31766d637c361.html" target="_top" xlink:title="pcl_utilization">
<polygon fill="white" stroke="black" points="161,-132 85,-132 85,-96 161,-96 161,-132"/>
<text text-anchor="middle" x="123" y="-111.5" font-family="Helvetica,sans-Serif" font-size="10.00">pcl_utilization</text>
</a>
</g>
</g>
</g>
</svg>
