<?xml version="1.0" encoding="UTF-8" standalone="no"?>
<!DOCTYPE svg PUBLIC "-//W3C//DTD SVG 1.1//EN"
 "http://www.w3.org/Graphics/SVG/1.1/DTD/svg11.dtd">
<!-- Generated by graphviz version 2.38.0 (20140413.2041)
 -->
<!-- Title: /home/jc/hull_abstraction/ros/src/hull_abstraction/src Pages: 1 -->
<svg width="886pt" height="231pt"
 viewBox="0.00 0.00 886.00 231.00" xmlns="http://www.w3.org/2000/svg" xmlns:xlink="http://www.w3.org/1999/xlink">
<g id="graph0" class="graph" transform="scale(1 1) rotate(0) translate(4 227)">
<title>/home/jc/hull_abstraction/ros/src/hull_abstraction/src</title>
<polygon fill="white" stroke="none" points="-4,4 -4,-227 882,-227 882,4 -4,4"/>
<g id="clust1" class="cluster"><title>clusterdir_256a2b3af02290e0fc918e131c3b8cf4</title>
<g id="a_clust1"><a xlink:href="dir_256a2b3af02290e0fc918e131c3b8cf4.html" target="_top" xlink:title="hull_abstraction">
<polygon fill="#ddddee" stroke="black" points="8,-56 8,-215 870,-215 870,-56 8,-56"/>
<text text-anchor="middle" x="439" y="-203" font-family="Helvetica,sans-Serif" font-size="10.00">hull_abstraction</text>
</a>
</g>
</g>
<g id="clust2" class="cluster"><title>clusterdir_ad7940958c09a400c925d032b2c617d4</title>
<g id="a_clust2"><a xlink:href="dir_ad7940958c09a400c925d032b2c617d4.html" target="_top">
<polygon fill="#eeeeff" stroke="black" points="16,-64 16,-188 862,-188 862,-64 16,-64"/>
</a>
</g>
</g>
<!-- dir_ad7940958c09a400c925d032b2c617d4 -->
<g id="node1" class="node"><title>dir_ad7940958c09a400c925d032b2c617d4</title>
<text text-anchor="middle" x="431" y="-159.5" font-family="Helvetica,sans-Serif" font-size="10.00">src</text>
</g>
<!-- dir_cce7d7744b78b55887bdc5e16b100d08 -->
<g id="node2" class="node"><title>dir_cce7d7744b78b55887bdc5e16b100d08</title>
<g id="a_node2"><a xlink:href="dir_cce7d7744b78b55887bdc5e16b100d08.html" target="_top" xlink:title="bspline_surface_fitting_node">
<polygon fill="white" stroke="black" points="164,-108 24,-108 24,-72 164,-72 164,-108"/>
<text text-anchor="middle" x="94" y="-87.5" font-family="Helvetica,sans-Serif" font-size="10.00">bspline_surface_fitting_node</text>
</a>
</g>
</g>
<!-- dir_ad7940958c09a400c925d032b2c617d4&#45;&gt;dir_cce7d7744b78b55887bdc5e16b100d08 -->
<g id="edge4" class="edge"><title>dir_ad7940958c09a400c925d032b2c617d4&#45;&gt;dir_cce7d7744b78b55887bdc5e16b100d08</title>
<path fill="none" stroke="black" d="M403.867,-155.513C358.487,-146.317 264.072,-127.105 174.027,-108.207"/>
<polygon fill="black" stroke="black" points="174.71,-104.774 164.204,-106.143 173.271,-111.624 174.71,-104.774"/>
<g id="a_edge4&#45;headlabel"><a xlink:href="dir_000020_000029.html" target="_top" xlink:title="1">
<text text-anchor="middle" x="178.812" y="-100.235" font-family="Helvetica,sans-Serif" font-size="10.00">1</text>
</a>
</g>
</g>
<!-- dir_95791181d3b1f24d8d6859756123c285 -->
<g id="node3" class="node"><title>dir_95791181d3b1f24d8d6859756123c285</title>
<g id="a_node3"><a xlink:href="dir_95791181d3b1f24d8d6859756123c285.html" target="_top" xlink:title="display_mesh_node">
<polygon fill="white" stroke="black" points="285.5,-108 182.5,-108 182.5,-72 285.5,-72 285.5,-108"/>
<text text-anchor="middle" x="234" y="-87.5" font-family="Helvetica,sans-Serif" font-size="10.00">display_mesh_node</text>
</a>
</g>
</g>
<!-- dir_ad7940958c09a400c925d032b2c617d4&#45;&gt;dir_95791181d3b1f24d8d6859756123c285 -->
<g id="edge7" class="edge"><title>dir_ad7940958c09a400c925d032b2c617d4&#45;&gt;dir_95791181d3b1f24d8d6859756123c285</title>
<path fill="none" stroke="black" d="M403.608,-151.267C374.784,-141.025 328.565,-124.602 291.649,-111.485"/>
<polygon fill="black" stroke="black" points="292.59,-108.104 281.995,-108.054 290.246,-114.7 292.59,-108.104"/>
<g id="a_edge7&#45;headlabel"><a xlink:href="dir_000020_000030.html" target="_top" xlink:title="1">
<text text-anchor="middle" x="296.927" y="-104.132" font-family="Helvetica,sans-Serif" font-size="10.00">1</text>
</a>
</g>
</g>
<!-- dir_4aa48766fd414238054ba1187c78bbfe -->
<g id="node4" class="node"><title>dir_4aa48766fd414238054ba1187c78bbfe</title>
<g id="a_node4"><a xlink:href="dir_4aa48766fd414238054ba1187c78bbfe.html" target="_top" xlink:title="greedy_triangulation_node">
<polygon fill="white" stroke="black" points="434,-108 304,-108 304,-72 434,-72 434,-108"/>
<text text-anchor="middle" x="369" y="-87.5" font-family="Helvetica,sans-Serif" font-size="10.00">greedy_triangulation_node</text>
</a>
</g>
</g>
<!-- dir_ad7940958c09a400c925d032b2c617d4&#45;&gt;dir_4aa48766fd414238054ba1187c78bbfe -->
<g id="edge9" class="edge"><title>dir_ad7940958c09a400c925d032b2c617d4&#45;&gt;dir_4aa48766fd414238054ba1187c78bbfe</title>
<path fill="none" stroke="black" d="M415.674,-143.697C408.241,-135.305 399.177,-125.07 391.02,-115.861"/>
<polygon fill="black" stroke="black" points="393.4,-113.27 384.15,-108.104 388.16,-117.911 393.4,-113.27"/>
<g id="a_edge9&#45;headlabel"><a xlink:href="dir_000020_000031.html" target="_top" xlink:title="1">
<text text-anchor="middle" x="397.909" y="-111.578" font-family="Helvetica,sans-Serif" font-size="10.00">1</text>
</a>
</g>
</g>
<!-- dir_ec211a250b7fae15aac370b8d3f319b7 -->
<g id="node6" class="node"><title>dir_ec211a250b7fae15aac370b8d3f319b7</title>
<g id="a_node6"><a xlink:href="dir_ec211a250b7fae15aac370b8d3f319b7.html" target="_top" xlink:title="load_pcd_node">
<polygon fill="white" stroke="black" points="534,-108 452,-108 452,-72 534,-72 534,-108"/>
<text text-anchor="middle" x="493" y="-87.5" font-family="Helvetica,sans-Serif" font-size="10.00">load_pcd_node</text>
</a>
</g>
</g>
<!-- dir_ad7940958c09a400c925d032b2c617d4&#45;&gt;dir_ec211a250b7fae15aac370b8d3f319b7 -->
<g id="edge5" class="edge"><title>dir_ad7940958c09a400c925d032b2c617d4&#45;&gt;dir_ec211a250b7fae15aac370b8d3f319b7</title>
<path fill="none" stroke="black" d="M446.326,-143.697C453.759,-135.305 462.823,-125.07 470.98,-115.861"/>
<polygon fill="black" stroke="black" points="473.84,-117.911 477.85,-108.104 468.6,-113.27 473.84,-117.911"/>
<g id="a_edge5&#45;headlabel"><a xlink:href="dir_000020_000032.html" target="_top" xlink:title="1">
<text text-anchor="middle" x="473.582" y="-119.984" font-family="Helvetica,sans-Serif" font-size="10.00">1</text>
</a>
</g>
</g>
<!-- dir_c89ad819976b74e5e6551154007fa249 -->
<g id="node7" class="node"><title>dir_c89ad819976b74e5e6551154007fa249</title>
<g id="a_node7"><a xlink:href="dir_c89ad819976b74e5e6551154007fa249.html" target="_top" xlink:title="moving_least_squares_node">
<polygon fill="white" stroke="black" points="692,-108 552,-108 552,-72 692,-72 692,-108"/>
<text text-anchor="middle" x="622" y="-87.5" font-family="Helvetica,sans-Serif" font-size="10.00">moving_least_squares_node</text>
</a>
</g>
</g>
<!-- dir_ad7940958c09a400c925d032b2c617d4&#45;&gt;dir_c89ad819976b74e5e6551154007fa249 -->
<g id="edge6" class="edge"><title>dir_ad7940958c09a400c925d032b2c617d4&#45;&gt;dir_c89ad819976b74e5e6551154007fa249</title>
<path fill="none" stroke="black" d="M458.366,-150.971C486.274,-140.742 530.382,-124.577 565.774,-111.606"/>
<polygon fill="black" stroke="black" points="567.32,-114.767 575.505,-108.04 564.911,-108.195 567.32,-114.767"/>
<g id="a_edge6&#45;headlabel"><a xlink:href="dir_000020_000033.html" target="_top" xlink:title="1">
<text text-anchor="middle" x="564.922" y="-116.17" font-family="Helvetica,sans-Serif" font-size="10.00">1</text>
</a>
</g>
</g>
<!-- dir_16a449ea048d444c490deba2b5e06d8e -->
<g id="node9" class="node"><title>dir_16a449ea048d444c490deba2b5e06d8e</title>
<g id="a_node9"><a xlink:href="dir_16a449ea048d444c490deba2b5e06d8e.html" target="_top" xlink:title="poisson_reconstruction_node">
<polygon fill="white" stroke="black" points="853.5,-108 710.5,-108 710.5,-72 853.5,-72 853.5,-108"/>
<text text-anchor="middle" x="782" y="-87.5" font-family="Helvetica,sans-Serif" font-size="10.00">poisson_reconstruction_node</text>
</a>
</g>
</g>
<!-- dir_ad7940958c09a400c925d032b2c617d4&#45;&gt;dir_16a449ea048d444c490deba2b5e06d8e -->
<g id="edge8" class="edge"><title>dir_ad7940958c09a400c925d032b2c617d4&#45;&gt;dir_16a449ea048d444c490deba2b5e06d8e</title>
<path fill="none" stroke="black" d="M458.233,-155.776C505.3,-146.721 605.154,-127.396 700.368,-108.115"/>
<polygon fill="black" stroke="black" points="701.352,-111.486 710.457,-106.068 699.961,-104.626 701.352,-111.486"/>
<g id="a_edge8&#45;headlabel"><a xlink:href="dir_000020_000035.html" target="_top" xlink:title="1">
<text text-anchor="middle" x="698.394" y="-112.483" font-family="Helvetica,sans-Serif" font-size="10.00">1</text>
</a>
</g>
</g>
<!-- dir_2132a1baf316c08cc1080432d0b1741e -->
<g id="node10" class="node"><title>dir_2132a1baf316c08cc1080432d0b1741e</title>
<g id="a_node10"><a xlink:href="dir_2132a1baf316c08cc1080432d0b1741e.html" target="_top" xlink:title="include">
<polygon fill="white" stroke="red" points="328,-36 274,-36 274,-0 328,-0 328,-36"/>
<text text-anchor="middle" x="301" y="-15.5" font-family="Helvetica,sans-Serif" font-size="10.00">include</text>
</a>
</g>
</g>
<!-- dir_cce7d7744b78b55887bdc5e16b100d08&#45;&gt;dir_2132a1baf316c08cc1080432d0b1741e -->
<g id="edge1" class="edge"><title>dir_cce7d7744b78b55887bdc5e16b100d08&#45;&gt;dir_2132a1baf316c08cc1080432d0b1741e</title>
<path fill="none" stroke="black" d="M132.231,-71.9949C145.066,-66.5643 159.541,-60.739 173,-56 203.242,-45.3521 238.257,-35.3883 264.013,-28.489"/>
<polygon fill="black" stroke="black" points="264.977,-31.8542 273.747,-25.9091 263.184,-25.0879 264.977,-31.8542"/>
<g id="a_edge1&#45;headlabel"><a xlink:href="dir_000029_000016.html" target="_top" xlink:title="1">
<text text-anchor="middle" x="262.23" y="-33.0196" font-family="Helvetica,sans-Serif" font-size="10.00">1</text>
</a>
</g>
</g>
<!-- dir_95791181d3b1f24d8d6859756123c285&#45;&gt;dir_2132a1baf316c08cc1080432d0b1741e -->
<g id="edge3" class="edge"><title>dir_95791181d3b1f24d8d6859756123c285&#45;&gt;dir_2132a1baf316c08cc1080432d0b1741e</title>
<path fill="none" stroke="black" d="M250.562,-71.6966C258.675,-63.2198 268.588,-52.8636 277.471,-43.5826"/>
<polygon fill="black" stroke="black" points="280.243,-45.7486 284.629,-36.1043 275.186,-40.9084 280.243,-45.7486"/>
<g id="a_edge3&#45;headlabel"><a xlink:href="dir_000030_000016.html" target="_top" xlink:title="1">
<text text-anchor="middle" x="279.808" y="-47.8087" font-family="Helvetica,sans-Serif" font-size="10.00">1</text>
</a>
</g>
</g>
<!-- dir_4aa48766fd414238054ba1187c78bbfe&#45;&gt;dir_2132a1baf316c08cc1080432d0b1741e -->
<g id="edge10" class="edge"><title>dir_4aa48766fd414238054ba1187c78bbfe&#45;&gt;dir_2132a1baf316c08cc1080432d0b1741e</title>
<path fill="none" stroke="black" d="M352.191,-71.6966C343.874,-63.135 333.695,-52.6562 324.61,-43.3045"/>
<polygon fill="black" stroke="black" points="327.094,-40.8384 317.616,-36.1043 322.073,-45.7159 327.094,-40.8384"/>
<g id="a_edge10&#45;headlabel"><a xlink:href="dir_000031_000016.html" target="_top" xlink:title="1">
<text text-anchor="middle" x="331.635" y="-38.9384" font-family="Helvetica,sans-Serif" font-size="10.00">1</text>
</a>
</g>
</g>
<!-- dir_8f8c1d5ffce4c0d2ae8fba023f37f231 -->
<g id="node5" class="node"><title>dir_8f8c1d5ffce4c0d2ae8fba023f37f231</title>
<g id="a_node5"><a xlink:href="dir_8f8c1d5ffce4c0d2ae8fba023f37f231.html" target="_top" xlink:title="hull_abstraction">
<polygon fill="white" stroke="black" points="629.5,-180 544.5,-180 544.5,-144 629.5,-144 629.5,-180"/>
<text text-anchor="middle" x="587" y="-159.5" font-family="Helvetica,sans-Serif" font-size="10.00">hull_abstraction</text>
</a>
</g>
</g>
<!-- dir_c99e516405578a203dd31766d637c361 -->
<g id="node8" class="node"><title>dir_c99e516405578a203dd31766d637c361</title>
<g id="a_node8"><a xlink:href="dir_c99e516405578a203dd31766d637c361.html" target="_top" xlink:title="pcl_utilization">
<polygon fill="white" stroke="black" points="854,-180 778,-180 778,-144 854,-144 854,-180"/>
<text text-anchor="middle" x="816" y="-159.5" font-family="Helvetica,sans-Serif" font-size="10.00">pcl_utilization</text>
</a>
</g>
</g>
<!-- dir_c99e516405578a203dd31766d637c361&#45;&gt;dir_2132a1baf316c08cc1080432d0b1741e -->
<g id="edge2" class="edge"><title>dir_c99e516405578a203dd31766d637c361&#45;&gt;dir_2132a1baf316c08cc1080432d0b1741e</title>
<path fill="none" stroke="black" d="M837.267,-143.701C847.109,-134.305 857.763,-121.798 863,-108 871.201,-86.3927 878.796,-72.8703 863,-56 827.238,-17.8065 458.409,-17.6147 338.463,-18.578"/>
<polygon fill="black" stroke="black" points="338.268,-15.0794 328.299,-18.6673 338.329,-22.0792 338.268,-15.0794"/>
<g id="a_edge2&#45;headlabel"><a xlink:href="dir_000034_000016.html" target="_top" xlink:title="1">
<text text-anchor="middle" x="341.837" y="-9.70878" font-family="Helvetica,sans-Serif" font-size="10.00">1</text>
</a>
</g>
</g>
</g>
</svg>
