<?xml version="1.0" encoding="UTF-8" standalone="no"?>
<!DOCTYPE svg PUBLIC "-//W3C//DTD SVG 1.1//EN"
 "http://www.w3.org/Graphics/SVG/1.1/DTD/svg11.dtd">
<!-- Generated by graphviz version 2.38.0 (20140413.2041)
 -->
<!-- Title: /home/jc/hull_abstraction/ros/src/hull_abstraction/src Pages: 1 -->
<!--zoomable 231 -->
<svg id="main" version="1.1" xmlns="http://www.w3.org/2000/svg" xmlns:xlink="http://www.w3.org/1999/xlink" xml:space="preserve" onload="init(evt)">
<style type="text/css"><![CDATA[
.edge:hover path { stroke: red; }
.edge:hover polygon { stroke: red; fill: red; }
]]></style>
<script type="text/javascript"><![CDATA[
var edges = document.getElementsByTagName('g');
if (edges && edges.length) {
  for (var i=0;i<edges.length;i++) {
    if (edges[i].id.substr(0,4)=='edge') {
      edges[i].setAttribute('class','edge');
    }
  }
}
]]></script>
        <defs>
                <circle id="rim" cx="0" cy="0" r="7"/>
                <circle id="rim2" cx="0" cy="0" r="3.5"/>
                <g id="zoomPlus">
                        <use xlink:href="#rim" fill="#404040">
                                <set attributeName="fill" to="#808080" begin="zoomplus.mouseover" end="zoomplus.mouseout"/>
                        </use>
                        <path d="M-4,0h8M0,-4v8" fill="none" stroke="white" stroke-width="1.5" pointer-events="none"/>
                </g>
                <g id="zoomMin">
                        <use xlink:href="#rim" fill="#404040">
                                <set attributeName="fill" to="#808080" begin="zoomminus.mouseover" end="zoomminus.mouseout"/>
                        </use>
                        <path d="M-4,0h8" fill="none" stroke="white" stroke-width="1.5" pointer-events="none"/>
                </g>
                <g id="dirArrow">
                        <path fill="none" stroke="white" stroke-width="1.5" d="M0,-3.0v7 M-2.5,-0.5L0,-3.0L2.5,-0.5"/>
                </g>
               <g id="resetDef">
                       <use xlink:href="#rim2" fill="#404040">
                               <set attributeName="fill" to="#808080" begin="reset.mouseover" end="reset.mouseout"/>
                       </use>
               </g>
        </defs>

<script type="text/javascript">
var viewWidth = 1018;
var viewHeight = 231;
var sectionId = 'dynsection-0';
</script>
<script xlink:href="svgpan.js"/>
<svg id="graph" class="graph">
<g id="viewport">
<title>/home/jc/hull_abstraction/ros/src/hull_abstraction/src</title>
<polygon fill="white" stroke="none" points="-4,4 -4,-227 1014,-227 1014,4 -4,4"/>
<g id="clust1" class="cluster"><title>clusterdir_256a2b3af02290e0fc918e131c3b8cf4</title>
<g id="a_clust1"><a xlink:href="dir_256a2b3af02290e0fc918e131c3b8cf4.html" target="_top" xlink:title="hull_abstraction">
<polygon fill="#ddddee" stroke="black" points="8,-56 8,-215 1002,-215 1002,-56 8,-56"/>
<text text-anchor="middle" x="505" y="-203" font-family="Helvetica,sans-Serif" font-size="10.00">hull_abstraction</text>
</a>
</g>
</g>
<g id="clust2" class="cluster"><title>clusterdir_ad7940958c09a400c925d032b2c617d4</title>
<g id="a_clust2"><a xlink:href="dir_ad7940958c09a400c925d032b2c617d4.html" target="_top">
<polygon fill="#eeeeff" stroke="black" points="16,-64 16,-188 994,-188 994,-64 16,-64"/>
</a>
</g>
</g>
<!-- dir_ad7940958c09a400c925d032b2c617d4 -->
<g id="node1" class="node"><title>dir_ad7940958c09a400c925d032b2c617d4</title>
<text text-anchor="middle" x="477" y="-159.5" font-family="Helvetica,sans-Serif" font-size="10.00">src</text>
</g>
<!-- dir_cce7d7744b78b55887bdc5e16b100d08 -->
<g id="node2" class="node"><title>dir_cce7d7744b78b55887bdc5e16b100d08</title>
<g id="a_node2"><a xlink:href="dir_cce7d7744b78b55887bdc5e16b100d08.html" target="_top" xlink:title="bspline_surface_fitting_node">
<polygon fill="white" stroke="black" points="296,-108 156,-108 156,-72 296,-72 296,-108"/>
<text text-anchor="middle" x="226" y="-87.5" font-family="Helvetica,sans-Serif" font-size="10.00">bspline_surface_fitting_node</text>
</a>
</g>
</g>
<!-- dir_ad7940958c09a400c925d032b2c617d4&#45;&gt;dir_cce7d7744b78b55887bdc5e16b100d08 -->
<g id="edge6" class="edge"><title>dir_ad7940958c09a400c925d032b2c617d4&#45;&gt;dir_cce7d7744b78b55887bdc5e16b100d08</title>
<path fill="none" stroke="black" d="M449.661,-153.376C413.33,-143.243 347.821,-124.974 297.055,-110.816"/>
<polygon fill="black" stroke="black" points="297.685,-107.358 287.112,-108.043 295.804,-114.101 297.685,-107.358"/>
<g id="a_edge6&#45;headlabel"><a xlink:href="dir_000020_000029.html" target="_top" xlink:title="1">
<text text-anchor="middle" x="301.91" y="-103.089" font-family="Helvetica,sans-Serif" font-size="10.00">1</text>
</a>
</g>
</g>
<!-- dir_95791181d3b1f24d8d6859756123c285 -->
<g id="node3" class="node"><title>dir_95791181d3b1f24d8d6859756123c285</title>
<g id="a_node3"><a xlink:href="dir_95791181d3b1f24d8d6859756123c285.html" target="_top" xlink:title="display_mesh_node">
<polygon fill="white" stroke="black" points="417.5,-108 314.5,-108 314.5,-72 417.5,-72 417.5,-108"/>
<text text-anchor="middle" x="366" y="-87.5" font-family="Helvetica,sans-Serif" font-size="10.00">display_mesh_node</text>
</a>
</g>
</g>
<!-- dir_ad7940958c09a400c925d032b2c617d4&#45;&gt;dir_95791181d3b1f24d8d6859756123c285 -->
<g id="edge9" class="edge"><title>dir_ad7940958c09a400c925d032b2c617d4&#45;&gt;dir_95791181d3b1f24d8d6859756123c285</title>
<path fill="none" stroke="black" d="M449.846,-143.876C435.467,-134.808 417.619,-123.552 402.09,-113.759"/>
<polygon fill="black" stroke="black" points="403.584,-110.564 393.258,-108.19 399.85,-116.484 403.584,-110.564"/>
<g id="a_edge9&#45;headlabel"><a xlink:href="dir_000020_000030.html" target="_top" xlink:title="1">
<text text-anchor="middle" x="408.139" y="-107.579" font-family="Helvetica,sans-Serif" font-size="10.00">1</text>
</a>
</g>
</g>
<!-- dir_4aa48766fd414238054ba1187c78bbfe -->
<g id="node4" class="node"><title>dir_4aa48766fd414238054ba1187c78bbfe</title>
<g id="a_node4"><a xlink:href="dir_4aa48766fd414238054ba1187c78bbfe.html" target="_top" xlink:title="greedy_triangulation_node">
<polygon fill="white" stroke="black" points="666,-108 536,-108 536,-72 666,-72 666,-108"/>
<text text-anchor="middle" x="601" y="-87.5" font-family="Helvetica,sans-Serif" font-size="10.00">greedy_triangulation_node</text>
</a>
</g>
</g>
<!-- dir_ad7940958c09a400c925d032b2c617d4&#45;&gt;dir_4aa48766fd414238054ba1187c78bbfe -->
<g id="edge11" class="edge"><title>dir_ad7940958c09a400c925d032b2c617d4&#45;&gt;dir_4aa48766fd414238054ba1187c78bbfe</title>
<path fill="none" stroke="black" d="M504.212,-145.638C521.122,-136.092 543.136,-123.665 561.896,-113.075"/>
<polygon fill="black" stroke="black" points="563.82,-116.008 570.807,-108.044 560.379,-109.912 563.82,-116.008"/>
<g id="a_edge11&#45;headlabel"><a xlink:href="dir_000020_000031.html" target="_top" xlink:title="1">
<text text-anchor="middle" x="562.085" y="-117.748" font-family="Helvetica,sans-Serif" font-size="10.00">1</text>
</a>
</g>
</g>
<!-- dir_ec211a250b7fae15aac370b8d3f319b7 -->
<g id="node6" class="node"><title>dir_ec211a250b7fae15aac370b8d3f319b7</title>
<g id="a_node6"><a xlink:href="dir_ec211a250b7fae15aac370b8d3f319b7.html" target="_top" xlink:title="load_pcd_node">
<polygon fill="white" stroke="black" points="518,-108 436,-108 436,-72 518,-72 518,-108"/>
<text text-anchor="middle" x="477" y="-87.5" font-family="Helvetica,sans-Serif" font-size="10.00">load_pcd_node</text>
</a>
</g>
</g>
<!-- dir_ad7940958c09a400c925d032b2c617d4&#45;&gt;dir_ec211a250b7fae15aac370b8d3f319b7 -->
<g id="edge7" class="edge"><title>dir_ad7940958c09a400c925d032b2c617d4&#45;&gt;dir_ec211a250b7fae15aac370b8d3f319b7</title>
<path fill="none" stroke="black" d="M477,-143.697C477,-135.983 477,-126.712 477,-118.112"/>
<polygon fill="black" stroke="black" points="480.5,-118.104 477,-108.104 473.5,-118.104 480.5,-118.104"/>
<g id="a_edge7&#45;headlabel"><a xlink:href="dir_000020_000032.html" target="_top" xlink:title="1">
<text text-anchor="middle" x="483.339" y="-119.199" font-family="Helvetica,sans-Serif" font-size="10.00">1</text>
</a>
</g>
</g>
<!-- dir_cbb830aa35877ff3e76e61c86bbccbd5 -->
<g id="node7" class="node"><title>dir_cbb830aa35877ff3e76e61c86bbccbd5</title>
<g id="a_node7"><a xlink:href="dir_cbb830aa35877ff3e76e61c86bbccbd5.html" target="_top" xlink:title="marching_cubes_node">
<polygon fill="white" stroke="black" points="138,-108 24,-108 24,-72 138,-72 138,-108"/>
<text text-anchor="middle" x="81" y="-87.5" font-family="Helvetica,sans-Serif" font-size="10.00">marching_cubes_node</text>
</a>
</g>
</g>
<!-- dir_ad7940958c09a400c925d032b2c617d4&#45;&gt;dir_cbb830aa35877ff3e76e61c86bbccbd5 -->
<g id="edge5" class="edge"><title>dir_ad7940958c09a400c925d032b2c617d4&#45;&gt;dir_cbb830aa35877ff3e76e61c86bbccbd5</title>
<path fill="none" stroke="black" d="M449.896,-157.515C394.86,-150.255 265.925,-132.304 148.073,-108.124"/>
<polygon fill="black" stroke="black" points="148.664,-104.672 138.161,-106.07 147.243,-111.526 148.664,-104.672"/>
<g id="a_edge5&#45;headlabel"><a xlink:href="dir_000020_000033.html" target="_top" xlink:title="1">
<text text-anchor="middle" x="152.759" y="-100.121" font-family="Helvetica,sans-Serif" font-size="10.00">1</text>
</a>
</g>
</g>
<!-- dir_c89ad819976b74e5e6551154007fa249 -->
<g id="node8" class="node"><title>dir_c89ad819976b74e5e6551154007fa249</title>
<g id="a_node8"><a xlink:href="dir_c89ad819976b74e5e6551154007fa249.html" target="_top" xlink:title="moving_least_squares_node">
<polygon fill="white" stroke="black" points="824,-108 684,-108 684,-72 824,-72 824,-108"/>
<text text-anchor="middle" x="754" y="-87.5" font-family="Helvetica,sans-Serif" font-size="10.00">moving_least_squares_node</text>
</a>
</g>
</g>
<!-- dir_ad7940958c09a400c925d032b2c617d4&#45;&gt;dir_c89ad819976b74e5e6551154007fa249 -->
<g id="edge8" class="edge"><title>dir_ad7940958c09a400c925d032b2c617d4&#45;&gt;dir_c89ad819976b74e5e6551154007fa249</title>
<path fill="none" stroke="black" d="M504.064,-154.161C543.7,-144.144 619.081,-125.095 676.736,-110.525"/>
<polygon fill="black" stroke="black" points="677.716,-113.888 686.554,-108.044 676.001,-107.101 677.716,-113.888"/>
<g id="a_edge8&#45;headlabel"><a xlink:href="dir_000020_000034.html" target="_top" xlink:title="1">
<text text-anchor="middle" x="674.927" y="-115.021" font-family="Helvetica,sans-Serif" font-size="10.00">1</text>
</a>
</g>
</g>
<!-- dir_16a449ea048d444c490deba2b5e06d8e -->
<g id="node10" class="node"><title>dir_16a449ea048d444c490deba2b5e06d8e</title>
<g id="a_node10"><a xlink:href="dir_16a449ea048d444c490deba2b5e06d8e.html" target="_top" xlink:title="poisson_reconstruction_node">
<polygon fill="white" stroke="black" points="985.5,-108 842.5,-108 842.5,-72 985.5,-72 985.5,-108"/>
<text text-anchor="middle" x="914" y="-87.5" font-family="Helvetica,sans-Serif" font-size="10.00">poisson_reconstruction_node</text>
</a>
</g>
</g>
<!-- dir_ad7940958c09a400c925d032b2c617d4&#45;&gt;dir_16a449ea048d444c490deba2b5e06d8e -->
<g id="edge10" class="edge"><title>dir_ad7940958c09a400c925d032b2c617d4&#45;&gt;dir_16a449ea048d444c490deba2b5e06d8e</title>
<path fill="none" stroke="black" d="M504.334,-157.491C562.598,-149.892 703.511,-130.879 832.44,-108.04"/>
<polygon fill="black" stroke="black" points="833.261,-111.449 842.491,-106.247 832.032,-104.558 833.261,-111.449"/>
<g id="a_edge10&#45;headlabel"><a xlink:href="dir_000020_000036.html" target="_top" xlink:title="1">
<text text-anchor="middle" x="830.221" y="-112.375" font-family="Helvetica,sans-Serif" font-size="10.00">1</text>
</a>
</g>
</g>
<!-- dir_2132a1baf316c08cc1080432d0b1741e -->
<g id="node11" class="node"><title>dir_2132a1baf316c08cc1080432d0b1741e</title>
<g id="a_node11"><a xlink:href="dir_2132a1baf316c08cc1080432d0b1741e.html" target="_top" xlink:title="include">
<polygon fill="white" stroke="red" points="393,-36 339,-36 339,-0 393,-0 393,-36"/>
<text text-anchor="middle" x="366" y="-15.5" font-family="Helvetica,sans-Serif" font-size="10.00">include</text>
</a>
</g>
</g>
<!-- dir_cce7d7744b78b55887bdc5e16b100d08&#45;&gt;dir_2132a1baf316c08cc1080432d0b1741e -->
<g id="edge2" class="edge"><title>dir_cce7d7744b78b55887bdc5e16b100d08&#45;&gt;dir_2132a1baf316c08cc1080432d0b1741e</title>
<path fill="none" stroke="black" d="M260.248,-71.8761C281.262,-61.3692 308.151,-47.9245 329.557,-37.2217"/>
<polygon fill="black" stroke="black" points="331.284,-40.2714 338.663,-32.6687 328.153,-34.0104 331.284,-40.2714"/>
<g id="a_edge2&#45;headlabel"><a xlink:href="dir_000029_000016.html" target="_top" xlink:title="1">
<text text-anchor="middle" x="329.338" y="-41.9184" font-family="Helvetica,sans-Serif" font-size="10.00">1</text>
</a>
</g>
</g>
<!-- dir_95791181d3b1f24d8d6859756123c285&#45;&gt;dir_2132a1baf316c08cc1080432d0b1741e -->
<g id="edge4" class="edge"><title>dir_95791181d3b1f24d8d6859756123c285&#45;&gt;dir_2132a1baf316c08cc1080432d0b1741e</title>
<path fill="none" stroke="black" d="M366,-71.6966C366,-63.9827 366,-54.7125 366,-46.1124"/>
<polygon fill="black" stroke="black" points="369.5,-46.1043 366,-36.1043 362.5,-46.1044 369.5,-46.1043"/>
<g id="a_edge4&#45;headlabel"><a xlink:href="dir_000030_000016.html" target="_top" xlink:title="1">
<text text-anchor="middle" x="372.339" y="-47.199" font-family="Helvetica,sans-Serif" font-size="10.00">1</text>
</a>
</g>
</g>
<!-- dir_4aa48766fd414238054ba1187c78bbfe&#45;&gt;dir_2132a1baf316c08cc1080432d0b1741e -->
<g id="edge12" class="edge"><title>dir_4aa48766fd414238054ba1187c78bbfe&#45;&gt;dir_2132a1baf316c08cc1080432d0b1741e</title>
<path fill="none" stroke="black" d="M566.543,-71.9715C554.266,-66.3519 540.207,-60.4162 527,-56 485.521,-42.1308 436.33,-31.6558 403.332,-25.4526"/>
<polygon fill="black" stroke="black" points="403.687,-21.9591 393.218,-23.5898 402.419,-28.8433 403.687,-21.9591"/>
<g id="a_edge12&#45;headlabel"><a xlink:href="dir_000031_000016.html" target="_top" xlink:title="1">
<text text-anchor="middle" x="407.736" y="-17.3178" font-family="Helvetica,sans-Serif" font-size="10.00">1</text>
</a>
</g>
</g>
<!-- dir_8f8c1d5ffce4c0d2ae8fba023f37f231 -->
<g id="node5" class="node"><title>dir_8f8c1d5ffce4c0d2ae8fba023f37f231</title>
<g id="a_node5"><a xlink:href="dir_8f8c1d5ffce4c0d2ae8fba023f37f231.html" target="_top" xlink:title="hull_abstraction">
<polygon fill="white" stroke="black" points="749.5,-180 664.5,-180 664.5,-144 749.5,-144 749.5,-180"/>
<text text-anchor="middle" x="707" y="-159.5" font-family="Helvetica,sans-Serif" font-size="10.00">hull_abstraction</text>
</a>
</g>
</g>
<!-- dir_cbb830aa35877ff3e76e61c86bbccbd5&#45;&gt;dir_2132a1baf316c08cc1080432d0b1741e -->
<g id="edge1" class="edge"><title>dir_cbb830aa35877ff3e76e61c86bbccbd5&#45;&gt;dir_2132a1baf316c08cc1080432d0b1741e</title>
<path fill="none" stroke="black" d="M110.431,-71.9437C121.577,-66.1171 134.578,-60.0547 147,-56 208.933,-35.7844 284.507,-26.1364 328.741,-21.9125"/>
<polygon fill="black" stroke="black" points="329.112,-25.3933 338.752,-20.9986 328.475,-18.4223 329.112,-25.3933"/>
<g id="a_edge1&#45;headlabel"><a xlink:href="dir_000033_000016.html" target="_top" xlink:title="1">
<text text-anchor="middle" x="325.79" y="-26.0476" font-family="Helvetica,sans-Serif" font-size="10.00">1</text>
</a>
</g>
</g>
<!-- dir_c99e516405578a203dd31766d637c361 -->
<g id="node9" class="node"><title>dir_c99e516405578a203dd31766d637c361</title>
<g id="a_node9"><a xlink:href="dir_c99e516405578a203dd31766d637c361.html" target="_top" xlink:title="pcl_utilization">
<polygon fill="white" stroke="black" points="986,-180 910,-180 910,-144 986,-144 986,-180"/>
<text text-anchor="middle" x="948" y="-159.5" font-family="Helvetica,sans-Serif" font-size="10.00">pcl_utilization</text>
</a>
</g>
</g>
<!-- dir_c99e516405578a203dd31766d637c361&#45;&gt;dir_2132a1baf316c08cc1080432d0b1741e -->
<g id="edge3" class="edge"><title>dir_c99e516405578a203dd31766d637c361&#45;&gt;dir_2132a1baf316c08cc1080432d0b1741e</title>
<path fill="none" stroke="black" d="M969.267,-143.701C979.109,-134.305 989.763,-121.798 995,-108 1003.2,-86.3927 1010.85,-72.815 995,-56 974.61,-34.3753 535.38,-22.7982 403.264,-19.7963"/>
<polygon fill="black" stroke="black" points="403.296,-16.2962 393.221,-19.5712 403.14,-23.2944 403.296,-16.2962"/>
<g id="a_edge3&#45;headlabel"><a xlink:href="dir_000035_000016.html" target="_top" xlink:title="1">
<text text-anchor="middle" x="406.954" y="-11.0381" font-family="Helvetica,sans-Serif" font-size="10.00">1</text>
</a>
</g>
</g>
</g>
</svg>
        <g id="navigator" transform="translate(0 0)" fill="#404254">
                <rect fill="#f2f5e9" fill-opacity="0.5" stroke="#606060" stroke-width=".5" x="0" y="0" width="60" height="60"/>
                <use id="zoomplus" xlink:href="#zoomPlus" x="17" y="9" onmousedown="handleZoom(evt,'in')"/>
                <use id="zoomminus" xlink:href="#zoomMin" x="42" y="9" onmousedown="handleZoom(evt,'out')"/>
                <use id="reset" xlink:href="#resetDef" x="30" y="36" onmousedown="handleReset()"/>
                <g id="arrowUp" xlink:href="#dirArrow" transform="translate(30 24)" onmousedown="handlePan(0,-1)">
                  <use xlink:href="#rim" fill="#404040">
                        <set attributeName="fill" to="#808080" begin="arrowUp.mouseover" end="arrowUp.mouseout"/>
                  </use>
                  <path fill="none" stroke="white" stroke-width="1.5" d="M0,-3.0v7 M-2.5,-0.5L0,-3.0L2.5,-0.5"/>
                </g>
                <g id="arrowRight" xlink:href="#dirArrow" transform="rotate(90) translate(36 -43)" onmousedown="handlePan(1,0)">
                  <use xlink:href="#rim" fill="#404040">
                        <set attributeName="fill" to="#808080" begin="arrowRight.mouseover" end="arrowRight.mouseout"/>
                  </use>
                  <path fill="none" stroke="white" stroke-width="1.5" d="M0,-3.0v7 M-2.5,-0.5L0,-3.0L2.5,-0.5"/>
                </g>
                <g id="arrowDown" xlink:href="#dirArrow" transform="rotate(180) translate(-30 -48)" onmousedown="handlePan(0,1)">
                  <use xlink:href="#rim" fill="#404040">
                        <set attributeName="fill" to="#808080" begin="arrowDown.mouseover" end="arrowDown.mouseout"/>
                  </use>
                  <path fill="none" stroke="white" stroke-width="1.5" d="M0,-3.0v7 M-2.5,-0.5L0,-3.0L2.5,-0.5"/>
                </g>
                <g id="arrowLeft" xlink:href="#dirArrow" transform="rotate(270) translate(-36 17)" onmousedown="handlePan(-1,0)">
                  <use xlink:href="#rim" fill="#404040">
                        <set attributeName="fill" to="#808080" begin="arrowLeft.mouseover" end="arrowLeft.mouseout"/>
                  </use>
                  <path fill="none" stroke="white" stroke-width="1.5" d="M0,-3.0v7 M-2.5,-0.5L0,-3.0L2.5,-0.5"/>
                </g>
        </g>
        <svg viewBox="0 0 15 15" width="100%" height="30px" preserveAspectRatio="xMaxYMin meet">
         <g id="arrow_out" transform="scale(0.3 0.3)">
          <a xlink:href="dir_ad7940958c09a400c925d032b2c617d4_dep_org.svg" target="_base">
           <rect id="button" ry="5" rx="5" y="6" x="6" height="38" width="38"
                fill="#f2f5e9" fill-opacity="0.5" stroke="#606060" stroke-width="1.0"/>
           <path id="arrow"
             d="M 11.500037,31.436501 C 11.940474,20.09759 22.043105,11.32322 32.158766,21.979434 L 37.068811,17.246167 C 37.068811,17.246167 37.088388,32 37.088388,32 L 22.160133,31.978069 C 22.160133,31.978069 26.997745,27.140456 26.997745,27.140456 C 18.528582,18.264221 13.291696,25.230495 11.500037,31.436501 z"
             style="fill:#404040;"/>
          </a>
         </g>
        </svg>
</svg>
