<?xml version="1.0" encoding="UTF-8" standalone="no"?>
<!DOCTYPE svg PUBLIC "-//W3C//DTD SVG 1.1//EN"
 "http://www.w3.org/Graphics/SVG/1.1/DTD/svg11.dtd">
<!-- Generated by graphviz version 2.38.0 (20140413.2041)
 -->
<!-- Title: /home/jc/hull_abstraction/ros/src/hull_abstraction/src Pages: 1 -->
<svg width="764pt" height="231pt"
 viewBox="0.00 0.00 764.00 231.00" xmlns="http://www.w3.org/2000/svg" xmlns:xlink="http://www.w3.org/1999/xlink">
<g id="graph0" class="graph" transform="scale(1 1) rotate(0) translate(4 227)">
<title>/home/jc/hull_abstraction/ros/src/hull_abstraction/src</title>
<polygon fill="white" stroke="none" points="-4,4 -4,-227 760,-227 760,4 -4,4"/>
<g id="clust1" class="cluster"><title>clusterdir_256a2b3af02290e0fc918e131c3b8cf4</title>
<g id="a_clust1"><a xlink:href="dir_256a2b3af02290e0fc918e131c3b8cf4.html" target="_top" xlink:title="hull_abstraction">
<polygon fill="#ddddee" stroke="black" points="8,-56 8,-215 748,-215 748,-56 8,-56"/>
<text text-anchor="middle" x="378" y="-203" font-family="Helvetica,sans-Serif" font-size="10.00">hull_abstraction</text>
</a>
</g>
</g>
<g id="clust2" class="cluster"><title>clusterdir_ad7940958c09a400c925d032b2c617d4</title>
<g id="a_clust2"><a xlink:href="dir_ad7940958c09a400c925d032b2c617d4.html" target="_top">
<polygon fill="#eeeeff" stroke="black" points="16,-64 16,-188 740,-188 740,-64 16,-64"/>
</a>
</g>
</g>
<!-- dir_ad7940958c09a400c925d032b2c617d4 -->
<g id="node1" class="node"><title>dir_ad7940958c09a400c925d032b2c617d4</title>
<text text-anchor="middle" x="371" y="-159.5" font-family="Helvetica,sans-Serif" font-size="10.00">src</text>
</g>
<!-- dir_cce7d7744b78b55887bdc5e16b100d08 -->
<g id="node2" class="node"><title>dir_cce7d7744b78b55887bdc5e16b100d08</title>
<g id="a_node2"><a xlink:href="dir_cce7d7744b78b55887bdc5e16b100d08.html" target="_top" xlink:title="bspline_surface_fitting_node">
<polygon fill="white" stroke="black" points="312,-108 172,-108 172,-72 312,-72 312,-108"/>
<text text-anchor="middle" x="242" y="-87.5" font-family="Helvetica,sans-Serif" font-size="10.00">bspline_surface_fitting_node</text>
</a>
</g>
</g>
<!-- dir_ad7940958c09a400c925d032b2c617d4&#45;&gt;dir_cce7d7744b78b55887bdc5e16b100d08 -->
<g id="edge3" class="edge"><title>dir_ad7940958c09a400c925d032b2c617d4&#45;&gt;dir_cce7d7744b78b55887bdc5e16b100d08</title>
<path fill="none" stroke="black" d="M343.957,-146.326C326.146,-136.661 302.504,-123.831 282.47,-112.96"/>
<polygon fill="black" stroke="black" points="284.012,-109.815 273.553,-108.122 280.673,-115.968 284.012,-109.815"/>
<g id="a_edge3&#45;headlabel"><a xlink:href="dir_000020_000029.html" target="_top" xlink:title="1">
<text text-anchor="middle" x="288.525" y="-106.534" font-family="Helvetica,sans-Serif" font-size="10.00">1</text>
</a>
</g>
</g>
<!-- dir_4aa48766fd414238054ba1187c78bbfe -->
<g id="node3" class="node"><title>dir_4aa48766fd414238054ba1187c78bbfe</title>
<g id="a_node3"><a xlink:href="dir_4aa48766fd414238054ba1187c78bbfe.html" target="_top" xlink:title="greedy_triangulation_node">
<polygon fill="white" stroke="black" points="154,-108 24,-108 24,-72 154,-72 154,-108"/>
<text text-anchor="middle" x="89" y="-87.5" font-family="Helvetica,sans-Serif" font-size="10.00">greedy_triangulation_node</text>
</a>
</g>
</g>
<!-- dir_ad7940958c09a400c925d032b2c617d4&#45;&gt;dir_4aa48766fd414238054ba1187c78bbfe -->
<g id="edge7" class="edge"><title>dir_ad7940958c09a400c925d032b2c617d4&#45;&gt;dir_4aa48766fd414238054ba1187c78bbfe</title>
<path fill="none" stroke="black" d="M343.961,-154.288C302.891,-144.094 223.294,-124.335 163.91,-109.595"/>
<polygon fill="black" stroke="black" points="164.739,-106.194 154.19,-107.182 163.053,-112.988 164.739,-106.194"/>
<g id="a_edge7&#45;headlabel"><a xlink:href="dir_000020_000030.html" target="_top" xlink:title="1">
<text text-anchor="middle" x="168.912" y="-101.805" font-family="Helvetica,sans-Serif" font-size="10.00">1</text>
</a>
</g>
</g>
<!-- dir_ec211a250b7fae15aac370b8d3f319b7 -->
<g id="node5" class="node"><title>dir_ec211a250b7fae15aac370b8d3f319b7</title>
<g id="a_node5"><a xlink:href="dir_ec211a250b7fae15aac370b8d3f319b7.html" target="_top" xlink:title="load_pcd_node">
<polygon fill="white" stroke="black" points="412,-108 330,-108 330,-72 412,-72 412,-108"/>
<text text-anchor="middle" x="371" y="-87.5" font-family="Helvetica,sans-Serif" font-size="10.00">load_pcd_node</text>
</a>
</g>
</g>
<!-- dir_ad7940958c09a400c925d032b2c617d4&#45;&gt;dir_ec211a250b7fae15aac370b8d3f319b7 -->
<g id="edge4" class="edge"><title>dir_ad7940958c09a400c925d032b2c617d4&#45;&gt;dir_ec211a250b7fae15aac370b8d3f319b7</title>
<path fill="none" stroke="black" d="M371,-143.697C371,-135.983 371,-126.712 371,-118.112"/>
<polygon fill="black" stroke="black" points="374.5,-118.104 371,-108.104 367.5,-118.104 374.5,-118.104"/>
<g id="a_edge4&#45;headlabel"><a xlink:href="dir_000020_000031.html" target="_top" xlink:title="1">
<text text-anchor="middle" x="377.339" y="-119.199" font-family="Helvetica,sans-Serif" font-size="10.00">1</text>
</a>
</g>
</g>
<!-- dir_c89ad819976b74e5e6551154007fa249 -->
<g id="node6" class="node"><title>dir_c89ad819976b74e5e6551154007fa249</title>
<g id="a_node6"><a xlink:href="dir_c89ad819976b74e5e6551154007fa249.html" target="_top" xlink:title="moving_least_squares_node">
<polygon fill="white" stroke="black" points="570,-108 430,-108 430,-72 570,-72 570,-108"/>
<text text-anchor="middle" x="500" y="-87.5" font-family="Helvetica,sans-Serif" font-size="10.00">moving_least_squares_node</text>
</a>
</g>
</g>
<!-- dir_ad7940958c09a400c925d032b2c617d4&#45;&gt;dir_c89ad819976b74e5e6551154007fa249 -->
<g id="edge5" class="edge"><title>dir_ad7940958c09a400c925d032b2c617d4&#45;&gt;dir_c89ad819976b74e5e6551154007fa249</title>
<path fill="none" stroke="black" d="M398.043,-146.326C415.854,-136.661 439.496,-123.831 459.53,-112.96"/>
<polygon fill="black" stroke="black" points="461.327,-115.968 468.447,-108.122 457.988,-109.815 461.327,-115.968"/>
<g id="a_edge5&#45;headlabel"><a xlink:href="dir_000020_000032.html" target="_top" xlink:title="1">
<text text-anchor="middle" x="459.522" y="-117.677" font-family="Helvetica,sans-Serif" font-size="10.00">1</text>
</a>
</g>
</g>
<!-- dir_16a449ea048d444c490deba2b5e06d8e -->
<g id="node8" class="node"><title>dir_16a449ea048d444c490deba2b5e06d8e</title>
<g id="a_node8"><a xlink:href="dir_16a449ea048d444c490deba2b5e06d8e.html" target="_top" xlink:title="poisson_reconstruction_node">
<polygon fill="white" stroke="black" points="731.5,-108 588.5,-108 588.5,-72 731.5,-72 731.5,-108"/>
<text text-anchor="middle" x="660" y="-87.5" font-family="Helvetica,sans-Serif" font-size="10.00">poisson_reconstruction_node</text>
</a>
</g>
</g>
<!-- dir_ad7940958c09a400c925d032b2c617d4&#45;&gt;dir_16a449ea048d444c490deba2b5e06d8e -->
<g id="edge6" class="edge"><title>dir_ad7940958c09a400c925d032b2c617d4&#45;&gt;dir_16a449ea048d444c490deba2b5e06d8e</title>
<path fill="none" stroke="black" d="M398.188,-154.415C439.317,-144.453 518.988,-125.155 579.69,-110.452"/>
<polygon fill="black" stroke="black" points="580.747,-113.798 589.642,-108.042 579.099,-106.994 580.747,-113.798"/>
<g id="a_edge6&#45;headlabel"><a xlink:href="dir_000020_000034.html" target="_top" xlink:title="1">
<text text-anchor="middle" x="577.922" y="-114.903" font-family="Helvetica,sans-Serif" font-size="10.00">1</text>
</a>
</g>
</g>
<!-- dir_2132a1baf316c08cc1080432d0b1741e -->
<g id="node9" class="node"><title>dir_2132a1baf316c08cc1080432d0b1741e</title>
<g id="a_node9"><a xlink:href="dir_2132a1baf316c08cc1080432d0b1741e.html" target="_top" xlink:title="include">
<polygon fill="white" stroke="red" points="269,-36 215,-36 215,-0 269,-0 269,-36"/>
<text text-anchor="middle" x="242" y="-15.5" font-family="Helvetica,sans-Serif" font-size="10.00">include</text>
</a>
</g>
</g>
<!-- dir_cce7d7744b78b55887bdc5e16b100d08&#45;&gt;dir_2132a1baf316c08cc1080432d0b1741e -->
<g id="edge1" class="edge"><title>dir_cce7d7744b78b55887bdc5e16b100d08&#45;&gt;dir_2132a1baf316c08cc1080432d0b1741e</title>
<path fill="none" stroke="black" d="M242,-71.6966C242,-63.9827 242,-54.7125 242,-46.1124"/>
<polygon fill="black" stroke="black" points="245.5,-46.1043 242,-36.1043 238.5,-46.1044 245.5,-46.1043"/>
<g id="a_edge1&#45;headlabel"><a xlink:href="dir_000029_000016.html" target="_top" xlink:title="1">
<text text-anchor="middle" x="248.339" y="-47.199" font-family="Helvetica,sans-Serif" font-size="10.00">1</text>
</a>
</g>
</g>
<!-- dir_4aa48766fd414238054ba1187c78bbfe&#45;&gt;dir_2132a1baf316c08cc1080432d0b1741e -->
<g id="edge8" class="edge"><title>dir_4aa48766fd414238054ba1187c78bbfe&#45;&gt;dir_2132a1baf316c08cc1080432d0b1741e</title>
<path fill="none" stroke="black" d="M126.428,-71.8761C150.483,-60.8706 181.583,-46.6416 205.462,-35.7169"/>
<polygon fill="black" stroke="black" points="206.918,-38.8994 214.556,-31.5563 204.006,-32.534 206.918,-38.8994"/>
<g id="a_edge8&#45;headlabel"><a xlink:href="dir_000030_000016.html" target="_top" xlink:title="1">
<text text-anchor="middle" x="204.831" y="-40.4768" font-family="Helvetica,sans-Serif" font-size="10.00">1</text>
</a>
</g>
</g>
<!-- dir_8f8c1d5ffce4c0d2ae8fba023f37f231 -->
<g id="node4" class="node"><title>dir_8f8c1d5ffce4c0d2ae8fba023f37f231</title>
<g id="a_node4"><a xlink:href="dir_8f8c1d5ffce4c0d2ae8fba023f37f231.html" target="_top" xlink:title="hull_abstraction">
<polygon fill="white" stroke="black" points="569.5,-180 484.5,-180 484.5,-144 569.5,-144 569.5,-180"/>
<text text-anchor="middle" x="527" y="-159.5" font-family="Helvetica,sans-Serif" font-size="10.00">hull_abstraction</text>
</a>
</g>
</g>
<!-- dir_c99e516405578a203dd31766d637c361 -->
<g id="node7" class="node"><title>dir_c99e516405578a203dd31766d637c361</title>
<g id="a_node7"><a xlink:href="dir_c99e516405578a203dd31766d637c361.html" target="_top" xlink:title="pcl_utilization">
<polygon fill="white" stroke="black" points="732,-180 656,-180 656,-144 732,-144 732,-180"/>
<text text-anchor="middle" x="694" y="-159.5" font-family="Helvetica,sans-Serif" font-size="10.00">pcl_utilization</text>
</a>
</g>
</g>
<!-- dir_c99e516405578a203dd31766d637c361&#45;&gt;dir_2132a1baf316c08cc1080432d0b1741e -->
<g id="edge2" class="edge"><title>dir_c99e516405578a203dd31766d637c361&#45;&gt;dir_2132a1baf316c08cc1080432d0b1741e</title>
<path fill="none" stroke="black" d="M715.267,-143.701C725.109,-134.305 735.763,-121.798 741,-108 749.201,-86.3927 756.726,-72.9355 741,-56 709.755,-22.3527 389.749,-19.0459 279.269,-18.9144"/>
<polygon fill="black" stroke="black" points="279.249,-15.4144 269.248,-18.9106 279.246,-22.4144 279.249,-15.4144"/>
<g id="a_edge2&#45;headlabel"><a xlink:href="dir_000033_000016.html" target="_top" xlink:title="1">
<text text-anchor="middle" x="282.845" y="-10.0764" font-family="Helvetica,sans-Serif" font-size="10.00">1</text>
</a>
</g>
</g>
</g>
</svg>
