<?xml version="1.0" encoding="UTF-8" standalone="no"?>
<!DOCTYPE svg PUBLIC "-//W3C//DTD SVG 1.1//EN"
 "http://www.w3.org/Graphics/SVG/1.1/DTD/svg11.dtd">
<!-- Generated by graphviz version 2.38.0 (20140413.2041)
 -->
<!-- Title: /home/jc/THESIS/hull_abstraction/benchmark/src Pages: 1 -->
<svg width="497pt" height="159pt"
 viewBox="0.00 0.00 497.00 159.00" xmlns="http://www.w3.org/2000/svg" xmlns:xlink="http://www.w3.org/1999/xlink">
<g id="graph0" class="graph" transform="scale(1 1) rotate(0) translate(4 155)">
<title>/home/jc/THESIS/hull_abstraction/benchmark/src</title>
<polygon fill="white" stroke="none" points="-4,4 -4,-155 493,-155 493,4 -4,4"/>
<g id="clust1" class="cluster"><title>clusterdir_44cec6e3ea30e076b9313c4641539d9f</title>
<g id="a_clust1"><a xlink:href="dir_44cec6e3ea30e076b9313c4641539d9f.html" target="_top" xlink:title="benchmark">
<polygon fill="#ddddee" stroke="black" points="8,-56 8,-143 481,-143 481,-56 8,-56"/>
<text text-anchor="middle" x="244.5" y="-131" font-family="Helvetica,sans-Serif" font-size="10.00">benchmark</text>
</a>
</g>
</g>
<g id="clust2" class="cluster"><title>clusterdir_5b32b0c8d196e0bee0bc7bd37f53bc55</title>
<g id="a_clust2"><a xlink:href="dir_5b32b0c8d196e0bee0bc7bd37f53bc55.html" target="_top">
<polygon fill="#eeeeff" stroke="black" points="16,-64 16,-116 473,-116 473,-64 16,-64"/>
</a>
</g>
</g>
<!-- dir_5b32b0c8d196e0bee0bc7bd37f53bc55 -->
<g id="node1" class="node"><title>dir_5b32b0c8d196e0bee0bc7bd37f53bc55</title>
<text text-anchor="middle" x="438" y="-87.5" font-family="Helvetica,sans-Serif" font-size="10.00">src</text>
</g>
<!-- dir_93a1f5b8296fe1733dc0daad715b698b -->
<g id="node2" class="node"><title>dir_93a1f5b8296fe1733dc0daad715b698b</title>
<g id="a_node2"><a xlink:href="dir_93a1f5b8296fe1733dc0daad715b698b.html" target="_top" xlink:title="benchmark">
<polygon fill="white" stroke="black" points="392.5,-108 327.5,-108 327.5,-72 392.5,-72 392.5,-108"/>
<text text-anchor="middle" x="360" y="-87.5" font-family="Helvetica,sans-Serif" font-size="10.00">benchmark</text>
</a>
</g>
</g>
<!-- dir_c9be9173870f327345d33414c30b89d4 -->
<g id="node6" class="node"><title>dir_c9be9173870f327345d33414c30b89d4</title>
<g id="a_node6"><a xlink:href="dir_c9be9173870f327345d33414c30b89d4.html" target="_top" xlink:title="include">
<polygon fill="white" stroke="red" points="241,-36 187,-36 187,-0 241,-0 241,-36"/>
<text text-anchor="middle" x="214" y="-15.5" font-family="Helvetica,sans-Serif" font-size="10.00">include</text>
</a>
</g>
</g>
<!-- dir_93a1f5b8296fe1733dc0daad715b698b&#45;&gt;dir_c9be9173870f327345d33414c30b89d4 -->
<g id="edge2" class="edge"><title>dir_93a1f5b8296fe1733dc0daad715b698b&#45;&gt;dir_c9be9173870f327345d33414c30b89d4</title>
<path fill="none" stroke="black" d="M341.364,-71.7853C334.664,-66.2151 326.823,-60.3577 319,-56 297.67,-44.1177 271.822,-34.9526 251.11,-28.7164"/>
<polygon fill="black" stroke="black" points="251.977,-25.3235 241.397,-25.8912 250.022,-32.0449 251.977,-25.3235"/>
<g id="a_edge2&#45;headlabel"><a xlink:href="dir_000023_000012.html" target="_top" xlink:title="2">
<text text-anchor="middle" x="256.221" y="-21.1011" font-family="Helvetica,sans-Serif" font-size="10.00">2</text>
</a>
</g>
</g>
<!-- dir_301ec2606c049aebb27b3286b797e27d -->
<g id="node3" class="node"><title>dir_301ec2606c049aebb27b3286b797e27d</title>
<g id="a_node3"><a xlink:href="dir_301ec2606c049aebb27b3286b797e27d.html" target="_top" xlink:title="hull_abstraction">
<polygon fill="white" stroke="black" points="309.5,-108 224.5,-108 224.5,-72 309.5,-72 309.5,-108"/>
<text text-anchor="middle" x="267" y="-87.5" font-family="Helvetica,sans-Serif" font-size="10.00">hull_abstraction</text>
</a>
</g>
</g>
<!-- dir_bc9ab48fc7186a001a2d9c49768e6ecb -->
<g id="node4" class="node"><title>dir_bc9ab48fc7186a001a2d9c49768e6ecb</title>
<g id="a_node4"><a xlink:href="dir_bc9ab48fc7186a001a2d9c49768e6ecb.html" target="_top" xlink:title="pcl_utilization">
<polygon fill="white" stroke="black" points="206,-108 130,-108 130,-72 206,-72 206,-108"/>
<text text-anchor="middle" x="168" y="-87.5" font-family="Helvetica,sans-Serif" font-size="10.00">pcl_utilization</text>
</a>
</g>
</g>
<!-- dir_d282301801be334f2d472a58ada49a4b -->
<g id="node5" class="node"><title>dir_d282301801be334f2d472a58ada49a4b</title>
<g id="a_node5"><a xlink:href="dir_d282301801be334f2d472a58ada49a4b.html" target="_top" xlink:title="point_generation">
<polygon fill="white" stroke="black" points="112,-108 24,-108 24,-72 112,-72 112,-108"/>
<text text-anchor="middle" x="68" y="-87.5" font-family="Helvetica,sans-Serif" font-size="10.00">point_generation</text>
</a>
</g>
</g>
<!-- dir_d282301801be334f2d472a58ada49a4b&#45;&gt;dir_c9be9173870f327345d33414c30b89d4 -->
<g id="edge1" class="edge"><title>dir_d282301801be334f2d472a58ada49a4b&#45;&gt;dir_c9be9173870f327345d33414c30b89d4</title>
<path fill="none" stroke="black" d="M93.3463,-71.9398C101.937,-66.5055 111.712,-60.6919 121,-56 139.022,-46.8959 159.843,-38.4337 177.21,-31.9063"/>
<polygon fill="black" stroke="black" points="178.82,-35.043 186.989,-28.2965 176.396,-28.4762 178.82,-35.043"/>
<g id="a_edge1&#45;headlabel"><a xlink:href="dir_000029_000012.html" target="_top" xlink:title="1">
<text text-anchor="middle" x="176.431" y="-36.4514" font-family="Helvetica,sans-Serif" font-size="10.00">1</text>
</a>
</g>
</g>
</g>
</svg>
