<?xml version="1.0" encoding="UTF-8" standalone="no"?>
<!DOCTYPE svg PUBLIC "-//W3C//DTD SVG 1.1//EN"
 "http://www.w3.org/Graphics/SVG/1.1/DTD/svg11.dtd">
<!-- Generated by graphviz version 2.38.0 (20140413.2041)
 -->
<!-- Title: /home/jc/hull_abstraction/benchmark/src/benchmark Pages: 1 -->
<svg width="106pt" height="151pt"
 viewBox="0.00 0.00 106.00 151.00" xmlns="http://www.w3.org/2000/svg" xmlns:xlink="http://www.w3.org/1999/xlink">
<g id="graph0" class="graph" transform="scale(1 1) rotate(0) translate(4 147)">
<title>/home/jc/hull_abstraction/benchmark/src/benchmark</title>
<polygon fill="white" stroke="none" points="-4,4 -4,-147 102,-147 102,4 -4,4"/>
<g id="clust1" class="cluster"><title>clusterdir_5b32b0c8d196e0bee0bc7bd37f53bc55</title>
<g id="a_clust1"><a xlink:href="dir_5b32b0c8d196e0bee0bc7bd37f53bc55.html" target="_top" xlink:title="src">
<polygon fill="#ddddee" stroke="black" points="8,-64 8,-135 90,-135 90,-64 8,-64"/>
<text text-anchor="middle" x="49" y="-123" font-family="Helvetica,sans-Serif" font-size="10.00">src</text>
</a>
</g>
</g>
<!-- dir_93a1f5b8296fe1733dc0daad715b698b -->
<g id="node1" class="node"><title>dir_93a1f5b8296fe1733dc0daad715b698b</title>
<g id="a_node1"><a xlink:href="dir_93a1f5b8296fe1733dc0daad715b698b.html" target="_top" xlink:title="benchmark">
<polygon fill="#eeeeff" stroke="black" points="81.5,-108 16.5,-108 16.5,-72 81.5,-72 81.5,-108"/>
<text text-anchor="middle" x="49" y="-87.5" font-family="Helvetica,sans-Serif" font-size="10.00">benchmark</text>
</a>
</g>
</g>
<!-- dir_c9be9173870f327345d33414c30b89d4 -->
<g id="node2" class="node"><title>dir_c9be9173870f327345d33414c30b89d4</title>
<g id="a_node2"><a xlink:href="dir_c9be9173870f327345d33414c30b89d4.html" target="_top" xlink:title="include">
<polygon fill="white" stroke="red" points="76,-36 22,-36 22,-0 76,-0 76,-36"/>
<text text-anchor="middle" x="49" y="-15.5" font-family="Helvetica,sans-Serif" font-size="10.00">include</text>
</a>
</g>
</g>
<!-- dir_93a1f5b8296fe1733dc0daad715b698b&#45;&gt;dir_c9be9173870f327345d33414c30b89d4 -->
<g id="edge1" class="edge"><title>dir_93a1f5b8296fe1733dc0daad715b698b&#45;&gt;dir_c9be9173870f327345d33414c30b89d4</title>
<path fill="none" stroke="black" d="M49,-71.6966C49,-63.9827 49,-54.7125 49,-46.1124"/>
<polygon fill="black" stroke="black" points="52.5001,-46.1043 49,-36.1043 45.5001,-46.1044 52.5001,-46.1043"/>
<g id="a_edge1&#45;headlabel"><a xlink:href="dir_000022_000012.html" target="_top" xlink:title="1">
<text text-anchor="middle" x="55.3393" y="-47.199" font-family="Helvetica,sans-Serif" font-size="10.00">1</text>
</a>
</g>
</g>
</g>
</svg>
