<?xml version="1.0" encoding="UTF-8" standalone="no"?>
<!DOCTYPE svg PUBLIC "-//W3C//DTD SVG 1.1//EN"
 "http://www.w3.org/Graphics/SVG/1.1/DTD/svg11.dtd">
<!-- Generated by graphviz version 2.38.0 (20140413.2041)
 -->
<!-- Title: /home/jc/hull_abstraction/prototype Pages: 1 -->
<svg width="242pt" height="148pt"
 viewBox="0.00 0.00 242.00 148.00" xmlns="http://www.w3.org/2000/svg" xmlns:xlink="http://www.w3.org/1999/xlink">
<g id="graph0" class="graph" transform="scale(1 1) rotate(0) translate(4 144)">
<title>/home/jc/hull_abstraction/prototype</title>
<polygon fill="white" stroke="none" points="-4,4 -4,-144 238,-144 238,4 -4,4"/>
<g id="clust1" class="cluster"><title>clusterdir_b3a2258401d5c83a0d9518ae73f64ab9</title>
<g id="a_clust1"><a xlink:href="dir_b3a2258401d5c83a0d9518ae73f64ab9.html" target="_top">
<polygon fill="#eeeeff" stroke="black" points="8,-8 8,-132 226,-132 226,-8 8,-8"/>
</a>
</g>
</g>
<!-- dir_b3a2258401d5c83a0d9518ae73f64ab9 -->
<g id="node1" class="node"><title>dir_b3a2258401d5c83a0d9518ae73f64ab9</title>
<text text-anchor="middle" x="189" y="-103.5" font-family="Helvetica,sans-Serif" font-size="10.00">prototype</text>
</g>
<!-- dir_686c8625a9ce0cf9649cc4e8a563f266 -->
<g id="node2" class="node"><title>dir_686c8625a9ce0cf9649cc4e8a563f266</title>
<g id="a_node2"><a xlink:href="dir_686c8625a9ce0cf9649cc4e8a563f266.html" target="_top" xlink:title="build">
<polygon fill="white" stroke="red" points="142,-124 88,-124 88,-88 142,-88 142,-124"/>
<text text-anchor="middle" x="115" y="-103.5" font-family="Helvetica,sans-Serif" font-size="10.00">build</text>
</a>
</g>
</g>
<!-- dir_38206c829915c2a68e08aed7ef185c46 -->
<g id="node3" class="node"><title>dir_38206c829915c2a68e08aed7ef185c46</title>
<g id="a_node3"><a xlink:href="dir_38206c829915c2a68e08aed7ef185c46.html" target="_top" xlink:title="include">
<polygon fill="white" stroke="red" points="70,-52 16,-52 16,-16 70,-16 70,-52"/>
<text text-anchor="middle" x="43" y="-31.5" font-family="Helvetica,sans-Serif" font-size="10.00">include</text>
</a>
</g>
</g>
<!-- dir_e1591faedfdf413b978327448021e69f -->
<g id="node4" class="node"><title>dir_e1591faedfdf413b978327448021e69f</title>
<g id="a_node4"><a xlink:href="dir_e1591faedfdf413b978327448021e69f.html" target="_top" xlink:title="src">
<polygon fill="white" stroke="red" points="70,-124 16,-124 16,-88 70,-88 70,-124"/>
<text text-anchor="middle" x="43" y="-103.5" font-family="Helvetica,sans-Serif" font-size="10.00">src</text>
</a>
</g>
</g>
<!-- dir_e1591faedfdf413b978327448021e69f&#45;&gt;dir_38206c829915c2a68e08aed7ef185c46 -->
<g id="edge1" class="edge"><title>dir_e1591faedfdf413b978327448021e69f&#45;&gt;dir_38206c829915c2a68e08aed7ef185c46</title>
<path fill="none" stroke="black" d="M43,-87.6966C43,-79.9827 43,-70.7125 43,-62.1124"/>
<polygon fill="black" stroke="black" points="46.5001,-62.1043 43,-52.1043 39.5001,-62.1044 46.5001,-62.1043"/>
<g id="a_edge1&#45;headlabel"><a xlink:href="dir_000018_000012.html" target="_top" xlink:title="1">
<text text-anchor="middle" x="49.3393" y="-63.199" font-family="Helvetica,sans-Serif" font-size="10.00">1</text>
</a>
</g>
</g>
</g>
</svg>
