<?xml version="1.0" encoding="UTF-8" standalone="no"?>
<!DOCTYPE svg PUBLIC "-//W3C//DTD SVG 1.1//EN"
 "http://www.w3.org/Graphics/SVG/1.1/DTD/svg11.dtd">
<!-- Generated by graphviz version 2.38.0 (20140413.2041)
 -->
<!-- Title: /home/jc/THESIS/hull_abstraction/ros/src/hull_abstraction/src/display_mesh_node.cpp Pages: 1 -->
<svg width="709pt" height="195pt"
 viewBox="0.00 0.00 708.50 195.00" xmlns="http://www.w3.org/2000/svg" xmlns:xlink="http://www.w3.org/1999/xlink">
<g id="graph0" class="graph" transform="scale(1 1) rotate(0) translate(4 191)">
<title>/home/jc/THESIS/hull_abstraction/ros/src/hull_abstraction/src/display_mesh_node.cpp</title>
<polygon fill="white" stroke="none" points="-4,4 -4,-191 704.5,-191 704.5,4 -4,4"/>
<!-- Node1 -->
<g id="node1" class="node"><title>Node1</title>
<polygon fill="#bfbfbf" stroke="black" points="238,-134.5 238,-186.5 363,-186.5 363,-134.5 238,-134.5"/>
<text text-anchor="start" x="246" y="-174.5" font-family="Helvetica,sans-Serif" font-size="10.00">/home/jc/THESIS/hull</text>
<text text-anchor="start" x="246" y="-163.5" font-family="Helvetica,sans-Serif" font-size="10.00">_abstraction/ros/src</text>
<text text-anchor="start" x="246" y="-152.5" font-family="Helvetica,sans-Serif" font-size="10.00">/hull_abstraction/src</text>
<text text-anchor="middle" x="300.5" y="-141.5" font-family="Helvetica,sans-Serif" font-size="10.00">/display_mesh_node.cpp</text>
</g>
<!-- Node2 -->
<g id="node2" class="node"><title>Node2</title>
<g id="a_node2"><a xlink:href="display__mesh_8h.html" target="_top" xlink:title="Framework of node for displaying polygon meshes. ">
<polygon fill="white" stroke="black" points="232,-67.5 232,-97.5 369,-97.5 369,-67.5 232,-67.5"/>
<text text-anchor="start" x="240" y="-85.5" font-family="Helvetica,sans-Serif" font-size="10.00">display_mesh_node/display</text>
<text text-anchor="middle" x="300.5" y="-74.5" font-family="Helvetica,sans-Serif" font-size="10.00">_mesh.h</text>
</a>
</g>
</g>
<!-- Node1&#45;&gt;Node2 -->
<g id="edge1" class="edge"><title>Node1&#45;&gt;Node2</title>
<path fill="none" stroke="midnightblue" d="M300.5,-134.193C300.5,-125.786 300.5,-116.443 300.5,-108.091"/>
<polygon fill="midnightblue" stroke="midnightblue" points="304,-107.845 300.5,-97.8453 297,-107.845 304,-107.845"/>
</g>
<!-- Node3 -->
<g id="node3" class="node"><title>Node3</title>
<polygon fill="white" stroke="#bfbfbf" points="0,-6 0,-25 55,-25 55,-6 0,-6"/>
<text text-anchor="middle" x="27.5" y="-13" font-family="Helvetica,sans-Serif" font-size="10.00">ros/ros.h</text>
</g>
<!-- Node2&#45;&gt;Node3 -->
<g id="edge2" class="edge"><title>Node2&#45;&gt;Node3</title>
<path fill="none" stroke="midnightblue" d="M231.851,-69.8654C184.357,-61.0755 119.972,-47.6835 64.5,-31 62.072,-30.2698 59.5785,-29.4503 57.0885,-28.5824"/>
<polygon fill="midnightblue" stroke="midnightblue" points="58.2405,-25.2768 47.6475,-25.0806 55.8061,-31.8399 58.2405,-25.2768"/>
</g>
<!-- Node4 -->
<g id="node4" class="node"><title>Node4</title>
<polygon fill="white" stroke="#bfbfbf" points="73.5,-6 73.5,-25 163.5,-25 163.5,-6 73.5,-6"/>
<text text-anchor="middle" x="118.5" y="-13" font-family="Helvetica,sans-Serif" font-size="10.00">pcl/point_cloud.h</text>
</g>
<!-- Node2&#45;&gt;Node4 -->
<g id="edge3" class="edge"><title>Node2&#45;&gt;Node4</title>
<path fill="none" stroke="midnightblue" d="M261.009,-67.396C228.368,-55.7387 182.545,-39.3731 151.753,-28.3761"/>
<polygon fill="midnightblue" stroke="midnightblue" points="152.914,-25.0743 142.32,-25.007 150.56,-31.6665 152.914,-25.0743"/>
</g>
<!-- Node5 -->
<g id="node5" class="node"><title>Node5</title>
<polygon fill="white" stroke="#bfbfbf" points="182,-0.5 182,-30.5 285,-30.5 285,-0.5 182,-0.5"/>
<text text-anchor="start" x="190" y="-18.5" font-family="Helvetica,sans-Serif" font-size="10.00">pcl_conversions/pcl</text>
<text text-anchor="middle" x="233.5" y="-7.5" font-family="Helvetica,sans-Serif" font-size="10.00">_conversions.h</text>
</g>
<!-- Node2&#45;&gt;Node5 -->
<g id="edge4" class="edge"><title>Node2&#45;&gt;Node5</title>
<path fill="none" stroke="midnightblue" d="M285.962,-67.396C277.007,-58.7079 265.356,-47.4046 255.309,-37.6576"/>
<polygon fill="midnightblue" stroke="midnightblue" points="257.624,-35.0276 248.01,-30.5765 252.75,-40.0518 257.624,-35.0276"/>
</g>
<!-- Node6 -->
<g id="node6" class="node"><title>Node6</title>
<polygon fill="white" stroke="#bfbfbf" points="303,-6 303,-25 432,-25 432,-6 303,-6"/>
<text text-anchor="middle" x="367.5" y="-13" font-family="Helvetica,sans-Serif" font-size="10.00">pcl_msgs/PolygonMesh.h</text>
</g>
<!-- Node2&#45;&gt;Node6 -->
<g id="edge5" class="edge"><title>Node2&#45;&gt;Node6</title>
<path fill="none" stroke="midnightblue" d="M315.038,-67.396C325.692,-57.0604 340.16,-43.0237 351.205,-32.309"/>
<polygon fill="midnightblue" stroke="midnightblue" points="353.798,-34.6698 358.538,-25.1945 348.923,-29.6456 353.798,-34.6698"/>
</g>
<!-- Node7 -->
<g id="node7" class="node"><title>Node7</title>
<polygon fill="white" stroke="#bfbfbf" points="450.5,-6 450.5,-25 590.5,-25 590.5,-6 450.5,-6"/>
<text text-anchor="middle" x="520.5" y="-13" font-family="Helvetica,sans-Serif" font-size="10.00">sensor_msgs/PointCloud2.h</text>
</g>
<!-- Node2&#45;&gt;Node7 -->
<g id="edge6" class="edge"><title>Node2&#45;&gt;Node7</title>
<path fill="none" stroke="midnightblue" d="M347.966,-67.476C387.915,-55.6727 444.343,-39.0009 481.648,-27.9789"/>
<polygon fill="midnightblue" stroke="midnightblue" points="483.035,-31.2188 491.634,-25.0287 481.052,-24.5056 483.035,-31.2188"/>
</g>
<!-- Node8 -->
<g id="node8" class="node"><title>Node8</title>
<polygon fill="white" stroke="#bfbfbf" points="608.5,-0.5 608.5,-30.5 700.5,-30.5 700.5,-0.5 608.5,-0.5"/>
<text text-anchor="start" x="616.5" y="-18.5" font-family="Helvetica,sans-Serif" font-size="10.00">pcl_utilization/pcl</text>
<text text-anchor="middle" x="654.5" y="-7.5" font-family="Helvetica,sans-Serif" font-size="10.00">_utilization.h</text>
</g>
<!-- Node2&#45;&gt;Node8 -->
<g id="edge7" class="edge"><title>Node2&#45;&gt;Node8</title>
<path fill="none" stroke="midnightblue" d="M369.119,-71.7157C427.624,-62.9612 514.129,-49.0456 598.366,-31.1344"/>
<polygon fill="midnightblue" stroke="midnightblue" points="599.317,-34.51 608.359,-28.9882 597.847,-27.6661 599.317,-34.51"/>
</g>
</g>
</svg>
