<?xml version="1.0" encoding="UTF-8" standalone="no"?>
<!DOCTYPE svg PUBLIC "-//W3C//DTD SVG 1.1//EN"
 "http://www.w3.org/Graphics/SVG/1.1/DTD/svg11.dtd">
<!-- Generated by graphviz version 2.38.0 (20140413.2041)
 -->
<!-- Title: /home/jc/hull_abstraction/ros/src/hull_abstraction/src/display_mesh_node/display_mesh.h Pages: 1 -->
<svg width="1037pt" height="184pt"
 viewBox="0.00 0.00 1037.00 184.00" xmlns="http://www.w3.org/2000/svg" xmlns:xlink="http://www.w3.org/1999/xlink">
<g id="graph0" class="graph" transform="scale(1 1) rotate(0) translate(4 180)">
<title>/home/jc/hull_abstraction/ros/src/hull_abstraction/src/display_mesh_node/display_mesh.h</title>
<polygon fill="white" stroke="none" points="-4,4 -4,-180 1033,-180 1033,4 -4,4"/>
<!-- Node1 -->
<g id="node1" class="node"><title>Node1</title>
<polygon fill="#bfbfbf" stroke="black" points="248.5,-134.5 248.5,-175.5 442.5,-175.5 442.5,-134.5 248.5,-134.5"/>
<text text-anchor="start" x="256.5" y="-163.5" font-family="Helvetica,sans-Serif" font-size="10.00">/home/jc/hull_abstraction</text>
<text text-anchor="start" x="256.5" y="-152.5" font-family="Helvetica,sans-Serif" font-size="10.00">/ros/src/hull_abstraction</text>
<text text-anchor="middle" x="345.5" y="-141.5" font-family="Helvetica,sans-Serif" font-size="10.00">/src/display_mesh_node/display_mesh.h</text>
</g>
<!-- Node2 -->
<g id="node2" class="node"><title>Node2</title>
<polygon fill="white" stroke="#bfbfbf" points="0,-6 0,-25 55,-25 55,-6 0,-6"/>
<text text-anchor="middle" x="27.5" y="-13" font-family="Helvetica,sans-Serif" font-size="10.00">ros/ros.h</text>
</g>
<!-- Node1&#45;&gt;Node2 -->
<g id="edge1" class="edge"><title>Node1&#45;&gt;Node2</title>
<path fill="none" stroke="midnightblue" d="M294.71,-134.375C268.026,-123.89 234.854,-110.582 205.5,-98 151.62,-74.9055 89.5451,-45.9362 54.7741,-29.4909"/>
<polygon fill="midnightblue" stroke="midnightblue" points="55.8448,-26.1252 45.3094,-25.0047 52.8466,-32.4506 55.8448,-26.1252"/>
</g>
<!-- Node3 -->
<g id="node3" class="node"><title>Node3</title>
<polygon fill="white" stroke="#bfbfbf" points="455.5,-73 455.5,-92 545.5,-92 545.5,-73 455.5,-73"/>
<text text-anchor="middle" x="500.5" y="-80" font-family="Helvetica,sans-Serif" font-size="10.00">pcl/point_cloud.h</text>
</g>
<!-- Node1&#45;&gt;Node3 -->
<g id="edge2" class="edge"><title>Node1&#45;&gt;Node3</title>
<path fill="none" stroke="midnightblue" d="M388.676,-134.362C415.325,-122.241 448.76,-107.034 472.097,-96.4189"/>
<polygon fill="midnightblue" stroke="midnightblue" points="473.777,-99.4996 481.431,-92.1734 470.879,-93.1277 473.777,-99.4996"/>
</g>
<!-- Node4 -->
<g id="node4" class="node"><title>Node4</title>
<polygon fill="white" stroke="#bfbfbf" points="73,-0.5 73,-30.5 176,-30.5 176,-0.5 73,-0.5"/>
<text text-anchor="start" x="81" y="-18.5" font-family="Helvetica,sans-Serif" font-size="10.00">pcl_conversions/pcl</text>
<text text-anchor="middle" x="124.5" y="-7.5" font-family="Helvetica,sans-Serif" font-size="10.00">_conversions.h</text>
</g>
<!-- Node1&#45;&gt;Node4 -->
<g id="edge3" class="edge"><title>Node1&#45;&gt;Node4</title>
<path fill="none" stroke="midnightblue" d="M313.836,-134.3C271.694,-108.08 197.63,-61.9994 155.715,-35.9214"/>
<polygon fill="midnightblue" stroke="midnightblue" points="157.373,-32.8307 147.034,-30.5197 153.675,-38.7743 157.373,-32.8307"/>
</g>
<!-- Node5 -->
<g id="node5" class="node"><title>Node5</title>
<polygon fill="white" stroke="#bfbfbf" points="564,-73 564,-92 693,-92 693,-73 564,-73"/>
<text text-anchor="middle" x="628.5" y="-80" font-family="Helvetica,sans-Serif" font-size="10.00">pcl_msgs/PolygonMesh.h</text>
</g>
<!-- Node1&#45;&gt;Node5 -->
<g id="edge4" class="edge"><title>Node1&#45;&gt;Node5</title>
<path fill="none" stroke="midnightblue" d="M423.955,-134.455C475.747,-121.553 541.704,-105.122 584.5,-94.4611"/>
<polygon fill="midnightblue" stroke="midnightblue" points="585.47,-97.8266 594.327,-92.013 583.778,-91.0341 585.47,-97.8266"/>
</g>
<!-- Node6 -->
<g id="node6" class="node"><title>Node6</title>
<polygon fill="white" stroke="#bfbfbf" points="194.5,-6 194.5,-25 334.5,-25 334.5,-6 194.5,-6"/>
<text text-anchor="middle" x="264.5" y="-13" font-family="Helvetica,sans-Serif" font-size="10.00">sensor_msgs/PointCloud2.h</text>
</g>
<!-- Node1&#45;&gt;Node6 -->
<g id="edge5" class="edge"><title>Node1&#45;&gt;Node6</title>
<path fill="none" stroke="midnightblue" d="M333.895,-134.3C317.991,-107.303 289.684,-59.251 274.607,-33.6569"/>
<polygon fill="midnightblue" stroke="midnightblue" points="277.621,-31.8776 269.53,-25.0379 271.59,-35.4306 277.621,-31.8776"/>
</g>
<!-- Node7 -->
<g id="node7" class="node"><title>Node7</title>
<g id="a_node7"><a xlink:href="pcl__utilization_8h.html" target="_top" xlink:title="This file contains the declaration of PCL utilization methods. ">
<polygon fill="white" stroke="black" points="345.5,-67.5 345.5,-97.5 437.5,-97.5 437.5,-67.5 345.5,-67.5"/>
<text text-anchor="start" x="353.5" y="-85.5" font-family="Helvetica,sans-Serif" font-size="10.00">pcl_utilization/pcl</text>
<text text-anchor="middle" x="391.5" y="-74.5" font-family="Helvetica,sans-Serif" font-size="10.00">_utilization.h</text>
</a>
</g>
</g>
<!-- Node1&#45;&gt;Node7 -->
<g id="edge6" class="edge"><title>Node1&#45;&gt;Node7</title>
<path fill="none" stroke="midnightblue" d="M358.314,-134.362C363.976,-125.684 370.671,-115.423 376.559,-106.399"/>
<polygon fill="midnightblue" stroke="midnightblue" points="379.576,-108.179 382.11,-97.8916 373.714,-104.354 379.576,-108.179"/>
</g>
<!-- Node7&#45;&gt;Node2 -->
<g id="edge7" class="edge"><title>Node7&#45;&gt;Node2</title>
<path fill="none" stroke="midnightblue" d="M345.439,-77.7761C281.331,-71.8367 161.982,-58.026 63.5,-31 60.9984,-30.3135 58.435,-29.5055 55.885,-28.6282"/>
<polygon fill="midnightblue" stroke="midnightblue" points="56.8672,-25.2582 46.2753,-25.0105 54.4009,-31.8093 56.8672,-25.2582"/>
</g>
<!-- Node7&#45;&gt;Node4 -->
<g id="edge11" class="edge"><title>Node7&#45;&gt;Node4</title>
<path fill="none" stroke="midnightblue" d="M345.297,-70.2521C301.172,-59.5101 234.39,-43.2522 185.826,-31.4296"/>
<polygon fill="midnightblue" stroke="midnightblue" points="186.606,-28.0173 176.062,-29.0525 184.95,-34.8186 186.606,-28.0173"/>
</g>
<!-- Node7&#45;&gt;Node6 -->
<g id="edge8" class="edge"><title>Node7&#45;&gt;Node6</title>
<path fill="none" stroke="midnightblue" d="M363.943,-67.396C342.054,-56.1928 311.668,-40.6412 290.262,-29.6853"/>
<polygon fill="midnightblue" stroke="midnightblue" points="291.618,-26.4475 281.121,-25.007 288.429,-32.6787 291.618,-26.4475"/>
</g>
<!-- Node8 -->
<g id="node8" class="node"><title>Node8</title>
<polygon fill="white" stroke="#bfbfbf" points="736.5,-0.5 736.5,-30.5 836.5,-30.5 836.5,-0.5 736.5,-0.5"/>
<text text-anchor="start" x="744.5" y="-18.5" font-family="Helvetica,sans-Serif" font-size="10.00">visualization_msgs</text>
<text text-anchor="middle" x="786.5" y="-7.5" font-family="Helvetica,sans-Serif" font-size="10.00">/Marker.h</text>
</g>
<!-- Node7&#45;&gt;Node8 -->
<g id="edge9" class="edge"><title>Node7&#45;&gt;Node8</title>
<path fill="none" stroke="midnightblue" d="M437.613,-68.8765C440.611,-68.2003 443.592,-67.567 446.5,-67 566.944,-43.5119 601.954,-53.5179 726.456,-31.0533"/>
<polygon fill="midnightblue" stroke="midnightblue" points="727.17,-34.4809 736.372,-29.2303 725.904,-27.5962 727.17,-34.4809"/>
</g>
<!-- Node9 -->
<g id="node9" class="node"><title>Node9</title>
<polygon fill="white" stroke="#bfbfbf" points="855,-6 855,-25 920,-25 920,-6 855,-6"/>
<text text-anchor="middle" x="887.5" y="-13" font-family="Helvetica,sans-Serif" font-size="10.00">Eigen/Core</text>
</g>
<!-- Node7&#45;&gt;Node9 -->
<g id="edge10" class="edge"><title>Node7&#45;&gt;Node9</title>
<path fill="none" stroke="midnightblue" d="M437.589,-68.749C440.593,-68.104 443.582,-67.5125 446.5,-67 621.869,-36.1964 671.403,-68.3267 845.5,-31 849,-30.2495 852.612,-29.2947 856.179,-28.2342"/>
<polygon fill="midnightblue" stroke="midnightblue" points="857.557,-31.4666 865.986,-25.0478 855.394,-24.8092 857.557,-31.4666"/>
</g>
<!-- Node10 -->
<g id="node10" class="node"><title>Node10</title>
<polygon fill="white" stroke="#bfbfbf" points="938,-6 938,-25 1029,-25 1029,-6 938,-6"/>
<text text-anchor="middle" x="983.5" y="-13" font-family="Helvetica,sans-Serif" font-size="10.00">pcl/point_types.h</text>
</g>
<!-- Node7&#45;&gt;Node10 -->
<g id="edge12" class="edge"><title>Node7&#45;&gt;Node10</title>
<path fill="none" stroke="midnightblue" d="M437.58,-68.6958C440.586,-68.0639 443.578,-67.4898 446.5,-67 658.8,-31.4126 717.282,-67.0713 929.5,-31 934.883,-30.085 940.508,-28.8721 946.008,-27.5363"/>
<polygon fill="midnightblue" stroke="midnightblue" points="946.886,-30.9244 955.694,-25.037 945.137,-24.1464 946.886,-30.9244"/>
</g>
<!-- Node11 -->
<g id="node11" class="node"><title>Node11</title>
<polygon fill="white" stroke="#bfbfbf" points="353,-6 353,-25 466,-25 466,-6 353,-6"/>
<text text-anchor="middle" x="409.5" y="-13" font-family="Helvetica,sans-Serif" font-size="10.00">pcl/PCLPointCloud2.h</text>
</g>
<!-- Node7&#45;&gt;Node11 -->
<g id="edge13" class="edge"><title>Node7&#45;&gt;Node11</title>
<path fill="none" stroke="midnightblue" d="M395.406,-67.396C398.046,-57.8631 401.557,-45.1818 404.415,-34.8624"/>
<polygon fill="midnightblue" stroke="midnightblue" points="407.796,-35.7659 407.092,-25.1945 401.05,-33.8977 407.796,-35.7659"/>
</g>
<!-- Node12 -->
<g id="node12" class="node"><title>Node12</title>
<polygon fill="white" stroke="#bfbfbf" points="484.5,-6 484.5,-25 600.5,-25 600.5,-6 484.5,-6"/>
<text text-anchor="middle" x="542.5" y="-13" font-family="Helvetica,sans-Serif" font-size="10.00">pcl/common/centroid.h</text>
</g>
<!-- Node7&#45;&gt;Node12 -->
<g id="edge14" class="edge"><title>Node7&#45;&gt;Node12</title>
<path fill="none" stroke="midnightblue" d="M424.265,-67.396C450.759,-55.991 487.723,-40.0794 513.235,-29.0976"/>
<polygon fill="midnightblue" stroke="midnightblue" points="514.936,-32.1757 522.738,-25.007 512.169,-25.7461 514.936,-32.1757"/>
</g>
<!-- Node13 -->
<g id="node13" class="node"><title>Node13</title>
<polygon fill="white" stroke="#bfbfbf" points="618.5,-6 618.5,-25 718.5,-25 718.5,-6 618.5,-6"/>
<text text-anchor="middle" x="668.5" y="-13" font-family="Helvetica,sans-Serif" font-size="10.00">pcl/search/kdtree.h</text>
</g>
<!-- Node7&#45;&gt;Node13 -->
<g id="edge15" class="edge"><title>Node7&#45;&gt;Node13</title>
<path fill="none" stroke="midnightblue" d="M437.679,-69.1808C440.661,-68.4301 443.621,-67.6972 446.5,-67 518.606,-49.5399 537.25,-47.8543 609.5,-31 614.257,-29.8902 619.224,-28.7075 624.169,-27.5144"/>
<polygon fill="midnightblue" stroke="midnightblue" points="625.325,-30.8354 634.215,-25.0711 623.671,-24.0337 625.325,-30.8354"/>
</g>
</g>
</svg>
