<?xml version="1.0" encoding="UTF-8" standalone="no"?>
<!DOCTYPE svg PUBLIC "-//W3C//DTD SVG 1.1//EN"
 "http://www.w3.org/Graphics/SVG/1.1/DTD/svg11.dtd">
<!-- Generated by graphviz version 2.38.0 (20140413.2041)
 -->
<!-- Title: /home/jc/hull_abstraction/ros/src/hull_abstraction/src/display_mesh_node/display_mesh.h Pages: 1 -->
<svg width="324pt" height="139pt"
 viewBox="0.00 0.00 323.50 139.00" xmlns="http://www.w3.org/2000/svg" xmlns:xlink="http://www.w3.org/1999/xlink">
<g id="graph0" class="graph" transform="scale(1 1) rotate(0) translate(4 135)">
<title>/home/jc/hull_abstraction/ros/src/hull_abstraction/src/display_mesh_node/display_mesh.h</title>
<polygon fill="white" stroke="none" points="-4,4 -4,-135 319.5,-135 319.5,4 -4,4"/>
<!-- Node1 -->
<g id="node1" class="node"><title>Node1</title>
<polygon fill="#bfbfbf" stroke="black" points="64,-89.5 64,-130.5 258,-130.5 258,-89.5 64,-89.5"/>
<text text-anchor="start" x="72" y="-118.5" font-family="Helvetica,sans-Serif" font-size="10.00">/home/jc/hull_abstraction</text>
<text text-anchor="start" x="72" y="-107.5" font-family="Helvetica,sans-Serif" font-size="10.00">/ros/src/hull_abstraction</text>
<text text-anchor="middle" x="161" y="-96.5" font-family="Helvetica,sans-Serif" font-size="10.00">/src/display_mesh_node/display_mesh.h</text>
</g>
<!-- Node2 -->
<g id="node2" class="node"><title>Node2</title>
<g id="a_node2"><a xlink:href="display__mesh_8cpp.html" target="_top" xlink:title="/home/jc/hull_abstraction\l/ros/src/hull_abstraction\l/src/display_mesh_node/display\l_mesh.cpp">
<polygon fill="white" stroke="black" points="0,-0.5 0,-52.5 156,-52.5 156,-0.5 0,-0.5"/>
<text text-anchor="start" x="8" y="-40.5" font-family="Helvetica,sans-Serif" font-size="10.00">/home/jc/hull_abstraction</text>
<text text-anchor="start" x="8" y="-29.5" font-family="Helvetica,sans-Serif" font-size="10.00">/ros/src/hull_abstraction</text>
<text text-anchor="start" x="8" y="-18.5" font-family="Helvetica,sans-Serif" font-size="10.00">/src/display_mesh_node/display</text>
<text text-anchor="middle" x="78" y="-7.5" font-family="Helvetica,sans-Serif" font-size="10.00">_mesh.cpp</text>
</a>
</g>
</g>
<!-- Node1&#45;&gt;Node2 -->
<g id="edge1" class="edge"><title>Node1&#45;&gt;Node2</title>
<path fill="none" stroke="midnightblue" d="M133.752,-82.2447C124.038,-72.7059 113.138,-62.0026 103.569,-52.6073"/>
<polygon fill="midnightblue" stroke="midnightblue" points="131.321,-84.7621 140.908,-89.2711 136.225,-79.7674 131.321,-84.7621"/>
</g>
<!-- Node3 -->
<g id="node3" class="node"><title>Node3</title>
<g id="a_node3"><a xlink:href="display__mesh__node_8cpp.html" target="_top" xlink:title="/home/jc/hull_abstraction\l/ros/src/hull_abstraction\l/src/display_mesh_node.cpp">
<polygon fill="white" stroke="black" points="174.5,-6 174.5,-47 315.5,-47 315.5,-6 174.5,-6"/>
<text text-anchor="start" x="182.5" y="-35" font-family="Helvetica,sans-Serif" font-size="10.00">/home/jc/hull_abstraction</text>
<text text-anchor="start" x="182.5" y="-24" font-family="Helvetica,sans-Serif" font-size="10.00">/ros/src/hull_abstraction</text>
<text text-anchor="middle" x="245" y="-13" font-family="Helvetica,sans-Serif" font-size="10.00">/src/display_mesh_node.cpp</text>
</a>
</g>
</g>
<!-- Node1&#45;&gt;Node3 -->
<g id="edge2" class="edge"><title>Node1&#45;&gt;Node3</title>
<path fill="none" stroke="midnightblue" d="M188.789,-82.0383C200.573,-70.6044 214.05,-57.5287 224.853,-47.0472"/>
<polygon fill="midnightblue" stroke="midnightblue" points="186.074,-79.7957 181.334,-89.2711 190.948,-84.8196 186.074,-79.7957"/>
</g>
</g>
</svg>
