<?xml version="1.0" encoding="UTF-8" standalone="no"?>
<!DOCTYPE svg PUBLIC "-//W3C//DTD SVG 1.1//EN"
 "http://www.w3.org/Graphics/SVG/1.1/DTD/svg11.dtd">
<!-- Generated by graphviz version 2.38.0 (20140413.2041)
 -->
<!-- Title: /home/jc/hull_abstraction/prototype/include/hull_abstraction/functions.h Pages: 1 -->
<svg width="687pt" height="117pt"
 viewBox="0.00 0.00 686.50 117.00" xmlns="http://www.w3.org/2000/svg" xmlns:xlink="http://www.w3.org/1999/xlink">
<g id="graph0" class="graph" transform="scale(1 1) rotate(0) translate(4 113)">
<title>/home/jc/hull_abstraction/prototype/include/hull_abstraction/functions.h</title>
<polygon fill="white" stroke="none" points="-4,4 -4,-113 682.5,-113 682.5,4 -4,4"/>
<!-- Node1 -->
<g id="node1" class="node"><title>Node1</title>
<polygon fill="#bfbfbf" stroke="black" points="177,-67.5 177,-108.5 302,-108.5 302,-67.5 177,-67.5"/>
<text text-anchor="start" x="185" y="-96.5" font-family="Helvetica,sans-Serif" font-size="10.00">/home/jc/hull_abstraction</text>
<text text-anchor="start" x="185" y="-85.5" font-family="Helvetica,sans-Serif" font-size="10.00">/prototype/include/hull</text>
<text text-anchor="middle" x="239.5" y="-74.5" font-family="Helvetica,sans-Serif" font-size="10.00">_abstraction/functions.h</text>
</g>
<!-- Node2 -->
<g id="node2" class="node"><title>Node2</title>
<polygon fill="white" stroke="#bfbfbf" points="0,-6 0,-25 47,-25 47,-6 0,-6"/>
<text text-anchor="middle" x="23.5" y="-13" font-family="Helvetica,sans-Serif" font-size="10.00">math.h</text>
</g>
<!-- Node1&#45;&gt;Node2 -->
<g id="edge1" class="edge"><title>Node1&#45;&gt;Node2</title>
<path fill="none" stroke="midnightblue" d="M176.64,-69.7375C141.048,-59.4733 95.902,-45.6281 56.5,-31 54.8464,-30.3861 53.1568,-29.7316 51.4593,-29.0528"/>
<polygon fill="midnightblue" stroke="midnightblue" points="52.4197,-25.6601 41.8445,-25.0148 49.7091,-32.114 52.4197,-25.6601"/>
</g>
<!-- Node3 -->
<g id="node3" class="node"><title>Node3</title>
<polygon fill="white" stroke="#bfbfbf" points="65.5,-6 65.5,-25 109.5,-25 109.5,-6 65.5,-6"/>
<text text-anchor="middle" x="87.5" y="-13" font-family="Helvetica,sans-Serif" font-size="10.00">time.h</text>
</g>
<!-- Node1&#45;&gt;Node3 -->
<g id="edge2" class="edge"><title>Node1&#45;&gt;Node3</title>
<path fill="none" stroke="midnightblue" d="M197.202,-67.4752C173.962,-56.7344 144.629,-43.1572 118.5,-31 117.349,-30.4642 116.173,-29.9169 114.986,-29.3636"/>
<polygon fill="midnightblue" stroke="midnightblue" points="116.395,-26.1588 105.853,-25.0997 113.434,-32.5016 116.395,-26.1588"/>
</g>
<!-- Node4 -->
<g id="node4" class="node"><title>Node4</title>
<polygon fill="white" stroke="#bfbfbf" points="127.5,-6 127.5,-25 175.5,-25 175.5,-6 127.5,-6"/>
<text text-anchor="middle" x="151.5" y="-13" font-family="Helvetica,sans-Serif" font-size="10.00">stdlib.h</text>
</g>
<!-- Node1&#45;&gt;Node4 -->
<g id="edge3" class="edge"><title>Node1&#45;&gt;Node4</title>
<path fill="none" stroke="midnightblue" d="M214.987,-67.3618C200.803,-55.9984 183.233,-41.9224 170.175,-31.4611"/>
<polygon fill="midnightblue" stroke="midnightblue" points="172.319,-28.6942 162.326,-25.1734 167.942,-34.1573 172.319,-28.6942"/>
</g>
<!-- Node5 -->
<g id="node5" class="node"><title>Node5</title>
<polygon fill="white" stroke="#bfbfbf" points="194,-6 194,-25 285,-25 285,-6 194,-6"/>
<text text-anchor="middle" x="239.5" y="-13" font-family="Helvetica,sans-Serif" font-size="10.00">pcl/point_types.h</text>
</g>
<!-- Node1&#45;&gt;Node5 -->
<g id="edge4" class="edge"><title>Node1&#45;&gt;Node5</title>
<path fill="none" stroke="midnightblue" d="M239.5,-67.3618C239.5,-57.297 239.5,-45.1043 239.5,-35.18"/>
<polygon fill="midnightblue" stroke="midnightblue" points="243,-35.1733 239.5,-25.1734 236,-35.1734 243,-35.1733"/>
</g>
<!-- Node6 -->
<g id="node6" class="node"><title>Node6</title>
<polygon fill="white" stroke="#bfbfbf" points="303,-6 303,-25 416,-25 416,-6 303,-6"/>
<text text-anchor="middle" x="359.5" y="-13" font-family="Helvetica,sans-Serif" font-size="10.00">pcl/PCLPointCloud2.h</text>
</g>
<!-- Node1&#45;&gt;Node6 -->
<g id="edge5" class="edge"><title>Node1&#45;&gt;Node6</title>
<path fill="none" stroke="midnightblue" d="M272.927,-67.3618C293.006,-55.5655 318.06,-40.846 336.042,-30.2816"/>
<polygon fill="midnightblue" stroke="midnightblue" points="337.888,-33.2567 344.737,-25.1734 334.342,-27.2212 337.888,-33.2567"/>
</g>
<!-- Node7 -->
<g id="node7" class="node"><title>Node7</title>
<polygon fill="white" stroke="#bfbfbf" points="434.5,-6 434.5,-25 558.5,-25 558.5,-6 434.5,-6"/>
<text text-anchor="middle" x="496.5" y="-13" font-family="Helvetica,sans-Serif" font-size="10.00">pcl/features/normal_3d.h</text>
</g>
<!-- Node1&#45;&gt;Node7 -->
<g id="edge6" class="edge"><title>Node1&#45;&gt;Node7</title>
<path fill="none" stroke="midnightblue" d="M302.041,-69.8439C349.808,-56.7405 414.258,-39.0605 455.607,-27.7176"/>
<polygon fill="midnightblue" stroke="midnightblue" points="456.624,-31.0681 465.342,-25.0473 454.772,-24.3175 456.624,-31.0681"/>
</g>
<!-- Node8 -->
<g id="node8" class="node"><title>Node8</title>
<polygon fill="white" stroke="#bfbfbf" points="576.5,-0.5 576.5,-30.5 678.5,-30.5 678.5,-0.5 576.5,-0.5"/>
<text text-anchor="start" x="584.5" y="-18.5" font-family="Helvetica,sans-Serif" font-size="10.00">pcl/visualization/pcl</text>
<text text-anchor="middle" x="627.5" y="-7.5" font-family="Helvetica,sans-Serif" font-size="10.00">_visualizer.h</text>
</g>
<!-- Node1&#45;&gt;Node8 -->
<g id="edge7" class="edge"><title>Node1&#45;&gt;Node8</title>
<path fill="none" stroke="midnightblue" d="M302.006,-77.6241C365.98,-67.7356 468.471,-51.0874 566.416,-31.1436"/>
<polygon fill="midnightblue" stroke="midnightblue" points="567.397,-34.5153 576.49,-29.0772 565.991,-27.6581 567.397,-34.5153"/>
</g>
</g>
</svg>
