<?xml version="1.0" encoding="UTF-8" standalone="no"?>
<!DOCTYPE svg PUBLIC "-//W3C//DTD SVG 1.1//EN"
 "http://www.w3.org/Graphics/SVG/1.1/DTD/svg11.dtd">
<!-- Generated by graphviz version 2.38.0 (20140413.2041)
 -->
<!-- Title: /home/jc/hull_abstraction/prototype/src/hull_abstraction/functions.cpp Pages: 1 -->
<svg width="687pt" height="173pt"
 viewBox="0.00 0.00 686.50 173.00" xmlns="http://www.w3.org/2000/svg" xmlns:xlink="http://www.w3.org/1999/xlink">
<g id="graph0" class="graph" transform="scale(1 1) rotate(0) translate(4 169)">
<title>/home/jc/hull_abstraction/prototype/src/hull_abstraction/functions.cpp</title>
<polygon fill="white" stroke="none" points="-4,4 -4,-169 682.5,-169 682.5,4 -4,4"/>
<!-- Node1 -->
<g id="node1" class="node"><title>Node1</title>
<polygon fill="#bfbfbf" stroke="black" points="165.5,-123.5 165.5,-164.5 313.5,-164.5 313.5,-123.5 165.5,-123.5"/>
<text text-anchor="start" x="173.5" y="-152.5" font-family="Helvetica,sans-Serif" font-size="10.00">/home/jc/hull_abstraction</text>
<text text-anchor="start" x="173.5" y="-141.5" font-family="Helvetica,sans-Serif" font-size="10.00">/prototype/src/hull_abstraction</text>
<text text-anchor="middle" x="239.5" y="-130.5" font-family="Helvetica,sans-Serif" font-size="10.00">/functions.cpp</text>
</g>
<!-- Node2 -->
<g id="node2" class="node"><title>Node2</title>
<g id="a_node2"><a xlink:href="functions_8h.html" target="_top" xlink:title="hull_abstraction/functions.h">
<polygon fill="white" stroke="black" points="171.5,-67.5 171.5,-86.5 307.5,-86.5 307.5,-67.5 171.5,-67.5"/>
<text text-anchor="middle" x="239.5" y="-74.5" font-family="Helvetica,sans-Serif" font-size="10.00">hull_abstraction/functions.h</text>
</a>
</g>
</g>
<!-- Node1&#45;&gt;Node2 -->
<g id="edge1" class="edge"><title>Node1&#45;&gt;Node2</title>
<path fill="none" stroke="midnightblue" d="M239.5,-123.498C239.5,-115.065 239.5,-105.235 239.5,-96.874"/>
<polygon fill="midnightblue" stroke="midnightblue" points="243,-96.6525 239.5,-86.6525 236,-96.6525 243,-96.6525"/>
</g>
<!-- Node3 -->
<g id="node3" class="node"><title>Node3</title>
<polygon fill="white" stroke="#bfbfbf" points="0,-6 0,-25 47,-25 47,-6 0,-6"/>
<text text-anchor="middle" x="23.5" y="-13" font-family="Helvetica,sans-Serif" font-size="10.00">math.h</text>
</g>
<!-- Node2&#45;&gt;Node3 -->
<g id="edge2" class="edge"><title>Node2&#45;&gt;Node3</title>
<path fill="none" stroke="midnightblue" d="M195.631,-67.443C158.174,-59.6099 103.121,-46.8419 56.5,-31 54.6336,-30.3658 52.7269,-29.6681 50.818,-28.9322"/>
<polygon fill="midnightblue" stroke="midnightblue" points="52.011,-25.6382 41.4325,-25.0507 49.3358,-32.1068 52.011,-25.6382"/>
</g>
<!-- Node4 -->
<g id="node4" class="node"><title>Node4</title>
<polygon fill="white" stroke="#bfbfbf" points="65.5,-6 65.5,-25 109.5,-25 109.5,-6 65.5,-6"/>
<text text-anchor="middle" x="87.5" y="-13" font-family="Helvetica,sans-Serif" font-size="10.00">time.h</text>
</g>
<!-- Node2&#45;&gt;Node4 -->
<g id="edge3" class="edge"><title>Node2&#45;&gt;Node4</title>
<path fill="none" stroke="midnightblue" d="M214.705,-67.4456C190.084,-58.7954 151.368,-44.7716 118.5,-31 117.13,-30.426 115.732,-29.8258 114.324,-29.21"/>
<polygon fill="midnightblue" stroke="midnightblue" points="115.647,-25.967 105.094,-25.0323 112.761,-32.3442 115.647,-25.967"/>
</g>
<!-- Node5 -->
<g id="node5" class="node"><title>Node5</title>
<polygon fill="white" stroke="#bfbfbf" points="127.5,-6 127.5,-25 175.5,-25 175.5,-6 127.5,-6"/>
<text text-anchor="middle" x="151.5" y="-13" font-family="Helvetica,sans-Serif" font-size="10.00">stdlib.h</text>
</g>
<!-- Node2&#45;&gt;Node5 -->
<g id="edge4" class="edge"><title>Node2&#45;&gt;Node5</title>
<path fill="none" stroke="midnightblue" d="M226.892,-67.4751C212.777,-57.9315 189.669,-42.3073 172.751,-30.8683"/>
<polygon fill="midnightblue" stroke="midnightblue" points="174.329,-27.7109 164.085,-25.0091 170.409,-33.5098 174.329,-27.7109"/>
</g>
<!-- Node6 -->
<g id="node6" class="node"><title>Node6</title>
<polygon fill="white" stroke="#bfbfbf" points="194,-6 194,-25 285,-25 285,-6 194,-6"/>
<text text-anchor="middle" x="239.5" y="-13" font-family="Helvetica,sans-Serif" font-size="10.00">pcl/point_types.h</text>
</g>
<!-- Node2&#45;&gt;Node6 -->
<g id="edge5" class="edge"><title>Node2&#45;&gt;Node6</title>
<path fill="none" stroke="midnightblue" d="M239.5,-67.4751C239.5,-59.0803 239.5,-45.9806 239.5,-35.1631"/>
<polygon fill="midnightblue" stroke="midnightblue" points="243,-35.0091 239.5,-25.0091 236,-35.0091 243,-35.0091"/>
</g>
<!-- Node7 -->
<g id="node7" class="node"><title>Node7</title>
<polygon fill="white" stroke="#bfbfbf" points="303,-6 303,-25 416,-25 416,-6 303,-6"/>
<text text-anchor="middle" x="359.5" y="-13" font-family="Helvetica,sans-Serif" font-size="10.00">pcl/PCLPointCloud2.h</text>
</g>
<!-- Node2&#45;&gt;Node7 -->
<g id="edge6" class="edge"><title>Node2&#45;&gt;Node7</title>
<path fill="none" stroke="midnightblue" d="M256.693,-67.4751C276.743,-57.5338 310.099,-40.9947 333.36,-29.461"/>
<polygon fill="midnightblue" stroke="midnightblue" points="334.934,-32.5871 342.339,-25.0091 331.825,-26.3157 334.934,-32.5871"/>
</g>
<!-- Node8 -->
<g id="node8" class="node"><title>Node8</title>
<polygon fill="white" stroke="#bfbfbf" points="434.5,-6 434.5,-25 558.5,-25 558.5,-6 434.5,-6"/>
<text text-anchor="middle" x="496.5" y="-13" font-family="Helvetica,sans-Serif" font-size="10.00">pcl/features/normal_3d.h</text>
</g>
<!-- Node2&#45;&gt;Node8 -->
<g id="edge7" class="edge"><title>Node2&#45;&gt;Node8</title>
<path fill="none" stroke="midnightblue" d="M276.322,-67.4751C322.029,-56.8932 400.025,-38.8356 449.866,-27.2966"/>
<polygon fill="midnightblue" stroke="midnightblue" points="450.794,-30.6745 459.746,-25.0091 449.215,-23.8549 450.794,-30.6745"/>
</g>
<!-- Node9 -->
<g id="node9" class="node"><title>Node9</title>
<polygon fill="white" stroke="#bfbfbf" points="576.5,-0.5 576.5,-30.5 678.5,-30.5 678.5,-0.5 576.5,-0.5"/>
<text text-anchor="start" x="584.5" y="-18.5" font-family="Helvetica,sans-Serif" font-size="10.00">pcl/visualization/pcl</text>
<text text-anchor="middle" x="627.5" y="-7.5" font-family="Helvetica,sans-Serif" font-size="10.00">_visualizer.h</text>
</g>
<!-- Node2&#45;&gt;Node9 -->
<g id="edge8" class="edge"><title>Node2&#45;&gt;Node9</title>
<path fill="none" stroke="midnightblue" d="M307.668,-68.6775C371.961,-61.3103 471.196,-48.7549 566.126,-31.1488"/>
<polygon fill="midnightblue" stroke="midnightblue" points="567.004,-34.5453 576.187,-29.2606 565.713,-27.6654 567.004,-34.5453"/>
</g>
</g>
</svg>
