<?xml version="1.0" encoding="UTF-8" standalone="no"?>
<!DOCTYPE svg PUBLIC "-//W3C//DTD SVG 1.1//EN"
 "http://www.w3.org/Graphics/SVG/1.1/DTD/svg11.dtd">
<!-- Generated by graphviz version 2.38.0 (20140413.2041)
 -->
<!-- Title: /home/jc/THESIS/hull_abstraction/ros/src/hull_abstraction/src/greedy_triangulation_node/greedy_triangulation.h Pages: 1 -->
<svg width="312pt" height="172pt"
 viewBox="0.00 0.00 311.50 172.00" xmlns="http://www.w3.org/2000/svg" xmlns:xlink="http://www.w3.org/1999/xlink">
<g id="graph0" class="graph" transform="scale(1 1) rotate(0) translate(4 168)">
<title>/home/jc/THESIS/hull_abstraction/ros/src/hull_abstraction/src/greedy_triangulation_node/greedy_triangulation.h</title>
<polygon fill="white" stroke="none" points="-4,4 -4,-168 307.5,-168 307.5,4 -4,4"/>
<!-- Node1 -->
<g id="node1" class="node"><title>Node1</title>
<polygon fill="#bfbfbf" stroke="black" points="80,-100.5 80,-163.5 213,-163.5 213,-100.5 80,-100.5"/>
<text text-anchor="start" x="88" y="-151.5" font-family="Helvetica,sans-Serif" font-size="10.00">/home/jc/THESIS/hull</text>
<text text-anchor="start" x="88" y="-140.5" font-family="Helvetica,sans-Serif" font-size="10.00">_abstraction/ros/src</text>
<text text-anchor="start" x="88" y="-129.5" font-family="Helvetica,sans-Serif" font-size="10.00">/hull_abstraction/src</text>
<text text-anchor="start" x="88" y="-118.5" font-family="Helvetica,sans-Serif" font-size="10.00">/greedy_triangulation_node</text>
<text text-anchor="middle" x="146.5" y="-107.5" font-family="Helvetica,sans-Serif" font-size="10.00">/greedy_triangulation.h</text>
</g>
<!-- Node2 -->
<g id="node2" class="node"><title>Node2</title>
<g id="a_node2"><a xlink:href="greedy__triangulation_8cpp.html" target="_top" xlink:title="/home/jc/THESIS/hull\l_abstraction/ros/src\l/hull_abstraction/src\l/greedy_triangulation_node\l/greedy_triangulation.cpp">
<polygon fill="white" stroke="black" points="0,-0.5 0,-63.5 133,-63.5 133,-0.5 0,-0.5"/>
<text text-anchor="start" x="8" y="-51.5" font-family="Helvetica,sans-Serif" font-size="10.00">/home/jc/THESIS/hull</text>
<text text-anchor="start" x="8" y="-40.5" font-family="Helvetica,sans-Serif" font-size="10.00">_abstraction/ros/src</text>
<text text-anchor="start" x="8" y="-29.5" font-family="Helvetica,sans-Serif" font-size="10.00">/hull_abstraction/src</text>
<text text-anchor="start" x="8" y="-18.5" font-family="Helvetica,sans-Serif" font-size="10.00">/greedy_triangulation_node</text>
<text text-anchor="middle" x="66.5" y="-7.5" font-family="Helvetica,sans-Serif" font-size="10.00">/greedy_triangulation.cpp</text>
</a>
</g>
</g>
<!-- Node1&#45;&gt;Node2 -->
<g id="edge1" class="edge"><title>Node1&#45;&gt;Node2</title>
<path fill="none" stroke="midnightblue" d="M114.991,-92.4011C107.193,-82.8488 98.9438,-72.7436 91.504,-63.6299"/>
<polygon fill="midnightblue" stroke="midnightblue" points="112.372,-94.7278 121.407,-100.261 117.795,-90.3011 112.372,-94.7278"/>
</g>
<!-- Node3 -->
<g id="node3" class="node"><title>Node3</title>
<g id="a_node3"><a xlink:href="greedy__triangulation__node_8cpp.html" target="_top" xlink:title="/home/jc/THESIS/hull\l_abstraction/ros/src\l/hull_abstraction/src\l/greedy_triangulation_node.cpp">
<polygon fill="white" stroke="black" points="151.5,-6 151.5,-58 303.5,-58 303.5,-6 151.5,-6"/>
<text text-anchor="start" x="159.5" y="-46" font-family="Helvetica,sans-Serif" font-size="10.00">/home/jc/THESIS/hull</text>
<text text-anchor="start" x="159.5" y="-35" font-family="Helvetica,sans-Serif" font-size="10.00">_abstraction/ros/src</text>
<text text-anchor="start" x="159.5" y="-24" font-family="Helvetica,sans-Serif" font-size="10.00">/hull_abstraction/src</text>
<text text-anchor="middle" x="227.5" y="-13" font-family="Helvetica,sans-Serif" font-size="10.00">/greedy_triangulation_node.cpp</text>
</a>
</g>
</g>
<!-- Node1&#45;&gt;Node3 -->
<g id="edge2" class="edge"><title>Node1&#45;&gt;Node3</title>
<path fill="none" stroke="midnightblue" d="M178.385,-92.4231C187.937,-80.8659 198.16,-68.4974 206.792,-58.0536"/>
<polygon fill="midnightblue" stroke="midnightblue" points="175.58,-90.3233 171.907,-100.261 180.975,-94.7829 175.58,-90.3233"/>
</g>
</g>
</svg>
