<?xml version="1.0" encoding="UTF-8" standalone="no"?>
<!DOCTYPE svg PUBLIC "-//W3C//DTD SVG 1.1//EN"
 "http://www.w3.org/Graphics/SVG/1.1/DTD/svg11.dtd">
<!-- Generated by graphviz version 2.38.0 (20140413.2041)
 -->
<!-- Title: /home/jc/hull_abstraction/ros/src/hull_abstraction/src/greedy_triangulation_node.cpp Pages: 1 -->
<svg width="1014pt" height="195pt"
 viewBox="0.00 0.00 1014.00 195.00" xmlns="http://www.w3.org/2000/svg" xmlns:xlink="http://www.w3.org/1999/xlink">
<g id="graph0" class="graph" transform="scale(1 1) rotate(0) translate(4 191)">
<title>/home/jc/hull_abstraction/ros/src/hull_abstraction/src/greedy_triangulation_node.cpp</title>
<polygon fill="white" stroke="none" points="-4,4 -4,-191 1010,-191 1010,4 -4,4"/>
<!-- Node1 -->
<g id="node1" class="node"><title>Node1</title>
<polygon fill="#bfbfbf" stroke="black" points="373.5,-134.5 373.5,-186.5 498.5,-186.5 498.5,-134.5 373.5,-134.5"/>
<text text-anchor="start" x="381.5" y="-174.5" font-family="Helvetica,sans-Serif" font-size="10.00">/home/jc/hull_abstraction</text>
<text text-anchor="start" x="381.5" y="-163.5" font-family="Helvetica,sans-Serif" font-size="10.00">/ros/src/hull_abstraction</text>
<text text-anchor="start" x="381.5" y="-152.5" font-family="Helvetica,sans-Serif" font-size="10.00">/src/greedy_triangulation</text>
<text text-anchor="middle" x="436" y="-141.5" font-family="Helvetica,sans-Serif" font-size="10.00">_node.cpp</text>
</g>
<!-- Node2 -->
<g id="node2" class="node"><title>Node2</title>
<g id="a_node2"><a xlink:href="greedy__triangulation_8h.html" target="_top" xlink:title="Framework of greedy triangulation node. ">
<polygon fill="white" stroke="black" points="365.5,-67.5 365.5,-97.5 506.5,-97.5 506.5,-67.5 365.5,-67.5"/>
<text text-anchor="start" x="373.5" y="-85.5" font-family="Helvetica,sans-Serif" font-size="10.00">greedy_triangulation</text>
<text text-anchor="middle" x="436" y="-74.5" font-family="Helvetica,sans-Serif" font-size="10.00">_node/greedy_triangulation.h</text>
</a>
</g>
</g>
<!-- Node1&#45;&gt;Node2 -->
<g id="edge1" class="edge"><title>Node1&#45;&gt;Node2</title>
<path fill="none" stroke="midnightblue" d="M436,-134.193C436,-125.786 436,-116.443 436,-108.091"/>
<polygon fill="midnightblue" stroke="midnightblue" points="439.5,-107.845 436,-97.8453 432.5,-107.845 439.5,-107.845"/>
</g>
<!-- Node3 -->
<g id="node3" class="node"><title>Node3</title>
<polygon fill="white" stroke="#bfbfbf" points="0,-6 0,-25 54,-25 54,-6 0,-6"/>
<text text-anchor="middle" x="27" y="-13" font-family="Helvetica,sans-Serif" font-size="10.00">iostream</text>
</g>
<!-- Node2&#45;&gt;Node3 -->
<g id="edge2" class="edge"><title>Node2&#45;&gt;Node3</title>
<path fill="none" stroke="midnightblue" d="M365.205,-77.1653C289.411,-71.3143 166.129,-58.2949 63,-31 60.4922,-30.3363 57.9246,-29.5442 55.3717,-28.6775"/>
<polygon fill="midnightblue" stroke="midnightblue" points="56.3495,-25.3064 45.7571,-25.0778 53.895,-31.862 56.3495,-25.3064"/>
</g>
<!-- Node4 -->
<g id="node4" class="node"><title>Node4</title>
<polygon fill="white" stroke="#bfbfbf" points="72.5,-6 72.5,-25 127.5,-25 127.5,-6 72.5,-6"/>
<text text-anchor="middle" x="100" y="-13" font-family="Helvetica,sans-Serif" font-size="10.00">ros/ros.h</text>
</g>
<!-- Node2&#45;&gt;Node4 -->
<g id="edge3" class="edge"><title>Node2&#45;&gt;Node4</title>
<path fill="none" stroke="midnightblue" d="M365.326,-73.7375C304.166,-66.0343 213.732,-52.2698 137,-31 134.409,-30.2818 131.75,-29.4463 129.103,-28.5458"/>
<polygon fill="midnightblue" stroke="midnightblue" points="130.308,-25.26 119.714,-25.0935 127.892,-31.8298 130.308,-25.26"/>
</g>
<!-- Node5 -->
<g id="node5" class="node"><title>Node5</title>
<polygon fill="white" stroke="#bfbfbf" points="146,-6 146,-25 286,-25 286,-6 146,-6"/>
<text text-anchor="middle" x="216" y="-13" font-family="Helvetica,sans-Serif" font-size="10.00">sensor_msgs/PointCloud2.h</text>
</g>
<!-- Node2&#45;&gt;Node5 -->
<g id="edge4" class="edge"><title>Node2&#45;&gt;Node5</title>
<path fill="none" stroke="midnightblue" d="M388.534,-67.476C348.585,-55.6727 292.157,-39.0009 254.852,-27.9789"/>
<polygon fill="midnightblue" stroke="midnightblue" points="255.448,-24.5056 244.866,-25.0287 253.465,-31.2188 255.448,-24.5056"/>
</g>
<!-- Node6 -->
<g id="node6" class="node"><title>Node6</title>
<polygon fill="white" stroke="#bfbfbf" points="304.5,-6 304.5,-25 433.5,-25 433.5,-6 304.5,-6"/>
<text text-anchor="middle" x="369" y="-13" font-family="Helvetica,sans-Serif" font-size="10.00">pcl_msgs/PolygonMesh.h</text>
</g>
<!-- Node2&#45;&gt;Node6 -->
<g id="edge5" class="edge"><title>Node2&#45;&gt;Node6</title>
<path fill="none" stroke="midnightblue" d="M421.462,-67.396C410.808,-57.0604 396.34,-43.0237 385.295,-32.309"/>
<polygon fill="midnightblue" stroke="midnightblue" points="387.577,-29.6456 377.962,-25.1945 382.702,-34.6698 387.577,-29.6456"/>
</g>
<!-- Node7 -->
<g id="node7" class="node"><title>Node7</title>
<polygon fill="white" stroke="#bfbfbf" points="451.5,-0.5 451.5,-30.5 554.5,-30.5 554.5,-0.5 451.5,-0.5"/>
<text text-anchor="start" x="459.5" y="-18.5" font-family="Helvetica,sans-Serif" font-size="10.00">pcl_conversions/pcl</text>
<text text-anchor="middle" x="503" y="-7.5" font-family="Helvetica,sans-Serif" font-size="10.00">_conversions.h</text>
</g>
<!-- Node2&#45;&gt;Node7 -->
<g id="edge6" class="edge"><title>Node2&#45;&gt;Node7</title>
<path fill="none" stroke="midnightblue" d="M450.538,-67.396C459.493,-58.7079 471.144,-47.4046 481.191,-37.6576"/>
<polygon fill="midnightblue" stroke="midnightblue" points="483.75,-40.0518 488.49,-30.5765 478.876,-35.0276 483.75,-40.0518"/>
</g>
<!-- Node8 -->
<g id="node8" class="node"><title>Node8</title>
<polygon fill="white" stroke="#bfbfbf" points="572.5,-6 572.5,-25 725.5,-25 725.5,-6 572.5,-6"/>
<text text-anchor="middle" x="649" y="-13" font-family="Helvetica,sans-Serif" font-size="10.00">hull_abstraction/reconstructor.h</text>
</g>
<!-- Node2&#45;&gt;Node8 -->
<g id="edge7" class="edge"><title>Node2&#45;&gt;Node8</title>
<path fill="none" stroke="midnightblue" d="M481.956,-67.476C520.634,-55.6727 575.266,-39.0009 611.385,-27.9789"/>
<polygon fill="midnightblue" stroke="midnightblue" points="612.509,-31.2951 621.052,-25.0287 610.466,-24.5999 612.509,-31.2951"/>
</g>
<!-- Node9 -->
<g id="node9" class="node"><title>Node9</title>
<polygon fill="white" stroke="#bfbfbf" points="744,-6 744,-25 896,-25 896,-6 744,-6"/>
<text text-anchor="middle" x="820" y="-13" font-family="Helvetica,sans-Serif" font-size="10.00">hull_abstraction/preprocessor.h</text>
</g>
<!-- Node2&#45;&gt;Node9 -->
<g id="edge8" class="edge"><title>Node2&#45;&gt;Node9</title>
<path fill="none" stroke="midnightblue" d="M506.688,-69.5947C567.279,-59.382 656.887,-44.2591 735,-31 743.079,-29.6286 751.59,-28.1807 759.978,-26.7517"/>
<polygon fill="midnightblue" stroke="midnightblue" points="760.842,-30.1549 770.112,-25.0244 759.666,-23.2545 760.842,-30.1549"/>
</g>
<!-- Node10 -->
<g id="node10" class="node"><title>Node10</title>
<polygon fill="white" stroke="#bfbfbf" points="914,-0.5 914,-30.5 1006,-30.5 1006,-0.5 914,-0.5"/>
<text text-anchor="start" x="922" y="-18.5" font-family="Helvetica,sans-Serif" font-size="10.00">pcl_utilization/pcl</text>
<text text-anchor="middle" x="960" y="-7.5" font-family="Helvetica,sans-Serif" font-size="10.00">_utilization.h</text>
</g>
<!-- Node2&#45;&gt;Node10 -->
<g id="edge9" class="edge"><title>Node2&#45;&gt;Node10</title>
<path fill="none" stroke="midnightblue" d="M506.798,-77.2089C596.969,-71.001 757.651,-57.4531 903.847,-31.0337"/>
<polygon fill="midnightblue" stroke="midnightblue" points="904.695,-34.4367 913.9,-29.1921 903.433,-27.5513 904.695,-34.4367"/>
</g>
</g>
</svg>
