<?xml version="1.0" encoding="UTF-8" standalone="no"?>
<!DOCTYPE svg PUBLIC "-//W3C//DTD SVG 1.1//EN"
 "http://www.w3.org/Graphics/SVG/1.1/DTD/svg11.dtd">
<!-- Generated by graphviz version 2.38.0 (20140413.2041)
 -->
<!-- Title: /home/jc/hull_abstraction/ros/src/hull_abstraction/src/greedy_triangulation_node/greedy_triangulation.h Pages: 1 -->
<svg width="304pt" height="150pt"
 viewBox="0.00 0.00 303.50 150.00" xmlns="http://www.w3.org/2000/svg" xmlns:xlink="http://www.w3.org/1999/xlink">
<g id="graph0" class="graph" transform="scale(1 1) rotate(0) translate(4 146)">
<title>/home/jc/hull_abstraction/ros/src/hull_abstraction/src/greedy_triangulation_node/greedy_triangulation.h</title>
<polygon fill="white" stroke="none" points="-4,4 -4,-146 299.5,-146 299.5,4 -4,4"/>
<!-- Node1 -->
<g id="node1" class="node"><title>Node1</title>
<polygon fill="#bfbfbf" stroke="black" points="83.5,-89.5 83.5,-141.5 224.5,-141.5 224.5,-89.5 83.5,-89.5"/>
<text text-anchor="start" x="91.5" y="-129.5" font-family="Helvetica,sans-Serif" font-size="10.00">/home/jc/hull_abstraction</text>
<text text-anchor="start" x="91.5" y="-118.5" font-family="Helvetica,sans-Serif" font-size="10.00">/ros/src/hull_abstraction</text>
<text text-anchor="start" x="91.5" y="-107.5" font-family="Helvetica,sans-Serif" font-size="10.00">/src/greedy_triangulation</text>
<text text-anchor="middle" x="154" y="-96.5" font-family="Helvetica,sans-Serif" font-size="10.00">_node/greedy_triangulation.h</text>
</g>
<!-- Node2 -->
<g id="node2" class="node"><title>Node2</title>
<g id="a_node2"><a xlink:href="greedy__triangulation_8cpp.html" target="_top" xlink:title="/home/jc/hull_abstraction\l/ros/src/hull_abstraction\l/src/greedy_triangulation\l_node/greedy_triangulation.cpp">
<polygon fill="white" stroke="black" points="0,-0.5 0,-52.5 152,-52.5 152,-0.5 0,-0.5"/>
<text text-anchor="start" x="8" y="-40.5" font-family="Helvetica,sans-Serif" font-size="10.00">/home/jc/hull_abstraction</text>
<text text-anchor="start" x="8" y="-29.5" font-family="Helvetica,sans-Serif" font-size="10.00">/ros/src/hull_abstraction</text>
<text text-anchor="start" x="8" y="-18.5" font-family="Helvetica,sans-Serif" font-size="10.00">/src/greedy_triangulation</text>
<text text-anchor="middle" x="76" y="-7.5" font-family="Helvetica,sans-Serif" font-size="10.00">_node/greedy_triangulation.cpp</text>
</a>
</g>
</g>
<!-- Node1&#45;&gt;Node2 -->
<g id="edge1" class="edge"><title>Node1&#45;&gt;Node2</title>
<path fill="none" stroke="midnightblue" d="M124.674,-81.79C116.012,-72.1288 106.671,-61.7097 98.5101,-52.6075"/>
<polygon fill="midnightblue" stroke="midnightblue" points="122.158,-84.2267 131.439,-89.336 127.37,-79.5539 122.158,-84.2267"/>
</g>
<!-- Node3 -->
<g id="node3" class="node"><title>Node3</title>
<g id="a_node3"><a xlink:href="greedy__triangulation__node_8cpp.html" target="_top" xlink:title="/home/jc/hull_abstraction\l/ros/src/hull_abstraction\l/src/greedy_triangulation\l_node.cpp">
<polygon fill="white" stroke="black" points="170.5,-0.5 170.5,-52.5 295.5,-52.5 295.5,-0.5 170.5,-0.5"/>
<text text-anchor="start" x="178.5" y="-40.5" font-family="Helvetica,sans-Serif" font-size="10.00">/home/jc/hull_abstraction</text>
<text text-anchor="start" x="178.5" y="-29.5" font-family="Helvetica,sans-Serif" font-size="10.00">/ros/src/hull_abstraction</text>
<text text-anchor="start" x="178.5" y="-18.5" font-family="Helvetica,sans-Serif" font-size="10.00">/src/greedy_triangulation</text>
<text text-anchor="middle" x="233" y="-7.5" font-family="Helvetica,sans-Serif" font-size="10.00">_node.cpp</text>
</a>
</g>
</g>
<!-- Node1&#45;&gt;Node3 -->
<g id="edge2" class="edge"><title>Node1&#45;&gt;Node3</title>
<path fill="none" stroke="midnightblue" d="M183.702,-81.79C192.475,-72.1288 201.936,-61.7097 210.201,-52.6075"/>
<polygon fill="midnightblue" stroke="midnightblue" points="180.981,-79.5798 176.85,-89.336 186.164,-84.2856 180.981,-79.5798"/>
</g>
</g>
</svg>
