<?xml version="1.0" encoding="UTF-8" standalone="no"?>
<!DOCTYPE svg PUBLIC "-//W3C//DTD SVG 1.1//EN"
 "http://www.w3.org/Graphics/SVG/1.1/DTD/svg11.dtd">
<!-- Generated by graphviz version 2.38.0 (20140413.2041)
 -->
<!-- Title: /home/jc/THESIS/hull_abstraction/ros/src/hull_abstraction/src/greedy_triangulation_node/greedy_triangulation.h Pages: 1 -->
<svg width="1014pt" height="139pt"
 viewBox="0.00 0.00 1014.00 139.00" xmlns="http://www.w3.org/2000/svg" xmlns:xlink="http://www.w3.org/1999/xlink">
<g id="graph0" class="graph" transform="scale(1 1) rotate(0) translate(4 135)">
<title>/home/jc/THESIS/hull_abstraction/ros/src/hull_abstraction/src/greedy_triangulation_node/greedy_triangulation.h</title>
<polygon fill="white" stroke="none" points="-4,4 -4,-135 1010,-135 1010,4 -4,4"/>
<!-- Node1 -->
<g id="node1" class="node"><title>Node1</title>
<polygon fill="#bfbfbf" stroke="black" points="369.5,-67.5 369.5,-130.5 502.5,-130.5 502.5,-67.5 369.5,-67.5"/>
<text text-anchor="start" x="377.5" y="-118.5" font-family="Helvetica,sans-Serif" font-size="10.00">/home/jc/THESIS/hull</text>
<text text-anchor="start" x="377.5" y="-107.5" font-family="Helvetica,sans-Serif" font-size="10.00">_abstraction/ros/src</text>
<text text-anchor="start" x="377.5" y="-96.5" font-family="Helvetica,sans-Serif" font-size="10.00">/hull_abstraction/src</text>
<text text-anchor="start" x="377.5" y="-85.5" font-family="Helvetica,sans-Serif" font-size="10.00">/greedy_triangulation_node</text>
<text text-anchor="middle" x="436" y="-74.5" font-family="Helvetica,sans-Serif" font-size="10.00">/greedy_triangulation.h</text>
</g>
<!-- Node2 -->
<g id="node2" class="node"><title>Node2</title>
<polygon fill="white" stroke="#bfbfbf" points="0,-6 0,-25 54,-25 54,-6 0,-6"/>
<text text-anchor="middle" x="27" y="-13" font-family="Helvetica,sans-Serif" font-size="10.00">iostream</text>
</g>
<!-- Node1&#45;&gt;Node2 -->
<g id="edge1" class="edge"><title>Node1&#45;&gt;Node2</title>
<path fill="none" stroke="midnightblue" d="M369.367,-90.2274C294.01,-80.4748 168.112,-61.2612 63,-31 60.5638,-30.2986 58.0661,-29.4902 55.5775,-28.6214"/>
<polygon fill="midnightblue" stroke="midnightblue" points="56.7664,-25.3291 46.1747,-25.0695 54.2927,-31.8775 56.7664,-25.3291"/>
</g>
<!-- Node3 -->
<g id="node3" class="node"><title>Node3</title>
<polygon fill="white" stroke="#bfbfbf" points="72.5,-6 72.5,-25 127.5,-25 127.5,-6 72.5,-6"/>
<text text-anchor="middle" x="100" y="-13" font-family="Helvetica,sans-Serif" font-size="10.00">ros/ros.h</text>
</g>
<!-- Node1&#45;&gt;Node3 -->
<g id="edge2" class="edge"><title>Node1&#45;&gt;Node3</title>
<path fill="none" stroke="midnightblue" d="M369.327,-86.0969C308.226,-74.4747 215.592,-55.0504 137,-31 134.576,-30.2581 132.085,-29.4303 129.596,-28.5567"/>
<polygon fill="midnightblue" stroke="midnightblue" points="130.751,-25.2521 120.158,-25.0444 128.31,-31.8125 130.751,-25.2521"/>
</g>
<!-- Node4 -->
<g id="node4" class="node"><title>Node4</title>
<polygon fill="white" stroke="#bfbfbf" points="146,-6 146,-25 286,-25 286,-6 146,-6"/>
<text text-anchor="middle" x="216" y="-13" font-family="Helvetica,sans-Serif" font-size="10.00">sensor_msgs/PointCloud2.h</text>
</g>
<!-- Node1&#45;&gt;Node4 -->
<g id="edge3" class="edge"><title>Node1&#45;&gt;Node4</title>
<path fill="none" stroke="midnightblue" d="M369.396,-73.3261C329.455,-58.5297 280.423,-40.3656 248.712,-28.6183"/>
<polygon fill="midnightblue" stroke="midnightblue" points="249.652,-25.234 239.058,-25.0421 247.22,-31.7981 249.652,-25.234"/>
</g>
<!-- Node5 -->
<g id="node5" class="node"><title>Node5</title>
<polygon fill="white" stroke="#bfbfbf" points="304.5,-6 304.5,-25 433.5,-25 433.5,-6 304.5,-6"/>
<text text-anchor="middle" x="369" y="-13" font-family="Helvetica,sans-Serif" font-size="10.00">pcl_msgs/PolygonMesh.h</text>
</g>
<!-- Node1&#45;&gt;Node5 -->
<g id="edge4" class="edge"><title>Node1&#45;&gt;Node5</title>
<path fill="none" stroke="midnightblue" d="M410.67,-67.1883C401.155,-55.6134 390.702,-42.8992 382.647,-33.0999"/>
<polygon fill="midnightblue" stroke="midnightblue" points="385.322,-30.8427 376.268,-25.3406 379.915,-35.2881 385.322,-30.8427"/>
</g>
<!-- Node6 -->
<g id="node6" class="node"><title>Node6</title>
<polygon fill="white" stroke="#bfbfbf" points="451.5,-0.5 451.5,-30.5 554.5,-30.5 554.5,-0.5 451.5,-0.5"/>
<text text-anchor="start" x="459.5" y="-18.5" font-family="Helvetica,sans-Serif" font-size="10.00">pcl_conversions/pcl</text>
<text text-anchor="middle" x="503" y="-7.5" font-family="Helvetica,sans-Serif" font-size="10.00">_conversions.h</text>
</g>
<!-- Node1&#45;&gt;Node6 -->
<g id="edge5" class="edge"><title>Node1&#45;&gt;Node6</title>
<path fill="none" stroke="midnightblue" d="M461.33,-67.1883C469.193,-57.6236 477.695,-47.2809 484.957,-38.4478"/>
<polygon fill="midnightblue" stroke="midnightblue" points="487.831,-40.4636 491.478,-30.5161 482.423,-36.0183 487.831,-40.4636"/>
</g>
<!-- Node7 -->
<g id="node7" class="node"><title>Node7</title>
<polygon fill="white" stroke="#bfbfbf" points="572.5,-6 572.5,-25 725.5,-25 725.5,-6 572.5,-6"/>
<text text-anchor="middle" x="649" y="-13" font-family="Helvetica,sans-Serif" font-size="10.00">hull_abstraction/reconstructor.h</text>
</g>
<!-- Node1&#45;&gt;Node7 -->
<g id="edge6" class="edge"><title>Node1&#45;&gt;Node7</title>
<path fill="none" stroke="midnightblue" d="M502.518,-72.5481C540.682,-57.9455 586.859,-40.2768 617.032,-28.732"/>
<polygon fill="midnightblue" stroke="midnightblue" points="618.527,-31.9075 626.616,-25.0649 616.025,-25.3697 618.527,-31.9075"/>
</g>
<!-- Node8 -->
<g id="node8" class="node"><title>Node8</title>
<polygon fill="white" stroke="#bfbfbf" points="744,-6 744,-25 896,-25 896,-6 744,-6"/>
<text text-anchor="middle" x="820" y="-13" font-family="Helvetica,sans-Serif" font-size="10.00">hull_abstraction/preprocessor.h</text>
</g>
<!-- Node1&#45;&gt;Node8 -->
<g id="edge7" class="edge"><title>Node1&#45;&gt;Node8</title>
<path fill="none" stroke="midnightblue" d="M502.888,-83.8038C578.92,-67.6667 701.315,-41.6896 769.679,-27.1801"/>
<polygon fill="midnightblue" stroke="midnightblue" points="770.711,-30.5391 779.767,-25.0391 769.258,-23.6916 770.711,-30.5391"/>
</g>
<!-- Node9 -->
<g id="node9" class="node"><title>Node9</title>
<polygon fill="white" stroke="#bfbfbf" points="914,-0.5 914,-30.5 1006,-30.5 1006,-0.5 914,-0.5"/>
<text text-anchor="start" x="922" y="-18.5" font-family="Helvetica,sans-Serif" font-size="10.00">pcl_utilization/pcl</text>
<text text-anchor="middle" x="960" y="-7.5" font-family="Helvetica,sans-Serif" font-size="10.00">_utilization.h</text>
</g>
<!-- Node1&#45;&gt;Node9 -->
<g id="edge8" class="edge"><title>Node1&#45;&gt;Node9</title>
<path fill="none" stroke="midnightblue" d="M502.821,-90.9228C592.119,-80.9172 755.377,-60.7107 903.68,-31.1283"/>
<polygon fill="midnightblue" stroke="midnightblue" points="904.765,-34.48 913.878,-29.0743 903.383,-27.6178 904.765,-34.48"/>
</g>
</g>
</svg>
