<?xml version="1.0" encoding="UTF-8" standalone="no"?>
<!DOCTYPE svg PUBLIC "-//W3C//DTD SVG 1.1//EN"
 "http://www.w3.org/Graphics/SVG/1.1/DTD/svg11.dtd">
<!-- Generated by graphviz version 2.38.0 (20140413.2041)
 -->
<!-- Title: /home/jc/THESIS/hull_abstraction/ros/src/hull_abstraction/src/load_pcd_node/load_pcd.h Pages: 1 -->
<svg width="550pt" height="128pt"
 viewBox="0.00 0.00 549.50 128.00" xmlns="http://www.w3.org/2000/svg" xmlns:xlink="http://www.w3.org/1999/xlink">
<g id="graph0" class="graph" transform="scale(1 1) rotate(0) translate(4 124)">
<title>/home/jc/THESIS/hull_abstraction/ros/src/hull_abstraction/src/load_pcd_node/load_pcd.h</title>
<polygon fill="white" stroke="none" points="-4,4 -4,-124 545.5,-124 545.5,4 -4,4"/>
<!-- Node1 -->
<g id="node1" class="node"><title>Node1</title>
<polygon fill="#bfbfbf" stroke="black" points="166,-67.5 166,-119.5 301,-119.5 301,-67.5 166,-67.5"/>
<text text-anchor="start" x="174" y="-107.5" font-family="Helvetica,sans-Serif" font-size="10.00">/home/jc/THESIS/hull</text>
<text text-anchor="start" x="174" y="-96.5" font-family="Helvetica,sans-Serif" font-size="10.00">_abstraction/ros/src</text>
<text text-anchor="start" x="174" y="-85.5" font-family="Helvetica,sans-Serif" font-size="10.00">/hull_abstraction/src</text>
<text text-anchor="middle" x="233.5" y="-74.5" font-family="Helvetica,sans-Serif" font-size="10.00">/load_pcd_node/load_pcd.h</text>
</g>
<!-- Node2 -->
<g id="node2" class="node"><title>Node2</title>
<polygon fill="white" stroke="#bfbfbf" points="0,-6 0,-25 55,-25 55,-6 0,-6"/>
<text text-anchor="middle" x="27.5" y="-13" font-family="Helvetica,sans-Serif" font-size="10.00">ros/ros.h</text>
</g>
<!-- Node1&#45;&gt;Node2 -->
<g id="edge1" class="edge"><title>Node1&#45;&gt;Node2</title>
<path fill="none" stroke="midnightblue" d="M165.926,-68.3374C134.951,-57.1521 97.7964,-43.5805 64.5,-31 62.6122,-30.2867 60.6728,-29.5472 58.7182,-28.7966"/>
<polygon fill="midnightblue" stroke="midnightblue" points="59.5762,-25.3754 48.9872,-25.0233 57.0454,-31.902 59.5762,-25.3754"/>
</g>
<!-- Node3 -->
<g id="node3" class="node"><title>Node3</title>
<polygon fill="white" stroke="#bfbfbf" points="73.5,-6 73.5,-25 163.5,-25 163.5,-6 73.5,-6"/>
<text text-anchor="middle" x="118.5" y="-13" font-family="Helvetica,sans-Serif" font-size="10.00">pcl/point_cloud.h</text>
</g>
<!-- Node1&#45;&gt;Node3 -->
<g id="edge2" class="edge"><title>Node1&#45;&gt;Node3</title>
<path fill="none" stroke="midnightblue" d="M195.526,-67.4041C177.041,-55.1878 155.5,-40.9524 139.906,-30.6467"/>
<polygon fill="midnightblue" stroke="midnightblue" points="141.752,-27.6715 131.48,-25.0779 137.893,-33.5114 141.752,-27.6715"/>
</g>
<!-- Node4 -->
<g id="node4" class="node"><title>Node4</title>
<polygon fill="white" stroke="#bfbfbf" points="182,-0.5 182,-30.5 285,-30.5 285,-0.5 182,-0.5"/>
<text text-anchor="start" x="190" y="-18.5" font-family="Helvetica,sans-Serif" font-size="10.00">pcl_conversions/pcl</text>
<text text-anchor="middle" x="233.5" y="-7.5" font-family="Helvetica,sans-Serif" font-size="10.00">_conversions.h</text>
</g>
<!-- Node1&#45;&gt;Node4 -->
<g id="edge3" class="edge"><title>Node1&#45;&gt;Node4</title>
<path fill="none" stroke="midnightblue" d="M233.5,-67.1931C233.5,-58.7864 233.5,-49.4433 233.5,-41.0914"/>
<polygon fill="midnightblue" stroke="midnightblue" points="237,-40.8452 233.5,-30.8453 230,-40.8453 237,-40.8452"/>
</g>
<!-- Node5 -->
<g id="node5" class="node"><title>Node5</title>
<polygon fill="white" stroke="#bfbfbf" points="303.5,-6 303.5,-25 443.5,-25 443.5,-6 303.5,-6"/>
<text text-anchor="middle" x="373.5" y="-13" font-family="Helvetica,sans-Serif" font-size="10.00">sensor_msgs/PointCloud2.h</text>
</g>
<!-- Node1&#45;&gt;Node5 -->
<g id="edge4" class="edge"><title>Node1&#45;&gt;Node5</title>
<path fill="none" stroke="midnightblue" d="M279.729,-67.4041C302.759,-54.9023 329.684,-40.2861 348.759,-29.9308"/>
<polygon fill="midnightblue" stroke="midnightblue" points="350.58,-32.9249 357.699,-25.0779 347.24,-26.7729 350.58,-32.9249"/>
</g>
<!-- Node6 -->
<g id="node6" class="node"><title>Node6</title>
<polygon fill="white" stroke="#bfbfbf" points="461.5,-6 461.5,-25 541.5,-25 541.5,-6 461.5,-6"/>
<text text-anchor="middle" x="501.5" y="-13" font-family="Helvetica,sans-Serif" font-size="10.00">pcl/io/pcd_io.h</text>
</g>
<!-- Node1&#45;&gt;Node6 -->
<g id="edge5" class="edge"><title>Node1&#45;&gt;Node6</title>
<path fill="none" stroke="midnightblue" d="M301.149,-73.7649C344.463,-61.7043 401.843,-45.6073 452.5,-31 456.032,-29.9815 459.705,-28.9127 463.38,-27.8368"/>
<polygon fill="midnightblue" stroke="midnightblue" points="464.413,-31.1813 473.018,-25.0012 462.437,-24.4659 464.413,-31.1813"/>
</g>
</g>
</svg>
