<?xml version="1.0" encoding="UTF-8" standalone="no"?>
<!DOCTYPE svg PUBLIC "-//W3C//DTD SVG 1.1//EN"
 "http://www.w3.org/Graphics/SVG/1.1/DTD/svg11.dtd">
<!-- Generated by graphviz version 2.38.0 (20140413.2041)
 -->
<!-- Title: /home/jc/THESIS/hull_abstraction/ros/src/hull_abstraction/src/load_pcd_node/load_pcd.cpp Pages: 1 -->
<svg width="550pt" height="184pt"
 viewBox="0.00 0.00 549.50 184.00" xmlns="http://www.w3.org/2000/svg" xmlns:xlink="http://www.w3.org/1999/xlink">
<g id="graph0" class="graph" transform="scale(1 1) rotate(0) translate(4 180)">
<title>/home/jc/THESIS/hull_abstraction/ros/src/hull_abstraction/src/load_pcd_node/load_pcd.cpp</title>
<polygon fill="white" stroke="none" points="-4,4 -4,-180 545.5,-180 545.5,4 -4,4"/>
<!-- Node1 -->
<g id="node1" class="node"><title>Node1</title>
<polygon fill="#bfbfbf" stroke="black" points="160.5,-123.5 160.5,-175.5 306.5,-175.5 306.5,-123.5 160.5,-123.5"/>
<text text-anchor="start" x="168.5" y="-163.5" font-family="Helvetica,sans-Serif" font-size="10.00">/home/jc/THESIS/hull</text>
<text text-anchor="start" x="168.5" y="-152.5" font-family="Helvetica,sans-Serif" font-size="10.00">_abstraction/ros/src</text>
<text text-anchor="start" x="168.5" y="-141.5" font-family="Helvetica,sans-Serif" font-size="10.00">/hull_abstraction/src</text>
<text text-anchor="middle" x="233.5" y="-130.5" font-family="Helvetica,sans-Serif" font-size="10.00">/load_pcd_node/load_pcd.cpp</text>
</g>
<!-- Node2 -->
<g id="node2" class="node"><title>Node2</title>
<g id="a_node2"><a xlink:href="load__pcd_8h.html" target="_top" xlink:title="Framework of node for loading pcd files. ">
<polygon fill="white" stroke="black" points="201.5,-67.5 201.5,-86.5 265.5,-86.5 265.5,-67.5 201.5,-67.5"/>
<text text-anchor="middle" x="233.5" y="-74.5" font-family="Helvetica,sans-Serif" font-size="10.00">load_pcd.h</text>
</a>
</g>
</g>
<!-- Node1&#45;&gt;Node2 -->
<g id="edge1" class="edge"><title>Node1&#45;&gt;Node2</title>
<path fill="none" stroke="midnightblue" d="M233.5,-123.446C233.5,-114.73 233.5,-105.104 233.5,-96.9641"/>
<polygon fill="midnightblue" stroke="midnightblue" points="237,-96.6954 233.5,-86.6955 230,-96.6955 237,-96.6954"/>
</g>
<!-- Node3 -->
<g id="node3" class="node"><title>Node3</title>
<polygon fill="white" stroke="#bfbfbf" points="0,-6 0,-25 55,-25 55,-6 0,-6"/>
<text text-anchor="middle" x="27.5" y="-13" font-family="Helvetica,sans-Serif" font-size="10.00">ros/ros.h</text>
</g>
<!-- Node2&#45;&gt;Node3 -->
<g id="edge2" class="edge"><title>Node2&#45;&gt;Node3</title>
<path fill="none" stroke="midnightblue" d="M201.413,-68.604C167.183,-60.4477 111.527,-46.4209 64.5,-31 62.2321,-30.2563 59.9015,-29.4489 57.5665,-28.6084"/>
<polygon fill="midnightblue" stroke="midnightblue" points="58.685,-25.2898 48.0929,-25.0469 56.2217,-31.8421 58.685,-25.2898"/>
</g>
<!-- Node4 -->
<g id="node4" class="node"><title>Node4</title>
<polygon fill="white" stroke="#bfbfbf" points="73.5,-6 73.5,-25 163.5,-25 163.5,-6 73.5,-6"/>
<text text-anchor="middle" x="118.5" y="-13" font-family="Helvetica,sans-Serif" font-size="10.00">pcl/point_cloud.h</text>
</g>
<!-- Node2&#45;&gt;Node4 -->
<g id="edge3" class="edge"><title>Node2&#45;&gt;Node4</title>
<path fill="none" stroke="midnightblue" d="M217.023,-67.4751C197.895,-57.578 166.127,-41.1416 143.848,-29.6151"/>
<polygon fill="midnightblue" stroke="midnightblue" points="145.436,-26.4958 134.946,-25.0091 142.219,-32.713 145.436,-26.4958"/>
</g>
<!-- Node5 -->
<g id="node5" class="node"><title>Node5</title>
<polygon fill="white" stroke="#bfbfbf" points="182,-0.5 182,-30.5 285,-30.5 285,-0.5 182,-0.5"/>
<text text-anchor="start" x="190" y="-18.5" font-family="Helvetica,sans-Serif" font-size="10.00">pcl_conversions/pcl</text>
<text text-anchor="middle" x="233.5" y="-7.5" font-family="Helvetica,sans-Serif" font-size="10.00">_conversions.h</text>
</g>
<!-- Node2&#45;&gt;Node5 -->
<g id="edge4" class="edge"><title>Node2&#45;&gt;Node5</title>
<path fill="none" stroke="midnightblue" d="M233.5,-67.4751C233.5,-60.471 233.5,-50.1919 233.5,-40.6956"/>
<polygon fill="midnightblue" stroke="midnightblue" points="237,-40.5229 233.5,-30.523 230,-40.523 237,-40.5229"/>
</g>
<!-- Node6 -->
<g id="node6" class="node"><title>Node6</title>
<polygon fill="white" stroke="#bfbfbf" points="303.5,-6 303.5,-25 443.5,-25 443.5,-6 303.5,-6"/>
<text text-anchor="middle" x="373.5" y="-13" font-family="Helvetica,sans-Serif" font-size="10.00">sensor_msgs/PointCloud2.h</text>
</g>
<!-- Node2&#45;&gt;Node6 -->
<g id="edge5" class="edge"><title>Node2&#45;&gt;Node6</title>
<path fill="none" stroke="midnightblue" d="M253.559,-67.4751C277.262,-57.4013 316.906,-40.5525 344.083,-29.0023"/>
<polygon fill="midnightblue" stroke="midnightblue" points="345.644,-32.1417 353.479,-25.0091 342.906,-25.6994 345.644,-32.1417"/>
</g>
<!-- Node7 -->
<g id="node7" class="node"><title>Node7</title>
<polygon fill="white" stroke="#bfbfbf" points="461.5,-6 461.5,-25 541.5,-25 541.5,-6 461.5,-6"/>
<text text-anchor="middle" x="501.5" y="-13" font-family="Helvetica,sans-Serif" font-size="10.00">pcl/io/pcd_io.h</text>
</g>
<!-- Node2&#45;&gt;Node7 -->
<g id="edge6" class="edge"><title>Node2&#45;&gt;Node7</title>
<path fill="none" stroke="midnightblue" d="M265.609,-70.2876C308.462,-62.4624 386.605,-47.4881 452.5,-31 456.359,-30.0343 460.37,-28.962 464.361,-27.8501"/>
<polygon fill="midnightblue" stroke="midnightblue" points="465.496,-31.1657 474.142,-25.0427 463.565,-24.4374 465.496,-31.1657"/>
</g>
</g>
</svg>
