<?xml version="1.0" encoding="UTF-8" standalone="no"?>
<!DOCTYPE svg PUBLIC "-//W3C//DTD SVG 1.1//EN"
 "http://www.w3.org/Graphics/SVG/1.1/DTD/svg11.dtd">
<!-- Generated by graphviz version 2.38.0 (20140413.2041)
 -->
<!-- Title: /home/jc/hull_abstraction/ros/src/hull_abstraction/src/load_pcd_node/load_pcd.h Pages: 1 -->
<svg width="550pt" height="117pt"
 viewBox="0.00 0.00 549.50 117.00" xmlns="http://www.w3.org/2000/svg" xmlns:xlink="http://www.w3.org/1999/xlink">
<g id="graph0" class="graph" transform="scale(1 1) rotate(0) translate(4 113)">
<title>/home/jc/hull_abstraction/ros/src/hull_abstraction/src/load_pcd_node/load_pcd.h</title>
<polygon fill="white" stroke="none" points="-4,4 -4,-113 545.5,-113 545.5,4 -4,4"/>
<!-- Node1 -->
<g id="node1" class="node"><title>Node1</title>
<polygon fill="#bfbfbf" stroke="black" points="157.5,-67.5 157.5,-108.5 309.5,-108.5 309.5,-67.5 157.5,-67.5"/>
<text text-anchor="start" x="165.5" y="-96.5" font-family="Helvetica,sans-Serif" font-size="10.00">/home/jc/hull_abstraction</text>
<text text-anchor="start" x="165.5" y="-85.5" font-family="Helvetica,sans-Serif" font-size="10.00">/ros/src/hull_abstraction</text>
<text text-anchor="middle" x="233.5" y="-74.5" font-family="Helvetica,sans-Serif" font-size="10.00">/src/load_pcd_node/load_pcd.h</text>
</g>
<!-- Node2 -->
<g id="node2" class="node"><title>Node2</title>
<polygon fill="white" stroke="#bfbfbf" points="0,-6 0,-25 55,-25 55,-6 0,-6"/>
<text text-anchor="middle" x="27.5" y="-13" font-family="Helvetica,sans-Serif" font-size="10.00">ros/ros.h</text>
</g>
<!-- Node1&#45;&gt;Node2 -->
<g id="edge1" class="edge"><title>Node1&#45;&gt;Node2</title>
<path fill="none" stroke="midnightblue" d="M171.817,-67.4374C139.681,-57.0245 99.8196,-43.7622 64.5,-31 62.6021,-30.3142 60.6548,-29.5958 58.6943,-28.8613"/>
<polygon fill="midnightblue" stroke="midnightblue" points="59.5383,-25.4367 48.9479,-25.1296 57.0353,-31.9739 59.5383,-25.4367"/>
</g>
<!-- Node3 -->
<g id="node3" class="node"><title>Node3</title>
<polygon fill="white" stroke="#bfbfbf" points="73.5,-6 73.5,-25 163.5,-25 163.5,-6 73.5,-6"/>
<text text-anchor="middle" x="118.5" y="-13" font-family="Helvetica,sans-Serif" font-size="10.00">pcl/point_cloud.h</text>
</g>
<!-- Node1&#45;&gt;Node3 -->
<g id="edge2" class="edge"><title>Node1&#45;&gt;Node3</title>
<path fill="none" stroke="midnightblue" d="M201.466,-67.3618C182.4,-55.6737 158.653,-41.1158 141.457,-30.5734"/>
<polygon fill="midnightblue" stroke="midnightblue" points="143.003,-27.416 132.648,-25.1734 139.344,-33.3838 143.003,-27.416"/>
</g>
<!-- Node4 -->
<g id="node4" class="node"><title>Node4</title>
<polygon fill="white" stroke="#bfbfbf" points="182,-0.5 182,-30.5 285,-30.5 285,-0.5 182,-0.5"/>
<text text-anchor="start" x="190" y="-18.5" font-family="Helvetica,sans-Serif" font-size="10.00">pcl_conversions/pcl</text>
<text text-anchor="middle" x="233.5" y="-7.5" font-family="Helvetica,sans-Serif" font-size="10.00">_conversions.h</text>
</g>
<!-- Node1&#45;&gt;Node4 -->
<g id="edge3" class="edge"><title>Node1&#45;&gt;Node4</title>
<path fill="none" stroke="midnightblue" d="M233.5,-67.3618C233.5,-59.226 233.5,-49.6997 233.5,-41.105"/>
<polygon fill="midnightblue" stroke="midnightblue" points="237,-40.8916 233.5,-30.8916 230,-40.8916 237,-40.8916"/>
</g>
<!-- Node5 -->
<g id="node5" class="node"><title>Node5</title>
<polygon fill="white" stroke="#bfbfbf" points="303.5,-6 303.5,-25 443.5,-25 443.5,-6 303.5,-6"/>
<text text-anchor="middle" x="373.5" y="-13" font-family="Helvetica,sans-Serif" font-size="10.00">sensor_msgs/PointCloud2.h</text>
</g>
<!-- Node1&#45;&gt;Node5 -->
<g id="edge4" class="edge"><title>Node1&#45;&gt;Node5</title>
<path fill="none" stroke="midnightblue" d="M272.498,-67.3618C296.353,-55.349 326.228,-40.3048 347.279,-29.7043"/>
<polygon fill="midnightblue" stroke="midnightblue" points="348.919,-32.7971 356.276,-25.1734 345.771,-26.5451 348.919,-32.7971"/>
</g>
<!-- Node6 -->
<g id="node6" class="node"><title>Node6</title>
<polygon fill="white" stroke="#bfbfbf" points="461.5,-6 461.5,-25 541.5,-25 541.5,-6 461.5,-6"/>
<text text-anchor="middle" x="501.5" y="-13" font-family="Helvetica,sans-Serif" font-size="10.00">pcl/io/pcd_io.h</text>
</g>
<!-- Node1&#45;&gt;Node6 -->
<g id="edge5" class="edge"><title>Node1&#45;&gt;Node6</title>
<path fill="none" stroke="midnightblue" d="M309.699,-68.2584C351.887,-57.6955 405.209,-44.0385 452.5,-31 456.089,-30.0104 459.819,-28.9555 463.546,-27.8834"/>
<polygon fill="midnightblue" stroke="midnightblue" points="464.687,-31.1965 473.308,-25.0382 462.729,-24.4761 464.687,-31.1965"/>
</g>
</g>
</svg>
