<?xml version="1.0" encoding="UTF-8" standalone="no"?>
<!DOCTYPE svg PUBLIC "-//W3C//DTD SVG 1.1//EN"
 "http://www.w3.org/Graphics/SVG/1.1/DTD/svg11.dtd">
<!-- Generated by graphviz version 2.38.0 (20140413.2041)
 -->
<!-- Title: /home/jc/THESIS/hull_abstraction/benchmark/src/main.cpp Pages: 1 -->
<svg width="1259pt" height="240pt"
 viewBox="0.00 0.00 1259.00 240.00" xmlns="http://www.w3.org/2000/svg" xmlns:xlink="http://www.w3.org/1999/xlink">
<g id="graph0" class="graph" transform="scale(1 1) rotate(0) translate(4 236)">
<title>/home/jc/THESIS/hull_abstraction/benchmark/src/main.cpp</title>
<polygon fill="white" stroke="none" points="-4,4 -4,-236 1255,-236 1255,4 -4,4"/>
<!-- Node1 -->
<g id="node1" class="node"><title>Node1</title>
<polygon fill="#bfbfbf" stroke="black" points="263.5,-190.5 263.5,-231.5 384.5,-231.5 384.5,-190.5 263.5,-190.5"/>
<text text-anchor="start" x="271.5" y="-219.5" font-family="Helvetica,sans-Serif" font-size="10.00">/home/jc/THESIS/hull</text>
<text text-anchor="start" x="271.5" y="-208.5" font-family="Helvetica,sans-Serif" font-size="10.00">_abstraction/benchmark</text>
<text text-anchor="middle" x="324" y="-197.5" font-family="Helvetica,sans-Serif" font-size="10.00">/src/main.cpp</text>
</g>
<!-- Node2 -->
<g id="node2" class="node"><title>Node2</title>
<polygon fill="white" stroke="#bfbfbf" points="0,-129 0,-148 54,-148 54,-129 0,-129"/>
<text text-anchor="middle" x="27" y="-136" font-family="Helvetica,sans-Serif" font-size="10.00">iostream</text>
</g>
<!-- Node1&#45;&gt;Node2 -->
<g id="edge1" class="edge"><title>Node1&#45;&gt;Node2</title>
<path fill="none" stroke="midnightblue" d="M263.385,-200.041C210,-190.551 130.467,-174.658 63,-154 60.7169,-153.301 58.376,-152.518 56.0371,-151.687"/>
<polygon fill="midnightblue" stroke="midnightblue" points="57.1779,-148.376 46.5867,-148.097 54.6922,-154.92 57.1779,-148.376"/>
</g>
<!-- Node3 -->
<g id="node3" class="node"><title>Node3</title>
<polygon fill="white" stroke="#bfbfbf" points="72.5,-129 72.5,-148 113.5,-148 113.5,-129 72.5,-129"/>
<text text-anchor="middle" x="93" y="-136" font-family="Helvetica,sans-Serif" font-size="10.00">string</text>
</g>
<!-- Node1&#45;&gt;Node3 -->
<g id="edge2" class="edge"><title>Node1&#45;&gt;Node3</title>
<path fill="none" stroke="midnightblue" d="M263.355,-196.438C222.717,-186.564 168.367,-171.826 122,-154 120.621,-153.47 119.22,-152.896 117.815,-152.293"/>
<polygon fill="midnightblue" stroke="midnightblue" points="119.247,-149.099 108.705,-148.043 116.288,-155.442 119.247,-149.099"/>
</g>
<!-- Node4 -->
<g id="node4" class="node"><title>Node4</title>
<polygon fill="white" stroke="#bfbfbf" points="131.5,-129 131.5,-148 208.5,-148 208.5,-129 131.5,-129"/>
<text text-anchor="middle" x="170" y="-136" font-family="Helvetica,sans-Serif" font-size="10.00">pcl/io/ply_io.h</text>
</g>
<!-- Node1&#45;&gt;Node4 -->
<g id="edge3" class="edge"><title>Node1&#45;&gt;Node4</title>
<path fill="none" stroke="midnightblue" d="M281.102,-190.362C254.625,-178.241 221.407,-163.034 198.22,-152.419"/>
<polygon fill="midnightblue" stroke="midnightblue" points="199.496,-149.154 188.946,-148.173 196.582,-155.518 199.496,-149.154"/>
</g>
<!-- Node5 -->
<g id="node5" class="node"><title>Node5</title>
<polygon fill="white" stroke="#bfbfbf" points="227,-129 227,-148 307,-148 307,-129 227,-129"/>
<text text-anchor="middle" x="267" y="-136" font-family="Helvetica,sans-Serif" font-size="10.00">pcl/io/pcd_io.h</text>
</g>
<!-- Node1&#45;&gt;Node5 -->
<g id="edge4" class="edge"><title>Node1&#45;&gt;Node5</title>
<path fill="none" stroke="midnightblue" d="M308.122,-190.362C299.372,-179.539 288.633,-166.257 280.324,-155.979"/>
<polygon fill="midnightblue" stroke="midnightblue" points="283.021,-153.749 274.013,-148.173 277.578,-158.15 283.021,-153.749"/>
</g>
<!-- Node6 -->
<g id="node6" class="node"><title>Node6</title>
<polygon fill="white" stroke="#bfbfbf" points="325.5,-123.5 325.5,-153.5 438.5,-153.5 438.5,-123.5 325.5,-123.5"/>
<text text-anchor="start" x="333.5" y="-141.5" font-family="Helvetica,sans-Serif" font-size="10.00">pcl/visualization/cloud</text>
<text text-anchor="middle" x="382" y="-130.5" font-family="Helvetica,sans-Serif" font-size="10.00">_viewer.h</text>
</g>
<!-- Node1&#45;&gt;Node6 -->
<g id="edge5" class="edge"><title>Node1&#45;&gt;Node6</title>
<path fill="none" stroke="midnightblue" d="M340.156,-190.362C347.445,-181.503 356.089,-170.995 363.624,-161.837"/>
<polygon fill="midnightblue" stroke="midnightblue" points="366.51,-163.838 370.16,-153.892 361.104,-159.39 366.51,-163.838"/>
</g>
<!-- Node7 -->
<g id="node7" class="node"><title>Node7</title>
<polygon fill="white" stroke="#bfbfbf" points="456.5,-129 456.5,-148 609.5,-148 609.5,-129 456.5,-129"/>
<text text-anchor="middle" x="533" y="-136" font-family="Helvetica,sans-Serif" font-size="10.00">hull_abstraction/reconstructor.h</text>
</g>
<!-- Node1&#45;&gt;Node7 -->
<g id="edge6" class="edge"><title>Node1&#45;&gt;Node7</title>
<path fill="none" stroke="midnightblue" d="M381.941,-190.455C419.221,-177.88 466.44,-161.952 498.073,-151.282"/>
<polygon fill="midnightblue" stroke="midnightblue" points="499.406,-154.526 507.763,-148.013 497.169,-147.893 499.406,-154.526"/>
</g>
<!-- Node8 -->
<g id="node8" class="node"><title>Node8</title>
<polygon fill="white" stroke="#bfbfbf" points="628,-129 628,-148 780,-148 780,-129 628,-129"/>
<text text-anchor="middle" x="704" y="-136" font-family="Helvetica,sans-Serif" font-size="10.00">hull_abstraction/preprocessor.h</text>
</g>
<!-- Node1&#45;&gt;Node8 -->
<g id="edge7" class="edge"><title>Node1&#45;&gt;Node8</title>
<path fill="none" stroke="midnightblue" d="M384.632,-198.751C457.13,-185.301 577.483,-162.972 647.909,-149.906"/>
<polygon fill="midnightblue" stroke="midnightblue" points="648.732,-153.313 657.926,-148.048 647.455,-146.431 648.732,-153.313"/>
</g>
<!-- Node9 -->
<g id="node9" class="node"><title>Node9</title>
<g id="a_node9"><a xlink:href="benchmark_8h.html" target="_top" xlink:title="This file contains the declaration of the Benchmark class. ">
<polygon fill="white" stroke="black" points="798,-129 798,-148 922,-148 922,-129 798,-129"/>
<text text-anchor="middle" x="860" y="-136" font-family="Helvetica,sans-Serif" font-size="10.00">benchmark/benchmark.h</text>
</a>
</g>
</g>
<!-- Node1&#45;&gt;Node9 -->
<g id="edge8" class="edge"><title>Node1&#45;&gt;Node9</title>
<path fill="none" stroke="midnightblue" d="M384.785,-204.278C473.803,-195.536 644.723,-177.38 789,-154 796.172,-152.838 803.721,-151.462 811.112,-150.028"/>
<polygon fill="midnightblue" stroke="midnightblue" points="811.919,-153.436 821.044,-148.052 810.553,-146.571 811.919,-153.436"/>
</g>
<!-- Node10 -->
<g id="node10" class="node"><title>Node10</title>
<polygon fill="white" stroke="#bfbfbf" points="572.5,-6 572.5,-25 619.5,-25 619.5,-6 572.5,-6"/>
<text text-anchor="middle" x="596" y="-13" font-family="Helvetica,sans-Serif" font-size="10.00">math.h</text>
</g>
<!-- Node9&#45;&gt;Node10 -->
<g id="edge9" class="edge"><title>Node9&#45;&gt;Node10</title>
<path fill="none" stroke="midnightblue" d="M814.463,-128.933C778.763,-121.1 728.516,-107.567 688,-87 659.01,-72.2846 629.969,-48.0635 612.487,-32.1959"/>
<polygon fill="midnightblue" stroke="midnightblue" points="614.6,-29.3823 604.885,-25.1557 609.844,-34.5183 614.6,-29.3823"/>
</g>
<!-- Node11 -->
<g id="node11" class="node"><title>Node11</title>
<polygon fill="white" stroke="#bfbfbf" points="638,-6 638,-25 682,-25 682,-6 638,-6"/>
<text text-anchor="middle" x="660" y="-13" font-family="Helvetica,sans-Serif" font-size="10.00">time.h</text>
</g>
<!-- Node9&#45;&gt;Node11 -->
<g id="edge10" class="edge"><title>Node9&#45;&gt;Node11</title>
<path fill="none" stroke="midnightblue" d="M814.335,-128.928C783.805,-121.547 743.905,-108.58 714,-87 694.536,-72.9542 678.774,-49.9179 669.41,-34.0212"/>
<polygon fill="midnightblue" stroke="midnightblue" points="672.391,-32.1818 664.431,-25.19 666.294,-35.6199 672.391,-32.1818"/>
</g>
<!-- Node12 -->
<g id="node12" class="node"><title>Node12</title>
<polygon fill="white" stroke="#bfbfbf" points="700,-6 700,-25 748,-25 748,-6 700,-6"/>
<text text-anchor="middle" x="724" y="-13" font-family="Helvetica,sans-Serif" font-size="10.00">stdlib.h</text>
</g>
<!-- Node9&#45;&gt;Node12 -->
<g id="edge11" class="edge"><title>Node9&#45;&gt;Node12</title>
<path fill="none" stroke="midnightblue" d="M824.78,-128.967C789.185,-119.558 737.799,-103.549 726,-87 715.361,-72.0777 716.479,-50.5058 719.242,-35.1604"/>
<polygon fill="midnightblue" stroke="midnightblue" points="722.688,-35.7877 721.401,-25.2713 715.849,-34.2947 722.688,-35.7877"/>
</g>
<!-- Node13 -->
<g id="node13" class="node"><title>Node13</title>
<polygon fill="white" stroke="#bfbfbf" points="766.5,-6 766.5,-25 857.5,-25 857.5,-6 766.5,-6"/>
<text text-anchor="middle" x="812" y="-13" font-family="Helvetica,sans-Serif" font-size="10.00">pcl/point_types.h</text>
</g>
<!-- Node9&#45;&gt;Node13 -->
<g id="edge12" class="edge"><title>Node9&#45;&gt;Node13</title>
<path fill="none" stroke="midnightblue" d="M869.436,-128.603C882.654,-115.018 903.811,-88.4232 892,-67 882.454,-49.6859 864.198,-37.4888 847.532,-29.4248"/>
<polygon fill="midnightblue" stroke="midnightblue" points="848.539,-26.0407 837.982,-25.147 845.678,-32.4291 848.539,-26.0407"/>
</g>
<!-- Node14 -->
<g id="node14" class="node"><title>Node14</title>
<polygon fill="white" stroke="#bfbfbf" points="875.5,-6 875.5,-25 988.5,-25 988.5,-6 875.5,-6"/>
<text text-anchor="middle" x="932" y="-13" font-family="Helvetica,sans-Serif" font-size="10.00">pcl/PCLPointCloud2.h</text>
</g>
<!-- Node9&#45;&gt;Node14 -->
<g id="edge13" class="edge"><title>Node9&#45;&gt;Node14</title>
<path fill="none" stroke="midnightblue" d="M870.287,-128.784C880.79,-119.406 896.939,-103.59 907,-87 916.874,-70.7188 923.638,-49.9605 927.616,-35.1947"/>
<polygon fill="midnightblue" stroke="midnightblue" points="931.074,-35.7965 930.12,-25.2446 924.285,-34.0881 931.074,-35.7965"/>
</g>
<!-- Node15 -->
<g id="node15" class="node"><title>Node15</title>
<polygon fill="white" stroke="#bfbfbf" points="1007,-6 1007,-25 1131,-25 1131,-6 1007,-6"/>
<text text-anchor="middle" x="1069" y="-13" font-family="Helvetica,sans-Serif" font-size="10.00">pcl/features/normal_3d.h</text>
</g>
<!-- Node9&#45;&gt;Node15 -->
<g id="edge14" class="edge"><title>Node9&#45;&gt;Node15</title>
<path fill="none" stroke="midnightblue" d="M874.696,-128.992C910.361,-108.344 1001.75,-55.432 1045.27,-30.236"/>
<polygon fill="midnightblue" stroke="midnightblue" points="1047.14,-33.2005 1054.04,-25.161 1043.63,-27.1425 1047.14,-33.2005"/>
</g>
<!-- Node16 -->
<g id="node16" class="node"><title>Node16</title>
<polygon fill="white" stroke="#bfbfbf" points="1149,-0.5 1149,-30.5 1251,-30.5 1251,-0.5 1149,-0.5"/>
<text text-anchor="start" x="1157" y="-18.5" font-family="Helvetica,sans-Serif" font-size="10.00">pcl/visualization/pcl</text>
<text text-anchor="middle" x="1200" y="-7.5" font-family="Helvetica,sans-Serif" font-size="10.00">_visualizer.h</text>
</g>
<!-- Node9&#45;&gt;Node16 -->
<g id="edge15" class="edge"><title>Node9&#45;&gt;Node16</title>
<path fill="none" stroke="midnightblue" d="M883.908,-128.992C939.241,-109.3 1077.03,-60.2624 1151.09,-33.908"/>
<polygon fill="midnightblue" stroke="midnightblue" points="1152.41,-37.1504 1160.66,-30.5001 1150.07,-30.5555 1152.41,-37.1504"/>
</g>
<!-- Node17 -->
<g id="node17" class="node"><title>Node17</title>
<g id="a_node17"><a xlink:href="math__computing_8h.html" target="_top" xlink:title="This file contains declarations of some mathematical computing methods. ">
<polygon fill="white" stroke="black" points="735,-67.5 735,-86.5 883,-86.5 883,-67.5 735,-67.5"/>
<text text-anchor="middle" x="809" y="-74.5" font-family="Helvetica,sans-Serif" font-size="10.00">benchmark/math_computing.h</text>
</a>
</g>
</g>
<!-- Node9&#45;&gt;Node17 -->
<g id="edge16" class="edge"><title>Node9&#45;&gt;Node17</title>
<path fill="none" stroke="midnightblue" d="M852.693,-128.975C844.967,-119.962 832.592,-105.525 822.982,-94.3118"/>
<polygon fill="midnightblue" stroke="midnightblue" points="825.459,-91.8239 816.294,-86.5091 820.144,-96.3795 825.459,-91.8239"/>
</g>
<!-- Node17&#45;&gt;Node10 -->
<g id="edge17" class="edge"><title>Node17&#45;&gt;Node10</title>
<path fill="none" stroke="midnightblue" d="M766.224,-67.4418C729.378,-59.5662 675.023,-46.7379 629,-31 627.135,-30.3622 625.229,-29.6618 623.321,-28.9239"/>
<polygon fill="midnightblue" stroke="midnightblue" points="624.515,-25.6303 613.937,-25.0377 621.837,-32.0977 624.515,-25.6303"/>
</g>
<!-- Node17&#45;&gt;Node11 -->
<g id="edge18" class="edge"><title>Node17&#45;&gt;Node11</title>
<path fill="none" stroke="midnightblue" d="M784.839,-67.3739C760.843,-58.6692 723.097,-44.6051 691,-31 689.632,-30.4203 688.236,-29.8155 686.83,-29.1961"/>
<polygon fill="midnightblue" stroke="midnightblue" points="688.157,-25.9547 677.605,-25.0066 685.262,-32.3283 688.157,-25.9547"/>
</g>
<!-- Node17&#45;&gt;Node12 -->
<g id="edge19" class="edge"><title>Node17&#45;&gt;Node12</title>
<path fill="none" stroke="midnightblue" d="M796.822,-67.4751C783.188,-57.9315 760.868,-42.3073 744.526,-30.8683"/>
<polygon fill="midnightblue" stroke="midnightblue" points="746.355,-27.8764 736.156,-25.0091 742.341,-33.6111 746.355,-27.8764"/>
</g>
<!-- Node17&#45;&gt;Node13 -->
<g id="edge20" class="edge"><title>Node17&#45;&gt;Node13</title>
<path fill="none" stroke="midnightblue" d="M809.43,-67.4751C809.853,-59.0803 810.514,-45.9806 811.059,-35.1631"/>
<polygon fill="midnightblue" stroke="midnightblue" points="814.563,-35.1727 811.571,-25.0091 807.572,-34.8201 814.563,-35.1727"/>
</g>
<!-- Node17&#45;&gt;Node14 -->
<g id="edge21" class="edge"><title>Node17&#45;&gt;Node14</title>
<path fill="none" stroke="midnightblue" d="M826.623,-67.4751C847.174,-57.5338 881.364,-40.9947 905.207,-29.461"/>
<polygon fill="midnightblue" stroke="midnightblue" points="906.932,-32.5145 914.41,-25.0091 903.884,-26.2131 906.932,-32.5145"/>
</g>
<!-- Node17&#45;&gt;Node15 -->
<g id="edge22" class="edge"><title>Node17&#45;&gt;Node15</title>
<path fill="none" stroke="midnightblue" d="M846.252,-67.4751C892.492,-56.8932 971.399,-38.8356 1021.82,-27.2966"/>
<polygon fill="midnightblue" stroke="midnightblue" points="1022.85,-30.6518 1031.82,-25.0091 1021.29,-23.8282 1022.85,-30.6518"/>
</g>
<!-- Node17&#45;&gt;Node16 -->
<g id="edge23" class="edge"><title>Node17&#45;&gt;Node16</title>
<path fill="none" stroke="midnightblue" d="M883.296,-68.0948C948.309,-60.6749 1045.46,-48.3766 1138.79,-31.116"/>
<polygon fill="midnightblue" stroke="midnightblue" points="1139.5,-34.5444 1148.69,-29.2648 1138.21,-27.6638 1139.5,-34.5444"/>
</g>
</g>
</svg>
