<?xml version="1.0" encoding="UTF-8" standalone="no"?>
<!DOCTYPE svg PUBLIC "-//W3C//DTD SVG 1.1//EN"
 "http://www.w3.org/Graphics/SVG/1.1/DTD/svg11.dtd">
<!-- Generated by graphviz version 2.38.0 (20140413.2041)
 -->
<!-- Title: /home/jc/hull_abstraction/prototype/src/main.cpp Pages: 1 -->
<svg width="851pt" height="106pt"
 viewBox="0.00 0.00 851.00 106.00" xmlns="http://www.w3.org/2000/svg" xmlns:xlink="http://www.w3.org/1999/xlink">
<g id="graph0" class="graph" transform="scale(1 1) rotate(0) translate(4 102)">
<title>/home/jc/hull_abstraction/prototype/src/main.cpp</title>
<polygon fill="white" stroke="none" points="-4,4 -4,-102 847,-102 847,4 -4,4"/>
<!-- Node1 -->
<g id="node1" class="node"><title>Node1</title>
<polygon fill="#bfbfbf" stroke="black" points="218.5,-67.5 218.5,-97.5 343.5,-97.5 343.5,-67.5 218.5,-67.5"/>
<text text-anchor="start" x="226.5" y="-85.5" font-family="Helvetica,sans-Serif" font-size="10.00">/home/jc/hull_abstraction</text>
<text text-anchor="middle" x="281" y="-74.5" font-family="Helvetica,sans-Serif" font-size="10.00">/prototype/src/main.cpp</text>
</g>
<!-- Node2 -->
<g id="node2" class="node"><title>Node2</title>
<polygon fill="white" stroke="#bfbfbf" points="0,-6 0,-25 54,-25 54,-6 0,-6"/>
<text text-anchor="middle" x="27" y="-13" font-family="Helvetica,sans-Serif" font-size="10.00">iostream</text>
</g>
<!-- Node1&#45;&gt;Node2 -->
<g id="edge1" class="edge"><title>Node1&#45;&gt;Node2</title>
<path fill="none" stroke="midnightblue" d="M218.29,-69.667C174.348,-60.7232 114.504,-47.2298 63,-31 60.7226,-30.2824 58.3859,-29.4856 56.05,-28.6453"/>
<polygon fill="midnightblue" stroke="midnightblue" points="57.1958,-25.3363 46.6052,-25.0374 54.6978,-31.8755 57.1958,-25.3363"/>
</g>
<!-- Node3 -->
<g id="node3" class="node"><title>Node3</title>
<polygon fill="white" stroke="#bfbfbf" points="72.5,-6 72.5,-25 113.5,-25 113.5,-6 72.5,-6"/>
<text text-anchor="middle" x="93" y="-13" font-family="Helvetica,sans-Serif" font-size="10.00">string</text>
</g>
<!-- Node1&#45;&gt;Node3 -->
<g id="edge2" class="edge"><title>Node1&#45;&gt;Node3</title>
<path fill="none" stroke="midnightblue" d="M230.907,-67.4575C199.518,-58.1768 158.438,-45.1458 123,-31 121.623,-30.4505 120.222,-29.8656 118.814,-29.2581"/>
<polygon fill="midnightblue" stroke="midnightblue" points="120.181,-26.0349 109.632,-25.0527 117.266,-32.3991 120.181,-26.0349"/>
</g>
<!-- Node4 -->
<g id="node4" class="node"><title>Node4</title>
<polygon fill="white" stroke="#bfbfbf" points="132,-6 132,-25 176,-25 176,-6 132,-6"/>
<text text-anchor="middle" x="154" y="-13" font-family="Helvetica,sans-Serif" font-size="10.00">time.h</text>
</g>
<!-- Node1&#45;&gt;Node4 -->
<g id="edge3" class="edge"><title>Node1&#45;&gt;Node4</title>
<path fill="none" stroke="midnightblue" d="M253.443,-67.396C231.554,-56.1928 201.168,-40.6412 179.762,-29.6853"/>
<polygon fill="midnightblue" stroke="midnightblue" points="181.118,-26.4475 170.621,-25.007 177.929,-32.6787 181.118,-26.4475"/>
</g>
<!-- Node5 -->
<g id="node5" class="node"><title>Node5</title>
<polygon fill="white" stroke="#bfbfbf" points="194.5,-6 194.5,-25 271.5,-25 271.5,-6 194.5,-6"/>
<text text-anchor="middle" x="233" y="-13" font-family="Helvetica,sans-Serif" font-size="10.00">pcl/io/ply_io.h</text>
</g>
<!-- Node1&#45;&gt;Node5 -->
<g id="edge4" class="edge"><title>Node1&#45;&gt;Node5</title>
<path fill="none" stroke="midnightblue" d="M270.585,-67.396C263.175,-57.3614 253.188,-43.8382 245.372,-33.2535"/>
<polygon fill="midnightblue" stroke="midnightblue" points="248.177,-31.1597 239.421,-25.1945 242.546,-35.3181 248.177,-31.1597"/>
</g>
<!-- Node6 -->
<g id="node6" class="node"><title>Node6</title>
<polygon fill="white" stroke="#bfbfbf" points="290,-6 290,-25 370,-25 370,-6 290,-6"/>
<text text-anchor="middle" x="330" y="-13" font-family="Helvetica,sans-Serif" font-size="10.00">pcl/io/pcd_io.h</text>
</g>
<!-- Node1&#45;&gt;Node6 -->
<g id="edge5" class="edge"><title>Node1&#45;&gt;Node6</title>
<path fill="none" stroke="midnightblue" d="M291.632,-67.396C299.197,-57.3614 309.391,-43.8382 317.37,-33.2535"/>
<polygon fill="midnightblue" stroke="midnightblue" points="320.221,-35.2867 323.446,-25.1945 314.631,-31.0729 320.221,-35.2867"/>
</g>
<!-- Node7 -->
<g id="node7" class="node"><title>Node7</title>
<polygon fill="white" stroke="#bfbfbf" points="388.5,-0.5 388.5,-30.5 501.5,-30.5 501.5,-0.5 388.5,-0.5"/>
<text text-anchor="start" x="396.5" y="-18.5" font-family="Helvetica,sans-Serif" font-size="10.00">pcl/visualization/cloud</text>
<text text-anchor="middle" x="445" y="-7.5" font-family="Helvetica,sans-Serif" font-size="10.00">_viewer.h</text>
</g>
<!-- Node1&#45;&gt;Node7 -->
<g id="edge6" class="edge"><title>Node1&#45;&gt;Node7</title>
<path fill="none" stroke="midnightblue" d="M316.586,-67.396C341.085,-57.6858 373.827,-44.7088 400.117,-34.2889"/>
<polygon fill="midnightblue" stroke="midnightblue" points="401.477,-37.5149 409.484,-30.5765 398.898,-31.0074 401.477,-37.5149"/>
</g>
<!-- Node8 -->
<g id="node8" class="node"><title>Node8</title>
<polygon fill="white" stroke="#bfbfbf" points="519.5,-6 519.5,-25 672.5,-25 672.5,-6 519.5,-6"/>
<text text-anchor="middle" x="596" y="-13" font-family="Helvetica,sans-Serif" font-size="10.00">hull_abstraction/reconstructor.h</text>
</g>
<!-- Node1&#45;&gt;Node8 -->
<g id="edge7" class="edge"><title>Node1&#45;&gt;Node8</title>
<path fill="none" stroke="midnightblue" d="M343.61,-68.5804C402.559,-56.4163 489.782,-38.418 544.718,-27.082"/>
<polygon fill="midnightblue" stroke="midnightblue" points="545.5,-30.4945 554.586,-25.0458 544.085,-23.639 545.5,-30.4945"/>
</g>
<!-- Node9 -->
<g id="node9" class="node"><title>Node9</title>
<polygon fill="white" stroke="#bfbfbf" points="691,-6 691,-25 843,-25 843,-6 691,-6"/>
<text text-anchor="middle" x="767" y="-13" font-family="Helvetica,sans-Serif" font-size="10.00">hull_abstraction/preprocessor.h</text>
</g>
<!-- Node1&#45;&gt;Node9 -->
<g id="edge8" class="edge"><title>Node1&#45;&gt;Node9</title>
<path fill="none" stroke="midnightblue" d="M343.628,-74.4711C422.636,-65.4066 562.615,-48.6916 682,-31 690.715,-29.7085 699.915,-28.2445 708.917,-26.7556"/>
<polygon fill="midnightblue" stroke="midnightblue" points="709.676,-30.1773 718.959,-25.0718 708.518,-23.2737 709.676,-30.1773"/>
</g>
</g>
</svg>
