<?xml version="1.0" encoding="UTF-8" standalone="no"?>
<!DOCTYPE svg PUBLIC "-//W3C//DTD SVG 1.1//EN"
 "http://www.w3.org/Graphics/SVG/1.1/DTD/svg11.dtd">
<!-- Generated by graphviz version 2.38.0 (20140413.2041)
 -->
<!-- Title: /home/jc/hull_abstraction/prototype/src/main.cpp Pages: 1 -->
<svg width="788pt" height="106pt"
 viewBox="0.00 0.00 788.00 106.00" xmlns="http://www.w3.org/2000/svg" xmlns:xlink="http://www.w3.org/1999/xlink">
<g id="graph0" class="graph" transform="scale(1 1) rotate(0) translate(4 102)">
<title>/home/jc/hull_abstraction/prototype/src/main.cpp</title>
<polygon fill="white" stroke="none" points="-4,4 -4,-102 784,-102 784,4 -4,4"/>
<!-- Node1 -->
<g id="node1" class="node"><title>Node1</title>
<polygon fill="#bfbfbf" stroke="black" points="204.5,-67.5 204.5,-97.5 329.5,-97.5 329.5,-67.5 204.5,-67.5"/>
<text text-anchor="start" x="212.5" y="-85.5" font-family="Helvetica,sans-Serif" font-size="10.00">/home/jc/hull_abstraction</text>
<text text-anchor="middle" x="267" y="-74.5" font-family="Helvetica,sans-Serif" font-size="10.00">/prototype/src/main.cpp</text>
</g>
<!-- Node2 -->
<g id="node2" class="node"><title>Node2</title>
<polygon fill="white" stroke="#bfbfbf" points="0,-6 0,-25 54,-25 54,-6 0,-6"/>
<text text-anchor="middle" x="27" y="-13" font-family="Helvetica,sans-Serif" font-size="10.00">iostream</text>
</g>
<!-- Node1&#45;&gt;Node2 -->
<g id="edge1" class="edge"><title>Node1&#45;&gt;Node2</title>
<path fill="none" stroke="midnightblue" d="M204.316,-68.3759C163.632,-59.2733 109.692,-46.1003 63,-31 60.8643,-30.3093 58.6749,-29.5529 56.4818,-28.7595"/>
<polygon fill="midnightblue" stroke="midnightblue" points="57.5901,-25.4361 46.9996,-25.1337 55.09,-31.9745 57.5901,-25.4361"/>
</g>
<!-- Node3 -->
<g id="node3" class="node"><title>Node3</title>
<polygon fill="white" stroke="#bfbfbf" points="72.5,-6 72.5,-25 113.5,-25 113.5,-6 72.5,-6"/>
<text text-anchor="middle" x="93" y="-13" font-family="Helvetica,sans-Serif" font-size="10.00">string</text>
</g>
<!-- Node1&#45;&gt;Node3 -->
<g id="edge2" class="edge"><title>Node1&#45;&gt;Node3</title>
<path fill="none" stroke="midnightblue" d="M222.016,-67.4878C193.094,-58.0753 154.909,-44.89 122,-31 120.804,-30.4952 119.588,-29.9637 118.366,-29.4143"/>
<polygon fill="midnightblue" stroke="midnightblue" points="119.62,-26.1354 109.086,-25.0024 116.615,-32.4573 119.62,-26.1354"/>
</g>
<!-- Node4 -->
<g id="node4" class="node"><title>Node4</title>
<polygon fill="white" stroke="#bfbfbf" points="131.5,-6 131.5,-25 208.5,-25 208.5,-6 131.5,-6"/>
<text text-anchor="middle" x="170" y="-13" font-family="Helvetica,sans-Serif" font-size="10.00">pcl/io/ply_io.h</text>
</g>
<!-- Node1&#45;&gt;Node4 -->
<g id="edge3" class="edge"><title>Node1&#45;&gt;Node4</title>
<path fill="none" stroke="midnightblue" d="M245.952,-67.396C229.686,-56.4956 207.276,-41.4787 191.017,-30.5835"/>
<polygon fill="midnightblue" stroke="midnightblue" points="192.951,-27.6662 182.695,-25.007 189.054,-33.4814 192.951,-27.6662"/>
</g>
<!-- Node5 -->
<g id="node5" class="node"><title>Node5</title>
<polygon fill="white" stroke="#bfbfbf" points="227,-6 227,-25 307,-25 307,-6 227,-6"/>
<text text-anchor="middle" x="267" y="-13" font-family="Helvetica,sans-Serif" font-size="10.00">pcl/io/pcd_io.h</text>
</g>
<!-- Node1&#45;&gt;Node5 -->
<g id="edge4" class="edge"><title>Node1&#45;&gt;Node5</title>
<path fill="none" stroke="midnightblue" d="M267,-67.396C267,-58.0638 267,-45.7143 267,-35.5173"/>
<polygon fill="midnightblue" stroke="midnightblue" points="270.5,-35.1945 267,-25.1945 263.5,-35.1946 270.5,-35.1945"/>
</g>
<!-- Node6 -->
<g id="node6" class="node"><title>Node6</title>
<polygon fill="white" stroke="#bfbfbf" points="325.5,-0.5 325.5,-30.5 438.5,-30.5 438.5,-0.5 325.5,-0.5"/>
<text text-anchor="start" x="333.5" y="-18.5" font-family="Helvetica,sans-Serif" font-size="10.00">pcl/visualization/cloud</text>
<text text-anchor="middle" x="382" y="-7.5" font-family="Helvetica,sans-Serif" font-size="10.00">_viewer.h</text>
</g>
<!-- Node1&#45;&gt;Node6 -->
<g id="edge5" class="edge"><title>Node1&#45;&gt;Node6</title>
<path fill="none" stroke="midnightblue" d="M291.953,-67.396C308.379,-58.1117 330.089,-45.8409 348.076,-35.6742"/>
<polygon fill="midnightblue" stroke="midnightblue" points="350.112,-38.5441 357.095,-30.5765 346.668,-32.4502 350.112,-38.5441"/>
</g>
<!-- Node7 -->
<g id="node7" class="node"><title>Node7</title>
<polygon fill="white" stroke="#bfbfbf" points="456.5,-6 456.5,-25 609.5,-25 609.5,-6 456.5,-6"/>
<text text-anchor="middle" x="533" y="-13" font-family="Helvetica,sans-Serif" font-size="10.00">hull_abstraction/reconstructor.h</text>
</g>
<!-- Node1&#45;&gt;Node7 -->
<g id="edge6" class="edge"><title>Node1&#45;&gt;Node7</title>
<path fill="none" stroke="midnightblue" d="M324.391,-67.476C373.519,-55.471 443.258,-38.4295 488.318,-27.4187"/>
<polygon fill="midnightblue" stroke="midnightblue" points="489.215,-30.8025 498.098,-25.0287 487.553,-24.0025 489.215,-30.8025"/>
</g>
<!-- Node8 -->
<g id="node8" class="node"><title>Node8</title>
<polygon fill="white" stroke="#bfbfbf" points="628,-6 628,-25 780,-25 780,-6 628,-6"/>
<text text-anchor="middle" x="704" y="-13" font-family="Helvetica,sans-Serif" font-size="10.00">hull_abstraction/preprocessor.h</text>
</g>
<!-- Node1&#45;&gt;Node8 -->
<g id="edge7" class="edge"><title>Node1&#45;&gt;Node8</title>
<path fill="none" stroke="midnightblue" d="M329.706,-73.0139C400.163,-63.3602 517.91,-46.8711 619,-31 627.596,-29.6504 636.671,-28.1662 645.563,-26.678"/>
<polygon fill="midnightblue" stroke="midnightblue" points="646.212,-30.1181 655.491,-25.0031 645.048,-23.2156 646.212,-30.1181"/>
</g>
</g>
</svg>
