<?xml version="1.0" encoding="UTF-8" standalone="no"?>
<!DOCTYPE svg PUBLIC "-//W3C//DTD SVG 1.1//EN"
 "http://www.w3.org/Graphics/SVG/1.1/DTD/svg11.dtd">
<!-- Generated by graphviz version 2.38.0 (20140413.2041)
 -->
<!-- Title: /home/jc/hull_abstraction/benchmark/src/main.cpp Pages: 1 -->
<svg width="1307pt" height="173pt"
 viewBox="0.00 0.00 1307.00 173.00" xmlns="http://www.w3.org/2000/svg" xmlns:xlink="http://www.w3.org/1999/xlink">
<g id="graph0" class="graph" transform="scale(1 1) rotate(0) translate(4 169)">
<title>/home/jc/hull_abstraction/benchmark/src/main.cpp</title>
<polygon fill="white" stroke="none" points="-4,4 -4,-169 1303,-169 1303,4 -4,4"/>
<!-- Node1 -->
<g id="node1" class="node"><title>Node1</title>
<polygon fill="#bfbfbf" stroke="black" points="260.5,-134.5 260.5,-164.5 387.5,-164.5 387.5,-134.5 260.5,-134.5"/>
<text text-anchor="start" x="268.5" y="-152.5" font-family="Helvetica,sans-Serif" font-size="10.00">/home/jc/hull_abstraction</text>
<text text-anchor="middle" x="324" y="-141.5" font-family="Helvetica,sans-Serif" font-size="10.00">/benchmark/src/main.cpp</text>
</g>
<!-- Node2 -->
<g id="node2" class="node"><title>Node2</title>
<polygon fill="white" stroke="#bfbfbf" points="0,-73 0,-92 54,-92 54,-73 0,-73"/>
<text text-anchor="middle" x="27" y="-80" font-family="Helvetica,sans-Serif" font-size="10.00">iostream</text>
</g>
<!-- Node1&#45;&gt;Node2 -->
<g id="edge1" class="edge"><title>Node1&#45;&gt;Node2</title>
<path fill="none" stroke="midnightblue" d="M260.455,-139.465C207.337,-131.129 129.905,-117.142 64,-98 61.4181,-97.2501 58.765,-96.3925 56.122,-95.4774"/>
<polygon fill="midnightblue" stroke="midnightblue" points="57.3338,-92.1939 46.7407,-92.0009 54.9014,-98.7577 57.3338,-92.1939"/>
</g>
<!-- Node3 -->
<g id="node3" class="node"><title>Node3</title>
<polygon fill="white" stroke="#bfbfbf" points="72.5,-73 72.5,-92 113.5,-92 113.5,-73 72.5,-73"/>
<text text-anchor="middle" x="93" y="-80" font-family="Helvetica,sans-Serif" font-size="10.00">string</text>
</g>
<!-- Node1&#45;&gt;Node3 -->
<g id="edge2" class="edge"><title>Node1&#45;&gt;Node3</title>
<path fill="none" stroke="midnightblue" d="M260.086,-135.938C220.083,-127.223 167.813,-114.266 123,-98 121.573,-97.4819 120.123,-96.9176 118.669,-96.322"/>
<polygon fill="midnightblue" stroke="midnightblue" points="119.801,-92.9936 109.244,-92.0958 116.937,-99.3809 119.801,-92.9936"/>
</g>
<!-- Node4 -->
<g id="node4" class="node"><title>Node4</title>
<polygon fill="white" stroke="#bfbfbf" points="131.5,-73 131.5,-92 208.5,-92 208.5,-73 131.5,-73"/>
<text text-anchor="middle" x="170" y="-80" font-family="Helvetica,sans-Serif" font-size="10.00">pcl/io/ply_io.h</text>
</g>
<!-- Node1&#45;&gt;Node4 -->
<g id="edge3" class="edge"><title>Node1&#45;&gt;Node4</title>
<path fill="none" stroke="midnightblue" d="M290.584,-134.396C263.444,-122.941 225.531,-106.938 199.502,-95.9521"/>
<polygon fill="midnightblue" stroke="midnightblue" points="200.729,-92.6711 190.155,-92.007 198.007,-99.1202 200.729,-92.6711"/>
</g>
<!-- Node5 -->
<g id="node5" class="node"><title>Node5</title>
<polygon fill="white" stroke="#bfbfbf" points="227,-73 227,-92 307,-92 307,-73 227,-73"/>
<text text-anchor="middle" x="267" y="-80" font-family="Helvetica,sans-Serif" font-size="10.00">pcl/io/pcd_io.h</text>
</g>
<!-- Node1&#45;&gt;Node5 -->
<g id="edge4" class="edge"><title>Node1&#45;&gt;Node5</title>
<path fill="none" stroke="midnightblue" d="M311.632,-134.396C302.744,-124.261 290.736,-110.567 281.414,-99.9368"/>
<polygon fill="midnightblue" stroke="midnightblue" points="283.849,-97.4055 274.624,-92.1945 278.586,-102.021 283.849,-97.4055"/>
</g>
<!-- Node6 -->
<g id="node6" class="node"><title>Node6</title>
<polygon fill="white" stroke="#bfbfbf" points="325.5,-67.5 325.5,-97.5 438.5,-97.5 438.5,-67.5 325.5,-67.5"/>
<text text-anchor="start" x="333.5" y="-85.5" font-family="Helvetica,sans-Serif" font-size="10.00">pcl/visualization/cloud</text>
<text text-anchor="middle" x="382" y="-74.5" font-family="Helvetica,sans-Serif" font-size="10.00">_viewer.h</text>
</g>
<!-- Node1&#45;&gt;Node6 -->
<g id="edge5" class="edge"><title>Node1&#45;&gt;Node6</title>
<path fill="none" stroke="midnightblue" d="M336.585,-134.396C344.186,-125.878 354.029,-114.847 362.608,-105.233"/>
<polygon fill="midnightblue" stroke="midnightblue" points="365.393,-107.368 369.439,-97.5765 360.17,-102.708 365.393,-107.368"/>
</g>
<!-- Node7 -->
<g id="node7" class="node"><title>Node7</title>
<polygon fill="white" stroke="#bfbfbf" points="456.5,-73 456.5,-92 609.5,-92 609.5,-73 456.5,-73"/>
<text text-anchor="middle" x="533" y="-80" font-family="Helvetica,sans-Serif" font-size="10.00">hull_abstraction/reconstructor.h</text>
</g>
<!-- Node1&#45;&gt;Node7 -->
<g id="edge6" class="edge"><title>Node1&#45;&gt;Node7</title>
<path fill="none" stroke="midnightblue" d="M369.093,-134.476C406.882,-122.723 460.193,-106.143 495.636,-95.1205"/>
<polygon fill="midnightblue" stroke="midnightblue" points="497.068,-98.3406 505.577,-92.0287 494.989,-91.6564 497.068,-98.3406"/>
</g>
<!-- Node8 -->
<g id="node8" class="node"><title>Node8</title>
<polygon fill="white" stroke="#bfbfbf" points="628,-73 628,-92 780,-92 780,-73 628,-73"/>
<text text-anchor="middle" x="704" y="-80" font-family="Helvetica,sans-Serif" font-size="10.00">hull_abstraction/preprocessor.h</text>
</g>
<!-- Node1&#45;&gt;Node8 -->
<g id="edge7" class="edge"><title>Node1&#45;&gt;Node8</title>
<path fill="none" stroke="midnightblue" d="M387.603,-137.62C459.093,-125.392 574.275,-105.69 644.178,-93.7327"/>
<polygon fill="midnightblue" stroke="midnightblue" points="644.886,-97.1626 654.152,-92.0266 643.705,-90.2628 644.886,-97.1626"/>
</g>
<!-- Node9 -->
<g id="node9" class="node"><title>Node9</title>
<g id="a_node9"><a xlink:href="benchmark_8h.html" target="_top" xlink:title="This file contains the declaration of the Benchmark class. ">
<polygon fill="white" stroke="black" points="798,-73 798,-92 922,-92 922,-73 798,-73"/>
<text text-anchor="middle" x="860" y="-80" font-family="Helvetica,sans-Serif" font-size="10.00">benchmark/benchmark.h</text>
</a>
</g>
</g>
<!-- Node1&#45;&gt;Node9 -->
<g id="edge8" class="edge"><title>Node1&#45;&gt;Node9</title>
<path fill="none" stroke="midnightblue" d="M387.803,-143.468C477.639,-135.953 646.386,-120.257 789,-98 796.264,-96.8663 803.911,-95.4947 811.388,-94.0528"/>
<polygon fill="midnightblue" stroke="midnightblue" points="812.301,-97.44 821.427,-92.0587 810.937,-90.5742 812.301,-97.44"/>
</g>
<!-- Node10 -->
<g id="node10" class="node"><title>Node10</title>
<polygon fill="white" stroke="#bfbfbf" points="620.5,-6 620.5,-25 667.5,-25 667.5,-6 620.5,-6"/>
<text text-anchor="middle" x="644" y="-13" font-family="Helvetica,sans-Serif" font-size="10.00">math.h</text>
</g>
<!-- Node9&#45;&gt;Node10 -->
<g id="edge9" class="edge"><title>Node9&#45;&gt;Node10</title>
<path fill="none" stroke="midnightblue" d="M823.059,-72.9746C785.749,-63.9766 726.686,-48.6668 677,-31 675.338,-30.409 673.642,-29.7724 671.939,-29.1074"/>
<polygon fill="midnightblue" stroke="midnightblue" points="672.888,-25.7117 662.311,-25.1074 670.203,-32.1761 672.888,-25.7117"/>
</g>
<!-- Node11 -->
<g id="node11" class="node"><title>Node11</title>
<polygon fill="white" stroke="#bfbfbf" points="686,-6 686,-25 730,-25 730,-6 686,-6"/>
<text text-anchor="middle" x="708" y="-13" font-family="Helvetica,sans-Serif" font-size="10.00">time.h</text>
</g>
<!-- Node9&#45;&gt;Node11 -->
<g id="edge10" class="edge"><title>Node9&#45;&gt;Node11</title>
<path fill="none" stroke="midnightblue" d="M838.463,-72.8314C814.175,-62.9812 773.557,-46.2851 739,-31 737.808,-30.4727 736.593,-29.9294 735.367,-29.3765"/>
<polygon fill="midnightblue" stroke="midnightblue" points="736.521,-26.0554 725.973,-25.063 733.6,-32.4167 736.521,-26.0554"/>
</g>
<!-- Node12 -->
<g id="node12" class="node"><title>Node12</title>
<polygon fill="white" stroke="#bfbfbf" points="748,-6 748,-25 796,-25 796,-6 748,-6"/>
<text text-anchor="middle" x="772" y="-13" font-family="Helvetica,sans-Serif" font-size="10.00">stdlib.h</text>
</g>
<!-- Node9&#45;&gt;Node12 -->
<g id="edge11" class="edge"><title>Node9&#45;&gt;Node12</title>
<path fill="none" stroke="midnightblue" d="M848.132,-72.7338C833.75,-62.1106 809.296,-44.0485 791.988,-31.2642"/>
<polygon fill="midnightblue" stroke="midnightblue" points="793.803,-28.2534 783.68,-25.1273 789.644,-33.884 793.803,-28.2534"/>
</g>
<!-- Node13 -->
<g id="node13" class="node"><title>Node13</title>
<polygon fill="white" stroke="#bfbfbf" points="814.5,-6 814.5,-25 905.5,-25 905.5,-6 814.5,-6"/>
<text text-anchor="middle" x="860" y="-13" font-family="Helvetica,sans-Serif" font-size="10.00">pcl/point_types.h</text>
</g>
<!-- Node9&#45;&gt;Node13 -->
<g id="edge12" class="edge"><title>Node9&#45;&gt;Node13</title>
<path fill="none" stroke="midnightblue" d="M860,-72.7338C860,-63.1826 860,-47.6183 860,-35.2829"/>
<polygon fill="midnightblue" stroke="midnightblue" points="863.5,-35.1273 860,-25.1273 856.5,-35.1273 863.5,-35.1273"/>
</g>
<!-- Node14 -->
<g id="node14" class="node"><title>Node14</title>
<polygon fill="white" stroke="#bfbfbf" points="923.5,-6 923.5,-25 1036.5,-25 1036.5,-6 923.5,-6"/>
<text text-anchor="middle" x="980" y="-13" font-family="Helvetica,sans-Serif" font-size="10.00">pcl/PCLPointCloud2.h</text>
</g>
<!-- Node9&#45;&gt;Node14 -->
<g id="edge13" class="edge"><title>Node9&#45;&gt;Node14</title>
<path fill="none" stroke="midnightblue" d="M876.184,-72.7338C896.426,-61.7695 931.297,-42.8809 954.986,-30.0495"/>
<polygon fill="midnightblue" stroke="midnightblue" points="956.947,-32.9677 964.073,-25.1273 953.613,-26.8127 956.947,-32.9677"/>
</g>
<!-- Node15 -->
<g id="node15" class="node"><title>Node15</title>
<polygon fill="white" stroke="#bfbfbf" points="1055,-6 1055,-25 1179,-25 1179,-6 1055,-6"/>
<text text-anchor="middle" x="1117" y="-13" font-family="Helvetica,sans-Serif" font-size="10.00">pcl/features/normal_3d.h</text>
</g>
<!-- Node9&#45;&gt;Node15 -->
<g id="edge14" class="edge"><title>Node9&#45;&gt;Node15</title>
<path fill="none" stroke="midnightblue" d="M893.863,-72.9355C939.992,-61.2685 1022.63,-40.3669 1073.36,-27.5367"/>
<polygon fill="midnightblue" stroke="midnightblue" points="1074.23,-30.9286 1083.06,-25.0834 1072.51,-24.1423 1074.23,-30.9286"/>
</g>
<!-- Node16 -->
<g id="node16" class="node"><title>Node16</title>
<polygon fill="white" stroke="#bfbfbf" points="1197,-0.5 1197,-30.5 1299,-30.5 1299,-0.5 1197,-0.5"/>
<text text-anchor="start" x="1205" y="-18.5" font-family="Helvetica,sans-Serif" font-size="10.00">pcl/visualization/pcl</text>
<text text-anchor="middle" x="1248" y="-7.5" font-family="Helvetica,sans-Serif" font-size="10.00">_visualizer.h</text>
</g>
<!-- Node9&#45;&gt;Node16 -->
<g id="edge15" class="edge"><title>Node9&#45;&gt;Node16</title>
<path fill="none" stroke="midnightblue" d="M922.238,-73.51C986.217,-64.9376 1088.91,-50.1846 1186.63,-31.1779"/>
<polygon fill="midnightblue" stroke="midnightblue" points="1187.54,-34.566 1196.68,-29.2046 1186.19,-27.6972 1187.54,-34.566"/>
</g>
</g>
</svg>
