<?xml version="1.0" encoding="UTF-8" standalone="no"?>
<!DOCTYPE svg PUBLIC "-//W3C//DTD SVG 1.1//EN"
 "http://www.w3.org/Graphics/SVG/1.1/DTD/svg11.dtd">
<!-- Generated by graphviz version 2.38.0 (20140413.2041)
 -->
<!-- Title: /home/jc/hull_abstraction/ros/src/hull_abstraction/src/marching_cubes_node.cpp Pages: 1 -->
<svg width="1037pt" height="251pt"
 viewBox="0.00 0.00 1037.00 251.00" xmlns="http://www.w3.org/2000/svg" xmlns:xlink="http://www.w3.org/1999/xlink">
<g id="graph0" class="graph" transform="scale(1 1) rotate(0) translate(4 247)">
<title>/home/jc/hull_abstraction/ros/src/hull_abstraction/src/marching_cubes_node.cpp</title>
<polygon fill="white" stroke="none" points="-4,4 -4,-247 1033,-247 1033,4 -4,4"/>
<!-- Node1 -->
<g id="node1" class="node"><title>Node1</title>
<polygon fill="#bfbfbf" stroke="black" points="270.5,-201.5 270.5,-242.5 422.5,-242.5 422.5,-201.5 270.5,-201.5"/>
<text text-anchor="start" x="278.5" y="-230.5" font-family="Helvetica,sans-Serif" font-size="10.00">/home/jc/hull_abstraction</text>
<text text-anchor="start" x="278.5" y="-219.5" font-family="Helvetica,sans-Serif" font-size="10.00">/ros/src/hull_abstraction</text>
<text text-anchor="middle" x="346.5" y="-208.5" font-family="Helvetica,sans-Serif" font-size="10.00">/src/marching_cubes_node.cpp</text>
</g>
<!-- Node2 -->
<g id="node2" class="node"><title>Node2</title>
<g id="a_node2"><a xlink:href="marching__cubes_8h.html" target="_top" xlink:title="Framework of marching cubes node. ">
<polygon fill="white" stroke="black" points="289.5,-134.5 289.5,-164.5 403.5,-164.5 403.5,-134.5 289.5,-134.5"/>
<text text-anchor="start" x="297.5" y="-152.5" font-family="Helvetica,sans-Serif" font-size="10.00">marching_cubes_node</text>
<text text-anchor="middle" x="346.5" y="-141.5" font-family="Helvetica,sans-Serif" font-size="10.00">/marching_cubes.h</text>
</a>
</g>
</g>
<!-- Node1&#45;&gt;Node2 -->
<g id="edge1" class="edge"><title>Node1&#45;&gt;Node2</title>
<path fill="none" stroke="midnightblue" d="M346.5,-201.362C346.5,-193.226 346.5,-183.7 346.5,-175.105"/>
<polygon fill="midnightblue" stroke="midnightblue" points="350,-174.892 346.5,-164.892 343,-174.892 350,-174.892"/>
</g>
<!-- Node3 -->
<g id="node3" class="node"><title>Node3</title>
<polygon fill="white" stroke="#bfbfbf" points="151.5,-73 151.5,-92 205.5,-92 205.5,-73 151.5,-73"/>
<text text-anchor="middle" x="178.5" y="-80" font-family="Helvetica,sans-Serif" font-size="10.00">iostream</text>
</g>
<!-- Node2&#45;&gt;Node3 -->
<g id="edge2" class="edge"><title>Node2&#45;&gt;Node3</title>
<path fill="none" stroke="midnightblue" d="M310.047,-134.396C280.178,-122.84 238.35,-106.656 209.936,-95.6629"/>
<polygon fill="midnightblue" stroke="midnightblue" points="211.077,-92.3512 200.487,-92.007 208.551,-98.8797 211.077,-92.3512"/>
</g>
<!-- Node4 -->
<g id="node4" class="node"><title>Node4</title>
<polygon fill="white" stroke="#bfbfbf" points="0,-6 0,-25 55,-25 55,-6 0,-6"/>
<text text-anchor="middle" x="27.5" y="-13" font-family="Helvetica,sans-Serif" font-size="10.00">ros/ros.h</text>
</g>
<!-- Node2&#45;&gt;Node4 -->
<g id="edge3" class="edge"><title>Node2&#45;&gt;Node4</title>
<path fill="none" stroke="midnightblue" d="M313.071,-134.328C293.226,-125.226 268.017,-112.429 247.5,-98 231.04,-86.4239 232.209,-76.5565 214.5,-67 154.165,-34.4409 129.905,-51.5567 64.5,-31 62.2231,-30.2844 59.8859,-29.4974 57.5463,-28.6714"/>
<polygon fill="midnightblue" stroke="midnightblue" points="58.6561,-25.3499 48.0633,-25.139 56.2126,-31.9096 58.6561,-25.3499"/>
</g>
<!-- Node5 -->
<g id="node5" class="node"><title>Node5</title>
<polygon fill="white" stroke="#bfbfbf" points="73.5,-6 73.5,-25 213.5,-25 213.5,-6 73.5,-6"/>
<text text-anchor="middle" x="143.5" y="-13" font-family="Helvetica,sans-Serif" font-size="10.00">sensor_msgs/PointCloud2.h</text>
</g>
<!-- Node2&#45;&gt;Node5 -->
<g id="edge4" class="edge"><title>Node2&#45;&gt;Node5</title>
<path fill="none" stroke="midnightblue" d="M331.602,-134.31C312.95,-117.014 279.542,-87.5557 247.5,-67 224.06,-51.9623 195.478,-38.3906 174.213,-29.1132"/>
<polygon fill="midnightblue" stroke="midnightblue" points="175.573,-25.888 165.003,-25.1629 172.814,-32.3213 175.573,-25.888"/>
</g>
<!-- Node6 -->
<g id="node6" class="node"><title>Node6</title>
<polygon fill="white" stroke="#bfbfbf" points="448,-73 448,-92 577,-92 577,-73 448,-73"/>
<text text-anchor="middle" x="512.5" y="-80" font-family="Helvetica,sans-Serif" font-size="10.00">pcl_msgs/PolygonMesh.h</text>
</g>
<!-- Node2&#45;&gt;Node6 -->
<g id="edge5" class="edge"><title>Node2&#45;&gt;Node6</title>
<path fill="none" stroke="midnightblue" d="M382.52,-134.396C412.033,-122.84 453.363,-106.656 481.438,-95.6629"/>
<polygon fill="midnightblue" stroke="midnightblue" points="482.739,-98.9122 490.774,-92.007 480.187,-92.3941 482.739,-98.9122"/>
</g>
<!-- Node7 -->
<g id="node7" class="node"><title>Node7</title>
<polygon fill="white" stroke="#bfbfbf" points="232,-0.5 232,-30.5 335,-30.5 335,-0.5 232,-0.5"/>
<text text-anchor="start" x="240" y="-18.5" font-family="Helvetica,sans-Serif" font-size="10.00">pcl_conversions/pcl</text>
<text text-anchor="middle" x="283.5" y="-7.5" font-family="Helvetica,sans-Serif" font-size="10.00">_conversions.h</text>
</g>
<!-- Node2&#45;&gt;Node7 -->
<g id="edge6" class="edge"><title>Node2&#45;&gt;Node7</title>
<path fill="none" stroke="midnightblue" d="M339.758,-134.374C328.958,-111.746 307.671,-67.1435 294.602,-39.7612"/>
<polygon fill="midnightblue" stroke="midnightblue" points="297.66,-38.042 290.194,-30.5247 291.342,-41.0571 297.66,-38.042"/>
</g>
<!-- Node8 -->
<g id="node8" class="node"><title>Node8</title>
<polygon fill="white" stroke="#bfbfbf" points="595,-73 595,-92 748,-92 748,-73 595,-73"/>
<text text-anchor="middle" x="671.5" y="-80" font-family="Helvetica,sans-Serif" font-size="10.00">hull_abstraction/reconstructor.h</text>
</g>
<!-- Node2&#45;&gt;Node8 -->
<g id="edge7" class="edge"><title>Node2&#45;&gt;Node8</title>
<path fill="none" stroke="midnightblue" d="M403.855,-137.029C464.664,-124.867 559.898,-105.82 618.854,-94.0293"/>
<polygon fill="midnightblue" stroke="midnightblue" points="619.588,-97.4517 628.708,-92.0584 618.216,-90.5876 619.588,-97.4517"/>
</g>
<!-- Node9 -->
<g id="node9" class="node"><title>Node9</title>
<polygon fill="white" stroke="#bfbfbf" points="766.5,-73 766.5,-92 918.5,-92 918.5,-73 766.5,-73"/>
<text text-anchor="middle" x="842.5" y="-80" font-family="Helvetica,sans-Serif" font-size="10.00">hull_abstraction/preprocessor.h</text>
</g>
<!-- Node2&#45;&gt;Node9 -->
<g id="edge8" class="edge"><title>Node2&#45;&gt;Node9</title>
<path fill="none" stroke="midnightblue" d="M403.794,-142.315C483.321,-133.536 631.6,-116.463 757.5,-98 766.325,-96.7059 775.645,-95.2288 784.754,-93.724"/>
<polygon fill="midnightblue" stroke="midnightblue" points="785.625,-97.1268 794.909,-92.0214 784.468,-90.2231 785.625,-97.1268"/>
</g>
<!-- Node10 -->
<g id="node10" class="node"><title>Node10</title>
<g id="a_node10"><a xlink:href="pcl__utilization_8h.html" target="_top" xlink:title="This file contains the declaration of PCL utilization methods. ">
<polygon fill="white" stroke="black" points="337.5,-67.5 337.5,-97.5 429.5,-97.5 429.5,-67.5 337.5,-67.5"/>
<text text-anchor="start" x="345.5" y="-85.5" font-family="Helvetica,sans-Serif" font-size="10.00">pcl_utilization/pcl</text>
<text text-anchor="middle" x="383.5" y="-74.5" font-family="Helvetica,sans-Serif" font-size="10.00">_utilization.h</text>
</a>
</g>
</g>
<!-- Node2&#45;&gt;Node10 -->
<g id="edge9" class="edge"><title>Node2&#45;&gt;Node10</title>
<path fill="none" stroke="midnightblue" d="M354.528,-134.396C359.183,-126.219 365.156,-115.725 370.469,-106.393"/>
<polygon fill="midnightblue" stroke="midnightblue" points="373.582,-107.999 375.487,-97.5765 367.498,-104.536 373.582,-107.999"/>
</g>
<!-- Node10&#45;&gt;Node4 -->
<g id="edge10" class="edge"><title>Node10&#45;&gt;Node4</title>
<path fill="none" stroke="midnightblue" d="M337.414,-77.3667C274.799,-71.0383 159.735,-56.8707 64.5,-31 61.9055,-30.2952 59.2435,-29.469 56.5947,-28.5746"/>
<polygon fill="midnightblue" stroke="midnightblue" points="57.7974,-25.2878 47.2037,-25.1325 55.3884,-31.8603 57.7974,-25.2878"/>
</g>
<!-- Node10&#45;&gt;Node5 -->
<g id="edge11" class="edge"><title>Node10&#45;&gt;Node5</title>
<path fill="none" stroke="midnightblue" d="M337.226,-68.9673C293.089,-57.0138 227.228,-39.1764 184.817,-27.6899"/>
<polygon fill="midnightblue" stroke="midnightblue" points="185.659,-24.292 175.092,-25.0561 183.829,-31.0486 185.659,-24.292"/>
</g>
<!-- Node10&#45;&gt;Node7 -->
<g id="edge14" class="edge"><title>Node10&#45;&gt;Node7</title>
<path fill="none" stroke="midnightblue" d="M361.801,-67.396C347.78,-58.282 329.331,-46.2902 313.863,-36.236"/>
<polygon fill="midnightblue" stroke="midnightblue" points="315.448,-33.0919 305.156,-30.5765 311.633,-38.961 315.448,-33.0919"/>
</g>
<!-- Node11 -->
<g id="node11" class="node"><title>Node11</title>
<polygon fill="white" stroke="#bfbfbf" points="736.5,-0.5 736.5,-30.5 836.5,-30.5 836.5,-0.5 736.5,-0.5"/>
<text text-anchor="start" x="744.5" y="-18.5" font-family="Helvetica,sans-Serif" font-size="10.00">visualization_msgs</text>
<text text-anchor="middle" x="786.5" y="-7.5" font-family="Helvetica,sans-Serif" font-size="10.00">/Marker.h</text>
</g>
<!-- Node10&#45;&gt;Node11 -->
<g id="edge12" class="edge"><title>Node10&#45;&gt;Node11</title>
<path fill="none" stroke="midnightblue" d="M429.538,-69.0771C432.898,-68.3249 436.245,-67.6222 439.5,-67 562.985,-43.3973 598.841,-53.8645 726.228,-31.0897"/>
<polygon fill="midnightblue" stroke="midnightblue" points="727.164,-34.477 736.374,-29.2409 725.909,-27.5905 727.164,-34.477"/>
</g>
<!-- Node12 -->
<g id="node12" class="node"><title>Node12</title>
<polygon fill="white" stroke="#bfbfbf" points="855,-6 855,-25 920,-25 920,-6 855,-6"/>
<text text-anchor="middle" x="887.5" y="-13" font-family="Helvetica,sans-Serif" font-size="10.00">Eigen/Core</text>
</g>
<!-- Node10&#45;&gt;Node12 -->
<g id="edge13" class="edge"><title>Node10&#45;&gt;Node12</title>
<path fill="none" stroke="midnightblue" d="M429.514,-68.9438C432.88,-68.2229 436.234,-67.5636 439.5,-67 618.013,-36.1913 668.344,-68.8396 845.5,-31 849.001,-30.2522 852.613,-29.2991 856.18,-28.2396"/>
<polygon fill="midnightblue" stroke="midnightblue" points="857.558,-31.4722 865.987,-25.0544 855.395,-24.8145 857.558,-31.4722"/>
</g>
<!-- Node13 -->
<g id="node13" class="node"><title>Node13</title>
<polygon fill="white" stroke="#bfbfbf" points="938,-6 938,-25 1029,-25 1029,-6 938,-6"/>
<text text-anchor="middle" x="983.5" y="-13" font-family="Helvetica,sans-Serif" font-size="10.00">pcl/point_types.h</text>
</g>
<!-- Node10&#45;&gt;Node13 -->
<g id="edge15" class="edge"><title>Node10&#45;&gt;Node13</title>
<path fill="none" stroke="midnightblue" d="M429.504,-68.8876C432.872,-68.1799 436.23,-67.539 439.5,-67 654.958,-31.4883 714.204,-67.4772 929.5,-31 934.884,-30.0879 940.508,-28.8765 946.009,-27.5415"/>
<polygon fill="midnightblue" stroke="midnightblue" points="946.886,-30.9297 955.695,-25.0428 945.138,-24.1516 946.886,-30.9297"/>
</g>
<!-- Node14 -->
<g id="node14" class="node"><title>Node14</title>
<polygon fill="white" stroke="#bfbfbf" points="353,-6 353,-25 466,-25 466,-6 353,-6"/>
<text text-anchor="middle" x="409.5" y="-13" font-family="Helvetica,sans-Serif" font-size="10.00">pcl/PCLPointCloud2.h</text>
</g>
<!-- Node10&#45;&gt;Node14 -->
<g id="edge16" class="edge"><title>Node10&#45;&gt;Node14</title>
<path fill="none" stroke="midnightblue" d="M389.142,-67.396C392.995,-57.7628 398.134,-44.9145 402.285,-34.5373"/>
<polygon fill="midnightblue" stroke="midnightblue" points="405.558,-35.7792 406.022,-25.1945 399.059,-33.1794 405.558,-35.7792"/>
</g>
<!-- Node15 -->
<g id="node15" class="node"><title>Node15</title>
<polygon fill="white" stroke="#bfbfbf" points="484.5,-6 484.5,-25 600.5,-25 600.5,-6 484.5,-6"/>
<text text-anchor="middle" x="542.5" y="-13" font-family="Helvetica,sans-Serif" font-size="10.00">pcl/common/centroid.h</text>
</g>
<!-- Node10&#45;&gt;Node15 -->
<g id="edge17" class="edge"><title>Node10&#45;&gt;Node15</title>
<path fill="none" stroke="midnightblue" d="M418.001,-67.396C446.146,-55.8901 485.511,-39.7974 512.395,-28.8072"/>
<polygon fill="midnightblue" stroke="midnightblue" points="513.759,-32.0309 521.691,-25.007 511.11,-25.5514 513.759,-32.0309"/>
</g>
<!-- Node16 -->
<g id="node16" class="node"><title>Node16</title>
<polygon fill="white" stroke="#bfbfbf" points="618.5,-6 618.5,-25 718.5,-25 718.5,-6 618.5,-6"/>
<text text-anchor="middle" x="668.5" y="-13" font-family="Helvetica,sans-Serif" font-size="10.00">pcl/search/kdtree.h</text>
</g>
<!-- Node10&#45;&gt;Node16 -->
<g id="edge18" class="edge"><title>Node10&#45;&gt;Node16</title>
<path fill="none" stroke="midnightblue" d="M429.604,-69.3882C432.949,-68.563 436.274,-67.7588 439.5,-67 514.679,-49.3161 534.213,-48.2183 609.5,-31 614.45,-29.8679 619.625,-28.6489 624.765,-27.4156"/>
<polygon fill="midnightblue" stroke="midnightblue" points="625.644,-30.8038 634.538,-25.0455 623.994,-24.001 625.644,-30.8038"/>
</g>
</g>
</svg>
