<?xml version="1.0" encoding="UTF-8" standalone="no"?>
<!DOCTYPE svg PUBLIC "-//W3C//DTD SVG 1.1//EN"
 "http://www.w3.org/Graphics/SVG/1.1/DTD/svg11.dtd">
<!-- Generated by graphviz version 2.38.0 (20140413.2041)
 -->
<!-- Title: /home/jc/THESIS/hull_abstraction/ros/src/hull_abstraction/src/marching_cubes_node/marching_cubes.cpp Pages: 1 -->
<!--zoomable 195 -->
<svg id="main" version="1.1" xmlns="http://www.w3.org/2000/svg" xmlns:xlink="http://www.w3.org/1999/xlink" xml:space="preserve" onload="init(evt)">
<style type="text/css"><![CDATA[
.edge:hover path { stroke: red; }
.edge:hover polygon { stroke: red; fill: red; }
]]></style>
<script type="text/javascript"><![CDATA[
var edges = document.getElementsByTagName('g');
if (edges && edges.length) {
  for (var i=0;i<edges.length;i++) {
    if (edges[i].id.substr(0,4)=='edge') {
      edges[i].setAttribute('class','edge');
    }
  }
}
]]></script>
        <defs>
                <circle id="rim" cx="0" cy="0" r="7"/>
                <circle id="rim2" cx="0" cy="0" r="3.5"/>
                <g id="zoomPlus">
                        <use xlink:href="#rim" fill="#404040">
                                <set attributeName="fill" to="#808080" begin="zoomplus.mouseover" end="zoomplus.mouseout"/>
                        </use>
                        <path d="M-4,0h8M0,-4v8" fill="none" stroke="white" stroke-width="1.5" pointer-events="none"/>
                </g>
                <g id="zoomMin">
                        <use xlink:href="#rim" fill="#404040">
                                <set attributeName="fill" to="#808080" begin="zoomminus.mouseover" end="zoomminus.mouseout"/>
                        </use>
                        <path d="M-4,0h8" fill="none" stroke="white" stroke-width="1.5" pointer-events="none"/>
                </g>
                <g id="dirArrow">
                        <path fill="none" stroke="white" stroke-width="1.5" d="M0,-3.0v7 M-2.5,-0.5L0,-3.0L2.5,-0.5"/>
                </g>
               <g id="resetDef">
                       <use xlink:href="#rim2" fill="#404040">
                               <set attributeName="fill" to="#808080" begin="reset.mouseover" end="reset.mouseout"/>
                       </use>
               </g>
        </defs>

<script type="text/javascript">
var viewWidth = 1014;
var viewHeight = 195;
var sectionId = 'dynsection-0';
</script>
<script xlink:href="svgpan.js"/>
<svg id="graph" class="graph">
<g id="viewport">
<title>/home/jc/THESIS/hull_abstraction/ros/src/hull_abstraction/src/marching_cubes_node/marching_cubes.cpp</title>
<polygon fill="white" stroke="none" points="-4,4 -4,-191 1010,-191 1010,4 -4,4"/>
<!-- Node1 -->
<g id="node1" class="node"><title>Node1</title>
<polygon fill="#bfbfbf" stroke="black" points="356,-123.5 356,-186.5 516,-186.5 516,-123.5 356,-123.5"/>
<text text-anchor="start" x="364" y="-174.5" font-family="Helvetica,sans-Serif" font-size="10.00">/home/jc/THESIS/hull</text>
<text text-anchor="start" x="364" y="-163.5" font-family="Helvetica,sans-Serif" font-size="10.00">_abstraction/ros/src</text>
<text text-anchor="start" x="364" y="-152.5" font-family="Helvetica,sans-Serif" font-size="10.00">/hull_abstraction/src</text>
<text text-anchor="start" x="364" y="-141.5" font-family="Helvetica,sans-Serif" font-size="10.00">/marching_cubes_node/marching</text>
<text text-anchor="middle" x="436" y="-130.5" font-family="Helvetica,sans-Serif" font-size="10.00">_cubes.cpp</text>
</g>
<!-- Node2 -->
<g id="node2" class="node"><title>Node2</title>
<g id="a_node2"><a xlink:href="marching__cubes_8h.html" target="_top" xlink:title="Framework of marching cubes node. ">
<polygon fill="white" stroke="black" points="388,-67.5 388,-86.5 484,-86.5 484,-67.5 388,-67.5"/>
<text text-anchor="middle" x="436" y="-74.5" font-family="Helvetica,sans-Serif" font-size="10.00">marching_cubes.h</text>
</a>
</g>
</g>
<!-- Node1&#45;&gt;Node2 -->
<g id="edge1" class="edge"><title>Node1&#45;&gt;Node2</title>
<path fill="none" stroke="midnightblue" d="M436,-123.088C436,-114.15 436,-104.669 436,-96.7195"/>
<polygon fill="midnightblue" stroke="midnightblue" points="439.5,-96.7181 436,-86.7182 432.5,-96.7182 439.5,-96.7181"/>
</g>
<!-- Node3 -->
<g id="node3" class="node"><title>Node3</title>
<polygon fill="white" stroke="#bfbfbf" points="0,-6 0,-25 54,-25 54,-6 0,-6"/>
<text text-anchor="middle" x="27" y="-13" font-family="Helvetica,sans-Serif" font-size="10.00">iostream</text>
</g>
<!-- Node2&#45;&gt;Node3 -->
<g id="edge2" class="edge"><title>Node2&#45;&gt;Node3</title>
<path fill="none" stroke="midnightblue" d="M387.86,-74.2259C316.076,-70.6802 177.188,-60.3373 63,-31 60.4875,-30.3545 57.9165,-29.5752 55.3614,-28.7169"/>
<polygon fill="midnightblue" stroke="midnightblue" points="56.3358,-25.3449 45.7431,-25.1315 53.8907,-31.904 56.3358,-25.3449"/>
</g>
<!-- Node4 -->
<g id="node4" class="node"><title>Node4</title>
<polygon fill="white" stroke="#bfbfbf" points="72.5,-6 72.5,-25 127.5,-25 127.5,-6 72.5,-6"/>
<text text-anchor="middle" x="100" y="-13" font-family="Helvetica,sans-Serif" font-size="10.00">ros/ros.h</text>
</g>
<!-- Node2&#45;&gt;Node4 -->
<g id="edge3" class="edge"><title>Node2&#45;&gt;Node4</title>
<path fill="none" stroke="midnightblue" d="M387.941,-72.1095C328.298,-66.5215 223.842,-54.2356 137,-31 134.342,-30.2889 131.615,-29.4476 128.904,-28.5338"/>
<polygon fill="midnightblue" stroke="midnightblue" points="129.906,-25.1731 119.312,-25.0103 127.492,-31.7438 129.906,-25.1731"/>
</g>
<!-- Node5 -->
<g id="node5" class="node"><title>Node5</title>
<polygon fill="white" stroke="#bfbfbf" points="146,-6 146,-25 286,-25 286,-6 146,-6"/>
<text text-anchor="middle" x="216" y="-13" font-family="Helvetica,sans-Serif" font-size="10.00">sensor_msgs/PointCloud2.h</text>
</g>
<!-- Node2&#45;&gt;Node5 -->
<g id="edge4" class="edge"><title>Node2&#45;&gt;Node5</title>
<path fill="none" stroke="midnightblue" d="M404.479,-67.4751C365.761,-57.0036 299.976,-39.2118 257.264,-27.6601"/>
<polygon fill="midnightblue" stroke="midnightblue" points="258.029,-24.2413 247.462,-25.0091 256.202,-30.9985 258.029,-24.2413"/>
</g>
<!-- Node6 -->
<g id="node6" class="node"><title>Node6</title>
<polygon fill="white" stroke="#bfbfbf" points="304.5,-6 304.5,-25 433.5,-25 433.5,-6 304.5,-6"/>
<text text-anchor="middle" x="369" y="-13" font-family="Helvetica,sans-Serif" font-size="10.00">pcl_msgs/PolygonMesh.h</text>
</g>
<!-- Node2&#45;&gt;Node6 -->
<g id="edge5" class="edge"><title>Node2&#45;&gt;Node6</title>
<path fill="none" stroke="midnightblue" d="M426.401,-67.4751C415.952,-58.1966 399.032,-43.1706 386.264,-31.831"/>
<polygon fill="midnightblue" stroke="midnightblue" points="388.383,-29.0323 378.582,-25.0091 383.735,-34.2663 388.383,-29.0323"/>
</g>
<!-- Node7 -->
<g id="node7" class="node"><title>Node7</title>
<polygon fill="white" stroke="#bfbfbf" points="451.5,-0.5 451.5,-30.5 554.5,-30.5 554.5,-0.5 451.5,-0.5"/>
<text text-anchor="start" x="459.5" y="-18.5" font-family="Helvetica,sans-Serif" font-size="10.00">pcl_conversions/pcl</text>
<text text-anchor="middle" x="503" y="-7.5" font-family="Helvetica,sans-Serif" font-size="10.00">_conversions.h</text>
</g>
<!-- Node2&#45;&gt;Node7 -->
<g id="edge6" class="edge"><title>Node2&#45;&gt;Node7</title>
<path fill="none" stroke="midnightblue" d="M445.599,-67.4751C454.419,-59.6426 467.851,-47.7145 479.504,-37.3656"/>
<polygon fill="midnightblue" stroke="midnightblue" points="482.056,-39.7802 487.209,-30.523 477.408,-34.5462 482.056,-39.7802"/>
</g>
<!-- Node8 -->
<g id="node8" class="node"><title>Node8</title>
<polygon fill="white" stroke="#bfbfbf" points="572.5,-6 572.5,-25 725.5,-25 725.5,-6 572.5,-6"/>
<text text-anchor="middle" x="649" y="-13" font-family="Helvetica,sans-Serif" font-size="10.00">hull_abstraction/reconstructor.h</text>
</g>
<!-- Node2&#45;&gt;Node8 -->
<g id="edge7" class="edge"><title>Node2&#45;&gt;Node8</title>
<path fill="none" stroke="midnightblue" d="M466.518,-67.4751C503.925,-57.0257 567.427,-39.2868 608.787,-27.7332"/>
<polygon fill="midnightblue" stroke="midnightblue" points="609.849,-31.0705 618.539,-25.0091 607.966,-24.3286 609.849,-31.0705"/>
</g>
<!-- Node9 -->
<g id="node9" class="node"><title>Node9</title>
<polygon fill="white" stroke="#bfbfbf" points="744,-6 744,-25 896,-25 896,-6 744,-6"/>
<text text-anchor="middle" x="820" y="-13" font-family="Helvetica,sans-Serif" font-size="10.00">hull_abstraction/preprocessor.h</text>
</g>
<!-- Node2&#45;&gt;Node9 -->
<g id="edge8" class="edge"><title>Node2&#45;&gt;Node9</title>
<path fill="none" stroke="midnightblue" d="M484.206,-69.0415C543.341,-60.4369 646.629,-45.1862 735,-31 743.393,-29.6527 752.244,-28.1897 760.938,-26.7287"/>
<polygon fill="midnightblue" stroke="midnightblue" points="761.758,-30.1399 771.034,-25.0215 760.59,-23.2378 761.758,-30.1399"/>
</g>
<!-- Node10 -->
<g id="node10" class="node"><title>Node10</title>
<polygon fill="white" stroke="#bfbfbf" points="914,-0.5 914,-30.5 1006,-30.5 1006,-0.5 914,-0.5"/>
<text text-anchor="start" x="922" y="-18.5" font-family="Helvetica,sans-Serif" font-size="10.00">pcl_utilization/pcl</text>
<text text-anchor="middle" x="960" y="-7.5" font-family="Helvetica,sans-Serif" font-size="10.00">_utilization.h</text>
</g>
<!-- Node2&#45;&gt;Node10 -->
<g id="edge9" class="edge"><title>Node2&#45;&gt;Node10</title>
<path fill="none" stroke="midnightblue" d="M484.286,-73.9511C567.954,-69.8395 745.341,-58.6492 903.969,-30.9907"/>
<polygon fill="midnightblue" stroke="midnightblue" points="904.671,-34.4211 913.907,-29.2317 903.451,-27.5282 904.671,-34.4211"/>
</g>
</g>
</svg>
        <g id="navigator" transform="translate(0 0)" fill="#404254">
                <rect fill="#f2f5e9" fill-opacity="0.5" stroke="#606060" stroke-width=".5" x="0" y="0" width="60" height="60"/>
                <use id="zoomplus" xlink:href="#zoomPlus" x="17" y="9" onmousedown="handleZoom(evt,'in')"/>
                <use id="zoomminus" xlink:href="#zoomMin" x="42" y="9" onmousedown="handleZoom(evt,'out')"/>
                <use id="reset" xlink:href="#resetDef" x="30" y="36" onmousedown="handleReset()"/>
                <g id="arrowUp" xlink:href="#dirArrow" transform="translate(30 24)" onmousedown="handlePan(0,-1)">
                  <use xlink:href="#rim" fill="#404040">
                        <set attributeName="fill" to="#808080" begin="arrowUp.mouseover" end="arrowUp.mouseout"/>
                  </use>
                  <path fill="none" stroke="white" stroke-width="1.5" d="M0,-3.0v7 M-2.5,-0.5L0,-3.0L2.5,-0.5"/>
                </g>
                <g id="arrowRight" xlink:href="#dirArrow" transform="rotate(90) translate(36 -43)" onmousedown="handlePan(1,0)">
                  <use xlink:href="#rim" fill="#404040">
                        <set attributeName="fill" to="#808080" begin="arrowRight.mouseover" end="arrowRight.mouseout"/>
                  </use>
                  <path fill="none" stroke="white" stroke-width="1.5" d="M0,-3.0v7 M-2.5,-0.5L0,-3.0L2.5,-0.5"/>
                </g>
                <g id="arrowDown" xlink:href="#dirArrow" transform="rotate(180) translate(-30 -48)" onmousedown="handlePan(0,1)">
                  <use xlink:href="#rim" fill="#404040">
                        <set attributeName="fill" to="#808080" begin="arrowDown.mouseover" end="arrowDown.mouseout"/>
                  </use>
                  <path fill="none" stroke="white" stroke-width="1.5" d="M0,-3.0v7 M-2.5,-0.5L0,-3.0L2.5,-0.5"/>
                </g>
                <g id="arrowLeft" xlink:href="#dirArrow" transform="rotate(270) translate(-36 17)" onmousedown="handlePan(-1,0)">
                  <use xlink:href="#rim" fill="#404040">
                        <set attributeName="fill" to="#808080" begin="arrowLeft.mouseover" end="arrowLeft.mouseout"/>
                  </use>
                  <path fill="none" stroke="white" stroke-width="1.5" d="M0,-3.0v7 M-2.5,-0.5L0,-3.0L2.5,-0.5"/>
                </g>
        </g>
        <svg viewBox="0 0 15 15" width="100%" height="30px" preserveAspectRatio="xMaxYMin meet">
         <g id="arrow_out" transform="scale(0.3 0.3)">
          <a xlink:href="marching__cubes_8cpp__incl_org.svg" target="_base">
           <rect id="button" ry="5" rx="5" y="6" x="6" height="38" width="38"
                fill="#f2f5e9" fill-opacity="0.5" stroke="#606060" stroke-width="1.0"/>
           <path id="arrow"
             d="M 11.500037,31.436501 C 11.940474,20.09759 22.043105,11.32322 32.158766,21.979434 L 37.068811,17.246167 C 37.068811,17.246167 37.088388,32 37.088388,32 L 22.160133,31.978069 C 22.160133,31.978069 26.997745,27.140456 26.997745,27.140456 C 18.528582,18.264221 13.291696,25.230495 11.500037,31.436501 z"
             style="fill:#404040;"/>
          </a>
         </g>
        </svg>
</svg>
