<?xml version="1.0" encoding="UTF-8" standalone="no"?>
<!DOCTYPE svg PUBLIC "-//W3C//DTD SVG 1.1//EN"
 "http://www.w3.org/Graphics/SVG/1.1/DTD/svg11.dtd">
<!-- Generated by graphviz version 2.38.0 (20140413.2041)
 -->
<!-- Title: /home/jc/hull_abstraction/ros/src/hull_abstraction/src/marching_cubes_node/marching_cubes.h Pages: 1 -->
<svg width="1014pt" height="128pt"
 viewBox="0.00 0.00 1014.00 128.00" xmlns="http://www.w3.org/2000/svg" xmlns:xlink="http://www.w3.org/1999/xlink">
<g id="graph0" class="graph" transform="scale(1 1) rotate(0) translate(4 124)">
<title>/home/jc/hull_abstraction/ros/src/hull_abstraction/src/marching_cubes_node/marching_cubes.h</title>
<polygon fill="white" stroke="none" points="-4,4 -4,-124 1010,-124 1010,4 -4,4"/>
<!-- Node1 -->
<g id="node1" class="node"><title>Node1</title>
<polygon fill="#bfbfbf" stroke="black" points="369,-67.5 369,-119.5 503,-119.5 503,-67.5 369,-67.5"/>
<text text-anchor="start" x="377" y="-107.5" font-family="Helvetica,sans-Serif" font-size="10.00">/home/jc/hull_abstraction</text>
<text text-anchor="start" x="377" y="-96.5" font-family="Helvetica,sans-Serif" font-size="10.00">/ros/src/hull_abstraction</text>
<text text-anchor="start" x="377" y="-85.5" font-family="Helvetica,sans-Serif" font-size="10.00">/src/marching_cubes_node</text>
<text text-anchor="middle" x="436" y="-74.5" font-family="Helvetica,sans-Serif" font-size="10.00">/marching_cubes.h</text>
</g>
<!-- Node2 -->
<g id="node2" class="node"><title>Node2</title>
<polygon fill="white" stroke="#bfbfbf" points="0,-6 0,-25 54,-25 54,-6 0,-6"/>
<text text-anchor="middle" x="27" y="-13" font-family="Helvetica,sans-Serif" font-size="10.00">iostream</text>
</g>
<!-- Node1&#45;&gt;Node2 -->
<g id="edge1" class="edge"><title>Node1&#45;&gt;Node2</title>
<path fill="none" stroke="midnightblue" d="M368.669,-85.9008C293.221,-77.4728 167.751,-60.3466 63,-31 60.5588,-30.3161 58.0576,-29.52 55.5667,-28.6595"/>
<polygon fill="midnightblue" stroke="midnightblue" points="56.7518,-25.3659 46.1597,-25.1223 54.288,-31.918 56.7518,-25.3659"/>
</g>
<!-- Node3 -->
<g id="node3" class="node"><title>Node3</title>
<polygon fill="white" stroke="#bfbfbf" points="72.5,-6 72.5,-25 127.5,-25 127.5,-6 72.5,-6"/>
<text text-anchor="middle" x="100" y="-13" font-family="Helvetica,sans-Serif" font-size="10.00">ros/ros.h</text>
</g>
<!-- Node1&#45;&gt;Node3 -->
<g id="edge2" class="edge"><title>Node1&#45;&gt;Node3</title>
<path fill="none" stroke="midnightblue" d="M368.988,-82.0873C307.856,-71.7961 215.376,-54.2329 137,-31 134.569,-30.2794 132.074,-29.4669 129.582,-28.6037"/>
<polygon fill="midnightblue" stroke="midnightblue" points="130.732,-25.2972 120.139,-25.1105 128.303,-31.8624 130.732,-25.2972"/>
</g>
<!-- Node4 -->
<g id="node4" class="node"><title>Node4</title>
<polygon fill="white" stroke="#bfbfbf" points="146,-6 146,-25 286,-25 286,-6 146,-6"/>
<text text-anchor="middle" x="216" y="-13" font-family="Helvetica,sans-Serif" font-size="10.00">sensor_msgs/PointCloud2.h</text>
</g>
<!-- Node1&#45;&gt;Node4 -->
<g id="edge3" class="edge"><title>Node1&#45;&gt;Node4</title>
<path fill="none" stroke="midnightblue" d="M368.797,-69.2845C329.687,-55.7738 282.026,-39.309 250.444,-28.3987"/>
<polygon fill="midnightblue" stroke="midnightblue" points="251.381,-25.0195 240.786,-25.0624 249.095,-31.6358 251.381,-25.0195"/>
</g>
<!-- Node5 -->
<g id="node5" class="node"><title>Node5</title>
<polygon fill="white" stroke="#bfbfbf" points="304.5,-6 304.5,-25 433.5,-25 433.5,-6 304.5,-6"/>
<text text-anchor="middle" x="369" y="-13" font-family="Helvetica,sans-Serif" font-size="10.00">pcl_msgs/PolygonMesh.h</text>
</g>
<!-- Node1&#45;&gt;Node5 -->
<g id="edge4" class="edge"><title>Node1&#45;&gt;Node5</title>
<path fill="none" stroke="midnightblue" d="M413.69,-67.1931C403.697,-55.8582 392.204,-42.821 383.375,-32.8065"/>
<polygon fill="midnightblue" stroke="midnightblue" points="385.916,-30.3956 376.678,-25.2089 380.665,-35.0247 385.916,-30.3956"/>
</g>
<!-- Node6 -->
<g id="node6" class="node"><title>Node6</title>
<polygon fill="white" stroke="#bfbfbf" points="451.5,-0.5 451.5,-30.5 554.5,-30.5 554.5,-0.5 451.5,-0.5"/>
<text text-anchor="start" x="459.5" y="-18.5" font-family="Helvetica,sans-Serif" font-size="10.00">pcl_conversions/pcl</text>
<text text-anchor="middle" x="503" y="-7.5" font-family="Helvetica,sans-Serif" font-size="10.00">_conversions.h</text>
</g>
<!-- Node1&#45;&gt;Node6 -->
<g id="edge5" class="edge"><title>Node1&#45;&gt;Node6</title>
<path fill="none" stroke="midnightblue" d="M458.31,-67.1931C466.471,-57.9363 475.632,-47.5441 483.526,-38.5901"/>
<polygon fill="midnightblue" stroke="midnightblue" points="486.366,-40.6611 490.354,-30.8453 481.115,-36.032 486.366,-40.6611"/>
</g>
<!-- Node7 -->
<g id="node7" class="node"><title>Node7</title>
<polygon fill="white" stroke="#bfbfbf" points="572.5,-6 572.5,-25 725.5,-25 725.5,-6 572.5,-6"/>
<text text-anchor="middle" x="649" y="-13" font-family="Helvetica,sans-Serif" font-size="10.00">hull_abstraction/reconstructor.h</text>
</g>
<!-- Node1&#45;&gt;Node7 -->
<g id="edge6" class="edge"><title>Node1&#45;&gt;Node7</title>
<path fill="none" stroke="midnightblue" d="M503.102,-68.5574C540.461,-55.2274 585.35,-39.2109 615.381,-28.4957"/>
<polygon fill="midnightblue" stroke="midnightblue" points="616.721,-31.7337 624.963,-25.0766 614.368,-25.1408 616.721,-31.7337"/>
</g>
<!-- Node8 -->
<g id="node8" class="node"><title>Node8</title>
<polygon fill="white" stroke="#bfbfbf" points="744,-6 744,-25 896,-25 896,-6 744,-6"/>
<text text-anchor="middle" x="820" y="-13" font-family="Helvetica,sans-Serif" font-size="10.00">hull_abstraction/preprocessor.h</text>
</g>
<!-- Node1&#45;&gt;Node8 -->
<g id="edge7" class="edge"><title>Node1&#45;&gt;Node8</title>
<path fill="none" stroke="midnightblue" d="M503.327,-79.1748C578.311,-64.3343 697.99,-40.6478 766.74,-27.041"/>
<polygon fill="midnightblue" stroke="midnightblue" points="767.783,-30.4027 776.913,-25.0277 766.423,-23.5359 767.783,-30.4027"/>
</g>
<!-- Node9 -->
<g id="node9" class="node"><title>Node9</title>
<polygon fill="white" stroke="#bfbfbf" points="914,-0.5 914,-30.5 1006,-30.5 1006,-0.5 914,-0.5"/>
<text text-anchor="start" x="922" y="-18.5" font-family="Helvetica,sans-Serif" font-size="10.00">pcl_utilization/pcl</text>
<text text-anchor="middle" x="960" y="-7.5" font-family="Helvetica,sans-Serif" font-size="10.00">_utilization.h</text>
</g>
<!-- Node1&#45;&gt;Node9 -->
<g id="edge8" class="edge"><title>Node1&#45;&gt;Node9</title>
<path fill="none" stroke="midnightblue" d="M503.228,-86.4026C592.633,-77.6903 755.651,-59.7062 903.705,-31.102"/>
<polygon fill="midnightblue" stroke="midnightblue" points="904.742,-34.4656 913.885,-29.1134 903.4,-27.5955 904.742,-34.4656"/>
</g>
</g>
</svg>
