<?xml version="1.0" encoding="UTF-8" standalone="no"?>
<!DOCTYPE svg PUBLIC "-//W3C//DTD SVG 1.1//EN"
 "http://www.w3.org/Graphics/SVG/1.1/DTD/svg11.dtd">
<!-- Generated by graphviz version 2.38.0 (20140413.2041)
 -->
<!-- Title: /home/jc/hull_abstraction/ros/src/hull_abstraction/src/marching_cubes_node/marching_cubes.cpp Pages: 1 -->
<!--zoomable 251 -->
<svg id="main" version="1.1" xmlns="http://www.w3.org/2000/svg" xmlns:xlink="http://www.w3.org/1999/xlink" xml:space="preserve" onload="init(evt)">
<style type="text/css"><![CDATA[
.edge:hover path { stroke: red; }
.edge:hover polygon { stroke: red; fill: red; }
]]></style>
<script type="text/javascript"><![CDATA[
var edges = document.getElementsByTagName('g');
if (edges && edges.length) {
  for (var i=0;i<edges.length;i++) {
    if (edges[i].id.substr(0,4)=='edge') {
      edges[i].setAttribute('class','edge');
    }
  }
}
]]></script>
        <defs>
                <circle id="rim" cx="0" cy="0" r="7"/>
                <circle id="rim2" cx="0" cy="0" r="3.5"/>
                <g id="zoomPlus">
                        <use xlink:href="#rim" fill="#404040">
                                <set attributeName="fill" to="#808080" begin="zoomplus.mouseover" end="zoomplus.mouseout"/>
                        </use>
                        <path d="M-4,0h8M0,-4v8" fill="none" stroke="white" stroke-width="1.5" pointer-events="none"/>
                </g>
                <g id="zoomMin">
                        <use xlink:href="#rim" fill="#404040">
                                <set attributeName="fill" to="#808080" begin="zoomminus.mouseover" end="zoomminus.mouseout"/>
                        </use>
                        <path d="M-4,0h8" fill="none" stroke="white" stroke-width="1.5" pointer-events="none"/>
                </g>
                <g id="dirArrow">
                        <path fill="none" stroke="white" stroke-width="1.5" d="M0,-3.0v7 M-2.5,-0.5L0,-3.0L2.5,-0.5"/>
                </g>
               <g id="resetDef">
                       <use xlink:href="#rim2" fill="#404040">
                               <set attributeName="fill" to="#808080" begin="reset.mouseover" end="reset.mouseout"/>
                       </use>
               </g>
        </defs>

<script type="text/javascript">
var viewWidth = 1037;
var viewHeight = 251;
var sectionId = 'dynsection-0';
</script>
<script xlink:href="svgpan.js"/>
<svg id="graph" class="graph">
<g id="viewport">
<title>/home/jc/hull_abstraction/ros/src/hull_abstraction/src/marching_cubes_node/marching_cubes.cpp</title>
<polygon fill="white" stroke="none" points="-4,4 -4,-247 1033,-247 1033,4 -4,4"/>
<!-- Node1 -->
<g id="node1" class="node"><title>Node1</title>
<polygon fill="#bfbfbf" stroke="black" points="279.5,-190.5 279.5,-242.5 413.5,-242.5 413.5,-190.5 279.5,-190.5"/>
<text text-anchor="start" x="287.5" y="-230.5" font-family="Helvetica,sans-Serif" font-size="10.00">/home/jc/hull_abstraction</text>
<text text-anchor="start" x="287.5" y="-219.5" font-family="Helvetica,sans-Serif" font-size="10.00">/ros/src/hull_abstraction</text>
<text text-anchor="start" x="287.5" y="-208.5" font-family="Helvetica,sans-Serif" font-size="10.00">/src/marching_cubes_node</text>
<text text-anchor="middle" x="346.5" y="-197.5" font-family="Helvetica,sans-Serif" font-size="10.00">/marching_cubes.cpp</text>
</g>
<!-- Node2 -->
<g id="node2" class="node"><title>Node2</title>
<g id="a_node2"><a xlink:href="marching__cubes_8h.html" target="_top" xlink:title="Framework of marching cubes node. ">
<polygon fill="white" stroke="black" points="298.5,-134.5 298.5,-153.5 394.5,-153.5 394.5,-134.5 298.5,-134.5"/>
<text text-anchor="middle" x="346.5" y="-141.5" font-family="Helvetica,sans-Serif" font-size="10.00">marching_cubes.h</text>
</a>
</g>
</g>
<!-- Node1&#45;&gt;Node2 -->
<g id="edge1" class="edge"><title>Node1&#45;&gt;Node2</title>
<path fill="none" stroke="midnightblue" d="M346.5,-190.446C346.5,-181.73 346.5,-172.104 346.5,-163.964"/>
<polygon fill="midnightblue" stroke="midnightblue" points="350,-163.695 346.5,-153.695 343,-163.696 350,-163.695"/>
</g>
<!-- Node3 -->
<g id="node3" class="node"><title>Node3</title>
<polygon fill="white" stroke="#bfbfbf" points="151.5,-73 151.5,-92 205.5,-92 205.5,-73 151.5,-73"/>
<text text-anchor="middle" x="178.5" y="-80" font-family="Helvetica,sans-Serif" font-size="10.00">iostream</text>
</g>
<!-- Node2&#45;&gt;Node3 -->
<g id="edge2" class="edge"><title>Node2&#45;&gt;Node3</title>
<path fill="none" stroke="midnightblue" d="M322.43,-134.475C293.487,-124.225 244.738,-106.959 212.098,-95.3994"/>
<polygon fill="midnightblue" stroke="midnightblue" points="213.12,-92.0484 202.526,-92.0091 210.783,-98.6468 213.12,-92.0484"/>
</g>
<!-- Node4 -->
<g id="node4" class="node"><title>Node4</title>
<polygon fill="white" stroke="#bfbfbf" points="0,-6 0,-25 55,-25 55,-6 0,-6"/>
<text text-anchor="middle" x="27.5" y="-13" font-family="Helvetica,sans-Serif" font-size="10.00">ros/ros.h</text>
</g>
<!-- Node2&#45;&gt;Node4 -->
<g id="edge3" class="edge"><title>Node2&#45;&gt;Node4</title>
<path fill="none" stroke="midnightblue" d="M321.736,-134.352C300.971,-126.505 271.026,-113.765 247.5,-98 230.783,-86.7977 232.209,-76.5565 214.5,-67 154.165,-34.4409 129.905,-51.5567 64.5,-31 62.2231,-30.2844 59.8859,-29.4974 57.5463,-28.6714"/>
<polygon fill="midnightblue" stroke="midnightblue" points="58.6561,-25.3499 48.0633,-25.139 56.2126,-31.9096 58.6561,-25.3499"/>
</g>
<!-- Node5 -->
<g id="node5" class="node"><title>Node5</title>
<polygon fill="white" stroke="#bfbfbf" points="73.5,-6 73.5,-25 213.5,-25 213.5,-6 73.5,-6"/>
<text text-anchor="middle" x="143.5" y="-13" font-family="Helvetica,sans-Serif" font-size="10.00">sensor_msgs/PointCloud2.h</text>
</g>
<!-- Node2&#45;&gt;Node5 -->
<g id="edge4" class="edge"><title>Node2&#45;&gt;Node5</title>
<path fill="none" stroke="midnightblue" d="M336.591,-134.294C319.302,-119.361 282.156,-88.4094 247.5,-67 223.511,-52.1804 194.532,-38.4179 173.263,-29.0153"/>
<polygon fill="midnightblue" stroke="midnightblue" points="174.645,-25.7996 164.079,-25.0138 171.849,-32.2169 174.645,-25.7996"/>
</g>
<!-- Node6 -->
<g id="node6" class="node"><title>Node6</title>
<polygon fill="white" stroke="#bfbfbf" points="448,-73 448,-92 577,-92 577,-73 448,-73"/>
<text text-anchor="middle" x="512.5" y="-80" font-family="Helvetica,sans-Serif" font-size="10.00">pcl_msgs/PolygonMesh.h</text>
</g>
<!-- Node2&#45;&gt;Node6 -->
<g id="edge5" class="edge"><title>Node2&#45;&gt;Node6</title>
<path fill="none" stroke="midnightblue" d="M370.284,-134.475C398.882,-124.225 447.051,-106.959 479.302,-95.3994"/>
<polygon fill="midnightblue" stroke="midnightblue" points="480.528,-98.678 488.76,-92.0091 478.166,-92.0885 480.528,-98.678"/>
</g>
<!-- Node7 -->
<g id="node7" class="node"><title>Node7</title>
<polygon fill="white" stroke="#bfbfbf" points="232,-0.5 232,-30.5 335,-30.5 335,-0.5 232,-0.5"/>
<text text-anchor="start" x="240" y="-18.5" font-family="Helvetica,sans-Serif" font-size="10.00">pcl_conversions/pcl</text>
<text text-anchor="middle" x="283.5" y="-7.5" font-family="Helvetica,sans-Serif" font-size="10.00">_conversions.h</text>
</g>
<!-- Node2&#45;&gt;Node7 -->
<g id="edge6" class="edge"><title>Node2&#45;&gt;Node7</title>
<path fill="none" stroke="midnightblue" d="M342.17,-134.305C332.621,-115.131 309.477,-68.6599 295.278,-40.1493"/>
<polygon fill="midnightblue" stroke="midnightblue" points="298.257,-38.279 290.666,-30.888 291.991,-41.3997 298.257,-38.279"/>
</g>
<!-- Node8 -->
<g id="node8" class="node"><title>Node8</title>
<polygon fill="white" stroke="#bfbfbf" points="595,-73 595,-92 748,-92 748,-73 595,-73"/>
<text text-anchor="middle" x="671.5" y="-80" font-family="Helvetica,sans-Serif" font-size="10.00">hull_abstraction/reconstructor.h</text>
</g>
<!-- Node2&#45;&gt;Node8 -->
<g id="edge7" class="edge"><title>Node2&#45;&gt;Node8</title>
<path fill="none" stroke="midnightblue" d="M393.065,-134.475C451.589,-123.761 551.976,-105.382 614.879,-93.8661"/>
<polygon fill="midnightblue" stroke="midnightblue" points="615.816,-97.2528 625.022,-92.0091 614.555,-90.3672 615.816,-97.2528"/>
</g>
<!-- Node9 -->
<g id="node9" class="node"><title>Node9</title>
<polygon fill="white" stroke="#bfbfbf" points="766.5,-73 766.5,-92 918.5,-92 918.5,-73 766.5,-73"/>
<text text-anchor="middle" x="842.5" y="-80" font-family="Helvetica,sans-Serif" font-size="10.00">hull_abstraction/preprocessor.h</text>
</g>
<!-- Node2&#45;&gt;Node9 -->
<g id="edge8" class="edge"><title>Node2&#45;&gt;Node9</title>
<path fill="none" stroke="midnightblue" d="M394.705,-138.666C471.6,-131.541 626.698,-116.301 757.5,-98 766.537,-96.7357 776.089,-95.2514 785.399,-93.7236"/>
<polygon fill="midnightblue" stroke="midnightblue" points="786.084,-97.1577 795.37,-92.057 784.93,-90.2535 786.084,-97.1577"/>
</g>
<!-- Node10 -->
<g id="node10" class="node"><title>Node10</title>
<g id="a_node10"><a xlink:href="pcl__utilization_8h.html" target="_top" xlink:title="This file contains the declaration of PCL utilization methods. ">
<polygon fill="white" stroke="black" points="337.5,-67.5 337.5,-97.5 429.5,-97.5 429.5,-67.5 337.5,-67.5"/>
<text text-anchor="start" x="345.5" y="-85.5" font-family="Helvetica,sans-Serif" font-size="10.00">pcl_utilization/pcl</text>
<text text-anchor="middle" x="383.5" y="-74.5" font-family="Helvetica,sans-Serif" font-size="10.00">_utilization.h</text>
</a>
</g>
</g>
<!-- Node2&#45;&gt;Node10 -->
<g id="edge9" class="edge"><title>Node2&#45;&gt;Node10</title>
<path fill="none" stroke="midnightblue" d="M351.801,-134.475C356.391,-127.094 363.242,-116.077 369.402,-106.171"/>
<polygon fill="midnightblue" stroke="midnightblue" points="372.471,-107.863 374.78,-97.523 366.527,-104.167 372.471,-107.863"/>
</g>
<!-- Node10&#45;&gt;Node4 -->
<g id="edge10" class="edge"><title>Node10&#45;&gt;Node4</title>
<path fill="none" stroke="midnightblue" d="M337.414,-77.3667C274.799,-71.0383 159.735,-56.8707 64.5,-31 61.9055,-30.2952 59.2435,-29.469 56.5947,-28.5746"/>
<polygon fill="midnightblue" stroke="midnightblue" points="57.7974,-25.2878 47.2037,-25.1325 55.3884,-31.8603 57.7974,-25.2878"/>
</g>
<!-- Node10&#45;&gt;Node5 -->
<g id="edge11" class="edge"><title>Node10&#45;&gt;Node5</title>
<path fill="none" stroke="midnightblue" d="M337.226,-68.9673C293.089,-57.0138 227.228,-39.1764 184.817,-27.6899"/>
<polygon fill="midnightblue" stroke="midnightblue" points="185.659,-24.292 175.092,-25.0561 183.829,-31.0486 185.659,-24.292"/>
</g>
<!-- Node10&#45;&gt;Node7 -->
<g id="edge14" class="edge"><title>Node10&#45;&gt;Node7</title>
<path fill="none" stroke="midnightblue" d="M361.801,-67.396C347.78,-58.282 329.331,-46.2902 313.863,-36.236"/>
<polygon fill="midnightblue" stroke="midnightblue" points="315.448,-33.0919 305.156,-30.5765 311.633,-38.961 315.448,-33.0919"/>
</g>
<!-- Node11 -->
<g id="node11" class="node"><title>Node11</title>
<polygon fill="white" stroke="#bfbfbf" points="736.5,-0.5 736.5,-30.5 836.5,-30.5 836.5,-0.5 736.5,-0.5"/>
<text text-anchor="start" x="744.5" y="-18.5" font-family="Helvetica,sans-Serif" font-size="10.00">visualization_msgs</text>
<text text-anchor="middle" x="786.5" y="-7.5" font-family="Helvetica,sans-Serif" font-size="10.00">/Marker.h</text>
</g>
<!-- Node10&#45;&gt;Node11 -->
<g id="edge12" class="edge"><title>Node10&#45;&gt;Node11</title>
<path fill="none" stroke="midnightblue" d="M429.538,-69.0771C432.898,-68.3249 436.245,-67.6222 439.5,-67 562.985,-43.3973 598.841,-53.8645 726.228,-31.0897"/>
<polygon fill="midnightblue" stroke="midnightblue" points="727.164,-34.477 736.374,-29.2409 725.909,-27.5905 727.164,-34.477"/>
</g>
<!-- Node12 -->
<g id="node12" class="node"><title>Node12</title>
<polygon fill="white" stroke="#bfbfbf" points="855,-6 855,-25 920,-25 920,-6 855,-6"/>
<text text-anchor="middle" x="887.5" y="-13" font-family="Helvetica,sans-Serif" font-size="10.00">Eigen/Core</text>
</g>
<!-- Node10&#45;&gt;Node12 -->
<g id="edge13" class="edge"><title>Node10&#45;&gt;Node12</title>
<path fill="none" stroke="midnightblue" d="M429.514,-68.9438C432.88,-68.2229 436.234,-67.5636 439.5,-67 618.013,-36.1913 668.344,-68.8396 845.5,-31 849.001,-30.2522 852.613,-29.2991 856.18,-28.2396"/>
<polygon fill="midnightblue" stroke="midnightblue" points="857.558,-31.4722 865.987,-25.0544 855.395,-24.8145 857.558,-31.4722"/>
</g>
<!-- Node13 -->
<g id="node13" class="node"><title>Node13</title>
<polygon fill="white" stroke="#bfbfbf" points="938,-6 938,-25 1029,-25 1029,-6 938,-6"/>
<text text-anchor="middle" x="983.5" y="-13" font-family="Helvetica,sans-Serif" font-size="10.00">pcl/point_types.h</text>
</g>
<!-- Node10&#45;&gt;Node13 -->
<g id="edge15" class="edge"><title>Node10&#45;&gt;Node13</title>
<path fill="none" stroke="midnightblue" d="M429.504,-68.8876C432.872,-68.1799 436.23,-67.539 439.5,-67 654.958,-31.4883 714.204,-67.4772 929.5,-31 934.884,-30.0879 940.508,-28.8765 946.009,-27.5415"/>
<polygon fill="midnightblue" stroke="midnightblue" points="946.886,-30.9297 955.695,-25.0428 945.138,-24.1516 946.886,-30.9297"/>
</g>
<!-- Node14 -->
<g id="node14" class="node"><title>Node14</title>
<polygon fill="white" stroke="#bfbfbf" points="353,-6 353,-25 466,-25 466,-6 353,-6"/>
<text text-anchor="middle" x="409.5" y="-13" font-family="Helvetica,sans-Serif" font-size="10.00">pcl/PCLPointCloud2.h</text>
</g>
<!-- Node10&#45;&gt;Node14 -->
<g id="edge16" class="edge"><title>Node10&#45;&gt;Node14</title>
<path fill="none" stroke="midnightblue" d="M389.142,-67.396C392.995,-57.7628 398.134,-44.9145 402.285,-34.5373"/>
<polygon fill="midnightblue" stroke="midnightblue" points="405.558,-35.7792 406.022,-25.1945 399.059,-33.1794 405.558,-35.7792"/>
</g>
<!-- Node15 -->
<g id="node15" class="node"><title>Node15</title>
<polygon fill="white" stroke="#bfbfbf" points="484.5,-6 484.5,-25 600.5,-25 600.5,-6 484.5,-6"/>
<text text-anchor="middle" x="542.5" y="-13" font-family="Helvetica,sans-Serif" font-size="10.00">pcl/common/centroid.h</text>
</g>
<!-- Node10&#45;&gt;Node15 -->
<g id="edge17" class="edge"><title>Node10&#45;&gt;Node15</title>
<path fill="none" stroke="midnightblue" d="M418.001,-67.396C446.146,-55.8901 485.511,-39.7974 512.395,-28.8072"/>
<polygon fill="midnightblue" stroke="midnightblue" points="513.759,-32.0309 521.691,-25.007 511.11,-25.5514 513.759,-32.0309"/>
</g>
<!-- Node16 -->
<g id="node16" class="node"><title>Node16</title>
<polygon fill="white" stroke="#bfbfbf" points="618.5,-6 618.5,-25 718.5,-25 718.5,-6 618.5,-6"/>
<text text-anchor="middle" x="668.5" y="-13" font-family="Helvetica,sans-Serif" font-size="10.00">pcl/search/kdtree.h</text>
</g>
<!-- Node10&#45;&gt;Node16 -->
<g id="edge18" class="edge"><title>Node10&#45;&gt;Node16</title>
<path fill="none" stroke="midnightblue" d="M429.604,-69.3882C432.949,-68.563 436.274,-67.7588 439.5,-67 514.679,-49.3161 534.213,-48.2183 609.5,-31 614.45,-29.8679 619.625,-28.6489 624.765,-27.4156"/>
<polygon fill="midnightblue" stroke="midnightblue" points="625.644,-30.8038 634.538,-25.0455 623.994,-24.001 625.644,-30.8038"/>
</g>
</g>
</svg>
        <g id="navigator" transform="translate(0 0)" fill="#404254">
                <rect fill="#f2f5e9" fill-opacity="0.5" stroke="#606060" stroke-width=".5" x="0" y="0" width="60" height="60"/>
                <use id="zoomplus" xlink:href="#zoomPlus" x="17" y="9" onmousedown="handleZoom(evt,'in')"/>
                <use id="zoomminus" xlink:href="#zoomMin" x="42" y="9" onmousedown="handleZoom(evt,'out')"/>
                <use id="reset" xlink:href="#resetDef" x="30" y="36" onmousedown="handleReset()"/>
                <g id="arrowUp" xlink:href="#dirArrow" transform="translate(30 24)" onmousedown="handlePan(0,-1)">
                  <use xlink:href="#rim" fill="#404040">
                        <set attributeName="fill" to="#808080" begin="arrowUp.mouseover" end="arrowUp.mouseout"/>
                  </use>
                  <path fill="none" stroke="white" stroke-width="1.5" d="M0,-3.0v7 M-2.5,-0.5L0,-3.0L2.5,-0.5"/>
                </g>
                <g id="arrowRight" xlink:href="#dirArrow" transform="rotate(90) translate(36 -43)" onmousedown="handlePan(1,0)">
                  <use xlink:href="#rim" fill="#404040">
                        <set attributeName="fill" to="#808080" begin="arrowRight.mouseover" end="arrowRight.mouseout"/>
                  </use>
                  <path fill="none" stroke="white" stroke-width="1.5" d="M0,-3.0v7 M-2.5,-0.5L0,-3.0L2.5,-0.5"/>
                </g>
                <g id="arrowDown" xlink:href="#dirArrow" transform="rotate(180) translate(-30 -48)" onmousedown="handlePan(0,1)">
                  <use xlink:href="#rim" fill="#404040">
                        <set attributeName="fill" to="#808080" begin="arrowDown.mouseover" end="arrowDown.mouseout"/>
                  </use>
                  <path fill="none" stroke="white" stroke-width="1.5" d="M0,-3.0v7 M-2.5,-0.5L0,-3.0L2.5,-0.5"/>
                </g>
                <g id="arrowLeft" xlink:href="#dirArrow" transform="rotate(270) translate(-36 17)" onmousedown="handlePan(-1,0)">
                  <use xlink:href="#rim" fill="#404040">
                        <set attributeName="fill" to="#808080" begin="arrowLeft.mouseover" end="arrowLeft.mouseout"/>
                  </use>
                  <path fill="none" stroke="white" stroke-width="1.5" d="M0,-3.0v7 M-2.5,-0.5L0,-3.0L2.5,-0.5"/>
                </g>
        </g>
        <svg viewBox="0 0 15 15" width="100%" height="30px" preserveAspectRatio="xMaxYMin meet">
         <g id="arrow_out" transform="scale(0.3 0.3)">
          <a xlink:href="marching__cubes_8cpp__incl_org.svg" target="_base">
           <rect id="button" ry="5" rx="5" y="6" x="6" height="38" width="38"
                fill="#f2f5e9" fill-opacity="0.5" stroke="#606060" stroke-width="1.0"/>
           <path id="arrow"
             d="M 11.500037,31.436501 C 11.940474,20.09759 22.043105,11.32322 32.158766,21.979434 L 37.068811,17.246167 C 37.068811,17.246167 37.088388,32 37.088388,32 L 22.160133,31.978069 C 22.160133,31.978069 26.997745,27.140456 26.997745,27.140456 C 18.528582,18.264221 13.291696,25.230495 11.500037,31.436501 z"
             style="fill:#404040;"/>
          </a>
         </g>
        </svg>
</svg>
