<?xml version="1.0" encoding="UTF-8" standalone="no"?>
<!DOCTYPE svg PUBLIC "-//W3C//DTD SVG 1.1//EN"
 "http://www.w3.org/Graphics/SVG/1.1/DTD/svg11.dtd">
<!-- Generated by graphviz version 2.38.0 (20140413.2041)
 -->
<!-- Title: /home/jc/THESIS/hull_abstraction/ros/src/hull_abstraction/src/marching_cubes_node/marching_cubes.h Pages: 1 -->
<svg width="322pt" height="172pt"
 viewBox="0.00 0.00 322.00 172.00" xmlns="http://www.w3.org/2000/svg" xmlns:xlink="http://www.w3.org/1999/xlink">
<g id="graph0" class="graph" transform="scale(1 1) rotate(0) translate(4 168)">
<title>/home/jc/THESIS/hull_abstraction/ros/src/hull_abstraction/src/marching_cubes_node/marching_cubes.h</title>
<polygon fill="white" stroke="none" points="-4,4 -4,-168 318,-168 318,4 -4,4"/>
<!-- Node1 -->
<g id="node1" class="node"><title>Node1</title>
<polygon fill="#bfbfbf" stroke="black" points="83,-100.5 83,-163.5 243,-163.5 243,-100.5 83,-100.5"/>
<text text-anchor="start" x="91" y="-151.5" font-family="Helvetica,sans-Serif" font-size="10.00">/home/jc/THESIS/hull</text>
<text text-anchor="start" x="91" y="-140.5" font-family="Helvetica,sans-Serif" font-size="10.00">_abstraction/ros/src</text>
<text text-anchor="start" x="91" y="-129.5" font-family="Helvetica,sans-Serif" font-size="10.00">/hull_abstraction/src</text>
<text text-anchor="start" x="91" y="-118.5" font-family="Helvetica,sans-Serif" font-size="10.00">/marching_cubes_node/marching</text>
<text text-anchor="middle" x="163" y="-107.5" font-family="Helvetica,sans-Serif" font-size="10.00">_cubes.h</text>
</g>
<!-- Node2 -->
<g id="node2" class="node"><title>Node2</title>
<g id="a_node2"><a xlink:href="marching__cubes_8cpp.html" target="_top" xlink:title="/home/jc/THESIS/hull\l_abstraction/ros/src\l/hull_abstraction/src\l/marching_cubes_node/marching\l_cubes.cpp">
<polygon fill="white" stroke="black" points="0,-0.5 0,-63.5 160,-63.5 160,-0.5 0,-0.5"/>
<text text-anchor="start" x="8" y="-51.5" font-family="Helvetica,sans-Serif" font-size="10.00">/home/jc/THESIS/hull</text>
<text text-anchor="start" x="8" y="-40.5" font-family="Helvetica,sans-Serif" font-size="10.00">_abstraction/ros/src</text>
<text text-anchor="start" x="8" y="-29.5" font-family="Helvetica,sans-Serif" font-size="10.00">/hull_abstraction/src</text>
<text text-anchor="start" x="8" y="-18.5" font-family="Helvetica,sans-Serif" font-size="10.00">/marching_cubes_node/marching</text>
<text text-anchor="middle" x="80" y="-7.5" font-family="Helvetica,sans-Serif" font-size="10.00">_cubes.cpp</text>
</a>
</g>
</g>
<!-- Node1&#45;&gt;Node2 -->
<g id="edge1" class="edge"><title>Node1&#45;&gt;Node2</title>
<path fill="none" stroke="midnightblue" d="M130.309,-92.4011C122.219,-82.8488 113.66,-72.7436 105.942,-63.6299"/>
<polygon fill="midnightblue" stroke="midnightblue" points="127.832,-94.8922 136.966,-100.261 133.174,-90.3681 127.832,-94.8922"/>
</g>
<!-- Node3 -->
<g id="node3" class="node"><title>Node3</title>
<g id="a_node3"><a xlink:href="marching__cubes__node_8cpp.html" target="_top" xlink:title="/home/jc/THESIS/hull\l_abstraction/ros/src\l/hull_abstraction/src\l/marching_cubes_node.cpp">
<polygon fill="white" stroke="black" points="178,-6 178,-58 314,-58 314,-6 178,-6"/>
<text text-anchor="start" x="186" y="-46" font-family="Helvetica,sans-Serif" font-size="10.00">/home/jc/THESIS/hull</text>
<text text-anchor="start" x="186" y="-35" font-family="Helvetica,sans-Serif" font-size="10.00">_abstraction/ros/src</text>
<text text-anchor="start" x="186" y="-24" font-family="Helvetica,sans-Serif" font-size="10.00">/hull_abstraction/src</text>
<text text-anchor="middle" x="246" y="-13" font-family="Helvetica,sans-Serif" font-size="10.00">/marching_cubes_node.cpp</text>
</a>
</g>
</g>
<!-- Node1&#45;&gt;Node3 -->
<g id="edge2" class="edge"><title>Node1&#45;&gt;Node3</title>
<path fill="none" stroke="midnightblue" d="M195.672,-92.4231C205.461,-80.8659 215.936,-68.4974 224.781,-58.0536"/>
<polygon fill="midnightblue" stroke="midnightblue" points="192.826,-90.3681 189.034,-100.261 198.168,-94.8922 192.826,-90.3681"/>
</g>
</g>
</svg>
