<?xml version="1.0" encoding="UTF-8" standalone="no"?>
<!DOCTYPE svg PUBLIC "-//W3C//DTD SVG 1.1//EN"
 "http://www.w3.org/Graphics/SVG/1.1/DTD/svg11.dtd">
<!-- Generated by graphviz version 2.38.0 (20140413.2041)
 -->
<!-- Title: /home/jc/hull_abstraction/ros/src/hull_abstraction/src/marching_cubes_node/marching_cubes.h Pages: 1 -->
<svg width="1037pt" height="195pt"
 viewBox="0.00 0.00 1037.00 195.00" xmlns="http://www.w3.org/2000/svg" xmlns:xlink="http://www.w3.org/1999/xlink">
<g id="graph0" class="graph" transform="scale(1 1) rotate(0) translate(4 191)">
<title>/home/jc/hull_abstraction/ros/src/hull_abstraction/src/marching_cubes_node/marching_cubes.h</title>
<polygon fill="white" stroke="none" points="-4,4 -4,-191 1033,-191 1033,4 -4,4"/>
<!-- Node1 -->
<g id="node1" class="node"><title>Node1</title>
<polygon fill="#bfbfbf" stroke="black" points="279.5,-134.5 279.5,-186.5 413.5,-186.5 413.5,-134.5 279.5,-134.5"/>
<text text-anchor="start" x="287.5" y="-174.5" font-family="Helvetica,sans-Serif" font-size="10.00">/home/jc/hull_abstraction</text>
<text text-anchor="start" x="287.5" y="-163.5" font-family="Helvetica,sans-Serif" font-size="10.00">/ros/src/hull_abstraction</text>
<text text-anchor="start" x="287.5" y="-152.5" font-family="Helvetica,sans-Serif" font-size="10.00">/src/marching_cubes_node</text>
<text text-anchor="middle" x="346.5" y="-141.5" font-family="Helvetica,sans-Serif" font-size="10.00">/marching_cubes.h</text>
</g>
<!-- Node2 -->
<g id="node2" class="node"><title>Node2</title>
<polygon fill="white" stroke="#bfbfbf" points="151.5,-73 151.5,-92 205.5,-92 205.5,-73 151.5,-73"/>
<text text-anchor="middle" x="178.5" y="-80" font-family="Helvetica,sans-Serif" font-size="10.00">iostream</text>
</g>
<!-- Node1&#45;&gt;Node2 -->
<g id="edge1" class="edge"><title>Node1&#45;&gt;Node2</title>
<path fill="none" stroke="midnightblue" d="M291.025,-134.404C262.758,-121.617 229.602,-106.618 206.636,-96.2283"/>
<polygon fill="midnightblue" stroke="midnightblue" points="208.015,-93.0108 197.462,-92.0779 205.13,-99.3885 208.015,-93.0108"/>
</g>
<!-- Node3 -->
<g id="node3" class="node"><title>Node3</title>
<polygon fill="white" stroke="#bfbfbf" points="0,-6 0,-25 55,-25 55,-6 0,-6"/>
<text text-anchor="middle" x="27.5" y="-13" font-family="Helvetica,sans-Serif" font-size="10.00">ros/ros.h</text>
</g>
<!-- Node1&#45;&gt;Node3 -->
<g id="edge2" class="edge"><title>Node1&#45;&gt;Node3</title>
<path fill="none" stroke="midnightblue" d="M301.883,-134.357C284.406,-123.855 264.509,-111.065 247.5,-98 231.542,-85.7416 232.209,-76.5565 214.5,-67 154.165,-34.4409 129.905,-51.5567 64.5,-31 62.2231,-30.2844 59.8859,-29.4974 57.5463,-28.6714"/>
<polygon fill="midnightblue" stroke="midnightblue" points="58.6561,-25.3499 48.0633,-25.139 56.2126,-31.9096 58.6561,-25.3499"/>
</g>
<!-- Node4 -->
<g id="node4" class="node"><title>Node4</title>
<polygon fill="white" stroke="#bfbfbf" points="73.5,-6 73.5,-25 213.5,-25 213.5,-6 73.5,-6"/>
<text text-anchor="middle" x="143.5" y="-13" font-family="Helvetica,sans-Serif" font-size="10.00">sensor_msgs/PointCloud2.h</text>
</g>
<!-- Node1&#45;&gt;Node4 -->
<g id="edge3" class="edge"><title>Node1&#45;&gt;Node4</title>
<path fill="none" stroke="midnightblue" d="M323.443,-134.118C304.416,-114.168 276.004,-86.5742 247.5,-67 224.83,-51.4318 196.635,-38.0622 175.323,-28.9974"/>
<polygon fill="midnightblue" stroke="midnightblue" points="176.638,-25.7535 166.06,-25.143 173.948,-32.2163 176.638,-25.7535"/>
</g>
<!-- Node5 -->
<g id="node5" class="node"><title>Node5</title>
<polygon fill="white" stroke="#bfbfbf" points="448,-73 448,-92 577,-92 577,-73 448,-73"/>
<text text-anchor="middle" x="512.5" y="-80" font-family="Helvetica,sans-Serif" font-size="10.00">pcl_msgs/PolygonMesh.h</text>
</g>
<!-- Node1&#45;&gt;Node5 -->
<g id="edge4" class="edge"><title>Node1&#45;&gt;Node5</title>
<path fill="none" stroke="midnightblue" d="M401.315,-134.404C429.12,-121.674 461.714,-106.751 484.394,-96.3677"/>
<polygon fill="midnightblue" stroke="midnightblue" points="486.129,-99.4231 493.764,-92.0779 483.215,-93.0584 486.129,-99.4231"/>
</g>
<!-- Node6 -->
<g id="node6" class="node"><title>Node6</title>
<polygon fill="white" stroke="#bfbfbf" points="232,-0.5 232,-30.5 335,-30.5 335,-0.5 232,-0.5"/>
<text text-anchor="start" x="240" y="-18.5" font-family="Helvetica,sans-Serif" font-size="10.00">pcl_conversions/pcl</text>
<text text-anchor="middle" x="283.5" y="-7.5" font-family="Helvetica,sans-Serif" font-size="10.00">_conversions.h</text>
</g>
<!-- Node1&#45;&gt;Node6 -->
<g id="edge5" class="edge"><title>Node1&#45;&gt;Node6</title>
<path fill="none" stroke="midnightblue" d="M335.382,-134.264C323.656,-107.649 305.328,-66.0459 293.886,-40.0756"/>
<polygon fill="midnightblue" stroke="midnightblue" points="296.96,-38.3716 289.726,-30.6315 290.555,-41.1938 296.96,-38.3716"/>
</g>
<!-- Node7 -->
<g id="node7" class="node"><title>Node7</title>
<polygon fill="white" stroke="#bfbfbf" points="595,-73 595,-92 748,-92 748,-73 595,-73"/>
<text text-anchor="middle" x="671.5" y="-80" font-family="Helvetica,sans-Serif" font-size="10.00">hull_abstraction/reconstructor.h</text>
</g>
<!-- Node1&#45;&gt;Node7 -->
<g id="edge6" class="edge"><title>Node1&#45;&gt;Node7</title>
<path fill="none" stroke="midnightblue" d="M413.84,-143.753C477.027,-128.977 569.852,-107.27 625.131,-94.3433"/>
<polygon fill="midnightblue" stroke="midnightblue" points="626.06,-97.7205 635,-92.0354 624.466,-90.9044 626.06,-97.7205"/>
</g>
<!-- Node8 -->
<g id="node8" class="node"><title>Node8</title>
<polygon fill="white" stroke="#bfbfbf" points="766.5,-73 766.5,-92 918.5,-92 918.5,-73 766.5,-73"/>
<text text-anchor="middle" x="842.5" y="-80" font-family="Helvetica,sans-Serif" font-size="10.00">hull_abstraction/preprocessor.h</text>
</g>
<!-- Node1&#45;&gt;Node8 -->
<g id="edge7" class="edge"><title>Node1&#45;&gt;Node8</title>
<path fill="none" stroke="midnightblue" d="M413.842,-149.854C495.303,-138.086 636.568,-117.361 757.5,-98 765.893,-96.6563 774.745,-95.1953 783.439,-93.7352"/>
<polygon fill="midnightblue" stroke="midnightblue" points="784.258,-97.1464 793.535,-92.0286 783.092,-90.2443 784.258,-97.1464"/>
</g>
<!-- Node9 -->
<g id="node9" class="node"><title>Node9</title>
<g id="a_node9"><a xlink:href="pcl__utilization_8h.html" target="_top" xlink:title="This file contains the declaration of PCL utilization methods. ">
<polygon fill="white" stroke="black" points="337.5,-67.5 337.5,-97.5 429.5,-97.5 429.5,-67.5 337.5,-67.5"/>
<text text-anchor="start" x="345.5" y="-85.5" font-family="Helvetica,sans-Serif" font-size="10.00">pcl_utilization/pcl</text>
<text text-anchor="middle" x="383.5" y="-74.5" font-family="Helvetica,sans-Serif" font-size="10.00">_utilization.h</text>
</a>
</g>
</g>
<!-- Node1&#45;&gt;Node9 -->
<g id="edge8" class="edge"><title>Node1&#45;&gt;Node9</title>
<path fill="none" stroke="midnightblue" d="M358.82,-134.193C363.097,-125.409 367.872,-115.602 372.073,-106.972"/>
<polygon fill="midnightblue" stroke="midnightblue" points="375.286,-108.368 376.516,-97.8453 368.992,-105.304 375.286,-108.368"/>
</g>
<!-- Node9&#45;&gt;Node3 -->
<g id="edge9" class="edge"><title>Node9&#45;&gt;Node3</title>
<path fill="none" stroke="midnightblue" d="M337.414,-77.3667C274.799,-71.0383 159.735,-56.8707 64.5,-31 61.9055,-30.2952 59.2435,-29.469 56.5947,-28.5746"/>
<polygon fill="midnightblue" stroke="midnightblue" points="57.7974,-25.2878 47.2037,-25.1325 55.3884,-31.8603 57.7974,-25.2878"/>
</g>
<!-- Node9&#45;&gt;Node4 -->
<g id="edge10" class="edge"><title>Node9&#45;&gt;Node4</title>
<path fill="none" stroke="midnightblue" d="M337.226,-68.9673C293.089,-57.0138 227.228,-39.1764 184.817,-27.6899"/>
<polygon fill="midnightblue" stroke="midnightblue" points="185.659,-24.292 175.092,-25.0561 183.829,-31.0486 185.659,-24.292"/>
</g>
<!-- Node9&#45;&gt;Node6 -->
<g id="edge13" class="edge"><title>Node9&#45;&gt;Node6</title>
<path fill="none" stroke="midnightblue" d="M361.801,-67.396C347.78,-58.282 329.331,-46.2902 313.863,-36.236"/>
<polygon fill="midnightblue" stroke="midnightblue" points="315.448,-33.0919 305.156,-30.5765 311.633,-38.961 315.448,-33.0919"/>
</g>
<!-- Node10 -->
<g id="node10" class="node"><title>Node10</title>
<polygon fill="white" stroke="#bfbfbf" points="736.5,-0.5 736.5,-30.5 836.5,-30.5 836.5,-0.5 736.5,-0.5"/>
<text text-anchor="start" x="744.5" y="-18.5" font-family="Helvetica,sans-Serif" font-size="10.00">visualization_msgs</text>
<text text-anchor="middle" x="786.5" y="-7.5" font-family="Helvetica,sans-Serif" font-size="10.00">/Marker.h</text>
</g>
<!-- Node9&#45;&gt;Node10 -->
<g id="edge11" class="edge"><title>Node9&#45;&gt;Node10</title>
<path fill="none" stroke="midnightblue" d="M429.538,-69.0771C432.898,-68.3249 436.245,-67.6222 439.5,-67 562.985,-43.3973 598.841,-53.8645 726.228,-31.0897"/>
<polygon fill="midnightblue" stroke="midnightblue" points="727.164,-34.477 736.374,-29.2409 725.909,-27.5905 727.164,-34.477"/>
</g>
<!-- Node11 -->
<g id="node11" class="node"><title>Node11</title>
<polygon fill="white" stroke="#bfbfbf" points="855,-6 855,-25 920,-25 920,-6 855,-6"/>
<text text-anchor="middle" x="887.5" y="-13" font-family="Helvetica,sans-Serif" font-size="10.00">Eigen/Core</text>
</g>
<!-- Node9&#45;&gt;Node11 -->
<g id="edge12" class="edge"><title>Node9&#45;&gt;Node11</title>
<path fill="none" stroke="midnightblue" d="M429.514,-68.9438C432.88,-68.2229 436.234,-67.5636 439.5,-67 618.013,-36.1913 668.344,-68.8396 845.5,-31 849.001,-30.2522 852.613,-29.2991 856.18,-28.2396"/>
<polygon fill="midnightblue" stroke="midnightblue" points="857.558,-31.4722 865.987,-25.0544 855.395,-24.8145 857.558,-31.4722"/>
</g>
<!-- Node12 -->
<g id="node12" class="node"><title>Node12</title>
<polygon fill="white" stroke="#bfbfbf" points="938,-6 938,-25 1029,-25 1029,-6 938,-6"/>
<text text-anchor="middle" x="983.5" y="-13" font-family="Helvetica,sans-Serif" font-size="10.00">pcl/point_types.h</text>
</g>
<!-- Node9&#45;&gt;Node12 -->
<g id="edge14" class="edge"><title>Node9&#45;&gt;Node12</title>
<path fill="none" stroke="midnightblue" d="M429.504,-68.8876C432.872,-68.1799 436.23,-67.539 439.5,-67 654.958,-31.4883 714.204,-67.4772 929.5,-31 934.884,-30.0879 940.508,-28.8765 946.009,-27.5415"/>
<polygon fill="midnightblue" stroke="midnightblue" points="946.886,-30.9297 955.695,-25.0428 945.138,-24.1516 946.886,-30.9297"/>
</g>
<!-- Node13 -->
<g id="node13" class="node"><title>Node13</title>
<polygon fill="white" stroke="#bfbfbf" points="353,-6 353,-25 466,-25 466,-6 353,-6"/>
<text text-anchor="middle" x="409.5" y="-13" font-family="Helvetica,sans-Serif" font-size="10.00">pcl/PCLPointCloud2.h</text>
</g>
<!-- Node9&#45;&gt;Node13 -->
<g id="edge15" class="edge"><title>Node9&#45;&gt;Node13</title>
<path fill="none" stroke="midnightblue" d="M389.142,-67.396C392.995,-57.7628 398.134,-44.9145 402.285,-34.5373"/>
<polygon fill="midnightblue" stroke="midnightblue" points="405.558,-35.7792 406.022,-25.1945 399.059,-33.1794 405.558,-35.7792"/>
</g>
<!-- Node14 -->
<g id="node14" class="node"><title>Node14</title>
<polygon fill="white" stroke="#bfbfbf" points="484.5,-6 484.5,-25 600.5,-25 600.5,-6 484.5,-6"/>
<text text-anchor="middle" x="542.5" y="-13" font-family="Helvetica,sans-Serif" font-size="10.00">pcl/common/centroid.h</text>
</g>
<!-- Node9&#45;&gt;Node14 -->
<g id="edge16" class="edge"><title>Node9&#45;&gt;Node14</title>
<path fill="none" stroke="midnightblue" d="M418.001,-67.396C446.146,-55.8901 485.511,-39.7974 512.395,-28.8072"/>
<polygon fill="midnightblue" stroke="midnightblue" points="513.759,-32.0309 521.691,-25.007 511.11,-25.5514 513.759,-32.0309"/>
</g>
<!-- Node15 -->
<g id="node15" class="node"><title>Node15</title>
<polygon fill="white" stroke="#bfbfbf" points="618.5,-6 618.5,-25 718.5,-25 718.5,-6 618.5,-6"/>
<text text-anchor="middle" x="668.5" y="-13" font-family="Helvetica,sans-Serif" font-size="10.00">pcl/search/kdtree.h</text>
</g>
<!-- Node9&#45;&gt;Node15 -->
<g id="edge17" class="edge"><title>Node9&#45;&gt;Node15</title>
<path fill="none" stroke="midnightblue" d="M429.604,-69.3882C432.949,-68.563 436.274,-67.7588 439.5,-67 514.679,-49.3161 534.213,-48.2183 609.5,-31 614.45,-29.8679 619.625,-28.6489 624.765,-27.4156"/>
<polygon fill="midnightblue" stroke="midnightblue" points="625.644,-30.8038 634.538,-25.0455 623.994,-24.001 625.644,-30.8038"/>
</g>
</g>
</svg>
