<?xml version="1.0" encoding="UTF-8" standalone="no"?>
<!DOCTYPE svg PUBLIC "-//W3C//DTD SVG 1.1//EN"
 "http://www.w3.org/Graphics/SVG/1.1/DTD/svg11.dtd">
<!-- Generated by graphviz version 2.38.0 (20140413.2041)
 -->
<!-- Title: /home/jc/THESIS/hull_abstraction/benchmark/include/benchmark/math_computing.h Pages: 1 -->
<svg width="687pt" height="128pt"
 viewBox="0.00 0.00 686.50 128.00" xmlns="http://www.w3.org/2000/svg" xmlns:xlink="http://www.w3.org/1999/xlink">
<g id="graph0" class="graph" transform="scale(1 1) rotate(0) translate(4 124)">
<title>/home/jc/THESIS/hull_abstraction/benchmark/include/benchmark/math_computing.h</title>
<polygon fill="white" stroke="none" points="-4,4 -4,-124 682.5,-124 682.5,4 -4,4"/>
<!-- Node1 -->
<g id="node1" class="node"><title>Node1</title>
<polygon fill="#bfbfbf" stroke="black" points="176.5,-67.5 176.5,-119.5 302.5,-119.5 302.5,-67.5 176.5,-67.5"/>
<text text-anchor="start" x="184.5" y="-107.5" font-family="Helvetica,sans-Serif" font-size="10.00">/home/jc/THESIS/hull</text>
<text text-anchor="start" x="184.5" y="-96.5" font-family="Helvetica,sans-Serif" font-size="10.00">_abstraction/benchmark</text>
<text text-anchor="start" x="184.5" y="-85.5" font-family="Helvetica,sans-Serif" font-size="10.00">/include/benchmark/math</text>
<text text-anchor="middle" x="239.5" y="-74.5" font-family="Helvetica,sans-Serif" font-size="10.00">_computing.h</text>
</g>
<!-- Node2 -->
<g id="node2" class="node"><title>Node2</title>
<polygon fill="white" stroke="#bfbfbf" points="0,-6 0,-25 47,-25 47,-6 0,-6"/>
<text text-anchor="middle" x="23.5" y="-13" font-family="Helvetica,sans-Serif" font-size="10.00">math.h</text>
</g>
<!-- Node1&#45;&gt;Node2 -->
<g id="edge1" class="edge"><title>Node1&#45;&gt;Node2</title>
<path fill="none" stroke="midnightblue" d="M176.326,-72.8164C140.834,-61.3725 95.8871,-46.2362 56.5,-31 54.895,-30.3791 53.254,-29.7243 51.6033,-29.0501"/>
<polygon fill="midnightblue" stroke="midnightblue" points="52.7986,-25.7553 42.2256,-25.0759 50.0672,-32.2005 52.7986,-25.7553"/>
</g>
<!-- Node3 -->
<g id="node3" class="node"><title>Node3</title>
<polygon fill="white" stroke="#bfbfbf" points="65.5,-6 65.5,-25 109.5,-25 109.5,-6 65.5,-6"/>
<text text-anchor="middle" x="87.5" y="-13" font-family="Helvetica,sans-Serif" font-size="10.00">time.h</text>
</g>
<!-- Node1&#45;&gt;Node3 -->
<g id="edge2" class="edge"><title>Node1&#45;&gt;Node3</title>
<path fill="none" stroke="midnightblue" d="M189.308,-67.4041C164.076,-54.7882 134.538,-40.0189 113.796,-29.6482"/>
<polygon fill="midnightblue" stroke="midnightblue" points="115.165,-26.4196 104.656,-25.0779 112.035,-32.6806 115.165,-26.4196"/>
</g>
<!-- Node4 -->
<g id="node4" class="node"><title>Node4</title>
<polygon fill="white" stroke="#bfbfbf" points="127.5,-6 127.5,-25 175.5,-25 175.5,-6 127.5,-6"/>
<text text-anchor="middle" x="151.5" y="-13" font-family="Helvetica,sans-Serif" font-size="10.00">stdlib.h</text>
</g>
<!-- Node1&#45;&gt;Node4 -->
<g id="edge3" class="edge"><title>Node1&#45;&gt;Node4</title>
<path fill="none" stroke="midnightblue" d="M210.197,-67.1931C196.679,-55.5182 181.069,-42.0372 169.347,-31.9134"/>
<polygon fill="midnightblue" stroke="midnightblue" points="171.44,-29.0962 161.584,-25.2089 166.865,-34.394 171.44,-29.0962"/>
</g>
<!-- Node5 -->
<g id="node5" class="node"><title>Node5</title>
<polygon fill="white" stroke="#bfbfbf" points="194,-6 194,-25 285,-25 285,-6 194,-6"/>
<text text-anchor="middle" x="239.5" y="-13" font-family="Helvetica,sans-Serif" font-size="10.00">pcl/point_types.h</text>
</g>
<!-- Node1&#45;&gt;Node5 -->
<g id="edge4" class="edge"><title>Node1&#45;&gt;Node5</title>
<path fill="none" stroke="midnightblue" d="M239.5,-67.1931C239.5,-56.765 239.5,-44.8961 239.5,-35.2656"/>
<polygon fill="midnightblue" stroke="midnightblue" points="243,-35.2089 239.5,-25.2089 236,-35.2089 243,-35.2089"/>
</g>
<!-- Node6 -->
<g id="node6" class="node"><title>Node6</title>
<polygon fill="white" stroke="#bfbfbf" points="303,-6 303,-25 416,-25 416,-6 303,-6"/>
<text text-anchor="middle" x="359.5" y="-13" font-family="Helvetica,sans-Serif" font-size="10.00">pcl/PCLPointCloud2.h</text>
</g>
<!-- Node1&#45;&gt;Node6 -->
<g id="edge5" class="edge"><title>Node1&#45;&gt;Node6</title>
<path fill="none" stroke="midnightblue" d="M279.125,-67.4041C298.414,-55.1878 320.891,-40.9524 337.163,-30.6467"/>
<polygon fill="midnightblue" stroke="midnightblue" points="339.38,-33.3853 345.956,-25.0779 335.635,-27.4716 339.38,-33.3853"/>
</g>
<!-- Node7 -->
<g id="node7" class="node"><title>Node7</title>
<polygon fill="white" stroke="#bfbfbf" points="434.5,-6 434.5,-25 558.5,-25 558.5,-6 434.5,-6"/>
<text text-anchor="middle" x="496.5" y="-13" font-family="Helvetica,sans-Serif" font-size="10.00">pcl/features/normal_3d.h</text>
</g>
<!-- Node1&#45;&gt;Node7 -->
<g id="edge6" class="edge"><title>Node1&#45;&gt;Node7</title>
<path fill="none" stroke="midnightblue" d="M302.698,-73.811C351.304,-59.4375 416.886,-40.0436 457.926,-27.907"/>
<polygon fill="midnightblue" stroke="midnightblue" points="458.957,-31.252 467.554,-25.0598 456.972,-24.5393 458.957,-31.252"/>
</g>
<!-- Node8 -->
<g id="node8" class="node"><title>Node8</title>
<polygon fill="white" stroke="#bfbfbf" points="576.5,-0.5 576.5,-30.5 678.5,-30.5 678.5,-0.5 576.5,-0.5"/>
<text text-anchor="start" x="584.5" y="-18.5" font-family="Helvetica,sans-Serif" font-size="10.00">pcl/visualization/pcl</text>
<text text-anchor="middle" x="627.5" y="-7.5" font-family="Helvetica,sans-Serif" font-size="10.00">_visualizer.h</text>
</g>
<!-- Node1&#45;&gt;Node8 -->
<g id="edge7" class="edge"><title>Node1&#45;&gt;Node8</title>
<path fill="none" stroke="midnightblue" d="M302.573,-81.6735C366.56,-70.4644 468.67,-51.9585 566.424,-31.1702"/>
<polygon fill="midnightblue" stroke="midnightblue" points="567.431,-34.534 576.478,-29.0205 565.967,-27.6887 567.431,-34.534"/>
</g>
</g>
</svg>
