<?xml version="1.0" encoding="UTF-8" standalone="no"?>
<!DOCTYPE svg PUBLIC "-//W3C//DTD SVG 1.1//EN"
 "http://www.w3.org/Graphics/SVG/1.1/DTD/svg11.dtd">
<!-- Generated by graphviz version 2.38.0 (20140413.2041)
 -->
<!-- Title: /home/jc/THESIS/hull_abstraction/benchmark/include/benchmark/math_computing.h Pages: 1 -->
<svg width="651pt" height="239pt"
 viewBox="0.00 0.00 651.00 239.00" xmlns="http://www.w3.org/2000/svg" xmlns:xlink="http://www.w3.org/1999/xlink">
<g id="graph0" class="graph" transform="scale(1 1) rotate(0) translate(4 235)">
<title>/home/jc/THESIS/hull_abstraction/benchmark/include/benchmark/math_computing.h</title>
<polygon fill="white" stroke="none" points="-4,4 -4,-235 647,-235 647,4 -4,4"/>
<!-- Node1 -->
<g id="node1" class="node"><title>Node1</title>
<polygon fill="#bfbfbf" stroke="black" points="322,-178.5 322,-230.5 448,-230.5 448,-178.5 322,-178.5"/>
<text text-anchor="start" x="330" y="-218.5" font-family="Helvetica,sans-Serif" font-size="10.00">/home/jc/THESIS/hull</text>
<text text-anchor="start" x="330" y="-207.5" font-family="Helvetica,sans-Serif" font-size="10.00">_abstraction/benchmark</text>
<text text-anchor="start" x="330" y="-196.5" font-family="Helvetica,sans-Serif" font-size="10.00">/include/benchmark/math</text>
<text text-anchor="middle" x="385" y="-185.5" font-family="Helvetica,sans-Serif" font-size="10.00">_computing.h</text>
</g>
<!-- Node2 -->
<g id="node2" class="node"><title>Node2</title>
<g id="a_node2"><a xlink:href="benchmark_8h.html" target="_top" xlink:title="This file contains the declaration of the Benchmark class. ">
<polygon fill="white" stroke="black" points="143.5,-95 143.5,-136 304.5,-136 304.5,-95 143.5,-95"/>
<text text-anchor="start" x="151.5" y="-124" font-family="Helvetica,sans-Serif" font-size="10.00">/home/jc/THESIS/hull</text>
<text text-anchor="start" x="151.5" y="-113" font-family="Helvetica,sans-Serif" font-size="10.00">_abstraction/benchmark</text>
<text text-anchor="middle" x="224" y="-102" font-family="Helvetica,sans-Serif" font-size="10.00">/include/benchmark/benchmark.h</text>
</a>
</g>
</g>
<!-- Node1&#45;&gt;Node2 -->
<g id="edge1" class="edge"><title>Node1&#45;&gt;Node2</title>
<path fill="none" stroke="midnightblue" d="M329.484,-173.501C306.565,-161.116 280.648,-147.111 260.238,-136.082"/>
<polygon fill="midnightblue" stroke="midnightblue" points="327.971,-176.661 338.432,-178.336 331.298,-170.503 327.971,-176.661"/>
</g>
<!-- Node5 -->
<g id="node5" class="node"><title>Node5</title>
<g id="a_node5"><a xlink:href="point__generator_8h.html" target="_top" xlink:title="This file contains the declarations of the PointGenerator class. ">
<polygon fill="white" stroke="black" points="322.5,-89.5 322.5,-141.5 447.5,-141.5 447.5,-89.5 322.5,-89.5"/>
<text text-anchor="start" x="330.5" y="-129.5" font-family="Helvetica,sans-Serif" font-size="10.00">/home/jc/THESIS/hull</text>
<text text-anchor="start" x="330.5" y="-118.5" font-family="Helvetica,sans-Serif" font-size="10.00">_abstraction/benchmark</text>
<text text-anchor="start" x="330.5" y="-107.5" font-family="Helvetica,sans-Serif" font-size="10.00">/include/point_generation</text>
<text text-anchor="middle" x="385" y="-96.5" font-family="Helvetica,sans-Serif" font-size="10.00">/point_generator.h</text>
</a>
</g>
</g>
<!-- Node1&#45;&gt;Node5 -->
<g id="edge4" class="edge"><title>Node1&#45;&gt;Node5</title>
<path fill="none" stroke="midnightblue" d="M385,-168.191C385,-159.282 385,-149.899 385,-141.607"/>
<polygon fill="midnightblue" stroke="midnightblue" points="381.5,-168.336 385,-178.336 388.5,-168.336 381.5,-168.336"/>
</g>
<!-- Node7 -->
<g id="node7" class="node"><title>Node7</title>
<g id="a_node7"><a xlink:href="math__computing_8cpp.html" target="_top" xlink:title="/home/jc/THESIS/hull\l_abstraction/benchmark\l/src/benchmark/math_computing.cpp">
<polygon fill="white" stroke="black" points="465,-95 465,-136 643,-136 643,-95 465,-95"/>
<text text-anchor="start" x="473" y="-124" font-family="Helvetica,sans-Serif" font-size="10.00">/home/jc/THESIS/hull</text>
<text text-anchor="start" x="473" y="-113" font-family="Helvetica,sans-Serif" font-size="10.00">_abstraction/benchmark</text>
<text text-anchor="middle" x="554" y="-102" font-family="Helvetica,sans-Serif" font-size="10.00">/src/benchmark/math_computing.cpp</text>
</a>
</g>
</g>
<!-- Node1&#45;&gt;Node7 -->
<g id="edge6" class="edge"><title>Node1&#45;&gt;Node7</title>
<path fill="none" stroke="midnightblue" d="M442.956,-173.665C467.091,-161.24 494.443,-147.16 515.961,-136.082"/>
<polygon fill="midnightblue" stroke="midnightblue" points="441.171,-170.647 433.882,-178.336 444.375,-176.871 441.171,-170.647"/>
</g>
<!-- Node3 -->
<g id="node3" class="node"><title>Node3</title>
<g id="a_node3"><a xlink:href="benchmark_8cpp.html" target="_top" xlink:title="/home/jc/THESIS/hull\l_abstraction/benchmark\l/src/benchmark/benchmark.cpp">
<polygon fill="white" stroke="black" points="0,-6 0,-47 154,-47 154,-6 0,-6"/>
<text text-anchor="start" x="8" y="-35" font-family="Helvetica,sans-Serif" font-size="10.00">/home/jc/THESIS/hull</text>
<text text-anchor="start" x="8" y="-24" font-family="Helvetica,sans-Serif" font-size="10.00">_abstraction/benchmark</text>
<text text-anchor="middle" x="77" y="-13" font-family="Helvetica,sans-Serif" font-size="10.00">/src/benchmark/benchmark.cpp</text>
</a>
</g>
</g>
<!-- Node2&#45;&gt;Node3 -->
<g id="edge2" class="edge"><title>Node2&#45;&gt;Node3</title>
<path fill="none" stroke="midnightblue" d="M182.207,-89.7655C159.362,-76.2449 131.461,-59.7321 110.134,-47.1097"/>
<polygon fill="midnightblue" stroke="midnightblue" points="180.622,-92.8943 191.01,-94.9755 184.187,-86.8702 180.622,-92.8943"/>
</g>
<!-- Node4 -->
<g id="node4" class="node"><title>Node4</title>
<g id="a_node4"><a xlink:href="main_8cpp.html" target="_top" xlink:title="/home/jc/THESIS/hull\l_abstraction/benchmark\l/src/main.cpp">
<polygon fill="white" stroke="black" points="172.5,-6 172.5,-47 293.5,-47 293.5,-6 172.5,-6"/>
<text text-anchor="start" x="180.5" y="-35" font-family="Helvetica,sans-Serif" font-size="10.00">/home/jc/THESIS/hull</text>
<text text-anchor="start" x="180.5" y="-24" font-family="Helvetica,sans-Serif" font-size="10.00">_abstraction/benchmark</text>
<text text-anchor="middle" x="233" y="-13" font-family="Helvetica,sans-Serif" font-size="10.00">/src/main.cpp</text>
</a>
</g>
</g>
<!-- Node2&#45;&gt;Node4 -->
<g id="edge3" class="edge"><title>Node2&#45;&gt;Node4</title>
<path fill="none" stroke="midnightblue" d="M227.11,-84.4407C228.386,-72.1014 229.828,-58.1619 230.966,-47.1635"/>
<polygon fill="midnightblue" stroke="midnightblue" points="223.59,-84.4513 226.042,-94.7584 230.553,-85.1716 223.59,-84.4513"/>
</g>
<!-- Node6 -->
<g id="node6" class="node"><title>Node6</title>
<g id="a_node6"><a xlink:href="point__generator_8cpp.html" target="_top" xlink:title="/home/jc/THESIS/hull\l_abstraction/benchmark\l/src/point_generation/point\l_generator.cpp">
<polygon fill="white" stroke="black" points="319.5,-0.5 319.5,-52.5 450.5,-52.5 450.5,-0.5 319.5,-0.5"/>
<text text-anchor="start" x="327.5" y="-40.5" font-family="Helvetica,sans-Serif" font-size="10.00">/home/jc/THESIS/hull</text>
<text text-anchor="start" x="327.5" y="-29.5" font-family="Helvetica,sans-Serif" font-size="10.00">_abstraction/benchmark</text>
<text text-anchor="start" x="327.5" y="-18.5" font-family="Helvetica,sans-Serif" font-size="10.00">/src/point_generation/point</text>
<text text-anchor="middle" x="385" y="-7.5" font-family="Helvetica,sans-Serif" font-size="10.00">_generator.cpp</text>
</a>
</g>
</g>
<!-- Node5&#45;&gt;Node6 -->
<g id="edge5" class="edge"><title>Node5&#45;&gt;Node6</title>
<path fill="none" stroke="midnightblue" d="M385,-79.1908C385,-70.2824 385,-60.8986 385,-52.6075"/>
<polygon fill="midnightblue" stroke="midnightblue" points="381.5,-79.336 385,-89.336 388.5,-79.336 381.5,-79.336"/>
</g>
</g>
</svg>
