<?xml version="1.0" encoding="UTF-8" standalone="no"?>
<!DOCTYPE svg PUBLIC "-//W3C//DTD SVG 1.1//EN"
 "http://www.w3.org/Graphics/SVG/1.1/DTD/svg11.dtd">
<!-- Generated by graphviz version 2.38.0 (20140413.2041)
 -->
<!-- Title: /home/jc/THESIS/hull_abstraction/ros/src/hull_abstraction/src/moving_least_squares_node/moving_least_squares.h Pages: 1 -->
<svg width="586pt" height="139pt"
 viewBox="0.00 0.00 586.00 139.00" xmlns="http://www.w3.org/2000/svg" xmlns:xlink="http://www.w3.org/1999/xlink">
<g id="graph0" class="graph" transform="scale(1 1) rotate(0) translate(4 135)">
<title>/home/jc/THESIS/hull_abstraction/ros/src/hull_abstraction/src/moving_least_squares_node/moving_least_squares.h</title>
<polygon fill="white" stroke="none" points="-4,4 -4,-135 582,-135 582,4 -4,4"/>
<!-- Node1 -->
<g id="node1" class="node"><title>Node1</title>
<polygon fill="#bfbfbf" stroke="black" points="144.5,-67.5 144.5,-130.5 287.5,-130.5 287.5,-67.5 144.5,-67.5"/>
<text text-anchor="start" x="152.5" y="-118.5" font-family="Helvetica,sans-Serif" font-size="10.00">/home/jc/THESIS/hull</text>
<text text-anchor="start" x="152.5" y="-107.5" font-family="Helvetica,sans-Serif" font-size="10.00">_abstraction/ros/src</text>
<text text-anchor="start" x="152.5" y="-96.5" font-family="Helvetica,sans-Serif" font-size="10.00">/hull_abstraction/src</text>
<text text-anchor="start" x="152.5" y="-85.5" font-family="Helvetica,sans-Serif" font-size="10.00">/moving_least_squares_node</text>
<text text-anchor="middle" x="216" y="-74.5" font-family="Helvetica,sans-Serif" font-size="10.00">/moving_least_squares.h</text>
</g>
<!-- Node2 -->
<g id="node2" class="node"><title>Node2</title>
<polygon fill="white" stroke="#bfbfbf" points="0,-6 0,-25 54,-25 54,-6 0,-6"/>
<text text-anchor="middle" x="27" y="-13" font-family="Helvetica,sans-Serif" font-size="10.00">iostream</text>
</g>
<!-- Node1&#45;&gt;Node2 -->
<g id="edge1" class="edge"><title>Node1&#45;&gt;Node2</title>
<path fill="none" stroke="midnightblue" d="M145.086,-67.4205C114.291,-54.1412 79.9257,-39.3224 56.2446,-29.1108"/>
<polygon fill="midnightblue" stroke="midnightblue" points="57.3599,-25.7802 46.7913,-25.0343 54.588,-32.208 57.3599,-25.7802"/>
</g>
<!-- Node3 -->
<g id="node3" class="node"><title>Node3</title>
<polygon fill="white" stroke="#bfbfbf" points="72.5,-6 72.5,-25 127.5,-25 127.5,-6 72.5,-6"/>
<text text-anchor="middle" x="100" y="-13" font-family="Helvetica,sans-Serif" font-size="10.00">ros/ros.h</text>
</g>
<!-- Node1&#45;&gt;Node3 -->
<g id="edge2" class="edge"><title>Node1&#45;&gt;Node3</title>
<path fill="none" stroke="midnightblue" d="M172.476,-67.4205C154.588,-54.8526 134.737,-40.9057 120.34,-30.7907"/>
<polygon fill="midnightblue" stroke="midnightblue" points="122.342,-27.9194 112.147,-25.0343 118.317,-33.647 122.342,-27.9194"/>
</g>
<!-- Node4 -->
<g id="node4" class="node"><title>Node4</title>
<polygon fill="white" stroke="#bfbfbf" points="146,-6 146,-25 286,-25 286,-6 146,-6"/>
<text text-anchor="middle" x="216" y="-13" font-family="Helvetica,sans-Serif" font-size="10.00">sensor_msgs/PointCloud2.h</text>
</g>
<!-- Node1&#45;&gt;Node4 -->
<g id="edge3" class="edge"><title>Node1&#45;&gt;Node4</title>
<path fill="none" stroke="midnightblue" d="M216,-67.1883C216,-56.5488 216,-44.9466 216,-35.5304"/>
<polygon fill="midnightblue" stroke="midnightblue" points="219.5,-35.3406 216,-25.3406 212.5,-35.3406 219.5,-35.3406"/>
</g>
<!-- Node5 -->
<g id="node5" class="node"><title>Node5</title>
<polygon fill="white" stroke="#bfbfbf" points="304.5,-0.5 304.5,-30.5 407.5,-30.5 407.5,-0.5 304.5,-0.5"/>
<text text-anchor="start" x="312.5" y="-18.5" font-family="Helvetica,sans-Serif" font-size="10.00">pcl_conversions/pcl</text>
<text text-anchor="middle" x="356" y="-7.5" font-family="Helvetica,sans-Serif" font-size="10.00">_conversions.h</text>
</g>
<!-- Node1&#45;&gt;Node5 -->
<g id="edge4" class="edge"><title>Node1&#45;&gt;Node5</title>
<path fill="none" stroke="midnightblue" d="M268.529,-67.4205C286.69,-56.8484 306.527,-45.3006 322.711,-35.8787"/>
<polygon fill="midnightblue" stroke="midnightblue" points="324.897,-38.6561 331.779,-30.6003 321.376,-32.6066 324.897,-38.6561"/>
</g>
<!-- Node6 -->
<g id="node6" class="node"><title>Node6</title>
<polygon fill="white" stroke="#bfbfbf" points="426,-6 426,-25 578,-25 578,-6 426,-6"/>
<text text-anchor="middle" x="502" y="-13" font-family="Helvetica,sans-Serif" font-size="10.00">hull_abstraction/preprocessor.h</text>
</g>
<!-- Node1&#45;&gt;Node6 -->
<g id="edge5" class="edge"><title>Node1&#45;&gt;Node6</title>
<path fill="none" stroke="midnightblue" d="M287.801,-77.5393C343.026,-61.8019 417.273,-40.6443 462.275,-27.8203"/>
<polygon fill="midnightblue" stroke="midnightblue" points="463.305,-31.1663 471.962,-25.0596 461.386,-24.4343 463.305,-31.1663"/>
</g>
</g>
</svg>
