<?xml version="1.0" encoding="UTF-8" standalone="no"?>
<!DOCTYPE svg PUBLIC "-//W3C//DTD SVG 1.1//EN"
 "http://www.w3.org/Graphics/SVG/1.1/DTD/svg11.dtd">
<!-- Generated by graphviz version 2.38.0 (20140413.2041)
 -->
<!-- Title: /home/jc/hull_abstraction/ros/src/hull_abstraction/include/pcl_utilization/pcl_utilization.h Pages: 1 -->
<!--zoomable 417 -->
<svg id="main" version="1.1" xmlns="http://www.w3.org/2000/svg" xmlns:xlink="http://www.w3.org/1999/xlink" xml:space="preserve" onload="init(evt)">
<style type="text/css"><![CDATA[
.edge:hover path { stroke: red; }
.edge:hover polygon { stroke: red; fill: red; }
]]></style>
<script type="text/javascript"><![CDATA[
var edges = document.getElementsByTagName('g');
if (edges && edges.length) {
  for (var i=0;i<edges.length;i++) {
    if (edges[i].id.substr(0,4)=='edge') {
      edges[i].setAttribute('class','edge');
    }
  }
}
]]></script>
        <defs>
                <circle id="rim" cx="0" cy="0" r="7"/>
                <circle id="rim2" cx="0" cy="0" r="3.5"/>
                <g id="zoomPlus">
                        <use xlink:href="#rim" fill="#404040">
                                <set attributeName="fill" to="#808080" begin="zoomplus.mouseover" end="zoomplus.mouseout"/>
                        </use>
                        <path d="M-4,0h8M0,-4v8" fill="none" stroke="white" stroke-width="1.5" pointer-events="none"/>
                </g>
                <g id="zoomMin">
                        <use xlink:href="#rim" fill="#404040">
                                <set attributeName="fill" to="#808080" begin="zoomminus.mouseover" end="zoomminus.mouseout"/>
                        </use>
                        <path d="M-4,0h8" fill="none" stroke="white" stroke-width="1.5" pointer-events="none"/>
                </g>
                <g id="dirArrow">
                        <path fill="none" stroke="white" stroke-width="1.5" d="M0,-3.0v7 M-2.5,-0.5L0,-3.0L2.5,-0.5"/>
                </g>
               <g id="resetDef">
                       <use xlink:href="#rim2" fill="#404040">
                               <set attributeName="fill" to="#808080" begin="reset.mouseover" end="reset.mouseout"/>
                       </use>
               </g>
        </defs>

<script type="text/javascript">
var viewWidth = 1528;
var viewHeight = 417;
var sectionId = 'dynsection-1';
</script>
<script xlink:href="svgpan.js"/>
<svg id="graph" class="graph">
<g id="viewport">
<title>/home/jc/hull_abstraction/ros/src/hull_abstraction/include/pcl_utilization/pcl_utilization.h</title>
<polygon fill="white" stroke="none" points="-4,4 -4,-413 1524,-413 1524,4 -4,4"/>
<!-- Node1 -->
<g id="node1" class="node"><title>Node1</title>
<polygon fill="#bfbfbf" stroke="black" points="923.5,-356.5 923.5,-408.5 1048.5,-408.5 1048.5,-356.5 923.5,-356.5"/>
<text text-anchor="start" x="931.5" y="-396.5" font-family="Helvetica,sans-Serif" font-size="10.00">/home/jc/hull_abstraction</text>
<text text-anchor="start" x="931.5" y="-385.5" font-family="Helvetica,sans-Serif" font-size="10.00">/ros/src/hull_abstraction</text>
<text text-anchor="start" x="931.5" y="-374.5" font-family="Helvetica,sans-Serif" font-size="10.00">/include/pcl_utilization</text>
<text text-anchor="middle" x="986" y="-363.5" font-family="Helvetica,sans-Serif" font-size="10.00">/pcl_utilization.h</text>
</g>
<!-- Node2 -->
<g id="node2" class="node"><title>Node2</title>
<g id="a_node2"><a xlink:href="ros_2src_2hull__abstraction_2include_2hull__abstraction_2preprocessor_8h.html" target="_top" xlink:title="/home/jc/hull_abstraction\l/ros/src/hull_abstraction\l/include/hull_abstraction\l/preprocessor.h">
<polygon fill="white" stroke="black" points="703.5,-267.5 703.5,-319.5 828.5,-319.5 828.5,-267.5 703.5,-267.5"/>
<text text-anchor="start" x="711.5" y="-307.5" font-family="Helvetica,sans-Serif" font-size="10.00">/home/jc/hull_abstraction</text>
<text text-anchor="start" x="711.5" y="-296.5" font-family="Helvetica,sans-Serif" font-size="10.00">/ros/src/hull_abstraction</text>
<text text-anchor="start" x="711.5" y="-285.5" font-family="Helvetica,sans-Serif" font-size="10.00">/include/hull_abstraction</text>
<text text-anchor="middle" x="766" y="-274.5" font-family="Helvetica,sans-Serif" font-size="10.00">/preprocessor.h</text>
</a>
</g>
</g>
<!-- Node1&#45;&gt;Node2 -->
<g id="edge1" class="edge"><title>Node1&#45;&gt;Node2</title>
<path fill="none" stroke="midnightblue" d="M913.713,-352.914C886.292,-342.07 855.312,-329.819 828.832,-319.347"/>
<polygon fill="midnightblue" stroke="midnightblue" points="912.665,-356.263 923.251,-356.686 915.239,-349.753 912.665,-356.263"/>
</g>
<!-- Node8 -->
<g id="node8" class="node"><title>Node8</title>
<g id="a_node8"><a xlink:href="bspline__surface__fitting_8h.html" target="_top" xlink:title="Framework of b&#45;spline surface fitting node. ">
<polygon fill="white" stroke="black" points="1012,-89.5 1012,-141.5 1164,-141.5 1164,-89.5 1012,-89.5"/>
<text text-anchor="start" x="1020" y="-129.5" font-family="Helvetica,sans-Serif" font-size="10.00">/home/jc/hull_abstraction</text>
<text text-anchor="start" x="1020" y="-118.5" font-family="Helvetica,sans-Serif" font-size="10.00">/ros/src/hull_abstraction</text>
<text text-anchor="start" x="1020" y="-107.5" font-family="Helvetica,sans-Serif" font-size="10.00">/src/bspline_surface_fitting</text>
<text text-anchor="middle" x="1088" y="-96.5" font-family="Helvetica,sans-Serif" font-size="10.00">_node/bspline_surface_fitting.h</text>
</a>
</g>
</g>
<!-- Node1&#45;&gt;Node8 -->
<g id="edge24" class="edge"><title>Node1&#45;&gt;Node8</title>
<path fill="none" stroke="midnightblue" d="M1053.6,-351.736C1100.76,-326.921 1160.08,-286.628 1188,-231 1198.57,-209.948 1199.49,-198.561 1188,-178 1179.45,-162.7 1165.36,-150.739 1150.41,-141.601"/>
<polygon fill="midnightblue" stroke="midnightblue" points="1051.93,-348.655 1044.64,-356.34 1055.13,-354.881 1051.93,-348.655"/>
</g>
<!-- Node11 -->
<g id="node11" class="node"><title>Node11</title>
<g id="a_node11"><a xlink:href="greedy__triangulation_8h.html" target="_top" xlink:title="Framework of greedy triangulation node. ">
<polygon fill="white" stroke="black" points="83.5,-89.5 83.5,-141.5 224.5,-141.5 224.5,-89.5 83.5,-89.5"/>
<text text-anchor="start" x="91.5" y="-129.5" font-family="Helvetica,sans-Serif" font-size="10.00">/home/jc/hull_abstraction</text>
<text text-anchor="start" x="91.5" y="-118.5" font-family="Helvetica,sans-Serif" font-size="10.00">/ros/src/hull_abstraction</text>
<text text-anchor="start" x="91.5" y="-107.5" font-family="Helvetica,sans-Serif" font-size="10.00">/src/greedy_triangulation</text>
<text text-anchor="middle" x="154" y="-96.5" font-family="Helvetica,sans-Serif" font-size="10.00">_node/greedy_triangulation.h</text>
</a>
</g>
</g>
<!-- Node1&#45;&gt;Node11 -->
<g id="edge25" class="edge"><title>Node1&#45;&gt;Node11</title>
<path fill="none" stroke="midnightblue" d="M913.25,-376.669C783.526,-365.706 506.266,-331.533 297,-231 250.272,-208.551 205.075,-168.27 178.404,-141.966"/>
<polygon fill="midnightblue" stroke="midnightblue" points="913.207,-380.177 923.46,-377.509 913.781,-373.2 913.207,-380.177"/>
</g>
<!-- Node22 -->
<g id="node22" class="node"><title>Node22</title>
<g id="a_node22"><a xlink:href="pcl__utilization_8cpp.html" target="_top" xlink:title="/home/jc/hull_abstraction\l/ros/src/hull_abstraction\l/src/pcl_utilization/pcl\l_utilization.cpp">
<polygon fill="white" stroke="black" points="1235.5,-267.5 1235.5,-319.5 1360.5,-319.5 1360.5,-267.5 1235.5,-267.5"/>
<text text-anchor="start" x="1243.5" y="-307.5" font-family="Helvetica,sans-Serif" font-size="10.00">/home/jc/hull_abstraction</text>
<text text-anchor="start" x="1243.5" y="-296.5" font-family="Helvetica,sans-Serif" font-size="10.00">/ros/src/hull_abstraction</text>
<text text-anchor="start" x="1243.5" y="-285.5" font-family="Helvetica,sans-Serif" font-size="10.00">/src/pcl_utilization/pcl</text>
<text text-anchor="middle" x="1298" y="-274.5" font-family="Helvetica,sans-Serif" font-size="10.00">_utilization.cpp</text>
</a>
</g>
</g>
<!-- Node1&#45;&gt;Node22 -->
<g id="edge26" class="edge"><title>Node1&#45;&gt;Node22</title>
<path fill="none" stroke="midnightblue" d="M1058.36,-363.835C1104.99,-352.136 1166.83,-336.041 1221,-320 1225.73,-318.601 1230.6,-317.107 1235.49,-315.572"/>
<polygon fill="midnightblue" stroke="midnightblue" points="1057.5,-360.442 1048.64,-366.263 1059.19,-367.233 1057.5,-360.442"/>
</g>
<!-- Node3 -->
<g id="node3" class="node"><title>Node3</title>
<g id="a_node3"><a xlink:href="prototype_2include_2hull__abstraction_2reconstructor_8h.html" target="_top" xlink:title="/home/jc/hull_abstraction\l/prototype/include/hull\l_abstraction/reconstructor.h">
<polygon fill="white" stroke="black" points="875,-184 875,-225 1013,-225 1013,-184 875,-184"/>
<text text-anchor="start" x="883" y="-213" font-family="Helvetica,sans-Serif" font-size="10.00">/home/jc/hull_abstraction</text>
<text text-anchor="start" x="883" y="-202" font-family="Helvetica,sans-Serif" font-size="10.00">/prototype/include/hull</text>
<text text-anchor="middle" x="944" y="-191" font-family="Helvetica,sans-Serif" font-size="10.00">_abstraction/reconstructor.h</text>
</a>
</g>
</g>
<!-- Node2&#45;&gt;Node3 -->
<g id="edge2" class="edge"><title>Node2&#45;&gt;Node3</title>
<path fill="none" stroke="midnightblue" d="M826.706,-262.829C852.209,-250.364 881.171,-236.208 903.935,-225.082"/>
<polygon fill="midnightblue" stroke="midnightblue" points="824.932,-259.8 817.485,-267.336 828.006,-266.089 824.932,-259.8"/>
</g>
<!-- Node4 -->
<g id="node4" class="node"><title>Node4</title>
<g id="a_node4"><a xlink:href="prototype_2src_2hull__abstraction_2preprocessor_8cpp.html" target="_top" xlink:title="/home/jc/hull_abstraction\l/prototype/src/hull_abstraction\l/preprocessor.cpp">
<polygon fill="white" stroke="black" points="1031,-184 1031,-225 1179,-225 1179,-184 1031,-184"/>
<text text-anchor="start" x="1039" y="-213" font-family="Helvetica,sans-Serif" font-size="10.00">/home/jc/hull_abstraction</text>
<text text-anchor="start" x="1039" y="-202" font-family="Helvetica,sans-Serif" font-size="10.00">/prototype/src/hull_abstraction</text>
<text text-anchor="middle" x="1105" y="-191" font-family="Helvetica,sans-Serif" font-size="10.00">/preprocessor.cpp</text>
</a>
</g>
</g>
<!-- Node2&#45;&gt;Node4 -->
<g id="edge3" class="edge"><title>Node2&#45;&gt;Node4</title>
<path fill="none" stroke="midnightblue" d="M838.635,-276.32C890.051,-264.558 960.515,-247.813 1022,-231 1028.83,-229.131 1035.96,-227.089 1043.03,-225"/>
<polygon fill="midnightblue" stroke="midnightblue" points="837.586,-272.969 828.615,-278.605 839.142,-279.794 837.586,-272.969"/>
</g>
<!-- Node5 -->
<g id="node5" class="node"><title>Node5</title>
<g id="a_node5"><a xlink:href="main_8cpp.html" target="_top" xlink:title="/home/jc/hull_abstraction\l/prototype/src/main.cpp">
<polygon fill="white" stroke="black" points="783.5,-100.5 783.5,-130.5 908.5,-130.5 908.5,-100.5 783.5,-100.5"/>
<text text-anchor="start" x="791.5" y="-118.5" font-family="Helvetica,sans-Serif" font-size="10.00">/home/jc/hull_abstraction</text>
<text text-anchor="middle" x="846" y="-107.5" font-family="Helvetica,sans-Serif" font-size="10.00">/prototype/src/main.cpp</text>
</a>
</g>
</g>
<!-- Node2&#45;&gt;Node5 -->
<g id="edge4" class="edge"><title>Node2&#45;&gt;Node5</title>
<path fill="none" stroke="midnightblue" d="M694.964,-261.718C683.351,-253.461 672.882,-243.312 666,-231 654.507,-210.439 652.227,-197.109 666,-178 695.584,-136.954 726.151,-158.446 774,-142 784.66,-138.336 796.178,-134.294 806.81,-130.529"/>
<polygon fill="midnightblue" stroke="midnightblue" points="693.312,-264.821 703.588,-267.399 697.163,-258.975 693.312,-264.821"/>
</g>
<!-- Node6 -->
<g id="node6" class="node"><title>Node6</title>
<g id="a_node6"><a xlink:href="ros_2src_2hull__abstraction_2include_2hull__abstraction_2reconstructor_8h.html" target="_top" xlink:title="This file contains the declaration for the Reconstructor class. ">
<polygon fill="white" stroke="black" points="455.5,-178.5 455.5,-230.5 580.5,-230.5 580.5,-178.5 455.5,-178.5"/>
<text text-anchor="start" x="463.5" y="-218.5" font-family="Helvetica,sans-Serif" font-size="10.00">/home/jc/hull_abstraction</text>
<text text-anchor="start" x="463.5" y="-207.5" font-family="Helvetica,sans-Serif" font-size="10.00">/ros/src/hull_abstraction</text>
<text text-anchor="start" x="463.5" y="-196.5" font-family="Helvetica,sans-Serif" font-size="10.00">/include/hull_abstraction</text>
<text text-anchor="middle" x="518" y="-185.5" font-family="Helvetica,sans-Serif" font-size="10.00">/reconstructor.h</text>
</a>
</g>
</g>
<!-- Node2&#45;&gt;Node6 -->
<g id="edge5" class="edge"><title>Node2&#45;&gt;Node6</title>
<path fill="none" stroke="midnightblue" d="M693.975,-267.233C658.071,-254.638 615.069,-239.552 580.561,-227.447"/>
<polygon fill="midnightblue" stroke="midnightblue" points="692.824,-270.539 703.419,-270.546 695.142,-263.933 692.824,-270.539"/>
</g>
<!-- Node2&#45;&gt;Node11 -->
<g id="edge18" class="edge"><title>Node2&#45;&gt;Node11</title>
<path fill="none" stroke="midnightblue" d="M693.039,-282.391C627.588,-272.402 529.304,-255.116 446,-231 361.266,-206.471 266.842,-167.134 208.923,-141.554"/>
<polygon fill="midnightblue" stroke="midnightblue" points="692.844,-285.902 703.254,-283.932 693.888,-278.98 692.844,-285.902"/>
</g>
<!-- Node15 -->
<g id="node15" class="node"><title>Node15</title>
<g id="a_node15"><a xlink:href="poisson__reconstruction_8h.html" target="_top" xlink:title="Framework of Poisson reconstruction node. ">
<polygon fill="white" stroke="black" points="610.5,-89.5 610.5,-141.5 765.5,-141.5 765.5,-89.5 610.5,-89.5"/>
<text text-anchor="start" x="618.5" y="-129.5" font-family="Helvetica,sans-Serif" font-size="10.00">/home/jc/hull_abstraction</text>
<text text-anchor="start" x="618.5" y="-118.5" font-family="Helvetica,sans-Serif" font-size="10.00">/ros/src/hull_abstraction</text>
<text text-anchor="start" x="618.5" y="-107.5" font-family="Helvetica,sans-Serif" font-size="10.00">/src/poisson_reconstruction</text>
<text text-anchor="middle" x="688" y="-96.5" font-family="Helvetica,sans-Serif" font-size="10.00">_node/poisson_reconstruction.h</text>
</a>
</g>
</g>
<!-- Node2&#45;&gt;Node15 -->
<g id="edge23" class="edge"><title>Node2&#45;&gt;Node15</title>
<path fill="none" stroke="midnightblue" d="M693.737,-275.873C670.291,-266.684 646.79,-252.569 633,-231 620.312,-211.154 624.596,-200.005 633,-178 638.213,-164.351 648.003,-151.815 657.896,-141.673"/>
<polygon fill="midnightblue" stroke="midnightblue" points="692.805,-279.258 703.399,-279.396 695.203,-272.682 692.805,-279.258"/>
</g>
<!-- Node18 -->
<g id="node18" class="node"><title>Node18</title>
<g id="a_node18"><a xlink:href="ros_2src_2hull__abstraction_2src_2hull__abstraction_2preprocessor_8cpp.html" target="_top" xlink:title="/home/jc/hull_abstraction\l/ros/src/hull_abstraction\l/src/hull_abstraction/preprocessor.cpp">
<polygon fill="white" stroke="black" points="675,-184 675,-225 857,-225 857,-184 675,-184"/>
<text text-anchor="start" x="683" y="-213" font-family="Helvetica,sans-Serif" font-size="10.00">/home/jc/hull_abstraction</text>
<text text-anchor="start" x="683" y="-202" font-family="Helvetica,sans-Serif" font-size="10.00">/ros/src/hull_abstraction</text>
<text text-anchor="middle" x="766" y="-191" font-family="Helvetica,sans-Serif" font-size="10.00">/src/hull_abstraction/preprocessor.cpp</text>
</a>
</g>
</g>
<!-- Node2&#45;&gt;Node18 -->
<g id="edge19" class="edge"><title>Node2&#45;&gt;Node18</title>
<path fill="none" stroke="midnightblue" d="M766,-257.155C766,-246.21 766,-234.549 766,-225.082"/>
<polygon fill="midnightblue" stroke="midnightblue" points="762.5,-257.336 766,-267.336 769.5,-257.336 762.5,-257.336"/>
</g>
<!-- Node19 -->
<g id="node19" class="node"><title>Node19</title>
<g id="a_node19"><a xlink:href="moving__least__squares_8h.html" target="_top" xlink:title="Framework of moving least squares node. ">
<polygon fill="white" stroke="black" points="1235,-178.5 1235,-230.5 1387,-230.5 1387,-178.5 1235,-178.5"/>
<text text-anchor="start" x="1243" y="-218.5" font-family="Helvetica,sans-Serif" font-size="10.00">/home/jc/hull_abstraction</text>
<text text-anchor="start" x="1243" y="-207.5" font-family="Helvetica,sans-Serif" font-size="10.00">/ros/src/hull_abstraction</text>
<text text-anchor="start" x="1243" y="-196.5" font-family="Helvetica,sans-Serif" font-size="10.00">/src/moving_least_squares</text>
<text text-anchor="middle" x="1311" y="-185.5" font-family="Helvetica,sans-Serif" font-size="10.00">_node/moving_least_squares.h</text>
</a>
</g>
</g>
<!-- Node2&#45;&gt;Node19 -->
<g id="edge20" class="edge"><title>Node2&#45;&gt;Node19</title>
<path fill="none" stroke="midnightblue" d="M838.729,-283.243C922.996,-272.207 1065.91,-252.532 1188,-231 1203.14,-228.33 1219.27,-225.196 1234.7,-222.057"/>
<polygon fill="midnightblue" stroke="midnightblue" points="838.211,-279.781 828.749,-284.546 839.117,-286.722 838.211,-279.781"/>
</g>
<!-- Node6&#45;&gt;Node5 -->
<g id="edge7" class="edge"><title>Node6&#45;&gt;Node5</title>
<path fill="none" stroke="midnightblue" d="M590.579,-186.957C653.662,-172.414 740.096,-152.046 774,-142 785.316,-138.647 797.466,-134.543 808.502,-130.616"/>
<polygon fill="midnightblue" stroke="midnightblue" points="589.627,-183.584 580.667,-189.238 591.197,-190.406 589.627,-183.584"/>
</g>
<!-- Node7 -->
<g id="node7" class="node"><title>Node7</title>
<g id="a_node7"><a xlink:href="prototype_2src_2hull__abstraction_2reconstructor_8cpp.html" target="_top" xlink:title="/home/jc/hull_abstraction\l/prototype/src/hull_abstraction\l/reconstructor.cpp">
<polygon fill="white" stroke="black" points="444,-95 444,-136 592,-136 592,-95 444,-95"/>
<text text-anchor="start" x="452" y="-124" font-family="Helvetica,sans-Serif" font-size="10.00">/home/jc/hull_abstraction</text>
<text text-anchor="start" x="452" y="-113" font-family="Helvetica,sans-Serif" font-size="10.00">/prototype/src/hull_abstraction</text>
<text text-anchor="middle" x="518" y="-102" font-family="Helvetica,sans-Serif" font-size="10.00">/reconstructor.cpp</text>
</a>
</g>
</g>
<!-- Node6&#45;&gt;Node7 -->
<g id="edge6" class="edge"><title>Node6&#45;&gt;Node7</title>
<path fill="none" stroke="midnightblue" d="M518,-168.155C518,-157.21 518,-145.549 518,-136.082"/>
<polygon fill="midnightblue" stroke="midnightblue" points="514.5,-168.336 518,-178.336 521.5,-168.336 514.5,-168.336"/>
</g>
<!-- Node6&#45;&gt;Node8 -->
<g id="edge8" class="edge"><title>Node6&#45;&gt;Node8</title>
<path fill="none" stroke="midnightblue" d="M590.669,-190.56C614.634,-186.404 641.437,-181.877 666,-178 777.319,-160.431 805.489,-158.311 917,-142 948.036,-137.46 982.228,-132.378 1011.83,-127.952"/>
<polygon fill="midnightblue" stroke="midnightblue" points="589.839,-187.151 580.587,-192.315 591.039,-194.048 589.839,-187.151"/>
</g>
<!-- Node6&#45;&gt;Node11 -->
<g id="edge11" class="edge"><title>Node6&#45;&gt;Node11</title>
<path fill="none" stroke="midnightblue" d="M445.156,-189.862C387.284,-178.529 304.481,-161.198 233,-142 230.216,-141.252 227.385,-140.466 224.531,-139.651"/>
<polygon fill="midnightblue" stroke="midnightblue" points="444.818,-193.362 455.302,-191.838 446.156,-186.491 444.818,-193.362"/>
</g>
<!-- Node14 -->
<g id="node14" class="node"><title>Node14</title>
<g id="a_node14"><a xlink:href="ros_2src_2hull__abstraction_2src_2hull__abstraction_2reconstructor_8cpp.html" target="_top" xlink:title="/home/jc/hull_abstraction\l/ros/src/hull_abstraction\l/src/hull_abstraction/reconstructor.cpp">
<polygon fill="white" stroke="black" points="242.5,-95 242.5,-136 425.5,-136 425.5,-95 242.5,-95"/>
<text text-anchor="start" x="250.5" y="-124" font-family="Helvetica,sans-Serif" font-size="10.00">/home/jc/hull_abstraction</text>
<text text-anchor="start" x="250.5" y="-113" font-family="Helvetica,sans-Serif" font-size="10.00">/ros/src/hull_abstraction</text>
<text text-anchor="middle" x="334" y="-102" font-family="Helvetica,sans-Serif" font-size="10.00">/src/hull_abstraction/reconstructor.cpp</text>
</a>
</g>
</g>
<!-- Node6&#45;&gt;Node14 -->
<g id="edge14" class="edge"><title>Node6&#45;&gt;Node14</title>
<path fill="none" stroke="midnightblue" d="M455.594,-173.993C429.148,-161.488 399.05,-147.257 375.415,-136.082"/>
<polygon fill="midnightblue" stroke="midnightblue" points="454.243,-177.226 464.78,-178.336 457.235,-170.897 454.243,-177.226"/>
</g>
<!-- Node6&#45;&gt;Node15 -->
<g id="edge15" class="edge"><title>Node6&#45;&gt;Node15</title>
<path fill="none" stroke="midnightblue" d="M576.081,-173.776C596.533,-163.309 619.304,-151.656 638.939,-141.607"/>
<polygon fill="midnightblue" stroke="midnightblue" points="574.479,-170.665 567.171,-178.336 577.668,-176.896 574.479,-170.665"/>
</g>
<!-- Node9 -->
<g id="node9" class="node"><title>Node9</title>
<g id="a_node9"><a xlink:href="bspline__surface__fitting_8cpp.html" target="_top" xlink:title="/home/jc/hull_abstraction\l/ros/src/hull_abstraction\l/src/bspline_surface_fitting\l_node/bspline_surface_fitting.cpp">
<polygon fill="white" stroke="black" points="879,-0.5 879,-52.5 1041,-52.5 1041,-0.5 879,-0.5"/>
<text text-anchor="start" x="887" y="-40.5" font-family="Helvetica,sans-Serif" font-size="10.00">/home/jc/hull_abstraction</text>
<text text-anchor="start" x="887" y="-29.5" font-family="Helvetica,sans-Serif" font-size="10.00">/ros/src/hull_abstraction</text>
<text text-anchor="start" x="887" y="-18.5" font-family="Helvetica,sans-Serif" font-size="10.00">/src/bspline_surface_fitting</text>
<text text-anchor="middle" x="960" y="-7.5" font-family="Helvetica,sans-Serif" font-size="10.00">_node/bspline_surface_fitting.cpp</text>
</a>
</g>
</g>
<!-- Node8&#45;&gt;Node9 -->
<g id="edge9" class="edge"><title>Node8&#45;&gt;Node9</title>
<path fill="none" stroke="midnightblue" d="M1042.4,-83.5034C1027.49,-73.3714 1011.13,-62.2504 996.94,-52.6075"/>
<polygon fill="midnightblue" stroke="midnightblue" points="1040.74,-86.6093 1050.98,-89.336 1044.67,-80.82 1040.74,-86.6093"/>
</g>
<!-- Node10 -->
<g id="node10" class="node"><title>Node10</title>
<g id="a_node10"><a xlink:href="bspline__surface__fitting__node_8cpp.html" target="_top" xlink:title="/home/jc/hull_abstraction\l/ros/src/hull_abstraction\l/src/bspline_surface_fitting\l_node.cpp">
<polygon fill="white" stroke="black" points="1059,-0.5 1059,-52.5 1193,-52.5 1193,-0.5 1059,-0.5"/>
<text text-anchor="start" x="1067" y="-40.5" font-family="Helvetica,sans-Serif" font-size="10.00">/home/jc/hull_abstraction</text>
<text text-anchor="start" x="1067" y="-29.5" font-family="Helvetica,sans-Serif" font-size="10.00">/ros/src/hull_abstraction</text>
<text text-anchor="start" x="1067" y="-18.5" font-family="Helvetica,sans-Serif" font-size="10.00">/src/bspline_surface_fitting</text>
<text text-anchor="middle" x="1126" y="-7.5" font-family="Helvetica,sans-Serif" font-size="10.00">_node.cpp</text>
</a>
</g>
</g>
<!-- Node8&#45;&gt;Node10 -->
<g id="edge10" class="edge"><title>Node8&#45;&gt;Node10</title>
<path fill="none" stroke="midnightblue" d="M1103.04,-80.0607C1107.05,-70.8956 1111.29,-61.169 1115.03,-52.6075"/>
<polygon fill="midnightblue" stroke="midnightblue" points="1099.79,-78.771 1098.99,-89.336 1106.2,-81.573 1099.79,-78.771"/>
</g>
<!-- Node12 -->
<g id="node12" class="node"><title>Node12</title>
<g id="a_node12"><a xlink:href="greedy__triangulation_8cpp.html" target="_top" xlink:title="/home/jc/hull_abstraction\l/ros/src/hull_abstraction\l/src/greedy_triangulation\l_node/greedy_triangulation.cpp">
<polygon fill="white" stroke="black" points="0,-0.5 0,-52.5 152,-52.5 152,-0.5 0,-0.5"/>
<text text-anchor="start" x="8" y="-40.5" font-family="Helvetica,sans-Serif" font-size="10.00">/home/jc/hull_abstraction</text>
<text text-anchor="start" x="8" y="-29.5" font-family="Helvetica,sans-Serif" font-size="10.00">/ros/src/hull_abstraction</text>
<text text-anchor="start" x="8" y="-18.5" font-family="Helvetica,sans-Serif" font-size="10.00">/src/greedy_triangulation</text>
<text text-anchor="middle" x="76" y="-7.5" font-family="Helvetica,sans-Serif" font-size="10.00">_node/greedy_triangulation.cpp</text>
</a>
</g>
</g>
<!-- Node11&#45;&gt;Node12 -->
<g id="edge12" class="edge"><title>Node11&#45;&gt;Node12</title>
<path fill="none" stroke="midnightblue" d="M124.674,-81.79C116.012,-72.1288 106.671,-61.7097 98.5101,-52.6075"/>
<polygon fill="midnightblue" stroke="midnightblue" points="122.158,-84.2267 131.439,-89.336 127.37,-79.5539 122.158,-84.2267"/>
</g>
<!-- Node13 -->
<g id="node13" class="node"><title>Node13</title>
<g id="a_node13"><a xlink:href="greedy__triangulation__node_8cpp.html" target="_top" xlink:title="/home/jc/hull_abstraction\l/ros/src/hull_abstraction\l/src/greedy_triangulation\l_node.cpp">
<polygon fill="white" stroke="black" points="170.5,-0.5 170.5,-52.5 295.5,-52.5 295.5,-0.5 170.5,-0.5"/>
<text text-anchor="start" x="178.5" y="-40.5" font-family="Helvetica,sans-Serif" font-size="10.00">/home/jc/hull_abstraction</text>
<text text-anchor="start" x="178.5" y="-29.5" font-family="Helvetica,sans-Serif" font-size="10.00">/ros/src/hull_abstraction</text>
<text text-anchor="start" x="178.5" y="-18.5" font-family="Helvetica,sans-Serif" font-size="10.00">/src/greedy_triangulation</text>
<text text-anchor="middle" x="233" y="-7.5" font-family="Helvetica,sans-Serif" font-size="10.00">_node.cpp</text>
</a>
</g>
</g>
<!-- Node11&#45;&gt;Node13 -->
<g id="edge13" class="edge"><title>Node11&#45;&gt;Node13</title>
<path fill="none" stroke="midnightblue" d="M183.702,-81.79C192.475,-72.1288 201.936,-61.7097 210.201,-52.6075"/>
<polygon fill="midnightblue" stroke="midnightblue" points="180.981,-79.5798 176.85,-89.336 186.164,-84.2856 180.981,-79.5798"/>
</g>
<!-- Node16 -->
<g id="node16" class="node"><title>Node16</title>
<g id="a_node16"><a xlink:href="poisson__reconstruction_8cpp.html" target="_top" xlink:title="/home/jc/hull_abstraction\l/ros/src/hull_abstraction\l/src/poisson_reconstruction\l_node/poisson_reconstruction.cpp">
<polygon fill="white" stroke="black" points="483.5,-0.5 483.5,-52.5 648.5,-52.5 648.5,-0.5 483.5,-0.5"/>
<text text-anchor="start" x="491.5" y="-40.5" font-family="Helvetica,sans-Serif" font-size="10.00">/home/jc/hull_abstraction</text>
<text text-anchor="start" x="491.5" y="-29.5" font-family="Helvetica,sans-Serif" font-size="10.00">/ros/src/hull_abstraction</text>
<text text-anchor="start" x="491.5" y="-18.5" font-family="Helvetica,sans-Serif" font-size="10.00">/src/poisson_reconstruction</text>
<text text-anchor="middle" x="566" y="-7.5" font-family="Helvetica,sans-Serif" font-size="10.00">_node/poisson_reconstruction.cpp</text>
</a>
</g>
</g>
<!-- Node15&#45;&gt;Node16 -->
<g id="edge16" class="edge"><title>Node15&#45;&gt;Node16</title>
<path fill="none" stroke="midnightblue" d="M644.533,-83.5034C630.325,-73.3714 614.73,-62.2504 601.208,-52.6075"/>
<polygon fill="midnightblue" stroke="midnightblue" points="642.539,-86.3795 652.713,-89.336 646.603,-80.6802 642.539,-86.3795"/>
</g>
<!-- Node17 -->
<g id="node17" class="node"><title>Node17</title>
<g id="a_node17"><a xlink:href="poisson__reconstruction__node_8cpp.html" target="_top" xlink:title="/home/jc/hull_abstraction\l/ros/src/hull_abstraction\l/src/poisson_reconstruction\l_node.cpp">
<polygon fill="white" stroke="black" points="666.5,-0.5 666.5,-52.5 803.5,-52.5 803.5,-0.5 666.5,-0.5"/>
<text text-anchor="start" x="674.5" y="-40.5" font-family="Helvetica,sans-Serif" font-size="10.00">/home/jc/hull_abstraction</text>
<text text-anchor="start" x="674.5" y="-29.5" font-family="Helvetica,sans-Serif" font-size="10.00">/ros/src/hull_abstraction</text>
<text text-anchor="start" x="674.5" y="-18.5" font-family="Helvetica,sans-Serif" font-size="10.00">/src/poisson_reconstruction</text>
<text text-anchor="middle" x="735" y="-7.5" font-family="Helvetica,sans-Serif" font-size="10.00">_node.cpp</text>
</a>
</g>
</g>
<!-- Node15&#45;&gt;Node17 -->
<g id="edge17" class="edge"><title>Node15&#45;&gt;Node17</title>
<path fill="none" stroke="midnightblue" d="M706.449,-80.3499C711.446,-71.1005 716.762,-61.2591 721.436,-52.6075"/>
<polygon fill="midnightblue" stroke="midnightblue" points="703.268,-78.8742 701.594,-89.336 709.427,-82.2014 703.268,-78.8742"/>
</g>
<!-- Node20 -->
<g id="node20" class="node"><title>Node20</title>
<g id="a_node20"><a xlink:href="moving__least__squares_8cpp.html" target="_top" xlink:title="/home/jc/hull_abstraction\l/ros/src/hull_abstraction\l/src/moving_least_squares\l_node/moving_least_squares.cpp">
<polygon fill="white" stroke="black" points="1206,-89.5 1206,-141.5 1368,-141.5 1368,-89.5 1206,-89.5"/>
<text text-anchor="start" x="1214" y="-129.5" font-family="Helvetica,sans-Serif" font-size="10.00">/home/jc/hull_abstraction</text>
<text text-anchor="start" x="1214" y="-118.5" font-family="Helvetica,sans-Serif" font-size="10.00">/ros/src/hull_abstraction</text>
<text text-anchor="start" x="1214" y="-107.5" font-family="Helvetica,sans-Serif" font-size="10.00">/src/moving_least_squares</text>
<text text-anchor="middle" x="1287" y="-96.5" font-family="Helvetica,sans-Serif" font-size="10.00">_node/moving_least_squares.cpp</text>
</a>
</g>
</g>
<!-- Node19&#45;&gt;Node20 -->
<g id="edge21" class="edge"><title>Node19&#45;&gt;Node20</title>
<path fill="none" stroke="midnightblue" d="M1301.34,-168.481C1298.86,-159.487 1296.24,-149.989 1293.93,-141.607"/>
<polygon fill="midnightblue" stroke="midnightblue" points="1298.02,-169.627 1304.06,-178.336 1304.77,-167.765 1298.02,-169.627"/>
</g>
<!-- Node21 -->
<g id="node21" class="node"><title>Node21</title>
<g id="a_node21"><a xlink:href="moving__least__squares__node_8cpp.html" target="_top" xlink:title="/home/jc/hull_abstraction\l/ros/src/hull_abstraction\l/src/moving_least_squares\l_node.cpp">
<polygon fill="white" stroke="black" points="1386,-89.5 1386,-141.5 1520,-141.5 1520,-89.5 1386,-89.5"/>
<text text-anchor="start" x="1394" y="-129.5" font-family="Helvetica,sans-Serif" font-size="10.00">/home/jc/hull_abstraction</text>
<text text-anchor="start" x="1394" y="-118.5" font-family="Helvetica,sans-Serif" font-size="10.00">/ros/src/hull_abstraction</text>
<text text-anchor="start" x="1394" y="-107.5" font-family="Helvetica,sans-Serif" font-size="10.00">/src/moving_least_squares</text>
<text text-anchor="middle" x="1453" y="-96.5" font-family="Helvetica,sans-Serif" font-size="10.00">_node.cpp</text>
</a>
</g>
</g>
<!-- Node19&#45;&gt;Node21 -->
<g id="edge22" class="edge"><title>Node19&#45;&gt;Node21</title>
<path fill="none" stroke="midnightblue" d="M1360.67,-173.07C1377.45,-162.788 1395.99,-151.431 1412.02,-141.607"/>
<polygon fill="midnightblue" stroke="midnightblue" points="1358.77,-170.127 1352.07,-178.336 1362.43,-176.096 1358.77,-170.127"/>
</g>
</g>
</svg>
        <g id="navigator" transform="translate(0 0)" fill="#404254">
                <rect fill="#f2f5e9" fill-opacity="0.5" stroke="#606060" stroke-width=".5" x="0" y="0" width="60" height="60"/>
                <use id="zoomplus" xlink:href="#zoomPlus" x="17" y="9" onmousedown="handleZoom(evt,'in')"/>
                <use id="zoomminus" xlink:href="#zoomMin" x="42" y="9" onmousedown="handleZoom(evt,'out')"/>
                <use id="reset" xlink:href="#resetDef" x="30" y="36" onmousedown="handleReset()"/>
                <g id="arrowUp" xlink:href="#dirArrow" transform="translate(30 24)" onmousedown="handlePan(0,-1)">
                  <use xlink:href="#rim" fill="#404040">
                        <set attributeName="fill" to="#808080" begin="arrowUp.mouseover" end="arrowUp.mouseout"/>
                  </use>
                  <path fill="none" stroke="white" stroke-width="1.5" d="M0,-3.0v7 M-2.5,-0.5L0,-3.0L2.5,-0.5"/>
                </g>
                <g id="arrowRight" xlink:href="#dirArrow" transform="rotate(90) translate(36 -43)" onmousedown="handlePan(1,0)">
                  <use xlink:href="#rim" fill="#404040">
                        <set attributeName="fill" to="#808080" begin="arrowRight.mouseover" end="arrowRight.mouseout"/>
                  </use>
                  <path fill="none" stroke="white" stroke-width="1.5" d="M0,-3.0v7 M-2.5,-0.5L0,-3.0L2.5,-0.5"/>
                </g>
                <g id="arrowDown" xlink:href="#dirArrow" transform="rotate(180) translate(-30 -48)" onmousedown="handlePan(0,1)">
                  <use xlink:href="#rim" fill="#404040">
                        <set attributeName="fill" to="#808080" begin="arrowDown.mouseover" end="arrowDown.mouseout"/>
                  </use>
                  <path fill="none" stroke="white" stroke-width="1.5" d="M0,-3.0v7 M-2.5,-0.5L0,-3.0L2.5,-0.5"/>
                </g>
                <g id="arrowLeft" xlink:href="#dirArrow" transform="rotate(270) translate(-36 17)" onmousedown="handlePan(-1,0)">
                  <use xlink:href="#rim" fill="#404040">
                        <set attributeName="fill" to="#808080" begin="arrowLeft.mouseover" end="arrowLeft.mouseout"/>
                  </use>
                  <path fill="none" stroke="white" stroke-width="1.5" d="M0,-3.0v7 M-2.5,-0.5L0,-3.0L2.5,-0.5"/>
                </g>
        </g>
        <svg viewBox="0 0 15 15" width="100%" height="30px" preserveAspectRatio="xMaxYMin meet">
         <g id="arrow_out" transform="scale(0.3 0.3)">
          <a xlink:href="pcl__utilization_8h__dep__incl_org.svg" target="_base">
           <rect id="button" ry="5" rx="5" y="6" x="6" height="38" width="38"
                fill="#f2f5e9" fill-opacity="0.5" stroke="#606060" stroke-width="1.0"/>
           <path id="arrow"
             d="M 11.500037,31.436501 C 11.940474,20.09759 22.043105,11.32322 32.158766,21.979434 L 37.068811,17.246167 C 37.068811,17.246167 37.088388,32 37.088388,32 L 22.160133,31.978069 C 22.160133,31.978069 26.997745,27.140456 26.997745,27.140456 C 18.528582,18.264221 13.291696,25.230495 11.500037,31.436501 z"
             style="fill:#404040;"/>
          </a>
         </g>
        </svg>
</svg>
