<?xml version="1.0" encoding="UTF-8" standalone="no"?>
<!DOCTYPE svg PUBLIC "-//W3C//DTD SVG 1.1//EN"
 "http://www.w3.org/Graphics/SVG/1.1/DTD/svg11.dtd">
<!-- Generated by graphviz version 2.38.0 (20140413.2041)
 -->
<!-- Title: /home/jc/hull_abstraction/ros/src/hull_abstraction/include/pcl_utilization/pcl_utilization.h Pages: 1 -->
<svg width="1823pt" height="417pt"
 viewBox="0.00 0.00 1822.50 417.00" xmlns="http://www.w3.org/2000/svg" xmlns:xlink="http://www.w3.org/1999/xlink">
<g id="graph0" class="graph" transform="scale(1 1) rotate(0) translate(4 413)">
<title>/home/jc/hull_abstraction/ros/src/hull_abstraction/include/pcl_utilization/pcl_utilization.h</title>
<polygon fill="white" stroke="none" points="-4,4 -4,-413 1818.5,-413 1818.5,4 -4,4"/>
<!-- Node1 -->
<g id="node1" class="node"><title>Node1</title>
<polygon fill="#bfbfbf" stroke="black" points="1070.5,-356.5 1070.5,-408.5 1195.5,-408.5 1195.5,-356.5 1070.5,-356.5"/>
<text text-anchor="start" x="1078.5" y="-396.5" font-family="Helvetica,sans-Serif" font-size="10.00">/home/jc/hull_abstraction</text>
<text text-anchor="start" x="1078.5" y="-385.5" font-family="Helvetica,sans-Serif" font-size="10.00">/ros/src/hull_abstraction</text>
<text text-anchor="start" x="1078.5" y="-374.5" font-family="Helvetica,sans-Serif" font-size="10.00">/include/pcl_utilization</text>
<text text-anchor="middle" x="1133" y="-363.5" font-family="Helvetica,sans-Serif" font-size="10.00">/pcl_utilization.h</text>
</g>
<!-- Node2 -->
<g id="node2" class="node"><title>Node2</title>
<g id="a_node2"><a xlink:href="ros_2src_2hull__abstraction_2include_2hull__abstraction_2preprocessor_8h.html" target="_top" xlink:title="/home/jc/hull_abstraction\l/ros/src/hull_abstraction\l/include/hull_abstraction\l/preprocessor.h">
<polygon fill="white" stroke="black" points="854.5,-267.5 854.5,-319.5 979.5,-319.5 979.5,-267.5 854.5,-267.5"/>
<text text-anchor="start" x="862.5" y="-307.5" font-family="Helvetica,sans-Serif" font-size="10.00">/home/jc/hull_abstraction</text>
<text text-anchor="start" x="862.5" y="-296.5" font-family="Helvetica,sans-Serif" font-size="10.00">/ros/src/hull_abstraction</text>
<text text-anchor="start" x="862.5" y="-285.5" font-family="Helvetica,sans-Serif" font-size="10.00">/include/hull_abstraction</text>
<text text-anchor="middle" x="917" y="-274.5" font-family="Helvetica,sans-Serif" font-size="10.00">/preprocessor.h</text>
</a>
</g>
</g>
<!-- Node1&#45;&gt;Node2 -->
<g id="edge1" class="edge"><title>Node1&#45;&gt;Node2</title>
<path fill="none" stroke="midnightblue" d="M1061.19,-352.576C1034.62,-341.876 1004.75,-329.846 979.121,-319.521"/>
<polygon fill="midnightblue" stroke="midnightblue" points="1060.23,-355.963 1070.81,-356.453 1062.85,-349.47 1060.23,-355.963"/>
</g>
<!-- Node8 -->
<g id="node8" class="node"><title>Node8</title>
<g id="a_node8"><a xlink:href="bspline__surface__fitting_8h.html" target="_top" xlink:title="Framework of b&#45;spline surface fitting node. ">
<polygon fill="white" stroke="black" points="170,-89.5 170,-141.5 322,-141.5 322,-89.5 170,-89.5"/>
<text text-anchor="start" x="178" y="-129.5" font-family="Helvetica,sans-Serif" font-size="10.00">/home/jc/hull_abstraction</text>
<text text-anchor="start" x="178" y="-118.5" font-family="Helvetica,sans-Serif" font-size="10.00">/ros/src/hull_abstraction</text>
<text text-anchor="start" x="178" y="-107.5" font-family="Helvetica,sans-Serif" font-size="10.00">/src/bspline_surface_fitting</text>
<text text-anchor="middle" x="246" y="-96.5" font-family="Helvetica,sans-Serif" font-size="10.00">_node/bspline_surface_fitting.h</text>
</a>
</g>
</g>
<!-- Node1&#45;&gt;Node8 -->
<g id="edge28" class="edge"><title>Node1&#45;&gt;Node8</title>
<path fill="none" stroke="midnightblue" d="M1060.33,-379.481C917.223,-374.678 604.217,-359.835 505,-320 403.907,-279.412 309.849,-186.543 268.335,-141.677"/>
<polygon fill="midnightblue" stroke="midnightblue" points="1060.22,-382.98 1070.33,-379.81 1060.45,-375.983 1060.22,-382.98"/>
</g>
<!-- Node11 -->
<g id="node11" class="node"><title>Node11</title>
<g id="a_node11"><a xlink:href="greedy__triangulation_8h.html" target="_top" xlink:title="Framework of greedy triangulation node. ">
<polygon fill="white" stroke="black" points="340.5,-89.5 340.5,-141.5 481.5,-141.5 481.5,-89.5 340.5,-89.5"/>
<text text-anchor="start" x="348.5" y="-129.5" font-family="Helvetica,sans-Serif" font-size="10.00">/home/jc/hull_abstraction</text>
<text text-anchor="start" x="348.5" y="-118.5" font-family="Helvetica,sans-Serif" font-size="10.00">/ros/src/hull_abstraction</text>
<text text-anchor="start" x="348.5" y="-107.5" font-family="Helvetica,sans-Serif" font-size="10.00">/src/greedy_triangulation</text>
<text text-anchor="middle" x="411" y="-96.5" font-family="Helvetica,sans-Serif" font-size="10.00">_node/greedy_triangulation.h</text>
</a>
</g>
</g>
<!-- Node1&#45;&gt;Node11 -->
<g id="edge32" class="edge"><title>Node1&#45;&gt;Node11</title>
<path fill="none" stroke="midnightblue" d="M1060.12,-374.963C901.7,-359.313 533.002,-314.631 444,-231 419.426,-207.909 412.767,-167.803 411.172,-141.711"/>
<polygon fill="midnightblue" stroke="midnightblue" points="1059.96,-378.464 1070.25,-375.952 1060.64,-371.497 1059.96,-378.464"/>
</g>
<!-- Node15 -->
<g id="node15" class="node"><title>Node15</title>
<g id="a_node15"><a xlink:href="marching__cubes_8h.html" target="_top" xlink:title="Framework of marching cubes node. ">
<polygon fill="white" stroke="black" points="1184,-89.5 1184,-141.5 1318,-141.5 1318,-89.5 1184,-89.5"/>
<text text-anchor="start" x="1192" y="-129.5" font-family="Helvetica,sans-Serif" font-size="10.00">/home/jc/hull_abstraction</text>
<text text-anchor="start" x="1192" y="-118.5" font-family="Helvetica,sans-Serif" font-size="10.00">/ros/src/hull_abstraction</text>
<text text-anchor="start" x="1192" y="-107.5" font-family="Helvetica,sans-Serif" font-size="10.00">/src/marching_cubes_node</text>
<text text-anchor="middle" x="1251" y="-96.5" font-family="Helvetica,sans-Serif" font-size="10.00">/marching_cubes.h</text>
</a>
</g>
</g>
<!-- Node1&#45;&gt;Node15 -->
<g id="edge33" class="edge"><title>Node1&#45;&gt;Node15</title>
<path fill="none" stroke="midnightblue" d="M1174.32,-349.814C1206.43,-322.374 1248.53,-279.527 1267,-231 1278.14,-201.737 1269.76,-165.62 1261.52,-141.869"/>
<polygon fill="midnightblue" stroke="midnightblue" points="1171.81,-347.35 1166.39,-356.453 1176.3,-352.717 1171.81,-347.35"/>
</g>
<!-- Node25 -->
<g id="node25" class="node"><title>Node25</title>
<g id="a_node25"><a xlink:href="display__mesh_8h.html" target="_top" xlink:title="Framework of node for displaying polygon meshes. ">
<polygon fill="white" stroke="black" points="1404,-273 1404,-314 1598,-314 1598,-273 1404,-273"/>
<text text-anchor="start" x="1412" y="-302" font-family="Helvetica,sans-Serif" font-size="10.00">/home/jc/hull_abstraction</text>
<text text-anchor="start" x="1412" y="-291" font-family="Helvetica,sans-Serif" font-size="10.00">/ros/src/hull_abstraction</text>
<text text-anchor="middle" x="1501" y="-280" font-family="Helvetica,sans-Serif" font-size="10.00">/src/display_mesh_node/display_mesh.h</text>
</a>
</g>
</g>
<!-- Node1&#45;&gt;Node25 -->
<g id="edge29" class="edge"><title>Node1&#45;&gt;Node25</title>
<path fill="none" stroke="midnightblue" d="M1205.82,-364.286C1267.04,-349.812 1354.54,-329.126 1418.37,-314.034"/>
<polygon fill="midnightblue" stroke="midnightblue" points="1204.77,-360.936 1195.84,-366.643 1206.38,-367.748 1204.77,-360.936"/>
</g>
<!-- Node28 -->
<g id="node28" class="node"><title>Node28</title>
<g id="a_node28"><a xlink:href="pcl__utilization_8cpp.html" target="_top" xlink:title="/home/jc/hull_abstraction\l/ros/src/hull_abstraction\l/src/pcl_utilization/pcl\l_utilization.cpp">
<polygon fill="white" stroke="black" points="1615.5,-267.5 1615.5,-319.5 1740.5,-319.5 1740.5,-267.5 1615.5,-267.5"/>
<text text-anchor="start" x="1623.5" y="-307.5" font-family="Helvetica,sans-Serif" font-size="10.00">/home/jc/hull_abstraction</text>
<text text-anchor="start" x="1623.5" y="-296.5" font-family="Helvetica,sans-Serif" font-size="10.00">/ros/src/hull_abstraction</text>
<text text-anchor="start" x="1623.5" y="-285.5" font-family="Helvetica,sans-Serif" font-size="10.00">/src/pcl_utilization/pcl</text>
<text text-anchor="middle" x="1678" y="-274.5" font-family="Helvetica,sans-Serif" font-size="10.00">_utilization.cpp</text>
</a>
</g>
</g>
<!-- Node1&#45;&gt;Node28 -->
<g id="edge34" class="edge"><title>Node1&#45;&gt;Node28</title>
<path fill="none" stroke="midnightblue" d="M1205.75,-376.954C1299.55,-369.982 1467.25,-353.744 1607,-320 1609.67,-319.354 1612.39,-318.643 1615.11,-317.881"/>
<polygon fill="midnightblue" stroke="midnightblue" points="1205.23,-373.482 1195.51,-377.7 1205.74,-380.464 1205.23,-373.482"/>
</g>
<!-- Node3 -->
<g id="node3" class="node"><title>Node3</title>
<g id="a_node3"><a xlink:href="prototype_2include_2hull__abstraction_2reconstructor_8h.html" target="_top" xlink:title="/home/jc/hull_abstraction\l/prototype/include/hull\l_abstraction/reconstructor.h">
<polygon fill="white" stroke="black" points="897,-184 897,-225 1035,-225 1035,-184 897,-184"/>
<text text-anchor="start" x="905" y="-213" font-family="Helvetica,sans-Serif" font-size="10.00">/home/jc/hull_abstraction</text>
<text text-anchor="start" x="905" y="-202" font-family="Helvetica,sans-Serif" font-size="10.00">/prototype/include/hull</text>
<text text-anchor="middle" x="966" y="-191" font-family="Helvetica,sans-Serif" font-size="10.00">_abstraction/reconstructor.h</text>
</a>
</g>
</g>
<!-- Node2&#45;&gt;Node3 -->
<g id="edge2" class="edge"><title>Node2&#45;&gt;Node3</title>
<path fill="none" stroke="midnightblue" d="M936.146,-258.506C942.528,-247.175 949.419,-234.94 954.971,-225.082"/>
<polygon fill="midnightblue" stroke="midnightblue" points="933.031,-256.905 931.173,-267.336 939.13,-260.34 933.031,-256.905"/>
</g>
<!-- Node4 -->
<g id="node4" class="node"><title>Node4</title>
<g id="a_node4"><a xlink:href="prototype_2src_2hull__abstraction_2preprocessor_8cpp.html" target="_top" xlink:title="/home/jc/hull_abstraction\l/prototype/src/hull_abstraction\l/preprocessor.cpp">
<polygon fill="white" stroke="black" points="511,-184 511,-225 659,-225 659,-184 511,-184"/>
<text text-anchor="start" x="519" y="-213" font-family="Helvetica,sans-Serif" font-size="10.00">/home/jc/hull_abstraction</text>
<text text-anchor="start" x="519" y="-202" font-family="Helvetica,sans-Serif" font-size="10.00">/prototype/src/hull_abstraction</text>
<text text-anchor="middle" x="585" y="-191" font-family="Helvetica,sans-Serif" font-size="10.00">/preprocessor.cpp</text>
</a>
</g>
</g>
<!-- Node2&#45;&gt;Node4 -->
<g id="edge3" class="edge"><title>Node2&#45;&gt;Node4</title>
<path fill="none" stroke="midnightblue" d="M844.292,-275.675C794.485,-263.873 727.017,-247.34 668,-231 661.317,-229.15 654.356,-227.141 647.433,-225.091"/>
<polygon fill="midnightblue" stroke="midnightblue" points="843.789,-279.153 854.326,-278.046 845.399,-272.34 843.789,-279.153"/>
</g>
<!-- Node5 -->
<g id="node5" class="node"><title>Node5</title>
<g id="a_node5"><a xlink:href="main_8cpp.html" target="_top" xlink:title="/home/jc/hull_abstraction\l/prototype/src/main.cpp">
<polygon fill="white" stroke="black" points="1040.5,-100.5 1040.5,-130.5 1165.5,-130.5 1165.5,-100.5 1040.5,-100.5"/>
<text text-anchor="start" x="1048.5" y="-118.5" font-family="Helvetica,sans-Serif" font-size="10.00">/home/jc/hull_abstraction</text>
<text text-anchor="middle" x="1103" y="-107.5" font-family="Helvetica,sans-Serif" font-size="10.00">/prototype/src/main.cpp</text>
</a>
</g>
</g>
<!-- Node2&#45;&gt;Node5 -->
<g id="edge4" class="edge"><title>Node2&#45;&gt;Node5</title>
<path fill="none" stroke="midnightblue" d="M894.185,-258.203C880.96,-233.626 870.115,-200.946 888,-178 928.291,-126.309 968.264,-160.961 1031,-142 1042.3,-138.586 1054.44,-134.463 1065.48,-130.538"/>
<polygon fill="midnightblue" stroke="midnightblue" points="891.317,-260.24 899.315,-267.189 897.396,-256.769 891.317,-260.24"/>
</g>
<!-- Node6 -->
<g id="node6" class="node"><title>Node6</title>
<g id="a_node6"><a xlink:href="ros_2src_2hull__abstraction_2include_2hull__abstraction_2reconstructor_8h.html" target="_top" xlink:title="This file contains the declaration of the Reconstructor class. ">
<polygon fill="white" stroke="black" points="677.5,-178.5 677.5,-230.5 802.5,-230.5 802.5,-178.5 677.5,-178.5"/>
<text text-anchor="start" x="685.5" y="-218.5" font-family="Helvetica,sans-Serif" font-size="10.00">/home/jc/hull_abstraction</text>
<text text-anchor="start" x="685.5" y="-207.5" font-family="Helvetica,sans-Serif" font-size="10.00">/ros/src/hull_abstraction</text>
<text text-anchor="start" x="685.5" y="-196.5" font-family="Helvetica,sans-Serif" font-size="10.00">/include/hull_abstraction</text>
<text text-anchor="middle" x="740" y="-185.5" font-family="Helvetica,sans-Serif" font-size="10.00">/reconstructor.h</text>
</a>
</g>
</g>
<!-- Node2&#45;&gt;Node6 -->
<g id="edge5" class="edge"><title>Node2&#45;&gt;Node6</title>
<path fill="none" stroke="midnightblue" d="M856.814,-262.917C835.446,-252.414 811.616,-240.701 791.081,-230.607"/>
<polygon fill="midnightblue" stroke="midnightblue" points="855.286,-266.066 865.804,-267.336 858.374,-259.784 855.286,-266.066"/>
</g>
<!-- Node2&#45;&gt;Node11 -->
<g id="edge21" class="edge"><title>Node2&#45;&gt;Node11</title>
<path fill="none" stroke="midnightblue" d="M844.428,-288.147C741.386,-280.899 558.861,-263.798 502,-231 465.708,-210.066 438.395,-168.552 423.564,-141.683"/>
<polygon fill="midnightblue" stroke="midnightblue" points="844.233,-291.642 854.45,-288.839 844.715,-284.659 844.233,-291.642"/>
</g>
<!-- Node2&#45;&gt;Node15 -->
<g id="edge23" class="edge"><title>Node2&#45;&gt;Node15</title>
<path fill="none" stroke="midnightblue" d="M989.97,-288.94C1075.95,-283.084 1211.27,-268.097 1244,-231 1265.35,-206.808 1262.48,-167.382 1257.5,-141.691"/>
<polygon fill="midnightblue" stroke="midnightblue" points="989.49,-285.464 979.74,-289.61 989.948,-292.449 989.49,-285.464"/>
</g>
<!-- Node18 -->
<g id="node18" class="node"><title>Node18</title>
<g id="a_node18"><a xlink:href="poisson__reconstruction_8h.html" target="_top" xlink:title="Framework of Poisson reconstruction node. ">
<polygon fill="white" stroke="black" points="867.5,-89.5 867.5,-141.5 1022.5,-141.5 1022.5,-89.5 867.5,-89.5"/>
<text text-anchor="start" x="875.5" y="-129.5" font-family="Helvetica,sans-Serif" font-size="10.00">/home/jc/hull_abstraction</text>
<text text-anchor="start" x="875.5" y="-118.5" font-family="Helvetica,sans-Serif" font-size="10.00">/ros/src/hull_abstraction</text>
<text text-anchor="start" x="875.5" y="-107.5" font-family="Helvetica,sans-Serif" font-size="10.00">/src/poisson_reconstruction</text>
<text text-anchor="middle" x="945" y="-96.5" font-family="Helvetica,sans-Serif" font-size="10.00">_node/poisson_reconstruction.h</text>
</a>
</g>
</g>
<!-- Node2&#45;&gt;Node18 -->
<g id="edge27" class="edge"><title>Node2&#45;&gt;Node18</title>
<path fill="none" stroke="midnightblue" d="M875.147,-260.265C866.953,-251.722 859.509,-241.825 855,-231 845.942,-209.256 844.004,-198.832 855,-178 862.951,-162.937 876.435,-150.865 890.579,-141.541"/>
<polygon fill="midnightblue" stroke="midnightblue" points="872.88,-262.942 882.485,-267.412 877.764,-257.928 872.88,-262.942"/>
</g>
<!-- Node21 -->
<g id="node21" class="node"><title>Node21</title>
<g id="a_node21"><a xlink:href="ros_2src_2hull__abstraction_2src_2hull__abstraction_2preprocessor_8cpp.html" target="_top" xlink:title="/home/jc/hull_abstraction\l/ros/src/hull_abstraction\l/src/hull_abstraction/preprocessor.cpp">
<polygon fill="white" stroke="black" points="1053,-184 1053,-225 1235,-225 1235,-184 1053,-184"/>
<text text-anchor="start" x="1061" y="-213" font-family="Helvetica,sans-Serif" font-size="10.00">/home/jc/hull_abstraction</text>
<text text-anchor="start" x="1061" y="-202" font-family="Helvetica,sans-Serif" font-size="10.00">/ros/src/hull_abstraction</text>
<text text-anchor="middle" x="1144" y="-191" font-family="Helvetica,sans-Serif" font-size="10.00">/src/hull_abstraction/preprocessor.cpp</text>
</a>
</g>
</g>
<!-- Node2&#45;&gt;Node21 -->
<g id="edge22" class="edge"><title>Node2&#45;&gt;Node21</title>
<path fill="none" stroke="midnightblue" d="M989.008,-264.902C1022.84,-251.937 1062.37,-236.787 1093.04,-225.031"/>
<polygon fill="midnightblue" stroke="midnightblue" points="987.715,-261.65 979.63,-268.497 990.22,-268.186 987.715,-261.65"/>
</g>
<!-- Node22 -->
<g id="node22" class="node"><title>Node22</title>
<g id="a_node22"><a xlink:href="moving__least__squares_8h.html" target="_top" xlink:title="Framework of moving least squares node. ">
<polygon fill="white" stroke="black" points="1329,-178.5 1329,-230.5 1481,-230.5 1481,-178.5 1329,-178.5"/>
<text text-anchor="start" x="1337" y="-218.5" font-family="Helvetica,sans-Serif" font-size="10.00">/home/jc/hull_abstraction</text>
<text text-anchor="start" x="1337" y="-207.5" font-family="Helvetica,sans-Serif" font-size="10.00">/ros/src/hull_abstraction</text>
<text text-anchor="start" x="1337" y="-196.5" font-family="Helvetica,sans-Serif" font-size="10.00">/src/moving_least_squares</text>
<text text-anchor="middle" x="1405" y="-185.5" font-family="Helvetica,sans-Serif" font-size="10.00">_node/moving_least_squares.h</text>
</a>
</g>
</g>
<!-- Node2&#45;&gt;Node22 -->
<g id="edge24" class="edge"><title>Node2&#45;&gt;Node22</title>
<path fill="none" stroke="midnightblue" d="M989.507,-280.713C1062.28,-268.742 1177.56,-249.396 1277,-231 1293.82,-227.888 1311.86,-224.394 1328.92,-221.013"/>
<polygon fill="midnightblue" stroke="midnightblue" points="988.827,-277.278 979.527,-282.353 989.962,-284.186 988.827,-277.278"/>
</g>
<!-- Node6&#45;&gt;Node5 -->
<g id="edge7" class="edge"><title>Node6&#45;&gt;Node5</title>
<path fill="none" stroke="midnightblue" d="M812.719,-187.186C826.74,-184.094 841.32,-180.916 855,-178 933.088,-161.357 954.074,-163.379 1031,-142 1042.63,-138.769 1055.09,-134.613 1066.32,-130.597"/>
<polygon fill="midnightblue" stroke="midnightblue" points="811.637,-183.84 802.628,-189.417 813.148,-190.675 811.637,-183.84"/>
</g>
<!-- Node7 -->
<g id="node7" class="node"><title>Node7</title>
<g id="a_node7"><a xlink:href="prototype_2src_2hull__abstraction_2reconstructor_8cpp.html" target="_top" xlink:title="/home/jc/hull_abstraction\l/prototype/src/hull_abstraction\l/reconstructor.cpp">
<polygon fill="white" stroke="black" points="500,-95 500,-136 648,-136 648,-95 500,-95"/>
<text text-anchor="start" x="508" y="-124" font-family="Helvetica,sans-Serif" font-size="10.00">/home/jc/hull_abstraction</text>
<text text-anchor="start" x="508" y="-113" font-family="Helvetica,sans-Serif" font-size="10.00">/prototype/src/hull_abstraction</text>
<text text-anchor="middle" x="574" y="-102" font-family="Helvetica,sans-Serif" font-size="10.00">/reconstructor.cpp</text>
</a>
</g>
</g>
<!-- Node6&#45;&gt;Node7 -->
<g id="edge6" class="edge"><title>Node6&#45;&gt;Node7</title>
<path fill="none" stroke="midnightblue" d="M683.073,-173.665C659.366,-161.24 632.5,-147.16 611.364,-136.082"/>
<polygon fill="midnightblue" stroke="midnightblue" points="681.504,-176.794 691.986,-178.336 684.753,-170.594 681.504,-176.794"/>
</g>
<!-- Node6&#45;&gt;Node8 -->
<g id="edge8" class="edge"><title>Node6&#45;&gt;Node8</title>
<path fill="none" stroke="midnightblue" d="M667.507,-178.15C519.241,-145.768 475.487,-171.129 331,-142 328.13,-141.421 325.219,-140.788 322.287,-140.112"/>
<polygon fill="midnightblue" stroke="midnightblue" points="666.904,-181.601 677.426,-180.368 668.431,-174.77 666.904,-181.601"/>
</g>
<!-- Node6&#45;&gt;Node11 -->
<g id="edge11" class="edge"><title>Node6&#45;&gt;Node11</title>
<path fill="none" stroke="midnightblue" d="M667.466,-178.026C588.842,-156.951 565.655,-161.43 491,-142 487.896,-141.192 484.735,-140.335 481.55,-139.443"/>
<polygon fill="midnightblue" stroke="midnightblue" points="666.767,-181.463 677.336,-180.726 668.614,-174.711 666.767,-181.463"/>
</g>
<!-- Node14 -->
<g id="node14" class="node"><title>Node14</title>
<g id="a_node14"><a xlink:href="ros_2src_2hull__abstraction_2src_2hull__abstraction_2reconstructor_8cpp.html" target="_top" xlink:title="/home/jc/hull_abstraction\l/ros/src/hull_abstraction\l/src/hull_abstraction/reconstructor.cpp">
<polygon fill="white" stroke="black" points="666.5,-95 666.5,-136 849.5,-136 849.5,-95 666.5,-95"/>
<text text-anchor="start" x="674.5" y="-124" font-family="Helvetica,sans-Serif" font-size="10.00">/home/jc/hull_abstraction</text>
<text text-anchor="start" x="674.5" y="-113" font-family="Helvetica,sans-Serif" font-size="10.00">/ros/src/hull_abstraction</text>
<text text-anchor="middle" x="758" y="-102" font-family="Helvetica,sans-Serif" font-size="10.00">/src/hull_abstraction/reconstructor.cpp</text>
</a>
</g>
</g>
<!-- Node6&#45;&gt;Node14 -->
<g id="edge14" class="edge"><title>Node6&#45;&gt;Node14</title>
<path fill="none" stroke="midnightblue" d="M747.243,-168.494C749.528,-157.45 751.97,-145.647 753.949,-136.082"/>
<polygon fill="midnightblue" stroke="midnightblue" points="743.805,-167.834 745.206,-178.336 750.66,-169.253 743.805,-167.834"/>
</g>
<!-- Node6&#45;&gt;Node15 -->
<g id="edge15" class="edge"><title>Node6&#45;&gt;Node15</title>
<path fill="none" stroke="midnightblue" d="M812.631,-190.309C836.593,-186.138 863.404,-181.665 888,-178 1014.72,-159.119 1049.04,-170.272 1174,-142 1177.16,-141.285 1180.37,-140.493 1183.6,-139.643"/>
<polygon fill="midnightblue" stroke="midnightblue" points="811.796,-186.902 802.55,-192.075 813.004,-193.797 811.796,-186.902"/>
</g>
<!-- Node6&#45;&gt;Node18 -->
<g id="edge18" class="edge"><title>Node6&#45;&gt;Node18</title>
<path fill="none" stroke="midnightblue" d="M808.485,-174.436C833.615,-163.771 861.821,-151.8 886.042,-141.521"/>
<polygon fill="midnightblue" stroke="midnightblue" points="806.857,-171.324 799.019,-178.453 809.592,-177.768 806.857,-171.324"/>
</g>
<!-- Node9 -->
<g id="node9" class="node"><title>Node9</title>
<g id="a_node9"><a xlink:href="bspline__surface__fitting_8cpp.html" target="_top" xlink:title="/home/jc/hull_abstraction\l/ros/src/hull_abstraction\l/src/bspline_surface_fitting\l_node/bspline_surface_fitting.cpp">
<polygon fill="white" stroke="black" points="0,-0.5 0,-52.5 162,-52.5 162,-0.5 0,-0.5"/>
<text text-anchor="start" x="8" y="-40.5" font-family="Helvetica,sans-Serif" font-size="10.00">/home/jc/hull_abstraction</text>
<text text-anchor="start" x="8" y="-29.5" font-family="Helvetica,sans-Serif" font-size="10.00">/ros/src/hull_abstraction</text>
<text text-anchor="start" x="8" y="-18.5" font-family="Helvetica,sans-Serif" font-size="10.00">/src/bspline_surface_fitting</text>
<text text-anchor="middle" x="81" y="-7.5" font-family="Helvetica,sans-Serif" font-size="10.00">_node/bspline_surface_fitting.cpp</text>
</a>
</g>
</g>
<!-- Node8&#45;&gt;Node9 -->
<g id="edge9" class="edge"><title>Node8&#45;&gt;Node9</title>
<path fill="none" stroke="midnightblue" d="M189.36,-84.6354C169.578,-74.2049 147.59,-62.6109 128.618,-52.6075"/>
<polygon fill="midnightblue" stroke="midnightblue" points="187.797,-87.7678 198.275,-89.336 191.062,-81.5759 187.797,-87.7678"/>
</g>
<!-- Node10 -->
<g id="node10" class="node"><title>Node10</title>
<g id="a_node10"><a xlink:href="bspline__surface__fitting__node_8cpp.html" target="_top" xlink:title="/home/jc/hull_abstraction\l/ros/src/hull_abstraction\l/src/bspline_surface_fitting\l_node.cpp">
<polygon fill="white" stroke="black" points="180,-0.5 180,-52.5 314,-52.5 314,-0.5 180,-0.5"/>
<text text-anchor="start" x="188" y="-40.5" font-family="Helvetica,sans-Serif" font-size="10.00">/home/jc/hull_abstraction</text>
<text text-anchor="start" x="188" y="-29.5" font-family="Helvetica,sans-Serif" font-size="10.00">/ros/src/hull_abstraction</text>
<text text-anchor="start" x="188" y="-18.5" font-family="Helvetica,sans-Serif" font-size="10.00">/src/bspline_surface_fitting</text>
<text text-anchor="middle" x="247" y="-7.5" font-family="Helvetica,sans-Serif" font-size="10.00">_node.cpp</text>
</a>
</g>
</g>
<!-- Node8&#45;&gt;Node10 -->
<g id="edge10" class="edge"><title>Node8&#45;&gt;Node10</title>
<path fill="none" stroke="midnightblue" d="M246.406,-79.1908C246.508,-70.2824 246.616,-60.8986 246.711,-52.6075"/>
<polygon fill="midnightblue" stroke="midnightblue" points="242.905,-79.2964 246.289,-89.336 249.904,-79.3769 242.905,-79.2964"/>
</g>
<!-- Node12 -->
<g id="node12" class="node"><title>Node12</title>
<g id="a_node12"><a xlink:href="greedy__triangulation_8cpp.html" target="_top" xlink:title="/home/jc/hull_abstraction\l/ros/src/hull_abstraction\l/src/greedy_triangulation\l_node/greedy_triangulation.cpp">
<polygon fill="white" stroke="black" points="333,-0.5 333,-52.5 485,-52.5 485,-0.5 333,-0.5"/>
<text text-anchor="start" x="341" y="-40.5" font-family="Helvetica,sans-Serif" font-size="10.00">/home/jc/hull_abstraction</text>
<text text-anchor="start" x="341" y="-29.5" font-family="Helvetica,sans-Serif" font-size="10.00">/ros/src/hull_abstraction</text>
<text text-anchor="start" x="341" y="-18.5" font-family="Helvetica,sans-Serif" font-size="10.00">/src/greedy_triangulation</text>
<text text-anchor="middle" x="409" y="-7.5" font-family="Helvetica,sans-Serif" font-size="10.00">_node/greedy_triangulation.cpp</text>
</a>
</g>
</g>
<!-- Node11&#45;&gt;Node12 -->
<g id="edge12" class="edge"><title>Node11&#45;&gt;Node12</title>
<path fill="none" stroke="midnightblue" d="M410.188,-79.1908C409.984,-70.2824 409.768,-60.8986 409.577,-52.6075"/>
<polygon fill="midnightblue" stroke="midnightblue" points="406.693,-79.4191 410.422,-89.336 413.691,-79.2582 406.693,-79.4191"/>
</g>
<!-- Node13 -->
<g id="node13" class="node"><title>Node13</title>
<g id="a_node13"><a xlink:href="greedy__triangulation__node_8cpp.html" target="_top" xlink:title="/home/jc/hull_abstraction\l/ros/src/hull_abstraction\l/src/greedy_triangulation\l_node.cpp">
<polygon fill="white" stroke="black" points="503.5,-0.5 503.5,-52.5 628.5,-52.5 628.5,-0.5 503.5,-0.5"/>
<text text-anchor="start" x="511.5" y="-40.5" font-family="Helvetica,sans-Serif" font-size="10.00">/home/jc/hull_abstraction</text>
<text text-anchor="start" x="511.5" y="-29.5" font-family="Helvetica,sans-Serif" font-size="10.00">/ros/src/hull_abstraction</text>
<text text-anchor="start" x="511.5" y="-18.5" font-family="Helvetica,sans-Serif" font-size="10.00">/src/greedy_triangulation</text>
<text text-anchor="middle" x="566" y="-7.5" font-family="Helvetica,sans-Serif" font-size="10.00">_node.cpp</text>
</a>
</g>
</g>
<!-- Node11&#45;&gt;Node13 -->
<g id="edge13" class="edge"><title>Node11&#45;&gt;Node13</title>
<path fill="none" stroke="midnightblue" d="M464.71,-84.3532C483.162,-73.9962 503.607,-62.5208 521.268,-52.6075"/>
<polygon fill="midnightblue" stroke="midnightblue" points="462.84,-81.3893 455.832,-89.336 466.266,-87.4934 462.84,-81.3893"/>
</g>
<!-- Node16 -->
<g id="node16" class="node"><title>Node16</title>
<g id="a_node16"><a xlink:href="marching__cubes_8cpp.html" target="_top" xlink:title="/home/jc/hull_abstraction\l/ros/src/hull_abstraction\l/src/marching_cubes_node\l/marching_cubes.cpp">
<polygon fill="white" stroke="black" points="1146,-0.5 1146,-52.5 1280,-52.5 1280,-0.5 1146,-0.5"/>
<text text-anchor="start" x="1154" y="-40.5" font-family="Helvetica,sans-Serif" font-size="10.00">/home/jc/hull_abstraction</text>
<text text-anchor="start" x="1154" y="-29.5" font-family="Helvetica,sans-Serif" font-size="10.00">/ros/src/hull_abstraction</text>
<text text-anchor="start" x="1154" y="-18.5" font-family="Helvetica,sans-Serif" font-size="10.00">/src/marching_cubes_node</text>
<text text-anchor="middle" x="1213" y="-7.5" font-family="Helvetica,sans-Serif" font-size="10.00">/marching_cubes.cpp</text>
</a>
</g>
</g>
<!-- Node15&#45;&gt;Node16 -->
<g id="edge16" class="edge"><title>Node15&#45;&gt;Node16</title>
<path fill="none" stroke="midnightblue" d="M1235.96,-80.0607C1231.95,-70.8956 1227.71,-61.169 1223.97,-52.6075"/>
<polygon fill="midnightblue" stroke="midnightblue" points="1232.8,-81.573 1240.01,-89.336 1239.21,-78.771 1232.8,-81.573"/>
</g>
<!-- Node17 -->
<g id="node17" class="node"><title>Node17</title>
<g id="a_node17"><a xlink:href="marching__cubes__node_8cpp.html" target="_top" xlink:title="/home/jc/hull_abstraction\l/ros/src/hull_abstraction\l/src/marching_cubes_node.cpp">
<polygon fill="white" stroke="black" points="1298,-6 1298,-47 1450,-47 1450,-6 1298,-6"/>
<text text-anchor="start" x="1306" y="-35" font-family="Helvetica,sans-Serif" font-size="10.00">/home/jc/hull_abstraction</text>
<text text-anchor="start" x="1306" y="-24" font-family="Helvetica,sans-Serif" font-size="10.00">/ros/src/hull_abstraction</text>
<text text-anchor="middle" x="1374" y="-13" font-family="Helvetica,sans-Serif" font-size="10.00">/src/marching_cubes_node.cpp</text>
</a>
</g>
</g>
<!-- Node15&#45;&gt;Node17 -->
<g id="edge17" class="edge"><title>Node15&#45;&gt;Node17</title>
<path fill="none" stroke="midnightblue" d="M1294.81,-83.5108C1311.97,-71.3744 1331.14,-57.818 1346.31,-47.0821"/>
<polygon fill="midnightblue" stroke="midnightblue" points="1292.72,-80.7038 1286.58,-89.336 1296.76,-86.4188 1292.72,-80.7038"/>
</g>
<!-- Node19 -->
<g id="node19" class="node"><title>Node19</title>
<g id="a_node19"><a xlink:href="poisson__reconstruction_8cpp.html" target="_top" xlink:title="/home/jc/hull_abstraction\l/ros/src/hull_abstraction\l/src/poisson_reconstruction\l_node/poisson_reconstruction.cpp">
<polygon fill="white" stroke="black" points="769.5,-0.5 769.5,-52.5 934.5,-52.5 934.5,-0.5 769.5,-0.5"/>
<text text-anchor="start" x="777.5" y="-40.5" font-family="Helvetica,sans-Serif" font-size="10.00">/home/jc/hull_abstraction</text>
<text text-anchor="start" x="777.5" y="-29.5" font-family="Helvetica,sans-Serif" font-size="10.00">/ros/src/hull_abstraction</text>
<text text-anchor="start" x="777.5" y="-18.5" font-family="Helvetica,sans-Serif" font-size="10.00">/src/poisson_reconstruction</text>
<text text-anchor="middle" x="852" y="-7.5" font-family="Helvetica,sans-Serif" font-size="10.00">_node/poisson_reconstruction.cpp</text>
</a>
</g>
</g>
<!-- Node18&#45;&gt;Node19 -->
<g id="edge19" class="edge"><title>Node18&#45;&gt;Node19</title>
<path fill="none" stroke="midnightblue" d="M910.647,-82.3631C900.148,-72.542 888.762,-61.8899 878.839,-52.6075"/>
<polygon fill="midnightblue" stroke="midnightblue" points="908.407,-85.0604 918.101,-89.336 913.189,-79.9484 908.407,-85.0604"/>
</g>
<!-- Node20 -->
<g id="node20" class="node"><title>Node20</title>
<g id="a_node20"><a xlink:href="poisson__reconstruction__node_8cpp.html" target="_top" xlink:title="/home/jc/hull_abstraction\l/ros/src/hull_abstraction\l/src/poisson_reconstruction\l_node.cpp">
<polygon fill="white" stroke="black" points="952.5,-0.5 952.5,-52.5 1089.5,-52.5 1089.5,-0.5 952.5,-0.5"/>
<text text-anchor="start" x="960.5" y="-40.5" font-family="Helvetica,sans-Serif" font-size="10.00">/home/jc/hull_abstraction</text>
<text text-anchor="start" x="960.5" y="-29.5" font-family="Helvetica,sans-Serif" font-size="10.00">/ros/src/hull_abstraction</text>
<text text-anchor="start" x="960.5" y="-18.5" font-family="Helvetica,sans-Serif" font-size="10.00">/src/poisson_reconstruction</text>
<text text-anchor="middle" x="1021" y="-7.5" font-family="Helvetica,sans-Serif" font-size="10.00">_node.cpp</text>
</a>
</g>
</g>
<!-- Node18&#45;&gt;Node20 -->
<g id="edge20" class="edge"><title>Node18&#45;&gt;Node20</title>
<path fill="none" stroke="midnightblue" d="M973.574,-81.79C982.014,-72.1288 991.116,-61.7097 999.067,-52.6075"/>
<polygon fill="midnightblue" stroke="midnightblue" points="970.925,-79.5022 966.982,-89.336 976.197,-84.1075 970.925,-79.5022"/>
</g>
<!-- Node23 -->
<g id="node23" class="node"><title>Node23</title>
<g id="a_node23"><a xlink:href="moving__least__squares_8cpp.html" target="_top" xlink:title="/home/jc/hull_abstraction\l/ros/src/hull_abstraction\l/src/moving_least_squares\l_node/moving_least_squares.cpp">
<polygon fill="white" stroke="black" points="1336,-89.5 1336,-141.5 1498,-141.5 1498,-89.5 1336,-89.5"/>
<text text-anchor="start" x="1344" y="-129.5" font-family="Helvetica,sans-Serif" font-size="10.00">/home/jc/hull_abstraction</text>
<text text-anchor="start" x="1344" y="-118.5" font-family="Helvetica,sans-Serif" font-size="10.00">/ros/src/hull_abstraction</text>
<text text-anchor="start" x="1344" y="-107.5" font-family="Helvetica,sans-Serif" font-size="10.00">/src/moving_least_squares</text>
<text text-anchor="middle" x="1417" y="-96.5" font-family="Helvetica,sans-Serif" font-size="10.00">_node/moving_least_squares.cpp</text>
</a>
</g>
</g>
<!-- Node22&#45;&gt;Node23 -->
<g id="edge25" class="edge"><title>Node22&#45;&gt;Node23</title>
<path fill="none" stroke="midnightblue" d="M1409.87,-168.191C1411.1,-159.282 1412.39,-149.899 1413.54,-141.607"/>
<polygon fill="midnightblue" stroke="midnightblue" points="1406.37,-167.952 1408.47,-178.336 1413.3,-168.908 1406.37,-167.952"/>
</g>
<!-- Node24 -->
<g id="node24" class="node"><title>Node24</title>
<g id="a_node24"><a xlink:href="moving__least__squares__node_8cpp.html" target="_top" xlink:title="/home/jc/hull_abstraction\l/ros/src/hull_abstraction\l/src/moving_least_squares\l_node.cpp">
<polygon fill="white" stroke="black" points="1516,-89.5 1516,-141.5 1650,-141.5 1650,-89.5 1516,-89.5"/>
<text text-anchor="start" x="1524" y="-129.5" font-family="Helvetica,sans-Serif" font-size="10.00">/home/jc/hull_abstraction</text>
<text text-anchor="start" x="1524" y="-118.5" font-family="Helvetica,sans-Serif" font-size="10.00">/ros/src/hull_abstraction</text>
<text text-anchor="start" x="1524" y="-107.5" font-family="Helvetica,sans-Serif" font-size="10.00">/src/moving_least_squares</text>
<text text-anchor="middle" x="1583" y="-96.5" font-family="Helvetica,sans-Serif" font-size="10.00">_node.cpp</text>
</a>
</g>
</g>
<!-- Node22&#45;&gt;Node24 -->
<g id="edge26" class="edge"><title>Node22&#45;&gt;Node24</title>
<path fill="none" stroke="midnightblue" d="M1465.53,-173.917C1487.02,-163.414 1510.98,-151.701 1531.63,-141.607"/>
<polygon fill="midnightblue" stroke="midnightblue" points="1463.93,-170.8 1456.48,-178.336 1467.01,-177.089 1463.93,-170.8"/>
</g>
<!-- Node26 -->
<g id="node26" class="node"><title>Node26</title>
<g id="a_node26"><a xlink:href="display__mesh_8cpp.html" target="_top" xlink:title="/home/jc/hull_abstraction\l/ros/src/hull_abstraction\l/src/display_mesh_node/display\l_mesh.cpp">
<polygon fill="white" stroke="black" points="1499,-178.5 1499,-230.5 1655,-230.5 1655,-178.5 1499,-178.5"/>
<text text-anchor="start" x="1507" y="-218.5" font-family="Helvetica,sans-Serif" font-size="10.00">/home/jc/hull_abstraction</text>
<text text-anchor="start" x="1507" y="-207.5" font-family="Helvetica,sans-Serif" font-size="10.00">/ros/src/hull_abstraction</text>
<text text-anchor="start" x="1507" y="-196.5" font-family="Helvetica,sans-Serif" font-size="10.00">/src/display_mesh_node/display</text>
<text text-anchor="middle" x="1577" y="-185.5" font-family="Helvetica,sans-Serif" font-size="10.00">_mesh.cpp</text>
</a>
</g>
</g>
<!-- Node25&#45;&gt;Node26 -->
<g id="edge30" class="edge"><title>Node25&#45;&gt;Node26</title>
<path fill="none" stroke="midnightblue" d="M1524.94,-265.094C1534.53,-254.116 1545.51,-241.545 1554.91,-230.788"/>
<polygon fill="midnightblue" stroke="midnightblue" points="1522.19,-262.925 1518.25,-272.758 1527.46,-267.53 1522.19,-262.925"/>
</g>
<!-- Node27 -->
<g id="node27" class="node"><title>Node27</title>
<g id="a_node27"><a xlink:href="display__mesh__node_8cpp.html" target="_top" xlink:title="/home/jc/hull_abstraction\l/ros/src/hull_abstraction\l/src/display_mesh_node.cpp">
<polygon fill="white" stroke="black" points="1673.5,-184 1673.5,-225 1814.5,-225 1814.5,-184 1673.5,-184"/>
<text text-anchor="start" x="1681.5" y="-213" font-family="Helvetica,sans-Serif" font-size="10.00">/home/jc/hull_abstraction</text>
<text text-anchor="start" x="1681.5" y="-202" font-family="Helvetica,sans-Serif" font-size="10.00">/ros/src/hull_abstraction</text>
<text text-anchor="middle" x="1744" y="-191" font-family="Helvetica,sans-Serif" font-size="10.00">/src/display_mesh_node.cpp</text>
</a>
</g>
</g>
<!-- Node25&#45;&gt;Node27 -->
<g id="edge31" class="edge"><title>Node25&#45;&gt;Node27</title>
<path fill="none" stroke="midnightblue" d="M1565.12,-269.542C1603.75,-255.714 1652.41,-238.291 1689.23,-225.11"/>
<polygon fill="midnightblue" stroke="midnightblue" points="1563.77,-266.31 1555.53,-272.976 1566.13,-272.9 1563.77,-266.31"/>
</g>
</g>
</svg>
