<?xml version="1.0" encoding="UTF-8" standalone="no"?>
<!DOCTYPE svg PUBLIC "-//W3C//DTD SVG 1.1//EN"
 "http://www.w3.org/Graphics/SVG/1.1/DTD/svg11.dtd">
<!-- Generated by graphviz version 2.38.0 (20140413.2041)
 -->
<!-- Title: /home/jc/hull_abstraction/ros/src/hull_abstraction/include/pcl_utilization/pcl_utilization.h Pages: 1 -->
<svg width="1550pt" height="417pt"
 viewBox="0.00 0.00 1549.50 417.00" xmlns="http://www.w3.org/2000/svg" xmlns:xlink="http://www.w3.org/1999/xlink">
<g id="graph0" class="graph" transform="scale(1 1) rotate(0) translate(4 413)">
<title>/home/jc/hull_abstraction/ros/src/hull_abstraction/include/pcl_utilization/pcl_utilization.h</title>
<polygon fill="white" stroke="none" points="-4,4 -4,-413 1545.5,-413 1545.5,4 -4,4"/>
<!-- Node1 -->
<g id="node1" class="node"><title>Node1</title>
<polygon fill="#bfbfbf" stroke="black" points="1114.5,-356.5 1114.5,-408.5 1239.5,-408.5 1239.5,-356.5 1114.5,-356.5"/>
<text text-anchor="start" x="1122.5" y="-396.5" font-family="Helvetica,sans-Serif" font-size="10.00">/home/jc/hull_abstraction</text>
<text text-anchor="start" x="1122.5" y="-385.5" font-family="Helvetica,sans-Serif" font-size="10.00">/ros/src/hull_abstraction</text>
<text text-anchor="start" x="1122.5" y="-374.5" font-family="Helvetica,sans-Serif" font-size="10.00">/include/pcl_utilization</text>
<text text-anchor="middle" x="1177" y="-363.5" font-family="Helvetica,sans-Serif" font-size="10.00">/pcl_utilization.h</text>
</g>
<!-- Node2 -->
<g id="node2" class="node"><title>Node2</title>
<g id="a_node2"><a xlink:href="ros_2src_2hull__abstraction_2include_2hull__abstraction_2preprocessor_8h.html" target="_top" xlink:title="/home/jc/hull_abstraction\l/ros/src/hull_abstraction\l/include/hull_abstraction\l/preprocessor.h">
<polygon fill="white" stroke="black" points="728.5,-267.5 728.5,-319.5 853.5,-319.5 853.5,-267.5 728.5,-267.5"/>
<text text-anchor="start" x="736.5" y="-307.5" font-family="Helvetica,sans-Serif" font-size="10.00">/home/jc/hull_abstraction</text>
<text text-anchor="start" x="736.5" y="-296.5" font-family="Helvetica,sans-Serif" font-size="10.00">/ros/src/hull_abstraction</text>
<text text-anchor="start" x="736.5" y="-285.5" font-family="Helvetica,sans-Serif" font-size="10.00">/include/hull_abstraction</text>
<text text-anchor="middle" x="791" y="-274.5" font-family="Helvetica,sans-Serif" font-size="10.00">/preprocessor.h</text>
</a>
</g>
</g>
<!-- Node1&#45;&gt;Node2 -->
<g id="edge1" class="edge"><title>Node1&#45;&gt;Node2</title>
<path fill="none" stroke="midnightblue" d="M1104.17,-365.085C1031.82,-348.778 922.047,-324.037 853.53,-308.593"/>
<polygon fill="midnightblue" stroke="midnightblue" points="1103.6,-368.544 1114.12,-367.328 1105.14,-361.715 1103.6,-368.544"/>
</g>
<!-- Node8 -->
<g id="node8" class="node"><title>Node8</title>
<g id="a_node8"><a xlink:href="bspline__surface__fitting_8h.html" target="_top" xlink:title="Framework of b&#45;spline surface fitting node. ">
<polygon fill="white" stroke="black" points="1228,-89.5 1228,-141.5 1380,-141.5 1380,-89.5 1228,-89.5"/>
<text text-anchor="start" x="1236" y="-129.5" font-family="Helvetica,sans-Serif" font-size="10.00">/home/jc/hull_abstraction</text>
<text text-anchor="start" x="1236" y="-118.5" font-family="Helvetica,sans-Serif" font-size="10.00">/ros/src/hull_abstraction</text>
<text text-anchor="start" x="1236" y="-107.5" font-family="Helvetica,sans-Serif" font-size="10.00">/src/bspline_surface_fitting</text>
<text text-anchor="middle" x="1304" y="-96.5" font-family="Helvetica,sans-Serif" font-size="10.00">_node/bspline_surface_fitting.h</text>
</a>
</g>
</g>
<!-- Node1&#45;&gt;Node8 -->
<g id="edge24" class="edge"><title>Node1&#45;&gt;Node8</title>
<path fill="none" stroke="midnightblue" d="M1173.49,-346.301C1170.98,-303.103 1172.69,-229.29 1206,-178 1215.79,-162.923 1230.71,-150.871 1245.98,-141.572"/>
<polygon fill="midnightblue" stroke="midnightblue" points="1170,-346.596 1174.18,-356.332 1176.99,-346.115 1170,-346.596"/>
</g>
<!-- Node11 -->
<g id="node11" class="node"><title>Node11</title>
<g id="a_node11"><a xlink:href="greedy__triangulation_8h.html" target="_top" xlink:title="Framework of greedy triangulation node. ">
<polygon fill="white" stroke="black" points="1068.5,-89.5 1068.5,-141.5 1209.5,-141.5 1209.5,-89.5 1068.5,-89.5"/>
<text text-anchor="start" x="1076.5" y="-129.5" font-family="Helvetica,sans-Serif" font-size="10.00">/home/jc/hull_abstraction</text>
<text text-anchor="start" x="1076.5" y="-118.5" font-family="Helvetica,sans-Serif" font-size="10.00">/ros/src/hull_abstraction</text>
<text text-anchor="start" x="1076.5" y="-107.5" font-family="Helvetica,sans-Serif" font-size="10.00">/src/greedy_triangulation</text>
<text text-anchor="middle" x="1139" y="-96.5" font-family="Helvetica,sans-Serif" font-size="10.00">_node/greedy_triangulation.h</text>
</a>
</g>
</g>
<!-- Node1&#45;&gt;Node11 -->
<g id="edge28" class="edge"><title>Node1&#45;&gt;Node11</title>
<path fill="none" stroke="midnightblue" d="M1168.39,-346.667C1166.44,-337.992 1164.5,-328.687 1163,-320 1152.01,-256.194 1144.51,-180.257 1141.1,-141.687"/>
<polygon fill="midnightblue" stroke="midnightblue" points="1165,-347.537 1170.67,-356.487 1171.82,-345.955 1165,-347.537"/>
</g>
<!-- Node22 -->
<g id="node22" class="node"><title>Node22</title>
<g id="a_node22"><a xlink:href="display__mesh_8h.html" target="_top" xlink:title="Framework of node for displaying polygon meshes. ">
<polygon fill="white" stroke="black" points="1205,-273 1205,-314 1399,-314 1399,-273 1205,-273"/>
<text text-anchor="start" x="1213" y="-302" font-family="Helvetica,sans-Serif" font-size="10.00">/home/jc/hull_abstraction</text>
<text text-anchor="start" x="1213" y="-291" font-family="Helvetica,sans-Serif" font-size="10.00">/ros/src/hull_abstraction</text>
<text text-anchor="middle" x="1302" y="-280" font-family="Helvetica,sans-Serif" font-size="10.00">/src/display_mesh_node/display_mesh.h</text>
</a>
</g>
</g>
<!-- Node1&#45;&gt;Node22 -->
<g id="edge25" class="edge"><title>Node1&#45;&gt;Node22</title>
<path fill="none" stroke="midnightblue" d="M1221.52,-350.511C1238.96,-338.374 1258.44,-324.818 1273.86,-314.082"/>
<polygon fill="midnightblue" stroke="midnightblue" points="1219.36,-347.751 1213.16,-356.336 1223.36,-353.496 1219.36,-347.751"/>
</g>
<!-- Node25 -->
<g id="node25" class="node"><title>Node25</title>
<g id="a_node25"><a xlink:href="pcl__utilization_8cpp.html" target="_top" xlink:title="/home/jc/hull_abstraction\l/ros/src/hull_abstraction\l/src/pcl_utilization/pcl\l_utilization.cpp">
<polygon fill="white" stroke="black" points="1416.5,-267.5 1416.5,-319.5 1541.5,-319.5 1541.5,-267.5 1416.5,-267.5"/>
<text text-anchor="start" x="1424.5" y="-307.5" font-family="Helvetica,sans-Serif" font-size="10.00">/home/jc/hull_abstraction</text>
<text text-anchor="start" x="1424.5" y="-296.5" font-family="Helvetica,sans-Serif" font-size="10.00">/ros/src/hull_abstraction</text>
<text text-anchor="start" x="1424.5" y="-285.5" font-family="Helvetica,sans-Serif" font-size="10.00">/src/pcl_utilization/pcl</text>
<text text-anchor="middle" x="1479" y="-274.5" font-family="Helvetica,sans-Serif" font-size="10.00">_utilization.cpp</text>
</a>
</g>
</g>
<!-- Node1&#45;&gt;Node25 -->
<g id="edge29" class="edge"><title>Node1&#45;&gt;Node25</title>
<path fill="none" stroke="midnightblue" d="M1249.49,-363.876C1295.24,-352.343 1355.41,-336.414 1408,-320 1410.75,-319.142 1413.55,-318.242 1416.38,-317.316"/>
<polygon fill="midnightblue" stroke="midnightblue" points="1248.51,-360.513 1239.67,-366.342 1250.22,-367.303 1248.51,-360.513"/>
</g>
<!-- Node3 -->
<g id="node3" class="node"><title>Node3</title>
<g id="a_node3"><a xlink:href="prototype_2include_2hull__abstraction_2reconstructor_8h.html" target="_top" xlink:title="/home/jc/hull_abstraction\l/prototype/include/hull\l_abstraction/reconstructor.h">
<polygon fill="white" stroke="black" points="561,-184 561,-225 699,-225 699,-184 561,-184"/>
<text text-anchor="start" x="569" y="-213" font-family="Helvetica,sans-Serif" font-size="10.00">/home/jc/hull_abstraction</text>
<text text-anchor="start" x="569" y="-202" font-family="Helvetica,sans-Serif" font-size="10.00">/prototype/include/hull</text>
<text text-anchor="middle" x="630" y="-191" font-family="Helvetica,sans-Serif" font-size="10.00">_abstraction/reconstructor.h</text>
</a>
</g>
</g>
<!-- Node2&#45;&gt;Node3 -->
<g id="edge2" class="edge"><title>Node2&#45;&gt;Node3</title>
<path fill="none" stroke="midnightblue" d="M735.484,-262.501C712.565,-250.116 686.648,-236.111 666.238,-225.082"/>
<polygon fill="midnightblue" stroke="midnightblue" points="733.971,-265.661 744.432,-267.336 737.298,-259.503 733.971,-265.661"/>
</g>
<!-- Node4 -->
<g id="node4" class="node"><title>Node4</title>
<g id="a_node4"><a xlink:href="prototype_2src_2hull__abstraction_2preprocessor_8cpp.html" target="_top" xlink:title="/home/jc/hull_abstraction\l/prototype/src/hull_abstraction\l/preprocessor.cpp">
<polygon fill="white" stroke="black" points="717,-184 717,-225 865,-225 865,-184 717,-184"/>
<text text-anchor="start" x="725" y="-213" font-family="Helvetica,sans-Serif" font-size="10.00">/home/jc/hull_abstraction</text>
<text text-anchor="start" x="725" y="-202" font-family="Helvetica,sans-Serif" font-size="10.00">/prototype/src/hull_abstraction</text>
<text text-anchor="middle" x="791" y="-191" font-family="Helvetica,sans-Serif" font-size="10.00">/preprocessor.cpp</text>
</a>
</g>
</g>
<!-- Node2&#45;&gt;Node4 -->
<g id="edge3" class="edge"><title>Node2&#45;&gt;Node4</title>
<path fill="none" stroke="midnightblue" d="M791,-257.155C791,-246.21 791,-234.549 791,-225.082"/>
<polygon fill="midnightblue" stroke="midnightblue" points="787.5,-257.336 791,-267.336 794.5,-257.336 787.5,-257.336"/>
</g>
<!-- Node5 -->
<g id="node5" class="node"><title>Node5</title>
<g id="a_node5"><a xlink:href="main_8cpp.html" target="_top" xlink:title="/home/jc/hull_abstraction\l/prototype/src/main.cpp">
<polygon fill="white" stroke="black" points="557.5,-100.5 557.5,-130.5 682.5,-130.5 682.5,-100.5 557.5,-100.5"/>
<text text-anchor="start" x="565.5" y="-118.5" font-family="Helvetica,sans-Serif" font-size="10.00">/home/jc/hull_abstraction</text>
<text text-anchor="middle" x="620" y="-107.5" font-family="Helvetica,sans-Serif" font-size="10.00">/prototype/src/main.cpp</text>
</a>
</g>
</g>
<!-- Node2&#45;&gt;Node5 -->
<g id="edge4" class="edge"><title>Node2&#45;&gt;Node5</title>
<path fill="none" stroke="midnightblue" d="M848.442,-261.183C858.752,-252.804 868.086,-242.743 874,-231 884.596,-209.962 888.963,-196.193 874,-178 821.346,-113.979 770.9,-164.072 691,-142 679.386,-138.792 666.949,-134.596 655.782,-130.537"/>
<polygon fill="midnightblue" stroke="midnightblue" points="846.271,-258.437 840.409,-267.263 850.495,-264.019 846.271,-258.437"/>
</g>
<!-- Node6 -->
<g id="node6" class="node"><title>Node6</title>
<g id="a_node6"><a xlink:href="ros_2src_2hull__abstraction_2include_2hull__abstraction_2reconstructor_8h.html" target="_top" xlink:title="This file contains the declaration of the Reconstructor class. ">
<polygon fill="white" stroke="black" points="921.5,-178.5 921.5,-230.5 1046.5,-230.5 1046.5,-178.5 921.5,-178.5"/>
<text text-anchor="start" x="929.5" y="-218.5" font-family="Helvetica,sans-Serif" font-size="10.00">/home/jc/hull_abstraction</text>
<text text-anchor="start" x="929.5" y="-207.5" font-family="Helvetica,sans-Serif" font-size="10.00">/ros/src/hull_abstraction</text>
<text text-anchor="start" x="929.5" y="-196.5" font-family="Helvetica,sans-Serif" font-size="10.00">/include/hull_abstraction</text>
<text text-anchor="middle" x="984" y="-185.5" font-family="Helvetica,sans-Serif" font-size="10.00">/reconstructor.h</text>
</a>
</g>
</g>
<!-- Node2&#45;&gt;Node6 -->
<g id="edge5" class="edge"><title>Node2&#45;&gt;Node6</title>
<path fill="none" stroke="midnightblue" d="M855.789,-263.295C879.369,-252.665 905.79,-240.755 928.493,-230.521"/>
<polygon fill="midnightblue" stroke="midnightblue" points="854.243,-260.152 846.565,-267.453 857.12,-266.534 854.243,-260.152"/>
</g>
<!-- Node2&#45;&gt;Node11 -->
<g id="edge18" class="edge"><title>Node2&#45;&gt;Node11</title>
<path fill="none" stroke="midnightblue" d="M863.944,-289.12C920.19,-283.464 997.78,-268.765 1055,-231 1088.75,-208.728 1113.73,-168.001 1127.33,-141.605"/>
<polygon fill="midnightblue" stroke="midnightblue" points="863.332,-285.662 853.7,-290.074 863.981,-292.632 863.332,-285.662"/>
</g>
<!-- Node15 -->
<g id="node15" class="node"><title>Node15</title>
<g id="a_node15"><a xlink:href="poisson__reconstruction_8h.html" target="_top" xlink:title="Framework of Poisson reconstruction node. ">
<polygon fill="white" stroke="black" points="367.5,-89.5 367.5,-141.5 522.5,-141.5 522.5,-89.5 367.5,-89.5"/>
<text text-anchor="start" x="375.5" y="-129.5" font-family="Helvetica,sans-Serif" font-size="10.00">/home/jc/hull_abstraction</text>
<text text-anchor="start" x="375.5" y="-118.5" font-family="Helvetica,sans-Serif" font-size="10.00">/ros/src/hull_abstraction</text>
<text text-anchor="start" x="375.5" y="-107.5" font-family="Helvetica,sans-Serif" font-size="10.00">/src/poisson_reconstruction</text>
<text text-anchor="middle" x="445" y="-96.5" font-family="Helvetica,sans-Serif" font-size="10.00">_node/poisson_reconstruction.h</text>
</a>
</g>
</g>
<!-- Node2&#45;&gt;Node15 -->
<g id="edge23" class="edge"><title>Node2&#45;&gt;Node15</title>
<path fill="none" stroke="midnightblue" d="M717.836,-293.322C605.48,-292.845 398.525,-284.497 352,-231 336.542,-213.226 340.846,-198.748 352,-178 360.066,-162.997 373.575,-151.041 387.833,-141.811"/>
<polygon fill="midnightblue" stroke="midnightblue" points="718.067,-296.823 728.075,-293.345 718.083,-289.823 718.067,-296.823"/>
</g>
<!-- Node18 -->
<g id="node18" class="node"><title>Node18</title>
<g id="a_node18"><a xlink:href="ros_2src_2hull__abstraction_2src_2hull__abstraction_2preprocessor_8cpp.html" target="_top" xlink:title="/home/jc/hull_abstraction\l/ros/src/hull_abstraction\l/src/hull_abstraction/preprocessor.cpp">
<polygon fill="white" stroke="black" points="361,-184 361,-225 543,-225 543,-184 361,-184"/>
<text text-anchor="start" x="369" y="-213" font-family="Helvetica,sans-Serif" font-size="10.00">/home/jc/hull_abstraction</text>
<text text-anchor="start" x="369" y="-202" font-family="Helvetica,sans-Serif" font-size="10.00">/ros/src/hull_abstraction</text>
<text text-anchor="middle" x="452" y="-191" font-family="Helvetica,sans-Serif" font-size="10.00">/src/hull_abstraction/preprocessor.cpp</text>
</a>
</g>
</g>
<!-- Node2&#45;&gt;Node18 -->
<g id="edge19" class="edge"><title>Node2&#45;&gt;Node18</title>
<path fill="none" stroke="midnightblue" d="M718.572,-273.912C662.525,-259.529 585.119,-239.663 528.154,-225.044"/>
<polygon fill="midnightblue" stroke="midnightblue" points="717.871,-277.346 728.427,-276.441 719.611,-270.565 717.871,-277.346"/>
</g>
<!-- Node19 -->
<g id="node19" class="node"><title>Node19</title>
<g id="a_node19"><a xlink:href="moving__least__squares_8h.html" target="_top" xlink:title="Framework of moving least squares node. ">
<polygon fill="white" stroke="black" points="153,-178.5 153,-230.5 305,-230.5 305,-178.5 153,-178.5"/>
<text text-anchor="start" x="161" y="-218.5" font-family="Helvetica,sans-Serif" font-size="10.00">/home/jc/hull_abstraction</text>
<text text-anchor="start" x="161" y="-207.5" font-family="Helvetica,sans-Serif" font-size="10.00">/ros/src/hull_abstraction</text>
<text text-anchor="start" x="161" y="-196.5" font-family="Helvetica,sans-Serif" font-size="10.00">/src/moving_least_squares</text>
<text text-anchor="middle" x="229" y="-185.5" font-family="Helvetica,sans-Serif" font-size="10.00">_node/moving_least_squares.h</text>
</a>
</g>
</g>
<!-- Node2&#45;&gt;Node19 -->
<g id="edge20" class="edge"><title>Node2&#45;&gt;Node19</title>
<path fill="none" stroke="midnightblue" d="M718.119,-286.346C624.919,-277.713 458.848,-259.761 319,-231 314.546,-230.084 309.99,-229.063 305.407,-227.972"/>
<polygon fill="midnightblue" stroke="midnightblue" points="718.01,-289.85 728.288,-287.277 718.649,-282.879 718.01,-289.85"/>
</g>
<!-- Node6&#45;&gt;Node5 -->
<g id="edge7" class="edge"><title>Node6&#45;&gt;Node5</title>
<path fill="none" stroke="midnightblue" d="M911.39,-179.118C909.917,-178.733 908.452,-178.359 907,-178 812.523,-154.632 785.178,-166.548 691,-142 679.213,-138.928 666.62,-134.722 655.362,-130.613"/>
<polygon fill="midnightblue" stroke="midnightblue" points="910.629,-182.539 921.2,-181.823 912.49,-175.791 910.629,-182.539"/>
</g>
<!-- Node7 -->
<g id="node7" class="node"><title>Node7</title>
<g id="a_node7"><a xlink:href="prototype_2src_2hull__abstraction_2reconstructor_8cpp.html" target="_top" xlink:title="/home/jc/hull_abstraction\l/prototype/src/hull_abstraction\l/reconstructor.cpp">
<polygon fill="white" stroke="black" points="902,-95 902,-136 1050,-136 1050,-95 902,-95"/>
<text text-anchor="start" x="910" y="-124" font-family="Helvetica,sans-Serif" font-size="10.00">/home/jc/hull_abstraction</text>
<text text-anchor="start" x="910" y="-113" font-family="Helvetica,sans-Serif" font-size="10.00">/prototype/src/hull_abstraction</text>
<text text-anchor="middle" x="976" y="-102" font-family="Helvetica,sans-Serif" font-size="10.00">/reconstructor.cpp</text>
</a>
</g>
</g>
<!-- Node6&#45;&gt;Node7 -->
<g id="edge6" class="edge"><title>Node6&#45;&gt;Node7</title>
<path fill="none" stroke="midnightblue" d="M980.75,-168.155C979.743,-157.21 978.671,-145.549 977.801,-136.082"/>
<polygon fill="midnightblue" stroke="midnightblue" points="977.285,-168.699 981.686,-178.336 984.256,-168.057 977.285,-168.699"/>
</g>
<!-- Node6&#45;&gt;Node8 -->
<g id="edge8" class="edge"><title>Node6&#45;&gt;Node8</title>
<path fill="none" stroke="midnightblue" d="M1056.65,-185.029C1102.93,-173.109 1164.11,-157.068 1218,-142 1221.15,-141.119 1224.36,-140.212 1227.6,-139.287"/>
<polygon fill="midnightblue" stroke="midnightblue" points="1055.53,-181.704 1046.71,-187.584 1057.27,-188.484 1055.53,-181.704"/>
</g>
<!-- Node6&#45;&gt;Node11 -->
<g id="edge11" class="edge"><title>Node6&#45;&gt;Node11</title>
<path fill="none" stroke="midnightblue" d="M1037.71,-173.353C1056.16,-162.996 1076.61,-151.521 1094.27,-141.607"/>
<polygon fill="midnightblue" stroke="midnightblue" points="1035.84,-170.389 1028.83,-178.336 1039.27,-176.493 1035.84,-170.389"/>
</g>
<!-- Node14 -->
<g id="node14" class="node"><title>Node14</title>
<g id="a_node14"><a xlink:href="ros_2src_2hull__abstraction_2src_2hull__abstraction_2reconstructor_8cpp.html" target="_top" xlink:title="/home/jc/hull_abstraction\l/ros/src/hull_abstraction\l/src/hull_abstraction/reconstructor.cpp">
<polygon fill="white" stroke="black" points="700.5,-95 700.5,-136 883.5,-136 883.5,-95 700.5,-95"/>
<text text-anchor="start" x="708.5" y="-124" font-family="Helvetica,sans-Serif" font-size="10.00">/home/jc/hull_abstraction</text>
<text text-anchor="start" x="708.5" y="-113" font-family="Helvetica,sans-Serif" font-size="10.00">/ros/src/hull_abstraction</text>
<text text-anchor="middle" x="792" y="-102" font-family="Helvetica,sans-Serif" font-size="10.00">/src/hull_abstraction/reconstructor.cpp</text>
</a>
</g>
</g>
<!-- Node6&#45;&gt;Node14 -->
<g id="edge14" class="edge"><title>Node6&#45;&gt;Node14</title>
<path fill="none" stroke="midnightblue" d="M919.495,-174.271C891.794,-161.719 860.158,-147.384 835.33,-136.134"/>
<polygon fill="midnightblue" stroke="midnightblue" points="918.17,-177.513 928.723,-178.453 921.059,-171.137 918.17,-177.513"/>
</g>
<!-- Node6&#45;&gt;Node15 -->
<g id="edge15" class="edge"><title>Node6&#45;&gt;Node15</title>
<path fill="none" stroke="midnightblue" d="M911.54,-185.429C899.07,-182.685 886.199,-180.08 874,-178 730.304,-153.498 691.509,-167.572 548,-142 539.748,-140.53 531.176,-138.776 522.658,-136.887"/>
<polygon fill="midnightblue" stroke="midnightblue" points="910.91,-188.875 921.434,-187.652 912.445,-182.045 910.91,-188.875"/>
</g>
<!-- Node9 -->
<g id="node9" class="node"><title>Node9</title>
<g id="a_node9"><a xlink:href="bspline__surface__fitting_8cpp.html" target="_top" xlink:title="/home/jc/hull_abstraction\l/ros/src/hull_abstraction\l/src/bspline_surface_fitting\l_node/bspline_surface_fitting.cpp">
<polygon fill="white" stroke="black" points="1222,-0.5 1222,-52.5 1384,-52.5 1384,-0.5 1222,-0.5"/>
<text text-anchor="start" x="1230" y="-40.5" font-family="Helvetica,sans-Serif" font-size="10.00">/home/jc/hull_abstraction</text>
<text text-anchor="start" x="1230" y="-29.5" font-family="Helvetica,sans-Serif" font-size="10.00">/ros/src/hull_abstraction</text>
<text text-anchor="start" x="1230" y="-18.5" font-family="Helvetica,sans-Serif" font-size="10.00">/src/bspline_surface_fitting</text>
<text text-anchor="middle" x="1303" y="-7.5" font-family="Helvetica,sans-Serif" font-size="10.00">_node/bspline_surface_fitting.cpp</text>
</a>
</g>
</g>
<!-- Node8&#45;&gt;Node9 -->
<g id="edge9" class="edge"><title>Node8&#45;&gt;Node9</title>
<path fill="none" stroke="midnightblue" d="M1303.59,-79.1908C1303.49,-70.2824 1303.38,-60.8986 1303.29,-52.6075"/>
<polygon fill="midnightblue" stroke="midnightblue" points="1300.1,-79.3769 1303.71,-89.336 1307.1,-79.2964 1300.1,-79.3769"/>
</g>
<!-- Node10 -->
<g id="node10" class="node"><title>Node10</title>
<g id="a_node10"><a xlink:href="bspline__surface__fitting__node_8cpp.html" target="_top" xlink:title="/home/jc/hull_abstraction\l/ros/src/hull_abstraction\l/src/bspline_surface_fitting\l_node.cpp">
<polygon fill="white" stroke="black" points="1402,-0.5 1402,-52.5 1536,-52.5 1536,-0.5 1402,-0.5"/>
<text text-anchor="start" x="1410" y="-40.5" font-family="Helvetica,sans-Serif" font-size="10.00">/home/jc/hull_abstraction</text>
<text text-anchor="start" x="1410" y="-29.5" font-family="Helvetica,sans-Serif" font-size="10.00">/ros/src/hull_abstraction</text>
<text text-anchor="start" x="1410" y="-18.5" font-family="Helvetica,sans-Serif" font-size="10.00">/src/bspline_surface_fitting</text>
<text text-anchor="middle" x="1469" y="-7.5" font-family="Helvetica,sans-Serif" font-size="10.00">_node.cpp</text>
</a>
</g>
</g>
<!-- Node8&#45;&gt;Node10 -->
<g id="edge10" class="edge"><title>Node8&#45;&gt;Node10</title>
<path fill="none" stroke="midnightblue" d="M1360.64,-84.6354C1380.42,-74.2049 1402.41,-62.6109 1421.38,-52.6075"/>
<polygon fill="midnightblue" stroke="midnightblue" points="1358.94,-81.5759 1351.72,-89.336 1362.2,-87.7678 1358.94,-81.5759"/>
</g>
<!-- Node12 -->
<g id="node12" class="node"><title>Node12</title>
<g id="a_node12"><a xlink:href="greedy__triangulation_8cpp.html" target="_top" xlink:title="/home/jc/hull_abstraction\l/ros/src/hull_abstraction\l/src/greedy_triangulation\l_node/greedy_triangulation.cpp">
<polygon fill="white" stroke="black" points="907,-0.5 907,-52.5 1059,-52.5 1059,-0.5 907,-0.5"/>
<text text-anchor="start" x="915" y="-40.5" font-family="Helvetica,sans-Serif" font-size="10.00">/home/jc/hull_abstraction</text>
<text text-anchor="start" x="915" y="-29.5" font-family="Helvetica,sans-Serif" font-size="10.00">/ros/src/hull_abstraction</text>
<text text-anchor="start" x="915" y="-18.5" font-family="Helvetica,sans-Serif" font-size="10.00">/src/greedy_triangulation</text>
<text text-anchor="middle" x="983" y="-7.5" font-family="Helvetica,sans-Serif" font-size="10.00">_node/greedy_triangulation.cpp</text>
</a>
</g>
</g>
<!-- Node11&#45;&gt;Node12 -->
<g id="edge12" class="edge"><title>Node11&#45;&gt;Node12</title>
<path fill="none" stroke="midnightblue" d="M1084.94,-84.3532C1066.37,-73.9962 1045.8,-62.5208 1028.02,-52.6075"/>
<polygon fill="midnightblue" stroke="midnightblue" points="1083.44,-87.522 1093.88,-89.336 1086.85,-81.4085 1083.44,-87.522"/>
</g>
<!-- Node13 -->
<g id="node13" class="node"><title>Node13</title>
<g id="a_node13"><a xlink:href="greedy__triangulation__node_8cpp.html" target="_top" xlink:title="/home/jc/hull_abstraction\l/ros/src/hull_abstraction\l/src/greedy_triangulation\l_node.cpp">
<polygon fill="white" stroke="black" points="1077.5,-0.5 1077.5,-52.5 1202.5,-52.5 1202.5,-0.5 1077.5,-0.5"/>
<text text-anchor="start" x="1085.5" y="-40.5" font-family="Helvetica,sans-Serif" font-size="10.00">/home/jc/hull_abstraction</text>
<text text-anchor="start" x="1085.5" y="-29.5" font-family="Helvetica,sans-Serif" font-size="10.00">/ros/src/hull_abstraction</text>
<text text-anchor="start" x="1085.5" y="-18.5" font-family="Helvetica,sans-Serif" font-size="10.00">/src/greedy_triangulation</text>
<text text-anchor="middle" x="1140" y="-7.5" font-family="Helvetica,sans-Serif" font-size="10.00">_node.cpp</text>
</a>
</g>
</g>
<!-- Node11&#45;&gt;Node13 -->
<g id="edge13" class="edge"><title>Node11&#45;&gt;Node13</title>
<path fill="none" stroke="midnightblue" d="M1139.41,-79.1908C1139.51,-70.2824 1139.62,-60.8986 1139.71,-52.6075"/>
<polygon fill="midnightblue" stroke="midnightblue" points="1135.9,-79.2964 1139.29,-89.336 1142.9,-79.3769 1135.9,-79.2964"/>
</g>
<!-- Node16 -->
<g id="node16" class="node"><title>Node16</title>
<g id="a_node16"><a xlink:href="poisson__reconstruction_8cpp.html" target="_top" xlink:title="/home/jc/hull_abstraction\l/ros/src/hull_abstraction\l/src/poisson_reconstruction\l_node/poisson_reconstruction.cpp">
<polygon fill="white" stroke="black" points="278.5,-0.5 278.5,-52.5 443.5,-52.5 443.5,-0.5 278.5,-0.5"/>
<text text-anchor="start" x="286.5" y="-40.5" font-family="Helvetica,sans-Serif" font-size="10.00">/home/jc/hull_abstraction</text>
<text text-anchor="start" x="286.5" y="-29.5" font-family="Helvetica,sans-Serif" font-size="10.00">/ros/src/hull_abstraction</text>
<text text-anchor="start" x="286.5" y="-18.5" font-family="Helvetica,sans-Serif" font-size="10.00">/src/poisson_reconstruction</text>
<text text-anchor="middle" x="361" y="-7.5" font-family="Helvetica,sans-Serif" font-size="10.00">_node/poisson_reconstruction.cpp</text>
</a>
</g>
</g>
<!-- Node15&#45;&gt;Node16 -->
<g id="edge16" class="edge"><title>Node15&#45;&gt;Node16</title>
<path fill="none" stroke="midnightblue" d="M413.695,-82.0768C404.289,-72.3353 394.117,-61.7998 385.242,-52.6075"/>
<polygon fill="midnightblue" stroke="midnightblue" points="411.24,-84.573 420.704,-89.336 416.276,-79.7109 411.24,-84.573"/>
</g>
<!-- Node17 -->
<g id="node17" class="node"><title>Node17</title>
<g id="a_node17"><a xlink:href="poisson__reconstruction__node_8cpp.html" target="_top" xlink:title="/home/jc/hull_abstraction\l/ros/src/hull_abstraction\l/src/poisson_reconstruction\l_node.cpp">
<polygon fill="white" stroke="black" points="461.5,-0.5 461.5,-52.5 598.5,-52.5 598.5,-0.5 461.5,-0.5"/>
<text text-anchor="start" x="469.5" y="-40.5" font-family="Helvetica,sans-Serif" font-size="10.00">/home/jc/hull_abstraction</text>
<text text-anchor="start" x="469.5" y="-29.5" font-family="Helvetica,sans-Serif" font-size="10.00">/ros/src/hull_abstraction</text>
<text text-anchor="start" x="469.5" y="-18.5" font-family="Helvetica,sans-Serif" font-size="10.00">/src/poisson_reconstruction</text>
<text text-anchor="middle" x="530" y="-7.5" font-family="Helvetica,sans-Serif" font-size="10.00">_node.cpp</text>
</a>
</g>
</g>
<!-- Node15&#45;&gt;Node17 -->
<g id="edge17" class="edge"><title>Node15&#45;&gt;Node17</title>
<path fill="none" stroke="midnightblue" d="M476.678,-82.0768C486.195,-72.3353 496.489,-61.7998 505.47,-52.6075"/>
<polygon fill="midnightblue" stroke="midnightblue" points="474.07,-79.7372 469.586,-89.336 479.077,-84.6291 474.07,-79.7372"/>
</g>
<!-- Node20 -->
<g id="node20" class="node"><title>Node20</title>
<g id="a_node20"><a xlink:href="moving__least__squares_8cpp.html" target="_top" xlink:title="/home/jc/hull_abstraction\l/ros/src/hull_abstraction\l/src/moving_least_squares\l_node/moving_least_squares.cpp">
<polygon fill="white" stroke="black" points="0,-89.5 0,-141.5 162,-141.5 162,-89.5 0,-89.5"/>
<text text-anchor="start" x="8" y="-129.5" font-family="Helvetica,sans-Serif" font-size="10.00">/home/jc/hull_abstraction</text>
<text text-anchor="start" x="8" y="-118.5" font-family="Helvetica,sans-Serif" font-size="10.00">/ros/src/hull_abstraction</text>
<text text-anchor="start" x="8" y="-107.5" font-family="Helvetica,sans-Serif" font-size="10.00">/src/moving_least_squares</text>
<text text-anchor="middle" x="81" y="-96.5" font-family="Helvetica,sans-Serif" font-size="10.00">_node/moving_least_squares.cpp</text>
</a>
</g>
</g>
<!-- Node19&#45;&gt;Node20 -->
<g id="edge21" class="edge"><title>Node19&#45;&gt;Node20</title>
<path fill="none" stroke="midnightblue" d="M177.235,-173.07C159.742,-162.788 140.422,-151.431 123.712,-141.607"/>
<polygon fill="midnightblue" stroke="midnightblue" points="175.798,-176.286 186.192,-178.336 179.345,-170.251 175.798,-176.286"/>
</g>
<!-- Node21 -->
<g id="node21" class="node"><title>Node21</title>
<g id="a_node21"><a xlink:href="moving__least__squares__node_8cpp.html" target="_top" xlink:title="/home/jc/hull_abstraction\l/ros/src/hull_abstraction\l/src/moving_least_squares\l_node.cpp">
<polygon fill="white" stroke="black" points="180,-89.5 180,-141.5 314,-141.5 314,-89.5 180,-89.5"/>
<text text-anchor="start" x="188" y="-129.5" font-family="Helvetica,sans-Serif" font-size="10.00">/home/jc/hull_abstraction</text>
<text text-anchor="start" x="188" y="-118.5" font-family="Helvetica,sans-Serif" font-size="10.00">/ros/src/hull_abstraction</text>
<text text-anchor="start" x="188" y="-107.5" font-family="Helvetica,sans-Serif" font-size="10.00">/src/moving_least_squares</text>
<text text-anchor="middle" x="247" y="-96.5" font-family="Helvetica,sans-Serif" font-size="10.00">_node.cpp</text>
</a>
</g>
</g>
<!-- Node19&#45;&gt;Node21 -->
<g id="edge22" class="edge"><title>Node19&#45;&gt;Node21</title>
<path fill="none" stroke="midnightblue" d="M236.245,-168.481C238.106,-159.487 240.071,-149.989 241.805,-141.607"/>
<polygon fill="midnightblue" stroke="midnightblue" points="232.805,-167.834 234.206,-178.336 239.66,-169.253 232.805,-167.834"/>
</g>
<!-- Node23 -->
<g id="node23" class="node"><title>Node23</title>
<g id="a_node23"><a xlink:href="display__mesh_8cpp.html" target="_top" xlink:title="/home/jc/hull_abstraction\l/ros/src/hull_abstraction\l/src/display_mesh_node/display\l_mesh.cpp">
<polygon fill="white" stroke="black" points="1215,-178.5 1215,-230.5 1371,-230.5 1371,-178.5 1215,-178.5"/>
<text text-anchor="start" x="1223" y="-218.5" font-family="Helvetica,sans-Serif" font-size="10.00">/home/jc/hull_abstraction</text>
<text text-anchor="start" x="1223" y="-207.5" font-family="Helvetica,sans-Serif" font-size="10.00">/ros/src/hull_abstraction</text>
<text text-anchor="start" x="1223" y="-196.5" font-family="Helvetica,sans-Serif" font-size="10.00">/src/display_mesh_node/display</text>
<text text-anchor="middle" x="1293" y="-185.5" font-family="Helvetica,sans-Serif" font-size="10.00">_mesh.cpp</text>
</a>
</g>
</g>
<!-- Node22&#45;&gt;Node23 -->
<g id="edge26" class="edge"><title>Node22&#45;&gt;Node23</title>
<path fill="none" stroke="midnightblue" d="M1298.9,-262.509C1297.83,-252.174 1296.64,-240.71 1295.62,-230.788"/>
<polygon fill="midnightblue" stroke="midnightblue" points="1295.45,-263.172 1299.96,-272.758 1302.41,-262.451 1295.45,-263.172"/>
</g>
<!-- Node24 -->
<g id="node24" class="node"><title>Node24</title>
<g id="a_node24"><a xlink:href="display__mesh__node_8cpp.html" target="_top" xlink:title="/home/jc/hull_abstraction\l/ros/src/hull_abstraction\l/src/display_mesh_node.cpp">
<polygon fill="white" stroke="black" points="1389.5,-184 1389.5,-225 1530.5,-225 1530.5,-184 1389.5,-184"/>
<text text-anchor="start" x="1397.5" y="-213" font-family="Helvetica,sans-Serif" font-size="10.00">/home/jc/hull_abstraction</text>
<text text-anchor="start" x="1397.5" y="-202" font-family="Helvetica,sans-Serif" font-size="10.00">/ros/src/hull_abstraction</text>
<text text-anchor="middle" x="1460" y="-191" font-family="Helvetica,sans-Serif" font-size="10.00">/src/display_mesh_node.cpp</text>
</a>
</g>
</g>
<!-- Node22&#45;&gt;Node24 -->
<g id="edge27" class="edge"><title>Node22&#45;&gt;Node24</title>
<path fill="none" stroke="midnightblue" d="M1346.27,-268.124C1370.94,-254.537 1401.26,-237.844 1424.39,-225.11"/>
<polygon fill="midnightblue" stroke="midnightblue" points="1344.53,-265.086 1337.46,-272.976 1347.91,-271.218 1344.53,-265.086"/>
</g>
</g>
</svg>
