<?xml version="1.0" encoding="UTF-8" standalone="no"?>
<!DOCTYPE svg PUBLIC "-//W3C//DTD SVG 1.1//EN"
 "http://www.w3.org/Graphics/SVG/1.1/DTD/svg11.dtd">
<!-- Generated by graphviz version 2.38.0 (20140413.2041)
 -->
<!-- Title: /home/jc/hull_abstraction/ros/src/hull_abstraction/src/pcl_utilization/pcl_utilization.cpp Pages: 1 -->
<svg width="1037pt" height="195pt"
 viewBox="0.00 0.00 1036.50 195.00" xmlns="http://www.w3.org/2000/svg" xmlns:xlink="http://www.w3.org/1999/xlink">
<g id="graph0" class="graph" transform="scale(1 1) rotate(0) translate(4 191)">
<title>/home/jc/hull_abstraction/ros/src/hull_abstraction/src/pcl_utilization/pcl_utilization.cpp</title>
<polygon fill="white" stroke="none" points="-4,4 -4,-191 1032.5,-191 1032.5,4 -4,4"/>
<!-- Node1 -->
<g id="node1" class="node"><title>Node1</title>
<polygon fill="#bfbfbf" stroke="black" points="422,-134.5 422,-186.5 547,-186.5 547,-134.5 422,-134.5"/>
<text text-anchor="start" x="430" y="-174.5" font-family="Helvetica,sans-Serif" font-size="10.00">/home/jc/hull_abstraction</text>
<text text-anchor="start" x="430" y="-163.5" font-family="Helvetica,sans-Serif" font-size="10.00">/ros/src/hull_abstraction</text>
<text text-anchor="start" x="430" y="-152.5" font-family="Helvetica,sans-Serif" font-size="10.00">/src/pcl_utilization/pcl</text>
<text text-anchor="middle" x="484.5" y="-141.5" font-family="Helvetica,sans-Serif" font-size="10.00">_utilization.cpp</text>
</g>
<!-- Node2 -->
<g id="node2" class="node"><title>Node2</title>
<g id="a_node2"><a xlink:href="pcl__utilization_8h.html" target="_top" xlink:title="This file contains the declaration of PCL utilization methods. ">
<polygon fill="white" stroke="black" points="438.5,-67.5 438.5,-97.5 530.5,-97.5 530.5,-67.5 438.5,-67.5"/>
<text text-anchor="start" x="446.5" y="-85.5" font-family="Helvetica,sans-Serif" font-size="10.00">pcl_utilization/pcl</text>
<text text-anchor="middle" x="484.5" y="-74.5" font-family="Helvetica,sans-Serif" font-size="10.00">_utilization.h</text>
</a>
</g>
</g>
<!-- Node1&#45;&gt;Node2 -->
<g id="edge1" class="edge"><title>Node1&#45;&gt;Node2</title>
<path fill="none" stroke="midnightblue" d="M484.5,-134.193C484.5,-125.786 484.5,-116.443 484.5,-108.091"/>
<polygon fill="midnightblue" stroke="midnightblue" points="488,-107.845 484.5,-97.8453 481,-107.845 488,-107.845"/>
</g>
<!-- Node3 -->
<g id="node3" class="node"><title>Node3</title>
<polygon fill="white" stroke="#bfbfbf" points="0,-6 0,-25 55,-25 55,-6 0,-6"/>
<text text-anchor="middle" x="27.5" y="-13" font-family="Helvetica,sans-Serif" font-size="10.00">ros/ros.h</text>
</g>
<!-- Node2&#45;&gt;Node3 -->
<g id="edge2" class="edge"><title>Node2&#45;&gt;Node3</title>
<path fill="none" stroke="midnightblue" d="M438.438,-79.7775C360.399,-76.0166 197.682,-64.5223 64.5,-31 61.8321,-30.3285 59.0977,-29.5144 56.3821,-28.6184"/>
<polygon fill="midnightblue" stroke="midnightblue" points="57.3767,-25.2558 46.7827,-25.1231 54.9817,-31.8333 57.3767,-25.2558"/>
</g>
<!-- Node4 -->
<g id="node4" class="node"><title>Node4</title>
<polygon fill="white" stroke="#bfbfbf" points="73.5,-6 73.5,-25 213.5,-25 213.5,-6 73.5,-6"/>
<text text-anchor="middle" x="143.5" y="-13" font-family="Helvetica,sans-Serif" font-size="10.00">sensor_msgs/PointCloud2.h</text>
</g>
<!-- Node2&#45;&gt;Node4 -->
<g id="edge3" class="edge"><title>Node2&#45;&gt;Node4</title>
<path fill="none" stroke="midnightblue" d="M438.156,-72.6662C375.628,-60.7472 264.441,-39.5532 197.984,-26.8856"/>
<polygon fill="midnightblue" stroke="midnightblue" points="198.595,-23.439 188.116,-25.0045 197.284,-30.3151 198.595,-23.439"/>
</g>
<!-- Node5 -->
<g id="node5" class="node"><title>Node5</title>
<polygon fill="white" stroke="#bfbfbf" points="231.5,-0.5 231.5,-30.5 331.5,-30.5 331.5,-0.5 231.5,-0.5"/>
<text text-anchor="start" x="239.5" y="-18.5" font-family="Helvetica,sans-Serif" font-size="10.00">visualization_msgs</text>
<text text-anchor="middle" x="281.5" y="-7.5" font-family="Helvetica,sans-Serif" font-size="10.00">/Marker.h</text>
</g>
<!-- Node2&#45;&gt;Node5 -->
<g id="edge4" class="edge"><title>Node2&#45;&gt;Node5</title>
<path fill="none" stroke="midnightblue" d="M440.452,-67.396C409.594,-57.5154 368.173,-44.2525 335.351,-33.7429"/>
<polygon fill="midnightblue" stroke="midnightblue" points="336.053,-30.2927 325.462,-30.5765 333.918,-36.9593 336.053,-30.2927"/>
</g>
<!-- Node6 -->
<g id="node6" class="node"><title>Node6</title>
<polygon fill="white" stroke="#bfbfbf" points="350,-6 350,-25 415,-25 415,-6 350,-6"/>
<text text-anchor="middle" x="382.5" y="-13" font-family="Helvetica,sans-Serif" font-size="10.00">Eigen/Core</text>
</g>
<!-- Node2&#45;&gt;Node6 -->
<g id="edge5" class="edge"><title>Node2&#45;&gt;Node6</title>
<path fill="none" stroke="midnightblue" d="M462.368,-67.396C445.262,-56.4956 421.697,-41.4787 404.6,-30.5835"/>
<polygon fill="midnightblue" stroke="midnightblue" points="406.164,-27.4295 395.849,-25.007 402.402,-33.3328 406.164,-27.4295"/>
</g>
<!-- Node7 -->
<g id="node7" class="node"><title>Node7</title>
<polygon fill="white" stroke="#bfbfbf" points="433,-0.5 433,-30.5 536,-30.5 536,-0.5 433,-0.5"/>
<text text-anchor="start" x="441" y="-18.5" font-family="Helvetica,sans-Serif" font-size="10.00">pcl_conversions/pcl</text>
<text text-anchor="middle" x="484.5" y="-7.5" font-family="Helvetica,sans-Serif" font-size="10.00">_conversions.h</text>
</g>
<!-- Node2&#45;&gt;Node7 -->
<g id="edge6" class="edge"><title>Node2&#45;&gt;Node7</title>
<path fill="none" stroke="midnightblue" d="M484.5,-67.396C484.5,-59.6448 484.5,-49.8122 484.5,-40.8601"/>
<polygon fill="midnightblue" stroke="midnightblue" points="488,-40.5765 484.5,-30.5765 481,-40.5765 488,-40.5765"/>
</g>
<!-- Node8 -->
<g id="node8" class="node"><title>Node8</title>
<polygon fill="white" stroke="#bfbfbf" points="554,-6 554,-25 645,-25 645,-6 554,-6"/>
<text text-anchor="middle" x="599.5" y="-13" font-family="Helvetica,sans-Serif" font-size="10.00">pcl/point_types.h</text>
</g>
<!-- Node2&#45;&gt;Node8 -->
<g id="edge7" class="edge"><title>Node2&#45;&gt;Node8</title>
<path fill="none" stroke="midnightblue" d="M509.453,-67.396C529.096,-56.2938 556.293,-40.9211 575.646,-29.9825"/>
<polygon fill="midnightblue" stroke="midnightblue" points="577.466,-32.9746 584.449,-25.007 574.021,-26.8807 577.466,-32.9746"/>
</g>
<!-- Node9 -->
<g id="node9" class="node"><title>Node9</title>
<polygon fill="white" stroke="#bfbfbf" points="663,-6 663,-25 776,-25 776,-6 663,-6"/>
<text text-anchor="middle" x="719.5" y="-13" font-family="Helvetica,sans-Serif" font-size="10.00">pcl/PCLPointCloud2.h</text>
</g>
<!-- Node2&#45;&gt;Node9 -->
<g id="edge8" class="edge"><title>Node2&#45;&gt;Node9</title>
<path fill="none" stroke="midnightblue" d="M530.648,-68.7356C573.745,-56.8152 637.452,-39.194 678.723,-27.7788"/>
<polygon fill="midnightblue" stroke="midnightblue" points="679.745,-31.1277 688.45,-25.0884 677.878,-24.381 679.745,-31.1277"/>
</g>
<!-- Node10 -->
<g id="node10" class="node"><title>Node10</title>
<polygon fill="white" stroke="#bfbfbf" points="794.5,-6 794.5,-25 910.5,-25 910.5,-6 794.5,-6"/>
<text text-anchor="middle" x="852.5" y="-13" font-family="Helvetica,sans-Serif" font-size="10.00">pcl/common/centroid.h</text>
</g>
<!-- Node2&#45;&gt;Node10 -->
<g id="edge9" class="edge"><title>Node2&#45;&gt;Node10</title>
<path fill="none" stroke="midnightblue" d="M530.515,-74.4672C589.664,-65.2695 695.476,-48.2834 785.5,-31 791.713,-29.8072 798.234,-28.4846 804.668,-27.1375"/>
<polygon fill="midnightblue" stroke="midnightblue" points="805.596,-30.5185 814.65,-25.0157 804.141,-23.6715 805.596,-30.5185"/>
</g>
<!-- Node11 -->
<g id="node11" class="node"><title>Node11</title>
<polygon fill="white" stroke="#bfbfbf" points="928.5,-6 928.5,-25 1028.5,-25 1028.5,-6 928.5,-6"/>
<text text-anchor="middle" x="978.5" y="-13" font-family="Helvetica,sans-Serif" font-size="10.00">pcl/search/kdtree.h</text>
</g>
<!-- Node2&#45;&gt;Node11 -->
<g id="edge10" class="edge"><title>Node2&#45;&gt;Node11</title>
<path fill="none" stroke="midnightblue" d="M530.815,-78.0434C610.621,-71.6599 779.02,-56.3137 919.5,-31 925.08,-29.9946 930.917,-28.7722 936.658,-27.4682"/>
<polygon fill="midnightblue" stroke="midnightblue" points="937.888,-30.7737 946.812,-25.0621 936.274,-23.9623 937.888,-30.7737"/>
</g>
</g>
</svg>
