<?xml version="1.0" encoding="UTF-8" standalone="no"?>
<!DOCTYPE svg PUBLIC "-//W3C//DTD SVG 1.1//EN"
 "http://www.w3.org/Graphics/SVG/1.1/DTD/svg11.dtd">
<!-- Generated by graphviz version 2.38.0 (20140413.2041)
 -->
<!-- Title: /home/jc/THESIS/hull_abstraction/ros/src/hull_abstraction/src/poisson_reconstruction_node/poisson_reconstruction.cpp Pages: 1 -->
<svg width="904pt" height="195pt"
 viewBox="0.00 0.00 904.00 195.00" xmlns="http://www.w3.org/2000/svg" xmlns:xlink="http://www.w3.org/1999/xlink">
<g id="graph0" class="graph" transform="scale(1 1) rotate(0) translate(4 191)">
<title>/home/jc/THESIS/hull_abstraction/ros/src/hull_abstraction/src/poisson_reconstruction_node/poisson_reconstruction.cpp</title>
<polygon fill="white" stroke="none" points="-4,4 -4,-191 900,-191 900,4 -4,4"/>
<!-- Node1 -->
<g id="node1" class="node"><title>Node1</title>
<polygon fill="#bfbfbf" stroke="black" points="286.5,-123.5 286.5,-186.5 451.5,-186.5 451.5,-123.5 286.5,-123.5"/>
<text text-anchor="start" x="294.5" y="-174.5" font-family="Helvetica,sans-Serif" font-size="10.00">/home/jc/THESIS/hull</text>
<text text-anchor="start" x="294.5" y="-163.5" font-family="Helvetica,sans-Serif" font-size="10.00">_abstraction/ros/src</text>
<text text-anchor="start" x="294.5" y="-152.5" font-family="Helvetica,sans-Serif" font-size="10.00">/hull_abstraction/src</text>
<text text-anchor="start" x="294.5" y="-141.5" font-family="Helvetica,sans-Serif" font-size="10.00">/poisson_reconstruction</text>
<text text-anchor="middle" x="369" y="-130.5" font-family="Helvetica,sans-Serif" font-size="10.00">_node/poisson_reconstruction.cpp</text>
</g>
<!-- Node2 -->
<g id="node2" class="node"><title>Node2</title>
<g id="a_node2"><a xlink:href="poisson__reconstruction_8h.html" target="_top" xlink:title="Framework of Poisson reconstruction node. ">
<polygon fill="white" stroke="black" points="306.5,-67.5 306.5,-86.5 431.5,-86.5 431.5,-67.5 306.5,-67.5"/>
<text text-anchor="middle" x="369" y="-74.5" font-family="Helvetica,sans-Serif" font-size="10.00">poisson_reconstruction.h</text>
</a>
</g>
</g>
<!-- Node1&#45;&gt;Node2 -->
<g id="edge1" class="edge"><title>Node1&#45;&gt;Node2</title>
<path fill="none" stroke="midnightblue" d="M369,-123.088C369,-114.15 369,-104.669 369,-96.7195"/>
<polygon fill="midnightblue" stroke="midnightblue" points="372.5,-96.7181 369,-86.7182 365.5,-96.7182 372.5,-96.7181"/>
</g>
<!-- Node3 -->
<g id="node3" class="node"><title>Node3</title>
<polygon fill="white" stroke="#bfbfbf" points="0,-6 0,-25 54,-25 54,-6 0,-6"/>
<text text-anchor="middle" x="27" y="-13" font-family="Helvetica,sans-Serif" font-size="10.00">iostream</text>
</g>
<!-- Node2&#45;&gt;Node3 -->
<g id="edge2" class="edge"><title>Node2&#45;&gt;Node3</title>
<path fill="none" stroke="midnightblue" d="M306.284,-71.1534C243.801,-65.3082 145.539,-53.3513 63,-31 60.4961,-30.3219 57.9311,-29.5199 55.38,-28.6465"/>
<polygon fill="midnightblue" stroke="midnightblue" points="56.3606,-25.276 45.7685,-25.0354 53.8987,-31.8289 56.3606,-25.276"/>
</g>
<!-- Node4 -->
<g id="node4" class="node"><title>Node4</title>
<polygon fill="white" stroke="#bfbfbf" points="72.5,-6 72.5,-25 127.5,-25 127.5,-6 72.5,-6"/>
<text text-anchor="middle" x="100" y="-13" font-family="Helvetica,sans-Serif" font-size="10.00">ros/ros.h</text>
</g>
<!-- Node2&#45;&gt;Node4 -->
<g id="edge3" class="edge"><title>Node2&#45;&gt;Node4</title>
<path fill="none" stroke="midnightblue" d="M309.171,-67.4651C261.896,-59.9884 194.526,-47.7004 137,-31 134.418,-30.2504 131.765,-29.3931 129.122,-28.4781"/>
<polygon fill="midnightblue" stroke="midnightblue" points="130.334,-25.1946 119.74,-25.0019 127.901,-31.7585 130.334,-25.1946"/>
</g>
<!-- Node5 -->
<g id="node5" class="node"><title>Node5</title>
<polygon fill="white" stroke="#bfbfbf" points="146,-6 146,-25 286,-25 286,-6 146,-6"/>
<text text-anchor="middle" x="216" y="-13" font-family="Helvetica,sans-Serif" font-size="10.00">sensor_msgs/PointCloud2.h</text>
</g>
<!-- Node2&#45;&gt;Node5 -->
<g id="edge4" class="edge"><title>Node2&#45;&gt;Node5</title>
<path fill="none" stroke="midnightblue" d="M347.079,-67.4751C320.948,-57.3129 277.088,-40.2564 247.37,-28.6996"/>
<polygon fill="midnightblue" stroke="midnightblue" points="248.469,-25.3716 237.881,-25.0091 245.932,-31.8956 248.469,-25.3716"/>
</g>
<!-- Node6 -->
<g id="node6" class="node"><title>Node6</title>
<polygon fill="white" stroke="#bfbfbf" points="304.5,-6 304.5,-25 433.5,-25 433.5,-6 304.5,-6"/>
<text text-anchor="middle" x="369" y="-13" font-family="Helvetica,sans-Serif" font-size="10.00">pcl_msgs/PolygonMesh.h</text>
</g>
<!-- Node2&#45;&gt;Node6 -->
<g id="edge5" class="edge"><title>Node2&#45;&gt;Node6</title>
<path fill="none" stroke="midnightblue" d="M369,-67.4751C369,-59.0803 369,-45.9806 369,-35.1631"/>
<polygon fill="midnightblue" stroke="midnightblue" points="372.5,-35.0091 369,-25.0091 365.5,-35.0091 372.5,-35.0091"/>
</g>
<!-- Node7 -->
<g id="node7" class="node"><title>Node7</title>
<polygon fill="white" stroke="#bfbfbf" points="451.5,-0.5 451.5,-30.5 554.5,-30.5 554.5,-0.5 451.5,-0.5"/>
<text text-anchor="start" x="459.5" y="-18.5" font-family="Helvetica,sans-Serif" font-size="10.00">pcl_conversions/pcl</text>
<text text-anchor="middle" x="503" y="-7.5" font-family="Helvetica,sans-Serif" font-size="10.00">_conversions.h</text>
</g>
<!-- Node2&#45;&gt;Node7 -->
<g id="edge6" class="edge"><title>Node2&#45;&gt;Node7</title>
<path fill="none" stroke="midnightblue" d="M388.199,-67.4751C407.365,-58.9648 437.42,-45.6193 461.971,-34.718"/>
<polygon fill="midnightblue" stroke="midnightblue" points="463.7,-37.7801 471.419,-30.523 460.859,-31.3824 463.7,-37.7801"/>
</g>
<!-- Node8 -->
<g id="node8" class="node"><title>Node8</title>
<polygon fill="white" stroke="#bfbfbf" points="572.5,-6 572.5,-25 725.5,-25 725.5,-6 572.5,-6"/>
<text text-anchor="middle" x="649" y="-13" font-family="Helvetica,sans-Serif" font-size="10.00">hull_abstraction/reconstructor.h</text>
</g>
<!-- Node2&#45;&gt;Node8 -->
<g id="edge7" class="edge"><title>Node2&#45;&gt;Node8</title>
<path fill="none" stroke="midnightblue" d="M409.117,-67.4751C459.122,-56.849 544.601,-38.6847 598.871,-27.1524"/>
<polygon fill="midnightblue" stroke="midnightblue" points="599.903,-30.5113 608.957,-25.0091 598.448,-23.6642 599.903,-30.5113"/>
</g>
<!-- Node9 -->
<g id="node9" class="node"><title>Node9</title>
<polygon fill="white" stroke="#bfbfbf" points="744,-6 744,-25 896,-25 896,-6 744,-6"/>
<text text-anchor="middle" x="820" y="-13" font-family="Helvetica,sans-Serif" font-size="10.00">hull_abstraction/preprocessor.h</text>
</g>
<!-- Node2&#45;&gt;Node9 -->
<g id="edge8" class="edge"><title>Node2&#45;&gt;Node9</title>
<path fill="none" stroke="midnightblue" d="M431.614,-69.2008C504.587,-61.0685 628.743,-46.5866 735,-31 743.824,-29.7056 753.145,-28.2283 762.254,-26.7233"/>
<polygon fill="midnightblue" stroke="midnightblue" points="763.125,-30.1261 772.409,-25.0208 761.968,-23.2225 763.125,-30.1261"/>
</g>
</g>
</svg>
