<?xml version="1.0" encoding="UTF-8" standalone="no"?>
<!DOCTYPE svg PUBLIC "-//W3C//DTD SVG 1.1//EN"
 "http://www.w3.org/Graphics/SVG/1.1/DTD/svg11.dtd">
<!-- Generated by graphviz version 2.38.0 (20140413.2041)
 -->
<!-- Title: /home/jc/hull_abstraction/prototype/include/hull_abstraction/reconstructor.h Pages: 1 -->
<svg width="1165pt" height="117pt"
 viewBox="0.00 0.00 1164.50 117.00" xmlns="http://www.w3.org/2000/svg" xmlns:xlink="http://www.w3.org/1999/xlink">
<g id="graph0" class="graph" transform="scale(1 1) rotate(0) translate(4 113)">
<title>/home/jc/hull_abstraction/prototype/include/hull_abstraction/reconstructor.h</title>
<polygon fill="white" stroke="none" points="-4,4 -4,-113 1160.5,-113 1160.5,4 -4,4"/>
<!-- Node1 -->
<g id="node1" class="node"><title>Node1</title>
<polygon fill="#bfbfbf" stroke="black" points="464,-67.5 464,-108.5 602,-108.5 602,-67.5 464,-67.5"/>
<text text-anchor="start" x="472" y="-96.5" font-family="Helvetica,sans-Serif" font-size="10.00">/home/jc/hull_abstraction</text>
<text text-anchor="start" x="472" y="-85.5" font-family="Helvetica,sans-Serif" font-size="10.00">/prototype/include/hull</text>
<text text-anchor="middle" x="533" y="-74.5" font-family="Helvetica,sans-Serif" font-size="10.00">_abstraction/reconstructor.h</text>
</g>
<!-- Node2 -->
<g id="node2" class="node"><title>Node2</title>
<polygon fill="white" stroke="#bfbfbf" points="0,-6 0,-25 92,-25 92,-6 0,-6"/>
<text text-anchor="middle" x="46" y="-13" font-family="Helvetica,sans-Serif" font-size="10.00">pcl/surface/gp3.h</text>
</g>
<!-- Node1&#45;&gt;Node2 -->
<g id="edge1" class="edge"><title>Node1&#45;&gt;Node2</title>
<path fill="none" stroke="midnightblue" d="M463.724,-80.7967C378.029,-72.4868 227.913,-55.848 101,-31 95.9214,-30.0057 90.6172,-28.8108 85.3926,-27.5391"/>
<polygon fill="midnightblue" stroke="midnightblue" points="86.0778,-24.1021 75.5238,-25.0316 84.3539,-30.8865 86.0778,-24.1021"/>
</g>
<!-- Node3 -->
<g id="node3" class="node"><title>Node3</title>
<polygon fill="white" stroke="#bfbfbf" points="110.5,-6 110.5,-25 201.5,-25 201.5,-6 110.5,-6"/>
<text text-anchor="middle" x="156" y="-13" font-family="Helvetica,sans-Serif" font-size="10.00">pcl/point_types.h</text>
</g>
<!-- Node1&#45;&gt;Node3 -->
<g id="edge2" class="edge"><title>Node1&#45;&gt;Node3</title>
<path fill="none" stroke="midnightblue" d="M463.966,-76.8878C398.326,-66.8352 296.98,-50.1765 210,-31 205.328,-29.9701 200.454,-28.7993 195.629,-27.5801"/>
<polygon fill="midnightblue" stroke="midnightblue" points="196.432,-24.1725 185.872,-25.0392 194.667,-30.9466 196.432,-24.1725"/>
</g>
<!-- Node4 -->
<g id="node4" class="node"><title>Node4</title>
<polygon fill="white" stroke="#bfbfbf" points="219.5,-6 219.5,-25 332.5,-25 332.5,-6 219.5,-6"/>
<text text-anchor="middle" x="276" y="-13" font-family="Helvetica,sans-Serif" font-size="10.00">pcl/PCLPointCloud2.h</text>
</g>
<!-- Node1&#45;&gt;Node4 -->
<g id="edge3" class="edge"><title>Node1&#45;&gt;Node4</title>
<path fill="none" stroke="midnightblue" d="M463.791,-68.0146C416.88,-55.1461 356.467,-38.5736 317.011,-27.75"/>
<polygon fill="midnightblue" stroke="midnightblue" points="317.775,-24.3305 307.206,-25.0603 315.924,-31.0812 317.775,-24.3305"/>
</g>
<!-- Node5 -->
<g id="node5" class="node"><title>Node5</title>
<polygon fill="white" stroke="#bfbfbf" points="351,-6 351,-25 461,-25 461,-6 351,-6"/>
<text text-anchor="middle" x="406" y="-13" font-family="Helvetica,sans-Serif" font-size="10.00">pcl/surface/poisson.h</text>
</g>
<!-- Node1&#45;&gt;Node5 -->
<g id="edge4" class="edge"><title>Node1&#45;&gt;Node5</title>
<path fill="none" stroke="midnightblue" d="M497.623,-67.3618C476.276,-55.5114 449.614,-40.7109 430.565,-30.1365"/>
<polygon fill="midnightblue" stroke="midnightblue" points="432.066,-26.9668 421.624,-25.1734 428.669,-33.0871 432.066,-26.9668"/>
</g>
<!-- Node6 -->
<g id="node6" class="node"><title>Node6</title>
<polygon fill="white" stroke="#bfbfbf" points="479.5,-0.5 479.5,-30.5 586.5,-30.5 586.5,-0.5 479.5,-0.5"/>
<text text-anchor="start" x="487.5" y="-18.5" font-family="Helvetica,sans-Serif" font-size="10.00">pcl/surface/marching</text>
<text text-anchor="middle" x="533" y="-7.5" font-family="Helvetica,sans-Serif" font-size="10.00">_cubes_hoppe.h</text>
</g>
<!-- Node1&#45;&gt;Node6 -->
<g id="edge5" class="edge"><title>Node1&#45;&gt;Node6</title>
<path fill="none" stroke="midnightblue" d="M533,-67.3618C533,-59.226 533,-49.6997 533,-41.105"/>
<polygon fill="midnightblue" stroke="midnightblue" points="536.5,-40.8916 533,-30.8916 529.5,-40.8916 536.5,-40.8916"/>
</g>
<!-- Node7 -->
<g id="node7" class="node"><title>Node7</title>
<polygon fill="white" stroke="#bfbfbf" points="605,-6 605,-25 757,-25 757,-6 605,-6"/>
<text text-anchor="middle" x="681" y="-13" font-family="Helvetica,sans-Serif" font-size="10.00">hull_abstraction/preprocessor.h</text>
</g>
<!-- Node1&#45;&gt;Node7 -->
<g id="edge6" class="edge"><title>Node1&#45;&gt;Node7</title>
<path fill="none" stroke="midnightblue" d="M574.226,-67.3618C599.558,-55.2949 631.311,-40.1692 653.58,-29.5614"/>
<polygon fill="midnightblue" stroke="midnightblue" points="655.269,-32.6338 662.792,-25.1734 652.259,-26.3141 655.269,-32.6338"/>
</g>
<!-- Node8 -->
<g id="node8" class="node"><title>Node8</title>
<polygon fill="white" stroke="#bfbfbf" points="775.5,-0.5 775.5,-30.5 886.5,-30.5 886.5,-0.5 775.5,-0.5"/>
<text text-anchor="start" x="783.5" y="-18.5" font-family="Helvetica,sans-Serif" font-size="10.00">pcl/surface/on_nurbs</text>
<text text-anchor="middle" x="831" y="-7.5" font-family="Helvetica,sans-Serif" font-size="10.00">/fitting_surface_tdm.h</text>
</g>
<!-- Node1&#45;&gt;Node8 -->
<g id="edge7" class="edge"><title>Node1&#45;&gt;Node8</title>
<path fill="none" stroke="midnightblue" d="M602.116,-70.6487C651.338,-59.0039 717.073,-43.4525 765.467,-32.0037"/>
<polygon fill="midnightblue" stroke="midnightblue" points="766.285,-35.4068 775.211,-29.6985 764.674,-28.5948 766.285,-35.4068"/>
</g>
<!-- Node9 -->
<g id="node9" class="node"><title>Node9</title>
<polygon fill="white" stroke="#bfbfbf" points="905,-0.5 905,-30.5 1031,-30.5 1031,-0.5 905,-0.5"/>
<text text-anchor="start" x="913" y="-18.5" font-family="Helvetica,sans-Serif" font-size="10.00">pcl/surface/on_nurbs</text>
<text text-anchor="middle" x="968" y="-7.5" font-family="Helvetica,sans-Serif" font-size="10.00">/fitting_curve_2d_asdm.h</text>
</g>
<!-- Node1&#45;&gt;Node9 -->
<g id="edge8" class="edge"><title>Node1&#45;&gt;Node9</title>
<path fill="none" stroke="midnightblue" d="M602.069,-77.3027C673,-67.1269 786.83,-50.1963 894.728,-31.1813"/>
<polygon fill="midnightblue" stroke="midnightblue" points="895.579,-34.5853 904.815,-29.3945 894.358,-27.6926 895.579,-34.5853"/>
</g>
<!-- Node10 -->
<g id="node10" class="node"><title>Node10</title>
<polygon fill="white" stroke="#bfbfbf" points="1049.5,-0.5 1049.5,-30.5 1156.5,-30.5 1156.5,-0.5 1049.5,-0.5"/>
<text text-anchor="start" x="1057.5" y="-18.5" font-family="Helvetica,sans-Serif" font-size="10.00">pcl/surface/on_nurbs</text>
<text text-anchor="middle" x="1103" y="-7.5" font-family="Helvetica,sans-Serif" font-size="10.00">/triangulation.h</text>
</g>
<!-- Node1&#45;&gt;Node10 -->
<g id="edge9" class="edge"><title>Node1&#45;&gt;Node10</title>
<path fill="none" stroke="midnightblue" d="M602.238,-81.9173C698.176,-74.3054 877.065,-58.0591 1039.3,-30.9814"/>
<polygon fill="midnightblue" stroke="midnightblue" points="1040.19,-34.3809 1049.47,-29.2663 1039.03,-27.4784 1040.19,-34.3809"/>
</g>
</g>
</svg>
