<?xml version="1.0" encoding="UTF-8" standalone="no"?>
<!DOCTYPE svg PUBLIC "-//W3C//DTD SVG 1.1//EN"
 "http://www.w3.org/Graphics/SVG/1.1/DTD/svg11.dtd">
<!-- Generated by graphviz version 2.38.0 (20140413.2041)
 -->
<!-- Title: /home/jc/hull_abstraction/prototype/include/hull_abstraction/preprocessor.h Pages: 1 -->
<svg width="1134pt" height="173pt"
 viewBox="0.00 0.00 1133.50 173.00" xmlns="http://www.w3.org/2000/svg" xmlns:xlink="http://www.w3.org/1999/xlink">
<g id="graph0" class="graph" transform="scale(1 1) rotate(0) translate(4 169)">
<title>/home/jc/hull_abstraction/prototype/include/hull_abstraction/preprocessor.h</title>
<polygon fill="white" stroke="none" points="-4,4 -4,-169 1129.5,-169 1129.5,4 -4,4"/>
<!-- Node1 -->
<g id="node1" class="node"><title>Node1</title>
<polygon fill="#bfbfbf" stroke="black" points="494,-123.5 494,-164.5 631,-164.5 631,-123.5 494,-123.5"/>
<text text-anchor="start" x="502" y="-152.5" font-family="Helvetica,sans-Serif" font-size="10.00">/home/jc/hull_abstraction</text>
<text text-anchor="start" x="502" y="-141.5" font-family="Helvetica,sans-Serif" font-size="10.00">/prototype/include/hull</text>
<text text-anchor="middle" x="562.5" y="-130.5" font-family="Helvetica,sans-Serif" font-size="10.00">_abstraction/preprocessor.h</text>
</g>
<!-- Node2 -->
<g id="node2" class="node"><title>Node2</title>
<polygon fill="white" stroke="#bfbfbf" points="0,-62 0,-81 91,-81 91,-62 0,-62"/>
<text text-anchor="middle" x="45.5" y="-69" font-family="Helvetica,sans-Serif" font-size="10.00">pcl/point_types.h</text>
</g>
<!-- Node1&#45;&gt;Node2 -->
<g id="edge1" class="edge"><title>Node1&#45;&gt;Node2</title>
<path fill="none" stroke="midnightblue" d="M493.943,-137.649C403.329,-129.903 238.972,-113.516 100.5,-87 95.3582,-86.0154 89.9872,-84.8168 84.7026,-83.5349"/>
<polygon fill="midnightblue" stroke="midnightblue" points="85.2831,-80.0713 74.7292,-81.0018 83.5599,-86.8559 85.2831,-80.0713"/>
</g>
<!-- Node3 -->
<g id="node3" class="node"><title>Node3</title>
<polygon fill="white" stroke="#bfbfbf" points="109,-56.5 109,-86.5 222,-86.5 222,-56.5 109,-56.5"/>
<text text-anchor="start" x="117" y="-74.5" font-family="Helvetica,sans-Serif" font-size="10.00">pcl/filters/approximate</text>
<text text-anchor="middle" x="165.5" y="-63.5" font-family="Helvetica,sans-Serif" font-size="10.00">_voxel_grid.h</text>
</g>
<!-- Node1&#45;&gt;Node3 -->
<g id="edge2" class="edge"><title>Node1&#45;&gt;Node3</title>
<path fill="none" stroke="midnightblue" d="M493.859,-132.386C429.02,-122.132 328.819,-105.701 232.277,-87.0971"/>
<polygon fill="midnightblue" stroke="midnightblue" points="232.828,-83.6388 222.345,-85.1727 231.497,-90.511 232.828,-83.6388"/>
</g>
<!-- Node4 -->
<g id="node4" class="node"><title>Node4</title>
<polygon fill="white" stroke="#bfbfbf" points="240.5,-62 240.5,-81 364.5,-81 364.5,-62 240.5,-62"/>
<text text-anchor="middle" x="302.5" y="-69" font-family="Helvetica,sans-Serif" font-size="10.00">pcl/features/normal_3d.h</text>
</g>
<!-- Node1&#45;&gt;Node4 -->
<g id="edge3" class="edge"><title>Node1&#45;&gt;Node4</title>
<path fill="none" stroke="midnightblue" d="M493.848,-124.385C446.137,-111.448 384.12,-94.6317 343.824,-83.705"/>
<polygon fill="midnightblue" stroke="midnightblue" points="344.636,-80.299 334.068,-81.0599 342.804,-87.055 344.636,-80.299"/>
</g>
<!-- Node5 -->
<g id="node5" class="node"><title>Node5</title>
<polygon fill="white" stroke="#bfbfbf" points="383,-56.5 383,-86.5 484,-86.5 484,-56.5 383,-56.5"/>
<text text-anchor="start" x="391" y="-74.5" font-family="Helvetica,sans-Serif" font-size="10.00">pcl/filters/statistical</text>
<text text-anchor="middle" x="433.5" y="-63.5" font-family="Helvetica,sans-Serif" font-size="10.00">_outlier_removal.h</text>
</g>
<!-- Node1&#45;&gt;Node5 -->
<g id="edge4" class="edge"><title>Node1&#45;&gt;Node5</title>
<path fill="none" stroke="midnightblue" d="M526.566,-123.362C508.41,-113.439 486.468,-101.448 468.451,-91.6013"/>
<polygon fill="midnightblue" stroke="midnightblue" points="469.882,-88.3945 459.428,-86.67 466.525,-94.537 469.882,-88.3945"/>
</g>
<!-- Node6 -->
<g id="node6" class="node"><title>Node6</title>
<polygon fill="white" stroke="#bfbfbf" points="502,-62 502,-81 623,-81 623,-62 502,-62"/>
<text text-anchor="middle" x="562.5" y="-69" font-family="Helvetica,sans-Serif" font-size="10.00">pcl/filters/passthrough.h</text>
</g>
<!-- Node1&#45;&gt;Node6 -->
<g id="edge5" class="edge"><title>Node1&#45;&gt;Node6</title>
<path fill="none" stroke="midnightblue" d="M562.5,-123.362C562.5,-113.297 562.5,-101.104 562.5,-91.18"/>
<polygon fill="midnightblue" stroke="midnightblue" points="566,-91.1733 562.5,-81.1734 559,-91.1734 566,-91.1733"/>
</g>
<!-- Node7 -->
<g id="node7" class="node"><title>Node7</title>
<polygon fill="white" stroke="#bfbfbf" points="641.5,-56.5 641.5,-86.5 747.5,-86.5 747.5,-56.5 641.5,-56.5"/>
<text text-anchor="start" x="649.5" y="-74.5" font-family="Helvetica,sans-Serif" font-size="10.00">pcl/filters/conditional</text>
<text text-anchor="middle" x="694.5" y="-63.5" font-family="Helvetica,sans-Serif" font-size="10.00">_removal.h</text>
</g>
<!-- Node1&#45;&gt;Node7 -->
<g id="edge6" class="edge"><title>Node1&#45;&gt;Node7</title>
<path fill="none" stroke="midnightblue" d="M599.269,-123.362C617.933,-113.393 640.506,-101.338 658.989,-91.4659"/>
<polygon fill="midnightblue" stroke="midnightblue" points="660.797,-94.4684 667.969,-86.67 657.499,-88.2939 660.797,-94.4684"/>
</g>
<!-- Node8 -->
<g id="node8" class="node"><title>Node8</title>
<polygon fill="white" stroke="#bfbfbf" points="765.5,-56.5 765.5,-86.5 861.5,-86.5 861.5,-56.5 765.5,-56.5"/>
<text text-anchor="start" x="773.5" y="-74.5" font-family="Helvetica,sans-Serif" font-size="10.00">pcl/filters/radius</text>
<text text-anchor="middle" x="813.5" y="-63.5" font-family="Helvetica,sans-Serif" font-size="10.00">_outlier_removal.h</text>
</g>
<!-- Node1&#45;&gt;Node8 -->
<g id="edge7" class="edge"><title>Node1&#45;&gt;Node8</title>
<path fill="none" stroke="midnightblue" d="M631.087,-123.736C670.127,-112.77 718.489,-99.1863 755.606,-88.7612"/>
<polygon fill="midnightblue" stroke="midnightblue" points="756.591,-92.12 765.272,-86.0462 754.698,-85.3808 756.591,-92.12"/>
</g>
<!-- Node9 -->
<g id="node9" class="node"><title>Node9</title>
<polygon fill="white" stroke="#bfbfbf" points="879.5,-62 879.5,-81 971.5,-81 971.5,-62 879.5,-62"/>
<text text-anchor="middle" x="925.5" y="-69" font-family="Helvetica,sans-Serif" font-size="10.00">pcl/surface/mls.h</text>
</g>
<!-- Node1&#45;&gt;Node9 -->
<g id="edge8" class="edge"><title>Node1&#45;&gt;Node9</title>
<path fill="none" stroke="midnightblue" d="M631.008,-132.117C693.628,-121.797 788.666,-105.198 870.5,-87 875.193,-85.9564 880.091,-84.7852 884.945,-83.5728"/>
<polygon fill="midnightblue" stroke="midnightblue" points="885.951,-86.928 894.769,-81.0539 884.213,-80.1474 885.951,-86.928"/>
</g>
<!-- Node10 -->
<g id="node10" class="node"><title>Node10</title>
<g id="a_node10"><a xlink:href="functions_8h.html" target="_top" xlink:title="hull_abstraction/functions.h">
<polygon fill="white" stroke="black" points="989.5,-62 989.5,-81 1125.5,-81 1125.5,-62 989.5,-62"/>
<text text-anchor="middle" x="1057.5" y="-69" font-family="Helvetica,sans-Serif" font-size="10.00">hull_abstraction/functions.h</text>
</a>
</g>
</g>
<!-- Node1&#45;&gt;Node10 -->
<g id="edge9" class="edge"><title>Node1&#45;&gt;Node10</title>
<path fill="none" stroke="midnightblue" d="M631.086,-134.942C714.029,-124.936 857.793,-106.759 980.5,-87 988.243,-85.7531 996.404,-84.3324 1004.4,-82.8794"/>
<polygon fill="midnightblue" stroke="midnightblue" points="1005.2,-86.2906 1014.4,-81.0323 1003.93,-79.407 1005.2,-86.2906"/>
</g>
<!-- Node11 -->
<g id="node11" class="node"><title>Node11</title>
<polygon fill="white" stroke="#bfbfbf" points="1007.5,-0.5 1007.5,-19.5 1107.5,-19.5 1107.5,-0.5 1007.5,-0.5"/>
<text text-anchor="middle" x="1057.5" y="-7.5" font-family="Helvetica,sans-Serif" font-size="10.00">pcl/search/kdtree.h</text>
</g>
<!-- Node10&#45;&gt;Node11 -->
<g id="edge10" class="edge"><title>Node10&#45;&gt;Node11</title>
<path fill="none" stroke="midnightblue" d="M1057.5,-61.9751C1057.5,-53.5803 1057.5,-40.4806 1057.5,-29.6631"/>
<polygon fill="midnightblue" stroke="midnightblue" points="1061,-29.5091 1057.5,-19.5091 1054,-29.5091 1061,-29.5091"/>
</g>
</g>
</svg>
