<?xml version="1.0" encoding="UTF-8" standalone="no"?>
<!DOCTYPE svg PUBLIC "-//W3C//DTD SVG 1.1//EN"
 "http://www.w3.org/Graphics/SVG/1.1/DTD/svg11.dtd">
<!-- Generated by graphviz version 2.38.0 (20140413.2041)
 -->
<!-- Title: /home/jc/hull_abstraction/ros/src/hull_abstraction/include/hull_abstraction/reconstructor.h Pages: 1 -->
<svg width="1444pt" height="239pt"
 viewBox="0.00 0.00 1444.00 239.00" xmlns="http://www.w3.org/2000/svg" xmlns:xlink="http://www.w3.org/1999/xlink">
<g id="graph0" class="graph" transform="scale(1 1) rotate(0) translate(4 235)">
<title>/home/jc/hull_abstraction/ros/src/hull_abstraction/include/hull_abstraction/reconstructor.h</title>
<polygon fill="white" stroke="none" points="-4,4 -4,-235 1440,-235 1440,4 -4,4"/>
<!-- Node1 -->
<g id="node1" class="node"><title>Node1</title>
<polygon fill="#bfbfbf" stroke="black" points="497,-178.5 497,-230.5 622,-230.5 622,-178.5 497,-178.5"/>
<text text-anchor="start" x="505" y="-218.5" font-family="Helvetica,sans-Serif" font-size="10.00">/home/jc/hull_abstraction</text>
<text text-anchor="start" x="505" y="-207.5" font-family="Helvetica,sans-Serif" font-size="10.00">/ros/src/hull_abstraction</text>
<text text-anchor="start" x="505" y="-196.5" font-family="Helvetica,sans-Serif" font-size="10.00">/include/hull_abstraction</text>
<text text-anchor="middle" x="559.5" y="-185.5" font-family="Helvetica,sans-Serif" font-size="10.00">/reconstructor.h</text>
</g>
<!-- Node2 -->
<g id="node2" class="node"><title>Node2</title>
<g id="a_node2"><a xlink:href="benchmark_2src_2hull__abstraction_2reconstructor_8cpp.html" target="_top" xlink:title="/home/jc/hull_abstraction\l/benchmark/src/hull_abstraction\l/reconstructor.cpp">
<polygon fill="white" stroke="black" points="0,-95 0,-136 155,-136 155,-95 0,-95"/>
<text text-anchor="start" x="8" y="-124" font-family="Helvetica,sans-Serif" font-size="10.00">/home/jc/hull_abstraction</text>
<text text-anchor="start" x="8" y="-113" font-family="Helvetica,sans-Serif" font-size="10.00">/benchmark/src/hull_abstraction</text>
<text text-anchor="middle" x="77.5" y="-102" font-family="Helvetica,sans-Serif" font-size="10.00">/reconstructor.cpp</text>
</a>
</g>
</g>
<!-- Node1&#45;&gt;Node2 -->
<g id="edge1" class="edge"><title>Node1&#45;&gt;Node2</title>
<path fill="none" stroke="midnightblue" d="M486.99,-195.205C407.161,-185.386 275.301,-167.137 163.5,-142 155.751,-140.258 147.677,-138.198 139.714,-136.015"/>
<polygon fill="midnightblue" stroke="midnightblue" points="486.591,-198.682 496.941,-196.419 487.438,-191.734 486.591,-198.682"/>
</g>
<!-- Node3 -->
<g id="node3" class="node"><title>Node3</title>
<g id="a_node3"><a xlink:href="main_8cpp.html" target="_top" xlink:title="/home/jc/hull_abstraction\l/benchmark/src/main.cpp">
<polygon fill="white" stroke="black" points="173,-100.5 173,-130.5 300,-130.5 300,-100.5 173,-100.5"/>
<text text-anchor="start" x="181" y="-118.5" font-family="Helvetica,sans-Serif" font-size="10.00">/home/jc/hull_abstraction</text>
<text text-anchor="middle" x="236.5" y="-107.5" font-family="Helvetica,sans-Serif" font-size="10.00">/benchmark/src/main.cpp</text>
</a>
</g>
</g>
<!-- Node1&#45;&gt;Node3 -->
<g id="edge2" class="edge"><title>Node1&#45;&gt;Node3</title>
<path fill="none" stroke="midnightblue" d="M487.114,-187.607C436.935,-176.124 368.75,-159.593 309.5,-142 298.046,-138.599 285.733,-134.481 274.543,-130.555"/>
<polygon fill="midnightblue" stroke="midnightblue" points="486.374,-191.028 496.902,-189.835 487.928,-184.203 486.374,-191.028"/>
</g>
<!-- Node4 -->
<g id="node4" class="node"><title>Node4</title>
<g id="a_node4"><a xlink:href="bspline__surface__fitting_8h.html" target="_top" xlink:title="Framework of b&#45;spline surface fitting node. ">
<polygon fill="white" stroke="black" points="318.5,-89.5 318.5,-141.5 470.5,-141.5 470.5,-89.5 318.5,-89.5"/>
<text text-anchor="start" x="326.5" y="-129.5" font-family="Helvetica,sans-Serif" font-size="10.00">/home/jc/hull_abstraction</text>
<text text-anchor="start" x="326.5" y="-118.5" font-family="Helvetica,sans-Serif" font-size="10.00">/ros/src/hull_abstraction</text>
<text text-anchor="start" x="326.5" y="-107.5" font-family="Helvetica,sans-Serif" font-size="10.00">/src/bspline_surface_fitting</text>
<text text-anchor="middle" x="394.5" y="-96.5" font-family="Helvetica,sans-Serif" font-size="10.00">_node/bspline_surface_fitting.h</text>
</a>
</g>
</g>
<!-- Node1&#45;&gt;Node4 -->
<g id="edge3" class="edge"><title>Node1&#45;&gt;Node4</title>
<path fill="none" stroke="midnightblue" d="M502.86,-173.635C483.078,-163.205 461.09,-151.611 442.118,-141.607"/>
<polygon fill="midnightblue" stroke="midnightblue" points="501.297,-176.768 511.775,-178.336 504.562,-170.576 501.297,-176.768"/>
</g>
<!-- Node7 -->
<g id="node7" class="node"><title>Node7</title>
<g id="a_node7"><a xlink:href="greedy__triangulation_8h.html" target="_top" xlink:title="Framework of greedy triangulation node. ">
<polygon fill="white" stroke="black" points="489,-89.5 489,-141.5 630,-141.5 630,-89.5 489,-89.5"/>
<text text-anchor="start" x="497" y="-129.5" font-family="Helvetica,sans-Serif" font-size="10.00">/home/jc/hull_abstraction</text>
<text text-anchor="start" x="497" y="-118.5" font-family="Helvetica,sans-Serif" font-size="10.00">/ros/src/hull_abstraction</text>
<text text-anchor="start" x="497" y="-107.5" font-family="Helvetica,sans-Serif" font-size="10.00">/src/greedy_triangulation</text>
<text text-anchor="middle" x="559.5" y="-96.5" font-family="Helvetica,sans-Serif" font-size="10.00">_node/greedy_triangulation.h</text>
</a>
</g>
</g>
<!-- Node1&#45;&gt;Node7 -->
<g id="edge6" class="edge"><title>Node1&#45;&gt;Node7</title>
<path fill="none" stroke="midnightblue" d="M559.5,-168.191C559.5,-159.282 559.5,-149.899 559.5,-141.607"/>
<polygon fill="midnightblue" stroke="midnightblue" points="556,-168.336 559.5,-178.336 563,-168.336 556,-168.336"/>
</g>
<!-- Node10 -->
<g id="node10" class="node"><title>Node10</title>
<g id="a_node10"><a xlink:href="ros_2src_2hull__abstraction_2src_2hull__abstraction_2reconstructor_8cpp.html" target="_top" xlink:title="/home/jc/hull_abstraction\l/ros/src/hull_abstraction\l/src/hull_abstraction/reconstructor.cpp">
<polygon fill="white" stroke="black" points="648,-95 648,-136 831,-136 831,-95 648,-95"/>
<text text-anchor="start" x="656" y="-124" font-family="Helvetica,sans-Serif" font-size="10.00">/home/jc/hull_abstraction</text>
<text text-anchor="start" x="656" y="-113" font-family="Helvetica,sans-Serif" font-size="10.00">/ros/src/hull_abstraction</text>
<text text-anchor="middle" x="739.5" y="-102" font-family="Helvetica,sans-Serif" font-size="10.00">/src/hull_abstraction/reconstructor.cpp</text>
</a>
</g>
</g>
<!-- Node1&#45;&gt;Node10 -->
<g id="edge9" class="edge"><title>Node1&#45;&gt;Node10</title>
<path fill="none" stroke="midnightblue" d="M620.888,-173.829C646.678,-161.364 675.965,-147.208 698.985,-136.082"/>
<polygon fill="midnightblue" stroke="midnightblue" points="619.044,-170.833 611.563,-178.336 622.09,-177.135 619.044,-170.833"/>
</g>
<!-- Node11 -->
<g id="node11" class="node"><title>Node11</title>
<g id="a_node11"><a xlink:href="marching__cubes_8h.html" target="_top" xlink:title="Framework of marching cubes node. ">
<polygon fill="white" stroke="black" points="849.5,-89.5 849.5,-141.5 983.5,-141.5 983.5,-89.5 849.5,-89.5"/>
<text text-anchor="start" x="857.5" y="-129.5" font-family="Helvetica,sans-Serif" font-size="10.00">/home/jc/hull_abstraction</text>
<text text-anchor="start" x="857.5" y="-118.5" font-family="Helvetica,sans-Serif" font-size="10.00">/ros/src/hull_abstraction</text>
<text text-anchor="start" x="857.5" y="-107.5" font-family="Helvetica,sans-Serif" font-size="10.00">/src/marching_cubes_node</text>
<text text-anchor="middle" x="916.5" y="-96.5" font-family="Helvetica,sans-Serif" font-size="10.00">/marching_cubes.h</text>
</a>
</g>
</g>
<!-- Node1&#45;&gt;Node11 -->
<g id="edge10" class="edge"><title>Node1&#45;&gt;Node11</title>
<path fill="none" stroke="midnightblue" d="M632.204,-189.837C689.251,-178.576 770.456,-161.354 840.5,-142 843.451,-141.185 846.456,-140.321 849.485,-139.423"/>
<polygon fill="midnightblue" stroke="midnightblue" points="631.336,-186.44 622.197,-191.8 632.684,-193.309 631.336,-186.44"/>
</g>
<!-- Node14 -->
<g id="node14" class="node"><title>Node14</title>
<g id="a_node14"><a xlink:href="poisson__reconstruction_8h.html" target="_top" xlink:title="Framework of Poisson reconstruction node. ">
<polygon fill="white" stroke="black" points="1121,-89.5 1121,-141.5 1276,-141.5 1276,-89.5 1121,-89.5"/>
<text text-anchor="start" x="1129" y="-129.5" font-family="Helvetica,sans-Serif" font-size="10.00">/home/jc/hull_abstraction</text>
<text text-anchor="start" x="1129" y="-118.5" font-family="Helvetica,sans-Serif" font-size="10.00">/ros/src/hull_abstraction</text>
<text text-anchor="start" x="1129" y="-107.5" font-family="Helvetica,sans-Serif" font-size="10.00">/src/poisson_reconstruction</text>
<text text-anchor="middle" x="1198.5" y="-96.5" font-family="Helvetica,sans-Serif" font-size="10.00">_node/poisson_reconstruction.h</text>
</a>
</g>
</g>
<!-- Node1&#45;&gt;Node14 -->
<g id="edge13" class="edge"><title>Node1&#45;&gt;Node14</title>
<path fill="none" stroke="midnightblue" d="M632.165,-193.607C753.496,-177.087 996.277,-144.033 1120.85,-127.072"/>
<polygon fill="midnightblue" stroke="midnightblue" points="631.662,-190.143 622.226,-194.96 632.607,-197.079 631.662,-190.143"/>
</g>
<!-- Node5 -->
<g id="node5" class="node"><title>Node5</title>
<g id="a_node5"><a xlink:href="bspline__surface__fitting_8cpp.html" target="_top" xlink:title="/home/jc/hull_abstraction\l/ros/src/hull_abstraction\l/src/bspline_surface_fitting\l_node/bspline_surface_fitting.cpp">
<polygon fill="white" stroke="black" points="147.5,-0.5 147.5,-52.5 309.5,-52.5 309.5,-0.5 147.5,-0.5"/>
<text text-anchor="start" x="155.5" y="-40.5" font-family="Helvetica,sans-Serif" font-size="10.00">/home/jc/hull_abstraction</text>
<text text-anchor="start" x="155.5" y="-29.5" font-family="Helvetica,sans-Serif" font-size="10.00">/ros/src/hull_abstraction</text>
<text text-anchor="start" x="155.5" y="-18.5" font-family="Helvetica,sans-Serif" font-size="10.00">/src/bspline_surface_fitting</text>
<text text-anchor="middle" x="228.5" y="-7.5" font-family="Helvetica,sans-Serif" font-size="10.00">_node/bspline_surface_fitting.cpp</text>
</a>
</g>
</g>
<!-- Node4&#45;&gt;Node5 -->
<g id="edge4" class="edge"><title>Node4&#45;&gt;Node5</title>
<path fill="none" stroke="midnightblue" d="M337.517,-84.6354C317.615,-74.2049 295.493,-62.6109 276.406,-52.6075"/>
<polygon fill="midnightblue" stroke="midnightblue" points="336.004,-87.7939 346.486,-89.336 339.253,-81.5938 336.004,-87.7939"/>
</g>
<!-- Node6 -->
<g id="node6" class="node"><title>Node6</title>
<g id="a_node6"><a xlink:href="bspline__surface__fitting__node_8cpp.html" target="_top" xlink:title="/home/jc/hull_abstraction\l/ros/src/hull_abstraction\l/src/bspline_surface_fitting\l_node.cpp">
<polygon fill="white" stroke="black" points="327.5,-0.5 327.5,-52.5 461.5,-52.5 461.5,-0.5 327.5,-0.5"/>
<text text-anchor="start" x="335.5" y="-40.5" font-family="Helvetica,sans-Serif" font-size="10.00">/home/jc/hull_abstraction</text>
<text text-anchor="start" x="335.5" y="-29.5" font-family="Helvetica,sans-Serif" font-size="10.00">/ros/src/hull_abstraction</text>
<text text-anchor="start" x="335.5" y="-18.5" font-family="Helvetica,sans-Serif" font-size="10.00">/src/bspline_surface_fitting</text>
<text text-anchor="middle" x="394.5" y="-7.5" font-family="Helvetica,sans-Serif" font-size="10.00">_node.cpp</text>
</a>
</g>
</g>
<!-- Node4&#45;&gt;Node6 -->
<g id="edge5" class="edge"><title>Node4&#45;&gt;Node6</title>
<path fill="none" stroke="midnightblue" d="M394.5,-79.1908C394.5,-70.2824 394.5,-60.8986 394.5,-52.6075"/>
<polygon fill="midnightblue" stroke="midnightblue" points="391,-79.336 394.5,-89.336 398,-79.336 391,-79.336"/>
</g>
<!-- Node8 -->
<g id="node8" class="node"><title>Node8</title>
<g id="a_node8"><a xlink:href="greedy__triangulation_8cpp.html" target="_top" xlink:title="/home/jc/hull_abstraction\l/ros/src/hull_abstraction\l/src/greedy_triangulation\l_node/greedy_triangulation.cpp">
<polygon fill="white" stroke="black" points="479.5,-0.5 479.5,-52.5 631.5,-52.5 631.5,-0.5 479.5,-0.5"/>
<text text-anchor="start" x="487.5" y="-40.5" font-family="Helvetica,sans-Serif" font-size="10.00">/home/jc/hull_abstraction</text>
<text text-anchor="start" x="487.5" y="-29.5" font-family="Helvetica,sans-Serif" font-size="10.00">/ros/src/hull_abstraction</text>
<text text-anchor="start" x="487.5" y="-18.5" font-family="Helvetica,sans-Serif" font-size="10.00">/src/greedy_triangulation</text>
<text text-anchor="middle" x="555.5" y="-7.5" font-family="Helvetica,sans-Serif" font-size="10.00">_node/greedy_triangulation.cpp</text>
</a>
</g>
</g>
<!-- Node7&#45;&gt;Node8 -->
<g id="edge7" class="edge"><title>Node7&#45;&gt;Node8</title>
<path fill="none" stroke="midnightblue" d="M557.877,-79.1908C557.467,-70.2824 557.036,-60.8986 556.654,-52.6075"/>
<polygon fill="midnightblue" stroke="midnightblue" points="554.387,-79.5073 558.343,-89.336 561.38,-79.1858 554.387,-79.5073"/>
</g>
<!-- Node9 -->
<g id="node9" class="node"><title>Node9</title>
<g id="a_node9"><a xlink:href="greedy__triangulation__node_8cpp.html" target="_top" xlink:title="/home/jc/hull_abstraction\l/ros/src/hull_abstraction\l/src/greedy_triangulation\l_node.cpp">
<polygon fill="white" stroke="black" points="650,-0.5 650,-52.5 775,-52.5 775,-0.5 650,-0.5"/>
<text text-anchor="start" x="658" y="-40.5" font-family="Helvetica,sans-Serif" font-size="10.00">/home/jc/hull_abstraction</text>
<text text-anchor="start" x="658" y="-29.5" font-family="Helvetica,sans-Serif" font-size="10.00">/ros/src/hull_abstraction</text>
<text text-anchor="start" x="658" y="-18.5" font-family="Helvetica,sans-Serif" font-size="10.00">/src/greedy_triangulation</text>
<text text-anchor="middle" x="712.5" y="-7.5" font-family="Helvetica,sans-Serif" font-size="10.00">_node.cpp</text>
</a>
</g>
</g>
<!-- Node7&#45;&gt;Node9 -->
<g id="edge8" class="edge"><title>Node7&#45;&gt;Node9</title>
<path fill="none" stroke="midnightblue" d="M612.517,-84.3532C630.731,-73.9962 650.912,-62.5208 668.346,-52.6075"/>
<polygon fill="midnightblue" stroke="midnightblue" points="610.717,-81.3504 603.754,-89.336 614.177,-87.4354 610.717,-81.3504"/>
</g>
<!-- Node12 -->
<g id="node12" class="node"><title>Node12</title>
<g id="a_node12"><a xlink:href="marching__cubes_8cpp.html" target="_top" xlink:title="/home/jc/hull_abstraction\l/ros/src/hull_abstraction\l/src/marching_cubes_node\l/marching_cubes.cpp">
<polygon fill="white" stroke="black" points="793.5,-0.5 793.5,-52.5 927.5,-52.5 927.5,-0.5 793.5,-0.5"/>
<text text-anchor="start" x="801.5" y="-40.5" font-family="Helvetica,sans-Serif" font-size="10.00">/home/jc/hull_abstraction</text>
<text text-anchor="start" x="801.5" y="-29.5" font-family="Helvetica,sans-Serif" font-size="10.00">/ros/src/hull_abstraction</text>
<text text-anchor="start" x="801.5" y="-18.5" font-family="Helvetica,sans-Serif" font-size="10.00">/src/marching_cubes_node</text>
<text text-anchor="middle" x="860.5" y="-7.5" font-family="Helvetica,sans-Serif" font-size="10.00">/marching_cubes.cpp</text>
</a>
</g>
</g>
<!-- Node11&#45;&gt;Node12 -->
<g id="edge11" class="edge"><title>Node11&#45;&gt;Node12</title>
<path fill="none" stroke="midnightblue" d="M894.89,-80.9272C888.829,-71.511 882.346,-61.4393 876.661,-52.6075"/>
<polygon fill="midnightblue" stroke="midnightblue" points="891.947,-82.8217 900.302,-89.336 897.833,-79.033 891.947,-82.8217"/>
</g>
<!-- Node13 -->
<g id="node13" class="node"><title>Node13</title>
<g id="a_node13"><a xlink:href="marching__cubes__node_8cpp.html" target="_top" xlink:title="/home/jc/hull_abstraction\l/ros/src/hull_abstraction\l/src/marching_cubes_node.cpp">
<polygon fill="white" stroke="black" points="945.5,-6 945.5,-47 1097.5,-47 1097.5,-6 945.5,-6"/>
<text text-anchor="start" x="953.5" y="-35" font-family="Helvetica,sans-Serif" font-size="10.00">/home/jc/hull_abstraction</text>
<text text-anchor="start" x="953.5" y="-24" font-family="Helvetica,sans-Serif" font-size="10.00">/ros/src/hull_abstraction</text>
<text text-anchor="middle" x="1021.5" y="-13" font-family="Helvetica,sans-Serif" font-size="10.00">/src/marching_cubes_node.cpp</text>
</a>
</g>
</g>
<!-- Node11&#45;&gt;Node13 -->
<g id="edge12" class="edge"><title>Node11&#45;&gt;Node13</title>
<path fill="none" stroke="midnightblue" d="M954.701,-82.8474C969.142,-70.8824 985.145,-57.6228 997.866,-47.0821"/>
<polygon fill="midnightblue" stroke="midnightblue" points="952.338,-80.2607 946.87,-89.336 956.804,-85.6509 952.338,-80.2607"/>
</g>
<!-- Node15 -->
<g id="node15" class="node"><title>Node15</title>
<g id="a_node15"><a xlink:href="poisson__reconstruction_8cpp.html" target="_top" xlink:title="/home/jc/hull_abstraction\l/ros/src/hull_abstraction\l/src/poisson_reconstruction\l_node/poisson_reconstruction.cpp">
<polygon fill="white" stroke="black" points="1116,-0.5 1116,-52.5 1281,-52.5 1281,-0.5 1116,-0.5"/>
<text text-anchor="start" x="1124" y="-40.5" font-family="Helvetica,sans-Serif" font-size="10.00">/home/jc/hull_abstraction</text>
<text text-anchor="start" x="1124" y="-29.5" font-family="Helvetica,sans-Serif" font-size="10.00">/ros/src/hull_abstraction</text>
<text text-anchor="start" x="1124" y="-18.5" font-family="Helvetica,sans-Serif" font-size="10.00">/src/poisson_reconstruction</text>
<text text-anchor="middle" x="1198.5" y="-7.5" font-family="Helvetica,sans-Serif" font-size="10.00">_node/poisson_reconstruction.cpp</text>
</a>
</g>
</g>
<!-- Node14&#45;&gt;Node15 -->
<g id="edge14" class="edge"><title>Node14&#45;&gt;Node15</title>
<path fill="none" stroke="midnightblue" d="M1198.5,-79.1908C1198.5,-70.2824 1198.5,-60.8986 1198.5,-52.6075"/>
<polygon fill="midnightblue" stroke="midnightblue" points="1195,-79.336 1198.5,-89.336 1202,-79.336 1195,-79.336"/>
</g>
<!-- Node16 -->
<g id="node16" class="node"><title>Node16</title>
<g id="a_node16"><a xlink:href="poisson__reconstruction__node_8cpp.html" target="_top" xlink:title="/home/jc/hull_abstraction\l/ros/src/hull_abstraction\l/src/poisson_reconstruction\l_node.cpp">
<polygon fill="white" stroke="black" points="1299,-0.5 1299,-52.5 1436,-52.5 1436,-0.5 1299,-0.5"/>
<text text-anchor="start" x="1307" y="-40.5" font-family="Helvetica,sans-Serif" font-size="10.00">/home/jc/hull_abstraction</text>
<text text-anchor="start" x="1307" y="-29.5" font-family="Helvetica,sans-Serif" font-size="10.00">/ros/src/hull_abstraction</text>
<text text-anchor="start" x="1307" y="-18.5" font-family="Helvetica,sans-Serif" font-size="10.00">/src/poisson_reconstruction</text>
<text text-anchor="middle" x="1367.5" y="-7.5" font-family="Helvetica,sans-Serif" font-size="10.00">_node.cpp</text>
</a>
</g>
</g>
<!-- Node14&#45;&gt;Node16 -->
<g id="edge15" class="edge"><title>Node14&#45;&gt;Node16</title>
<path fill="none" stroke="midnightblue" d="M1256.51,-84.6354C1276.77,-74.2049 1299.3,-62.6109 1318.73,-52.6075"/>
<polygon fill="midnightblue" stroke="midnightblue" points="1254.67,-81.647 1247.38,-89.336 1257.87,-87.8708 1254.67,-81.647"/>
</g>
</g>
</svg>
