<?xml version="1.0" encoding="UTF-8" standalone="no"?>
<!DOCTYPE svg PUBLIC "-//W3C//DTD SVG 1.1//EN"
 "http://www.w3.org/Graphics/SVG/1.1/DTD/svg11.dtd">
<!-- Generated by graphviz version 2.38.0 (20140413.2041)
 -->
<!-- Title: /home/jc/hull_abstraction/ros/src/hull_abstraction/include/pcl_utilization/pcl_utilization.h Pages: 1 -->
<svg width="1831pt" height="417pt"
 viewBox="0.00 0.00 1830.50 417.00" xmlns="http://www.w3.org/2000/svg" xmlns:xlink="http://www.w3.org/1999/xlink">
<g id="graph0" class="graph" transform="scale(1 1) rotate(0) translate(4 413)">
<title>/home/jc/hull_abstraction/ros/src/hull_abstraction/include/pcl_utilization/pcl_utilization.h</title>
<polygon fill="white" stroke="none" points="-4,4 -4,-413 1826.5,-413 1826.5,4 -4,4"/>
<!-- Node1 -->
<g id="node1" class="node"><title>Node1</title>
<polygon fill="#bfbfbf" stroke="black" points="598.5,-356.5 598.5,-408.5 723.5,-408.5 723.5,-356.5 598.5,-356.5"/>
<text text-anchor="start" x="606.5" y="-396.5" font-family="Helvetica,sans-Serif" font-size="10.00">/home/jc/hull_abstraction</text>
<text text-anchor="start" x="606.5" y="-385.5" font-family="Helvetica,sans-Serif" font-size="10.00">/ros/src/hull_abstraction</text>
<text text-anchor="start" x="606.5" y="-374.5" font-family="Helvetica,sans-Serif" font-size="10.00">/include/pcl_utilization</text>
<text text-anchor="middle" x="661" y="-363.5" font-family="Helvetica,sans-Serif" font-size="10.00">/pcl_utilization.h</text>
</g>
<!-- Node2 -->
<g id="node2" class="node"><title>Node2</title>
<g id="a_node2"><a xlink:href="benchmark_2include_2hull__abstraction_2preprocessor_8h.html" target="_top" xlink:title="This file contains the declaration of the Preprocessor class. ">
<polygon fill="white" stroke="black" points="78.5,-273 78.5,-314 215.5,-314 215.5,-273 78.5,-273"/>
<text text-anchor="start" x="86.5" y="-302" font-family="Helvetica,sans-Serif" font-size="10.00">/home/jc/hull_abstraction</text>
<text text-anchor="start" x="86.5" y="-291" font-family="Helvetica,sans-Serif" font-size="10.00">/benchmark/include/hull</text>
<text text-anchor="middle" x="147" y="-280" font-family="Helvetica,sans-Serif" font-size="10.00">_abstraction/preprocessor.h</text>
</a>
</g>
</g>
<!-- Node1&#45;&gt;Node2 -->
<g id="edge1" class="edge"><title>Node1&#45;&gt;Node2</title>
<path fill="none" stroke="midnightblue" d="M588.222,-375.183C501.073,-366.715 351.066,-349.258 225,-320 217.783,-318.325 210.28,-316.279 202.905,-314.08"/>
<polygon fill="midnightblue" stroke="midnightblue" points="587.984,-378.677 598.273,-376.147 588.653,-371.709 587.984,-378.677"/>
</g>
<!-- Node3 -->
<g id="node3" class="node"><title>Node3</title>
<g id="a_node3"><a xlink:href="benchmark_2src_2pcl__utilization_2pcl__utilization_8cpp.html" target="_top" xlink:title="/home/jc/hull_abstraction\l/benchmark/src/pcl_utilization\l/pcl_utilization.cpp">
<polygon fill="white" stroke="black" points="234,-273 234,-314 380,-314 380,-273 234,-273"/>
<text text-anchor="start" x="242" y="-302" font-family="Helvetica,sans-Serif" font-size="10.00">/home/jc/hull_abstraction</text>
<text text-anchor="start" x="242" y="-291" font-family="Helvetica,sans-Serif" font-size="10.00">/benchmark/src/pcl_utilization</text>
<text text-anchor="middle" x="307" y="-280" font-family="Helvetica,sans-Serif" font-size="10.00">/pcl_utilization.cpp</text>
</a>
</g>
</g>
<!-- Node1&#45;&gt;Node3 -->
<g id="edge2" class="edge"><title>Node1&#45;&gt;Node3</title>
<path fill="none" stroke="midnightblue" d="M588.633,-366.037C534.762,-354.234 459.528,-337.134 394,-320 386.995,-318.168 379.699,-316.172 372.442,-314.128"/>
<polygon fill="midnightblue" stroke="midnightblue" points="587.919,-369.463 598.436,-368.178 589.413,-362.625 587.919,-369.463"/>
</g>
<!-- Node4 -->
<g id="node4" class="node"><title>Node4</title>
<g id="a_node4"><a xlink:href="ros_2src_2hull__abstraction_2include_2hull__abstraction_2preprocessor_8h.html" target="_top" xlink:title="This file contains the declaration of the Preprocessor class. ">
<polygon fill="white" stroke="black" points="795.5,-267.5 795.5,-319.5 920.5,-319.5 920.5,-267.5 795.5,-267.5"/>
<text text-anchor="start" x="803.5" y="-307.5" font-family="Helvetica,sans-Serif" font-size="10.00">/home/jc/hull_abstraction</text>
<text text-anchor="start" x="803.5" y="-296.5" font-family="Helvetica,sans-Serif" font-size="10.00">/ros/src/hull_abstraction</text>
<text text-anchor="start" x="803.5" y="-285.5" font-family="Helvetica,sans-Serif" font-size="10.00">/include/hull_abstraction</text>
<text text-anchor="middle" x="858" y="-274.5" font-family="Helvetica,sans-Serif" font-size="10.00">/preprocessor.h</text>
</a>
</g>
</g>
<!-- Node1&#45;&gt;Node4 -->
<g id="edge3" class="edge"><title>Node1&#45;&gt;Node4</title>
<path fill="none" stroke="midnightblue" d="M727.132,-352.295C751.2,-341.665 778.169,-329.755 801.343,-319.521"/>
<polygon fill="midnightblue" stroke="midnightblue" points="725.45,-349.211 717.716,-356.453 728.278,-355.615 725.45,-349.211"/>
</g>
<!-- Node10 -->
<g id="node10" class="node"><title>Node10</title>
<g id="a_node10"><a xlink:href="bspline__surface__fitting_8h.html" target="_top" xlink:title="Framework of b&#45;spline surface fitting node. ">
<polygon fill="white" stroke="black" points="170,-89.5 170,-141.5 322,-141.5 322,-89.5 170,-89.5"/>
<text text-anchor="start" x="178" y="-129.5" font-family="Helvetica,sans-Serif" font-size="10.00">/home/jc/hull_abstraction</text>
<text text-anchor="start" x="178" y="-118.5" font-family="Helvetica,sans-Serif" font-size="10.00">/ros/src/hull_abstraction</text>
<text text-anchor="start" x="178" y="-107.5" font-family="Helvetica,sans-Serif" font-size="10.00">/src/bspline_surface_fitting</text>
<text text-anchor="middle" x="246" y="-96.5" font-family="Helvetica,sans-Serif" font-size="10.00">_node/bspline_surface_fitting.h</text>
</a>
</g>
</g>
<!-- Node1&#45;&gt;Node10 -->
<g id="edge30" class="edge"><title>Node1&#45;&gt;Node10</title>
<path fill="none" stroke="midnightblue" d="M588.4,-360.896C557.891,-350.741 522.672,-336.99 493,-320 402.835,-268.372 312.6,-183.585 270.508,-141.63"/>
<polygon fill="midnightblue" stroke="midnightblue" points="587.535,-364.295 598.127,-364.066 589.704,-357.64 587.535,-364.295"/>
</g>
<!-- Node13 -->
<g id="node13" class="node"><title>Node13</title>
<g id="a_node13"><a xlink:href="greedy__triangulation_8h.html" target="_top" xlink:title="Framework of greedy triangulation node. ">
<polygon fill="white" stroke="black" points="340.5,-89.5 340.5,-141.5 481.5,-141.5 481.5,-89.5 340.5,-89.5"/>
<text text-anchor="start" x="348.5" y="-129.5" font-family="Helvetica,sans-Serif" font-size="10.00">/home/jc/hull_abstraction</text>
<text text-anchor="start" x="348.5" y="-118.5" font-family="Helvetica,sans-Serif" font-size="10.00">/ros/src/hull_abstraction</text>
<text text-anchor="start" x="348.5" y="-107.5" font-family="Helvetica,sans-Serif" font-size="10.00">/src/greedy_triangulation</text>
<text text-anchor="middle" x="411" y="-96.5" font-family="Helvetica,sans-Serif" font-size="10.00">_node/greedy_triangulation.h</text>
</a>
</g>
</g>
<!-- Node1&#45;&gt;Node13 -->
<g id="edge34" class="edge"><title>Node1&#45;&gt;Node13</title>
<path fill="none" stroke="midnightblue" d="M605.686,-351.146C561.313,-324.438 500.034,-281.925 460,-231 438.753,-203.972 424.996,-166.349 417.622,-141.718"/>
<polygon fill="midnightblue" stroke="midnightblue" points="603.938,-354.179 614.324,-356.275 607.512,-348.16 603.938,-354.179"/>
</g>
<!-- Node17 -->
<g id="node17" class="node"><title>Node17</title>
<g id="a_node17"><a xlink:href="marching__cubes_8h.html" target="_top" xlink:title="Framework of marching cubes node. ">
<polygon fill="white" stroke="black" points="1192,-89.5 1192,-141.5 1326,-141.5 1326,-89.5 1192,-89.5"/>
<text text-anchor="start" x="1200" y="-129.5" font-family="Helvetica,sans-Serif" font-size="10.00">/home/jc/hull_abstraction</text>
<text text-anchor="start" x="1200" y="-118.5" font-family="Helvetica,sans-Serif" font-size="10.00">/ros/src/hull_abstraction</text>
<text text-anchor="start" x="1200" y="-107.5" font-family="Helvetica,sans-Serif" font-size="10.00">/src/marching_cubes_node</text>
<text text-anchor="middle" x="1259" y="-96.5" font-family="Helvetica,sans-Serif" font-size="10.00">/marching_cubes.h</text>
</a>
</g>
</g>
<!-- Node1&#45;&gt;Node17 -->
<g id="edge35" class="edge"><title>Node1&#45;&gt;Node17</title>
<path fill="none" stroke="midnightblue" d="M733.913,-374.719C881.668,-359.302 1208.01,-316.178 1274,-231 1293.77,-205.484 1282.74,-166.775 1271.83,-141.56"/>
<polygon fill="midnightblue" stroke="midnightblue" points="733.179,-371.276 723.589,-375.781 733.895,-378.239 733.179,-371.276"/>
</g>
<!-- Node27 -->
<g id="node27" class="node"><title>Node27</title>
<g id="a_node27"><a xlink:href="display__mesh_8h.html" target="_top" xlink:title="Framework of node for displaying polygon meshes. ">
<polygon fill="white" stroke="black" points="1413,-273 1413,-314 1607,-314 1607,-273 1413,-273"/>
<text text-anchor="start" x="1421" y="-302" font-family="Helvetica,sans-Serif" font-size="10.00">/home/jc/hull_abstraction</text>
<text text-anchor="start" x="1421" y="-291" font-family="Helvetica,sans-Serif" font-size="10.00">/ros/src/hull_abstraction</text>
<text text-anchor="middle" x="1510" y="-280" font-family="Helvetica,sans-Serif" font-size="10.00">/src/display_mesh_node/display_mesh.h</text>
</a>
</g>
</g>
<!-- Node1&#45;&gt;Node27 -->
<g id="edge31" class="edge"><title>Node1&#45;&gt;Node27</title>
<path fill="none" stroke="midnightblue" d="M733.949,-375.753C856.02,-365.904 1109.34,-344.481 1323,-320 1352.13,-316.662 1383.75,-312.541 1412.56,-308.593"/>
<polygon fill="midnightblue" stroke="midnightblue" points="733.301,-372.293 723.614,-376.584 733.862,-379.271 733.301,-372.293"/>
</g>
<!-- Node30 -->
<g id="node30" class="node"><title>Node30</title>
<g id="a_node30"><a xlink:href="ros_2src_2hull__abstraction_2src_2pcl__utilization_2pcl__utilization_8cpp.html" target="_top" xlink:title="/home/jc/hull_abstraction\l/ros/src/hull_abstraction\l/src/pcl_utilization/pcl\l_utilization.cpp">
<polygon fill="white" stroke="black" points="1624.5,-267.5 1624.5,-319.5 1749.5,-319.5 1749.5,-267.5 1624.5,-267.5"/>
<text text-anchor="start" x="1632.5" y="-307.5" font-family="Helvetica,sans-Serif" font-size="10.00">/home/jc/hull_abstraction</text>
<text text-anchor="start" x="1632.5" y="-296.5" font-family="Helvetica,sans-Serif" font-size="10.00">/ros/src/hull_abstraction</text>
<text text-anchor="start" x="1632.5" y="-285.5" font-family="Helvetica,sans-Serif" font-size="10.00">/src/pcl_utilization/pcl</text>
<text text-anchor="middle" x="1687" y="-274.5" font-family="Helvetica,sans-Serif" font-size="10.00">_utilization.cpp</text>
</a>
</g>
</g>
<!-- Node1&#45;&gt;Node30 -->
<g id="edge36" class="edge"><title>Node1&#45;&gt;Node30</title>
<path fill="none" stroke="midnightblue" d="M733.594,-379.457C926.297,-373.612 1447.49,-354.959 1616,-320 1618.69,-319.441 1621.42,-318.803 1624.16,-318.101"/>
<polygon fill="midnightblue" stroke="midnightblue" points="733.459,-375.959 723.569,-379.758 733.67,-382.956 733.459,-375.959"/>
</g>
<!-- Node5 -->
<g id="node5" class="node"><title>Node5</title>
<g id="a_node5"><a xlink:href="benchmark_2include_2hull__abstraction_2reconstructor_8h.html" target="_top" xlink:title="This file contains the declaration of the Reconstructor class. ">
<polygon fill="white" stroke="black" points="905,-184 905,-225 1043,-225 1043,-184 905,-184"/>
<text text-anchor="start" x="913" y="-213" font-family="Helvetica,sans-Serif" font-size="10.00">/home/jc/hull_abstraction</text>
<text text-anchor="start" x="913" y="-202" font-family="Helvetica,sans-Serif" font-size="10.00">/benchmark/include/hull</text>
<text text-anchor="middle" x="974" y="-191" font-family="Helvetica,sans-Serif" font-size="10.00">_abstraction/reconstructor.h</text>
</a>
</g>
</g>
<!-- Node4&#45;&gt;Node5 -->
<g id="edge4" class="edge"><title>Node4&#45;&gt;Node5</title>
<path fill="none" stroke="midnightblue" d="M899.761,-261.179C915.829,-249.128 933.706,-235.72 947.891,-225.082"/>
<polygon fill="midnightblue" stroke="midnightblue" points="897.452,-258.536 891.552,-267.336 901.652,-264.136 897.452,-258.536"/>
</g>
<!-- Node6 -->
<g id="node6" class="node"><title>Node6</title>
<g id="a_node6"><a xlink:href="benchmark_2src_2hull__abstraction_2preprocessor_8cpp.html" target="_top" xlink:title="/home/jc/hull_abstraction\l/benchmark/src/hull_abstraction\l/preprocessor.cpp">
<polygon fill="white" stroke="black" points="512.5,-184 512.5,-225 667.5,-225 667.5,-184 512.5,-184"/>
<text text-anchor="start" x="520.5" y="-213" font-family="Helvetica,sans-Serif" font-size="10.00">/home/jc/hull_abstraction</text>
<text text-anchor="start" x="520.5" y="-202" font-family="Helvetica,sans-Serif" font-size="10.00">/benchmark/src/hull_abstraction</text>
<text text-anchor="middle" x="590" y="-191" font-family="Helvetica,sans-Serif" font-size="10.00">/preprocessor.cpp</text>
</a>
</g>
</g>
<!-- Node4&#45;&gt;Node6 -->
<g id="edge5" class="edge"><title>Node4&#45;&gt;Node6</title>
<path fill="none" stroke="midnightblue" d="M785.461,-268.952C743.068,-255.19 690.198,-238.027 650.138,-225.022"/>
<polygon fill="midnightblue" stroke="midnightblue" points="784.574,-272.344 795.166,-272.102 786.735,-265.686 784.574,-272.344"/>
</g>
<!-- Node7 -->
<g id="node7" class="node"><title>Node7</title>
<g id="a_node7"><a xlink:href="main_8cpp.html" target="_top" xlink:title="/home/jc/hull_abstraction\l/benchmark/src/main.cpp">
<polygon fill="white" stroke="black" points="1046.5,-100.5 1046.5,-130.5 1173.5,-130.5 1173.5,-100.5 1046.5,-100.5"/>
<text text-anchor="start" x="1054.5" y="-118.5" font-family="Helvetica,sans-Serif" font-size="10.00">/home/jc/hull_abstraction</text>
<text text-anchor="middle" x="1110" y="-107.5" font-family="Helvetica,sans-Serif" font-size="10.00">/benchmark/src/main.cpp</text>
</a>
</g>
</g>
<!-- Node4&#45;&gt;Node7 -->
<g id="edge6" class="edge"><title>Node4&#45;&gt;Node7</title>
<path fill="none" stroke="midnightblue" d="M860.836,-257.332C864.75,-231.859 874.031,-198.438 896,-178 943.669,-133.652 975.692,-160.888 1038,-142 1049.29,-138.576 1061.44,-134.451 1072.48,-130.526"/>
<polygon fill="midnightblue" stroke="midnightblue" points="857.353,-256.979 859.505,-267.353 864.292,-257.901 857.353,-256.979"/>
</g>
<!-- Node8 -->
<g id="node8" class="node"><title>Node8</title>
<g id="a_node8"><a xlink:href="ros_2src_2hull__abstraction_2include_2hull__abstraction_2reconstructor_8h.html" target="_top" xlink:title="This file contains the declaration of the Reconstructor class. ">
<polygon fill="white" stroke="black" points="685.5,-178.5 685.5,-230.5 810.5,-230.5 810.5,-178.5 685.5,-178.5"/>
<text text-anchor="start" x="693.5" y="-218.5" font-family="Helvetica,sans-Serif" font-size="10.00">/home/jc/hull_abstraction</text>
<text text-anchor="start" x="693.5" y="-207.5" font-family="Helvetica,sans-Serif" font-size="10.00">/ros/src/hull_abstraction</text>
<text text-anchor="start" x="693.5" y="-196.5" font-family="Helvetica,sans-Serif" font-size="10.00">/include/hull_abstraction</text>
<text text-anchor="middle" x="748" y="-185.5" font-family="Helvetica,sans-Serif" font-size="10.00">/reconstructor.h</text>
</a>
</g>
</g>
<!-- Node4&#45;&gt;Node8 -->
<g id="edge7" class="edge"><title>Node4&#45;&gt;Node8</title>
<path fill="none" stroke="midnightblue" d="M818.089,-260.934C805.473,-250.956 791.709,-240.07 779.745,-230.607"/>
<polygon fill="midnightblue" stroke="midnightblue" points="816.169,-263.878 826.183,-267.336 820.511,-258.387 816.169,-263.878"/>
</g>
<!-- Node4&#45;&gt;Node13 -->
<g id="edge23" class="edge"><title>Node4&#45;&gt;Node13</title>
<path fill="none" stroke="midnightblue" d="M785.069,-285.976C695.478,-276.922 549.629,-258.492 503,-231 501.778,-230.28 457.777,-175.205 431.077,-141.711"/>
<polygon fill="midnightblue" stroke="midnightblue" points="784.87,-289.473 795.168,-286.981 785.563,-282.508 784.87,-289.473"/>
</g>
<!-- Node4&#45;&gt;Node17 -->
<g id="edge25" class="edge"><title>Node4&#45;&gt;Node17</title>
<path fill="none" stroke="midnightblue" d="M930.765,-291.631C1032.65,-288.739 1210.1,-277.03 1252,-231 1273.72,-207.142 1270.75,-167.628 1265.65,-141.826"/>
<polygon fill="midnightblue" stroke="midnightblue" points="930.449,-288.138 920.544,-291.899 930.632,-295.136 930.449,-288.138"/>
</g>
<!-- Node20 -->
<g id="node20" class="node"><title>Node20</title>
<g id="a_node20"><a xlink:href="poisson__reconstruction_8h.html" target="_top" xlink:title="Framework of Poisson reconstruction node. ">
<polygon fill="white" stroke="black" points="873.5,-89.5 873.5,-141.5 1028.5,-141.5 1028.5,-89.5 873.5,-89.5"/>
<text text-anchor="start" x="881.5" y="-129.5" font-family="Helvetica,sans-Serif" font-size="10.00">/home/jc/hull_abstraction</text>
<text text-anchor="start" x="881.5" y="-118.5" font-family="Helvetica,sans-Serif" font-size="10.00">/ros/src/hull_abstraction</text>
<text text-anchor="start" x="881.5" y="-107.5" font-family="Helvetica,sans-Serif" font-size="10.00">/src/poisson_reconstruction</text>
<text text-anchor="middle" x="951" y="-96.5" font-family="Helvetica,sans-Serif" font-size="10.00">_node/poisson_reconstruction.h</text>
</a>
</g>
</g>
<!-- Node4&#45;&gt;Node20 -->
<g id="edge29" class="edge"><title>Node4&#45;&gt;Node20</title>
<path fill="none" stroke="midnightblue" d="M851.763,-257.095C849.364,-233.293 849.817,-202.003 863,-178 871.165,-163.133 884.645,-151.065 898.629,-141.684"/>
<polygon fill="midnightblue" stroke="midnightblue" points="848.301,-257.619 852.984,-267.123 855.25,-256.773 848.301,-257.619"/>
</g>
<!-- Node23 -->
<g id="node23" class="node"><title>Node23</title>
<g id="a_node23"><a xlink:href="ros_2src_2hull__abstraction_2src_2hull__abstraction_2preprocessor_8cpp.html" target="_top" xlink:title="/home/jc/hull_abstraction\l/ros/src/hull_abstraction\l/src/hull_abstraction/preprocessor.cpp">
<polygon fill="white" stroke="black" points="1061,-184 1061,-225 1243,-225 1243,-184 1061,-184"/>
<text text-anchor="start" x="1069" y="-213" font-family="Helvetica,sans-Serif" font-size="10.00">/home/jc/hull_abstraction</text>
<text text-anchor="start" x="1069" y="-202" font-family="Helvetica,sans-Serif" font-size="10.00">/ros/src/hull_abstraction</text>
<text text-anchor="middle" x="1152" y="-191" font-family="Helvetica,sans-Serif" font-size="10.00">/src/hull_abstraction/preprocessor.cpp</text>
</a>
</g>
</g>
<!-- Node4&#45;&gt;Node23 -->
<g id="edge24" class="edge"><title>Node4&#45;&gt;Node23</title>
<path fill="none" stroke="midnightblue" d="M930.339,-271.093C977.959,-257.002 1039.81,-238.699 1086.07,-225.009"/>
<polygon fill="midnightblue" stroke="midnightblue" points="929.306,-267.749 920.71,-273.943 931.292,-274.462 929.306,-267.749"/>
</g>
<!-- Node24 -->
<g id="node24" class="node"><title>Node24</title>
<g id="a_node24"><a xlink:href="moving__least__squares_8h.html" target="_top" xlink:title="Framework of moving least squares node. ">
<polygon fill="white" stroke="black" points="1337,-178.5 1337,-230.5 1489,-230.5 1489,-178.5 1337,-178.5"/>
<text text-anchor="start" x="1345" y="-218.5" font-family="Helvetica,sans-Serif" font-size="10.00">/home/jc/hull_abstraction</text>
<text text-anchor="start" x="1345" y="-207.5" font-family="Helvetica,sans-Serif" font-size="10.00">/ros/src/hull_abstraction</text>
<text text-anchor="start" x="1345" y="-196.5" font-family="Helvetica,sans-Serif" font-size="10.00">/src/moving_least_squares</text>
<text text-anchor="middle" x="1413" y="-185.5" font-family="Helvetica,sans-Serif" font-size="10.00">_node/moving_least_squares.h</text>
</a>
</g>
</g>
<!-- Node4&#45;&gt;Node24 -->
<g id="edge26" class="edge"><title>Node4&#45;&gt;Node24</title>
<path fill="none" stroke="midnightblue" d="M930.833,-283.219C1015.98,-272.09 1161.04,-252.259 1285,-231 1301.86,-228.108 1319.91,-224.704 1336.98,-221.342"/>
<polygon fill="midnightblue" stroke="midnightblue" points="930.216,-279.77 920.752,-284.533 931.12,-286.711 930.216,-279.77"/>
</g>
<!-- Node8&#45;&gt;Node7 -->
<g id="edge9" class="edge"><title>Node8&#45;&gt;Node7</title>
<path fill="none" stroke="midnightblue" d="M820.721,-187.198C834.743,-184.105 849.321,-180.923 863,-178 940.653,-161.405 961.505,-163.305 1038,-142 1049.62,-138.762 1062.08,-134.604 1073.31,-130.589"/>
<polygon fill="midnightblue" stroke="midnightblue" points="819.639,-183.853 810.631,-189.43 821.151,-190.687 819.639,-183.853"/>
</g>
<!-- Node9 -->
<g id="node9" class="node"><title>Node9</title>
<g id="a_node9"><a xlink:href="benchmark_2src_2hull__abstraction_2reconstructor_8cpp.html" target="_top" xlink:title="/home/jc/hull_abstraction\l/benchmark/src/hull_abstraction\l/reconstructor.cpp">
<polygon fill="white" stroke="black" points="499.5,-95 499.5,-136 654.5,-136 654.5,-95 499.5,-95"/>
<text text-anchor="start" x="507.5" y="-124" font-family="Helvetica,sans-Serif" font-size="10.00">/home/jc/hull_abstraction</text>
<text text-anchor="start" x="507.5" y="-113" font-family="Helvetica,sans-Serif" font-size="10.00">/benchmark/src/hull_abstraction</text>
<text text-anchor="middle" x="577" y="-102" font-family="Helvetica,sans-Serif" font-size="10.00">/reconstructor.cpp</text>
</a>
</g>
</g>
<!-- Node8&#45;&gt;Node9 -->
<g id="edge8" class="edge"><title>Node8&#45;&gt;Node9</title>
<path fill="none" stroke="midnightblue" d="M689.358,-173.665C664.937,-161.24 637.262,-147.16 615.489,-136.082"/>
<polygon fill="midnightblue" stroke="midnightblue" points="688.04,-176.921 698.54,-178.336 691.214,-170.682 688.04,-176.921"/>
</g>
<!-- Node8&#45;&gt;Node10 -->
<g id="edge10" class="edge"><title>Node8&#45;&gt;Node10</title>
<path fill="none" stroke="midnightblue" d="M675.287,-178.105C523.706,-145.216 478.915,-171.632 331,-142 328.13,-141.425 325.217,-140.795 322.285,-140.121"/>
<polygon fill="midnightblue" stroke="midnightblue" points="674.907,-181.606 685.429,-180.358 676.426,-174.772 674.907,-181.606"/>
</g>
<!-- Node8&#45;&gt;Node13 -->
<g id="edge13" class="edge"><title>Node8&#45;&gt;Node13</title>
<path fill="none" stroke="midnightblue" d="M675.533,-178.057C592.953,-156.371 568.521,-162.193 490,-142 487.208,-141.282 484.371,-140.521 481.511,-139.727"/>
<polygon fill="midnightblue" stroke="midnightblue" points="674.781,-181.479 685.346,-180.69 676.595,-174.718 674.781,-181.479"/>
</g>
<!-- Node16 -->
<g id="node16" class="node"><title>Node16</title>
<g id="a_node16"><a xlink:href="ros_2src_2hull__abstraction_2src_2hull__abstraction_2reconstructor_8cpp.html" target="_top" xlink:title="/home/jc/hull_abstraction\l/ros/src/hull_abstraction\l/src/hull_abstraction/reconstructor.cpp">
<polygon fill="white" stroke="black" points="672.5,-95 672.5,-136 855.5,-136 855.5,-95 672.5,-95"/>
<text text-anchor="start" x="680.5" y="-124" font-family="Helvetica,sans-Serif" font-size="10.00">/home/jc/hull_abstraction</text>
<text text-anchor="start" x="680.5" y="-113" font-family="Helvetica,sans-Serif" font-size="10.00">/ros/src/hull_abstraction</text>
<text text-anchor="middle" x="764" y="-102" font-family="Helvetica,sans-Serif" font-size="10.00">/src/hull_abstraction/reconstructor.cpp</text>
</a>
</g>
</g>
<!-- Node8&#45;&gt;Node16 -->
<g id="edge16" class="edge"><title>Node8&#45;&gt;Node16</title>
<path fill="none" stroke="midnightblue" d="M754.438,-168.494C756.469,-157.45 758.64,-145.647 760.399,-136.082"/>
<polygon fill="midnightblue" stroke="midnightblue" points="750.994,-167.868 752.628,-178.336 757.879,-169.134 750.994,-167.868"/>
</g>
<!-- Node8&#45;&gt;Node17 -->
<g id="edge17" class="edge"><title>Node8&#45;&gt;Node17</title>
<path fill="none" stroke="midnightblue" d="M820.63,-190.303C844.592,-186.132 871.404,-181.66 896,-178 1023.16,-159.081 1057.66,-170.588 1183,-142 1185.85,-141.35 1188.74,-140.635 1191.65,-139.87"/>
<polygon fill="midnightblue" stroke="midnightblue" points="819.795,-186.896 810.549,-192.069 821.003,-193.791 819.795,-186.896"/>
</g>
<!-- Node8&#45;&gt;Node20 -->
<g id="edge20" class="edge"><title>Node8&#45;&gt;Node20</title>
<path fill="none" stroke="midnightblue" d="M815.817,-174.436C840.701,-163.771 868.632,-151.8 892.617,-141.521"/>
<polygon fill="midnightblue" stroke="midnightblue" points="814.256,-171.296 806.444,-178.453 817.014,-177.73 814.256,-171.296"/>
</g>
<!-- Node11 -->
<g id="node11" class="node"><title>Node11</title>
<g id="a_node11"><a xlink:href="bspline__surface__fitting_8cpp.html" target="_top" xlink:title="/home/jc/hull_abstraction\l/ros/src/hull_abstraction\l/src/bspline_surface_fitting\l_node/bspline_surface_fitting.cpp">
<polygon fill="white" stroke="black" points="0,-0.5 0,-52.5 162,-52.5 162,-0.5 0,-0.5"/>
<text text-anchor="start" x="8" y="-40.5" font-family="Helvetica,sans-Serif" font-size="10.00">/home/jc/hull_abstraction</text>
<text text-anchor="start" x="8" y="-29.5" font-family="Helvetica,sans-Serif" font-size="10.00">/ros/src/hull_abstraction</text>
<text text-anchor="start" x="8" y="-18.5" font-family="Helvetica,sans-Serif" font-size="10.00">/src/bspline_surface_fitting</text>
<text text-anchor="middle" x="81" y="-7.5" font-family="Helvetica,sans-Serif" font-size="10.00">_node/bspline_surface_fitting.cpp</text>
</a>
</g>
</g>
<!-- Node10&#45;&gt;Node11 -->
<g id="edge11" class="edge"><title>Node10&#45;&gt;Node11</title>
<path fill="none" stroke="midnightblue" d="M189.36,-84.6354C169.578,-74.2049 147.59,-62.6109 128.618,-52.6075"/>
<polygon fill="midnightblue" stroke="midnightblue" points="187.797,-87.7678 198.275,-89.336 191.062,-81.5759 187.797,-87.7678"/>
</g>
<!-- Node12 -->
<g id="node12" class="node"><title>Node12</title>
<g id="a_node12"><a xlink:href="bspline__surface__fitting__node_8cpp.html" target="_top" xlink:title="/home/jc/hull_abstraction\l/ros/src/hull_abstraction\l/src/bspline_surface_fitting\l_node.cpp">
<polygon fill="white" stroke="black" points="180,-0.5 180,-52.5 314,-52.5 314,-0.5 180,-0.5"/>
<text text-anchor="start" x="188" y="-40.5" font-family="Helvetica,sans-Serif" font-size="10.00">/home/jc/hull_abstraction</text>
<text text-anchor="start" x="188" y="-29.5" font-family="Helvetica,sans-Serif" font-size="10.00">/ros/src/hull_abstraction</text>
<text text-anchor="start" x="188" y="-18.5" font-family="Helvetica,sans-Serif" font-size="10.00">/src/bspline_surface_fitting</text>
<text text-anchor="middle" x="247" y="-7.5" font-family="Helvetica,sans-Serif" font-size="10.00">_node.cpp</text>
</a>
</g>
</g>
<!-- Node10&#45;&gt;Node12 -->
<g id="edge12" class="edge"><title>Node10&#45;&gt;Node12</title>
<path fill="none" stroke="midnightblue" d="M246.406,-79.1908C246.508,-70.2824 246.616,-60.8986 246.711,-52.6075"/>
<polygon fill="midnightblue" stroke="midnightblue" points="242.905,-79.2964 246.289,-89.336 249.904,-79.3769 242.905,-79.2964"/>
</g>
<!-- Node14 -->
<g id="node14" class="node"><title>Node14</title>
<g id="a_node14"><a xlink:href="greedy__triangulation_8cpp.html" target="_top" xlink:title="/home/jc/hull_abstraction\l/ros/src/hull_abstraction\l/src/greedy_triangulation\l_node/greedy_triangulation.cpp">
<polygon fill="white" stroke="black" points="333,-0.5 333,-52.5 485,-52.5 485,-0.5 333,-0.5"/>
<text text-anchor="start" x="341" y="-40.5" font-family="Helvetica,sans-Serif" font-size="10.00">/home/jc/hull_abstraction</text>
<text text-anchor="start" x="341" y="-29.5" font-family="Helvetica,sans-Serif" font-size="10.00">/ros/src/hull_abstraction</text>
<text text-anchor="start" x="341" y="-18.5" font-family="Helvetica,sans-Serif" font-size="10.00">/src/greedy_triangulation</text>
<text text-anchor="middle" x="409" y="-7.5" font-family="Helvetica,sans-Serif" font-size="10.00">_node/greedy_triangulation.cpp</text>
</a>
</g>
</g>
<!-- Node13&#45;&gt;Node14 -->
<g id="edge14" class="edge"><title>Node13&#45;&gt;Node14</title>
<path fill="none" stroke="midnightblue" d="M410.188,-79.1908C409.984,-70.2824 409.768,-60.8986 409.577,-52.6075"/>
<polygon fill="midnightblue" stroke="midnightblue" points="406.693,-79.4191 410.422,-89.336 413.691,-79.2582 406.693,-79.4191"/>
</g>
<!-- Node15 -->
<g id="node15" class="node"><title>Node15</title>
<g id="a_node15"><a xlink:href="greedy__triangulation__node_8cpp.html" target="_top" xlink:title="/home/jc/hull_abstraction\l/ros/src/hull_abstraction\l/src/greedy_triangulation\l_node.cpp">
<polygon fill="white" stroke="black" points="503.5,-0.5 503.5,-52.5 628.5,-52.5 628.5,-0.5 503.5,-0.5"/>
<text text-anchor="start" x="511.5" y="-40.5" font-family="Helvetica,sans-Serif" font-size="10.00">/home/jc/hull_abstraction</text>
<text text-anchor="start" x="511.5" y="-29.5" font-family="Helvetica,sans-Serif" font-size="10.00">/ros/src/hull_abstraction</text>
<text text-anchor="start" x="511.5" y="-18.5" font-family="Helvetica,sans-Serif" font-size="10.00">/src/greedy_triangulation</text>
<text text-anchor="middle" x="566" y="-7.5" font-family="Helvetica,sans-Serif" font-size="10.00">_node.cpp</text>
</a>
</g>
</g>
<!-- Node13&#45;&gt;Node15 -->
<g id="edge15" class="edge"><title>Node13&#45;&gt;Node15</title>
<path fill="none" stroke="midnightblue" d="M464.71,-84.3532C483.162,-73.9962 503.607,-62.5208 521.268,-52.6075"/>
<polygon fill="midnightblue" stroke="midnightblue" points="462.84,-81.3893 455.832,-89.336 466.266,-87.4934 462.84,-81.3893"/>
</g>
<!-- Node18 -->
<g id="node18" class="node"><title>Node18</title>
<g id="a_node18"><a xlink:href="marching__cubes_8cpp.html" target="_top" xlink:title="/home/jc/hull_abstraction\l/ros/src/hull_abstraction\l/src/marching_cubes_node\l/marching_cubes.cpp">
<polygon fill="white" stroke="black" points="1153,-0.5 1153,-52.5 1287,-52.5 1287,-0.5 1153,-0.5"/>
<text text-anchor="start" x="1161" y="-40.5" font-family="Helvetica,sans-Serif" font-size="10.00">/home/jc/hull_abstraction</text>
<text text-anchor="start" x="1161" y="-29.5" font-family="Helvetica,sans-Serif" font-size="10.00">/ros/src/hull_abstraction</text>
<text text-anchor="start" x="1161" y="-18.5" font-family="Helvetica,sans-Serif" font-size="10.00">/src/marching_cubes_node</text>
<text text-anchor="middle" x="1220" y="-7.5" font-family="Helvetica,sans-Serif" font-size="10.00">/marching_cubes.cpp</text>
</a>
</g>
</g>
<!-- Node17&#45;&gt;Node18 -->
<g id="edge18" class="edge"><title>Node17&#45;&gt;Node18</title>
<path fill="none" stroke="midnightblue" d="M1243.56,-80.0607C1239.45,-70.8956 1235.09,-61.169 1231.26,-52.6075"/>
<polygon fill="midnightblue" stroke="midnightblue" points="1240.44,-81.6426 1247.72,-89.336 1246.82,-78.7792 1240.44,-81.6426"/>
</g>
<!-- Node19 -->
<g id="node19" class="node"><title>Node19</title>
<g id="a_node19"><a xlink:href="marching__cubes__node_8cpp.html" target="_top" xlink:title="/home/jc/hull_abstraction\l/ros/src/hull_abstraction\l/src/marching_cubes_node.cpp">
<polygon fill="white" stroke="black" points="1305,-6 1305,-47 1457,-47 1457,-6 1305,-6"/>
<text text-anchor="start" x="1313" y="-35" font-family="Helvetica,sans-Serif" font-size="10.00">/home/jc/hull_abstraction</text>
<text text-anchor="start" x="1313" y="-24" font-family="Helvetica,sans-Serif" font-size="10.00">/ros/src/hull_abstraction</text>
<text text-anchor="middle" x="1381" y="-13" font-family="Helvetica,sans-Serif" font-size="10.00">/src/marching_cubes_node.cpp</text>
</a>
</g>
</g>
<!-- Node17&#45;&gt;Node19 -->
<g id="edge19" class="edge"><title>Node17&#45;&gt;Node19</title>
<path fill="none" stroke="midnightblue" d="M1302.46,-83.5108C1319.47,-71.3744 1338.49,-57.818 1353.54,-47.0821"/>
<polygon fill="midnightblue" stroke="midnightblue" points="1300.4,-80.6802 1294.29,-89.336 1304.46,-86.3795 1300.4,-80.6802"/>
</g>
<!-- Node21 -->
<g id="node21" class="node"><title>Node21</title>
<g id="a_node21"><a xlink:href="poisson__reconstruction_8cpp.html" target="_top" xlink:title="/home/jc/hull_abstraction\l/ros/src/hull_abstraction\l/src/poisson_reconstruction\l_node/poisson_reconstruction.cpp">
<polygon fill="white" stroke="black" points="776.5,-0.5 776.5,-52.5 941.5,-52.5 941.5,-0.5 776.5,-0.5"/>
<text text-anchor="start" x="784.5" y="-40.5" font-family="Helvetica,sans-Serif" font-size="10.00">/home/jc/hull_abstraction</text>
<text text-anchor="start" x="784.5" y="-29.5" font-family="Helvetica,sans-Serif" font-size="10.00">/ros/src/hull_abstraction</text>
<text text-anchor="start" x="784.5" y="-18.5" font-family="Helvetica,sans-Serif" font-size="10.00">/src/poisson_reconstruction</text>
<text text-anchor="middle" x="859" y="-7.5" font-family="Helvetica,sans-Serif" font-size="10.00">_node/poisson_reconstruction.cpp</text>
</a>
</g>
</g>
<!-- Node20&#45;&gt;Node21 -->
<g id="edge21" class="edge"><title>Node20&#45;&gt;Node21</title>
<path fill="none" stroke="midnightblue" d="M917.016,-82.3631C906.631,-72.542 895.366,-61.8899 885.55,-52.6075"/>
<polygon fill="midnightblue" stroke="midnightblue" points="914.719,-85.0081 924.39,-89.336 919.529,-79.9221 914.719,-85.0081"/>
</g>
<!-- Node22 -->
<g id="node22" class="node"><title>Node22</title>
<g id="a_node22"><a xlink:href="poisson__reconstruction__node_8cpp.html" target="_top" xlink:title="/home/jc/hull_abstraction\l/ros/src/hull_abstraction\l/src/poisson_reconstruction\l_node.cpp">
<polygon fill="white" stroke="black" points="959.5,-0.5 959.5,-52.5 1096.5,-52.5 1096.5,-0.5 959.5,-0.5"/>
<text text-anchor="start" x="967.5" y="-40.5" font-family="Helvetica,sans-Serif" font-size="10.00">/home/jc/hull_abstraction</text>
<text text-anchor="start" x="967.5" y="-29.5" font-family="Helvetica,sans-Serif" font-size="10.00">/ros/src/hull_abstraction</text>
<text text-anchor="start" x="967.5" y="-18.5" font-family="Helvetica,sans-Serif" font-size="10.00">/src/poisson_reconstruction</text>
<text text-anchor="middle" x="1028" y="-7.5" font-family="Helvetica,sans-Serif" font-size="10.00">_node.cpp</text>
</a>
</g>
</g>
<!-- Node20&#45;&gt;Node22 -->
<g id="edge22" class="edge"><title>Node20&#45;&gt;Node22</title>
<path fill="none" stroke="midnightblue" d="M979.95,-81.79C988.501,-72.1288 997.722,-61.7097 1005.78,-52.6075"/>
<polygon fill="midnightblue" stroke="midnightblue" points="977.278,-79.528 973.272,-89.336 982.52,-84.1673 977.278,-79.528"/>
</g>
<!-- Node25 -->
<g id="node25" class="node"><title>Node25</title>
<g id="a_node25"><a xlink:href="moving__least__squares_8cpp.html" target="_top" xlink:title="/home/jc/hull_abstraction\l/ros/src/hull_abstraction\l/src/moving_least_squares\l_node/moving_least_squares.cpp">
<polygon fill="white" stroke="black" points="1344,-89.5 1344,-141.5 1506,-141.5 1506,-89.5 1344,-89.5"/>
<text text-anchor="start" x="1352" y="-129.5" font-family="Helvetica,sans-Serif" font-size="10.00">/home/jc/hull_abstraction</text>
<text text-anchor="start" x="1352" y="-118.5" font-family="Helvetica,sans-Serif" font-size="10.00">/ros/src/hull_abstraction</text>
<text text-anchor="start" x="1352" y="-107.5" font-family="Helvetica,sans-Serif" font-size="10.00">/src/moving_least_squares</text>
<text text-anchor="middle" x="1425" y="-96.5" font-family="Helvetica,sans-Serif" font-size="10.00">_node/moving_least_squares.cpp</text>
</a>
</g>
</g>
<!-- Node24&#45;&gt;Node25 -->
<g id="edge27" class="edge"><title>Node24&#45;&gt;Node25</title>
<path fill="none" stroke="midnightblue" d="M1417.87,-168.191C1419.1,-159.282 1420.39,-149.899 1421.54,-141.607"/>
<polygon fill="midnightblue" stroke="midnightblue" points="1414.37,-167.952 1416.47,-178.336 1421.3,-168.908 1414.37,-167.952"/>
</g>
<!-- Node26 -->
<g id="node26" class="node"><title>Node26</title>
<g id="a_node26"><a xlink:href="moving__least__squares__node_8cpp.html" target="_top" xlink:title="/home/jc/hull_abstraction\l/ros/src/hull_abstraction\l/src/moving_least_squares\l_node.cpp">
<polygon fill="white" stroke="black" points="1524,-89.5 1524,-141.5 1658,-141.5 1658,-89.5 1524,-89.5"/>
<text text-anchor="start" x="1532" y="-129.5" font-family="Helvetica,sans-Serif" font-size="10.00">/home/jc/hull_abstraction</text>
<text text-anchor="start" x="1532" y="-118.5" font-family="Helvetica,sans-Serif" font-size="10.00">/ros/src/hull_abstraction</text>
<text text-anchor="start" x="1532" y="-107.5" font-family="Helvetica,sans-Serif" font-size="10.00">/src/moving_least_squares</text>
<text text-anchor="middle" x="1591" y="-96.5" font-family="Helvetica,sans-Serif" font-size="10.00">_node.cpp</text>
</a>
</g>
</g>
<!-- Node24&#45;&gt;Node26 -->
<g id="edge28" class="edge"><title>Node24&#45;&gt;Node26</title>
<path fill="none" stroke="midnightblue" d="M1473.53,-173.917C1495.02,-163.414 1518.98,-151.701 1539.63,-141.607"/>
<polygon fill="midnightblue" stroke="midnightblue" points="1471.93,-170.8 1464.48,-178.336 1475.01,-177.089 1471.93,-170.8"/>
</g>
<!-- Node28 -->
<g id="node28" class="node"><title>Node28</title>
<g id="a_node28"><a xlink:href="display__mesh_8cpp.html" target="_top" xlink:title="/home/jc/hull_abstraction\l/ros/src/hull_abstraction\l/src/display_mesh_node/display\l_mesh.cpp">
<polygon fill="white" stroke="black" points="1507,-178.5 1507,-230.5 1663,-230.5 1663,-178.5 1507,-178.5"/>
<text text-anchor="start" x="1515" y="-218.5" font-family="Helvetica,sans-Serif" font-size="10.00">/home/jc/hull_abstraction</text>
<text text-anchor="start" x="1515" y="-207.5" font-family="Helvetica,sans-Serif" font-size="10.00">/ros/src/hull_abstraction</text>
<text text-anchor="start" x="1515" y="-196.5" font-family="Helvetica,sans-Serif" font-size="10.00">/src/display_mesh_node/display</text>
<text text-anchor="middle" x="1585" y="-185.5" font-family="Helvetica,sans-Serif" font-size="10.00">_mesh.cpp</text>
</a>
</g>
</g>
<!-- Node27&#45;&gt;Node28 -->
<g id="edge32" class="edge"><title>Node27&#45;&gt;Node28</title>
<path fill="none" stroke="midnightblue" d="M1533.63,-265.094C1543.09,-254.116 1553.93,-241.545 1563.2,-230.788"/>
<polygon fill="midnightblue" stroke="midnightblue" points="1530.9,-262.899 1527.02,-272.758 1536.2,-267.47 1530.9,-262.899"/>
</g>
<!-- Node29 -->
<g id="node29" class="node"><title>Node29</title>
<g id="a_node29"><a xlink:href="display__mesh__node_8cpp.html" target="_top" xlink:title="/home/jc/hull_abstraction\l/ros/src/hull_abstraction\l/src/display_mesh_node.cpp">
<polygon fill="white" stroke="black" points="1681.5,-184 1681.5,-225 1822.5,-225 1822.5,-184 1681.5,-184"/>
<text text-anchor="start" x="1689.5" y="-213" font-family="Helvetica,sans-Serif" font-size="10.00">/home/jc/hull_abstraction</text>
<text text-anchor="start" x="1689.5" y="-202" font-family="Helvetica,sans-Serif" font-size="10.00">/ros/src/hull_abstraction</text>
<text text-anchor="middle" x="1752" y="-191" font-family="Helvetica,sans-Serif" font-size="10.00">/src/display_mesh_node.cpp</text>
</a>
</g>
</g>
<!-- Node27&#45;&gt;Node29 -->
<g id="edge33" class="edge"><title>Node27&#45;&gt;Node29</title>
<path fill="none" stroke="midnightblue" d="M1573.86,-269.542C1612.32,-255.714 1660.79,-238.291 1697.45,-225.11"/>
<polygon fill="midnightblue" stroke="midnightblue" points="1572.54,-266.299 1564.31,-272.976 1574.9,-272.886 1572.54,-266.299"/>
</g>
</g>
</svg>
