<?xml version="1.0" encoding="UTF-8" standalone="no"?>
<!DOCTYPE svg PUBLIC "-//W3C//DTD SVG 1.1//EN"
 "http://www.w3.org/Graphics/SVG/1.1/DTD/svg11.dtd">
<!-- Generated by graphviz version 2.38.0 (20140413.2041)
 -->
<!-- Title: /home/jc/THESIS/hull_abstraction/ros/src/hull_abstraction/include/hull_abstraction/preprocessor.h Pages: 1 -->
<svg width="1531pt" height="361pt"
 viewBox="0.00 0.00 1531.00 361.00" xmlns="http://www.w3.org/2000/svg" xmlns:xlink="http://www.w3.org/1999/xlink">
<g id="graph0" class="graph" transform="scale(1 1) rotate(0) translate(4 357)">
<title>/home/jc/THESIS/hull_abstraction/ros/src/hull_abstraction/include/hull_abstraction/preprocessor.h</title>
<polygon fill="white" stroke="none" points="-4,4 -4,-357 1527,-357 1527,4 -4,4"/>
<!-- Node1 -->
<g id="node1" class="node"><title>Node1</title>
<polygon fill="#bfbfbf" stroke="black" points="738,-300.5 738,-352.5 893,-352.5 893,-300.5 738,-300.5"/>
<text text-anchor="start" x="746" y="-340.5" font-family="Helvetica,sans-Serif" font-size="10.00">/home/jc/THESIS/hull</text>
<text text-anchor="start" x="746" y="-329.5" font-family="Helvetica,sans-Serif" font-size="10.00">_abstraction/ros/src</text>
<text text-anchor="start" x="746" y="-318.5" font-family="Helvetica,sans-Serif" font-size="10.00">/hull_abstraction/include</text>
<text text-anchor="middle" x="815.5" y="-307.5" font-family="Helvetica,sans-Serif" font-size="10.00">/hull_abstraction/preprocessor.h</text>
</g>
<!-- Node2 -->
<g id="node2" class="node"><title>Node2</title>
<g id="a_node2"><a xlink:href="benchmark_2include_2hull__abstraction_2reconstructor_8h.html" target="_top" xlink:title="This file contains the declaration of the Reconstructor class. ">
<polygon fill="white" stroke="black" points="253.5,-206 253.5,-258 375.5,-258 375.5,-206 253.5,-206"/>
<text text-anchor="start" x="261.5" y="-246" font-family="Helvetica,sans-Serif" font-size="10.00">/home/jc/THESIS/hull</text>
<text text-anchor="start" x="261.5" y="-235" font-family="Helvetica,sans-Serif" font-size="10.00">_abstraction/benchmark</text>
<text text-anchor="start" x="261.5" y="-224" font-family="Helvetica,sans-Serif" font-size="10.00">/include/hull_abstraction</text>
<text text-anchor="middle" x="314.5" y="-213" font-family="Helvetica,sans-Serif" font-size="10.00">/reconstructor.h</text>
</a>
</g>
</g>
<!-- Node1&#45;&gt;Node2 -->
<g id="edge1" class="edge"><title>Node1&#45;&gt;Node2</title>
<path fill="none" stroke="midnightblue" d="M727.638,-320.064C639.484,-312.966 500.514,-297.274 384.5,-264 378.751,-262.351 372.86,-260.324 367.055,-258.103"/>
<polygon fill="midnightblue" stroke="midnightblue" points="727.622,-323.574 737.865,-320.867 728.17,-316.595 727.622,-323.574"/>
</g>
<!-- Node3 -->
<g id="node3" class="node"><title>Node3</title>
<g id="a_node3"><a xlink:href="benchmark_2src_2hull__abstraction_2preprocessor_8cpp.html" target="_top" xlink:title="/home/jc/THESIS/hull\l_abstraction/benchmark\l/src/hull_abstraction/preprocessor.cpp">
<polygon fill="white" stroke="black" points="393.5,-211.5 393.5,-252.5 575.5,-252.5 575.5,-211.5 393.5,-211.5"/>
<text text-anchor="start" x="401.5" y="-240.5" font-family="Helvetica,sans-Serif" font-size="10.00">/home/jc/THESIS/hull</text>
<text text-anchor="start" x="401.5" y="-229.5" font-family="Helvetica,sans-Serif" font-size="10.00">_abstraction/benchmark</text>
<text text-anchor="middle" x="484.5" y="-218.5" font-family="Helvetica,sans-Serif" font-size="10.00">/src/hull_abstraction/preprocessor.cpp</text>
</a>
</g>
</g>
<!-- Node1&#45;&gt;Node3 -->
<g id="edge2" class="edge"><title>Node1&#45;&gt;Node3</title>
<path fill="none" stroke="midnightblue" d="M728.071,-302.176C686.102,-290.86 635.132,-276.943 589.5,-264 576.7,-260.369 563.049,-256.406 549.97,-252.564"/>
<polygon fill="midnightblue" stroke="midnightblue" points="727.418,-305.625 737.984,-304.845 729.238,-298.865 727.418,-305.625"/>
</g>
<!-- Node4 -->
<g id="node4" class="node"><title>Node4</title>
<g id="a_node4"><a xlink:href="main_8cpp.html" target="_top" xlink:title="/home/jc/THESIS/hull\l_abstraction/benchmark\l/src/main.cpp">
<polygon fill="white" stroke="black" points="0,-111.5 0,-152.5 121,-152.5 121,-111.5 0,-111.5"/>
<text text-anchor="start" x="8" y="-140.5" font-family="Helvetica,sans-Serif" font-size="10.00">/home/jc/THESIS/hull</text>
<text text-anchor="start" x="8" y="-129.5" font-family="Helvetica,sans-Serif" font-size="10.00">_abstraction/benchmark</text>
<text text-anchor="middle" x="60.5" y="-118.5" font-family="Helvetica,sans-Serif" font-size="10.00">/src/main.cpp</text>
</a>
</g>
</g>
<!-- Node1&#45;&gt;Node4 -->
<g id="edge3" class="edge"><title>Node1&#45;&gt;Node4</title>
<path fill="none" stroke="midnightblue" d="M728.02,-311.721C692.445,-302.731 652.693,-288.006 622.5,-264 596.606,-243.413 612.581,-217.487 584.5,-200 498.403,-146.384 227.759,-189.153 129.5,-164 118.94,-161.297 107.975,-157.088 97.9767,-152.634"/>
<polygon fill="midnightblue" stroke="midnightblue" points="727.391,-315.169 737.933,-314.107 729.03,-308.364 727.391,-315.169"/>
</g>
<!-- Node5 -->
<g id="node5" class="node"><title>Node5</title>
<g id="a_node5"><a xlink:href="ros_2src_2hull__abstraction_2include_2hull__abstraction_2reconstructor_8h.html" target="_top" xlink:title="This file contains the declaration of the Reconstructor class. ">
<polygon fill="white" stroke="black" points="631.5,-206 631.5,-258 787.5,-258 787.5,-206 631.5,-206"/>
<text text-anchor="start" x="639.5" y="-246" font-family="Helvetica,sans-Serif" font-size="10.00">/home/jc/THESIS/hull</text>
<text text-anchor="start" x="639.5" y="-235" font-family="Helvetica,sans-Serif" font-size="10.00">_abstraction/ros/src</text>
<text text-anchor="start" x="639.5" y="-224" font-family="Helvetica,sans-Serif" font-size="10.00">/hull_abstraction/include</text>
<text text-anchor="middle" x="709.5" y="-213" font-family="Helvetica,sans-Serif" font-size="10.00">/hull_abstraction/reconstructor.h</text>
</a>
</g>
</g>
<!-- Node1&#45;&gt;Node5 -->
<g id="edge4" class="edge"><title>Node1&#45;&gt;Node5</title>
<path fill="none" stroke="midnightblue" d="M779.15,-293.779C765.772,-282.106 750.819,-269.057 738.208,-258.052"/>
<polygon fill="midnightblue" stroke="midnightblue" points="776.979,-296.53 786.815,-300.468 781.582,-291.256 776.979,-296.53"/>
</g>
<!-- Node10 -->
<g id="node10" class="node"><title>Node10</title>
<g id="a_node10"><a xlink:href="greedy__triangulation_8h.html" target="_top" xlink:title="Framework of greedy triangulation node. ">
<polygon fill="white" stroke="black" points="696,-100.5 696,-163.5 829,-163.5 829,-100.5 696,-100.5"/>
<text text-anchor="start" x="704" y="-151.5" font-family="Helvetica,sans-Serif" font-size="10.00">/home/jc/THESIS/hull</text>
<text text-anchor="start" x="704" y="-140.5" font-family="Helvetica,sans-Serif" font-size="10.00">_abstraction/ros/src</text>
<text text-anchor="start" x="704" y="-129.5" font-family="Helvetica,sans-Serif" font-size="10.00">/hull_abstraction/src</text>
<text text-anchor="start" x="704" y="-118.5" font-family="Helvetica,sans-Serif" font-size="10.00">/greedy_triangulation_node</text>
<text text-anchor="middle" x="762.5" y="-107.5" font-family="Helvetica,sans-Serif" font-size="10.00">/greedy_triangulation.h</text>
</a>
</g>
</g>
<!-- Node1&#45;&gt;Node10 -->
<g id="edge20" class="edge"><title>Node1&#45;&gt;Node10</title>
<path fill="none" stroke="midnightblue" d="M813.205,-290.464C810.812,-264.908 806.01,-229.697 796.5,-200 792.562,-187.702 786.584,-174.895 780.735,-163.813"/>
<polygon fill="midnightblue" stroke="midnightblue" points="809.719,-290.775 814.063,-300.438 816.693,-290.175 809.719,-290.775"/>
</g>
<!-- Node14 -->
<g id="node14" class="node"><title>Node14</title>
<g id="a_node14"><a xlink:href="marching__cubes_8h.html" target="_top" xlink:title="Framework of marching cubes node. ">
<polygon fill="white" stroke="black" points="847.5,-100.5 847.5,-163.5 1007.5,-163.5 1007.5,-100.5 847.5,-100.5"/>
<text text-anchor="start" x="855.5" y="-151.5" font-family="Helvetica,sans-Serif" font-size="10.00">/home/jc/THESIS/hull</text>
<text text-anchor="start" x="855.5" y="-140.5" font-family="Helvetica,sans-Serif" font-size="10.00">_abstraction/ros/src</text>
<text text-anchor="start" x="855.5" y="-129.5" font-family="Helvetica,sans-Serif" font-size="10.00">/hull_abstraction/src</text>
<text text-anchor="start" x="855.5" y="-118.5" font-family="Helvetica,sans-Serif" font-size="10.00">/marching_cubes_node/marching</text>
<text text-anchor="middle" x="927.5" y="-107.5" font-family="Helvetica,sans-Serif" font-size="10.00">_cubes.h</text>
</a>
</g>
</g>
<!-- Node1&#45;&gt;Node14 -->
<g id="edge22" class="edge"><title>Node1&#45;&gt;Node14</title>
<path fill="none" stroke="midnightblue" d="M830.517,-290.919C842.176,-265.196 859.366,-229.578 877.5,-200 885.086,-187.626 894.375,-174.696 902.879,-163.532"/>
<polygon fill="midnightblue" stroke="midnightblue" points="827.226,-289.703 826.329,-300.26 833.614,-292.567 827.226,-289.703"/>
</g>
<!-- Node17 -->
<g id="node17" class="node"><title>Node17</title>
<g id="a_node17"><a xlink:href="poisson__reconstruction_8h.html" target="_top" xlink:title="Framework of Poisson reconstruction node. ">
<polygon fill="white" stroke="black" points="1026,-100.5 1026,-163.5 1181,-163.5 1181,-100.5 1026,-100.5"/>
<text text-anchor="start" x="1034" y="-151.5" font-family="Helvetica,sans-Serif" font-size="10.00">/home/jc/THESIS/hull</text>
<text text-anchor="start" x="1034" y="-140.5" font-family="Helvetica,sans-Serif" font-size="10.00">_abstraction/ros/src</text>
<text text-anchor="start" x="1034" y="-129.5" font-family="Helvetica,sans-Serif" font-size="10.00">/hull_abstraction/src</text>
<text text-anchor="start" x="1034" y="-118.5" font-family="Helvetica,sans-Serif" font-size="10.00">/poisson_reconstruction</text>
<text text-anchor="middle" x="1103.5" y="-107.5" font-family="Helvetica,sans-Serif" font-size="10.00">_node/poisson_reconstruction.h</text>
</a>
</g>
</g>
<!-- Node1&#45;&gt;Node17 -->
<g id="edge26" class="edge"><title>Node1&#45;&gt;Node17</title>
<path fill="none" stroke="midnightblue" d="M848.778,-293.029C857.282,-283.997 866.103,-273.931 873.5,-264 893.125,-237.649 885.098,-220.838 910.5,-200 948.967,-168.445 969.509,-180.35 1016.5,-164 1019.53,-162.946 1022.62,-161.868 1025.73,-160.775"/>
<polygon fill="midnightblue" stroke="midnightblue" points="846.152,-290.711 841.748,-300.348 851.2,-295.561 846.152,-290.711"/>
</g>
<!-- Node20 -->
<g id="node20" class="node"><title>Node20</title>
<g id="a_node20"><a xlink:href="ros_2src_2hull__abstraction_2src_2hull__abstraction_2preprocessor_8cpp.html" target="_top" xlink:title="/home/jc/THESIS/hull\l_abstraction/ros/src\l/hull_abstraction/src\l/hull_abstraction/preprocessor.cpp">
<polygon fill="white" stroke="black" points="919.5,-206 919.5,-258 1085.5,-258 1085.5,-206 919.5,-206"/>
<text text-anchor="start" x="927.5" y="-246" font-family="Helvetica,sans-Serif" font-size="10.00">/home/jc/THESIS/hull</text>
<text text-anchor="start" x="927.5" y="-235" font-family="Helvetica,sans-Serif" font-size="10.00">_abstraction/ros/src</text>
<text text-anchor="start" x="927.5" y="-224" font-family="Helvetica,sans-Serif" font-size="10.00">/hull_abstraction/src</text>
<text text-anchor="middle" x="1002.5" y="-213" font-family="Helvetica,sans-Serif" font-size="10.00">/hull_abstraction/preprocessor.cpp</text>
</a>
</g>
</g>
<!-- Node1&#45;&gt;Node20 -->
<g id="edge21" class="edge"><title>Node1&#45;&gt;Node20</title>
<path fill="none" stroke="midnightblue" d="M875.358,-295.891C900.007,-283.698 928.255,-269.726 951.855,-258.052"/>
<polygon fill="midnightblue" stroke="midnightblue" points="873.516,-292.897 866.105,-300.468 876.62,-299.172 873.516,-292.897"/>
</g>
<!-- Node21 -->
<g id="node21" class="node"><title>Node21</title>
<g id="a_node21"><a xlink:href="moving__least__squares_8h.html" target="_top" xlink:title="Framework of moving least squares node. ">
<polygon fill="white" stroke="black" points="1209,-200.5 1209,-263.5 1352,-263.5 1352,-200.5 1209,-200.5"/>
<text text-anchor="start" x="1217" y="-251.5" font-family="Helvetica,sans-Serif" font-size="10.00">/home/jc/THESIS/hull</text>
<text text-anchor="start" x="1217" y="-240.5" font-family="Helvetica,sans-Serif" font-size="10.00">_abstraction/ros/src</text>
<text text-anchor="start" x="1217" y="-229.5" font-family="Helvetica,sans-Serif" font-size="10.00">/hull_abstraction/src</text>
<text text-anchor="start" x="1217" y="-218.5" font-family="Helvetica,sans-Serif" font-size="10.00">/moving_least_squares_node</text>
<text text-anchor="middle" x="1280.5" y="-207.5" font-family="Helvetica,sans-Serif" font-size="10.00">/moving_least_squares.h</text>
</a>
</g>
</g>
<!-- Node1&#45;&gt;Node21 -->
<g id="edge23" class="edge"><title>Node1&#45;&gt;Node21</title>
<path fill="none" stroke="midnightblue" d="M903.083,-308.078C991.537,-290.482 1126.53,-263.627 1208.83,-247.257"/>
<polygon fill="midnightblue" stroke="midnightblue" points="902.194,-304.686 893.069,-310.07 903.559,-311.551 902.194,-304.686"/>
</g>
<!-- Node5&#45;&gt;Node4 -->
<g id="edge6" class="edge"><title>Node5&#45;&gt;Node4</title>
<path fill="none" stroke="midnightblue" d="M631.672,-203.282C626.909,-202.051 622.159,-200.941 617.5,-200 404.328,-156.938 340.328,-217.372 129.5,-164 118.806,-161.293 107.701,-157.025 97.606,-152.511"/>
<polygon fill="midnightblue" stroke="midnightblue" points="630.873,-206.692 641.443,-205.96 632.724,-199.941 630.873,-206.692"/>
</g>
<!-- Node6 -->
<g id="node6" class="node"><title>Node6</title>
<g id="a_node6"><a xlink:href="benchmark_2src_2hull__abstraction_2reconstructor_8cpp.html" target="_top" xlink:title="/home/jc/THESIS/hull\l_abstraction/benchmark\l/src/hull_abstraction/reconstructor.cpp">
<polygon fill="white" stroke="black" points="139,-111.5 139,-152.5 322,-152.5 322,-111.5 139,-111.5"/>
<text text-anchor="start" x="147" y="-140.5" font-family="Helvetica,sans-Serif" font-size="10.00">/home/jc/THESIS/hull</text>
<text text-anchor="start" x="147" y="-129.5" font-family="Helvetica,sans-Serif" font-size="10.00">_abstraction/benchmark</text>
<text text-anchor="middle" x="230.5" y="-118.5" font-family="Helvetica,sans-Serif" font-size="10.00">/src/hull_abstraction/reconstructor.cpp</text>
</a>
</g>
</g>
<!-- Node5&#45;&gt;Node6 -->
<g id="edge5" class="edge"><title>Node5&#45;&gt;Node6</title>
<path fill="none" stroke="midnightblue" d="M630.151,-203.169C625.894,-202.019 621.659,-200.952 617.5,-200 492.618,-171.403 456.759,-190.896 331.5,-164 317.243,-160.939 302.101,-156.789 287.998,-152.522"/>
<polygon fill="midnightblue" stroke="midnightblue" points="629.521,-206.628 640.096,-205.987 631.429,-199.893 629.521,-206.628"/>
</g>
<!-- Node7 -->
<g id="node7" class="node"><title>Node7</title>
<g id="a_node7"><a xlink:href="bspline__surface__fitting_8h.html" target="_top" xlink:title="Framework of b&#45;spline surface fitting node. ">
<polygon fill="white" stroke="black" points="340.5,-100.5 340.5,-163.5 492.5,-163.5 492.5,-100.5 340.5,-100.5"/>
<text text-anchor="start" x="348.5" y="-151.5" font-family="Helvetica,sans-Serif" font-size="10.00">/home/jc/THESIS/hull</text>
<text text-anchor="start" x="348.5" y="-140.5" font-family="Helvetica,sans-Serif" font-size="10.00">_abstraction/ros/src</text>
<text text-anchor="start" x="348.5" y="-129.5" font-family="Helvetica,sans-Serif" font-size="10.00">/hull_abstraction/src</text>
<text text-anchor="start" x="348.5" y="-118.5" font-family="Helvetica,sans-Serif" font-size="10.00">/bspline_surface_fitting</text>
<text text-anchor="middle" x="416.5" y="-107.5" font-family="Helvetica,sans-Serif" font-size="10.00">_node/bspline_surface_fitting.h</text>
</a>
</g>
</g>
<!-- Node5&#45;&gt;Node7 -->
<g id="edge7" class="edge"><title>Node5&#45;&gt;Node7</title>
<path fill="none" stroke="midnightblue" d="M625.961,-202.754C623.108,-201.82 620.281,-200.9 617.5,-200 566.141,-183.38 552.65,-181.253 501.5,-164 498.672,-163.046 495.796,-162.063 492.894,-161.06"/>
<polygon fill="midnightblue" stroke="midnightblue" points="625.143,-206.17 635.736,-205.971 627.331,-199.52 625.143,-206.17"/>
</g>
<!-- Node5&#45;&gt;Node10 -->
<g id="edge10" class="edge"><title>Node5&#45;&gt;Node10</title>
<path fill="none" stroke="midnightblue" d="M728.067,-196.669C733.863,-185.952 740.216,-174.204 745.87,-163.749"/>
<polygon fill="midnightblue" stroke="midnightblue" points="724.827,-195.302 723.149,-205.763 730.985,-198.631 724.827,-195.302"/>
</g>
<!-- Node13 -->
<g id="node13" class="node"><title>Node13</title>
<g id="a_node13"><a xlink:href="ros_2src_2hull__abstraction_2src_2hull__abstraction_2reconstructor_8cpp.html" target="_top" xlink:title="/home/jc/THESIS/hull\l_abstraction/ros/src\l/hull_abstraction/src\l/hull_abstraction/reconstructor.cpp">
<polygon fill="white" stroke="black" points="511,-106 511,-158 678,-158 678,-106 511,-106"/>
<text text-anchor="start" x="519" y="-146" font-family="Helvetica,sans-Serif" font-size="10.00">/home/jc/THESIS/hull</text>
<text text-anchor="start" x="519" y="-135" font-family="Helvetica,sans-Serif" font-size="10.00">_abstraction/ros/src</text>
<text text-anchor="start" x="519" y="-124" font-family="Helvetica,sans-Serif" font-size="10.00">/hull_abstraction/src</text>
<text text-anchor="middle" x="594.5" y="-113" font-family="Helvetica,sans-Serif" font-size="10.00">/hull_abstraction/reconstructor.cpp</text>
</a>
</g>
</g>
<!-- Node5&#45;&gt;Node13 -->
<g id="edge13" class="edge"><title>Node5&#45;&gt;Node13</title>
<path fill="none" stroke="midnightblue" d="M671.978,-199.025C656.415,-185.762 638.622,-170.599 624.015,-158.152"/>
<polygon fill="midnightblue" stroke="midnightblue" points="670.003,-201.94 679.885,-205.763 674.544,-196.613 670.003,-201.94"/>
</g>
<!-- Node5&#45;&gt;Node14 -->
<g id="edge14" class="edge"><title>Node5&#45;&gt;Node14</title>
<path fill="none" stroke="midnightblue" d="M774.621,-201.725C801.347,-189.711 832.297,-175.797 859.331,-163.645"/>
<polygon fill="midnightblue" stroke="midnightblue" points="773.043,-198.597 765.357,-205.89 775.913,-204.982 773.043,-198.597"/>
</g>
<!-- Node5&#45;&gt;Node17 -->
<g id="edge17" class="edge"><title>Node5&#45;&gt;Node17</title>
<path fill="none" stroke="midnightblue" d="M797.878,-214.816C859.625,-202.755 943.713,-184.819 1016.5,-164 1019.58,-163.118 1022.72,-162.185 1025.87,-161.214"/>
<polygon fill="midnightblue" stroke="midnightblue" points="796.929,-211.434 787.779,-216.775 798.262,-218.306 796.929,-211.434"/>
</g>
<!-- Node8 -->
<g id="node8" class="node"><title>Node8</title>
<g id="a_node8"><a xlink:href="bspline__surface__fitting_8cpp.html" target="_top" xlink:title="/home/jc/THESIS/hull\l_abstraction/ros/src\l/hull_abstraction/src\l/bspline_surface_fitting\l_node/bspline_surface_fitting.cpp">
<polygon fill="white" stroke="black" points="185.5,-0.5 185.5,-63.5 347.5,-63.5 347.5,-0.5 185.5,-0.5"/>
<text text-anchor="start" x="193.5" y="-51.5" font-family="Helvetica,sans-Serif" font-size="10.00">/home/jc/THESIS/hull</text>
<text text-anchor="start" x="193.5" y="-40.5" font-family="Helvetica,sans-Serif" font-size="10.00">_abstraction/ros/src</text>
<text text-anchor="start" x="193.5" y="-29.5" font-family="Helvetica,sans-Serif" font-size="10.00">/hull_abstraction/src</text>
<text text-anchor="start" x="193.5" y="-18.5" font-family="Helvetica,sans-Serif" font-size="10.00">/bspline_surface_fitting</text>
<text text-anchor="middle" x="266.5" y="-7.5" font-family="Helvetica,sans-Serif" font-size="10.00">_node/bspline_surface_fitting.cpp</text>
</a>
</g>
</g>
<!-- Node7&#45;&gt;Node8 -->
<g id="edge8" class="edge"><title>Node7&#45;&gt;Node8</title>
<path fill="none" stroke="midnightblue" d="M360.912,-94.6822C345.284,-84.4719 328.448,-73.4727 313.382,-63.6299"/>
<polygon fill="midnightblue" stroke="midnightblue" points="359.165,-97.7216 369.451,-100.261 362.993,-91.8615 359.165,-97.7216"/>
</g>
<!-- Node9 -->
<g id="node9" class="node"><title>Node9</title>
<g id="a_node9"><a xlink:href="bspline__surface__fitting__node_8cpp.html" target="_top" xlink:title="/home/jc/THESIS/hull\l_abstraction/ros/src\l/hull_abstraction/src\l/bspline_surface_fitting\l_node.cpp">
<polygon fill="white" stroke="black" points="366,-0.5 366,-63.5 483,-63.5 483,-0.5 366,-0.5"/>
<text text-anchor="start" x="374" y="-51.5" font-family="Helvetica,sans-Serif" font-size="10.00">/home/jc/THESIS/hull</text>
<text text-anchor="start" x="374" y="-40.5" font-family="Helvetica,sans-Serif" font-size="10.00">_abstraction/ros/src</text>
<text text-anchor="start" x="374" y="-29.5" font-family="Helvetica,sans-Serif" font-size="10.00">/hull_abstraction/src</text>
<text text-anchor="start" x="374" y="-18.5" font-family="Helvetica,sans-Serif" font-size="10.00">/bspline_surface_fitting</text>
<text text-anchor="middle" x="424.5" y="-7.5" font-family="Helvetica,sans-Serif" font-size="10.00">_node.cpp</text>
</a>
</g>
</g>
<!-- Node7&#45;&gt;Node9 -->
<g id="edge9" class="edge"><title>Node7&#45;&gt;Node9</title>
<path fill="none" stroke="midnightblue" d="M419.839,-90.0987C420.562,-81.2383 421.315,-72.0145 422,-63.6299"/>
<polygon fill="midnightblue" stroke="midnightblue" points="416.335,-90.0094 419.009,-100.261 423.311,-90.579 416.335,-90.0094"/>
</g>
<!-- Node11 -->
<g id="node11" class="node"><title>Node11</title>
<g id="a_node11"><a xlink:href="greedy__triangulation_8cpp.html" target="_top" xlink:title="/home/jc/THESIS/hull\l_abstraction/ros/src\l/hull_abstraction/src\l/greedy_triangulation_node\l/greedy_triangulation.cpp">
<polygon fill="white" stroke="black" points="517,-0.5 517,-63.5 650,-63.5 650,-0.5 517,-0.5"/>
<text text-anchor="start" x="525" y="-51.5" font-family="Helvetica,sans-Serif" font-size="10.00">/home/jc/THESIS/hull</text>
<text text-anchor="start" x="525" y="-40.5" font-family="Helvetica,sans-Serif" font-size="10.00">_abstraction/ros/src</text>
<text text-anchor="start" x="525" y="-29.5" font-family="Helvetica,sans-Serif" font-size="10.00">/hull_abstraction/src</text>
<text text-anchor="start" x="525" y="-18.5" font-family="Helvetica,sans-Serif" font-size="10.00">/greedy_triangulation_node</text>
<text text-anchor="middle" x="583.5" y="-7.5" font-family="Helvetica,sans-Serif" font-size="10.00">/greedy_triangulation.cpp</text>
</a>
</g>
</g>
<!-- Node10&#45;&gt;Node11 -->
<g id="edge11" class="edge"><title>Node10&#45;&gt;Node11</title>
<path fill="none" stroke="midnightblue" d="M697.457,-95.39C678.446,-84.9818 657.841,-73.7006 639.446,-63.6299"/>
<polygon fill="midnightblue" stroke="midnightblue" points="695.902,-98.5288 706.354,-100.261 699.264,-92.3888 695.902,-98.5288"/>
</g>
<!-- Node12 -->
<g id="node12" class="node"><title>Node12</title>
<g id="a_node12"><a xlink:href="greedy__triangulation__node_8cpp.html" target="_top" xlink:title="/home/jc/THESIS/hull\l_abstraction/ros/src\l/hull_abstraction/src\l/greedy_triangulation_node.cpp">
<polygon fill="white" stroke="black" points="668.5,-6 668.5,-58 820.5,-58 820.5,-6 668.5,-6"/>
<text text-anchor="start" x="676.5" y="-46" font-family="Helvetica,sans-Serif" font-size="10.00">/home/jc/THESIS/hull</text>
<text text-anchor="start" x="676.5" y="-35" font-family="Helvetica,sans-Serif" font-size="10.00">_abstraction/ros/src</text>
<text text-anchor="start" x="676.5" y="-24" font-family="Helvetica,sans-Serif" font-size="10.00">/hull_abstraction/src</text>
<text text-anchor="middle" x="744.5" y="-13" font-family="Helvetica,sans-Serif" font-size="10.00">/greedy_triangulation_node.cpp</text>
</a>
</g>
</g>
<!-- Node10&#45;&gt;Node12 -->
<g id="edge12" class="edge"><title>Node10&#45;&gt;Node12</title>
<path fill="none" stroke="midnightblue" d="M755.046,-90.4152C753.031,-79.4451 750.909,-67.8949 749.102,-58.0536"/>
<polygon fill="midnightblue" stroke="midnightblue" points="751.605,-91.0579 756.854,-100.261 758.49,-89.7933 751.605,-91.0579"/>
</g>
<!-- Node15 -->
<g id="node15" class="node"><title>Node15</title>
<g id="a_node15"><a xlink:href="marching__cubes_8cpp.html" target="_top" xlink:title="/home/jc/THESIS/hull\l_abstraction/ros/src\l/hull_abstraction/src\l/marching_cubes_node/marching\l_cubes.cpp">
<polygon fill="white" stroke="black" points="838.5,-0.5 838.5,-63.5 998.5,-63.5 998.5,-0.5 838.5,-0.5"/>
<text text-anchor="start" x="846.5" y="-51.5" font-family="Helvetica,sans-Serif" font-size="10.00">/home/jc/THESIS/hull</text>
<text text-anchor="start" x="846.5" y="-40.5" font-family="Helvetica,sans-Serif" font-size="10.00">_abstraction/ros/src</text>
<text text-anchor="start" x="846.5" y="-29.5" font-family="Helvetica,sans-Serif" font-size="10.00">/hull_abstraction/src</text>
<text text-anchor="start" x="846.5" y="-18.5" font-family="Helvetica,sans-Serif" font-size="10.00">/marching_cubes_node/marching</text>
<text text-anchor="middle" x="918.5" y="-7.5" font-family="Helvetica,sans-Serif" font-size="10.00">_cubes.cpp</text>
</a>
</g>
</g>
<!-- Node14&#45;&gt;Node15 -->
<g id="edge15" class="edge"><title>Node14&#45;&gt;Node15</title>
<path fill="none" stroke="midnightblue" d="M923.744,-90.0987C922.93,-81.2383 922.083,-72.0145 921.313,-63.6299"/>
<polygon fill="midnightblue" stroke="midnightblue" points="920.277,-90.6231 924.677,-100.261 927.248,-89.9829 920.277,-90.6231"/>
</g>
<!-- Node16 -->
<g id="node16" class="node"><title>Node16</title>
<g id="a_node16"><a xlink:href="marching__cubes__node_8cpp.html" target="_top" xlink:title="/home/jc/THESIS/hull\l_abstraction/ros/src\l/hull_abstraction/src\l/marching_cubes_node.cpp">
<polygon fill="white" stroke="black" points="1016.5,-6 1016.5,-58 1152.5,-58 1152.5,-6 1016.5,-6"/>
<text text-anchor="start" x="1024.5" y="-46" font-family="Helvetica,sans-Serif" font-size="10.00">/home/jc/THESIS/hull</text>
<text text-anchor="start" x="1024.5" y="-35" font-family="Helvetica,sans-Serif" font-size="10.00">_abstraction/ros/src</text>
<text text-anchor="start" x="1024.5" y="-24" font-family="Helvetica,sans-Serif" font-size="10.00">/hull_abstraction/src</text>
<text text-anchor="middle" x="1084.5" y="-13" font-family="Helvetica,sans-Serif" font-size="10.00">/marching_cubes_node.cpp</text>
</a>
</g>
</g>
<!-- Node14&#45;&gt;Node16 -->
<g id="edge16" class="edge"><title>Node14&#45;&gt;Node16</title>
<path fill="none" stroke="midnightblue" d="M985.318,-94.9098C1004.94,-82.6598 1026.43,-69.2506 1044.36,-58.0536"/>
<polygon fill="midnightblue" stroke="midnightblue" points="983.375,-91.9968 976.745,-100.261 987.081,-97.935 983.375,-91.9968"/>
</g>
<!-- Node18 -->
<g id="node18" class="node"><title>Node18</title>
<g id="a_node18"><a xlink:href="poisson__reconstruction_8cpp.html" target="_top" xlink:title="/home/jc/THESIS/hull\l_abstraction/ros/src\l/hull_abstraction/src\l/poisson_reconstruction\l_node/poisson_reconstruction.cpp">
<polygon fill="white" stroke="black" points="1171,-0.5 1171,-63.5 1336,-63.5 1336,-0.5 1171,-0.5"/>
<text text-anchor="start" x="1179" y="-51.5" font-family="Helvetica,sans-Serif" font-size="10.00">/home/jc/THESIS/hull</text>
<text text-anchor="start" x="1179" y="-40.5" font-family="Helvetica,sans-Serif" font-size="10.00">_abstraction/ros/src</text>
<text text-anchor="start" x="1179" y="-29.5" font-family="Helvetica,sans-Serif" font-size="10.00">/hull_abstraction/src</text>
<text text-anchor="start" x="1179" y="-18.5" font-family="Helvetica,sans-Serif" font-size="10.00">/poisson_reconstruction</text>
<text text-anchor="middle" x="1253.5" y="-7.5" font-family="Helvetica,sans-Serif" font-size="10.00">_node/poisson_reconstruction.cpp</text>
</a>
</g>
</g>
<!-- Node17&#45;&gt;Node18 -->
<g id="edge18" class="edge"><title>Node17&#45;&gt;Node18</title>
<path fill="none" stroke="midnightblue" d="M1159.09,-94.6822C1174.72,-84.4719 1191.55,-73.4727 1206.62,-63.6299"/>
<polygon fill="midnightblue" stroke="midnightblue" points="1157.01,-91.8615 1150.55,-100.261 1160.84,-97.7216 1157.01,-91.8615"/>
</g>
<!-- Node19 -->
<g id="node19" class="node"><title>Node19</title>
<g id="a_node19"><a xlink:href="poisson__reconstruction__node_8cpp.html" target="_top" xlink:title="/home/jc/THESIS/hull\l_abstraction/ros/src\l/hull_abstraction/src\l/poisson_reconstruction\l_node.cpp">
<polygon fill="white" stroke="black" points="1354.5,-0.5 1354.5,-63.5 1474.5,-63.5 1474.5,-0.5 1354.5,-0.5"/>
<text text-anchor="start" x="1362.5" y="-51.5" font-family="Helvetica,sans-Serif" font-size="10.00">/home/jc/THESIS/hull</text>
<text text-anchor="start" x="1362.5" y="-40.5" font-family="Helvetica,sans-Serif" font-size="10.00">_abstraction/ros/src</text>
<text text-anchor="start" x="1362.5" y="-29.5" font-family="Helvetica,sans-Serif" font-size="10.00">/hull_abstraction/src</text>
<text text-anchor="start" x="1362.5" y="-18.5" font-family="Helvetica,sans-Serif" font-size="10.00">/poisson_reconstruction</text>
<text text-anchor="middle" x="1414.5" y="-7.5" font-family="Helvetica,sans-Serif" font-size="10.00">_node.cpp</text>
</a>
</g>
</g>
<!-- Node17&#45;&gt;Node19 -->
<g id="edge19" class="edge"><title>Node17&#45;&gt;Node19</title>
<path fill="none" stroke="midnightblue" d="M1190.79,-100.065C1260.18,-80.6034 1281.36,-85.6268 1345.5,-64 1348.36,-63.0349 1351.27,-61.9929 1354.18,-60.8958"/>
<polygon fill="midnightblue" stroke="midnightblue" points="1189.79,-96.7113 1181.14,-102.839 1191.72,-103.439 1189.79,-96.7113"/>
</g>
<!-- Node22 -->
<g id="node22" class="node"><title>Node22</title>
<g id="a_node22"><a xlink:href="moving__least__squares_8cpp.html" target="_top" xlink:title="/home/jc/THESIS/hull\l_abstraction/ros/src\l/hull_abstraction/src\l/moving_least_squares_node\l/moving_least_squares.cpp">
<polygon fill="white" stroke="black" points="1380,-100.5 1380,-163.5 1523,-163.5 1523,-100.5 1380,-100.5"/>
<text text-anchor="start" x="1388" y="-151.5" font-family="Helvetica,sans-Serif" font-size="10.00">/home/jc/THESIS/hull</text>
<text text-anchor="start" x="1388" y="-140.5" font-family="Helvetica,sans-Serif" font-size="10.00">_abstraction/ros/src</text>
<text text-anchor="start" x="1388" y="-129.5" font-family="Helvetica,sans-Serif" font-size="10.00">/hull_abstraction/src</text>
<text text-anchor="start" x="1388" y="-118.5" font-family="Helvetica,sans-Serif" font-size="10.00">/moving_least_squares_node</text>
<text text-anchor="middle" x="1451.5" y="-107.5" font-family="Helvetica,sans-Serif" font-size="10.00">/moving_least_squares.cpp</text>
</a>
</g>
</g>
<!-- Node21&#45;&gt;Node22 -->
<g id="edge24" class="edge"><title>Node21&#45;&gt;Node22</title>
<path fill="none" stroke="midnightblue" d="M1342.88,-195.249C1360.98,-184.88 1380.56,-173.655 1398.05,-163.63"/>
<polygon fill="midnightblue" stroke="midnightblue" points="1341.07,-192.252 1334.14,-200.261 1344.55,-198.325 1341.07,-192.252"/>
</g>
<!-- Node23 -->
<g id="node23" class="node"><title>Node23</title>
<g id="a_node23"><a xlink:href="moving__least__squares__node_8cpp.html" target="_top" xlink:title="/home/jc/THESIS/hull\l_abstraction/ros/src\l/hull_abstraction/src\l/moving_least_squares_node.cpp">
<polygon fill="white" stroke="black" points="1199.5,-106 1199.5,-158 1361.5,-158 1361.5,-106 1199.5,-106"/>
<text text-anchor="start" x="1207.5" y="-146" font-family="Helvetica,sans-Serif" font-size="10.00">/home/jc/THESIS/hull</text>
<text text-anchor="start" x="1207.5" y="-135" font-family="Helvetica,sans-Serif" font-size="10.00">_abstraction/ros/src</text>
<text text-anchor="start" x="1207.5" y="-124" font-family="Helvetica,sans-Serif" font-size="10.00">/hull_abstraction/src</text>
<text text-anchor="middle" x="1280.5" y="-113" font-family="Helvetica,sans-Serif" font-size="10.00">/moving_least_squares_node.cpp</text>
</a>
</g>
</g>
<!-- Node21&#45;&gt;Node23 -->
<g id="edge25" class="edge"><title>Node21&#45;&gt;Node23</title>
<path fill="none" stroke="midnightblue" d="M1280.5,-190.079C1280.5,-179.21 1280.5,-167.794 1280.5,-158.054"/>
<polygon fill="midnightblue" stroke="midnightblue" points="1277,-190.261 1280.5,-200.261 1284,-190.261 1277,-190.261"/>
</g>
</g>
</svg>
