<?xml version="1.0" encoding="UTF-8" standalone="no"?>
<!DOCTYPE svg PUBLIC "-//W3C//DTD SVG 1.1//EN"
 "http://www.w3.org/Graphics/SVG/1.1/DTD/svg11.dtd">
<!-- Generated by graphviz version 2.38.0 (20140413.2041)
 -->
<!-- Title: /home/jc/hull_abstraction/ros/src/hull_abstraction/include/hull_abstraction/preprocessor.h Pages: 1 -->
<svg width="1489pt" height="328pt"
 viewBox="0.00 0.00 1488.50 328.00" xmlns="http://www.w3.org/2000/svg" xmlns:xlink="http://www.w3.org/1999/xlink">
<g id="graph0" class="graph" transform="scale(1 1) rotate(0) translate(4 324)">
<title>/home/jc/hull_abstraction/ros/src/hull_abstraction/include/hull_abstraction/preprocessor.h</title>
<polygon fill="white" stroke="none" points="-4,4 -4,-324 1484.5,-324 1484.5,4 -4,4"/>
<!-- Node1 -->
<g id="node1" class="node"><title>Node1</title>
<polygon fill="#bfbfbf" stroke="black" points="735,-267.5 735,-319.5 860,-319.5 860,-267.5 735,-267.5"/>
<text text-anchor="start" x="743" y="-307.5" font-family="Helvetica,sans-Serif" font-size="10.00">/home/jc/hull_abstraction</text>
<text text-anchor="start" x="743" y="-296.5" font-family="Helvetica,sans-Serif" font-size="10.00">/ros/src/hull_abstraction</text>
<text text-anchor="start" x="743" y="-285.5" font-family="Helvetica,sans-Serif" font-size="10.00">/include/hull_abstraction</text>
<text text-anchor="middle" x="797.5" y="-274.5" font-family="Helvetica,sans-Serif" font-size="10.00">/preprocessor.h</text>
</g>
<!-- Node2 -->
<g id="node2" class="node"><title>Node2</title>
<g id="a_node2"><a xlink:href="prototype_2include_2hull__abstraction_2reconstructor_8h.html" target="_top" xlink:title="/home/jc/hull_abstraction\l/prototype/include/hull\l_abstraction/reconstructor.h">
<polygon fill="white" stroke="black" points="283.5,-184 283.5,-225 421.5,-225 421.5,-184 283.5,-184"/>
<text text-anchor="start" x="291.5" y="-213" font-family="Helvetica,sans-Serif" font-size="10.00">/home/jc/hull_abstraction</text>
<text text-anchor="start" x="291.5" y="-202" font-family="Helvetica,sans-Serif" font-size="10.00">/prototype/include/hull</text>
<text text-anchor="middle" x="352.5" y="-191" font-family="Helvetica,sans-Serif" font-size="10.00">_abstraction/reconstructor.h</text>
</a>
</g>
</g>
<!-- Node1&#45;&gt;Node2 -->
<g id="edge1" class="edge"><title>Node1&#45;&gt;Node2</title>
<path fill="none" stroke="midnightblue" d="M724.691,-283.577C650.166,-273.681 531.313,-255.778 430.5,-231 423.444,-229.266 416.104,-227.211 408.873,-225.031"/>
<polygon fill="midnightblue" stroke="midnightblue" points="724.535,-287.087 734.906,-284.92 725.448,-280.147 724.535,-287.087"/>
</g>
<!-- Node3 -->
<g id="node3" class="node"><title>Node3</title>
<g id="a_node3"><a xlink:href="prototype_2src_2hull__abstraction_2preprocessor_8cpp.html" target="_top" xlink:title="/home/jc/hull_abstraction\l/prototype/src/hull_abstraction\l/preprocessor.cpp">
<polygon fill="white" stroke="black" points="439.5,-184 439.5,-225 587.5,-225 587.5,-184 439.5,-184"/>
<text text-anchor="start" x="447.5" y="-213" font-family="Helvetica,sans-Serif" font-size="10.00">/home/jc/hull_abstraction</text>
<text text-anchor="start" x="447.5" y="-202" font-family="Helvetica,sans-Serif" font-size="10.00">/prototype/src/hull_abstraction</text>
<text text-anchor="middle" x="513.5" y="-191" font-family="Helvetica,sans-Serif" font-size="10.00">/preprocessor.cpp</text>
</a>
</g>
</g>
<!-- Node1&#45;&gt;Node3 -->
<g id="edge2" class="edge"><title>Node1&#45;&gt;Node3</title>
<path fill="none" stroke="midnightblue" d="M725.017,-270.296C679.49,-256.349 621.306,-238.525 577.491,-225.103"/>
<polygon fill="midnightblue" stroke="midnightblue" points="724.237,-273.717 734.823,-273.3 726.287,-267.024 724.237,-273.717"/>
</g>
<!-- Node4 -->
<g id="node4" class="node"><title>Node4</title>
<g id="a_node4"><a xlink:href="main_8cpp.html" target="_top" xlink:title="/home/jc/hull_abstraction\l/prototype/src/main.cpp">
<polygon fill="white" stroke="black" points="0,-100.5 0,-130.5 125,-130.5 125,-100.5 0,-100.5"/>
<text text-anchor="start" x="8" y="-118.5" font-family="Helvetica,sans-Serif" font-size="10.00">/home/jc/hull_abstraction</text>
<text text-anchor="middle" x="62.5" y="-107.5" font-family="Helvetica,sans-Serif" font-size="10.00">/prototype/src/main.cpp</text>
</a>
</g>
</g>
<!-- Node1&#45;&gt;Node4 -->
<g id="edge3" class="edge"><title>Node1&#45;&gt;Node4</title>
<path fill="none" stroke="midnightblue" d="M725.111,-275.217C695.026,-265.604 661.018,-251.36 634.5,-231 611.51,-213.349 621.75,-192.232 596.5,-178 506.791,-127.435 235.235,-163.373 134.5,-142 121.787,-139.303 108.257,-134.934 96.397,-130.568"/>
<polygon fill="midnightblue" stroke="midnightblue" points="724.139,-278.58 734.726,-278.177 726.199,-271.89 724.139,-278.58"/>
</g>
<!-- Node5 -->
<g id="node5" class="node"><title>Node5</title>
<g id="a_node5"><a xlink:href="ros_2src_2hull__abstraction_2include_2hull__abstraction_2reconstructor_8h.html" target="_top" xlink:title="This file contains the declaration of the Reconstructor class. ">
<polygon fill="white" stroke="black" points="644,-178.5 644,-230.5 769,-230.5 769,-178.5 644,-178.5"/>
<text text-anchor="start" x="652" y="-218.5" font-family="Helvetica,sans-Serif" font-size="10.00">/home/jc/hull_abstraction</text>
<text text-anchor="start" x="652" y="-207.5" font-family="Helvetica,sans-Serif" font-size="10.00">/ros/src/hull_abstraction</text>
<text text-anchor="start" x="652" y="-196.5" font-family="Helvetica,sans-Serif" font-size="10.00">/include/hull_abstraction</text>
<text text-anchor="middle" x="706.5" y="-185.5" font-family="Helvetica,sans-Serif" font-size="10.00">/reconstructor.h</text>
</a>
</g>
</g>
<!-- Node1&#45;&gt;Node5 -->
<g id="edge4" class="edge"><title>Node1&#45;&gt;Node5</title>
<path fill="none" stroke="midnightblue" d="M763.886,-260.363C753.613,-250.542 742.471,-239.89 732.762,-230.607"/>
<polygon fill="midnightblue" stroke="midnightblue" points="761.532,-262.955 771.179,-267.336 766.37,-257.896 761.532,-262.955"/>
</g>
<!-- Node10 -->
<g id="node10" class="node"><title>Node10</title>
<g id="a_node10"><a xlink:href="greedy__triangulation_8h.html" target="_top" xlink:title="Framework of greedy triangulation node. ">
<polygon fill="white" stroke="black" points="681,-89.5 681,-141.5 822,-141.5 822,-89.5 681,-89.5"/>
<text text-anchor="start" x="689" y="-129.5" font-family="Helvetica,sans-Serif" font-size="10.00">/home/jc/hull_abstraction</text>
<text text-anchor="start" x="689" y="-118.5" font-family="Helvetica,sans-Serif" font-size="10.00">/ros/src/hull_abstraction</text>
<text text-anchor="start" x="689" y="-107.5" font-family="Helvetica,sans-Serif" font-size="10.00">/src/greedy_triangulation</text>
<text text-anchor="middle" x="751.5" y="-96.5" font-family="Helvetica,sans-Serif" font-size="10.00">_node/greedy_triangulation.h</text>
</a>
</g>
</g>
<!-- Node1&#45;&gt;Node10 -->
<g id="edge20" class="edge"><title>Node1&#45;&gt;Node10</title>
<path fill="none" stroke="midnightblue" d="M793.437,-257.157C790.294,-234.281 785.164,-204.019 777.5,-178 773.897,-165.768 768.59,-152.693 763.709,-141.758"/>
<polygon fill="midnightblue" stroke="midnightblue" points="789.972,-257.647 794.744,-267.106 796.912,-256.736 789.972,-257.647"/>
</g>
<!-- Node14 -->
<g id="node14" class="node"><title>Node14</title>
<g id="a_node14"><a xlink:href="marching__cubes_8h.html" target="_top" xlink:title="Framework of marching cubes node. ">
<polygon fill="white" stroke="black" points="840.5,-89.5 840.5,-141.5 974.5,-141.5 974.5,-89.5 840.5,-89.5"/>
<text text-anchor="start" x="848.5" y="-129.5" font-family="Helvetica,sans-Serif" font-size="10.00">/home/jc/hull_abstraction</text>
<text text-anchor="start" x="848.5" y="-118.5" font-family="Helvetica,sans-Serif" font-size="10.00">/ros/src/hull_abstraction</text>
<text text-anchor="start" x="848.5" y="-107.5" font-family="Helvetica,sans-Serif" font-size="10.00">/src/marching_cubes_node</text>
<text text-anchor="middle" x="907.5" y="-96.5" font-family="Helvetica,sans-Serif" font-size="10.00">/marching_cubes.h</text>
</a>
</g>
</g>
<!-- Node1&#45;&gt;Node14 -->
<g id="edge22" class="edge"><title>Node1&#45;&gt;Node14</title>
<path fill="none" stroke="midnightblue" d="M814.214,-258.132C825.95,-234.933 842.527,-203.934 859.5,-178 867.659,-165.534 877.668,-152.426 886.432,-141.529"/>
<polygon fill="midnightblue" stroke="midnightblue" points="811,-256.734 809.65,-267.243 817.258,-259.869 811,-256.734"/>
</g>
<!-- Node17 -->
<g id="node17" class="node"><title>Node17</title>
<g id="a_node17"><a xlink:href="poisson__reconstruction_8h.html" target="_top" xlink:title="Framework of Poisson reconstruction node. ">
<polygon fill="white" stroke="black" points="993,-89.5 993,-141.5 1148,-141.5 1148,-89.5 993,-89.5"/>
<text text-anchor="start" x="1001" y="-129.5" font-family="Helvetica,sans-Serif" font-size="10.00">/home/jc/hull_abstraction</text>
<text text-anchor="start" x="1001" y="-118.5" font-family="Helvetica,sans-Serif" font-size="10.00">/ros/src/hull_abstraction</text>
<text text-anchor="start" x="1001" y="-107.5" font-family="Helvetica,sans-Serif" font-size="10.00">/src/poisson_reconstruction</text>
<text text-anchor="middle" x="1070.5" y="-96.5" font-family="Helvetica,sans-Serif" font-size="10.00">_node/poisson_reconstruction.h</text>
</a>
</g>
</g>
<!-- Node1&#45;&gt;Node17 -->
<g id="edge26" class="edge"><title>Node1&#45;&gt;Node17</title>
<path fill="none" stroke="midnightblue" d="M831.084,-260.375C840.036,-251.208 849.449,-240.989 857.5,-231 875.213,-209.021 870.198,-195.305 892.5,-178 901.089,-171.335 948.798,-154.996 992.66,-140.834"/>
<polygon fill="midnightblue" stroke="midnightblue" points="828.597,-257.912 824.038,-267.476 833.566,-262.842 828.597,-257.912"/>
</g>
<!-- Node20 -->
<g id="node20" class="node"><title>Node20</title>
<g id="a_node20"><a xlink:href="ros_2src_2hull__abstraction_2src_2hull__abstraction_2preprocessor_8cpp.html" target="_top" xlink:title="/home/jc/hull_abstraction\l/ros/src/hull_abstraction\l/src/hull_abstraction/preprocessor.cpp">
<polygon fill="white" stroke="black" points="901.5,-184 901.5,-225 1083.5,-225 1083.5,-184 901.5,-184"/>
<text text-anchor="start" x="909.5" y="-213" font-family="Helvetica,sans-Serif" font-size="10.00">/home/jc/hull_abstraction</text>
<text text-anchor="start" x="909.5" y="-202" font-family="Helvetica,sans-Serif" font-size="10.00">/ros/src/hull_abstraction</text>
<text text-anchor="middle" x="992.5" y="-191" font-family="Helvetica,sans-Serif" font-size="10.00">/src/hull_abstraction/preprocessor.cpp</text>
</a>
</g>
</g>
<!-- Node1&#45;&gt;Node20 -->
<g id="edge21" class="edge"><title>Node1&#45;&gt;Node20</title>
<path fill="none" stroke="midnightblue" d="M863.013,-263.271C891.147,-250.719 923.277,-236.384 948.493,-225.134"/>
<polygon fill="midnightblue" stroke="midnightblue" points="861.347,-260.182 853.64,-267.453 864.199,-266.575 861.347,-260.182"/>
</g>
<!-- Node21 -->
<g id="node21" class="node"><title>Node21</title>
<g id="a_node21"><a xlink:href="moving__least__squares_8h.html" target="_top" xlink:title="Framework of moving least squares node. ">
<polygon fill="white" stroke="black" points="1157.5,-178.5 1157.5,-230.5 1309.5,-230.5 1309.5,-178.5 1157.5,-178.5"/>
<text text-anchor="start" x="1165.5" y="-218.5" font-family="Helvetica,sans-Serif" font-size="10.00">/home/jc/hull_abstraction</text>
<text text-anchor="start" x="1165.5" y="-207.5" font-family="Helvetica,sans-Serif" font-size="10.00">/ros/src/hull_abstraction</text>
<text text-anchor="start" x="1165.5" y="-196.5" font-family="Helvetica,sans-Serif" font-size="10.00">/src/moving_least_squares</text>
<text text-anchor="middle" x="1233.5" y="-185.5" font-family="Helvetica,sans-Serif" font-size="10.00">_node/moving_least_squares.h</text>
</a>
</g>
</g>
<!-- Node1&#45;&gt;Node21 -->
<g id="edge23" class="edge"><title>Node1&#45;&gt;Node21</title>
<path fill="none" stroke="midnightblue" d="M870.369,-277.96C949.886,-262.093 1076.61,-236.807 1157.38,-220.689"/>
<polygon fill="midnightblue" stroke="midnightblue" points="869.554,-274.553 860.433,-279.942 870.924,-281.418 869.554,-274.553"/>
</g>
<!-- Node5&#45;&gt;Node4 -->
<g id="edge6" class="edge"><title>Node5&#45;&gt;Node4</title>
<path fill="none" stroke="midnightblue" d="M633.932,-178.932C632.446,-178.603 630.968,-178.292 629.5,-178 413.151,-134.999 350.395,-187.225 134.5,-142 121.78,-139.336 108.248,-134.974 96.3891,-130.606"/>
<polygon fill="midnightblue" stroke="midnightblue" points="633.264,-182.372 643.808,-181.336 634.92,-175.57 633.264,-182.372"/>
</g>
<!-- Node6 -->
<g id="node6" class="node"><title>Node6</title>
<g id="a_node6"><a xlink:href="prototype_2src_2hull__abstraction_2reconstructor_8cpp.html" target="_top" xlink:title="/home/jc/hull_abstraction\l/prototype/src/hull_abstraction\l/reconstructor.cpp">
<polygon fill="white" stroke="black" points="143.5,-95 143.5,-136 291.5,-136 291.5,-95 143.5,-95"/>
<text text-anchor="start" x="151.5" y="-124" font-family="Helvetica,sans-Serif" font-size="10.00">/home/jc/hull_abstraction</text>
<text text-anchor="start" x="151.5" y="-113" font-family="Helvetica,sans-Serif" font-size="10.00">/prototype/src/hull_abstraction</text>
<text text-anchor="middle" x="217.5" y="-102" font-family="Helvetica,sans-Serif" font-size="10.00">/reconstructor.cpp</text>
</a>
</g>
</g>
<!-- Node5&#45;&gt;Node6 -->
<g id="edge5" class="edge"><title>Node5&#45;&gt;Node6</title>
<path fill="none" stroke="midnightblue" d="M633.916,-179.005C632.435,-178.654 630.962,-178.318 629.5,-178 485.773,-146.705 444.559,-171.732 300.5,-142 292.528,-140.355 284.226,-138.269 276.088,-136.001"/>
<polygon fill="midnightblue" stroke="midnightblue" points="633.213,-182.438 643.768,-181.528 634.949,-175.657 633.213,-182.438"/>
</g>
<!-- Node7 -->
<g id="node7" class="node"><title>Node7</title>
<g id="a_node7"><a xlink:href="bspline__surface__fitting_8h.html" target="_top" xlink:title="Framework of b&#45;spline surface fitting node. ">
<polygon fill="white" stroke="black" points="309.5,-89.5 309.5,-141.5 461.5,-141.5 461.5,-89.5 309.5,-89.5"/>
<text text-anchor="start" x="317.5" y="-129.5" font-family="Helvetica,sans-Serif" font-size="10.00">/home/jc/hull_abstraction</text>
<text text-anchor="start" x="317.5" y="-118.5" font-family="Helvetica,sans-Serif" font-size="10.00">/ros/src/hull_abstraction</text>
<text text-anchor="start" x="317.5" y="-107.5" font-family="Helvetica,sans-Serif" font-size="10.00">/src/bspline_surface_fitting</text>
<text text-anchor="middle" x="385.5" y="-96.5" font-family="Helvetica,sans-Serif" font-size="10.00">_node/bspline_surface_fitting.h</text>
</a>
</g>
</g>
<!-- Node5&#45;&gt;Node7 -->
<g id="edge7" class="edge"><title>Node5&#45;&gt;Node7</title>
<path fill="none" stroke="midnightblue" d="M633.86,-179.233C632.396,-178.812 630.942,-178.401 629.5,-178 559.693,-158.588 540.575,-160.421 470.5,-142 467.669,-141.256 464.79,-140.482 461.886,-139.686"/>
<polygon fill="midnightblue" stroke="midnightblue" points="633.038,-182.64 643.621,-182.124 635.026,-175.928 633.038,-182.64"/>
</g>
<!-- Node5&#45;&gt;Node10 -->
<g id="edge10" class="edge"><title>Node5&#45;&gt;Node10</title>
<path fill="none" stroke="midnightblue" d="M724.164,-169.35C728.948,-160.1 734.038,-150.259 738.513,-141.607"/>
<polygon fill="midnightblue" stroke="midnightblue" points="721.001,-167.846 719.516,-178.336 727.219,-171.062 721.001,-167.846"/>
</g>
<!-- Node13 -->
<g id="node13" class="node"><title>Node13</title>
<g id="a_node13"><a xlink:href="ros_2src_2hull__abstraction_2src_2hull__abstraction_2reconstructor_8cpp.html" target="_top" xlink:title="/home/jc/hull_abstraction\l/ros/src/hull_abstraction\l/src/hull_abstraction/reconstructor.cpp">
<polygon fill="white" stroke="black" points="480,-95 480,-136 663,-136 663,-95 480,-95"/>
<text text-anchor="start" x="488" y="-124" font-family="Helvetica,sans-Serif" font-size="10.00">/home/jc/hull_abstraction</text>
<text text-anchor="start" x="488" y="-113" font-family="Helvetica,sans-Serif" font-size="10.00">/ros/src/hull_abstraction</text>
<text text-anchor="middle" x="571.5" y="-102" font-family="Helvetica,sans-Serif" font-size="10.00">/src/hull_abstraction/reconstructor.cpp</text>
</a>
</g>
</g>
<!-- Node5&#45;&gt;Node13 -->
<g id="edge13" class="edge"><title>Node5&#45;&gt;Node13</title>
<path fill="none" stroke="midnightblue" d="M658.926,-172.841C639.964,-160.621 618.697,-146.916 601.886,-136.082"/>
<polygon fill="midnightblue" stroke="midnightblue" points="657.151,-175.861 667.452,-178.336 660.943,-169.977 657.151,-175.861"/>
</g>
<!-- Node5&#45;&gt;Node14 -->
<g id="edge14" class="edge"><title>Node5&#45;&gt;Node14</title>
<path fill="none" stroke="midnightblue" d="M773.649,-174.436C798.288,-163.771 825.944,-151.8 849.693,-141.521"/>
<polygon fill="midnightblue" stroke="midnightblue" points="772.155,-171.268 764.368,-178.453 774.935,-177.692 772.155,-171.268"/>
</g>
<!-- Node5&#45;&gt;Node17 -->
<g id="edge17" class="edge"><title>Node5&#45;&gt;Node17</title>
<path fill="none" stroke="midnightblue" d="M779.054,-188.773C835.118,-177.06 914.529,-159.743 983.5,-142 986.549,-141.216 989.652,-140.398 992.783,-139.558"/>
<polygon fill="midnightblue" stroke="midnightblue" points="778.292,-185.356 769.215,-190.821 779.719,-192.209 778.292,-185.356"/>
</g>
<!-- Node8 -->
<g id="node8" class="node"><title>Node8</title>
<g id="a_node8"><a xlink:href="bspline__surface__fitting_8cpp.html" target="_top" xlink:title="/home/jc/hull_abstraction\l/ros/src/hull_abstraction\l/src/bspline_surface_fitting\l_node/bspline_surface_fitting.cpp">
<polygon fill="white" stroke="black" points="150.5,-0.5 150.5,-52.5 312.5,-52.5 312.5,-0.5 150.5,-0.5"/>
<text text-anchor="start" x="158.5" y="-40.5" font-family="Helvetica,sans-Serif" font-size="10.00">/home/jc/hull_abstraction</text>
<text text-anchor="start" x="158.5" y="-29.5" font-family="Helvetica,sans-Serif" font-size="10.00">/ros/src/hull_abstraction</text>
<text text-anchor="start" x="158.5" y="-18.5" font-family="Helvetica,sans-Serif" font-size="10.00">/src/bspline_surface_fitting</text>
<text text-anchor="middle" x="231.5" y="-7.5" font-family="Helvetica,sans-Serif" font-size="10.00">_node/bspline_surface_fitting.cpp</text>
</a>
</g>
</g>
<!-- Node7&#45;&gt;Node8 -->
<g id="edge8" class="edge"><title>Node7&#45;&gt;Node8</title>
<path fill="none" stroke="midnightblue" d="M332.137,-84.3532C313.804,-73.9962 293.491,-62.5208 275.943,-52.6075"/>
<polygon fill="midnightblue" stroke="midnightblue" points="330.529,-87.4646 340.957,-89.336 333.972,-81.3699 330.529,-87.4646"/>
</g>
<!-- Node9 -->
<g id="node9" class="node"><title>Node9</title>
<g id="a_node9"><a xlink:href="bspline__surface__fitting__node_8cpp.html" target="_top" xlink:title="/home/jc/hull_abstraction\l/ros/src/hull_abstraction\l/src/bspline_surface_fitting\l_node.cpp">
<polygon fill="white" stroke="black" points="330.5,-0.5 330.5,-52.5 464.5,-52.5 464.5,-0.5 330.5,-0.5"/>
<text text-anchor="start" x="338.5" y="-40.5" font-family="Helvetica,sans-Serif" font-size="10.00">/home/jc/hull_abstraction</text>
<text text-anchor="start" x="338.5" y="-29.5" font-family="Helvetica,sans-Serif" font-size="10.00">/ros/src/hull_abstraction</text>
<text text-anchor="start" x="338.5" y="-18.5" font-family="Helvetica,sans-Serif" font-size="10.00">/src/bspline_surface_fitting</text>
<text text-anchor="middle" x="397.5" y="-7.5" font-family="Helvetica,sans-Serif" font-size="10.00">_node.cpp</text>
</a>
</g>
</g>
<!-- Node7&#45;&gt;Node9 -->
<g id="edge9" class="edge"><title>Node7&#45;&gt;Node9</title>
<path fill="none" stroke="midnightblue" d="M390.37,-79.1908C391.599,-70.2824 392.893,-60.8986 394.037,-52.6075"/>
<polygon fill="midnightblue" stroke="midnightblue" points="386.87,-78.9515 388.971,-89.336 393.805,-79.908 386.87,-78.9515"/>
</g>
<!-- Node11 -->
<g id="node11" class="node"><title>Node11</title>
<g id="a_node11"><a xlink:href="greedy__triangulation_8cpp.html" target="_top" xlink:title="/home/jc/hull_abstraction\l/ros/src/hull_abstraction\l/src/greedy_triangulation\l_node/greedy_triangulation.cpp">
<polygon fill="white" stroke="black" points="506.5,-0.5 506.5,-52.5 658.5,-52.5 658.5,-0.5 506.5,-0.5"/>
<text text-anchor="start" x="514.5" y="-40.5" font-family="Helvetica,sans-Serif" font-size="10.00">/home/jc/hull_abstraction</text>
<text text-anchor="start" x="514.5" y="-29.5" font-family="Helvetica,sans-Serif" font-size="10.00">/ros/src/hull_abstraction</text>
<text text-anchor="start" x="514.5" y="-18.5" font-family="Helvetica,sans-Serif" font-size="10.00">/src/greedy_triangulation</text>
<text text-anchor="middle" x="582.5" y="-7.5" font-family="Helvetica,sans-Serif" font-size="10.00">_node/greedy_triangulation.cpp</text>
</a>
</g>
</g>
<!-- Node10&#45;&gt;Node11 -->
<g id="edge11" class="edge"><title>Node10&#45;&gt;Node11</title>
<path fill="none" stroke="midnightblue" d="M693.487,-84.6354C673.226,-74.2049 650.704,-62.6109 631.272,-52.6075"/>
<polygon fill="midnightblue" stroke="midnightblue" points="692.125,-87.8708 702.618,-89.336 695.329,-81.647 692.125,-87.8708"/>
</g>
<!-- Node12 -->
<g id="node12" class="node"><title>Node12</title>
<g id="a_node12"><a xlink:href="greedy__triangulation__node_8cpp.html" target="_top" xlink:title="/home/jc/hull_abstraction\l/ros/src/hull_abstraction\l/src/greedy_triangulation\l_node.cpp">
<polygon fill="white" stroke="black" points="677,-0.5 677,-52.5 802,-52.5 802,-0.5 677,-0.5"/>
<text text-anchor="start" x="685" y="-40.5" font-family="Helvetica,sans-Serif" font-size="10.00">/home/jc/hull_abstraction</text>
<text text-anchor="start" x="685" y="-29.5" font-family="Helvetica,sans-Serif" font-size="10.00">/ros/src/hull_abstraction</text>
<text text-anchor="start" x="685" y="-18.5" font-family="Helvetica,sans-Serif" font-size="10.00">/src/greedy_triangulation</text>
<text text-anchor="middle" x="739.5" y="-7.5" font-family="Helvetica,sans-Serif" font-size="10.00">_node.cpp</text>
</a>
</g>
</g>
<!-- Node10&#45;&gt;Node12 -->
<g id="edge12" class="edge"><title>Node10&#45;&gt;Node12</title>
<path fill="none" stroke="midnightblue" d="M746.63,-79.1908C745.401,-70.2824 744.107,-60.8986 742.963,-52.6075"/>
<polygon fill="midnightblue" stroke="midnightblue" points="743.195,-79.908 748.029,-89.336 750.13,-78.9515 743.195,-79.908"/>
</g>
<!-- Node15 -->
<g id="node15" class="node"><title>Node15</title>
<g id="a_node15"><a xlink:href="marching__cubes_8cpp.html" target="_top" xlink:title="/home/jc/hull_abstraction\l/ros/src/hull_abstraction\l/src/marching_cubes_node\l/marching_cubes.cpp">
<polygon fill="white" stroke="black" points="820.5,-0.5 820.5,-52.5 954.5,-52.5 954.5,-0.5 820.5,-0.5"/>
<text text-anchor="start" x="828.5" y="-40.5" font-family="Helvetica,sans-Serif" font-size="10.00">/home/jc/hull_abstraction</text>
<text text-anchor="start" x="828.5" y="-29.5" font-family="Helvetica,sans-Serif" font-size="10.00">/ros/src/hull_abstraction</text>
<text text-anchor="start" x="828.5" y="-18.5" font-family="Helvetica,sans-Serif" font-size="10.00">/src/marching_cubes_node</text>
<text text-anchor="middle" x="887.5" y="-7.5" font-family="Helvetica,sans-Serif" font-size="10.00">/marching_cubes.cpp</text>
</a>
</g>
</g>
<!-- Node14&#45;&gt;Node15 -->
<g id="edge15" class="edge"><title>Node14&#45;&gt;Node15</title>
<path fill="none" stroke="midnightblue" d="M899.45,-79.4811C897.382,-70.4865 895.199,-60.9887 893.272,-52.6075"/>
<polygon fill="midnightblue" stroke="midnightblue" points="896.064,-80.3744 901.715,-89.336 902.886,-78.806 896.064,-80.3744"/>
</g>
<!-- Node16 -->
<g id="node16" class="node"><title>Node16</title>
<g id="a_node16"><a xlink:href="marching__cubes__node_8cpp.html" target="_top" xlink:title="/home/jc/hull_abstraction\l/ros/src/hull_abstraction\l/src/marching_cubes_node.cpp">
<polygon fill="white" stroke="black" points="972.5,-6 972.5,-47 1124.5,-47 1124.5,-6 972.5,-6"/>
<text text-anchor="start" x="980.5" y="-35" font-family="Helvetica,sans-Serif" font-size="10.00">/home/jc/hull_abstraction</text>
<text text-anchor="start" x="980.5" y="-24" font-family="Helvetica,sans-Serif" font-size="10.00">/ros/src/hull_abstraction</text>
<text text-anchor="middle" x="1048.5" y="-13" font-family="Helvetica,sans-Serif" font-size="10.00">/src/marching_cubes_node.cpp</text>
</a>
</g>
</g>
<!-- Node14&#45;&gt;Node16 -->
<g id="edge16" class="edge"><title>Node14&#45;&gt;Node16</title>
<path fill="none" stroke="midnightblue" d="M956.921,-84.0065C976.793,-71.7447 999.127,-57.9644 1016.76,-47.0821"/>
<polygon fill="midnightblue" stroke="midnightblue" points="954.956,-81.1062 948.283,-89.336 958.631,-87.0635 954.956,-81.1062"/>
</g>
<!-- Node18 -->
<g id="node18" class="node"><title>Node18</title>
<g id="a_node18"><a xlink:href="poisson__reconstruction_8cpp.html" target="_top" xlink:title="/home/jc/hull_abstraction\l/ros/src/hull_abstraction\l/src/poisson_reconstruction\l_node/poisson_reconstruction.cpp">
<polygon fill="white" stroke="black" points="1143,-0.5 1143,-52.5 1308,-52.5 1308,-0.5 1143,-0.5"/>
<text text-anchor="start" x="1151" y="-40.5" font-family="Helvetica,sans-Serif" font-size="10.00">/home/jc/hull_abstraction</text>
<text text-anchor="start" x="1151" y="-29.5" font-family="Helvetica,sans-Serif" font-size="10.00">/ros/src/hull_abstraction</text>
<text text-anchor="start" x="1151" y="-18.5" font-family="Helvetica,sans-Serif" font-size="10.00">/src/poisson_reconstruction</text>
<text text-anchor="middle" x="1225.5" y="-7.5" font-family="Helvetica,sans-Serif" font-size="10.00">_node/poisson_reconstruction.cpp</text>
</a>
</g>
</g>
<!-- Node17&#45;&gt;Node18 -->
<g id="edge18" class="edge"><title>Node17&#45;&gt;Node18</title>
<path fill="none" stroke="midnightblue" d="M1124.21,-84.3532C1142.66,-73.9962 1163.11,-62.5208 1180.77,-52.6075"/>
<polygon fill="midnightblue" stroke="midnightblue" points="1122.34,-81.3893 1115.33,-89.336 1125.77,-87.4934 1122.34,-81.3893"/>
</g>
<!-- Node19 -->
<g id="node19" class="node"><title>Node19</title>
<g id="a_node19"><a xlink:href="poisson__reconstruction__node_8cpp.html" target="_top" xlink:title="/home/jc/hull_abstraction\l/ros/src/hull_abstraction\l/src/poisson_reconstruction\l_node.cpp">
<polygon fill="white" stroke="black" points="1326,-0.5 1326,-52.5 1463,-52.5 1463,-0.5 1326,-0.5"/>
<text text-anchor="start" x="1334" y="-40.5" font-family="Helvetica,sans-Serif" font-size="10.00">/home/jc/hull_abstraction</text>
<text text-anchor="start" x="1334" y="-29.5" font-family="Helvetica,sans-Serif" font-size="10.00">/ros/src/hull_abstraction</text>
<text text-anchor="start" x="1334" y="-18.5" font-family="Helvetica,sans-Serif" font-size="10.00">/src/poisson_reconstruction</text>
<text text-anchor="middle" x="1394.5" y="-7.5" font-family="Helvetica,sans-Serif" font-size="10.00">_node.cpp</text>
</a>
</g>
</g>
<!-- Node17&#45;&gt;Node19 -->
<g id="edge19" class="edge"><title>Node17&#45;&gt;Node19</title>
<path fill="none" stroke="midnightblue" d="M1158.19,-88.9041C1229.81,-70.8504 1250.28,-71.6439 1317.5,-53 1320.21,-52.2473 1322.97,-51.4565 1325.76,-50.6382"/>
<polygon fill="midnightblue" stroke="midnightblue" points="1157.04,-85.5841 1148.22,-91.4532 1158.78,-92.3657 1157.04,-85.5841"/>
</g>
<!-- Node22 -->
<g id="node22" class="node"><title>Node22</title>
<g id="a_node22"><a xlink:href="moving__least__squares_8cpp.html" target="_top" xlink:title="/home/jc/hull_abstraction\l/ros/src/hull_abstraction\l/src/moving_least_squares\l_node/moving_least_squares.cpp">
<polygon fill="white" stroke="black" points="1318.5,-89.5 1318.5,-141.5 1480.5,-141.5 1480.5,-89.5 1318.5,-89.5"/>
<text text-anchor="start" x="1326.5" y="-129.5" font-family="Helvetica,sans-Serif" font-size="10.00">/home/jc/hull_abstraction</text>
<text text-anchor="start" x="1326.5" y="-118.5" font-family="Helvetica,sans-Serif" font-size="10.00">/ros/src/hull_abstraction</text>
<text text-anchor="start" x="1326.5" y="-107.5" font-family="Helvetica,sans-Serif" font-size="10.00">/src/moving_least_squares</text>
<text text-anchor="middle" x="1399.5" y="-96.5" font-family="Helvetica,sans-Serif" font-size="10.00">_node/moving_least_squares.cpp</text>
</a>
</g>
</g>
<!-- Node21&#45;&gt;Node22 -->
<g id="edge24" class="edge"><title>Node21&#45;&gt;Node22</title>
<path fill="none" stroke="midnightblue" d="M1290.48,-173.635C1310.38,-163.205 1332.51,-151.611 1351.59,-141.607"/>
<polygon fill="midnightblue" stroke="midnightblue" points="1288.75,-170.594 1281.51,-178.336 1292,-176.794 1288.75,-170.594"/>
</g>
<!-- Node23 -->
<g id="node23" class="node"><title>Node23</title>
<g id="a_node23"><a xlink:href="moving__least__squares__node_8cpp.html" target="_top" xlink:title="/home/jc/hull_abstraction\l/ros/src/hull_abstraction\l/src/moving_least_squares\l_node.cpp">
<polygon fill="white" stroke="black" points="1166.5,-89.5 1166.5,-141.5 1300.5,-141.5 1300.5,-89.5 1166.5,-89.5"/>
<text text-anchor="start" x="1174.5" y="-129.5" font-family="Helvetica,sans-Serif" font-size="10.00">/home/jc/hull_abstraction</text>
<text text-anchor="start" x="1174.5" y="-118.5" font-family="Helvetica,sans-Serif" font-size="10.00">/ros/src/hull_abstraction</text>
<text text-anchor="start" x="1174.5" y="-107.5" font-family="Helvetica,sans-Serif" font-size="10.00">/src/moving_least_squares</text>
<text text-anchor="middle" x="1233.5" y="-96.5" font-family="Helvetica,sans-Serif" font-size="10.00">_node.cpp</text>
</a>
</g>
</g>
<!-- Node21&#45;&gt;Node23 -->
<g id="edge25" class="edge"><title>Node21&#45;&gt;Node23</title>
<path fill="none" stroke="midnightblue" d="M1233.5,-168.191C1233.5,-159.282 1233.5,-149.899 1233.5,-141.607"/>
<polygon fill="midnightblue" stroke="midnightblue" points="1230,-168.336 1233.5,-178.336 1237,-168.336 1230,-168.336"/>
</g>
</g>
</svg>
