<?xml version="1.0" encoding="UTF-8" standalone="no"?>
<!DOCTYPE svg PUBLIC "-//W3C//DTD SVG 1.1//EN"
 "http://www.w3.org/Graphics/SVG/1.1/DTD/svg11.dtd">
<!-- Generated by graphviz version 2.38.0 (20140413.2041)
 -->
<!-- Title: /home/jc/THESIS/hull_abstraction/ros/src/hull_abstraction/include/hull_abstraction/reconstructor.h Pages: 1 -->
<svg width="1164pt" height="128pt"
 viewBox="0.00 0.00 1163.50 128.00" xmlns="http://www.w3.org/2000/svg" xmlns:xlink="http://www.w3.org/1999/xlink">
<g id="graph0" class="graph" transform="scale(1 1) rotate(0) translate(4 124)">
<title>/home/jc/THESIS/hull_abstraction/ros/src/hull_abstraction/include/hull_abstraction/reconstructor.h</title>
<polygon fill="white" stroke="none" points="-4,4 -4,-124 1159.5,-124 1159.5,4 -4,4"/>
<!-- Node1 -->
<g id="node1" class="node"><title>Node1</title>
<polygon fill="#bfbfbf" stroke="black" points="498,-67.5 498,-119.5 654,-119.5 654,-67.5 498,-67.5"/>
<text text-anchor="start" x="506" y="-107.5" font-family="Helvetica,sans-Serif" font-size="10.00">/home/jc/THESIS/hull</text>
<text text-anchor="start" x="506" y="-96.5" font-family="Helvetica,sans-Serif" font-size="10.00">_abstraction/ros/src</text>
<text text-anchor="start" x="506" y="-85.5" font-family="Helvetica,sans-Serif" font-size="10.00">/hull_abstraction/include</text>
<text text-anchor="middle" x="576" y="-74.5" font-family="Helvetica,sans-Serif" font-size="10.00">/hull_abstraction/reconstructor.h</text>
</g>
<!-- Node2 -->
<g id="node2" class="node"><title>Node2</title>
<polygon fill="white" stroke="#bfbfbf" points="0,-6 0,-25 152,-25 152,-6 0,-6"/>
<text text-anchor="middle" x="76" y="-13" font-family="Helvetica,sans-Serif" font-size="10.00">hull_abstraction/preprocessor.h</text>
</g>
<!-- Node1&#45;&gt;Node2 -->
<g id="edge1" class="edge"><title>Node1&#45;&gt;Node2</title>
<path fill="none" stroke="midnightblue" d="M497.905,-81.4457C414.429,-69.5086 278.242,-49.685 161,-31 152.606,-29.6622 143.754,-28.2045 135.059,-26.7459"/>
<polygon fill="midnightblue" stroke="midnightblue" points="135.406,-23.255 124.963,-25.0404 134.24,-30.1572 135.406,-23.255"/>
</g>
<!-- Node3 -->
<g id="node3" class="node"><title>Node3</title>
<polygon fill="white" stroke="#bfbfbf" points="170.5,-6 170.5,-25 261.5,-25 261.5,-6 170.5,-6"/>
<text text-anchor="middle" x="216" y="-13" font-family="Helvetica,sans-Serif" font-size="10.00">pcl/point_types.h</text>
</g>
<!-- Node1&#45;&gt;Node3 -->
<g id="edge2" class="edge"><title>Node1&#45;&gt;Node3</title>
<path fill="none" stroke="midnightblue" d="M497.724,-78.1979C435.721,-66.5252 347.024,-49.0618 270,-31 265.574,-29.9622 260.961,-28.8189 256.377,-27.6434"/>
<polygon fill="midnightblue" stroke="midnightblue" points="257.032,-24.197 246.471,-25.0472 255.257,-30.9683 257.032,-24.197"/>
</g>
<!-- Node4 -->
<g id="node4" class="node"><title>Node4</title>
<polygon fill="white" stroke="#bfbfbf" points="279.5,-6 279.5,-25 392.5,-25 392.5,-6 279.5,-6"/>
<text text-anchor="middle" x="336" y="-13" font-family="Helvetica,sans-Serif" font-size="10.00">pcl/PCLPointCloud2.h</text>
</g>
<!-- Node1&#45;&gt;Node4 -->
<g id="edge3" class="edge"><title>Node1&#45;&gt;Node4</title>
<path fill="none" stroke="midnightblue" d="M497.747,-67.7199C455.723,-54.4121 405.894,-38.6332 372.758,-28.1401"/>
<polygon fill="midnightblue" stroke="midnightblue" points="373.628,-24.7442 363.038,-25.062 371.515,-31.4176 373.628,-24.7442"/>
</g>
<!-- Node5 -->
<g id="node5" class="node"><title>Node5</title>
<polygon fill="white" stroke="#bfbfbf" points="411,-6 411,-25 503,-25 503,-6 411,-6"/>
<text text-anchor="middle" x="457" y="-13" font-family="Helvetica,sans-Serif" font-size="10.00">pcl/surface/gp3.h</text>
</g>
<!-- Node1&#45;&gt;Node5 -->
<g id="edge4" class="edge"><title>Node1&#45;&gt;Node5</title>
<path fill="none" stroke="midnightblue" d="M536.705,-67.4041C517.577,-55.1878 495.287,-40.9524 479.151,-30.6467"/>
<polygon fill="midnightblue" stroke="midnightblue" points="480.743,-27.5107 470.431,-25.0779 476.975,-33.4102 480.743,-27.5107"/>
</g>
<!-- Node6 -->
<g id="node6" class="node"><title>Node6</title>
<polygon fill="white" stroke="#bfbfbf" points="521,-6 521,-25 631,-25 631,-6 521,-6"/>
<text text-anchor="middle" x="576" y="-13" font-family="Helvetica,sans-Serif" font-size="10.00">pcl/surface/poisson.h</text>
</g>
<!-- Node1&#45;&gt;Node6 -->
<g id="edge5" class="edge"><title>Node1&#45;&gt;Node6</title>
<path fill="none" stroke="midnightblue" d="M576,-67.1931C576,-56.765 576,-44.8961 576,-35.2656"/>
<polygon fill="midnightblue" stroke="midnightblue" points="579.5,-35.2089 576,-25.2089 572.5,-35.2089 579.5,-35.2089"/>
</g>
<!-- Node7 -->
<g id="node7" class="node"><title>Node7</title>
<polygon fill="white" stroke="#bfbfbf" points="649.5,-0.5 649.5,-30.5 756.5,-30.5 756.5,-0.5 649.5,-0.5"/>
<text text-anchor="start" x="657.5" y="-18.5" font-family="Helvetica,sans-Serif" font-size="10.00">pcl/surface/marching</text>
<text text-anchor="middle" x="703" y="-7.5" font-family="Helvetica,sans-Serif" font-size="10.00">_cubes_hoppe.h</text>
</g>
<!-- Node1&#45;&gt;Node7 -->
<g id="edge6" class="edge"><title>Node1&#45;&gt;Node7</title>
<path fill="none" stroke="midnightblue" d="M617.937,-67.4041C634.968,-57.2118 654.349,-45.614 670.305,-36.0656"/>
<polygon fill="midnightblue" stroke="midnightblue" points="672.476,-38.8449 679.26,-30.7066 668.882,-32.8383 672.476,-38.8449"/>
</g>
<!-- Node8 -->
<g id="node8" class="node"><title>Node8</title>
<polygon fill="white" stroke="#bfbfbf" points="774.5,-0.5 774.5,-30.5 885.5,-30.5 885.5,-0.5 774.5,-0.5"/>
<text text-anchor="start" x="782.5" y="-18.5" font-family="Helvetica,sans-Serif" font-size="10.00">pcl/surface/on_nurbs</text>
<text text-anchor="middle" x="830" y="-7.5" font-family="Helvetica,sans-Serif" font-size="10.00">/fitting_surface_tdm.h</text>
</g>
<!-- Node1&#45;&gt;Node8 -->
<g id="edge7" class="edge"><title>Node1&#45;&gt;Node8</title>
<path fill="none" stroke="midnightblue" d="M654.281,-69.0774C692.787,-57.556 738.335,-43.9273 773.409,-33.4329"/>
<polygon fill="midnightblue" stroke="midnightblue" points="774.432,-36.7801 783.009,-30.5604 772.425,-30.0739 774.432,-36.7801"/>
</g>
<!-- Node9 -->
<g id="node9" class="node"><title>Node9</title>
<polygon fill="white" stroke="#bfbfbf" points="904,-0.5 904,-30.5 1030,-30.5 1030,-0.5 904,-0.5"/>
<text text-anchor="start" x="912" y="-18.5" font-family="Helvetica,sans-Serif" font-size="10.00">pcl/surface/on_nurbs</text>
<text text-anchor="middle" x="967" y="-7.5" font-family="Helvetica,sans-Serif" font-size="10.00">/fitting_curve_2d_asdm.h</text>
</g>
<!-- Node1&#45;&gt;Node9 -->
<g id="edge8" class="edge"><title>Node1&#45;&gt;Node9</title>
<path fill="none" stroke="midnightblue" d="M654.039,-77.6416C716.31,-65.7421 806.057,-48.4962 893.918,-31.2051"/>
<polygon fill="midnightblue" stroke="midnightblue" points="894.655,-34.6274 903.79,-29.2606 893.302,-27.7593 894.655,-34.6274"/>
</g>
<!-- Node10 -->
<g id="node10" class="node"><title>Node10</title>
<polygon fill="white" stroke="#bfbfbf" points="1048.5,-0.5 1048.5,-30.5 1155.5,-30.5 1155.5,-0.5 1048.5,-0.5"/>
<text text-anchor="start" x="1056.5" y="-18.5" font-family="Helvetica,sans-Serif" font-size="10.00">pcl/surface/on_nurbs</text>
<text text-anchor="middle" x="1102" y="-7.5" font-family="Helvetica,sans-Serif" font-size="10.00">/triangulation.h</text>
</g>
<!-- Node1&#45;&gt;Node10 -->
<g id="edge9" class="edge"><title>Node1&#45;&gt;Node10</title>
<path fill="none" stroke="midnightblue" d="M654.174,-84.3897C744.343,-74.5229 897.181,-56.2285 1038.31,-31.0126"/>
<polygon fill="midnightblue" stroke="midnightblue" points="1039.23,-34.4033 1048.45,-29.1851 1037.99,-27.5143 1039.23,-34.4033"/>
</g>
</g>
</svg>
