<?xml version="1.0" encoding="UTF-8" standalone="no"?>
<!DOCTYPE svg PUBLIC "-//W3C//DTD SVG 1.1//EN"
 "http://www.w3.org/Graphics/SVG/1.1/DTD/svg11.dtd">
<!-- Generated by graphviz version 2.38.0 (20140413.2041)
 -->
<!-- Title: /home/jc/hull_abstraction/ros/src/hull_abstraction/include/hull_abstraction/preprocessor.h Pages: 1 -->
<svg width="1498pt" height="328pt"
 viewBox="0.00 0.00 1497.50 328.00" xmlns="http://www.w3.org/2000/svg" xmlns:xlink="http://www.w3.org/1999/xlink">
<g id="graph0" class="graph" transform="scale(1 1) rotate(0) translate(4 324)">
<title>/home/jc/hull_abstraction/ros/src/hull_abstraction/include/hull_abstraction/preprocessor.h</title>
<polygon fill="white" stroke="none" points="-4,4 -4,-324 1493.5,-324 1493.5,4 -4,4"/>
<!-- Node1 -->
<g id="node1" class="node"><title>Node1</title>
<polygon fill="#bfbfbf" stroke="black" points="744,-267.5 744,-319.5 869,-319.5 869,-267.5 744,-267.5"/>
<text text-anchor="start" x="752" y="-307.5" font-family="Helvetica,sans-Serif" font-size="10.00">/home/jc/hull_abstraction</text>
<text text-anchor="start" x="752" y="-296.5" font-family="Helvetica,sans-Serif" font-size="10.00">/ros/src/hull_abstraction</text>
<text text-anchor="start" x="752" y="-285.5" font-family="Helvetica,sans-Serif" font-size="10.00">/include/hull_abstraction</text>
<text text-anchor="middle" x="806.5" y="-274.5" font-family="Helvetica,sans-Serif" font-size="10.00">/preprocessor.h</text>
</g>
<!-- Node2 -->
<g id="node2" class="node"><title>Node2</title>
<g id="a_node2"><a xlink:href="benchmark_2include_2hull__abstraction_2reconstructor_8h.html" target="_top" xlink:title="This file contains the declaration of the Reconstructor class. ">
<polygon fill="white" stroke="black" points="284.5,-184 284.5,-225 422.5,-225 422.5,-184 284.5,-184"/>
<text text-anchor="start" x="292.5" y="-213" font-family="Helvetica,sans-Serif" font-size="10.00">/home/jc/hull_abstraction</text>
<text text-anchor="start" x="292.5" y="-202" font-family="Helvetica,sans-Serif" font-size="10.00">/benchmark/include/hull</text>
<text text-anchor="middle" x="353.5" y="-191" font-family="Helvetica,sans-Serif" font-size="10.00">_abstraction/reconstructor.h</text>
</a>
</g>
</g>
<!-- Node1&#45;&gt;Node2 -->
<g id="edge1" class="edge"><title>Node1&#45;&gt;Node2</title>
<path fill="none" stroke="midnightblue" d="M733.917,-283.955C657.888,-274.223 535.319,-256.325 431.5,-231 424.441,-229.278 417.099,-227.23 409.867,-225.055"/>
<polygon fill="midnightblue" stroke="midnightblue" points="733.509,-287.431 743.87,-285.216 734.389,-280.486 733.509,-287.431"/>
</g>
<!-- Node3 -->
<g id="node3" class="node"><title>Node3</title>
<g id="a_node3"><a xlink:href="benchmark_2src_2hull__abstraction_2preprocessor_8cpp.html" target="_top" xlink:title="/home/jc/hull_abstraction\l/benchmark/src/hull_abstraction\l/preprocessor.cpp">
<polygon fill="white" stroke="black" points="441,-184 441,-225 596,-225 596,-184 441,-184"/>
<text text-anchor="start" x="449" y="-213" font-family="Helvetica,sans-Serif" font-size="10.00">/home/jc/hull_abstraction</text>
<text text-anchor="start" x="449" y="-202" font-family="Helvetica,sans-Serif" font-size="10.00">/benchmark/src/hull_abstraction</text>
<text text-anchor="middle" x="518.5" y="-191" font-family="Helvetica,sans-Serif" font-size="10.00">/preprocessor.cpp</text>
</a>
</g>
</g>
<!-- Node1&#45;&gt;Node3 -->
<g id="edge2" class="edge"><title>Node1&#45;&gt;Node3</title>
<path fill="none" stroke="midnightblue" d="M733.969,-270.589C687.595,-256.581 627.974,-238.57 583.208,-225.047"/>
<polygon fill="midnightblue" stroke="midnightblue" points="733.068,-273.974 743.653,-273.515 735.092,-267.273 733.068,-273.974"/>
</g>
<!-- Node4 -->
<g id="node4" class="node"><title>Node4</title>
<g id="a_node4"><a xlink:href="main_8cpp.html" target="_top" xlink:title="/home/jc/hull_abstraction\l/benchmark/src/main.cpp">
<polygon fill="white" stroke="black" points="0,-100.5 0,-130.5 127,-130.5 127,-100.5 0,-100.5"/>
<text text-anchor="start" x="8" y="-118.5" font-family="Helvetica,sans-Serif" font-size="10.00">/home/jc/hull_abstraction</text>
<text text-anchor="middle" x="63.5" y="-107.5" font-family="Helvetica,sans-Serif" font-size="10.00">/benchmark/src/main.cpp</text>
</a>
</g>
</g>
<!-- Node1&#45;&gt;Node4 -->
<g id="edge3" class="edge"><title>Node1&#45;&gt;Node4</title>
<path fill="none" stroke="midnightblue" d="M734.232,-275.058C704.168,-265.417 670.144,-251.196 643.5,-231 620.193,-213.334 630.074,-192.188 604.5,-178 513.096,-127.29 237.765,-163.636 135.5,-142 122.786,-139.31 109.255,-134.943 97.3953,-130.576"/>
<polygon fill="midnightblue" stroke="midnightblue" points="733.252,-278.418 743.84,-278.029 735.32,-271.731 733.252,-278.418"/>
</g>
<!-- Node5 -->
<g id="node5" class="node"><title>Node5</title>
<g id="a_node5"><a xlink:href="ros_2src_2hull__abstraction_2include_2hull__abstraction_2reconstructor_8h.html" target="_top" xlink:title="This file contains the declaration of the Reconstructor class. ">
<polygon fill="white" stroke="black" points="653,-178.5 653,-230.5 778,-230.5 778,-178.5 653,-178.5"/>
<text text-anchor="start" x="661" y="-218.5" font-family="Helvetica,sans-Serif" font-size="10.00">/home/jc/hull_abstraction</text>
<text text-anchor="start" x="661" y="-207.5" font-family="Helvetica,sans-Serif" font-size="10.00">/ros/src/hull_abstraction</text>
<text text-anchor="start" x="661" y="-196.5" font-family="Helvetica,sans-Serif" font-size="10.00">/include/hull_abstraction</text>
<text text-anchor="middle" x="715.5" y="-185.5" font-family="Helvetica,sans-Serif" font-size="10.00">/reconstructor.h</text>
</a>
</g>
</g>
<!-- Node1&#45;&gt;Node5 -->
<g id="edge4" class="edge"><title>Node1&#45;&gt;Node5</title>
<path fill="none" stroke="midnightblue" d="M772.886,-260.363C762.613,-250.542 751.471,-239.89 741.762,-230.607"/>
<polygon fill="midnightblue" stroke="midnightblue" points="770.532,-262.955 780.179,-267.336 775.37,-257.896 770.532,-262.955"/>
</g>
<!-- Node10 -->
<g id="node10" class="node"><title>Node10</title>
<g id="a_node10"><a xlink:href="greedy__triangulation_8h.html" target="_top" xlink:title="Framework of greedy triangulation node. ">
<polygon fill="white" stroke="black" points="690,-89.5 690,-141.5 831,-141.5 831,-89.5 690,-89.5"/>
<text text-anchor="start" x="698" y="-129.5" font-family="Helvetica,sans-Serif" font-size="10.00">/home/jc/hull_abstraction</text>
<text text-anchor="start" x="698" y="-118.5" font-family="Helvetica,sans-Serif" font-size="10.00">/ros/src/hull_abstraction</text>
<text text-anchor="start" x="698" y="-107.5" font-family="Helvetica,sans-Serif" font-size="10.00">/src/greedy_triangulation</text>
<text text-anchor="middle" x="760.5" y="-96.5" font-family="Helvetica,sans-Serif" font-size="10.00">_node/greedy_triangulation.h</text>
</a>
</g>
</g>
<!-- Node1&#45;&gt;Node10 -->
<g id="edge20" class="edge"><title>Node1&#45;&gt;Node10</title>
<path fill="none" stroke="midnightblue" d="M802.938,-257.118C800.072,-234.226 795.221,-203.961 787.5,-178 783.844,-165.705 778.344,-152.622 773.261,-141.697"/>
<polygon fill="midnightblue" stroke="midnightblue" points="799.466,-257.557 804.119,-267.075 806.417,-256.733 799.466,-257.557"/>
</g>
<!-- Node14 -->
<g id="node14" class="node"><title>Node14</title>
<g id="a_node14"><a xlink:href="marching__cubes_8h.html" target="_top" xlink:title="Framework of marching cubes node. ">
<polygon fill="white" stroke="black" points="849.5,-89.5 849.5,-141.5 983.5,-141.5 983.5,-89.5 849.5,-89.5"/>
<text text-anchor="start" x="857.5" y="-129.5" font-family="Helvetica,sans-Serif" font-size="10.00">/home/jc/hull_abstraction</text>
<text text-anchor="start" x="857.5" y="-118.5" font-family="Helvetica,sans-Serif" font-size="10.00">/ros/src/hull_abstraction</text>
<text text-anchor="start" x="857.5" y="-107.5" font-family="Helvetica,sans-Serif" font-size="10.00">/src/marching_cubes_node</text>
<text text-anchor="middle" x="916.5" y="-96.5" font-family="Helvetica,sans-Serif" font-size="10.00">/marching_cubes.h</text>
</a>
</g>
</g>
<!-- Node1&#45;&gt;Node14 -->
<g id="edge22" class="edge"><title>Node1&#45;&gt;Node14</title>
<path fill="none" stroke="midnightblue" d="M823.214,-258.132C834.95,-234.933 851.527,-203.934 868.5,-178 876.659,-165.534 886.668,-152.426 895.432,-141.529"/>
<polygon fill="midnightblue" stroke="midnightblue" points="820,-256.734 818.65,-267.243 826.258,-259.869 820,-256.734"/>
</g>
<!-- Node17 -->
<g id="node17" class="node"><title>Node17</title>
<g id="a_node17"><a xlink:href="poisson__reconstruction_8h.html" target="_top" xlink:title="Framework of Poisson reconstruction node. ">
<polygon fill="white" stroke="black" points="1002,-89.5 1002,-141.5 1157,-141.5 1157,-89.5 1002,-89.5"/>
<text text-anchor="start" x="1010" y="-129.5" font-family="Helvetica,sans-Serif" font-size="10.00">/home/jc/hull_abstraction</text>
<text text-anchor="start" x="1010" y="-118.5" font-family="Helvetica,sans-Serif" font-size="10.00">/ros/src/hull_abstraction</text>
<text text-anchor="start" x="1010" y="-107.5" font-family="Helvetica,sans-Serif" font-size="10.00">/src/poisson_reconstruction</text>
<text text-anchor="middle" x="1079.5" y="-96.5" font-family="Helvetica,sans-Serif" font-size="10.00">_node/poisson_reconstruction.h</text>
</a>
</g>
</g>
<!-- Node1&#45;&gt;Node17 -->
<g id="edge26" class="edge"><title>Node1&#45;&gt;Node17</title>
<path fill="none" stroke="midnightblue" d="M840.084,-260.375C849.036,-251.208 858.449,-240.989 866.5,-231 884.213,-209.021 879.198,-195.305 901.5,-178 910.089,-171.335 957.798,-154.996 1001.66,-140.834"/>
<polygon fill="midnightblue" stroke="midnightblue" points="837.597,-257.912 833.038,-267.476 842.566,-262.842 837.597,-257.912"/>
</g>
<!-- Node20 -->
<g id="node20" class="node"><title>Node20</title>
<g id="a_node20"><a xlink:href="ros_2src_2hull__abstraction_2src_2hull__abstraction_2preprocessor_8cpp.html" target="_top" xlink:title="/home/jc/hull_abstraction\l/ros/src/hull_abstraction\l/src/hull_abstraction/preprocessor.cpp">
<polygon fill="white" stroke="black" points="910.5,-184 910.5,-225 1092.5,-225 1092.5,-184 910.5,-184"/>
<text text-anchor="start" x="918.5" y="-213" font-family="Helvetica,sans-Serif" font-size="10.00">/home/jc/hull_abstraction</text>
<text text-anchor="start" x="918.5" y="-202" font-family="Helvetica,sans-Serif" font-size="10.00">/ros/src/hull_abstraction</text>
<text text-anchor="middle" x="1001.5" y="-191" font-family="Helvetica,sans-Serif" font-size="10.00">/src/hull_abstraction/preprocessor.cpp</text>
</a>
</g>
</g>
<!-- Node1&#45;&gt;Node20 -->
<g id="edge21" class="edge"><title>Node1&#45;&gt;Node20</title>
<path fill="none" stroke="midnightblue" d="M872.013,-263.271C900.147,-250.719 932.277,-236.384 957.493,-225.134"/>
<polygon fill="midnightblue" stroke="midnightblue" points="870.347,-260.182 862.64,-267.453 873.199,-266.575 870.347,-260.182"/>
</g>
<!-- Node21 -->
<g id="node21" class="node"><title>Node21</title>
<g id="a_node21"><a xlink:href="moving__least__squares_8h.html" target="_top" xlink:title="Framework of moving least squares node. ">
<polygon fill="white" stroke="black" points="1166.5,-178.5 1166.5,-230.5 1318.5,-230.5 1318.5,-178.5 1166.5,-178.5"/>
<text text-anchor="start" x="1174.5" y="-218.5" font-family="Helvetica,sans-Serif" font-size="10.00">/home/jc/hull_abstraction</text>
<text text-anchor="start" x="1174.5" y="-207.5" font-family="Helvetica,sans-Serif" font-size="10.00">/ros/src/hull_abstraction</text>
<text text-anchor="start" x="1174.5" y="-196.5" font-family="Helvetica,sans-Serif" font-size="10.00">/src/moving_least_squares</text>
<text text-anchor="middle" x="1242.5" y="-185.5" font-family="Helvetica,sans-Serif" font-size="10.00">_node/moving_least_squares.h</text>
</a>
</g>
</g>
<!-- Node1&#45;&gt;Node21 -->
<g id="edge23" class="edge"><title>Node1&#45;&gt;Node21</title>
<path fill="none" stroke="midnightblue" d="M879.369,-277.96C958.886,-262.093 1085.61,-236.807 1166.38,-220.689"/>
<polygon fill="midnightblue" stroke="midnightblue" points="878.554,-274.553 869.433,-279.942 879.924,-281.418 878.554,-274.553"/>
</g>
<!-- Node5&#45;&gt;Node4 -->
<g id="edge6" class="edge"><title>Node5&#45;&gt;Node4</title>
<path fill="none" stroke="midnightblue" d="M642.932,-178.93C641.446,-178.601 639.968,-178.291 638.5,-178 418.648,-134.434 354.893,-187.826 135.5,-142 122.779,-139.343 109.246,-134.983 97.3874,-130.614"/>
<polygon fill="midnightblue" stroke="midnightblue" points="642.266,-182.37 652.81,-181.33 643.919,-175.567 642.266,-182.37"/>
</g>
<!-- Node6 -->
<g id="node6" class="node"><title>Node6</title>
<g id="a_node6"><a xlink:href="benchmark_2src_2hull__abstraction_2reconstructor_8cpp.html" target="_top" xlink:title="/home/jc/hull_abstraction\l/benchmark/src/hull_abstraction\l/reconstructor.cpp">
<polygon fill="white" stroke="black" points="145,-95 145,-136 300,-136 300,-95 145,-95"/>
<text text-anchor="start" x="153" y="-124" font-family="Helvetica,sans-Serif" font-size="10.00">/home/jc/hull_abstraction</text>
<text text-anchor="start" x="153" y="-113" font-family="Helvetica,sans-Serif" font-size="10.00">/benchmark/src/hull_abstraction</text>
<text text-anchor="middle" x="222.5" y="-102" font-family="Helvetica,sans-Serif" font-size="10.00">/reconstructor.cpp</text>
</a>
</g>
</g>
<!-- Node5&#45;&gt;Node6 -->
<g id="edge5" class="edge"><title>Node5&#45;&gt;Node6</title>
<path fill="none" stroke="midnightblue" d="M642.916,-179.005C641.435,-178.654 639.962,-178.318 638.5,-178 494.773,-146.705 453.748,-170.798 309.5,-142 301.319,-140.367 292.797,-138.317 284.425,-136.093"/>
<polygon fill="midnightblue" stroke="midnightblue" points="642.213,-182.438 652.768,-181.528 643.949,-175.657 642.213,-182.438"/>
</g>
<!-- Node7 -->
<g id="node7" class="node"><title>Node7</title>
<g id="a_node7"><a xlink:href="bspline__surface__fitting_8h.html" target="_top" xlink:title="Framework of b&#45;spline surface fitting node. ">
<polygon fill="white" stroke="black" points="318.5,-89.5 318.5,-141.5 470.5,-141.5 470.5,-89.5 318.5,-89.5"/>
<text text-anchor="start" x="326.5" y="-129.5" font-family="Helvetica,sans-Serif" font-size="10.00">/home/jc/hull_abstraction</text>
<text text-anchor="start" x="326.5" y="-118.5" font-family="Helvetica,sans-Serif" font-size="10.00">/ros/src/hull_abstraction</text>
<text text-anchor="start" x="326.5" y="-107.5" font-family="Helvetica,sans-Serif" font-size="10.00">/src/bspline_surface_fitting</text>
<text text-anchor="middle" x="394.5" y="-96.5" font-family="Helvetica,sans-Serif" font-size="10.00">_node/bspline_surface_fitting.h</text>
</a>
</g>
</g>
<!-- Node5&#45;&gt;Node7 -->
<g id="edge7" class="edge"><title>Node5&#45;&gt;Node7</title>
<path fill="none" stroke="midnightblue" d="M642.86,-179.233C641.396,-178.812 639.942,-178.401 638.5,-178 568.693,-158.588 549.575,-160.421 479.5,-142 476.669,-141.256 473.79,-140.482 470.886,-139.686"/>
<polygon fill="midnightblue" stroke="midnightblue" points="642.038,-182.64 652.621,-182.124 644.026,-175.928 642.038,-182.64"/>
</g>
<!-- Node5&#45;&gt;Node10 -->
<g id="edge10" class="edge"><title>Node5&#45;&gt;Node10</title>
<path fill="none" stroke="midnightblue" d="M733.164,-169.35C737.948,-160.1 743.038,-150.259 747.513,-141.607"/>
<polygon fill="midnightblue" stroke="midnightblue" points="730.001,-167.846 728.516,-178.336 736.219,-171.062 730.001,-167.846"/>
</g>
<!-- Node13 -->
<g id="node13" class="node"><title>Node13</title>
<g id="a_node13"><a xlink:href="ros_2src_2hull__abstraction_2src_2hull__abstraction_2reconstructor_8cpp.html" target="_top" xlink:title="/home/jc/hull_abstraction\l/ros/src/hull_abstraction\l/src/hull_abstraction/reconstructor.cpp">
<polygon fill="white" stroke="black" points="489,-95 489,-136 672,-136 672,-95 489,-95"/>
<text text-anchor="start" x="497" y="-124" font-family="Helvetica,sans-Serif" font-size="10.00">/home/jc/hull_abstraction</text>
<text text-anchor="start" x="497" y="-113" font-family="Helvetica,sans-Serif" font-size="10.00">/ros/src/hull_abstraction</text>
<text text-anchor="middle" x="580.5" y="-102" font-family="Helvetica,sans-Serif" font-size="10.00">/src/hull_abstraction/reconstructor.cpp</text>
</a>
</g>
</g>
<!-- Node5&#45;&gt;Node13 -->
<g id="edge13" class="edge"><title>Node5&#45;&gt;Node13</title>
<path fill="none" stroke="midnightblue" d="M667.926,-172.841C648.964,-160.621 627.697,-146.916 610.886,-136.082"/>
<polygon fill="midnightblue" stroke="midnightblue" points="666.151,-175.861 676.452,-178.336 669.943,-169.977 666.151,-175.861"/>
</g>
<!-- Node5&#45;&gt;Node14 -->
<g id="edge14" class="edge"><title>Node5&#45;&gt;Node14</title>
<path fill="none" stroke="midnightblue" d="M782.649,-174.436C807.288,-163.771 834.944,-151.8 858.693,-141.521"/>
<polygon fill="midnightblue" stroke="midnightblue" points="781.155,-171.268 773.368,-178.453 783.935,-177.692 781.155,-171.268"/>
</g>
<!-- Node5&#45;&gt;Node17 -->
<g id="edge17" class="edge"><title>Node5&#45;&gt;Node17</title>
<path fill="none" stroke="midnightblue" d="M788.054,-188.773C844.118,-177.06 923.529,-159.743 992.5,-142 995.549,-141.216 998.652,-140.398 1001.78,-139.558"/>
<polygon fill="midnightblue" stroke="midnightblue" points="787.292,-185.356 778.215,-190.821 788.719,-192.209 787.292,-185.356"/>
</g>
<!-- Node8 -->
<g id="node8" class="node"><title>Node8</title>
<g id="a_node8"><a xlink:href="bspline__surface__fitting_8cpp.html" target="_top" xlink:title="/home/jc/hull_abstraction\l/ros/src/hull_abstraction\l/src/bspline_surface_fitting\l_node/bspline_surface_fitting.cpp">
<polygon fill="white" stroke="black" points="159.5,-0.5 159.5,-52.5 321.5,-52.5 321.5,-0.5 159.5,-0.5"/>
<text text-anchor="start" x="167.5" y="-40.5" font-family="Helvetica,sans-Serif" font-size="10.00">/home/jc/hull_abstraction</text>
<text text-anchor="start" x="167.5" y="-29.5" font-family="Helvetica,sans-Serif" font-size="10.00">/ros/src/hull_abstraction</text>
<text text-anchor="start" x="167.5" y="-18.5" font-family="Helvetica,sans-Serif" font-size="10.00">/src/bspline_surface_fitting</text>
<text text-anchor="middle" x="240.5" y="-7.5" font-family="Helvetica,sans-Serif" font-size="10.00">_node/bspline_surface_fitting.cpp</text>
</a>
</g>
</g>
<!-- Node7&#45;&gt;Node8 -->
<g id="edge8" class="edge"><title>Node7&#45;&gt;Node8</title>
<path fill="none" stroke="midnightblue" d="M341.137,-84.3532C322.804,-73.9962 302.491,-62.5208 284.943,-52.6075"/>
<polygon fill="midnightblue" stroke="midnightblue" points="339.529,-87.4646 349.957,-89.336 342.972,-81.3699 339.529,-87.4646"/>
</g>
<!-- Node9 -->
<g id="node9" class="node"><title>Node9</title>
<g id="a_node9"><a xlink:href="bspline__surface__fitting__node_8cpp.html" target="_top" xlink:title="/home/jc/hull_abstraction\l/ros/src/hull_abstraction\l/src/bspline_surface_fitting\l_node.cpp">
<polygon fill="white" stroke="black" points="339.5,-0.5 339.5,-52.5 473.5,-52.5 473.5,-0.5 339.5,-0.5"/>
<text text-anchor="start" x="347.5" y="-40.5" font-family="Helvetica,sans-Serif" font-size="10.00">/home/jc/hull_abstraction</text>
<text text-anchor="start" x="347.5" y="-29.5" font-family="Helvetica,sans-Serif" font-size="10.00">/ros/src/hull_abstraction</text>
<text text-anchor="start" x="347.5" y="-18.5" font-family="Helvetica,sans-Serif" font-size="10.00">/src/bspline_surface_fitting</text>
<text text-anchor="middle" x="406.5" y="-7.5" font-family="Helvetica,sans-Serif" font-size="10.00">_node.cpp</text>
</a>
</g>
</g>
<!-- Node7&#45;&gt;Node9 -->
<g id="edge9" class="edge"><title>Node7&#45;&gt;Node9</title>
<path fill="none" stroke="midnightblue" d="M399.37,-79.1908C400.599,-70.2824 401.893,-60.8986 403.037,-52.6075"/>
<polygon fill="midnightblue" stroke="midnightblue" points="395.87,-78.9515 397.971,-89.336 402.805,-79.908 395.87,-78.9515"/>
</g>
<!-- Node11 -->
<g id="node11" class="node"><title>Node11</title>
<g id="a_node11"><a xlink:href="greedy__triangulation_8cpp.html" target="_top" xlink:title="/home/jc/hull_abstraction\l/ros/src/hull_abstraction\l/src/greedy_triangulation\l_node/greedy_triangulation.cpp">
<polygon fill="white" stroke="black" points="515.5,-0.5 515.5,-52.5 667.5,-52.5 667.5,-0.5 515.5,-0.5"/>
<text text-anchor="start" x="523.5" y="-40.5" font-family="Helvetica,sans-Serif" font-size="10.00">/home/jc/hull_abstraction</text>
<text text-anchor="start" x="523.5" y="-29.5" font-family="Helvetica,sans-Serif" font-size="10.00">/ros/src/hull_abstraction</text>
<text text-anchor="start" x="523.5" y="-18.5" font-family="Helvetica,sans-Serif" font-size="10.00">/src/greedy_triangulation</text>
<text text-anchor="middle" x="591.5" y="-7.5" font-family="Helvetica,sans-Serif" font-size="10.00">_node/greedy_triangulation.cpp</text>
</a>
</g>
</g>
<!-- Node10&#45;&gt;Node11 -->
<g id="edge11" class="edge"><title>Node10&#45;&gt;Node11</title>
<path fill="none" stroke="midnightblue" d="M702.487,-84.6354C682.226,-74.2049 659.704,-62.6109 640.272,-52.6075"/>
<polygon fill="midnightblue" stroke="midnightblue" points="701.125,-87.8708 711.618,-89.336 704.329,-81.647 701.125,-87.8708"/>
</g>
<!-- Node12 -->
<g id="node12" class="node"><title>Node12</title>
<g id="a_node12"><a xlink:href="greedy__triangulation__node_8cpp.html" target="_top" xlink:title="/home/jc/hull_abstraction\l/ros/src/hull_abstraction\l/src/greedy_triangulation\l_node.cpp">
<polygon fill="white" stroke="black" points="686,-0.5 686,-52.5 811,-52.5 811,-0.5 686,-0.5"/>
<text text-anchor="start" x="694" y="-40.5" font-family="Helvetica,sans-Serif" font-size="10.00">/home/jc/hull_abstraction</text>
<text text-anchor="start" x="694" y="-29.5" font-family="Helvetica,sans-Serif" font-size="10.00">/ros/src/hull_abstraction</text>
<text text-anchor="start" x="694" y="-18.5" font-family="Helvetica,sans-Serif" font-size="10.00">/src/greedy_triangulation</text>
<text text-anchor="middle" x="748.5" y="-7.5" font-family="Helvetica,sans-Serif" font-size="10.00">_node.cpp</text>
</a>
</g>
</g>
<!-- Node10&#45;&gt;Node12 -->
<g id="edge12" class="edge"><title>Node10&#45;&gt;Node12</title>
<path fill="none" stroke="midnightblue" d="M755.63,-79.1908C754.401,-70.2824 753.107,-60.8986 751.963,-52.6075"/>
<polygon fill="midnightblue" stroke="midnightblue" points="752.195,-79.908 757.029,-89.336 759.13,-78.9515 752.195,-79.908"/>
</g>
<!-- Node15 -->
<g id="node15" class="node"><title>Node15</title>
<g id="a_node15"><a xlink:href="marching__cubes_8cpp.html" target="_top" xlink:title="/home/jc/hull_abstraction\l/ros/src/hull_abstraction\l/src/marching_cubes_node\l/marching_cubes.cpp">
<polygon fill="white" stroke="black" points="829.5,-0.5 829.5,-52.5 963.5,-52.5 963.5,-0.5 829.5,-0.5"/>
<text text-anchor="start" x="837.5" y="-40.5" font-family="Helvetica,sans-Serif" font-size="10.00">/home/jc/hull_abstraction</text>
<text text-anchor="start" x="837.5" y="-29.5" font-family="Helvetica,sans-Serif" font-size="10.00">/ros/src/hull_abstraction</text>
<text text-anchor="start" x="837.5" y="-18.5" font-family="Helvetica,sans-Serif" font-size="10.00">/src/marching_cubes_node</text>
<text text-anchor="middle" x="896.5" y="-7.5" font-family="Helvetica,sans-Serif" font-size="10.00">/marching_cubes.cpp</text>
</a>
</g>
</g>
<!-- Node14&#45;&gt;Node15 -->
<g id="edge15" class="edge"><title>Node14&#45;&gt;Node15</title>
<path fill="none" stroke="midnightblue" d="M908.45,-79.4811C906.382,-70.4865 904.199,-60.9887 902.272,-52.6075"/>
<polygon fill="midnightblue" stroke="midnightblue" points="905.064,-80.3744 910.715,-89.336 911.886,-78.806 905.064,-80.3744"/>
</g>
<!-- Node16 -->
<g id="node16" class="node"><title>Node16</title>
<g id="a_node16"><a xlink:href="marching__cubes__node_8cpp.html" target="_top" xlink:title="/home/jc/hull_abstraction\l/ros/src/hull_abstraction\l/src/marching_cubes_node.cpp">
<polygon fill="white" stroke="black" points="981.5,-6 981.5,-47 1133.5,-47 1133.5,-6 981.5,-6"/>
<text text-anchor="start" x="989.5" y="-35" font-family="Helvetica,sans-Serif" font-size="10.00">/home/jc/hull_abstraction</text>
<text text-anchor="start" x="989.5" y="-24" font-family="Helvetica,sans-Serif" font-size="10.00">/ros/src/hull_abstraction</text>
<text text-anchor="middle" x="1057.5" y="-13" font-family="Helvetica,sans-Serif" font-size="10.00">/src/marching_cubes_node.cpp</text>
</a>
</g>
</g>
<!-- Node14&#45;&gt;Node16 -->
<g id="edge16" class="edge"><title>Node14&#45;&gt;Node16</title>
<path fill="none" stroke="midnightblue" d="M965.921,-84.0065C985.793,-71.7447 1008.13,-57.9644 1025.76,-47.0821"/>
<polygon fill="midnightblue" stroke="midnightblue" points="963.956,-81.1062 957.283,-89.336 967.631,-87.0635 963.956,-81.1062"/>
</g>
<!-- Node18 -->
<g id="node18" class="node"><title>Node18</title>
<g id="a_node18"><a xlink:href="poisson__reconstruction_8cpp.html" target="_top" xlink:title="/home/jc/hull_abstraction\l/ros/src/hull_abstraction\l/src/poisson_reconstruction\l_node/poisson_reconstruction.cpp">
<polygon fill="white" stroke="black" points="1152,-0.5 1152,-52.5 1317,-52.5 1317,-0.5 1152,-0.5"/>
<text text-anchor="start" x="1160" y="-40.5" font-family="Helvetica,sans-Serif" font-size="10.00">/home/jc/hull_abstraction</text>
<text text-anchor="start" x="1160" y="-29.5" font-family="Helvetica,sans-Serif" font-size="10.00">/ros/src/hull_abstraction</text>
<text text-anchor="start" x="1160" y="-18.5" font-family="Helvetica,sans-Serif" font-size="10.00">/src/poisson_reconstruction</text>
<text text-anchor="middle" x="1234.5" y="-7.5" font-family="Helvetica,sans-Serif" font-size="10.00">_node/poisson_reconstruction.cpp</text>
</a>
</g>
</g>
<!-- Node17&#45;&gt;Node18 -->
<g id="edge18" class="edge"><title>Node17&#45;&gt;Node18</title>
<path fill="none" stroke="midnightblue" d="M1133.21,-84.3532C1151.66,-73.9962 1172.11,-62.5208 1189.77,-52.6075"/>
<polygon fill="midnightblue" stroke="midnightblue" points="1131.34,-81.3893 1124.33,-89.336 1134.77,-87.4934 1131.34,-81.3893"/>
</g>
<!-- Node19 -->
<g id="node19" class="node"><title>Node19</title>
<g id="a_node19"><a xlink:href="poisson__reconstruction__node_8cpp.html" target="_top" xlink:title="/home/jc/hull_abstraction\l/ros/src/hull_abstraction\l/src/poisson_reconstruction\l_node.cpp">
<polygon fill="white" stroke="black" points="1335,-0.5 1335,-52.5 1472,-52.5 1472,-0.5 1335,-0.5"/>
<text text-anchor="start" x="1343" y="-40.5" font-family="Helvetica,sans-Serif" font-size="10.00">/home/jc/hull_abstraction</text>
<text text-anchor="start" x="1343" y="-29.5" font-family="Helvetica,sans-Serif" font-size="10.00">/ros/src/hull_abstraction</text>
<text text-anchor="start" x="1343" y="-18.5" font-family="Helvetica,sans-Serif" font-size="10.00">/src/poisson_reconstruction</text>
<text text-anchor="middle" x="1403.5" y="-7.5" font-family="Helvetica,sans-Serif" font-size="10.00">_node.cpp</text>
</a>
</g>
</g>
<!-- Node17&#45;&gt;Node19 -->
<g id="edge19" class="edge"><title>Node17&#45;&gt;Node19</title>
<path fill="none" stroke="midnightblue" d="M1167.19,-88.9041C1238.81,-70.8504 1259.28,-71.6439 1326.5,-53 1329.21,-52.2473 1331.97,-51.4565 1334.76,-50.6382"/>
<polygon fill="midnightblue" stroke="midnightblue" points="1166.04,-85.5841 1157.22,-91.4532 1167.78,-92.3657 1166.04,-85.5841"/>
</g>
<!-- Node22 -->
<g id="node22" class="node"><title>Node22</title>
<g id="a_node22"><a xlink:href="moving__least__squares_8cpp.html" target="_top" xlink:title="/home/jc/hull_abstraction\l/ros/src/hull_abstraction\l/src/moving_least_squares\l_node/moving_least_squares.cpp">
<polygon fill="white" stroke="black" points="1327.5,-89.5 1327.5,-141.5 1489.5,-141.5 1489.5,-89.5 1327.5,-89.5"/>
<text text-anchor="start" x="1335.5" y="-129.5" font-family="Helvetica,sans-Serif" font-size="10.00">/home/jc/hull_abstraction</text>
<text text-anchor="start" x="1335.5" y="-118.5" font-family="Helvetica,sans-Serif" font-size="10.00">/ros/src/hull_abstraction</text>
<text text-anchor="start" x="1335.5" y="-107.5" font-family="Helvetica,sans-Serif" font-size="10.00">/src/moving_least_squares</text>
<text text-anchor="middle" x="1408.5" y="-96.5" font-family="Helvetica,sans-Serif" font-size="10.00">_node/moving_least_squares.cpp</text>
</a>
</g>
</g>
<!-- Node21&#45;&gt;Node22 -->
<g id="edge24" class="edge"><title>Node21&#45;&gt;Node22</title>
<path fill="none" stroke="midnightblue" d="M1299.48,-173.635C1319.38,-163.205 1341.51,-151.611 1360.59,-141.607"/>
<polygon fill="midnightblue" stroke="midnightblue" points="1297.75,-170.594 1290.51,-178.336 1301,-176.794 1297.75,-170.594"/>
</g>
<!-- Node23 -->
<g id="node23" class="node"><title>Node23</title>
<g id="a_node23"><a xlink:href="moving__least__squares__node_8cpp.html" target="_top" xlink:title="/home/jc/hull_abstraction\l/ros/src/hull_abstraction\l/src/moving_least_squares\l_node.cpp">
<polygon fill="white" stroke="black" points="1175.5,-89.5 1175.5,-141.5 1309.5,-141.5 1309.5,-89.5 1175.5,-89.5"/>
<text text-anchor="start" x="1183.5" y="-129.5" font-family="Helvetica,sans-Serif" font-size="10.00">/home/jc/hull_abstraction</text>
<text text-anchor="start" x="1183.5" y="-118.5" font-family="Helvetica,sans-Serif" font-size="10.00">/ros/src/hull_abstraction</text>
<text text-anchor="start" x="1183.5" y="-107.5" font-family="Helvetica,sans-Serif" font-size="10.00">/src/moving_least_squares</text>
<text text-anchor="middle" x="1242.5" y="-96.5" font-family="Helvetica,sans-Serif" font-size="10.00">_node.cpp</text>
</a>
</g>
</g>
<!-- Node21&#45;&gt;Node23 -->
<g id="edge25" class="edge"><title>Node21&#45;&gt;Node23</title>
<path fill="none" stroke="midnightblue" d="M1242.5,-168.191C1242.5,-159.282 1242.5,-149.899 1242.5,-141.607"/>
<polygon fill="midnightblue" stroke="midnightblue" points="1239,-168.336 1242.5,-178.336 1246,-168.336 1239,-168.336"/>
</g>
</g>
</svg>
