<?xml version="1.0" encoding="UTF-8" standalone="no"?>
<!DOCTYPE svg PUBLIC "-//W3C//DTD SVG 1.1//EN"
 "http://www.w3.org/Graphics/SVG/1.1/DTD/svg11.dtd">
<!-- Generated by graphviz version 2.38.0 (20140413.2041)
 -->
<!-- Title: /home/jc/THESIS/hull_abstraction/ros/src/hull_abstraction/include/pcl_utilization/pcl_utilization.h Pages: 1 -->
<svg width="1784pt" height="450pt"
 viewBox="0.00 0.00 1783.50 450.00" xmlns="http://www.w3.org/2000/svg" xmlns:xlink="http://www.w3.org/1999/xlink">
<g id="graph0" class="graph" transform="scale(1 1) rotate(0) translate(4 446)">
<title>/home/jc/THESIS/hull_abstraction/ros/src/hull_abstraction/include/pcl_utilization/pcl_utilization.h</title>
<polygon fill="white" stroke="none" points="-4,4 -4,-446 1779.5,-446 1779.5,4 -4,4"/>
<!-- Node1 -->
<g id="node1" class="node"><title>Node1</title>
<polygon fill="#bfbfbf" stroke="black" points="583.5,-389.5 583.5,-441.5 732.5,-441.5 732.5,-389.5 583.5,-389.5"/>
<text text-anchor="start" x="591.5" y="-429.5" font-family="Helvetica,sans-Serif" font-size="10.00">/home/jc/THESIS/hull</text>
<text text-anchor="start" x="591.5" y="-418.5" font-family="Helvetica,sans-Serif" font-size="10.00">_abstraction/ros/src</text>
<text text-anchor="start" x="591.5" y="-407.5" font-family="Helvetica,sans-Serif" font-size="10.00">/hull_abstraction/include</text>
<text text-anchor="middle" x="658" y="-396.5" font-family="Helvetica,sans-Serif" font-size="10.00">/pcl_utilization/pcl_utilization.h</text>
</g>
<!-- Node2 -->
<g id="node2" class="node"><title>Node2</title>
<g id="a_node2"><a xlink:href="benchmark_2include_2hull__abstraction_2preprocessor_8h.html" target="_top" xlink:title="This file contains the declaration of the Preprocessor class. ">
<polygon fill="white" stroke="black" points="86,-300.5 86,-352.5 208,-352.5 208,-300.5 86,-300.5"/>
<text text-anchor="start" x="94" y="-340.5" font-family="Helvetica,sans-Serif" font-size="10.00">/home/jc/THESIS/hull</text>
<text text-anchor="start" x="94" y="-329.5" font-family="Helvetica,sans-Serif" font-size="10.00">_abstraction/benchmark</text>
<text text-anchor="start" x="94" y="-318.5" font-family="Helvetica,sans-Serif" font-size="10.00">/include/hull_abstraction</text>
<text text-anchor="middle" x="147" y="-307.5" font-family="Helvetica,sans-Serif" font-size="10.00">/preprocessor.h</text>
</a>
</g>
</g>
<!-- Node1&#45;&gt;Node2 -->
<g id="edge1" class="edge"><title>Node1&#45;&gt;Node2</title>
<path fill="none" stroke="midnightblue" d="M573.251,-408.022C483.712,-399.941 338.889,-383.34 217,-353 214.113,-352.281 211.18,-351.486 208.232,-350.634"/>
<polygon fill="midnightblue" stroke="midnightblue" points="573.082,-411.52 583.352,-408.918 573.701,-404.548 573.082,-411.52"/>
</g>
<!-- Node3 -->
<g id="node3" class="node"><title>Node3</title>
<g id="a_node3"><a xlink:href="benchmark_2src_2pcl__utilization_2pcl__utilization_8cpp.html" target="_top" xlink:title="/home/jc/THESIS/hull\l_abstraction/benchmark\l/src/pcl_utilization/pcl\l_utilization.cpp">
<polygon fill="white" stroke="black" points="226.5,-300.5 226.5,-352.5 347.5,-352.5 347.5,-300.5 226.5,-300.5"/>
<text text-anchor="start" x="234.5" y="-340.5" font-family="Helvetica,sans-Serif" font-size="10.00">/home/jc/THESIS/hull</text>
<text text-anchor="start" x="234.5" y="-329.5" font-family="Helvetica,sans-Serif" font-size="10.00">_abstraction/benchmark</text>
<text text-anchor="start" x="234.5" y="-318.5" font-family="Helvetica,sans-Serif" font-size="10.00">/src/pcl_utilization/pcl</text>
<text text-anchor="middle" x="287" y="-307.5" font-family="Helvetica,sans-Serif" font-size="10.00">_utilization.cpp</text>
</a>
</g>
</g>
<!-- Node1&#45;&gt;Node3 -->
<g id="edge2" class="edge"><title>Node1&#45;&gt;Node3</title>
<path fill="none" stroke="midnightblue" d="M573.086,-399.726C513.555,-388.671 432.365,-372.194 362,-353 357.356,-351.733 352.58,-350.336 347.795,-348.868"/>
<polygon fill="midnightblue" stroke="midnightblue" points="572.725,-403.218 583.194,-401.589 573.995,-396.334 572.725,-403.218"/>
</g>
<!-- Node4 -->
<g id="node4" class="node"><title>Node4</title>
<g id="a_node4"><a xlink:href="ros_2src_2hull__abstraction_2include_2hull__abstraction_2preprocessor_8h.html" target="_top" xlink:title="This file contains the declaration of the Preprocessor class. ">
<polygon fill="white" stroke="black" points="805.5,-300.5 805.5,-352.5 960.5,-352.5 960.5,-300.5 805.5,-300.5"/>
<text text-anchor="start" x="813.5" y="-340.5" font-family="Helvetica,sans-Serif" font-size="10.00">/home/jc/THESIS/hull</text>
<text text-anchor="start" x="813.5" y="-329.5" font-family="Helvetica,sans-Serif" font-size="10.00">_abstraction/ros/src</text>
<text text-anchor="start" x="813.5" y="-318.5" font-family="Helvetica,sans-Serif" font-size="10.00">/hull_abstraction/include</text>
<text text-anchor="middle" x="883" y="-307.5" font-family="Helvetica,sans-Serif" font-size="10.00">/hull_abstraction/preprocessor.h</text>
</a>
</g>
</g>
<!-- Node1&#45;&gt;Node4 -->
<g id="edge3" class="edge"><title>Node1&#45;&gt;Node4</title>
<path fill="none" stroke="midnightblue" d="M732.439,-385.717C760.202,-374.982 791.472,-362.891 818.29,-352.521"/>
<polygon fill="midnightblue" stroke="midnightblue" points="730.842,-382.582 722.777,-389.453 733.367,-389.111 730.842,-382.582"/>
</g>
<!-- Node10 -->
<g id="node10" class="node"><title>Node10</title>
<g id="a_node10"><a xlink:href="bspline__surface__fitting_8h.html" target="_top" xlink:title="Framework of b&#45;spline surface fitting node. ">
<polygon fill="white" stroke="black" points="158,-100.5 158,-163.5 310,-163.5 310,-100.5 158,-100.5"/>
<text text-anchor="start" x="166" y="-151.5" font-family="Helvetica,sans-Serif" font-size="10.00">/home/jc/THESIS/hull</text>
<text text-anchor="start" x="166" y="-140.5" font-family="Helvetica,sans-Serif" font-size="10.00">_abstraction/ros/src</text>
<text text-anchor="start" x="166" y="-129.5" font-family="Helvetica,sans-Serif" font-size="10.00">/hull_abstraction/src</text>
<text text-anchor="start" x="166" y="-118.5" font-family="Helvetica,sans-Serif" font-size="10.00">/bspline_surface_fitting</text>
<text text-anchor="middle" x="234" y="-107.5" font-family="Helvetica,sans-Serif" font-size="10.00">_node/bspline_surface_fitting.h</text>
</a>
</g>
</g>
<!-- Node1&#45;&gt;Node10 -->
<g id="edge30" class="edge"><title>Node1&#45;&gt;Node10</title>
<path fill="none" stroke="midnightblue" d="M572.949,-397.451C536.514,-387.831 494.499,-373.519 460,-353 373.641,-301.638 294.968,-210.873 257.333,-163.582"/>
<polygon fill="midnightblue" stroke="midnightblue" points="572.512,-400.951 583.067,-400.041 574.248,-394.17 572.512,-400.951"/>
</g>
<!-- Node13 -->
<g id="node13" class="node"><title>Node13</title>
<g id="a_node13"><a xlink:href="greedy__triangulation_8h.html" target="_top" xlink:title="Framework of greedy triangulation node. ">
<polygon fill="white" stroke="black" points="328.5,-100.5 328.5,-163.5 461.5,-163.5 461.5,-100.5 328.5,-100.5"/>
<text text-anchor="start" x="336.5" y="-151.5" font-family="Helvetica,sans-Serif" font-size="10.00">/home/jc/THESIS/hull</text>
<text text-anchor="start" x="336.5" y="-140.5" font-family="Helvetica,sans-Serif" font-size="10.00">_abstraction/ros/src</text>
<text text-anchor="start" x="336.5" y="-129.5" font-family="Helvetica,sans-Serif" font-size="10.00">/hull_abstraction/src</text>
<text text-anchor="start" x="336.5" y="-118.5" font-family="Helvetica,sans-Serif" font-size="10.00">/greedy_triangulation_node</text>
<text text-anchor="middle" x="395" y="-107.5" font-family="Helvetica,sans-Serif" font-size="10.00">/greedy_triangulation.h</text>
</a>
</g>
</g>
<!-- Node1&#45;&gt;Node13 -->
<g id="edge34" class="edge"><title>Node1&#45;&gt;Node13</title>
<path fill="none" stroke="midnightblue" d="M586.69,-385.105C535.09,-360.243 467.706,-319.727 428,-264 406.769,-234.202 399.159,-192.075 396.453,-163.71"/>
<polygon fill="midnightblue" stroke="midnightblue" points="585.268,-388.304 595.804,-389.414 588.259,-381.976 585.268,-388.304"/>
</g>
<!-- Node17 -->
<g id="node17" class="node"><title>Node17</title>
<g id="a_node17"><a xlink:href="marching__cubes_8h.html" target="_top" xlink:title="Framework of marching cubes node. ">
<polygon fill="white" stroke="black" points="1178,-100.5 1178,-163.5 1338,-163.5 1338,-100.5 1178,-100.5"/>
<text text-anchor="start" x="1186" y="-151.5" font-family="Helvetica,sans-Serif" font-size="10.00">/home/jc/THESIS/hull</text>
<text text-anchor="start" x="1186" y="-140.5" font-family="Helvetica,sans-Serif" font-size="10.00">_abstraction/ros/src</text>
<text text-anchor="start" x="1186" y="-129.5" font-family="Helvetica,sans-Serif" font-size="10.00">/hull_abstraction/src</text>
<text text-anchor="start" x="1186" y="-118.5" font-family="Helvetica,sans-Serif" font-size="10.00">/marching_cubes_node/marching</text>
<text text-anchor="middle" x="1258" y="-107.5" font-family="Helvetica,sans-Serif" font-size="10.00">_cubes.h</text>
</a>
</g>
</g>
<!-- Node1&#45;&gt;Node17 -->
<g id="edge35" class="edge"><title>Node1&#45;&gt;Node17</title>
<path fill="none" stroke="midnightblue" d="M742.965,-406.616C895.67,-390.46 1206.48,-347.845 1269,-264 1290.42,-235.275 1281.43,-192.512 1271.27,-163.734"/>
<polygon fill="midnightblue" stroke="midnightblue" points="742.277,-403.169 732.694,-407.688 743.003,-410.131 742.277,-403.169"/>
</g>
<!-- Node27 -->
<g id="node27" class="node"><title>Node27</title>
<g id="a_node27"><a xlink:href="display__mesh_8h.html" target="_top" xlink:title="Framework of node for displaying polygon meshes. ">
<polygon fill="white" stroke="black" points="1401.5,-300.5 1401.5,-352.5 1578.5,-352.5 1578.5,-300.5 1401.5,-300.5"/>
<text text-anchor="start" x="1409.5" y="-340.5" font-family="Helvetica,sans-Serif" font-size="10.00">/home/jc/THESIS/hull</text>
<text text-anchor="start" x="1409.5" y="-329.5" font-family="Helvetica,sans-Serif" font-size="10.00">_abstraction/ros/src</text>
<text text-anchor="start" x="1409.5" y="-318.5" font-family="Helvetica,sans-Serif" font-size="10.00">/hull_abstraction/src</text>
<text text-anchor="middle" x="1490" y="-307.5" font-family="Helvetica,sans-Serif" font-size="10.00">/display_mesh_node/display_mesh.h</text>
</a>
</g>
</g>
<!-- Node1&#45;&gt;Node27 -->
<g id="edge31" class="edge"><title>Node1&#45;&gt;Node27</title>
<path fill="none" stroke="midnightblue" d="M742.942,-407.99C868.449,-398.047 1110.74,-377.616 1316,-353 1343.74,-349.674 1373.88,-345.467 1401.15,-341.435"/>
<polygon fill="midnightblue" stroke="midnightblue" points="742.331,-404.527 732.638,-408.803 742.882,-411.506 742.331,-404.527"/>
</g>
<!-- Node30 -->
<g id="node30" class="node"><title>Node30</title>
<g id="a_node30"><a xlink:href="ros_2src_2hull__abstraction_2src_2pcl__utilization_2pcl__utilization_8cpp.html" target="_top" xlink:title="/home/jc/THESIS/hull\l_abstraction/ros/src\l/hull_abstraction/src\l/pcl_utilization/pcl_utilization.cpp">
<polygon fill="white" stroke="black" points="1597,-300.5 1597,-352.5 1757,-352.5 1757,-300.5 1597,-300.5"/>
<text text-anchor="start" x="1605" y="-340.5" font-family="Helvetica,sans-Serif" font-size="10.00">/home/jc/THESIS/hull</text>
<text text-anchor="start" x="1605" y="-329.5" font-family="Helvetica,sans-Serif" font-size="10.00">_abstraction/ros/src</text>
<text text-anchor="start" x="1605" y="-318.5" font-family="Helvetica,sans-Serif" font-size="10.00">/hull_abstraction/src</text>
<text text-anchor="middle" x="1677" y="-307.5" font-family="Helvetica,sans-Serif" font-size="10.00">/pcl_utilization/pcl_utilization.cpp</text>
</a>
</g>
</g>
<!-- Node1&#45;&gt;Node30 -->
<g id="edge36" class="edge"><title>Node1&#45;&gt;Node30</title>
<path fill="none" stroke="midnightblue" d="M742.826,-414.902C907.196,-414.36 1280.02,-406.672 1588,-353 1590.85,-352.503 1593.74,-351.95 1596.65,-351.352"/>
<polygon fill="midnightblue" stroke="midnightblue" points="742.77,-411.402 732.778,-414.927 742.787,-418.402 742.77,-411.402"/>
</g>
<!-- Node5 -->
<g id="node5" class="node"><title>Node5</title>
<g id="a_node5"><a xlink:href="benchmark_2include_2hull__abstraction_2reconstructor_8h.html" target="_top" xlink:title="This file contains the declaration of the Reconstructor class. ">
<polygon fill="white" stroke="black" points="930,-206 930,-258 1052,-258 1052,-206 930,-206"/>
<text text-anchor="start" x="938" y="-246" font-family="Helvetica,sans-Serif" font-size="10.00">/home/jc/THESIS/hull</text>
<text text-anchor="start" x="938" y="-235" font-family="Helvetica,sans-Serif" font-size="10.00">_abstraction/benchmark</text>
<text text-anchor="start" x="938" y="-224" font-family="Helvetica,sans-Serif" font-size="10.00">/include/hull_abstraction</text>
<text text-anchor="middle" x="991" y="-213" font-family="Helvetica,sans-Serif" font-size="10.00">/reconstructor.h</text>
</a>
</g>
</g>
<!-- Node4&#45;&gt;Node5 -->
<g id="edge4" class="edge"><title>Node4&#45;&gt;Node5</title>
<path fill="none" stroke="midnightblue" d="M920.036,-293.779C933.666,-282.106 948.901,-269.057 961.75,-258.052"/>
<polygon fill="midnightblue" stroke="midnightblue" points="917.545,-291.305 912.226,-300.468 922.098,-296.621 917.545,-291.305"/>
</g>
<!-- Node6 -->
<g id="node6" class="node"><title>Node6</title>
<g id="a_node6"><a xlink:href="benchmark_2src_2hull__abstraction_2preprocessor_8cpp.html" target="_top" xlink:title="/home/jc/THESIS/hull\l_abstraction/benchmark\l/src/hull_abstraction/preprocessor.cpp">
<polygon fill="white" stroke="black" points="480,-211.5 480,-252.5 662,-252.5 662,-211.5 480,-211.5"/>
<text text-anchor="start" x="488" y="-240.5" font-family="Helvetica,sans-Serif" font-size="10.00">/home/jc/THESIS/hull</text>
<text text-anchor="start" x="488" y="-229.5" font-family="Helvetica,sans-Serif" font-size="10.00">_abstraction/benchmark</text>
<text text-anchor="middle" x="571" y="-218.5" font-family="Helvetica,sans-Serif" font-size="10.00">/src/hull_abstraction/preprocessor.cpp</text>
</a>
</g>
</g>
<!-- Node4&#45;&gt;Node6 -->
<g id="edge5" class="edge"><title>Node4&#45;&gt;Node6</title>
<path fill="none" stroke="midnightblue" d="M795.298,-300.447C757.073,-289.427 711.771,-276.232 671,-264 658.813,-260.344 645.814,-256.369 633.359,-252.524"/>
<polygon fill="midnightblue" stroke="midnightblue" points="794.79,-303.943 805.368,-303.347 796.727,-297.216 794.79,-303.943"/>
</g>
<!-- Node7 -->
<g id="node7" class="node"><title>Node7</title>
<g id="a_node7"><a xlink:href="main_8cpp.html" target="_top" xlink:title="/home/jc/THESIS/hull\l_abstraction/benchmark\l/src/main.cpp">
<polygon fill="white" stroke="black" points="1038.5,-111.5 1038.5,-152.5 1159.5,-152.5 1159.5,-111.5 1038.5,-111.5"/>
<text text-anchor="start" x="1046.5" y="-140.5" font-family="Helvetica,sans-Serif" font-size="10.00">/home/jc/THESIS/hull</text>
<text text-anchor="start" x="1046.5" y="-129.5" font-family="Helvetica,sans-Serif" font-size="10.00">_abstraction/benchmark</text>
<text text-anchor="middle" x="1099" y="-118.5" font-family="Helvetica,sans-Serif" font-size="10.00">/src/main.cpp</text>
</a>
</g>
</g>
<!-- Node4&#45;&gt;Node7 -->
<g id="edge6" class="edge"><title>Node4&#45;&gt;Node7</title>
<path fill="none" stroke="midnightblue" d="M885.017,-290.262C888.44,-262.339 897.462,-224.133 921,-200 956.622,-163.477 982.446,-182.479 1030,-164 1038.94,-160.528 1048.39,-156.515 1057.33,-152.552"/>
<polygon fill="midnightblue" stroke="midnightblue" points="881.515,-290.101 883.96,-300.41 888.477,-290.826 881.515,-290.101"/>
</g>
<!-- Node8 -->
<g id="node8" class="node"><title>Node8</title>
<g id="a_node8"><a xlink:href="ros_2src_2hull__abstraction_2include_2hull__abstraction_2reconstructor_8h.html" target="_top" xlink:title="This file contains the declaration of the Reconstructor class. ">
<polygon fill="white" stroke="black" points="680,-206 680,-258 836,-258 836,-206 680,-206"/>
<text text-anchor="start" x="688" y="-246" font-family="Helvetica,sans-Serif" font-size="10.00">/home/jc/THESIS/hull</text>
<text text-anchor="start" x="688" y="-235" font-family="Helvetica,sans-Serif" font-size="10.00">_abstraction/ros/src</text>
<text text-anchor="start" x="688" y="-224" font-family="Helvetica,sans-Serif" font-size="10.00">/hull_abstraction/include</text>
<text text-anchor="middle" x="758" y="-213" font-family="Helvetica,sans-Serif" font-size="10.00">/hull_abstraction/reconstructor.h</text>
</a>
</g>
</g>
<!-- Node4&#45;&gt;Node8 -->
<g id="edge7" class="edge"><title>Node4&#45;&gt;Node8</title>
<path fill="none" stroke="midnightblue" d="M841.017,-294.433C825.019,-282.594 807.004,-269.263 791.854,-258.052"/>
<polygon fill="midnightblue" stroke="midnightblue" points="839.053,-297.333 849.173,-300.468 843.217,-291.706 839.053,-297.333"/>
</g>
<!-- Node4&#45;&gt;Node13 -->
<g id="edge23" class="edge"><title>Node4&#45;&gt;Node13</title>
<path fill="none" stroke="midnightblue" d="M794.806,-321.215C689.844,-314.61 522.312,-298.852 471,-264 461.62,-257.629 430.374,-200.364 410.988,-163.686"/>
<polygon fill="midnightblue" stroke="midnightblue" points="794.882,-324.726 805.077,-321.845 795.31,-317.739 794.882,-324.726"/>
</g>
<!-- Node4&#45;&gt;Node17 -->
<g id="edge25" class="edge"><title>Node4&#45;&gt;Node17</title>
<path fill="none" stroke="midnightblue" d="M970.811,-322.474C1065.84,-317.22 1208.71,-302.902 1245,-264 1269.79,-237.429 1268.8,-193.33 1264.49,-163.726"/>
<polygon fill="midnightblue" stroke="midnightblue" points="970.422,-318.989 960.621,-323.013 970.792,-325.98 970.422,-318.989"/>
</g>
<!-- Node20 -->
<g id="node20" class="node"><title>Node20</title>
<g id="a_node20"><a xlink:href="poisson__reconstruction_8h.html" target="_top" xlink:title="Framework of Poisson reconstruction node. ">
<polygon fill="white" stroke="black" points="865.5,-100.5 865.5,-163.5 1020.5,-163.5 1020.5,-100.5 865.5,-100.5"/>
<text text-anchor="start" x="873.5" y="-151.5" font-family="Helvetica,sans-Serif" font-size="10.00">/home/jc/THESIS/hull</text>
<text text-anchor="start" x="873.5" y="-140.5" font-family="Helvetica,sans-Serif" font-size="10.00">_abstraction/ros/src</text>
<text text-anchor="start" x="873.5" y="-129.5" font-family="Helvetica,sans-Serif" font-size="10.00">/hull_abstraction/src</text>
<text text-anchor="start" x="873.5" y="-118.5" font-family="Helvetica,sans-Serif" font-size="10.00">/poisson_reconstruction</text>
<text text-anchor="middle" x="943" y="-107.5" font-family="Helvetica,sans-Serif" font-size="10.00">_node/poisson_reconstruction.h</text>
</a>
</g>
</g>
<!-- Node4&#45;&gt;Node20 -->
<g id="edge29" class="edge"><title>Node4&#45;&gt;Node20</title>
<path fill="none" stroke="midnightblue" d="M878.521,-289.949C876.657,-264.14 877.027,-228.838 888,-200 893.031,-186.779 901.783,-174.233 910.844,-163.65"/>
<polygon fill="midnightblue" stroke="midnightblue" points="875.045,-290.375 879.397,-300.035 882.018,-289.769 875.045,-290.375"/>
</g>
<!-- Node23 -->
<g id="node23" class="node"><title>Node23</title>
<g id="a_node23"><a xlink:href="ros_2src_2hull__abstraction_2src_2hull__abstraction_2preprocessor_8cpp.html" target="_top" xlink:title="/home/jc/THESIS/hull\l_abstraction/ros/src\l/hull_abstraction/src\l/hull_abstraction/preprocessor.cpp">
<polygon fill="white" stroke="black" points="1070,-206 1070,-258 1236,-258 1236,-206 1070,-206"/>
<text text-anchor="start" x="1078" y="-246" font-family="Helvetica,sans-Serif" font-size="10.00">/home/jc/THESIS/hull</text>
<text text-anchor="start" x="1078" y="-235" font-family="Helvetica,sans-Serif" font-size="10.00">_abstraction/ros/src</text>
<text text-anchor="start" x="1078" y="-224" font-family="Helvetica,sans-Serif" font-size="10.00">/hull_abstraction/src</text>
<text text-anchor="middle" x="1153" y="-213" font-family="Helvetica,sans-Serif" font-size="10.00">/hull_abstraction/preprocessor.cpp</text>
</a>
</g>
</g>
<!-- Node4&#45;&gt;Node23 -->
<g id="edge24" class="edge"><title>Node4&#45;&gt;Node23</title>
<path fill="none" stroke="midnightblue" d="M965.684,-297.173C1002.13,-284.686 1044.6,-270.137 1079.88,-258.052"/>
<polygon fill="midnightblue" stroke="midnightblue" points="964.392,-293.916 956.066,-300.468 966.66,-300.538 964.392,-293.916"/>
</g>
<!-- Node24 -->
<g id="node24" class="node"><title>Node24</title>
<g id="a_node24"><a xlink:href="moving__least__squares_8h.html" target="_top" xlink:title="Framework of moving least squares node. ">
<polygon fill="white" stroke="black" points="1330.5,-200.5 1330.5,-263.5 1473.5,-263.5 1473.5,-200.5 1330.5,-200.5"/>
<text text-anchor="start" x="1338.5" y="-251.5" font-family="Helvetica,sans-Serif" font-size="10.00">/home/jc/THESIS/hull</text>
<text text-anchor="start" x="1338.5" y="-240.5" font-family="Helvetica,sans-Serif" font-size="10.00">_abstraction/ros/src</text>
<text text-anchor="start" x="1338.5" y="-229.5" font-family="Helvetica,sans-Serif" font-size="10.00">/hull_abstraction/src</text>
<text text-anchor="start" x="1338.5" y="-218.5" font-family="Helvetica,sans-Serif" font-size="10.00">/moving_least_squares_node</text>
<text text-anchor="middle" x="1402" y="-207.5" font-family="Helvetica,sans-Serif" font-size="10.00">/moving_least_squares.h</text>
</a>
</g>
</g>
<!-- Node4&#45;&gt;Node24 -->
<g id="edge26" class="edge"><title>Node4&#45;&gt;Node24</title>
<path fill="none" stroke="midnightblue" d="M970.642,-314.173C1050.95,-303.245 1172.97,-285.259 1278,-264 1295.07,-260.544 1313.34,-256.293 1330.45,-252.059"/>
<polygon fill="midnightblue" stroke="midnightblue" points="970.01,-310.727 960.57,-315.536 970.949,-317.663 970.01,-310.727"/>
</g>
<!-- Node8&#45;&gt;Node7 -->
<g id="edge9" class="edge"><title>Node8&#45;&gt;Node7</title>
<path fill="none" stroke="midnightblue" d="M846.338,-209.645C922.3,-191.218 1021.05,-167.085 1030,-164 1039.44,-160.748 1049.35,-156.695 1058.63,-152.603"/>
<polygon fill="midnightblue" stroke="midnightblue" points="845.148,-206.332 836.254,-212.09 846.798,-213.135 845.148,-206.332"/>
</g>
<!-- Node9 -->
<g id="node9" class="node"><title>Node9</title>
<g id="a_node9"><a xlink:href="benchmark_2src_2hull__abstraction_2reconstructor_8cpp.html" target="_top" xlink:title="/home/jc/THESIS/hull\l_abstraction/benchmark\l/src/hull_abstraction/reconstructor.cpp">
<polygon fill="white" stroke="black" points="479.5,-111.5 479.5,-152.5 662.5,-152.5 662.5,-111.5 479.5,-111.5"/>
<text text-anchor="start" x="487.5" y="-140.5" font-family="Helvetica,sans-Serif" font-size="10.00">/home/jc/THESIS/hull</text>
<text text-anchor="start" x="487.5" y="-129.5" font-family="Helvetica,sans-Serif" font-size="10.00">_abstraction/benchmark</text>
<text text-anchor="middle" x="571" y="-118.5" font-family="Helvetica,sans-Serif" font-size="10.00">/src/hull_abstraction/reconstructor.cpp</text>
</a>
</g>
</g>
<!-- Node8&#45;&gt;Node9 -->
<g id="edge8" class="edge"><title>Node8&#45;&gt;Node9</title>
<path fill="none" stroke="midnightblue" d="M700.732,-200.988C670.711,-185.255 634.794,-166.432 608.372,-152.585"/>
<polygon fill="midnightblue" stroke="midnightblue" points="699.361,-204.221 709.843,-205.763 702.61,-198.021 699.361,-204.221"/>
</g>
<!-- Node8&#45;&gt;Node10 -->
<g id="edge10" class="edge"><title>Node8&#45;&gt;Node10</title>
<path fill="none" stroke="midnightblue" d="M683.297,-203.102C679.165,-201.96 675.047,-200.914 671,-200 517.603,-165.358 472.268,-199.211 319,-164 316.091,-163.332 313.146,-162.592 310.186,-161.795"/>
<polygon fill="midnightblue" stroke="midnightblue" points="682.361,-206.474 692.942,-205.923 684.327,-199.756 682.361,-206.474"/>
</g>
<!-- Node8&#45;&gt;Node13 -->
<g id="edge13" class="edge"><title>Node8&#45;&gt;Node13</title>
<path fill="none" stroke="midnightblue" d="M681.199,-202.87C677.767,-201.855 674.356,-200.892 671,-200 583.29,-176.69 557.105,-189.48 470,-164 467.295,-163.209 464.556,-162.352 461.803,-161.445"/>
<polygon fill="midnightblue" stroke="midnightblue" points="680.314,-206.26 690.901,-205.856 682.373,-199.569 680.314,-206.26"/>
</g>
<!-- Node16 -->
<g id="node16" class="node"><title>Node16</title>
<g id="a_node16"><a xlink:href="ros_2src_2hull__abstraction_2src_2hull__abstraction_2reconstructor_8cpp.html" target="_top" xlink:title="/home/jc/THESIS/hull\l_abstraction/ros/src\l/hull_abstraction/src\l/hull_abstraction/reconstructor.cpp">
<polygon fill="white" stroke="black" points="680.5,-106 680.5,-158 847.5,-158 847.5,-106 680.5,-106"/>
<text text-anchor="start" x="688.5" y="-146" font-family="Helvetica,sans-Serif" font-size="10.00">/home/jc/THESIS/hull</text>
<text text-anchor="start" x="688.5" y="-135" font-family="Helvetica,sans-Serif" font-size="10.00">_abstraction/ros/src</text>
<text text-anchor="start" x="688.5" y="-124" font-family="Helvetica,sans-Serif" font-size="10.00">/hull_abstraction/src</text>
<text text-anchor="middle" x="764" y="-113" font-family="Helvetica,sans-Serif" font-size="10.00">/hull_abstraction/reconstructor.cpp</text>
</a>
</g>
</g>
<!-- Node8&#45;&gt;Node16 -->
<g id="edge16" class="edge"><title>Node8&#45;&gt;Node16</title>
<path fill="none" stroke="midnightblue" d="M760.161,-195.703C760.922,-183.277 761.761,-169.572 762.46,-158.152"/>
<polygon fill="midnightblue" stroke="midnightblue" points="756.663,-195.567 759.545,-205.763 763.65,-195.995 756.663,-195.567"/>
</g>
<!-- Node8&#45;&gt;Node17 -->
<g id="edge17" class="edge"><title>Node8&#45;&gt;Node17</title>
<path fill="none" stroke="midnightblue" d="M846.111,-213.512C870.344,-208.902 896.655,-204.08 921,-200 1030.85,-181.591 1060.81,-190.438 1169,-164 1171.86,-163.301 1174.76,-162.547 1177.68,-161.749"/>
<polygon fill="midnightblue" stroke="midnightblue" points="845.389,-210.087 836.224,-215.403 846.704,-216.962 845.389,-210.087"/>
</g>
<!-- Node8&#45;&gt;Node20 -->
<g id="edge20" class="edge"><title>Node8&#45;&gt;Node20</title>
<path fill="none" stroke="midnightblue" d="M814.693,-200.968C837.089,-189.104 862.797,-175.486 885.291,-163.57"/>
<polygon fill="midnightblue" stroke="midnightblue" points="812.84,-197.989 805.642,-205.763 816.117,-204.174 812.84,-197.989"/>
</g>
<!-- Node11 -->
<g id="node11" class="node"><title>Node11</title>
<g id="a_node11"><a xlink:href="bspline__surface__fitting_8cpp.html" target="_top" xlink:title="/home/jc/THESIS/hull\l_abstraction/ros/src\l/hull_abstraction/src\l/bspline_surface_fitting\l_node/bspline_surface_fitting.cpp">
<polygon fill="white" stroke="black" points="0,-0.5 0,-63.5 162,-63.5 162,-0.5 0,-0.5"/>
<text text-anchor="start" x="8" y="-51.5" font-family="Helvetica,sans-Serif" font-size="10.00">/home/jc/THESIS/hull</text>
<text text-anchor="start" x="8" y="-40.5" font-family="Helvetica,sans-Serif" font-size="10.00">_abstraction/ros/src</text>
<text text-anchor="start" x="8" y="-29.5" font-family="Helvetica,sans-Serif" font-size="10.00">/hull_abstraction/src</text>
<text text-anchor="start" x="8" y="-18.5" font-family="Helvetica,sans-Serif" font-size="10.00">/bspline_surface_fitting</text>
<text text-anchor="middle" x="81" y="-7.5" font-family="Helvetica,sans-Serif" font-size="10.00">_node/bspline_surface_fitting.cpp</text>
</a>
</g>
</g>
<!-- Node10&#45;&gt;Node11 -->
<g id="edge11" class="edge"><title>Node10&#45;&gt;Node11</title>
<path fill="none" stroke="midnightblue" d="M177.3,-94.6822C161.359,-84.4719 144.187,-73.4727 128.82,-63.6299"/>
<polygon fill="midnightblue" stroke="midnightblue" points="175.701,-97.8146 186.01,-100.261 179.477,-91.9201 175.701,-97.8146"/>
</g>
<!-- Node12 -->
<g id="node12" class="node"><title>Node12</title>
<g id="a_node12"><a xlink:href="bspline__surface__fitting__node_8cpp.html" target="_top" xlink:title="/home/jc/THESIS/hull\l_abstraction/ros/src\l/hull_abstraction/src\l/bspline_surface_fitting\l_node.cpp">
<polygon fill="white" stroke="black" points="180.5,-0.5 180.5,-63.5 297.5,-63.5 297.5,-0.5 180.5,-0.5"/>
<text text-anchor="start" x="188.5" y="-51.5" font-family="Helvetica,sans-Serif" font-size="10.00">/home/jc/THESIS/hull</text>
<text text-anchor="start" x="188.5" y="-40.5" font-family="Helvetica,sans-Serif" font-size="10.00">_abstraction/ros/src</text>
<text text-anchor="start" x="188.5" y="-29.5" font-family="Helvetica,sans-Serif" font-size="10.00">/hull_abstraction/src</text>
<text text-anchor="start" x="188.5" y="-18.5" font-family="Helvetica,sans-Serif" font-size="10.00">/bspline_surface_fitting</text>
<text text-anchor="middle" x="239" y="-7.5" font-family="Helvetica,sans-Serif" font-size="10.00">_node.cpp</text>
</a>
</g>
</g>
<!-- Node10&#45;&gt;Node12 -->
<g id="edge12" class="edge"><title>Node10&#45;&gt;Node12</title>
<path fill="none" stroke="midnightblue" d="M236.087,-90.0987C236.539,-81.2383 237.009,-72.0145 237.437,-63.6299"/>
<polygon fill="midnightblue" stroke="midnightblue" points="232.582,-90.0957 235.568,-100.261 239.573,-90.4524 232.582,-90.0957"/>
</g>
<!-- Node14 -->
<g id="node14" class="node"><title>Node14</title>
<g id="a_node14"><a xlink:href="greedy__triangulation_8cpp.html" target="_top" xlink:title="/home/jc/THESIS/hull\l_abstraction/ros/src\l/hull_abstraction/src\l/greedy_triangulation_node\l/greedy_triangulation.cpp">
<polygon fill="white" stroke="black" points="319.5,-0.5 319.5,-63.5 452.5,-63.5 452.5,-0.5 319.5,-0.5"/>
<text text-anchor="start" x="327.5" y="-51.5" font-family="Helvetica,sans-Serif" font-size="10.00">/home/jc/THESIS/hull</text>
<text text-anchor="start" x="327.5" y="-40.5" font-family="Helvetica,sans-Serif" font-size="10.00">_abstraction/ros/src</text>
<text text-anchor="start" x="327.5" y="-29.5" font-family="Helvetica,sans-Serif" font-size="10.00">/hull_abstraction/src</text>
<text text-anchor="start" x="327.5" y="-18.5" font-family="Helvetica,sans-Serif" font-size="10.00">/greedy_triangulation_node</text>
<text text-anchor="middle" x="386" y="-7.5" font-family="Helvetica,sans-Serif" font-size="10.00">/greedy_triangulation.cpp</text>
</a>
</g>
</g>
<!-- Node13&#45;&gt;Node14 -->
<g id="edge14" class="edge"><title>Node13&#45;&gt;Node14</title>
<path fill="none" stroke="midnightblue" d="M391.244,-90.0987C390.43,-81.2383 389.583,-72.0145 388.813,-63.6299"/>
<polygon fill="midnightblue" stroke="midnightblue" points="387.777,-90.6231 392.177,-100.261 394.748,-89.9829 387.777,-90.6231"/>
</g>
<!-- Node15 -->
<g id="node15" class="node"><title>Node15</title>
<g id="a_node15"><a xlink:href="greedy__triangulation__node_8cpp.html" target="_top" xlink:title="/home/jc/THESIS/hull\l_abstraction/ros/src\l/hull_abstraction/src\l/greedy_triangulation_node.cpp">
<polygon fill="white" stroke="black" points="471,-6 471,-58 623,-58 623,-6 471,-6"/>
<text text-anchor="start" x="479" y="-46" font-family="Helvetica,sans-Serif" font-size="10.00">/home/jc/THESIS/hull</text>
<text text-anchor="start" x="479" y="-35" font-family="Helvetica,sans-Serif" font-size="10.00">_abstraction/ros/src</text>
<text text-anchor="start" x="479" y="-24" font-family="Helvetica,sans-Serif" font-size="10.00">/hull_abstraction/src</text>
<text text-anchor="middle" x="547" y="-13" font-family="Helvetica,sans-Serif" font-size="10.00">/greedy_triangulation_node.cpp</text>
</a>
</g>
</g>
<!-- Node13&#45;&gt;Node15 -->
<g id="edge15" class="edge"><title>Node13&#45;&gt;Node15</title>
<path fill="none" stroke="midnightblue" d="M451.232,-94.7449C470.163,-82.5396 490.852,-69.2004 508.141,-58.0536"/>
<polygon fill="midnightblue" stroke="midnightblue" points="449.185,-91.9007 442.677,-100.261 452.978,-97.7839 449.185,-91.9007"/>
</g>
<!-- Node18 -->
<g id="node18" class="node"><title>Node18</title>
<g id="a_node18"><a xlink:href="marching__cubes_8cpp.html" target="_top" xlink:title="/home/jc/THESIS/hull\l_abstraction/ros/src\l/hull_abstraction/src\l/marching_cubes_node/marching\l_cubes.cpp">
<polygon fill="white" stroke="black" points="1138,-0.5 1138,-63.5 1298,-63.5 1298,-0.5 1138,-0.5"/>
<text text-anchor="start" x="1146" y="-51.5" font-family="Helvetica,sans-Serif" font-size="10.00">/home/jc/THESIS/hull</text>
<text text-anchor="start" x="1146" y="-40.5" font-family="Helvetica,sans-Serif" font-size="10.00">_abstraction/ros/src</text>
<text text-anchor="start" x="1146" y="-29.5" font-family="Helvetica,sans-Serif" font-size="10.00">/hull_abstraction/src</text>
<text text-anchor="start" x="1146" y="-18.5" font-family="Helvetica,sans-Serif" font-size="10.00">/marching_cubes_node/marching</text>
<text text-anchor="middle" x="1218" y="-7.5" font-family="Helvetica,sans-Serif" font-size="10.00">_cubes.cpp</text>
</a>
</g>
</g>
<!-- Node17&#45;&gt;Node18 -->
<g id="edge18" class="edge"><title>Node17&#45;&gt;Node18</title>
<path fill="none" stroke="midnightblue" d="M1241.66,-90.9643C1237.93,-81.8407 1234.04,-72.2879 1230.5,-63.6299"/>
<polygon fill="midnightblue" stroke="midnightblue" points="1238.43,-92.3252 1245.45,-100.261 1244.91,-89.6799 1238.43,-92.3252"/>
</g>
<!-- Node19 -->
<g id="node19" class="node"><title>Node19</title>
<g id="a_node19"><a xlink:href="marching__cubes__node_8cpp.html" target="_top" xlink:title="/home/jc/THESIS/hull\l_abstraction/ros/src\l/hull_abstraction/src\l/marching_cubes_node.cpp">
<polygon fill="white" stroke="black" points="1316,-6 1316,-58 1452,-58 1452,-6 1316,-6"/>
<text text-anchor="start" x="1324" y="-46" font-family="Helvetica,sans-Serif" font-size="10.00">/home/jc/THESIS/hull</text>
<text text-anchor="start" x="1324" y="-35" font-family="Helvetica,sans-Serif" font-size="10.00">_abstraction/ros/src</text>
<text text-anchor="start" x="1324" y="-24" font-family="Helvetica,sans-Serif" font-size="10.00">/hull_abstraction/src</text>
<text text-anchor="middle" x="1384" y="-13" font-family="Helvetica,sans-Serif" font-size="10.00">/marching_cubes_node.cpp</text>
</a>
</g>
</g>
<!-- Node17&#45;&gt;Node19 -->
<g id="edge19" class="edge"><title>Node17&#45;&gt;Node19</title>
<path fill="none" stroke="midnightblue" d="M1305.46,-94.0841C1320.92,-82.0596 1337.71,-68.9996 1351.79,-58.0536"/>
<polygon fill="midnightblue" stroke="midnightblue" points="1303.27,-91.3589 1297.52,-100.261 1307.56,-96.8844 1303.27,-91.3589"/>
</g>
<!-- Node21 -->
<g id="node21" class="node"><title>Node21</title>
<g id="a_node21"><a xlink:href="poisson__reconstruction_8cpp.html" target="_top" xlink:title="/home/jc/THESIS/hull\l_abstraction/ros/src\l/hull_abstraction/src\l/poisson_reconstruction\l_node/poisson_reconstruction.cpp">
<polygon fill="white" stroke="black" points="777.5,-0.5 777.5,-63.5 942.5,-63.5 942.5,-0.5 777.5,-0.5"/>
<text text-anchor="start" x="785.5" y="-51.5" font-family="Helvetica,sans-Serif" font-size="10.00">/home/jc/THESIS/hull</text>
<text text-anchor="start" x="785.5" y="-40.5" font-family="Helvetica,sans-Serif" font-size="10.00">_abstraction/ros/src</text>
<text text-anchor="start" x="785.5" y="-29.5" font-family="Helvetica,sans-Serif" font-size="10.00">/hull_abstraction/src</text>
<text text-anchor="start" x="785.5" y="-18.5" font-family="Helvetica,sans-Serif" font-size="10.00">/poisson_reconstruction</text>
<text text-anchor="middle" x="860" y="-7.5" font-family="Helvetica,sans-Serif" font-size="10.00">_node/poisson_reconstruction.cpp</text>
</a>
</g>
</g>
<!-- Node20&#45;&gt;Node21 -->
<g id="edge21" class="edge"><title>Node20&#45;&gt;Node21</title>
<path fill="none" stroke="midnightblue" d="M910.309,-92.4011C902.219,-82.8488 893.66,-72.7436 885.942,-63.6299"/>
<polygon fill="midnightblue" stroke="midnightblue" points="907.832,-94.8922 916.966,-100.261 913.174,-90.3681 907.832,-94.8922"/>
</g>
<!-- Node22 -->
<g id="node22" class="node"><title>Node22</title>
<g id="a_node22"><a xlink:href="poisson__reconstruction__node_8cpp.html" target="_top" xlink:title="/home/jc/THESIS/hull\l_abstraction/ros/src\l/hull_abstraction/src\l/poisson_reconstruction\l_node.cpp">
<polygon fill="white" stroke="black" points="961,-0.5 961,-63.5 1081,-63.5 1081,-0.5 961,-0.5"/>
<text text-anchor="start" x="969" y="-51.5" font-family="Helvetica,sans-Serif" font-size="10.00">/home/jc/THESIS/hull</text>
<text text-anchor="start" x="969" y="-40.5" font-family="Helvetica,sans-Serif" font-size="10.00">_abstraction/ros/src</text>
<text text-anchor="start" x="969" y="-29.5" font-family="Helvetica,sans-Serif" font-size="10.00">/hull_abstraction/src</text>
<text text-anchor="start" x="969" y="-18.5" font-family="Helvetica,sans-Serif" font-size="10.00">/poisson_reconstruction</text>
<text text-anchor="middle" x="1021" y="-7.5" font-family="Helvetica,sans-Serif" font-size="10.00">_node.cpp</text>
</a>
</g>
</g>
<!-- Node20&#45;&gt;Node22 -->
<g id="edge22" class="edge"><title>Node20&#45;&gt;Node22</title>
<path fill="none" stroke="midnightblue" d="M973.722,-92.4011C981.324,-82.8488 989.367,-72.7436 996.621,-63.6299"/>
<polygon fill="midnightblue" stroke="midnightblue" points="970.955,-90.2572 967.466,-100.261 976.432,-94.6164 970.955,-90.2572"/>
</g>
<!-- Node25 -->
<g id="node25" class="node"><title>Node25</title>
<g id="a_node25"><a xlink:href="moving__least__squares_8cpp.html" target="_top" xlink:title="/home/jc/THESIS/hull\l_abstraction/ros/src\l/hull_abstraction/src\l/moving_least_squares_node\l/moving_least_squares.cpp">
<polygon fill="white" stroke="black" points="1356.5,-100.5 1356.5,-163.5 1499.5,-163.5 1499.5,-100.5 1356.5,-100.5"/>
<text text-anchor="start" x="1364.5" y="-151.5" font-family="Helvetica,sans-Serif" font-size="10.00">/home/jc/THESIS/hull</text>
<text text-anchor="start" x="1364.5" y="-140.5" font-family="Helvetica,sans-Serif" font-size="10.00">_abstraction/ros/src</text>
<text text-anchor="start" x="1364.5" y="-129.5" font-family="Helvetica,sans-Serif" font-size="10.00">/hull_abstraction/src</text>
<text text-anchor="start" x="1364.5" y="-118.5" font-family="Helvetica,sans-Serif" font-size="10.00">/moving_least_squares_node</text>
<text text-anchor="middle" x="1428" y="-107.5" font-family="Helvetica,sans-Serif" font-size="10.00">/moving_least_squares.cpp</text>
</a>
</g>
</g>
<!-- Node24&#45;&gt;Node25 -->
<g id="edge27" class="edge"><title>Node24&#45;&gt;Node25</title>
<path fill="none" stroke="midnightblue" d="M1412.77,-190.387C1415.15,-181.439 1417.63,-172.106 1419.87,-163.63"/>
<polygon fill="midnightblue" stroke="midnightblue" points="1409.34,-189.698 1410.16,-200.261 1416.1,-191.493 1409.34,-189.698"/>
</g>
<!-- Node26 -->
<g id="node26" class="node"><title>Node26</title>
<g id="a_node26"><a xlink:href="moving__least__squares__node_8cpp.html" target="_top" xlink:title="/home/jc/THESIS/hull\l_abstraction/ros/src\l/hull_abstraction/src\l/moving_least_squares_node.cpp">
<polygon fill="white" stroke="black" points="1518,-106 1518,-158 1680,-158 1680,-106 1518,-106"/>
<text text-anchor="start" x="1526" y="-146" font-family="Helvetica,sans-Serif" font-size="10.00">/home/jc/THESIS/hull</text>
<text text-anchor="start" x="1526" y="-135" font-family="Helvetica,sans-Serif" font-size="10.00">_abstraction/ros/src</text>
<text text-anchor="start" x="1526" y="-124" font-family="Helvetica,sans-Serif" font-size="10.00">/hull_abstraction/src</text>
<text text-anchor="middle" x="1599" y="-113" font-family="Helvetica,sans-Serif" font-size="10.00">/moving_least_squares_node.cpp</text>
</a>
</g>
</g>
<!-- Node24&#45;&gt;Node26 -->
<g id="edge28" class="edge"><title>Node24&#45;&gt;Node26</title>
<path fill="none" stroke="midnightblue" d="M1472.63,-195.863C1497.72,-183.383 1525.44,-169.596 1548.5,-158.121"/>
<polygon fill="midnightblue" stroke="midnightblue" points="1470.92,-192.808 1463.52,-200.395 1474.03,-199.075 1470.92,-192.808"/>
</g>
<!-- Node28 -->
<g id="node28" class="node"><title>Node28</title>
<g id="a_node28"><a xlink:href="display__mesh_8cpp.html" target="_top" xlink:title="/home/jc/THESIS/hull\l_abstraction/ros/src\l/hull_abstraction/src\l/display_mesh_node/display\l_mesh.cpp">
<polygon fill="white" stroke="black" points="1492,-200.5 1492,-263.5 1632,-263.5 1632,-200.5 1492,-200.5"/>
<text text-anchor="start" x="1500" y="-251.5" font-family="Helvetica,sans-Serif" font-size="10.00">/home/jc/THESIS/hull</text>
<text text-anchor="start" x="1500" y="-240.5" font-family="Helvetica,sans-Serif" font-size="10.00">_abstraction/ros/src</text>
<text text-anchor="start" x="1500" y="-229.5" font-family="Helvetica,sans-Serif" font-size="10.00">/hull_abstraction/src</text>
<text text-anchor="start" x="1500" y="-218.5" font-family="Helvetica,sans-Serif" font-size="10.00">/display_mesh_node/display</text>
<text text-anchor="middle" x="1562" y="-207.5" font-family="Helvetica,sans-Serif" font-size="10.00">_mesh.cpp</text>
</a>
</g>
</g>
<!-- Node27&#45;&gt;Node28 -->
<g id="edge32" class="edge"><title>Node27&#45;&gt;Node28</title>
<path fill="none" stroke="midnightblue" d="M1515.9,-292.231C1523.19,-282.859 1531.09,-272.714 1538.25,-263.512"/>
<polygon fill="midnightblue" stroke="midnightblue" points="1513.05,-290.183 1509.67,-300.224 1518.58,-294.483 1513.05,-290.183"/>
</g>
<!-- Node29 -->
<g id="node29" class="node"><title>Node29</title>
<g id="a_node29"><a xlink:href="display__mesh__node_8cpp.html" target="_top" xlink:title="/home/jc/THESIS/hull\l_abstraction/ros/src\l/hull_abstraction/src\l/display_mesh_node.cpp">
<polygon fill="white" stroke="black" points="1650.5,-206 1650.5,-258 1775.5,-258 1775.5,-206 1650.5,-206"/>
<text text-anchor="start" x="1658.5" y="-246" font-family="Helvetica,sans-Serif" font-size="10.00">/home/jc/THESIS/hull</text>
<text text-anchor="start" x="1658.5" y="-235" font-family="Helvetica,sans-Serif" font-size="10.00">_abstraction/ros/src</text>
<text text-anchor="start" x="1658.5" y="-224" font-family="Helvetica,sans-Serif" font-size="10.00">/hull_abstraction/src</text>
<text text-anchor="middle" x="1713" y="-213" font-family="Helvetica,sans-Serif" font-size="10.00">/display_mesh_node.cpp</text>
</a>
</g>
</g>
<!-- Node27&#45;&gt;Node29 -->
<g id="edge33" class="edge"><title>Node27&#45;&gt;Node29</title>
<path fill="none" stroke="midnightblue" d="M1561.65,-296.654C1586.79,-286.446 1615.19,-274.812 1641,-264 1645.52,-262.107 1650.19,-260.134 1654.88,-258.14"/>
<polygon fill="midnightblue" stroke="midnightblue" points="1560.14,-293.49 1552.19,-300.492 1562.78,-299.977 1560.14,-293.49"/>
</g>
</g>
</svg>
