<?xml version="1.0" encoding="UTF-8" standalone="no"?>
<!DOCTYPE svg PUBLIC "-//W3C//DTD SVG 1.1//EN"
 "http://www.w3.org/Graphics/SVG/1.1/DTD/svg11.dtd">
<!-- Generated by graphviz version 2.38.0 (20140413.2041)
 -->
<!-- Title: /home/jc/hull_abstraction/ros/src/hull_abstraction/include/hull_abstraction/preprocessor.h Pages: 1 -->
<svg width="1090pt" height="128pt"
 viewBox="0.00 0.00 1090.00 128.00" xmlns="http://www.w3.org/2000/svg" xmlns:xlink="http://www.w3.org/1999/xlink">
<g id="graph0" class="graph" transform="scale(1 1) rotate(0) translate(4 124)">
<title>/home/jc/hull_abstraction/ros/src/hull_abstraction/include/hull_abstraction/preprocessor.h</title>
<polygon fill="white" stroke="none" points="-4,4 -4,-124 1086,-124 1086,4 -4,4"/>
<!-- Node1 -->
<g id="node1" class="node"><title>Node1</title>
<polygon fill="#bfbfbf" stroke="black" points="481.5,-67.5 481.5,-119.5 606.5,-119.5 606.5,-67.5 481.5,-67.5"/>
<text text-anchor="start" x="489.5" y="-107.5" font-family="Helvetica,sans-Serif" font-size="10.00">/home/jc/hull_abstraction</text>
<text text-anchor="start" x="489.5" y="-96.5" font-family="Helvetica,sans-Serif" font-size="10.00">/ros/src/hull_abstraction</text>
<text text-anchor="start" x="489.5" y="-85.5" font-family="Helvetica,sans-Serif" font-size="10.00">/include/hull_abstraction</text>
<text text-anchor="middle" x="544" y="-74.5" font-family="Helvetica,sans-Serif" font-size="10.00">/preprocessor.h</text>
</g>
<!-- Node2 -->
<g id="node2" class="node"><title>Node2</title>
<polygon fill="white" stroke="#bfbfbf" points="0,-0.5 0,-30.5 92,-30.5 92,-0.5 0,-0.5"/>
<text text-anchor="start" x="8" y="-18.5" font-family="Helvetica,sans-Serif" font-size="10.00">pcl_utilization/pcl</text>
<text text-anchor="middle" x="46" y="-7.5" font-family="Helvetica,sans-Serif" font-size="10.00">_utilization.h</text>
</g>
<!-- Node1&#45;&gt;Node2 -->
<g id="edge1" class="edge"><title>Node1&#45;&gt;Node2</title>
<path fill="none" stroke="midnightblue" d="M481.244,-86.1847C397.057,-77.1817 242.818,-58.8258 102.218,-31.1002"/>
<polygon fill="midnightblue" stroke="midnightblue" points="102.611,-27.6097 92.1198,-29.0878 101.243,-34.4747 102.611,-27.6097"/>
</g>
<!-- Node3 -->
<g id="node3" class="node"><title>Node3</title>
<polygon fill="white" stroke="#bfbfbf" points="110.5,-6 110.5,-25 201.5,-25 201.5,-6 110.5,-6"/>
<text text-anchor="middle" x="156" y="-13" font-family="Helvetica,sans-Serif" font-size="10.00">pcl/point_types.h</text>
</g>
<!-- Node1&#45;&gt;Node3 -->
<g id="edge2" class="edge"><title>Node1&#45;&gt;Node3</title>
<path fill="none" stroke="midnightblue" d="M481.422,-82.3865C414.281,-71.1994 304.658,-51.9632 211,-31 206.308,-29.9499 201.412,-28.7747 196.558,-27.56"/>
<polygon fill="midnightblue" stroke="midnightblue" points="197.291,-24.1347 186.735,-25.0387 195.551,-30.915 197.291,-24.1347"/>
</g>
<!-- Node4 -->
<g id="node4" class="node"><title>Node4</title>
<polygon fill="white" stroke="#bfbfbf" points="220,-6 220,-25 344,-25 344,-6 220,-6"/>
<text text-anchor="middle" x="282" y="-13" font-family="Helvetica,sans-Serif" font-size="10.00">pcl/features/normal_3d.h</text>
</g>
<!-- Node1&#45;&gt;Node4 -->
<g id="edge3" class="edge"><title>Node1&#45;&gt;Node4</title>
<path fill="none" stroke="midnightblue" d="M481.244,-74.2961C431.491,-59.8637 363.515,-40.1456 321.211,-27.8742"/>
<polygon fill="midnightblue" stroke="midnightblue" points="322.134,-24.4976 311.554,-25.073 320.183,-31.2204 322.134,-24.4976"/>
</g>
<!-- Node5 -->
<g id="node5" class="node"><title>Node5</title>
<polygon fill="white" stroke="#bfbfbf" points="362.5,-0.5 362.5,-30.5 475.5,-30.5 475.5,-0.5 362.5,-0.5"/>
<text text-anchor="start" x="370.5" y="-18.5" font-family="Helvetica,sans-Serif" font-size="10.00">pcl/filters/approximate</text>
<text text-anchor="middle" x="419" y="-7.5" font-family="Helvetica,sans-Serif" font-size="10.00">_voxel_grid.h</text>
</g>
<!-- Node1&#45;&gt;Node5 -->
<g id="edge4" class="edge"><title>Node1&#45;&gt;Node5</title>
<path fill="none" stroke="midnightblue" d="M502.724,-67.4041C485.96,-57.2118 466.885,-45.614 451.18,-36.0656"/>
<polygon fill="midnightblue" stroke="midnightblue" points="452.729,-32.9111 442.366,-30.7066 449.092,-38.8924 452.729,-32.9111"/>
</g>
<!-- Node6 -->
<g id="node6" class="node"><title>Node6</title>
<polygon fill="white" stroke="#bfbfbf" points="493.5,-0.5 493.5,-30.5 594.5,-30.5 594.5,-0.5 493.5,-0.5"/>
<text text-anchor="start" x="501.5" y="-18.5" font-family="Helvetica,sans-Serif" font-size="10.00">pcl/filters/statistical</text>
<text text-anchor="middle" x="544" y="-7.5" font-family="Helvetica,sans-Serif" font-size="10.00">_outlier_removal.h</text>
</g>
<!-- Node1&#45;&gt;Node6 -->
<g id="edge5" class="edge"><title>Node1&#45;&gt;Node6</title>
<path fill="none" stroke="midnightblue" d="M544,-67.1931C544,-58.7864 544,-49.4433 544,-41.0914"/>
<polygon fill="midnightblue" stroke="midnightblue" points="547.5,-40.8452 544,-30.8453 540.5,-40.8453 547.5,-40.8452"/>
</g>
<!-- Node7 -->
<g id="node7" class="node"><title>Node7</title>
<polygon fill="white" stroke="#bfbfbf" points="612.5,-6 612.5,-25 733.5,-25 733.5,-6 612.5,-6"/>
<text text-anchor="middle" x="673" y="-13" font-family="Helvetica,sans-Serif" font-size="10.00">pcl/filters/passthrough.h</text>
</g>
<!-- Node1&#45;&gt;Node7 -->
<g id="edge6" class="edge"><title>Node1&#45;&gt;Node7</title>
<path fill="none" stroke="midnightblue" d="M586.597,-67.4041C607.526,-55.0736 631.947,-40.6861 649.477,-30.3588"/>
<polygon fill="midnightblue" stroke="midnightblue" points="651.601,-33.1696 658.44,-25.0779 648.048,-27.1384 651.601,-33.1696"/>
</g>
<!-- Node8 -->
<g id="node8" class="node"><title>Node8</title>
<polygon fill="white" stroke="#bfbfbf" points="752,-0.5 752,-30.5 858,-30.5 858,-0.5 752,-0.5"/>
<text text-anchor="start" x="760" y="-18.5" font-family="Helvetica,sans-Serif" font-size="10.00">pcl/filters/conditional</text>
<text text-anchor="middle" x="805" y="-7.5" font-family="Helvetica,sans-Serif" font-size="10.00">_removal.h</text>
</g>
<!-- Node1&#45;&gt;Node8 -->
<g id="edge7" class="edge"><title>Node1&#45;&gt;Node8</title>
<path fill="none" stroke="midnightblue" d="M606.516,-74.2961C649.239,-61.8558 705.448,-45.4882 747.141,-33.3477"/>
<polygon fill="midnightblue" stroke="midnightblue" points="748.252,-36.6699 756.874,-30.5136 746.295,-29.949 748.252,-36.6699"/>
</g>
<!-- Node9 -->
<g id="node9" class="node"><title>Node9</title>
<polygon fill="white" stroke="#bfbfbf" points="876,-0.5 876,-30.5 972,-30.5 972,-0.5 876,-0.5"/>
<text text-anchor="start" x="884" y="-18.5" font-family="Helvetica,sans-Serif" font-size="10.00">pcl/filters/radius</text>
<text text-anchor="middle" x="924" y="-7.5" font-family="Helvetica,sans-Serif" font-size="10.00">_outlier_removal.h</text>
</g>
<!-- Node1&#45;&gt;Node9 -->
<g id="edge8" class="edge"><title>Node1&#45;&gt;Node9</title>
<path fill="none" stroke="midnightblue" d="M606.756,-81.72C669.842,-70.6192 770.076,-52.2644 865.983,-31.1536"/>
<polygon fill="midnightblue" stroke="midnightblue" points="866.841,-34.5485 875.847,-28.969 865.327,-27.7141 866.841,-34.5485"/>
</g>
<!-- Node10 -->
<g id="node10" class="node"><title>Node10</title>
<polygon fill="white" stroke="#bfbfbf" points="990,-6 990,-25 1082,-25 1082,-6 990,-6"/>
<text text-anchor="middle" x="1036" y="-13" font-family="Helvetica,sans-Serif" font-size="10.00">pcl/surface/mls.h</text>
</g>
<!-- Node1&#45;&gt;Node10 -->
<g id="edge9" class="edge"><title>Node1&#45;&gt;Node10</title>
<path fill="none" stroke="midnightblue" d="M606.628,-86.0378C691.832,-76.7119 848.812,-57.6297 981,-31 986.014,-29.9899 991.251,-28.7949 996.415,-27.5313"/>
<polygon fill="midnightblue" stroke="midnightblue" points="997.35,-30.905 1006.18,-25.0471 995.624,-24.1211 997.35,-30.905"/>
</g>
</g>
</svg>
